<svg xmlns="http://www.w3.org/2000/svg" xmlns:xlink="http://www.w3.org/1999/xlink" version="1.1" class="marks" width="716" height="464" viewBox="0 0 716 464"><rect width="716" height="464" fill="white"/><g fill="none" stroke-miterlimit="10" transform="translate(41,27)"><g class="mark-group role-frame root" role="graphics-object" aria-roledescription="group mark container"><g transform="translate(0,0)"><path class="background" aria-hidden="true" d="M0.5,0.5h600v400h-600Z" stroke="#ddd"/><g><g class="mark-group role-axis" aria-hidden="true"><g transform="translate(0.5,400.5)"><path class="background" aria-hidden="true" d="M0,0h0v0h0Z" pointer-events="none"/><g><g class="mark-rule role-axis-grid" pointer-events="none"><line transform="translate(0,-400)" x2="0" y2="400" stroke="#ddd" stroke-width="1" opacity="1"/><line transform="translate(50,-400)" x2="0" y2="400" stroke="#ddd" stroke-width="1" opacity="1"/><line transform="translate(100,-400)" x2="0" y2="400" stroke="#ddd" stroke-width="1" opacity="1"/><line transform="translate(150,-400)" x2="0" y2="400" stroke="#ddd" stroke-width="1" opacity="1"/><line transform="translate(200,-400)" x2="0" y2="400" stroke="#ddd" stroke-width="1" opacity="1"/><line transform="translate(250,-400)" x2="0" y2="400" stroke="#ddd" stroke-width="1" opacity="1"/><line transform="translate(300,-400)" x2="0" y2="400" stroke="#ddd" stroke-width="1" opacity="1"/><line transform="translate(350,-400)" x2="0" y2="400" stroke="#ddd" stroke-width="1" opacity="1"/><line transform="translate(400,-400)" x2="0" y2="400" stroke="#ddd" stroke-width="1" opacity="1"/><line transform="translate(450,-400)" x2="0" y2="400" stroke="#ddd" stroke-width="1" opacity="1"/><line transform="translate(500,-400)" x2="0" y2="400" stroke="#ddd" stroke-width="1" opacity="1"/><line transform="translate(550,-400)" x2="0" y2="400" stroke="#ddd" stroke-width="1" opacity="1"/><line transform="translate(600,-400)" x2="0" y2="400" stroke="#ddd" stroke-width="1" opacity="1"/></g></g><path class="foreground" aria-hidden="true" d="" pointer-events="none" display="none"/></g></g><g class="mark-group role-axis" aria-hidden="true"><g transform="translate(0.5,0.5)"><path class="background" aria-hidden="true" d="M0,0h0v0h0Z" pointer-events="none"/><g><g class="mark-rule role-axis-grid" pointer-events="none"><line transform="translate(0,400)" x2="600" y2="0" stroke="#ddd" stroke-width="1" opacity="1"/><line transform="translate(0,360)" x2="600" y2="0" stroke="#ddd" stroke-width="1" opacity="1"/><line transform="translate(0,320)" x2="600" y2="0" stroke="#ddd" stroke-width="1" opacity="1"/><line transform="translate(0,280)" x2="600" y2="0" stroke="#ddd" stroke-width="1" opacity="1"/><line transform="translate(0,240)" x2="600" y2="0" stroke="#ddd" stroke-width="1" opacity="1"/><line transform="translate(0,200)" x2="600" y2="0" stroke="#ddd" stroke-width="1" opacity="1"/><line transform="translate(0,160)" x2="600" y2="0" stroke="#ddd" stroke-width="1" opacity="1"/><line transform="translate(0,120)" x2="600" y2="0" stroke="#ddd" stroke-width="1" opacity="1"/><line transform="translate(0,80)" x2="600" y2="0" stroke="#ddd" stroke-width="1" opacity="1"/><line transform="translate(0,40)" x2="600" y2="0" stroke="#ddd" stroke-width="1" opacity="1"/><line transform="translate(0,0)" x2="600" y2="0" stroke="#ddd" stroke-width="1" opacity="1"/></g></g><path class="foreground" aria-hidden="true" d="" pointer-events="none" display="none"/></g></g><g class="mark-group role-axis" role="graphics-symbol" aria-roledescription="axis" aria-label="X-axis titled '目標寿命 (年)' for a linear scale with values from 0 to 60"><g transform="translate(0.5,400.5)"><path class="background" aria-hidden="true" d="M0,0h0v0h0Z" pointer-events="none"/><g><g class="mark-rule role-axis-tick" pointer-events="none"><line transform="translate(0,0)" x2="0" y2="5" stroke="#888" stroke-width="1" opacity="1"/><line transform="translate(50,0)" x2="0" y2="5" stroke="#888" stroke-width="1" opacity="1"/><line transform="translate(100,0)" x2="0" y2="5" stroke="#888" stroke-width="1" opacity="1"/><line transform="translate(150,0)" x2="0" y2="5" stroke="#888" stroke-width="1" opacity="1"/><line transform="translate(200,0)" x2="0" y2="5" stroke="#888" stroke-width="1" opacity="1"/><line transform="translate(250,0)" x2="0" y2="5" stroke="#888" stroke-width="1" opacity="1"/><line transform="translate(300,0)" x2="0" y2="5" stroke="#888" stroke-width="1" opacity="1"/><line transform="translate(350,0)" x2="0" y2="5" stroke="#888" stroke-width="1" opacity="1"/><line transform="translate(400,0)" x2="0" y2="5" stroke="#888" stroke-width="1" opacity="1"/><line transform="translate(450,0)" x2="0" y2="5" stroke="#888" stroke-width="1" opacity="1"/><line transform="translate(500,0)" x2="0" y2="5" stroke="#888" stroke-width="1" opacity="1"/><line transform="translate(550,0)" x2="0" y2="5" stroke="#888" stroke-width="1" opacity="1"/><line transform="translate(600,0)" x2="0" y2="5" stroke="#888" stroke-width="1" opacity="1"/></g><g class="mark-text role-axis-label" pointer-events="none"><text text-anchor="start" transform="translate(0,15)" font-family="sans-serif" font-size="10px" fill="#000" opacity="1">0</text><text text-anchor="middle" transform="translate(50,15)" font-family="sans-serif" font-size="10px" fill="#000" opacity="1">5</text><text text-anchor="middle" transform="translate(100,15)" font-family="sans-serif" font-size="10px" fill="#000" opacity="1">10</text><text text-anchor="middle" transform="translate(150,15)" font-family="sans-serif" font-size="10px" fill="#000" opacity="1">15</text><text text-anchor="middle" transform="translate(200,15)" font-family="sans-serif" font-size="10px" fill="#000" opacity="1">20</text><text text-anchor="middle" transform="translate(250,15)" font-family="sans-serif" font-size="10px" fill="#000" opacity="1">25</text><text text-anchor="middle" transform="translate(300,15)" font-family="sans-serif" font-size="10px" fill="#000" opacity="1">30</text><text text-anchor="middle" transform="translate(350,15)" font-family="sans-serif" font-size="10px" fill="#000" opacity="1">35</text><text text-anchor="middle" transform="translate(400,15)" font-family="sans-serif" font-size="10px" fill="#000" opacity="1">40</text><text text-anchor="middle" transform="translate(450,15)" font-family="sans-serif" font-size="10px" fill="#000" opacity="1">45</text><text text-anchor="middle" transform="translate(500,15)" font-family="sans-serif" font-size="10px" fill="#000" opacity="1">50</text><text text-anchor="middle" transform="translate(550,15)" font-family="sans-serif" font-size="10px" fill="#000" opacity="1">55</text><text text-anchor="end" transform="translate(600,15)" font-family="sans-serif" font-size="10px" fill="#000" opacity="1">60</text></g><g class="mark-rule role-axis-domain" pointer-events="none"><line transform="translate(0,0)" x2="600" y2="0" stroke="#888" stroke-width="1" opacity="1"/></g><g class="mark-text role-axis-title" pointer-events="none"><text text-anchor="middle" transform="translate(300,30)" font-family="sans-serif" font-size="11px" font-weight="bold" fill="#000" opacity="1">目標寿命 (年)</text></g></g><path class="foreground" aria-hidden="true" d="" pointer-events="none" display="none"/></g></g><g class="mark-group role-axis" role="graphics-symbol" aria-roledescription="axis" aria-label="Y-axis titled '最適オルカン比率 (近似式)' for a linear scale with values from 0.0 to 1.0"><g transform="translate(0.5,0.5)"><path class="background" aria-hidden="true" d="M0,0h0v0h0Z" pointer-events="none"/><g><g class="mark-rule role-axis-tick" pointer-events="none"><line transform="translate(0,400)" x2="-5" y2="0" stroke="#888" stroke-width="1" opacity="1"/><line transform="translate(0,360)" x2="-5" y2="0" stroke="#888" stroke-width="1" opacity="1"/><line transform="translate(0,320)" x2="-5" y2="0" stroke="#888" stroke-width="1" opacity="1"/><line transform="translate(0,280)" x2="-5" y2="0" stroke="#888" stroke-width="1" opacity="1"/><line transform="translate(0,240)" x2="-5" y2="0" stroke="#888" stroke-width="1" opacity="1"/><line transform="translate(0,200)" x2="-5" y2="0" stroke="#888" stroke-width="1" opacity="1"/><line transform="translate(0,160)" x2="-5" y2="0" stroke="#888" stroke-width="1" opacity="1"/><line transform="translate(0,120)" x2="-5" y2="0" stroke="#888" stroke-width="1" opacity="1"/><line transform="translate(0,80)" x2="-5" y2="0" stroke="#888" stroke-width="1" opacity="1"/><line transform="translate(0,40)" x2="-5" y2="0" stroke="#888" stroke-width="1" opacity="1"/><line transform="translate(0,0)" x2="-5" y2="0" stroke="#888" stroke-width="1" opacity="1"/></g><g class="mark-text role-axis-label" pointer-events="none"><text text-anchor="end" transform="translate(-7,403)" font-family="sans-serif" font-size="10px" fill="#000" opacity="1">0.0</text><text text-anchor="end" transform="translate(-7,363)" font-family="sans-serif" font-size="10px" fill="#000" opacity="1">0.1</text><text text-anchor="end" transform="translate(-7,323)" font-family="sans-serif" font-size="10px" fill="#000" opacity="1">0.2</text><text text-anchor="end" transform="translate(-7,283)" font-family="sans-serif" font-size="10px" fill="#000" opacity="1">0.3</text><text text-anchor="end" transform="translate(-7,243)" font-family="sans-serif" font-size="10px" fill="#000" opacity="1">0.4</text><text text-anchor="end" transform="translate(-7,203)" font-family="sans-serif" font-size="10px" fill="#000" opacity="1">0.5</text><text text-anchor="end" transform="translate(-7,163)" font-family="sans-serif" font-size="10px" fill="#000" opacity="1">0.6</text><text text-anchor="end" transform="translate(-7,123.00000000000001)" font-family="sans-serif" font-size="10px" fill="#000" opacity="1">0.7</text><text text-anchor="end" transform="translate(-7,82.99999999999999)" font-family="sans-serif" font-size="10px" fill="#000" opacity="1">0.8</text><text text-anchor="end" transform="translate(-7,42.99999999999999)" font-family="sans-serif" font-size="10px" fill="#000" opacity="1">0.9</text><text text-anchor="end" transform="translate(-7,3)" font-family="sans-serif" font-size="10px" fill="#000" opacity="1">1.0</text></g><g class="mark-rule role-axis-domain" pointer-events="none"><line transform="translate(0,400)" x2="0" y2="-400" stroke="#888" stroke-width="1" opacity="1"/></g><g class="mark-text role-axis-title" pointer-events="none"><text text-anchor="middle" transform="translate(-24.9013671875,200) rotate(-90) translate(0,-2)" font-family="sans-serif" font-size="11px" font-weight="bold" fill="#000" opacity="1">最適オルカン比率 (近似式)</text></g></g><path class="foreground" aria-hidden="true" d="" pointer-events="none" display="none"/></g></g><g class="mark-group role-scope pathgroup" role="graphics-object" aria-roledescription="group mark container"><g transform="translate(0,0)"><path class="background" aria-hidden="true" d="M0,0h600v400h-600Z"/><g><g class="mark-line role-mark marks" role="graphics-object" aria-roledescription="line mark container"><path aria-label="目標寿命 (年): 1; 最適オルカン比率 (近似式): 1; 支出率: 2.00%; 最適比率 (近似): 1.00" role="graphics-symbol" aria-roledescription="line mark" d="M10,0L20,0L30,0L40,0L50,0L60,0L70,0L80,0L90,0L100,0L110,0L120,0L130,0L140,0L150,0L160,0L170,0.548L180,22.361L190,42.463L200,61.052L210,78.297L220,94.339L230,109.303L240,123.293L250,136.405L260,148.717L270,160.303L280,171.226L290,181.541L300,191.299L310,200.545L320,209.319L330,217.658L340,225.593L350,233.156L360,240.373L370,247.268L380,253.864L390,260.181L400,266.238L410,272.053L420,277.641L430,283.016L440,288.192L450,293.182L460,297.997L470,302.647L480,307.142L490,311.492L500,315.705L510,319.788L520,323.749L530,327.595L540,331.333L550,334.967L560,338.504L570,341.949L580,345.306L590,348.581L600,351.777" stroke="#1f77b4" stroke-width="2"/></g></g><path class="foreground" aria-hidden="true" d="" display="none"/></g><g transform="translate(0,0)"><path class="background" aria-hidden="true" d="M0,0h600v400h-600Z"/><g><g class="mark-line role-mark marks" role="graphics-object" aria-roledescription="line mark container"><path aria-label="目標寿命 (年): 1; 最適オルカン比率 (近似式): 1; 支出率: 2.22%; 最適比率 (近似): 1.00" role="graphics-symbol" aria-roledescription="line mark" d="M10,0L20,0L30,0L40,0L50,0L60,0L70,0L80,0L90,0L100,0L110,0L120,0L130,0L140,0L150,0L160,0L170,23.355L180,45.167L190,65.269L200,83.859L210,101.103L220,117.145L230,132.109L240,146.1L250,159.211L260,171.524L270,183.109L280,194.032L290,204.347L300,214.105L310,223.351L320,232.125L330,240.464L340,248.4L350,255.962L360,263.179L370,270.074L380,276.67L390,282.987L400,289.045L410,294.859L420,300.447L430,305.822L440,310.999L450,315.988L460,320.803L470,325.453L480,329.949L490,334.298L500,338.511L510,342.594L520,346.555L530,350.401L540,354.139L550,357.773L560,361.31L570,364.755L580,368.113L590,371.387L600,374.583" stroke="#ff7f0e" stroke-width="2"/></g></g><path class="foreground" aria-hidden="true" d="" display="none"/></g><g transform="translate(0,0)"><path class="background" aria-hidden="true" d="M0,0h600v400h-600Z"/><g><g class="mark-line role-mark marks" role="graphics-object" aria-roledescription="line mark container"><path aria-label="目標寿命 (年): 1; 最適オルカン比率 (近似式): 1; 支出率: 2.50%; 最適比率 (近似): 1.00" role="graphics-symbol" aria-roledescription="line mark" d="M10,0L20,0L30,0L40,0L50,0L60,0L70,0L80,0L90,0L100,0L110,0L120,0L130,0L140,0L150,3.506L160,29.493L170,53.251L180,75.064L190,95.166L200,113.755L210,131L220,147.042L230,162.005L240,175.996L250,189.107L260,201.42L270,213.006L280,223.929L290,234.244L300,244.002L310,253.248L320,262.022L330,270.36L340,278.296L350,285.859L360,293.076L370,299.971L380,306.567L390,312.884L400,318.941L410,324.756L420,330.344L430,335.719L440,340.895L450,345.885L460,350.7L470,355.35L480,359.845L490,364.195L500,368.407L510,372.491L520,376.452L530,380.298L540,384.035L550,387.67L560,391.207L570,394.652L580,398.009L590,400L600,343.391" stroke="#2ca02c" stroke-width="2"/></g></g><path class="foreground" aria-hidden="true" d="" display="none"/></g><g transform="translate(0,0)"><path class="background" aria-hidden="true" d="M0,0h600v400h-600Z"/><g><g class="mark-line role-mark marks" role="graphics-object" aria-roledescription="line mark container"><path aria-label="目標寿命 (年): 1; 最適オルカン比率 (近似式): 1; 支出率: 2.86%; 最適比率 (近似): 1.00" role="graphics-symbol" aria-roledescription="line mark" d="M10,0L20,0L30,0L40,0L50,0L60,0L70,0L80,0L90,0L100,0L110,0L120,0L130,0L140,13.815L150,42.378L160,68.365L170,92.124L180,113.936L190,134.038L200,152.627L210,169.872L220,185.914L230,200.878L240,214.868L250,227.98L260,240.292L270,251.878L280,262.801L290,273.116L300,282.874L310,292.12L320,300.894L330,309.233L340,317.168L350,324.731L360,331.948L370,338.843L380,345.439L390,351.756L400,357.813L410,363.628L420,369.216L430,374.591L440,379.767L450,384.757L460,389.572L470,394.222L480,398.717L490,348.903L500,289.444L510,261.117L520,240.746L530,224.293L540,210.277L550,197.979L560,186.99L570,177.051L580,167.985L590,159.665L600,151.993" stroke="#d62728" stroke-width="2"/></g></g><path class="foreground" aria-hidden="true" d="" display="none"/></g><g transform="translate(0,0)"><path class="background" aria-hidden="true" d="M0,0h600v400h-600Z"/><g><g class="mark-line role-mark marks" role="graphics-object" aria-roledescription="line mark container"><path aria-label="目標寿命 (年): 1; 最適オルカン比率 (近似式): 1; 支出率: 3.00%; 最適比率 (近似): 1.00" role="graphics-symbol" aria-roledescription="line mark" d="M10,0L20,0L30,0L40,0L50,0L60,0L70,0L80,0L90,0L100,0L110,0L120,0L130,0L140,29.22L150,57.783L160,83.77L170,107.528L180,129.341L190,149.443L200,168.032L210,185.277L220,201.319L230,216.282L240,230.273L250,243.384L260,255.697L270,267.283L280,278.205L290,288.521L300,298.279L310,307.525L320,316.299L330,324.637L340,332.573L350,340.136L360,347.353L370,354.248L380,360.844L390,367.161L400,373.218L410,379.033L420,384.62L430,389.996L440,395.172L450,400L460,319.874L470,274.415L480,248.016L490,228.089L500,211.643L510,197.47L520,184.951L530,173.72L540,163.54L550,154.244L560,145.71L570,137.843L580,130.571L590,123.831L600,117.574" stroke="#9467bd" stroke-width="2"/></g></g><path class="foreground" aria-hidden="true" d="" display="none"/></g><g transform="translate(0,0)"><path class="background" aria-hidden="true" d="M0,0h600v400h-600Z"/><g><g class="mark-line role-mark marks" role="graphics-object" aria-roledescription="line mark container"><path aria-label="目標寿命 (年): 1; 最適オルカン比率 (近似式): 1; 支出率: 3.33%; 最適比率 (近似): 1.00" role="graphics-symbol" aria-roledescription="line mark" d="M10,0L20,0L30,0L40,0L50,0L60,0L70,0L80,0L90,0L100,0L110,0L120,0L130,32.89L140,64.454L150,93.017L160,119.004L170,142.763L180,164.575L190,184.677L200,203.266L210,220.511L220,236.553L230,251.517L240,265.507L250,278.619L260,290.931L270,302.517L280,313.44L290,323.755L300,333.513L310,342.759L320,351.533L330,359.872L340,367.807L350,375.37L360,382.587L370,389.482L380,396.078L390,400L400,300.253L410,255.936L420,228.374L430,207.054L440,189.251L450,173.819L460,160.157L470,147.897L480,136.798L490,126.686L500,117.431L510,108.931L520,101.105L530,93.886L540,87.216L550,81.048L560,75.339L570,70.054L580,65.158L590,60.624L600,56.426" stroke="#8c564b" stroke-width="2"/></g></g><path class="foreground" aria-hidden="true" d="" display="none"/></g><g transform="translate(0,0)"><path class="background" aria-hidden="true" d="M0,0h600v400h-600Z"/><g><g class="mark-line role-mark marks" role="graphics-object" aria-roledescription="line mark container"><path aria-label="目標寿命 (年): 1; 最適オルカン比率 (近似式): 1; 支出率: 3.57%; 最適比率 (近似): 1.00" role="graphics-symbol" aria-roledescription="line mark" d="M10,0L20,0L30,0L40,0L50,0L60,0L70,0L80,0L90,0L100,0L110,0L120,22.227L130,57.328L140,88.892L150,117.455L160,143.443L170,167.201L180,189.013L190,209.115L200,227.705L210,244.949L220,260.991L230,275.955L240,289.946L250,303.057L260,315.369L270,326.955L280,337.878L290,348.193L300,357.951L310,367.197L320,375.971L330,384.31L340,392.246L350,399.808L360,364.303L370,267.62L380,231.438L390,205.674L400,184.843L410,167.095L420,151.555L430,137.725L440,125.287L450,114.022L460,103.767L470,94.396L480,85.809L490,77.926L500,70.676L510,64.003L520,57.856L530,52.191L540,46.97L550,42.158L560,37.725L570,33.643L580,29.887L590,26.436L600,23.268" stroke="#e377c2" stroke-width="2"/></g></g><path class="foreground" aria-hidden="true" d="" display="none"/></g><g transform="translate(0,0)"><path class="background" aria-hidden="true" d="M0,0h600v400h-600Z"/><g><g class="mark-line role-mark marks" role="graphics-object" aria-roledescription="line mark container"><path aria-label="目標寿命 (年): 1; 最適オルカン比率 (近似式): 1; 支出率: 4.00%; 最適比率 (近似): 1.00" role="graphics-symbol" aria-roledescription="line mark" d="M10,0L20,0L30,0L40,0L50,0L60,0L70,0L80,0L90,0L100,0L110,25.177L120,64.498L130,99.599L140,131.164L150,159.726L160,185.714L170,209.472L180,231.284L190,251.386L200,269.976L210,287.22L220,303.263L230,318.226L240,332.217L250,345.328L260,357.641L270,369.227L280,380.149L290,390.465L300,400L310,400L320,257.663L330,215.421L340,186.077L350,162.532L360,142.578L370,125.195L380,109.812L390,96.059L400,83.681L410,72.487L420,62.329L430,53.088L440,44.667L450,36.984L460,29.968L470,23.559L480,17.704L490,12.357L500,7.476L510,3.024L520,0L530,0L540,0L550,0L560,0L570,0L580,0L590,0L600,0" stroke="#7f7f7f" stroke-width="2"/></g></g><path class="foreground" aria-hidden="true" d="" display="none"/></g><g transform="translate(0,0)"><path class="background" aria-hidden="true" d="M0,0h600v400h-600Z"/><g><g class="mark-line role-mark marks" role="graphics-object" aria-roledescription="line mark container"><path aria-label="目標寿命 (年): 1; 最適オルカン比率 (近似式): 1; 支出率: 5.00%; 最適比率 (近似): 1.00" role="graphics-symbol" aria-roledescription="line mark" d="M10,0L20,0L30,0L40,0L50,0L60,0L70,0L80,0L90,20.005L100,70.737L110,115.168L120,154.489L130,189.59L140,221.154L150,249.717L160,275.704L170,299.462L180,321.275L190,341.377L200,359.966L210,377.211L220,393.253L230,400L240,272.36L250,194.83L260,153.157L270,121.602L280,95.64L290,73.519L300,54.321L310,37.475L320,22.59L330,9.373L340,0L350,0L360,0L370,0L380,0L390,0L400,0L410,0L420,0L430,0L440,0L450,0L460,0L470,0L480,0L490,0L500,0L510,0L520,0L530,0L540,0L550,0L560,0L570,0L580,0L590,0L600,0" stroke="#bcbd22" stroke-width="2"/></g></g><path class="foreground" aria-hidden="true" d="" display="none"/></g><g transform="translate(0,0)"><path class="background" aria-hidden="true" d="M0,0h600v400h-600Z"/><g><g class="mark-line role-mark marks" role="graphics-object" aria-roledescription="line mark container"><path aria-label="目標寿命 (年): 1; 最適オルカン比率 (近似式): 1; 支出率: 6.67%; 最適比率 (近似): 1.00" role="graphics-symbol" aria-roledescription="line mark" d="M10,0L20,0L30,0L40,0L50,0L60,0L70,19.154L80,88.13L90,146.806L100,197.539L110,241.97L120,281.29L130,316.391L140,347.956L150,376.518L160,400L170,342.112L180,148.497L190,91.018L200,49.696L210,16.752L220,0L230,0L240,0L250,0L260,0L270,0L280,0L290,0L300,0L310,0L320,0L330,0L340,0L350,0L360,0L370,0L380,0L390,0L400,0L410,0L420,0L430,0L440,0L450,0L460,0L470,0L480,0L490,0L500,0L510,0L520,0L530,0L540,0L550,0L560,0L570,0L580,0L590,0L600,0" stroke="#17becf" stroke-width="2"/></g></g><path class="foreground" aria-hidden="true" d="" display="none"/></g><g transform="translate(0,0)"><path class="background" aria-hidden="true" d="M0,0h600v400h-600Z"/><g><g class="mark-line role-mark marks" role="graphics-object" aria-roledescription="line mark container"><path aria-label="目標寿命 (年): 1; 最適オルカン比率 (近似式): 1; 支出率: 10.00%; 最適比率 (近似): 1.00" role="graphics-symbol" aria-roledescription="line mark" d="M10,0L20,0L30,0L40,0L50,27.974L60,130.321L70,213.139L80,282.114L90,340.791L100,391.523L110,208.647L120,32.817L130,0L140,0L150,0L160,0L170,0L180,0L190,0L200,0L210,0L220,0L230,0L240,0L250,0L260,0L270,0L280,0L290,0L300,0L310,0L320,0L330,0L340,0L350,0L360,0L370,0L380,0L390,0L400,0L410,0L420,0L430,0L440,0L450,0L460,0L470,0L480,0L490,0L500,0L510,0L520,0L530,0L540,0L550,0L560,0L570,0L580,0L590,0L600,0" stroke="#1f77b4" stroke-width="2"/></g></g><path class="foreground" aria-hidden="true" d="" display="none"/></g><g transform="translate(0,0)"><path class="background" aria-hidden="true" d="M0,0h600v400h-600Z"/><g><g class="mark-line role-mark marks" role="graphics-object" aria-roledescription="line mark container"><path aria-label="目標寿命 (年): 1; 最適オルカン比率 (近似式): 1; 支出率: 15.00%; 最適比率 (近似): 1.00" role="graphics-symbol" aria-roledescription="line mark" d="M10,0L20,0L30,0L40,102.529L50,234.387L60,336.734L70,400L80,0L90,0L100,0L110,0L120,0L130,0L140,0L150,0L160,0L170,0L180,0L190,0L200,0L210,0L220,0L230,0L240,0L250,0L260,0L270,0L280,0L290,0L300,0L310,0L320,0L330,0L340,0L350,0L360,0L370,0L380,0L390,0L400,0L410,0L420,0L430,0L440,0L450,0L460,0L470,0L480,0L490,0L500,0L510,0L520,0L530,0L540,0L550,0L560,0L570,0L580,0L590,0L600,0" stroke="#ff7f0e" stroke-width="2"/></g></g><path class="foreground" aria-hidden="true" d="" display="none"/></g><g transform="translate(0,0)"><path class="background" aria-hidden="true" d="M0,0h600v400h-600Z"/><g><g class="mark-line role-mark marks" role="graphics-object" aria-roledescription="line mark container"><path aria-label="目標寿命 (年): 1; 最適オルカン比率 (近似式): 1; 支出率: 20.00%; 最適比率 (近似): 1.00" role="graphics-symbol" aria-roledescription="line mark" d="M10,0L20,0L30,72.838L40,254.189L50,386.047L60,0L70,0L80,0L90,0L100,0L110,0L120,0L130,0L140,0L150,0L160,0L170,0L180,0L190,0L200,0L210,0L220,0L230,0L240,0L250,0L260,0L270,0L280,0L290,0L300,0L310,0L320,0L330,0L340,0L350,0L360,0L370,0L380,0L390,0L400,0L410,0L420,0L430,0L440,0L450,0L460,0L470,0L480,0L490,0L500,0L510,0L520,0L530,0L540,0L550,0L560,0L570,0L580,0L590,0L600,0" stroke="#2ca02c" stroke-width="2"/></g></g><path class="foreground" aria-hidden="true" d="" display="none"/></g><g transform="translate(0,0)"><path class="background" aria-hidden="true" d="M0,0h600v400h-600Z"/><g><g class="mark-line role-mark marks" role="graphics-object" aria-roledescription="line mark container"><path aria-label="目標寿命 (年): 1; 最適オルカン比率 (近似式): 1; 支出率: 25.00%; 最適比率 (近似): 1.00" role="graphics-symbol" aria-roledescription="line mark" d="M10,0L20,0L30,192.658L40,374.01L50,0L60,0L70,0L80,0L90,0L100,0L110,0L120,0L130,0L140,0L150,0L160,0L170,0L180,0L190,0L200,0L210,0L220,0L230,0L240,0L250,0L260,0L270,0L280,0L290,0L300,0L310,0L320,0L330,0L340,0L350,0L360,0L370,0L380,0L390,0L400,0L410,0L420,0L430,0L440,0L450,0L460,0L470,0L480,0L490,0L500,0L510,0L520,0L530,0L540,0L550,0L560,0L570,0L580,0L590,0L600,0" stroke="#d62728" stroke-width="2"/></g></g><path class="foreground" aria-hidden="true" d="" display="none"/></g><g transform="translate(0,0)"><path class="background" aria-hidden="true" d="M0,0h600v400h-600Z"/><g><g class="mark-line role-mark marks" role="graphics-object" aria-roledescription="line mark container"><path aria-label="目標寿命 (年): 1; 最適オルカン比率 (近似式): 1; 支出率: 33.33%; 最適比率 (近似): 1.00" role="graphics-symbol" aria-roledescription="line mark" d="M10,0L20,68.699L30,349.29L40,0L50,0L60,0L70,0L80,0L90,0L100,0L110,0L120,0L130,0L140,0L150,0L160,0L170,0L180,0L190,0L200,0L210,0L220,0L230,0L240,0L250,0L260,0L270,0L280,0L290,0L300,0L310,0L320,0L330,0L340,0L350,0L360,0L370,0L380,0L390,0L400,0L410,0L420,0L430,0L440,0L450,0L460,0L470,0L480,0L490,0L500,0L510,0L520,0L530,0L540,0L550,0L560,0L570,0L580,0L590,0L600,3.243" stroke="#9467bd" stroke-width="2"/></g></g><path class="foreground" aria-hidden="true" d="" display="none"/></g></g><g class="mark-group role-legend" role="graphics-symbol" aria-roledescription="legend" aria-label="Symbol legend titled '支出率' for stroke color with 15 values: 2.00%, 2.22%, 2.50%, 2.86%, 3.00%, ending with 33.33%"><g transform="translate(620,0)"><path class="background" aria-hidden="true" d="M0,0h50v209h-50Z" pointer-events="none"/><g><g class="mark-group role-legend-entry"><g transform="translate(0,16)"><path class="background" aria-hidden="true" d="M0,0h0v0h0Z" pointer-events="none"/><g><g class="mark-group role-scope" role="graphics-object" aria-roledescription="group mark container"><g transform="translate(0,0)"><path class="background" aria-hidden="true" d="M0,0h49.916015625v11h-49.916015625Z" pointer-events="none" opacity="1"/><g><g class="mark-symbol role-legend-symbol" pointer-events="none"><path transform="translate(6,6)" d="M-5,0L5,0" stroke="#1f77b4" stroke-width="1.5" opacity="1"/></g><g class="mark-text role-legend-label" pointer-events="none"><text text-anchor="start" transform="translate(16,9)" font-family="sans-serif" font-size="10px" fill="#000" opacity="1">2.00%</text></g></g><path class="foreground" aria-hidden="true" d="" pointer-events="none" display="none"/></g><g transform="translate(0,13)"><path class="background" aria-hidden="true" d="M0,0h49.916015625v11h-49.916015625Z" pointer-events="none" opacity="1"/><g><g class="mark-symbol role-legend-symbol" pointer-events="none"><path transform="translate(6,6)" d="M-5,0L5,0" stroke="#ff7f0e" stroke-width="1.5" opacity="1"/></g><g class="mark-text role-legend-label" pointer-events="none"><text text-anchor="start" transform="translate(16,9)" font-family="sans-serif" font-size="10px" fill="#000" opacity="1">2.22%</text></g></g><path class="foreground" aria-hidden="true" d="" pointer-events="none" display="none"/></g><g transform="translate(0,26)"><path class="background" aria-hidden="true" d="M0,0h49.916015625v11h-49.916015625Z" pointer-events="none" opacity="1"/><g><g class="mark-symbol role-legend-symbol" pointer-events="none"><path transform="translate(6,6)" d="M-5,0L5,0" stroke="#2ca02c" stroke-width="1.5" opacity="1"/></g><g class="mark-text role-legend-label" pointer-events="none"><text text-anchor="start" transform="translate(16,9)" font-family="sans-serif" font-size="10px" fill="#000" opacity="1">2.50%</text></g></g><path class="foreground" aria-hidden="true" d="" pointer-events="none" display="none"/></g><g transform="translate(0,39)"><path class="background" aria-hidden="true" d="M0,0h49.916015625v11h-49.916015625Z" pointer-events="none" opacity="1"/><g><g class="mark-symbol role-legend-symbol" pointer-events="none"><path transform="translate(6,6)" d="M-5,0L5,0" stroke="#d62728" stroke-width="1.5" opacity="1"/></g><g class="mark-text role-legend-label" pointer-events="none"><text text-anchor="start" transform="translate(16,9)" font-family="sans-serif" font-size="10px" fill="#000" opacity="1">2.86%</text></g></g><path class="foreground" aria-hidden="true" d="" pointer-events="none" display="none"/></g><g transform="translate(0,52)"><path class="background" aria-hidden="true" d="M0,0h49.916015625v11h-49.916015625Z" pointer-events="none" opacity="1"/><g><g class="mark-symbol role-legend-symbol" pointer-events="none"><path transform="translate(6,6)" d="M-5,0L5,0" stroke="#9467bd" stroke-width="1.5" opacity="1"/></g><g class="mark-text role-legend-label" pointer-events="none"><text text-anchor="start" transform="translate(16,9)" font-family="sans-serif" font-size="10px" fill="#000" opacity="1">3.00%</text></g></g><path class="foreground" aria-hidden="true" d="" pointer-events="none" display="none"/></g><g transform="translate(0,65)"><path class="background" aria-hidden="true" d="M0,0h49.916015625v11h-49.916015625Z" pointer-events="none" opacity="1"/><g><g class="mark-symbol role-legend-symbol" pointer-events="none"><path transform="translate(6,6)" d="M-5,0L5,0" stroke="#8c564b" stroke-width="1.5" opacity="1"/></g><g class="mark-text role-legend-label" pointer-events="none"><text text-anchor="start" transform="translate(16,9)" font-family="sans-serif" font-size="10px" fill="#000" opacity="1">3.33%</text></g></g><path class="foreground" aria-hidden="true" d="" pointer-events="none" display="none"/></g><g transform="translate(0,78)"><path class="background" aria-hidden="true" d="M0,0h49.916015625v11h-49.916015625Z" pointer-events="none" opacity="1"/><g><g class="mark-symbol role-legend-symbol" pointer-events="none"><path transform="translate(6,6)" d="M-5,0L5,0" stroke="#e377c2" stroke-width="1.5" opacity="1"/></g><g class="mark-text role-legend-label" pointer-events="none"><text text-anchor="start" transform="translate(16,9)" font-family="sans-serif" font-size="10px" fill="#000" opacity="1">3.57%</text></g></g><path class="foreground" aria-hidden="true" d="" pointer-events="none" display="none"/></g><g transform="translate(0,91)"><path class="background" aria-hidden="true" d="M0,0h49.916015625v11h-49.916015625Z" pointer-events="none" opacity="1"/><g><g class="mark-symbol role-legend-symbol" pointer-events="none"><path transform="translate(6,6)" d="M-5,0L5,0" stroke="#7f7f7f" stroke-width="1.5" opacity="1"/></g><g class="mark-text role-legend-label" pointer-events="none"><text text-anchor="start" transform="translate(16,9)" font-family="sans-serif" font-size="10px" fill="#000" opacity="1">4.00%</text></g></g><path class="foreground" aria-hidden="true" d="" pointer-events="none" display="none"/></g><g transform="translate(0,104)"><path class="background" aria-hidden="true" d="M0,0h49.916015625v11h-49.916015625Z" pointer-events="none" opacity="1"/><g><g class="mark-symbol role-legend-symbol" pointer-events="none"><path transform="translate(6,6)" d="M-5,0L5,0" stroke="#bcbd22" stroke-width="1.5" opacity="1"/></g><g class="mark-text role-legend-label" pointer-events="none"><text text-anchor="start" transform="translate(16,9)" font-family="sans-serif" font-size="10px" fill="#000" opacity="1">5.00%</text></g></g><path class="foreground" aria-hidden="true" d="" pointer-events="none" display="none"/></g><g transform="translate(0,117)"><path class="background" aria-hidden="true" d="M0,0h49.916015625v11h-49.916015625Z" pointer-events="none" opacity="1"/><g><g class="mark-symbol role-legend-symbol" pointer-events="none"><path transform="translate(6,6)" d="M-5,0L5,0" stroke="#17becf" stroke-width="1.5" opacity="1"/></g><g class="mark-text role-legend-label" pointer-events="none"><text text-anchor="start" transform="translate(16,9)" font-family="sans-serif" font-size="10px" fill="#000" opacity="1">6.67%</text></g></g><path class="foreground" aria-hidden="true" d="" pointer-events="none" display="none"/></g><g transform="translate(0,130)"><path class="background" aria-hidden="true" d="M0,0h49.916015625v11h-49.916015625Z" pointer-events="none" opacity="1"/><g><g class="mark-symbol role-legend-symbol" pointer-events="none"><path transform="translate(6,6)" d="M-5,0L5,0" stroke="#1f77b4" stroke-width="1.5" opacity="1"/></g><g class="mark-text role-legend-label" pointer-events="none"><text text-anchor="start" transform="translate(16,9)" font-family="sans-serif" font-size="10px" fill="#000" opacity="1">10.00%</text></g></g><path class="foreground" aria-hidden="true" d="" pointer-events="none" display="none"/></g><g transform="translate(0,143)"><path class="background" aria-hidden="true" d="M0,0h49.916015625v11h-49.916015625Z" pointer-events="none" opacity="1"/><g><g class="mark-symbol role-legend-symbol" pointer-events="none"><path transform="translate(6,6)" d="M-5,0L5,0" stroke="#ff7f0e" stroke-width="1.5" opacity="1"/></g><g class="mark-text role-legend-label" pointer-events="none"><text text-anchor="start" transform="translate(16,9)" font-family="sans-serif" font-size="10px" fill="#000" opacity="1">15.00%</text></g></g><path class="foreground" aria-hidden="true" d="" pointer-events="none" display="none"/></g><g transform="translate(0,156)"><path class="background" aria-hidden="true" d="M0,0h49.916015625v11h-49.916015625Z" pointer-events="none" opacity="1"/><g><g class="mark-symbol role-legend-symbol" pointer-events="none"><path transform="translate(6,6)" d="M-5,0L5,0" stroke="#2ca02c" stroke-width="1.5" opacity="1"/></g><g class="mark-text role-legend-label" pointer-events="none"><text text-anchor="start" transform="translate(16,9)" font-family="sans-serif" font-size="10px" fill="#000" opacity="1">20.00%</text></g></g><path class="foreground" aria-hidden="true" d="" pointer-events="none" display="none"/></g><g transform="translate(0,169)"><path class="background" aria-hidden="true" d="M0,0h49.916015625v11h-49.916015625Z" pointer-events="none" opacity="1"/><g><g class="mark-symbol role-legend-symbol" pointer-events="none"><path transform="translate(6,6)" d="M-5,0L5,0" stroke="#d62728" stroke-width="1.5" opacity="1"/></g><g class="mark-text role-legend-label" pointer-events="none"><text text-anchor="start" transform="translate(16,9)" font-family="sans-serif" font-size="10px" fill="#000" opacity="1">25.00%</text></g></g><path class="foreground" aria-hidden="true" d="" pointer-events="none" display="none"/></g><g transform="translate(0,182)"><path class="background" aria-hidden="true" d="M0,0h49.916015625v11h-49.916015625Z" pointer-events="none" opacity="1"/><g><g class="mark-symbol role-legend-symbol" pointer-events="none"><path transform="translate(6,6)" d="M-5,0L5,0" stroke="#9467bd" stroke-width="1.5" opacity="1"/></g><g class="mark-text role-legend-label" pointer-events="none"><text text-anchor="start" transform="translate(16,9)" font-family="sans-serif" font-size="10px" fill="#000" opacity="1">33.33%</text></g></g><path class="foreground" aria-hidden="true" d="" pointer-events="none" display="none"/></g></g></g><path class="foreground" aria-hidden="true" d="" pointer-events="none" display="none"/></g></g><g class="mark-text role-legend-title" pointer-events="none"><text text-anchor="start" transform="translate(0,9)" font-family="sans-serif" font-size="11px" font-weight="bold" fill="#000" opacity="1">支出率</text></g></g><path class="foreground" aria-hidden="true" d="" pointer-events="none" display="none"/></g></g><g class="mark-group role-title"><g transform="translate(300,-22)"><path class="background" aria-hidden="true" d="M0,0h0v0h0Z" pointer-events="none"/><g><g class="mark-text role-title-text" role="graphics-symbol" aria-roledescription="title" aria-label="Title text '近似式による最適オルカン比率の推移 (60年)'" pointer-events="none"><text text-anchor="middle" transform="translate(0,10)" font-family="sans-serif" font-size="13px" font-weight="bold" fill="#000" opacity="1">近似式による最適オルカン比率の推移 (60年)</text></g></g><path class="foreground" aria-hidden="true" d="" pointer-events="none" display="none"/></g></g></g><path class="foreground" aria-hidden="true" d="" display="none"/></g></g></g></svg>