<svg xmlns="http://www.w3.org/2000/svg" xmlns:xlink="http://www.w3.org/1999/xlink" version="1.1" class="marks" width="711" height="464" viewBox="0 0 711 464"><rect width="711" height="464" fill="white"/><g fill="none" stroke-miterlimit="10" transform="translate(41,27)"><g class="mark-group role-frame root" role="graphics-object" aria-roledescription="group mark container"><g transform="translate(0,0)"><path class="background" aria-hidden="true" d="M0.5,0.5h600v400h-600Z" stroke="#ddd"/><g><g class="mark-group role-axis" aria-hidden="true"><g transform="translate(0.5,400.5)"><path class="background" aria-hidden="true" d="M0,0h0v0h0Z" pointer-events="none"/><g><g class="mark-rule role-axis-grid" pointer-events="none"><line transform="translate(0,-400)" x2="0" y2="400" stroke="#ddd" stroke-width="1" opacity="1"/><line transform="translate(50,-400)" x2="0" y2="400" stroke="#ddd" stroke-width="1" opacity="1"/><line transform="translate(100,-400)" x2="0" y2="400" stroke="#ddd" stroke-width="1" opacity="1"/><line transform="translate(150,-400)" x2="0" y2="400" stroke="#ddd" stroke-width="1" opacity="1"/><line transform="translate(200,-400)" x2="0" y2="400" stroke="#ddd" stroke-width="1" opacity="1"/><line transform="translate(250,-400)" x2="0" y2="400" stroke="#ddd" stroke-width="1" opacity="1"/><line transform="translate(300,-400)" x2="0" y2="400" stroke="#ddd" stroke-width="1" opacity="1"/><line transform="translate(350,-400)" x2="0" y2="400" stroke="#ddd" stroke-width="1" opacity="1"/><line transform="translate(400,-400)" x2="0" y2="400" stroke="#ddd" stroke-width="1" opacity="1"/><line transform="translate(450,-400)" x2="0" y2="400" stroke="#ddd" stroke-width="1" opacity="1"/><line transform="translate(500,-400)" x2="0" y2="400" stroke="#ddd" stroke-width="1" opacity="1"/><line transform="translate(550,-400)" x2="0" y2="400" stroke="#ddd" stroke-width="1" opacity="1"/><line transform="translate(600,-400)" x2="0" y2="400" stroke="#ddd" stroke-width="1" opacity="1"/></g></g><path class="foreground" aria-hidden="true" d="" pointer-events="none" display="none"/></g></g><g class="mark-group role-axis" aria-hidden="true"><g transform="translate(0.5,0.5)"><path class="background" aria-hidden="true" d="M0,0h0v0h0Z" pointer-events="none"/><g><g class="mark-rule role-axis-grid" pointer-events="none"><line transform="translate(0,400)" x2="600" y2="0" stroke="#ddd" stroke-width="1" opacity="1"/><line transform="translate(0,360)" x2="600" y2="0" stroke="#ddd" stroke-width="1" opacity="1"/><line transform="translate(0,320)" x2="600" y2="0" stroke="#ddd" stroke-width="1" opacity="1"/><line transform="translate(0,280)" x2="600" y2="0" stroke="#ddd" stroke-width="1" opacity="1"/><line transform="translate(0,240)" x2="600" y2="0" stroke="#ddd" stroke-width="1" opacity="1"/><line transform="translate(0,200)" x2="600" y2="0" stroke="#ddd" stroke-width="1" opacity="1"/><line transform="translate(0,160)" x2="600" y2="0" stroke="#ddd" stroke-width="1" opacity="1"/><line transform="translate(0,120)" x2="600" y2="0" stroke="#ddd" stroke-width="1" opacity="1"/><line transform="translate(0,80)" x2="600" y2="0" stroke="#ddd" stroke-width="1" opacity="1"/><line transform="translate(0,40)" x2="600" y2="0" stroke="#ddd" stroke-width="1" opacity="1"/><line transform="translate(0,0)" x2="600" y2="0" stroke="#ddd" stroke-width="1" opacity="1"/></g></g><path class="foreground" aria-hidden="true" d="" pointer-events="none" display="none"/></g></g><g class="mark-group role-axis" role="graphics-symbol" aria-roledescription="axis" aria-label="X-axis titled '目標寿命 (年)' for a linear scale with values from 0 to 60"><g transform="translate(0.5,400.5)"><path class="background" aria-hidden="true" d="M0,0h0v0h0Z" pointer-events="none"/><g><g class="mark-rule role-axis-tick" pointer-events="none"><line transform="translate(0,0)" x2="0" y2="5" stroke="#888" stroke-width="1" opacity="1"/><line transform="translate(50,0)" x2="0" y2="5" stroke="#888" stroke-width="1" opacity="1"/><line transform="translate(100,0)" x2="0" y2="5" stroke="#888" stroke-width="1" opacity="1"/><line transform="translate(150,0)" x2="0" y2="5" stroke="#888" stroke-width="1" opacity="1"/><line transform="translate(200,0)" x2="0" y2="5" stroke="#888" stroke-width="1" opacity="1"/><line transform="translate(250,0)" x2="0" y2="5" stroke="#888" stroke-width="1" opacity="1"/><line transform="translate(300,0)" x2="0" y2="5" stroke="#888" stroke-width="1" opacity="1"/><line transform="translate(350,0)" x2="0" y2="5" stroke="#888" stroke-width="1" opacity="1"/><line transform="translate(400,0)" x2="0" y2="5" stroke="#888" stroke-width="1" opacity="1"/><line transform="translate(450,0)" x2="0" y2="5" stroke="#888" stroke-width="1" opacity="1"/><line transform="translate(500,0)" x2="0" y2="5" stroke="#888" stroke-width="1" opacity="1"/><line transform="translate(550,0)" x2="0" y2="5" stroke="#888" stroke-width="1" opacity="1"/><line transform="translate(600,0)" x2="0" y2="5" stroke="#888" stroke-width="1" opacity="1"/></g><g class="mark-text role-axis-label" pointer-events="none"><text text-anchor="start" transform="translate(0,15)" font-family="sans-serif" font-size="10px" fill="#000" opacity="1">0</text><text text-anchor="middle" transform="translate(50,15)" font-family="sans-serif" font-size="10px" fill="#000" opacity="1">5</text><text text-anchor="middle" transform="translate(100,15)" font-family="sans-serif" font-size="10px" fill="#000" opacity="1">10</text><text text-anchor="middle" transform="translate(150,15)" font-family="sans-serif" font-size="10px" fill="#000" opacity="1">15</text><text text-anchor="middle" transform="translate(200,15)" font-family="sans-serif" font-size="10px" fill="#000" opacity="1">20</text><text text-anchor="middle" transform="translate(250,15)" font-family="sans-serif" font-size="10px" fill="#000" opacity="1">25</text><text text-anchor="middle" transform="translate(300,15)" font-family="sans-serif" font-size="10px" fill="#000" opacity="1">30</text><text text-anchor="middle" transform="translate(350,15)" font-family="sans-serif" font-size="10px" fill="#000" opacity="1">35</text><text text-anchor="middle" transform="translate(400,15)" font-family="sans-serif" font-size="10px" fill="#000" opacity="1">40</text><text text-anchor="middle" transform="translate(450,15)" font-family="sans-serif" font-size="10px" fill="#000" opacity="1">45</text><text text-anchor="middle" transform="translate(500,15)" font-family="sans-serif" font-size="10px" fill="#000" opacity="1">50</text><text text-anchor="middle" transform="translate(550,15)" font-family="sans-serif" font-size="10px" fill="#000" opacity="1">55</text><text text-anchor="end" transform="translate(600,15)" font-family="sans-serif" font-size="10px" fill="#000" opacity="1">60</text></g><g class="mark-rule role-axis-domain" pointer-events="none"><line transform="translate(0,0)" x2="600" y2="0" stroke="#888" stroke-width="1" opacity="1"/></g><g class="mark-text role-axis-title" pointer-events="none"><text text-anchor="middle" transform="translate(300,30)" font-family="sans-serif" font-size="11px" font-weight="bold" fill="#000" opacity="1">目標寿命 (年)</text></g></g><path class="foreground" aria-hidden="true" d="" pointer-events="none" display="none"/></g></g><g class="mark-group role-axis" role="graphics-symbol" aria-roledescription="axis" aria-label="Y-axis titled '最適オルカン比率 (近似式)' for a linear scale with values from 0.0 to 1.0"><g transform="translate(0.5,0.5)"><path class="background" aria-hidden="true" d="M0,0h0v0h0Z" pointer-events="none"/><g><g class="mark-rule role-axis-tick" pointer-events="none"><line transform="translate(0,400)" x2="-5" y2="0" stroke="#888" stroke-width="1" opacity="1"/><line transform="translate(0,360)" x2="-5" y2="0" stroke="#888" stroke-width="1" opacity="1"/><line transform="translate(0,320)" x2="-5" y2="0" stroke="#888" stroke-width="1" opacity="1"/><line transform="translate(0,280)" x2="-5" y2="0" stroke="#888" stroke-width="1" opacity="1"/><line transform="translate(0,240)" x2="-5" y2="0" stroke="#888" stroke-width="1" opacity="1"/><line transform="translate(0,200)" x2="-5" y2="0" stroke="#888" stroke-width="1" opacity="1"/><line transform="translate(0,160)" x2="-5" y2="0" stroke="#888" stroke-width="1" opacity="1"/><line transform="translate(0,120)" x2="-5" y2="0" stroke="#888" stroke-width="1" opacity="1"/><line transform="translate(0,80)" x2="-5" y2="0" stroke="#888" stroke-width="1" opacity="1"/><line transform="translate(0,40)" x2="-5" y2="0" stroke="#888" stroke-width="1" opacity="1"/><line transform="translate(0,0)" x2="-5" y2="0" stroke="#888" stroke-width="1" opacity="1"/></g><g class="mark-text role-axis-label" pointer-events="none"><text text-anchor="end" transform="translate(-7,403)" font-family="sans-serif" font-size="10px" fill="#000" opacity="1">0.0</text><text text-anchor="end" transform="translate(-7,363)" font-family="sans-serif" font-size="10px" fill="#000" opacity="1">0.1</text><text text-anchor="end" transform="translate(-7,323)" font-family="sans-serif" font-size="10px" fill="#000" opacity="1">0.2</text><text text-anchor="end" transform="translate(-7,283)" font-family="sans-serif" font-size="10px" fill="#000" opacity="1">0.3</text><text text-anchor="end" transform="translate(-7,243)" font-family="sans-serif" font-size="10px" fill="#000" opacity="1">0.4</text><text text-anchor="end" transform="translate(-7,203)" font-family="sans-serif" font-size="10px" fill="#000" opacity="1">0.5</text><text text-anchor="end" transform="translate(-7,163)" font-family="sans-serif" font-size="10px" fill="#000" opacity="1">0.6</text><text text-anchor="end" transform="translate(-7,123.00000000000001)" font-family="sans-serif" font-size="10px" fill="#000" opacity="1">0.7</text><text text-anchor="end" transform="translate(-7,82.99999999999999)" font-family="sans-serif" font-size="10px" fill="#000" opacity="1">0.8</text><text text-anchor="end" transform="translate(-7,42.99999999999999)" font-family="sans-serif" font-size="10px" fill="#000" opacity="1">0.9</text><text text-anchor="end" transform="translate(-7,3)" font-family="sans-serif" font-size="10px" fill="#000" opacity="1">1.0</text></g><g class="mark-rule role-axis-domain" pointer-events="none"><line transform="translate(0,400)" x2="0" y2="-400" stroke="#888" stroke-width="1" opacity="1"/></g><g class="mark-text role-axis-title" pointer-events="none"><text text-anchor="middle" transform="translate(-24.9013671875,200) rotate(-90) translate(0,-2)" font-family="sans-serif" font-size="11px" font-weight="bold" fill="#000" opacity="1">最適オルカン比率 (近似式)</text></g></g><path class="foreground" aria-hidden="true" d="" pointer-events="none" display="none"/></g></g><g class="mark-group role-scope pathgroup" role="graphics-object" aria-roledescription="group mark container"><g transform="translate(0,0)"><path class="background" aria-hidden="true" d="M0,0h600v400h-600Z"/><g><g class="mark-line role-mark marks" role="graphics-object" aria-roledescription="line mark container"><path aria-label="目標寿命 (年): 1; 最適オルカン比率 (近似式): 1; 支出率: 2.00%; 最適比率 (近似): 1.00" role="graphics-symbol" aria-roledescription="line mark" d="M10,0L20,0L30,0L40,0L50,0L60,0L70,0L80,0L90,0L100,0L110,0L120,0L130,0L140,0L150,0L160,0L170,0L180,10.121L190,28.859L200,46.37L210,62.783L220,78.211L230,92.746L240,106.472L250,119.456L260,131.76L270,143.437L280,154.535L290,165.093L300,175.151L310,184.739L320,193.888L330,202.624L340,210.971L350,218.951L360,226.582L370,233.884L380,240.873L390,247.563L400,253.968L410,260.101L420,265.974L430,271.597L440,276.98L450,282.133L460,287.064L470,291.782L480,296.293L490,300.605L500,304.724L510,308.657L520,312.409L530,315.985L540,319.391L550,322.631L560,325.71L570,328.632L580,331.401L590,334.021L600,336.496" stroke="#1f77b4" stroke-width="2"/></g></g><path class="foreground" aria-hidden="true" d="" display="none"/></g><g transform="translate(0,0)"><path class="background" aria-hidden="true" d="M0,0h600v400h-600Z"/><g><g class="mark-line role-mark marks" role="graphics-object" aria-roledescription="line mark container"><path aria-label="目標寿命 (年): 1; 最適オルカン比率 (近似式): 1; 支出率: 2.22%; 最適比率 (近似): 1.00" role="graphics-symbol" aria-roledescription="line mark" d="M10,0L20,0L30,0L40,0L50,0L60,0L70,0L80,0L90,0L100,0L110,0L120,0L130,0L140,0L150,0L160,1.556L170,23.254L180,43.378L190,62.116L200,79.626L210,96.04L220,111.467L230,126.003L240,139.728L250,152.712L260,165.016L270,176.694L280,187.791L290,198.35L300,208.407L310,217.996L320,227.145L330,235.881L340,244.228L350,252.207L360,259.839L370,267.141L380,274.129L390,280.819L400,287.225L410,293.358L420,299.23L430,304.853L440,310.237L450,315.39L460,320.321L470,325.039L480,329.55L490,333.862L500,337.981L510,341.914L520,345.665L530,349.241L540,352.647L550,355.887L560,358.966L570,361.889L580,364.658L590,367.278L600,369.753" stroke="#ff7f0e" stroke-width="2"/></g></g><path class="foreground" aria-hidden="true" d="" display="none"/></g><g transform="translate(0,0)"><path class="background" aria-hidden="true" d="M0,0h600v400h-600Z"/><g><g class="mark-line role-mark marks" role="graphics-object" aria-roledescription="line mark container"><path aria-label="目標寿命 (年): 1; 最適オルカン比率 (近似式): 1; 支出率: 2.50%; 最適比率 (近似): 1.00" role="graphics-symbol" aria-roledescription="line mark" d="M10,0L20,0L30,0L40,0L50,0L60,0L70,0L80,0L90,0L100,0L110,0L120,0L130,0L140,0L150,15.495L160,39L170,60.698L180,80.821L190,99.56L200,117.07L210,133.484L220,148.911L230,163.447L240,177.172L250,190.156L260,202.46L270,214.138L280,225.235L290,235.794L300,245.851L310,255.44L320,264.588L330,273.324L340,281.671L350,289.651L360,297.283L370,304.585L380,311.573L390,318.263L400,324.668L410,330.802L420,336.674L430,342.297L440,347.681L450,352.834L460,357.765L470,362.482L480,366.994L490,371.306L500,375.425L510,379.357L520,383.109L530,386.685L540,390.091L550,393.331L560,396.41L570,399.332L580,400L590,400L600,355.466" stroke="#2ca02c" stroke-width="2"/></g></g><path class="foreground" aria-hidden="true" d="" display="none"/></g><g transform="translate(0,0)"><path class="background" aria-hidden="true" d="M0,0h600v400h-600Z"/><g><g class="mark-line role-mark marks" role="graphics-object" aria-roledescription="line mark container"><path aria-label="目標寿命 (年): 1; 最適オルカン比率 (近似式): 1; 支出率: 2.86%; 最適比率 (近似): 1.00" role="graphics-symbol" aria-roledescription="line mark" d="M10,0L20,0L30,0L40,0L50,0L60,0L70,0L80,0L90,0L100,0L110,0L120,0L130,4.653L140,32.712L150,58.312L160,81.817L170,103.515L180,123.638L190,142.377L200,159.887L210,176.3L220,191.728L230,206.264L240,219.989L250,232.973L260,245.277L270,256.955L280,268.052L290,278.611L300,288.668L310,298.256L320,307.405L330,316.141L340,324.488L350,332.468L360,340.1L370,347.402L380,354.39L390,361.08L400,367.485L410,373.618L420,379.491L430,385.114L440,390.497L450,395.65L460,400L470,400L480,400L490,359.243L500,292.262L510,259.831L520,237.1L530,219.2L540,204.286L550,191.451L560,180.173L570,170.126L580,161.085L590,152.892L600,145.426" stroke="#d62728" stroke-width="2"/></g></g><path class="foreground" aria-hidden="true" d="" display="none"/></g><g transform="translate(0,0)"><path class="background" aria-hidden="true" d="M0,0h600v400h-600Z"/><g><g class="mark-line role-mark marks" role="graphics-object" aria-roledescription="line mark container"><path aria-label="目標寿命 (年): 1; 最適オルカン比率 (近似式): 1; 支出率: 3.00%; 最適比率 (近似): 1.00" role="graphics-symbol" aria-roledescription="line mark" d="M10,0L20,0L30,0L40,0L50,0L60,0L70,0L80,0L90,0L100,0L110,0L120,0L130,20.415L140,48.473L150,74.073L160,97.578L170,119.277L180,139.4L190,158.138L200,175.648L210,192.062L220,207.49L230,222.025L240,235.75L250,248.735L260,261.039L270,272.716L280,283.813L290,294.372L300,304.43L310,314.018L320,323.167L330,331.903L340,340.25L350,348.229L360,355.861L370,363.163L380,370.152L390,376.842L400,383.247L410,389.38L420,395.253L430,400L440,400L450,400L460,327.137L470,275.401L480,245.684L490,223.848L500,206.265L510,191.431L520,178.567L530,167.211L540,157.066L550,147.922L560,139.63L570,132.075L580,125.165L590,118.83L600,113.009" stroke="#9467bd" stroke-width="2"/></g></g><path class="foreground" aria-hidden="true" d="" display="none"/></g><g transform="translate(0,0)"><path class="background" aria-hidden="true" d="M0,0h600v400h-600Z"/><g><g class="mark-line role-mark marks" role="graphics-object" aria-roledescription="line mark container"><path aria-label="目標寿命 (年): 1; 最適オルカン比率 (近似式): 1; 支出率: 3.33%; 最適比率 (近似): 1.00" role="graphics-symbol" aria-roledescription="line mark" d="M10,0L20,0L30,0L40,0L50,0L60,0L70,0L80,0L90,0L100,0L110,0L120,23.678L130,54.661L140,82.719L150,108.319L160,131.824L170,153.522L180,173.646L190,192.384L200,209.894L210,226.308L220,241.735L230,256.271L240,269.996L250,282.98L260,295.285L270,306.962L280,318.059L290,328.618L300,338.675L310,348.264L320,357.413L330,366.149L340,374.496L350,382.475L360,390.107L370,397.409L380,400L390,400L400,305.458L410,255.956L420,225.692L430,202.912L440,184.342L450,168.571L460,154.85L470,142.728L480,131.904L490,122.168L500,113.363L510,105.368L520,98.087L530,91.443L540,85.37L550,79.815L560,74.729L570,70.074L580,65.813L590,61.914L600,58.351" stroke="#8c564b" stroke-width="2"/></g></g><path class="foreground" aria-hidden="true" d="" display="none"/></g><g transform="translate(0,0)"><path class="background" aria-hidden="true" d="M0,0h600v400h-600Z"/><g><g class="mark-line role-mark marks" role="graphics-object" aria-roledescription="line mark container"><path aria-label="目標寿命 (年): 1; 最適オルカン比率 (近似式): 1; 支出率: 3.57%; 最適比率 (近似): 1.00" role="graphics-symbol" aria-roledescription="line mark" d="M10,0L20,0L30,0L40,0L50,0L60,0L70,0L80,0L90,0L100,0L110,11.767L120,46.285L130,77.267L140,105.326L150,130.926L160,154.431L170,176.129L180,196.252L190,214.99L200,232.501L210,248.914L220,264.342L230,278.878L240,292.603L250,305.587L260,317.891L270,329.568L280,340.666L290,351.225L300,361.282L310,370.87L320,380.019L330,388.755L340,397.102L350,400L360,367.296L370,269.954L380,230.206L390,202.631L400,180.906L410,162.799L420,147.237L430,133.611L440,121.533L450,110.736L460,101.027L470,92.259L480,84.316L490,77.104L500,70.545L510,64.576L520,59.14L530,54.19L540,49.684L550,45.585L560,41.862L570,38.484L580,35.427L590,32.667L600,30.182" stroke="#e377c2" stroke-width="2"/></g></g><path class="foreground" aria-hidden="true" d="" display="none"/></g><g transform="translate(0,0)"><path class="background" aria-hidden="true" d="M0,0h600v400h-600Z"/><g><g class="mark-line role-mark marks" role="graphics-object" aria-roledescription="line mark container"><path aria-label="目標寿命 (年): 1; 最適オルカン比率 (近似式): 1; 支出率: 4.00%; 最適比率 (近似): 1.00" role="graphics-symbol" aria-roledescription="line mark" d="M10,0L20,0L30,0L40,0L50,0L60,0L70,0L80,0L90,0L100,10.371L110,49.243L120,83.76L130,114.743L140,142.801L150,168.402L160,191.907L170,213.605L180,233.728L190,252.466L200,269.976L210,286.39L220,301.818L230,316.353L240,330.078L250,343.063L260,355.367L270,367.044L280,378.142L290,388.7L300,398.758L310,400L320,260.665L330,215.151L340,184.273L350,160.125L360,140.099L370,122.972L380,108.055L390,94.91L400,83.233L410,72.804L420,63.453L430,55.048L440,47.478L450,40.654L460,34.5L470,28.951L480,23.951L490,19.451L500,15.408L510,11.784L520,8.544L530,5.659L540,3.1L550,0.845L560,0L570,0L580,0L590,0L600,0" stroke="#7f7f7f" stroke-width="2"/></g></g><path class="foreground" aria-hidden="true" d="" display="none"/></g><g transform="translate(0,0)"><path class="background" aria-hidden="true" d="M0,0h600v400h-600Z"/><g><g class="mark-line role-mark marks" role="graphics-object" aria-roledescription="line mark container"><path aria-label="目標寿命 (年): 1; 最適オルカン比率 (近似式): 1; 支出率: 5.00%; 最適比率 (近似): 1.00" role="graphics-symbol" aria-roledescription="line mark" d="M10,0L20,0L30,0L40,0L50,0L60,0L70,0L80,0L90,41.228L100,85.588L110,124.46L120,158.977L130,189.96L140,218.018L150,243.619L160,267.124L170,288.822L180,308.945L190,327.683L200,345.194L210,361.607L220,377.035L230,391.571L240,275.779L250,197.848L260,155.02L270,123.349L280,97.855L290,76.535L300,58.332L310,42.595L320,28.882L330,16.872L340,6.319L350,0L360,0L370,0L380,0L390,0L400,0L410,0L420,0L430,0L440,0L450,0L460,0L470,0L480,0L490,0L500,0L510,0L520,0L530,0L540,0L550,0L560,0L570,0L580,0L590,0L600,0" stroke="#bcbd22" stroke-width="2"/></g></g><path class="foreground" aria-hidden="true" d="" display="none"/></g><g transform="translate(0,0)"><path class="background" aria-hidden="true" d="M0,0h600v400h-600Z"/><g><g class="mark-line role-mark marks" role="graphics-object" aria-roledescription="line mark container"><path aria-label="目標寿命 (年): 1; 最適オルカン比率 (近似式): 1; 支出率: 6.67%; 最適比率 (近似): 1.00" role="graphics-symbol" aria-roledescription="line mark" d="M10,0L20,0L30,0L40,0L50,0L60,0L70,29.243L80,90.26L90,141.733L100,186.093L110,224.964L120,259.482L130,290.464L140,318.523L150,344.123L160,367.628L170,297.66L180,155.025L190,98.444L200,58.367L210,27.033L220,1.558L230,0L240,0L250,0L260,0L270,0L280,0L290,0L300,0L310,0L320,0L330,0L340,0L350,0L360,0L370,0L380,0L390,0L400,0L410,0L420,0L430,0L440,0L450,0L460,0L470,0L480,0L490,0L500,0L510,0L520,0L530,0L540,0L550,0L560,0L570,0L580,0L590,0L600,0" stroke="#17becf" stroke-width="2"/></g></g><path class="foreground" aria-hidden="true" d="" display="none"/></g></g><g class="mark-group role-legend" role="graphics-symbol" aria-roledescription="legend" aria-label="Symbol legend titled '支出率' for stroke color with 10 values: 2.00%, 2.22%, 2.50%, 2.86%, 3.00%, ending with 6.67%"><g transform="translate(620,0)"><path class="background" aria-hidden="true" d="M0,0h45v144h-45Z" pointer-events="none"/><g><g class="mark-group role-legend-entry"><g transform="translate(0,16)"><path class="background" aria-hidden="true" d="M0,0h0v0h0Z" pointer-events="none"/><g><g class="mark-group role-scope" role="graphics-object" aria-roledescription="group mark container"><g transform="translate(0,0)"><path class="background" aria-hidden="true" d="M0,0h44.3544921875v11h-44.3544921875Z" pointer-events="none" opacity="1"/><g><g class="mark-symbol role-legend-symbol" pointer-events="none"><path transform="translate(6,6)" d="M-5,0L5,0" stroke="#1f77b4" stroke-width="1.5" opacity="1"/></g><g class="mark-text role-legend-label" pointer-events="none"><text text-anchor="start" transform="translate(16,9)" font-family="sans-serif" font-size="10px" fill="#000" opacity="1">2.00%</text></g></g><path class="foreground" aria-hidden="true" d="" pointer-events="none" display="none"/></g><g transform="translate(0,13)"><path class="background" aria-hidden="true" d="M0,0h44.3544921875v11h-44.3544921875Z" pointer-events="none" opacity="1"/><g><g class="mark-symbol role-legend-symbol" pointer-events="none"><path transform="translate(6,6)" d="M-5,0L5,0" stroke="#ff7f0e" stroke-width="1.5" opacity="1"/></g><g class="mark-text role-legend-label" pointer-events="none"><text text-anchor="start" transform="translate(16,9)" font-family="sans-serif" font-size="10px" fill="#000" opacity="1">2.22%</text></g></g><path class="foreground" aria-hidden="true" d="" pointer-events="none" display="none"/></g><g transform="translate(0,26)"><path class="background" aria-hidden="true" d="M0,0h44.3544921875v11h-44.3544921875Z" pointer-events="none" opacity="1"/><g><g class="mark-symbol role-legend-symbol" pointer-events="none"><path transform="translate(6,6)" d="M-5,0L5,0" stroke="#2ca02c" stroke-width="1.5" opacity="1"/></g><g class="mark-text role-legend-label" pointer-events="none"><text text-anchor="start" transform="translate(16,9)" font-family="sans-serif" font-size="10px" fill="#000" opacity="1">2.50%</text></g></g><path class="foreground" aria-hidden="true" d="" pointer-events="none" display="none"/></g><g transform="translate(0,39)"><path class="background" aria-hidden="true" d="M0,0h44.3544921875v11h-44.3544921875Z" pointer-events="none" opacity="1"/><g><g class="mark-symbol role-legend-symbol" pointer-events="none"><path transform="translate(6,6)" d="M-5,0L5,0" stroke="#d62728" stroke-width="1.5" opacity="1"/></g><g class="mark-text role-legend-label" pointer-events="none"><text text-anchor="start" transform="translate(16,9)" font-family="sans-serif" font-size="10px" fill="#000" opacity="1">2.86%</text></g></g><path class="foreground" aria-hidden="true" d="" pointer-events="none" display="none"/></g><g transform="translate(0,52)"><path class="background" aria-hidden="true" d="M0,0h44.3544921875v11h-44.3544921875Z" pointer-events="none" opacity="1"/><g><g class="mark-symbol role-legend-symbol" pointer-events="none"><path transform="translate(6,6)" d="M-5,0L5,0" stroke="#9467bd" stroke-width="1.5" opacity="1"/></g><g class="mark-text role-legend-label" pointer-events="none"><text text-anchor="start" transform="translate(16,9)" font-family="sans-serif" font-size="10px" fill="#000" opacity="1">3.00%</text></g></g><path class="foreground" aria-hidden="true" d="" pointer-events="none" display="none"/></g><g transform="translate(0,65)"><path class="background" aria-hidden="true" d="M0,0h44.3544921875v11h-44.3544921875Z" pointer-events="none" opacity="1"/><g><g class="mark-symbol role-legend-symbol" pointer-events="none"><path transform="translate(6,6)" d="M-5,0L5,0" stroke="#8c564b" stroke-width="1.5" opacity="1"/></g><g class="mark-text role-legend-label" pointer-events="none"><text text-anchor="start" transform="translate(16,9)" font-family="sans-serif" font-size="10px" fill="#000" opacity="1">3.33%</text></g></g><path class="foreground" aria-hidden="true" d="" pointer-events="none" display="none"/></g><g transform="translate(0,78)"><path class="background" aria-hidden="true" d="M0,0h44.3544921875v11h-44.3544921875Z" pointer-events="none" opacity="1"/><g><g class="mark-symbol role-legend-symbol" pointer-events="none"><path transform="translate(6,6)" d="M-5,0L5,0" stroke="#e377c2" stroke-width="1.5" opacity="1"/></g><g class="mark-text role-legend-label" pointer-events="none"><text text-anchor="start" transform="translate(16,9)" font-family="sans-serif" font-size="10px" fill="#000" opacity="1">3.57%</text></g></g><path class="foreground" aria-hidden="true" d="" pointer-events="none" display="none"/></g><g transform="translate(0,91)"><path class="background" aria-hidden="true" d="M0,0h44.3544921875v11h-44.3544921875Z" pointer-events="none" opacity="1"/><g><g class="mark-symbol role-legend-symbol" pointer-events="none"><path transform="translate(6,6)" d="M-5,0L5,0" stroke="#7f7f7f" stroke-width="1.5" opacity="1"/></g><g class="mark-text role-legend-label" pointer-events="none"><text text-anchor="start" transform="translate(16,9)" font-family="sans-serif" font-size="10px" fill="#000" opacity="1">4.00%</text></g></g><path class="foreground" aria-hidden="true" d="" pointer-events="none" display="none"/></g><g transform="translate(0,104)"><path class="background" aria-hidden="true" d="M0,0h44.3544921875v11h-44.3544921875Z" pointer-events="none" opacity="1"/><g><g class="mark-symbol role-legend-symbol" pointer-events="none"><path transform="translate(6,6)" d="M-5,0L5,0" stroke="#bcbd22" stroke-width="1.5" opacity="1"/></g><g class="mark-text role-legend-label" pointer-events="none"><text text-anchor="start" transform="translate(16,9)" font-family="sans-serif" font-size="10px" fill="#000" opacity="1">5.00%</text></g></g><path class="foreground" aria-hidden="true" d="" pointer-events="none" display="none"/></g><g transform="translate(0,117)"><path class="background" aria-hidden="true" d="M0,0h44.3544921875v11h-44.3544921875Z" pointer-events="none" opacity="1"/><g><g class="mark-symbol role-legend-symbol" pointer-events="none"><path transform="translate(6,6)" d="M-5,0L5,0" stroke="#17becf" stroke-width="1.5" opacity="1"/></g><g class="mark-text role-legend-label" pointer-events="none"><text text-anchor="start" transform="translate(16,9)" font-family="sans-serif" font-size="10px" fill="#000" opacity="1">6.67%</text></g></g><path class="foreground" aria-hidden="true" d="" pointer-events="none" display="none"/></g></g></g><path class="foreground" aria-hidden="true" d="" pointer-events="none" display="none"/></g></g><g class="mark-text role-legend-title" pointer-events="none"><text text-anchor="start" transform="translate(0,9)" font-family="sans-serif" font-size="11px" font-weight="bold" fill="#000" opacity="1">支出率</text></g></g><path class="foreground" aria-hidden="true" d="" pointer-events="none" display="none"/></g></g><g class="mark-group role-title"><g transform="translate(300,-22)"><path class="background" aria-hidden="true" d="M0,0h0v0h0Z" pointer-events="none"/><g><g class="mark-text role-title-text" role="graphics-symbol" aria-roledescription="title" aria-label="Title text '近似式による最適オルカン比率の推移 (60年)'" pointer-events="none"><text text-anchor="middle" transform="translate(0,10)" font-family="sans-serif" font-size="13px" font-weight="bold" fill="#000" opacity="1">近似式による最適オルカン比率の推移 (60年)</text></g></g><path class="foreground" aria-hidden="true" d="" pointer-events="none" display="none"/></g></g></g><path class="foreground" aria-hidden="true" d="" display="none"/></g></g></g></svg>