<svg xmlns="http://www.w3.org/2000/svg" xmlns:xlink="http://www.w3.org/1999/xlink" version="1.1" class="marks" width="711" height="464" viewBox="0 0 711 464"><rect width="711" height="464" fill="white"/><g fill="none" stroke-miterlimit="10" transform="translate(41,27)"><g class="mark-group role-frame root" role="graphics-object" aria-roledescription="group mark container"><g transform="translate(0,0)"><path class="background" aria-hidden="true" d="M0.5,0.5h600v400h-600Z" stroke="#ddd"/><g><g class="mark-group role-axis" aria-hidden="true"><g transform="translate(0.5,400.5)"><path class="background" aria-hidden="true" d="M0,0h0v0h0Z" pointer-events="none"/><g><g class="mark-rule role-axis-grid" pointer-events="none"><line transform="translate(0,-400)" x2="0" y2="400" stroke="#ddd" stroke-width="1" opacity="1"/><line transform="translate(50,-400)" x2="0" y2="400" stroke="#ddd" stroke-width="1" opacity="1"/><line transform="translate(100,-400)" x2="0" y2="400" stroke="#ddd" stroke-width="1" opacity="1"/><line transform="translate(150,-400)" x2="0" y2="400" stroke="#ddd" stroke-width="1" opacity="1"/><line transform="translate(200,-400)" x2="0" y2="400" stroke="#ddd" stroke-width="1" opacity="1"/><line transform="translate(250,-400)" x2="0" y2="400" stroke="#ddd" stroke-width="1" opacity="1"/><line transform="translate(300,-400)" x2="0" y2="400" stroke="#ddd" stroke-width="1" opacity="1"/><line transform="translate(350,-400)" x2="0" y2="400" stroke="#ddd" stroke-width="1" opacity="1"/><line transform="translate(400,-400)" x2="0" y2="400" stroke="#ddd" stroke-width="1" opacity="1"/><line transform="translate(450,-400)" x2="0" y2="400" stroke="#ddd" stroke-width="1" opacity="1"/><line transform="translate(500,-400)" x2="0" y2="400" stroke="#ddd" stroke-width="1" opacity="1"/><line transform="translate(550,-400)" x2="0" y2="400" stroke="#ddd" stroke-width="1" opacity="1"/><line transform="translate(600,-400)" x2="0" y2="400" stroke="#ddd" stroke-width="1" opacity="1"/></g></g><path class="foreground" aria-hidden="true" d="" pointer-events="none" display="none"/></g></g><g class="mark-group role-axis" aria-hidden="true"><g transform="translate(0.5,0.5)"><path class="background" aria-hidden="true" d="M0,0h0v0h0Z" pointer-events="none"/><g><g class="mark-rule role-axis-grid" pointer-events="none"><line transform="translate(0,400)" x2="600" y2="0" stroke="#ddd" stroke-width="1" opacity="1"/><line transform="translate(0,360)" x2="600" y2="0" stroke="#ddd" stroke-width="1" opacity="1"/><line transform="translate(0,320)" x2="600" y2="0" stroke="#ddd" stroke-width="1" opacity="1"/><line transform="translate(0,280)" x2="600" y2="0" stroke="#ddd" stroke-width="1" opacity="1"/><line transform="translate(0,240)" x2="600" y2="0" stroke="#ddd" stroke-width="1" opacity="1"/><line transform="translate(0,200)" x2="600" y2="0" stroke="#ddd" stroke-width="1" opacity="1"/><line transform="translate(0,160)" x2="600" y2="0" stroke="#ddd" stroke-width="1" opacity="1"/><line transform="translate(0,120)" x2="600" y2="0" stroke="#ddd" stroke-width="1" opacity="1"/><line transform="translate(0,80)" x2="600" y2="0" stroke="#ddd" stroke-width="1" opacity="1"/><line transform="translate(0,40)" x2="600" y2="0" stroke="#ddd" stroke-width="1" opacity="1"/><line transform="translate(0,0)" x2="600" y2="0" stroke="#ddd" stroke-width="1" opacity="1"/></g></g><path class="foreground" aria-hidden="true" d="" pointer-events="none" display="none"/></g></g><g class="mark-group role-axis" role="graphics-symbol" aria-roledescription="axis" aria-label="X-axis titled '目標寿命 (年)' for a linear scale with values from 0 to 60"><g transform="translate(0.5,400.5)"><path class="background" aria-hidden="true" d="M0,0h0v0h0Z" pointer-events="none"/><g><g class="mark-rule role-axis-tick" pointer-events="none"><line transform="translate(0,0)" x2="0" y2="5" stroke="#888" stroke-width="1" opacity="1"/><line transform="translate(50,0)" x2="0" y2="5" stroke="#888" stroke-width="1" opacity="1"/><line transform="translate(100,0)" x2="0" y2="5" stroke="#888" stroke-width="1" opacity="1"/><line transform="translate(150,0)" x2="0" y2="5" stroke="#888" stroke-width="1" opacity="1"/><line transform="translate(200,0)" x2="0" y2="5" stroke="#888" stroke-width="1" opacity="1"/><line transform="translate(250,0)" x2="0" y2="5" stroke="#888" stroke-width="1" opacity="1"/><line transform="translate(300,0)" x2="0" y2="5" stroke="#888" stroke-width="1" opacity="1"/><line transform="translate(350,0)" x2="0" y2="5" stroke="#888" stroke-width="1" opacity="1"/><line transform="translate(400,0)" x2="0" y2="5" stroke="#888" stroke-width="1" opacity="1"/><line transform="translate(450,0)" x2="0" y2="5" stroke="#888" stroke-width="1" opacity="1"/><line transform="translate(500,0)" x2="0" y2="5" stroke="#888" stroke-width="1" opacity="1"/><line transform="translate(550,0)" x2="0" y2="5" stroke="#888" stroke-width="1" opacity="1"/><line transform="translate(600,0)" x2="0" y2="5" stroke="#888" stroke-width="1" opacity="1"/></g><g class="mark-text role-axis-label" pointer-events="none"><text text-anchor="start" transform="translate(0,15)" font-family="sans-serif" font-size="10px" fill="#000" opacity="1">0</text><text text-anchor="middle" transform="translate(50,15)" font-family="sans-serif" font-size="10px" fill="#000" opacity="1">5</text><text text-anchor="middle" transform="translate(100,15)" font-family="sans-serif" font-size="10px" fill="#000" opacity="1">10</text><text text-anchor="middle" transform="translate(150,15)" font-family="sans-serif" font-size="10px" fill="#000" opacity="1">15</text><text text-anchor="middle" transform="translate(200,15)" font-family="sans-serif" font-size="10px" fill="#000" opacity="1">20</text><text text-anchor="middle" transform="translate(250,15)" font-family="sans-serif" font-size="10px" fill="#000" opacity="1">25</text><text text-anchor="middle" transform="translate(300,15)" font-family="sans-serif" font-size="10px" fill="#000" opacity="1">30</text><text text-anchor="middle" transform="translate(350,15)" font-family="sans-serif" font-size="10px" fill="#000" opacity="1">35</text><text text-anchor="middle" transform="translate(400,15)" font-family="sans-serif" font-size="10px" fill="#000" opacity="1">40</text><text text-anchor="middle" transform="translate(450,15)" font-family="sans-serif" font-size="10px" fill="#000" opacity="1">45</text><text text-anchor="middle" transform="translate(500,15)" font-family="sans-serif" font-size="10px" fill="#000" opacity="1">50</text><text text-anchor="middle" transform="translate(550,15)" font-family="sans-serif" font-size="10px" fill="#000" opacity="1">55</text><text text-anchor="end" transform="translate(600,15)" font-family="sans-serif" font-size="10px" fill="#000" opacity="1">60</text></g><g class="mark-rule role-axis-domain" pointer-events="none"><line transform="translate(0,0)" x2="600" y2="0" stroke="#888" stroke-width="1" opacity="1"/></g><g class="mark-text role-axis-title" pointer-events="none"><text text-anchor="middle" transform="translate(300,30)" font-family="sans-serif" font-size="11px" font-weight="bold" fill="#000" opacity="1">目標寿命 (年)</text></g></g><path class="foreground" aria-hidden="true" d="" pointer-events="none" display="none"/></g></g><g class="mark-group role-axis" role="graphics-symbol" aria-roledescription="axis" aria-label="Y-axis titled '最適オルカン比率 (近似式)' for a linear scale with values from 0.0 to 1.0"><g transform="translate(0.5,0.5)"><path class="background" aria-hidden="true" d="M0,0h0v0h0Z" pointer-events="none"/><g><g class="mark-rule role-axis-tick" pointer-events="none"><line transform="translate(0,400)" x2="-5" y2="0" stroke="#888" stroke-width="1" opacity="1"/><line transform="translate(0,360)" x2="-5" y2="0" stroke="#888" stroke-width="1" opacity="1"/><line transform="translate(0,320)" x2="-5" y2="0" stroke="#888" stroke-width="1" opacity="1"/><line transform="translate(0,280)" x2="-5" y2="0" stroke="#888" stroke-width="1" opacity="1"/><line transform="translate(0,240)" x2="-5" y2="0" stroke="#888" stroke-width="1" opacity="1"/><line transform="translate(0,200)" x2="-5" y2="0" stroke="#888" stroke-width="1" opacity="1"/><line transform="translate(0,160)" x2="-5" y2="0" stroke="#888" stroke-width="1" opacity="1"/><line transform="translate(0,120)" x2="-5" y2="0" stroke="#888" stroke-width="1" opacity="1"/><line transform="translate(0,80)" x2="-5" y2="0" stroke="#888" stroke-width="1" opacity="1"/><line transform="translate(0,40)" x2="-5" y2="0" stroke="#888" stroke-width="1" opacity="1"/><line transform="translate(0,0)" x2="-5" y2="0" stroke="#888" stroke-width="1" opacity="1"/></g><g class="mark-text role-axis-label" pointer-events="none"><text text-anchor="end" transform="translate(-7,403)" font-family="sans-serif" font-size="10px" fill="#000" opacity="1">0.0</text><text text-anchor="end" transform="translate(-7,363)" font-family="sans-serif" font-size="10px" fill="#000" opacity="1">0.1</text><text text-anchor="end" transform="translate(-7,323)" font-family="sans-serif" font-size="10px" fill="#000" opacity="1">0.2</text><text text-anchor="end" transform="translate(-7,283)" font-family="sans-serif" font-size="10px" fill="#000" opacity="1">0.3</text><text text-anchor="end" transform="translate(-7,243)" font-family="sans-serif" font-size="10px" fill="#000" opacity="1">0.4</text><text text-anchor="end" transform="translate(-7,203)" font-family="sans-serif" font-size="10px" fill="#000" opacity="1">0.5</text><text text-anchor="end" transform="translate(-7,163)" font-family="sans-serif" font-size="10px" fill="#000" opacity="1">0.6</text><text text-anchor="end" transform="translate(-7,123.00000000000001)" font-family="sans-serif" font-size="10px" fill="#000" opacity="1">0.7</text><text text-anchor="end" transform="translate(-7,82.99999999999999)" font-family="sans-serif" font-size="10px" fill="#000" opacity="1">0.8</text><text text-anchor="end" transform="translate(-7,42.99999999999999)" font-family="sans-serif" font-size="10px" fill="#000" opacity="1">0.9</text><text text-anchor="end" transform="translate(-7,3)" font-family="sans-serif" font-size="10px" fill="#000" opacity="1">1.0</text></g><g class="mark-rule role-axis-domain" pointer-events="none"><line transform="translate(0,400)" x2="0" y2="-400" stroke="#888" stroke-width="1" opacity="1"/></g><g class="mark-text role-axis-title" pointer-events="none"><text text-anchor="middle" transform="translate(-24.9013671875,200) rotate(-90) translate(0,-2)" font-family="sans-serif" font-size="11px" font-weight="bold" fill="#000" opacity="1">最適オルカン比率 (近似式)</text></g></g><path class="foreground" aria-hidden="true" d="" pointer-events="none" display="none"/></g></g><g class="mark-group role-scope pathgroup" role="graphics-object" aria-roledescription="group mark container"><g transform="translate(0,0)"><path class="background" aria-hidden="true" d="M0,0h600v400h-600Z"/><g><g class="mark-line role-mark marks" role="graphics-object" aria-roledescription="line mark container"><path aria-label="目標寿命 (年): 1; 最適オルカン比率 (近似式): 1; 支出率: 2.00%; 最適比率 (近似): 1.00" role="graphics-symbol" aria-roledescription="line mark" d="M10,0L20,0L30,0L40,0L50,0L60,0L70,0L80,0L90,0L100,0L110,0L120,0L130,0L140,0L150,0L160,0L170,0L180,0L190,18.712L200,38.525L210,56.898L220,73.993L230,89.951L240,104.888L250,118.904L260,132.085L270,144.506L280,156.232L290,167.319L300,177.816L310,187.769L320,197.216L330,206.192L340,214.728L350,222.852L360,230.589L370,237.962L380,244.992L390,251.698L400,258.096L410,264.202L420,270.031L430,275.596L440,280.909L450,285.98L460,290.821L470,295.441L480,299.848L490,304.052L500,308.059L510,311.877L520,315.512L530,318.971L540,322.26L550,325.383L560,328.346L570,331.155L580,333.812L590,336.324L600,338.693" stroke="#1f77b4" stroke-width="2"/></g></g><path class="foreground" aria-hidden="true" d="" display="none"/></g><g transform="translate(0,0)"><path class="background" aria-hidden="true" d="M0,0h600v400h-600Z"/><g><g class="mark-line role-mark marks" role="graphics-object" aria-roledescription="line mark container"><path aria-label="目標寿命 (年): 1; 最適オルカン比率 (近似式): 1; 支出率: 2.22%; 最適比率 (近似): 1.00" role="graphics-symbol" aria-roledescription="line mark" d="M10,0L20,0L30,0L40,0L50,0L60,0L70,0L80,0L90,0L100,0L110,0L120,0L130,0L140,0L150,0L160,0L170,14.415L180,36.894L190,57.582L200,76.707L210,94.456L220,110.985L230,126.426L240,140.888L250,154.468L260,167.247L270,179.295L280,190.675L290,201.439L300,211.636L310,221.308L320,230.491L330,239.219L340,247.521L350,255.425L360,262.955L370,270.132L380,276.976L390,283.505L400,289.735L410,295.682L420,301.359L430,306.779L440,311.953L450,316.892L460,321.607L470,326.106L480,330.397L490,334.489L500,338.39L510,342.105L520,345.642L530,349.006L540,352.203L550,355.238L560,358.116L570,360.843L580,363.421L590,365.856L600,368.151" stroke="#ff7f0e" stroke-width="2"/></g></g><path class="foreground" aria-hidden="true" d="" display="none"/></g><g transform="translate(0,0)"><path class="background" aria-hidden="true" d="M0,0h600v400h-600Z"/><g><g class="mark-line role-mark marks" role="graphics-object" aria-roledescription="line mark container"><path aria-label="目標寿命 (年): 1; 最適オルカン比率 (近似式): 1; 支出率: 2.50%; 最適比率 (近似): 1.00" role="graphics-symbol" aria-roledescription="line mark" d="M10,0L20,0L30,0L40,0L50,0L60,0L70,0L80,0L90,0L100,0L110,0L120,0L130,0L140,0L150,8.411L160,34.286L170,57.872L180,79.496L190,99.419L200,117.855L210,134.981L220,150.944L230,165.867L240,179.855L250,192.999L260,205.375L270,217.051L280,228.084L290,238.526L300,248.422L310,257.812L320,266.731L330,275.211L340,283.281L350,290.965L360,298.287L370,305.267L380,311.925L390,318.277L400,324.34L410,330.127L420,335.652L430,340.927L440,345.963L450,350.77L460,355.358L470,359.736L480,363.911L490,367.892L500,371.686L510,375.298L520,378.736L530,382.005L540,385.111L550,388.058L560,390.851L570,393.496L580,395.995L590,398.353L600,400" stroke="#2ca02c" stroke-width="2"/></g></g><path class="foreground" aria-hidden="true" d="" display="none"/></g><g transform="translate(0,0)"><path class="background" aria-hidden="true" d="M0,0h600v400h-600Z"/><g><g class="mark-line role-mark marks" role="graphics-object" aria-roledescription="line mark container"><path aria-label="目標寿命 (年): 1; 最適オルカン比率 (近似式): 1; 支出率: 2.86%; 最適比率 (近似): 1.00" role="graphics-symbol" aria-roledescription="line mark" d="M10,0L20,0L30,0L40,0L50,0L60,0L70,0L80,0L90,0L100,0L110,0L120,0L130,0L140,30.337L150,57.664L160,82.448L170,105.072L180,125.841L190,144.998L200,162.746L210,179.249L220,194.645L230,209.051L240,222.566L250,235.273L260,247.247L270,258.549L280,269.236L290,279.356L300,288.952L310,298.06L320,306.716L330,314.948L340,322.784L350,330.248L360,337.362L370,344.146L380,350.618L390,356.794L400,362.689L410,368.316L420,373.689L430,378.819L440,383.717L450,388.392L460,392.854L470,397.11L480,400L490,400L500,322.537L510,279.056L520,250.918L530,230.088L540,213.548L550,199.834L560,188.121L570,177.902L580,168.84L590,160.699L600,153.31" stroke="#d62728" stroke-width="2"/></g></g><path class="foreground" aria-hidden="true" d="" display="none"/></g><g transform="translate(0,0)"><path class="background" aria-hidden="true" d="M0,0h600v400h-600Z"/><g><g class="mark-line role-mark marks" role="graphics-object" aria-roledescription="line mark container"><path aria-label="目標寿命 (年): 1; 最適オルカン比率 (近似式): 1; 支出率: 3.00%; 最適比率 (近似): 1.00" role="graphics-symbol" aria-roledescription="line mark" d="M10,0L20,0L30,0L40,0L50,0L60,0L70,0L80,0L90,0L100,0L110,0L120,0L130,18.318L140,48.197L150,75.108L160,99.529L170,121.832L180,142.315L190,161.218L200,178.736L210,195.031L220,210.238L230,224.472L240,237.828L250,250.39L260,262.23L270,273.408L280,283.98L290,293.992L300,303.487L310,312.502L320,321.069L330,329.219L340,336.977L350,344.368L360,351.413L370,358.131L380,364.541L390,370.658L400,376.497L410,382.071L420,387.394L430,392.475L440,397.327L450,400L460,367.093L470,293.566L480,255.652L490,229.947L500,210.486L510,194.827L520,181.73L530,170.475L540,160.609L550,151.828L560,143.917L570,136.721L580,130.12L590,124.025L600,118.364" stroke="#9467bd" stroke-width="2"/></g></g><path class="foreground" aria-hidden="true" d="" display="none"/></g><g transform="translate(0,0)"><path class="background" aria-hidden="true" d="M0,0h600v400h-600Z"/><g><g class="mark-line role-mark marks" role="graphics-object" aria-roledescription="line mark container"><path aria-label="目標寿命 (年): 1; 最適オルカン比率 (近似式): 1; 支出率: 3.33%; 最適比率 (近似): 1.00" role="graphics-symbol" aria-roledescription="line mark" d="M10,0L20,0L30,0L40,0L50,0L60,0L70,0L80,0L90,0L100,0L110,0L120,24.484L130,56.835L140,85.756L150,111.836L160,135.529L170,157.191L180,177.104L190,195.497L200,212.556L210,228.436L220,243.265L230,257.154L240,270.194L250,282.466L260,294.037L270,304.966L280,315.307L290,325.105L300,334.399L310,343.227L320,351.618L330,359.603L340,367.205L350,374.45L360,381.356L370,387.944L380,394.229L390,400L400,324.927L410,258.252L420,222.218L430,197.415L440,178.497L450,163.208L460,150.383L470,139.34L480,129.646L490,121.008L500,113.22L510,106.13L520,99.624L530,93.613L540,88.027L550,82.81L560,77.917L570,73.309L580,68.956L590,64.831L600,60.91" stroke="#8c564b" stroke-width="2"/></g></g><path class="foreground" aria-hidden="true" d="" display="none"/></g><g transform="translate(0,0)"><path class="background" aria-hidden="true" d="M0,0h600v400h-600Z"/><g><g class="mark-line role-mark marks" role="graphics-object" aria-roledescription="line mark container"><path aria-label="目標寿命 (年): 1; 最適オルカン比率 (近似式): 1; 支出率: 3.57%; 最適比率 (近似): 1.00" role="graphics-symbol" aria-roledescription="line mark" d="M10,0L20,0L30,0L40,0L50,0L60,0L70,0L80,0L90,0L100,0L110,13.872L120,49.645L130,81.324L140,109.67L150,135.251L160,158.509L170,179.786L180,199.357L190,217.443L200,234.227L210,249.857L220,264.46L230,278.142L240,290.993L250,303.09L260,314.499L270,325.28L280,335.482L290,345.151L300,354.325L310,363.04L320,371.326L330,379.211L340,386.721L350,393.877L360,400L370,271.217L380,222.355L390,192.171L400,170.3L410,153.153L420,139.057L430,127.092L440,116.701L450,107.52L460,99.298L470,91.853L480,85.053L490,78.795L500,72.999L510,67.602L520,62.552L530,57.808L540,53.334L550,49.102L560,45.086L570,41.266L580,37.624L590,34.143L600,30.81" stroke="#e377c2" stroke-width="2"/></g></g><path class="foreground" aria-hidden="true" d="" display="none"/></g><g transform="translate(0,0)"><path class="background" aria-hidden="true" d="M0,0h600v400h-600Z"/><g><g class="mark-line role-mark marks" role="graphics-object" aria-roledescription="line mark container"><path aria-label="目標寿命 (年): 1; 最適オルカン比率 (近似式): 1; 支出率: 4.00%; 最適比率 (近似): 1.00" role="graphics-symbol" aria-roledescription="line mark" d="M10,0L20,0L30,0L40,0L50,0L60,0L70,0L80,0L90,0L100,15.677L110,55.148L120,89.731L130,120.404L140,147.886L150,172.72L160,195.323L170,216.023L180,235.081L190,252.708L200,269.078L210,284.335L220,298.598L230,311.969L240,324.536L250,336.371L260,347.539L270,358.096L280,368.091L290,377.566L300,386.559L310,400L320,253.757L330,199.535L340,167.496L350,144.719L360,127.055L370,112.637L380,100.461L390,89.928L400,80.649L410,72.359L420,64.868L430,58.036L440,51.757L450,45.949L460,40.545L470,35.494L480,30.751L490,26.282L500,22.057L510,18.05L520,14.24L530,10.608L540,7.138L550,3.816L560,0.631L570,0L580,0L590,0L600,0" stroke="#7f7f7f" stroke-width="2"/></g></g><path class="foreground" aria-hidden="true" d="" display="none"/></g><g transform="translate(0,0)"><path class="background" aria-hidden="true" d="M0,0h600v400h-600Z"/><g><g class="mark-line role-mark marks" role="graphics-object" aria-roledescription="line mark container"><path aria-label="目標寿命 (年): 1; 最適オルカン比率 (近似式): 1; 支出率: 5.00%; 最適比率 (近似): 1.00" role="graphics-symbol" aria-roledescription="line mark" d="M10,0L20,0L30,0L40,0L50,0L60,0L70,0L80,1.82L90,52.181L100,95.006L110,132.099L120,164.699L130,193.694L140,219.738L150,243.326L160,264.838L170,284.576L180,302.778L190,319.64L200,335.322L210,349.955L220,363.652L230,376.506L240,272.324L250,175.721L260,133.391L270,106.076L280,85.931L290,69.995L300,56.825L310,45.609L320,35.846L330,27.206L340,19.458L350,12.435L360,6.014L370,0.1L380,0L390,0L400,0L410,0L420,0L430,0L440,0L450,0L460,0L470,0L480,0L490,0L500,0L510,0L520,0L530,0L540,0L550,0L560,0L570,0L580,0L590,0L600,0" stroke="#bcbd22" stroke-width="2"/></g></g><path class="foreground" aria-hidden="true" d="" display="none"/></g><g transform="translate(0,0)"><path class="background" aria-hidden="true" d="M0,0h600v400h-600Z"/><g><g class="mark-line role-mark marks" role="graphics-object" aria-roledescription="line mark container"><path aria-label="目標寿命 (年): 1; 最適オルカン比率 (近似式): 1; 支出率: 6.67%; 最適比率 (近似): 1.00" role="graphics-symbol" aria-roledescription="line mark" d="M10,0L20,0L30,0L40,0L50,0L60,0L70,47.109L80,103.066L90,149.792L100,189.71L110,224.423L120,255.04L130,282.358L140,306.964L150,329.306L160,349.728L170,316.303L180,131.473L190,81.218L200,51.45L210,30.39L220,14.149L230,0.958L240,0L250,0L260,0L270,0L280,0L290,0L300,0L310,0L320,0L330,0L340,0L350,0L360,0L370,0L380,0L390,0L400,0L410,0L420,0L430,0L440,0L450,0L460,0L470,0L480,0L490,0L500,0L510,0L520,0L530,0L540,0L550,0L560,0L570,0L580,0L590,0L600,0" stroke="#17becf" stroke-width="2"/></g></g><path class="foreground" aria-hidden="true" d="" display="none"/></g></g><g class="mark-group role-legend" role="graphics-symbol" aria-roledescription="legend" aria-label="Symbol legend titled '支出率' for stroke color with 10 values: 2.00%, 2.22%, 2.50%, 2.86%, 3.00%, ending with 6.67%"><g transform="translate(620,0)"><path class="background" aria-hidden="true" d="M0,0h45v144h-45Z" pointer-events="none"/><g><g class="mark-group role-legend-entry"><g transform="translate(0,16)"><path class="background" aria-hidden="true" d="M0,0h0v0h0Z" pointer-events="none"/><g><g class="mark-group role-scope" role="graphics-object" aria-roledescription="group mark container"><g transform="translate(0,0)"><path class="background" aria-hidden="true" d="M0,0h44.3544921875v11h-44.3544921875Z" pointer-events="none" opacity="1"/><g><g class="mark-symbol role-legend-symbol" pointer-events="none"><path transform="translate(6,6)" d="M-5,0L5,0" stroke="#1f77b4" stroke-width="1.5" opacity="1"/></g><g class="mark-text role-legend-label" pointer-events="none"><text text-anchor="start" transform="translate(16,9)" font-family="sans-serif" font-size="10px" fill="#000" opacity="1">2.00%</text></g></g><path class="foreground" aria-hidden="true" d="" pointer-events="none" display="none"/></g><g transform="translate(0,13)"><path class="background" aria-hidden="true" d="M0,0h44.3544921875v11h-44.3544921875Z" pointer-events="none" opacity="1"/><g><g class="mark-symbol role-legend-symbol" pointer-events="none"><path transform="translate(6,6)" d="M-5,0L5,0" stroke="#ff7f0e" stroke-width="1.5" opacity="1"/></g><g class="mark-text role-legend-label" pointer-events="none"><text text-anchor="start" transform="translate(16,9)" font-family="sans-serif" font-size="10px" fill="#000" opacity="1">2.22%</text></g></g><path class="foreground" aria-hidden="true" d="" pointer-events="none" display="none"/></g><g transform="translate(0,26)"><path class="background" aria-hidden="true" d="M0,0h44.3544921875v11h-44.3544921875Z" pointer-events="none" opacity="1"/><g><g class="mark-symbol role-legend-symbol" pointer-events="none"><path transform="translate(6,6)" d="M-5,0L5,0" stroke="#2ca02c" stroke-width="1.5" opacity="1"/></g><g class="mark-text role-legend-label" pointer-events="none"><text text-anchor="start" transform="translate(16,9)" font-family="sans-serif" font-size="10px" fill="#000" opacity="1">2.50%</text></g></g><path class="foreground" aria-hidden="true" d="" pointer-events="none" display="none"/></g><g transform="translate(0,39)"><path class="background" aria-hidden="true" d="M0,0h44.3544921875v11h-44.3544921875Z" pointer-events="none" opacity="1"/><g><g class="mark-symbol role-legend-symbol" pointer-events="none"><path transform="translate(6,6)" d="M-5,0L5,0" stroke="#d62728" stroke-width="1.5" opacity="1"/></g><g class="mark-text role-legend-label" pointer-events="none"><text text-anchor="start" transform="translate(16,9)" font-family="sans-serif" font-size="10px" fill="#000" opacity="1">2.86%</text></g></g><path class="foreground" aria-hidden="true" d="" pointer-events="none" display="none"/></g><g transform="translate(0,52)"><path class="background" aria-hidden="true" d="M0,0h44.3544921875v11h-44.3544921875Z" pointer-events="none" opacity="1"/><g><g class="mark-symbol role-legend-symbol" pointer-events="none"><path transform="translate(6,6)" d="M-5,0L5,0" stroke="#9467bd" stroke-width="1.5" opacity="1"/></g><g class="mark-text role-legend-label" pointer-events="none"><text text-anchor="start" transform="translate(16,9)" font-family="sans-serif" font-size="10px" fill="#000" opacity="1">3.00%</text></g></g><path class="foreground" aria-hidden="true" d="" pointer-events="none" display="none"/></g><g transform="translate(0,65)"><path class="background" aria-hidden="true" d="M0,0h44.3544921875v11h-44.3544921875Z" pointer-events="none" opacity="1"/><g><g class="mark-symbol role-legend-symbol" pointer-events="none"><path transform="translate(6,6)" d="M-5,0L5,0" stroke="#8c564b" stroke-width="1.5" opacity="1"/></g><g class="mark-text role-legend-label" pointer-events="none"><text text-anchor="start" transform="translate(16,9)" font-family="sans-serif" font-size="10px" fill="#000" opacity="1">3.33%</text></g></g><path class="foreground" aria-hidden="true" d="" pointer-events="none" display="none"/></g><g transform="translate(0,78)"><path class="background" aria-hidden="true" d="M0,0h44.3544921875v11h-44.3544921875Z" pointer-events="none" opacity="1"/><g><g class="mark-symbol role-legend-symbol" pointer-events="none"><path transform="translate(6,6)" d="M-5,0L5,0" stroke="#e377c2" stroke-width="1.5" opacity="1"/></g><g class="mark-text role-legend-label" pointer-events="none"><text text-anchor="start" transform="translate(16,9)" font-family="sans-serif" font-size="10px" fill="#000" opacity="1">3.57%</text></g></g><path class="foreground" aria-hidden="true" d="" pointer-events="none" display="none"/></g><g transform="translate(0,91)"><path class="background" aria-hidden="true" d="M0,0h44.3544921875v11h-44.3544921875Z" pointer-events="none" opacity="1"/><g><g class="mark-symbol role-legend-symbol" pointer-events="none"><path transform="translate(6,6)" d="M-5,0L5,0" stroke="#7f7f7f" stroke-width="1.5" opacity="1"/></g><g class="mark-text role-legend-label" pointer-events="none"><text text-anchor="start" transform="translate(16,9)" font-family="sans-serif" font-size="10px" fill="#000" opacity="1">4.00%</text></g></g><path class="foreground" aria-hidden="true" d="" pointer-events="none" display="none"/></g><g transform="translate(0,104)"><path class="background" aria-hidden="true" d="M0,0h44.3544921875v11h-44.3544921875Z" pointer-events="none" opacity="1"/><g><g class="mark-symbol role-legend-symbol" pointer-events="none"><path transform="translate(6,6)" d="M-5,0L5,0" stroke="#bcbd22" stroke-width="1.5" opacity="1"/></g><g class="mark-text role-legend-label" pointer-events="none"><text text-anchor="start" transform="translate(16,9)" font-family="sans-serif" font-size="10px" fill="#000" opacity="1">5.00%</text></g></g><path class="foreground" aria-hidden="true" d="" pointer-events="none" display="none"/></g><g transform="translate(0,117)"><path class="background" aria-hidden="true" d="M0,0h44.3544921875v11h-44.3544921875Z" pointer-events="none" opacity="1"/><g><g class="mark-symbol role-legend-symbol" pointer-events="none"><path transform="translate(6,6)" d="M-5,0L5,0" stroke="#17becf" stroke-width="1.5" opacity="1"/></g><g class="mark-text role-legend-label" pointer-events="none"><text text-anchor="start" transform="translate(16,9)" font-family="sans-serif" font-size="10px" fill="#000" opacity="1">6.67%</text></g></g><path class="foreground" aria-hidden="true" d="" pointer-events="none" display="none"/></g></g></g><path class="foreground" aria-hidden="true" d="" pointer-events="none" display="none"/></g></g><g class="mark-text role-legend-title" pointer-events="none"><text text-anchor="start" transform="translate(0,9)" font-family="sans-serif" font-size="11px" font-weight="bold" fill="#000" opacity="1">支出率</text></g></g><path class="foreground" aria-hidden="true" d="" pointer-events="none" display="none"/></g></g><g class="mark-group role-title"><g transform="translate(300,-22)"><path class="background" aria-hidden="true" d="M0,0h0v0h0Z" pointer-events="none"/><g><g class="mark-text role-title-text" role="graphics-symbol" aria-roledescription="title" aria-label="Title text '近似式による最適オルカン比率の推移 (60年)'" pointer-events="none"><text text-anchor="middle" transform="translate(0,10)" font-family="sans-serif" font-size="13px" font-weight="bold" fill="#000" opacity="1">近似式による最適オルカン比率の推移 (60年)</text></g></g><path class="foreground" aria-hidden="true" d="" pointer-events="none" display="none"/></g></g></g><path class="foreground" aria-hidden="true" d="" display="none"/></g></g></g></svg>