<svg xmlns="http://www.w3.org/2000/svg" xmlns:xlink="http://www.w3.org/1999/xlink" version="1.1" class="marks" width="546" height="366" viewBox="0 0 546 366"><rect width="546" height="366" fill="white"/><g fill="none" stroke-miterlimit="10" transform="translate(41,27)"><g class="mark-group role-frame root" role="graphics-object" aria-roledescription="group mark container"><g transform="translate(0,0)"><path class="background" aria-hidden="true" d="M0.5,0.5h500v300h-500Z" stroke="#ddd"/><g><g class="mark-group role-axis" aria-hidden="true"><g transform="translate(0.5,0.5)"><path class="background" aria-hidden="true" d="M0,0h0v0h0Z" pointer-events="none"/><g><g class="mark-rule role-axis-grid" pointer-events="none"><line transform="translate(0,300)" x2="500" y2="0" stroke="#ddd" stroke-width="1" opacity="1"/><line transform="translate(0,250)" x2="500" y2="0" stroke="#ddd" stroke-width="1" opacity="1"/><line transform="translate(0,200)" x2="500" y2="0" stroke="#ddd" stroke-width="1" opacity="1"/><line transform="translate(0,150)" x2="500" y2="0" stroke="#ddd" stroke-width="1" opacity="1"/><line transform="translate(0,100)" x2="500" y2="0" stroke="#ddd" stroke-width="1" opacity="1"/><line transform="translate(0,50)" x2="500" y2="0" stroke="#ddd" stroke-width="1" opacity="1"/><line transform="translate(0,0)" x2="500" y2="0" stroke="#ddd" stroke-width="1" opacity="1"/></g></g><path class="foreground" aria-hidden="true" d="" pointer-events="none" display="none"/></g></g><g class="mark-group role-axis" role="graphics-symbol" aria-roledescription="axis" aria-label="X-axis titled 'ラグ（ヶ月）' for a discrete scale with 13 values: 1, 2, 3, 4, 5, ending with 13"><g transform="translate(0.5,300.5)"><path class="background" aria-hidden="true" d="M0,0h0v0h0Z" pointer-events="none"/><g><g class="mark-rule role-axis-tick" pointer-events="none"><line transform="translate(19,0)" x2="0" y2="5" stroke="#888" stroke-width="1" opacity="1"/><line transform="translate(57,0)" x2="0" y2="5" stroke="#888" stroke-width="1" opacity="1"/><line transform="translate(96,0)" x2="0" y2="5" stroke="#888" stroke-width="1" opacity="1"/><line transform="translate(134,0)" x2="0" y2="5" stroke="#888" stroke-width="1" opacity="1"/><line transform="translate(173,0)" x2="0" y2="5" stroke="#888" stroke-width="1" opacity="1"/><line transform="translate(211,0)" x2="0" y2="5" stroke="#888" stroke-width="1" opacity="1"/><line transform="translate(250,0)" x2="0" y2="5" stroke="#888" stroke-width="1" opacity="1"/><line transform="translate(288,0)" x2="0" y2="5" stroke="#888" stroke-width="1" opacity="1"/><line transform="translate(326,0)" x2="0" y2="5" stroke="#888" stroke-width="1" opacity="1"/><line transform="translate(365,0)" x2="0" y2="5" stroke="#888" stroke-width="1" opacity="1"/><line transform="translate(403,0)" x2="0" y2="5" stroke="#888" stroke-width="1" opacity="1"/><line transform="translate(442,0)" x2="0" y2="5" stroke="#888" stroke-width="1" opacity="1"/><line transform="translate(480,0)" x2="0" y2="5" stroke="#888" stroke-width="1" opacity="1"/></g><g class="mark-text role-axis-label" pointer-events="none"><text text-anchor="end" transform="translate(18.73076923076924,7) rotate(270) translate(0,3)" font-family="sans-serif" font-size="10px" fill="#000" opacity="1">1</text><text text-anchor="end" transform="translate(57.1923076923077,7) rotate(270) translate(0,3)" font-family="sans-serif" font-size="10px" fill="#000" opacity="1">2</text><text text-anchor="end" transform="translate(95.65384615384616,7) rotate(270) translate(0,3)" font-family="sans-serif" font-size="10px" fill="#000" opacity="1">3</text><text text-anchor="end" transform="translate(134.11538461538464,7) rotate(270) translate(0,3)" font-family="sans-serif" font-size="10px" fill="#000" opacity="1">4</text><text text-anchor="end" transform="translate(172.5769230769231,7) rotate(270) translate(0,3)" font-family="sans-serif" font-size="10px" fill="#000" opacity="1">5</text><text text-anchor="end" transform="translate(211.03846153846155,7) rotate(270) translate(0,3)" font-family="sans-serif" font-size="10px" fill="#000" opacity="1">6</text><text text-anchor="end" transform="translate(249.5,7) rotate(270) translate(0,3)" font-family="sans-serif" font-size="10px" fill="#000" opacity="1">7</text><text text-anchor="end" transform="translate(287.9615384615385,7) rotate(270) translate(0,3)" font-family="sans-serif" font-size="10px" fill="#000" opacity="1">8</text><text text-anchor="end" transform="translate(326.42307692307696,7) rotate(270) translate(0,3)" font-family="sans-serif" font-size="10px" fill="#000" opacity="1">9</text><text text-anchor="end" transform="translate(364.8846153846154,7) rotate(270) translate(0,3)" font-family="sans-serif" font-size="10px" fill="#000" opacity="1">10</text><text text-anchor="end" transform="translate(403.34615384615387,7) rotate(270) translate(0,3)" font-family="sans-serif" font-size="10px" fill="#000" opacity="1">11</text><text text-anchor="end" transform="translate(441.8076923076923,7) rotate(270) translate(0,3)" font-family="sans-serif" font-size="10px" fill="#000" opacity="1">12</text><text text-anchor="end" transform="translate(480.2692307692308,7) rotate(270) translate(0,3)" font-family="sans-serif" font-size="10px" fill="#000" opacity="1">13</text></g><g class="mark-rule role-axis-domain" pointer-events="none"><line transform="translate(0,0)" x2="500" y2="0" stroke="#888" stroke-width="1" opacity="1"/></g><g class="mark-text role-axis-title" pointer-events="none"><text text-anchor="middle" transform="translate(250,31.123046875)" font-family="sans-serif" font-size="11px" font-weight="bold" fill="#000" opacity="1">ラグ（ヶ月）</text></g></g><path class="foreground" aria-hidden="true" d="" pointer-events="none" display="none"/></g></g><g class="mark-group role-axis" role="graphics-symbol" aria-roledescription="axis" aria-label="Y-axis titled '自己相関係数' for a linear scale with values from 0.0 to 0.6"><g transform="translate(0.5,0.5)"><path class="background" aria-hidden="true" d="M0,0h0v0h0Z" pointer-events="none"/><g><g class="mark-rule role-axis-tick" pointer-events="none"><line transform="translate(0,300)" x2="-5" y2="0" stroke="#888" stroke-width="1" opacity="1"/><line transform="translate(0,250)" x2="-5" y2="0" stroke="#888" stroke-width="1" opacity="1"/><line transform="translate(0,200)" x2="-5" y2="0" stroke="#888" stroke-width="1" opacity="1"/><line transform="translate(0,150)" x2="-5" y2="0" stroke="#888" stroke-width="1" opacity="1"/><line transform="translate(0,100)" x2="-5" y2="0" stroke="#888" stroke-width="1" opacity="1"/><line transform="translate(0,50)" x2="-5" y2="0" stroke="#888" stroke-width="1" opacity="1"/><line transform="translate(0,0)" x2="-5" y2="0" stroke="#888" stroke-width="1" opacity="1"/></g><g class="mark-text role-axis-label" pointer-events="none"><text text-anchor="end" transform="translate(-7,303)" font-family="sans-serif" font-size="10px" fill="#000" opacity="1">0.0</text><text text-anchor="end" transform="translate(-7,252.99999999999997)" font-family="sans-serif" font-size="10px" fill="#000" opacity="1">0.1</text><text text-anchor="end" transform="translate(-7,203)" font-family="sans-serif" font-size="10px" fill="#000" opacity="1">0.2</text><text text-anchor="end" transform="translate(-7,153)" font-family="sans-serif" font-size="10px" fill="#000" opacity="1">0.3</text><text text-anchor="end" transform="translate(-7,102.99999999999997)" font-family="sans-serif" font-size="10px" fill="#000" opacity="1">0.4</text><text text-anchor="end" transform="translate(-7,52.999999999999986)" font-family="sans-serif" font-size="10px" fill="#000" opacity="1">0.5</text><text text-anchor="end" transform="translate(-7,3)" font-family="sans-serif" font-size="10px" fill="#000" opacity="1">0.6</text></g><g class="mark-rule role-axis-domain" pointer-events="none"><line transform="translate(0,300)" x2="0" y2="-300" stroke="#888" stroke-width="1" opacity="1"/></g><g class="mark-text role-axis-title" pointer-events="none"><text text-anchor="middle" transform="translate(-24.9013671875,150) rotate(-90) translate(0,-2)" font-family="sans-serif" font-size="11px" font-weight="bold" fill="#000" opacity="1">自己相関係数</text></g></g><path class="foreground" aria-hidden="true" d="" pointer-events="none" display="none"/></g></g><g class="mark-rect role-mark marks" role="graphics-object" aria-roledescription="rect mark container"><path aria-label="ラグ（ヶ月）: 1; 自己相関係数: 0.334105200413" role="graphics-symbol" aria-roledescription="bar" d="M1.923076923076934,132.9473997936156h34.61538461538461v167.0526002063844h-34.61538461538461Z" fill="#4c78a8"/><path aria-label="ラグ（ヶ月）: 2; 自己相関係数: 0.0936954128095" role="graphics-symbol" aria-roledescription="bar" d="M40.384615384615394,253.15229359523687h34.61538461538461v46.84770640476313h-34.61538461538461Z" fill="#4c78a8"/><path aria-label="ラグ（ヶ月）: 3; 自己相関係数: 0.188885549235" role="graphics-symbol" aria-roledescription="bar" d="M78.84615384615385,205.5572253827266h34.61538461538461v94.44277461727339h-34.61538461538461Z" fill="#4c78a8"/><path aria-label="ラグ（ヶ月）: 4; 自己相関係数: 0.229133366095" role="graphics-symbol" aria-roledescription="bar" d="M117.30769230769232,185.43331695264774h34.61538461538461v114.56668304735226h-34.61538461538461Z" fill="#4c78a8"/><path aria-label="ラグ（ヶ月）: 5; 自己相関係数: 0.316870116343" role="graphics-symbol" aria-roledescription="bar" d="M155.76923076923077,141.56494182856787h34.61538461538461v158.43505817143213h-34.61538461538461Z" fill="#4c78a8"/><path aria-label="ラグ（ヶ月）: 6; 自己相関係数: 0.339527495741" role="graphics-symbol" aria-roledescription="bar" d="M194.23076923076923,130.23625212968508h34.61538461538461v169.76374787031492h-34.61538461538461Z" fill="#4c78a8"/><path aria-label="ラグ（ヶ月）: 7; 自己相関係数: 0.306203179589" role="graphics-symbol" aria-roledescription="bar" d="M232.6923076923077,146.89841020558893h34.61538461538461v153.10158979441107h-34.61538461538461Z" fill="#4c78a8"/><path aria-label="ラグ（ヶ月）: 8; 自己相関係数: 0.242736369918" role="graphics-symbol" aria-roledescription="bar" d="M271.1538461538462,178.631815041194h34.61538461538461v121.36818495880601h-34.61538461538461Z" fill="#4c78a8"/><path aria-label="ラグ（ヶ月）: 9; 自己相関係数: 0.220038225092" role="graphics-symbol" aria-roledescription="bar" d="M309.61538461538464,189.98088745403336h34.61538461538461v110.01911254596664h-34.61538461538461Z" fill="#4c78a8"/><path aria-label="ラグ（ヶ月）: 10; 自己相関係数: 0.0911941604229" role="graphics-symbol" aria-roledescription="bar" d="M348.0769230769231,254.4029197885719h34.61538461538461v45.59708021142811h-34.61538461538461Z" fill="#4c78a8"/><path aria-label="ラグ（ヶ月）: 11; 自己相関係数: 0.292926859853" role="graphics-symbol" aria-roledescription="bar" d="M386.53846153846155,153.53657007370043h34.61538461538461v146.46342992629957h-34.61538461538461Z" fill="#4c78a8"/><path aria-label="ラグ（ヶ月）: 12; 自己相関係数: 0.559001338238" role="graphics-symbol" aria-roledescription="bar" d="M425,20.49933088117879h34.61538461538461v279.50066911882124h-34.61538461538461Z" fill="#4c78a8"/><path aria-label="ラグ（ヶ月）: 13; 自己相関係数: 0.235890456895" role="graphics-symbol" aria-roledescription="bar" d="M463.46153846153845,182.05477155249005h34.61538461538461v117.94522844750995h-34.61538461538461Z" fill="#4c78a8"/></g><g class="mark-group role-title"><g transform="translate(250,-22)"><path class="background" aria-hidden="true" d="M0,0h0v0h0Z" pointer-events="none"/><g><g class="mark-text role-title-text" role="graphics-symbol" aria-roledescription="title" aria-label="Title text '月次インフレ率の自己相関 (ACF)'" pointer-events="none"><text text-anchor="middle" transform="translate(0,10)" font-family="sans-serif" font-size="13px" font-weight="bold" fill="#000" opacity="1">月次インフレ率の自己相関 (ACF)</text></g></g><path class="foreground" aria-hidden="true" d="" pointer-events="none" display="none"/></g></g></g><path class="foreground" aria-hidden="true" d="" display="none"/></g></g></g></svg>