<svg xmlns="http://www.w3.org/2000/svg" xmlns:xlink="http://www.w3.org/1999/xlink" version="1.1" class="marks" width="568" height="464" viewBox="0 0 568 464"><rect width="568" height="464" fill="white"/><g fill="none" stroke-miterlimit="10" transform="translate(58,27)"><g class="mark-group role-frame root" role="graphics-object" aria-roledescription="group mark container"><g transform="translate(0,0)"><path class="background" aria-hidden="true" d="M0.5,0.5h500v400h-500Z" stroke="#ddd"/><g><g class="mark-group role-axis" aria-hidden="true"><g transform="translate(0.5,400.5)"><path class="background" aria-hidden="true" d="M0,0h0v0h0Z" pointer-events="none"/><g><g class="mark-rule role-axis-grid" pointer-events="none"><line transform="translate(0,-400)" x2="0" y2="400" stroke="#ddd" stroke-width="1" opacity="1"/><line transform="translate(50,-400)" x2="0" y2="400" stroke="#ddd" stroke-width="1" opacity="1"/><line transform="translate(100,-400)" x2="0" y2="400" stroke="#ddd" stroke-width="1" opacity="1"/><line transform="translate(150,-400)" x2="0" y2="400" stroke="#ddd" stroke-width="1" opacity="1"/><line transform="translate(200,-400)" x2="0" y2="400" stroke="#ddd" stroke-width="1" opacity="1"/><line transform="translate(250,-400)" x2="0" y2="400" stroke="#ddd" stroke-width="1" opacity="1"/><line transform="translate(300,-400)" x2="0" y2="400" stroke="#ddd" stroke-width="1" opacity="1"/><line transform="translate(350,-400)" x2="0" y2="400" stroke="#ddd" stroke-width="1" opacity="1"/><line transform="translate(400,-400)" x2="0" y2="400" stroke="#ddd" stroke-width="1" opacity="1"/><line transform="translate(450,-400)" x2="0" y2="400" stroke="#ddd" stroke-width="1" opacity="1"/><line transform="translate(500,-400)" x2="0" y2="400" stroke="#ddd" stroke-width="1" opacity="1"/></g></g><path class="foreground" aria-hidden="true" d="" pointer-events="none" display="none"/></g></g><g class="mark-group role-axis" aria-hidden="true"><g transform="translate(0.5,0.5)"><path class="background" aria-hidden="true" d="M0,0h0v0h0Z" pointer-events="none"/><g><g class="mark-rule role-axis-grid" pointer-events="none"><line transform="translate(0,400)" x2="500" y2="0" stroke="#ddd" stroke-width="1" opacity="1"/><line transform="translate(0,369)" x2="500" y2="0" stroke="#ddd" stroke-width="1" opacity="1"/><line transform="translate(0,338)" x2="500" y2="0" stroke="#ddd" stroke-width="1" opacity="1"/><line transform="translate(0,308)" x2="500" y2="0" stroke="#ddd" stroke-width="1" opacity="1"/><line transform="translate(0,277)" x2="500" y2="0" stroke="#ddd" stroke-width="1" opacity="1"/><line transform="translate(0,246)" x2="500" y2="0" stroke="#ddd" stroke-width="1" opacity="1"/><line transform="translate(0,215)" x2="500" y2="0" stroke="#ddd" stroke-width="1" opacity="1"/><line transform="translate(0,185)" x2="500" y2="0" stroke="#ddd" stroke-width="1" opacity="1"/><line transform="translate(0,154)" x2="500" y2="0" stroke="#ddd" stroke-width="1" opacity="1"/><line transform="translate(0,123)" x2="500" y2="0" stroke="#ddd" stroke-width="1" opacity="1"/><line transform="translate(0,92)" x2="500" y2="0" stroke="#ddd" stroke-width="1" opacity="1"/><line transform="translate(0,62)" x2="500" y2="0" stroke="#ddd" stroke-width="1" opacity="1"/><line transform="translate(0,31)" x2="500" y2="0" stroke="#ddd" stroke-width="1" opacity="1"/><line transform="translate(0,0)" x2="500" y2="0" stroke="#ddd" stroke-width="1" opacity="1"/></g></g><path class="foreground" aria-hidden="true" d="" pointer-events="none" display="none"/></g></g><g class="mark-group role-axis" role="graphics-symbol" aria-roledescription="axis" aria-label="X-axis titled '為替変動率 (Δlog(FX))' for a linear scale with values from −0.3 to 0.2"><g transform="translate(0.5,400.5)"><path class="background" aria-hidden="true" d="M0,0h0v0h0Z" pointer-events="none"/><g><g class="mark-rule role-axis-tick" pointer-events="none"><line transform="translate(0,0)" x2="0" y2="5" stroke="#888" stroke-width="1" opacity="1"/><line transform="translate(50,0)" x2="0" y2="5" stroke="#888" stroke-width="1" opacity="1"/><line transform="translate(100,0)" x2="0" y2="5" stroke="#888" stroke-width="1" opacity="1"/><line transform="translate(150,0)" x2="0" y2="5" stroke="#888" stroke-width="1" opacity="1"/><line transform="translate(200,0)" x2="0" y2="5" stroke="#888" stroke-width="1" opacity="1"/><line transform="translate(250,0)" x2="0" y2="5" stroke="#888" stroke-width="1" opacity="1"/><line transform="translate(300,0)" x2="0" y2="5" stroke="#888" stroke-width="1" opacity="1"/><line transform="translate(350,0)" x2="0" y2="5" stroke="#888" stroke-width="1" opacity="1"/><line transform="translate(400,0)" x2="0" y2="5" stroke="#888" stroke-width="1" opacity="1"/><line transform="translate(450,0)" x2="0" y2="5" stroke="#888" stroke-width="1" opacity="1"/><line transform="translate(500,0)" x2="0" y2="5" stroke="#888" stroke-width="1" opacity="1"/></g><g class="mark-text role-axis-label" pointer-events="none"><text text-anchor="start" transform="translate(0,15)" font-family="sans-serif" font-size="10px" fill="#000" opacity="1">−0.30</text><text text-anchor="middle" transform="translate(49.999999999999986,15)" font-family="sans-serif" font-size="10px" fill="#000" opacity="1">−0.25</text><text text-anchor="middle" transform="translate(99.99999999999997,15)" font-family="sans-serif" font-size="10px" fill="#000" opacity="1">−0.20</text><text text-anchor="middle" transform="translate(150,15)" font-family="sans-serif" font-size="10px" fill="#000" opacity="1">−0.15</text><text text-anchor="middle" transform="translate(199.99999999999997,15)" font-family="sans-serif" font-size="10px" fill="#000" opacity="1">−0.10</text><text text-anchor="middle" transform="translate(250,15)" font-family="sans-serif" font-size="10px" fill="#000" opacity="1">−0.05</text><text text-anchor="middle" transform="translate(300,15)" font-family="sans-serif" font-size="10px" fill="#000" opacity="1">0.00</text><text text-anchor="middle" transform="translate(350,15)" font-family="sans-serif" font-size="10px" fill="#000" opacity="1">0.05</text><text text-anchor="middle" transform="translate(400,15)" font-family="sans-serif" font-size="10px" fill="#000" opacity="1">0.10</text><text text-anchor="middle" transform="translate(449.99999999999994,15)" font-family="sans-serif" font-size="10px" fill="#000" opacity="1">0.15</text><text text-anchor="end" transform="translate(500,15)" font-family="sans-serif" font-size="10px" fill="#000" opacity="1">0.20</text></g><g class="mark-rule role-axis-domain" pointer-events="none"><line transform="translate(0,0)" x2="500" y2="0" stroke="#888" stroke-width="1" opacity="1"/></g><g class="mark-text role-axis-title" pointer-events="none"><text text-anchor="middle" transform="translate(250,30)" font-family="sans-serif" font-size="11px" font-weight="bold" fill="#000" opacity="1">為替変動率 (Δlog(FX))</text></g></g><path class="foreground" aria-hidden="true" d="" pointer-events="none" display="none"/></g></g><g class="mark-group role-axis" role="graphics-symbol" aria-roledescription="axis" aria-label="Y-axis titled 'インフレ率 (Δlog(CPI))' for a linear scale with values from −0.01 to 0.05"><g transform="translate(0.5,0.5)"><path class="background" aria-hidden="true" d="M0,0h0v0h0Z" pointer-events="none"/><g><g class="mark-rule role-axis-tick" pointer-events="none"><line transform="translate(0,400)" x2="-5" y2="0" stroke="#888" stroke-width="1" opacity="1"/><line transform="translate(0,369)" x2="-5" y2="0" stroke="#888" stroke-width="1" opacity="1"/><line transform="translate(0,338)" x2="-5" y2="0" stroke="#888" stroke-width="1" opacity="1"/><line transform="translate(0,308)" x2="-5" y2="0" stroke="#888" stroke-width="1" opacity="1"/><line transform="translate(0,277)" x2="-5" y2="0" stroke="#888" stroke-width="1" opacity="1"/><line transform="translate(0,246)" x2="-5" y2="0" stroke="#888" stroke-width="1" opacity="1"/><line transform="translate(0,215)" x2="-5" y2="0" stroke="#888" stroke-width="1" opacity="1"/><line transform="translate(0,185)" x2="-5" y2="0" stroke="#888" stroke-width="1" opacity="1"/><line transform="translate(0,154)" x2="-5" y2="0" stroke="#888" stroke-width="1" opacity="1"/><line transform="translate(0,123)" x2="-5" y2="0" stroke="#888" stroke-width="1" opacity="1"/><line transform="translate(0,92)" x2="-5" y2="0" stroke="#888" stroke-width="1" opacity="1"/><line transform="translate(0,62)" x2="-5" y2="0" stroke="#888" stroke-width="1" opacity="1"/><line transform="translate(0,31)" x2="-5" y2="0" stroke="#888" stroke-width="1" opacity="1"/><line transform="translate(0,0)" x2="-5" y2="0" stroke="#888" stroke-width="1" opacity="1"/></g><g class="mark-text role-axis-label" pointer-events="none"><text text-anchor="end" transform="translate(-7,403)" font-family="sans-serif" font-size="10px" fill="#000" opacity="1">−0.015</text><text text-anchor="end" transform="translate(-7,372.2307692307692)" font-family="sans-serif" font-size="10px" fill="#000" opacity="1">−0.010</text><text text-anchor="end" transform="translate(-7,341.46153846153845)" font-family="sans-serif" font-size="10px" fill="#000" opacity="1">−0.005</text><text text-anchor="end" transform="translate(-7,310.69230769230774)" font-family="sans-serif" font-size="10px" fill="#000" opacity="1">0.000</text><text text-anchor="end" transform="translate(-7,279.9230769230769)" font-family="sans-serif" font-size="10px" fill="#000" opacity="1">0.005</text><text text-anchor="end" transform="translate(-7,249.15384615384616)" font-family="sans-serif" font-size="10px" fill="#000" opacity="1">0.010</text><text text-anchor="end" transform="translate(-7,218.38461538461542)" font-family="sans-serif" font-size="10px" fill="#000" opacity="1">0.015</text><text text-anchor="end" transform="translate(-7,187.61538461538458)" font-family="sans-serif" font-size="10px" fill="#000" opacity="1">0.020</text><text text-anchor="end" transform="translate(-7,156.84615384615384)" font-family="sans-serif" font-size="10px" fill="#000" opacity="1">0.025</text><text text-anchor="end" transform="translate(-7,126.07692307692308)" font-family="sans-serif" font-size="10px" fill="#000" opacity="1">0.030</text><text text-anchor="end" transform="translate(-7,95.30769230769229)" font-family="sans-serif" font-size="10px" fill="#000" opacity="1">0.035</text><text text-anchor="end" transform="translate(-7,64.53846153846155)" font-family="sans-serif" font-size="10px" fill="#000" opacity="1">0.040</text><text text-anchor="end" transform="translate(-7,33.769230769230795)" font-family="sans-serif" font-size="10px" fill="#000" opacity="1">0.045</text><text text-anchor="end" transform="translate(-7,3)" font-family="sans-serif" font-size="10px" fill="#000" opacity="1">0.050</text></g><g class="mark-rule role-axis-domain" pointer-events="none"><line transform="translate(0,400)" x2="0" y2="-400" stroke="#888" stroke-width="1" opacity="1"/></g><g class="mark-text role-axis-title" pointer-events="none"><text text-anchor="middle" transform="translate(-41.8642578125,200) rotate(-90) translate(0,-2)" font-family="sans-serif" font-size="11px" font-weight="bold" fill="#000" opacity="1">インフレ率 (Δlog(CPI))</text></g></g><path class="foreground" aria-hidden="true" d="" pointer-events="none" display="none"/></g></g><g class="mark-symbol role-mark layer_0_marks" role="graphics-object" aria-roledescription="symbol mark container"><path aria-label="為替変動率 (Δlog(FX)): 0.0786059801399; インフレ率 (Δlog(CPI)): 0.0467062874059; CPI_log_ret: 0.0467062874059; FX_log_ret: 0.0786059801399" role="graphics-symbol" aria-roledescription="point" transform="translate(378.6059801399213,20.26900057880234)" d="M2.739,0A2.739,2.739,0,1,1,-2.739,0A2.739,2.739,0,1,1,2.739,0" stroke="#4c78a8" stroke-width="2" opacity="0.7"/><path aria-label="為替変動率 (Δlog(FX)): 0.066098030917; インフレ率 (Δlog(CPI)): 0.0282795194786; CPI_log_ret: 0.0282795194786; FX_log_ret: 0.066098030917" role="graphics-symbol" aria-roledescription="point" transform="translate(366.098030917028,133.66449551619644)" d="M2.739,0A2.739,2.739,0,1,1,-2.739,0A2.739,2.739,0,1,1,2.739,0" stroke="#4c78a8" stroke-width="2" opacity="0.7"/><path aria-label="為替変動率 (Δlog(FX)): −0.014123924067; インフレ率 (Δlog(CPI)): 0.0175883931009; CPI_log_ret: 0.0175883931009; FX_log_ret: −0.014123924067" role="graphics-symbol" aria-roledescription="point" transform="translate(285.8760759329931,199.45604245607868)" d="M2.739,0A2.739,2.739,0,1,1,-2.739,0A2.739,2.739,0,1,1,2.739,0" stroke="#4c78a8" stroke-width="2" opacity="0.7"/><path aria-label="為替変動率 (Δlog(FX)): 0.0810236587444; インフレ率 (Δlog(CPI)): 0.0233856811094; CPI_log_ret: 0.0233856811094; FX_log_ret: 0.0810236587444" role="graphics-symbol" aria-roledescription="point" transform="translate(381.0236587444165,163.780423942041)" d="M2.739,0A2.739,2.739,0,1,1,-2.739,0A2.739,2.739,0,1,1,2.739,0" stroke="#4c78a8" stroke-width="2" opacity="0.7"/><path aria-label="為替変動率 (Δlog(FX)): −0.226448154883; インフレ率 (Δlog(CPI)): 0.0192777054259; CPI_log_ret: 0.0192777054259; FX_log_ret: −0.226448154883" role="graphics-symbol" aria-roledescription="point" transform="translate(73.55184511710877,189.0602743021348)" d="M2.739,0A2.739,2.739,0,1,1,-2.739,0A2.739,2.739,0,1,1,2.739,0" stroke="#4c78a8" stroke-width="2" opacity="0.7"/><path aria-label="為替変動率 (Δlog(FX)): −0.225514255525; インフレ率 (Δlog(CPI)): 0.00594885751977; CPI_log_ret: 0.00594885751977; FX_log_ret: −0.225514255525" role="graphics-symbol" aria-roledescription="point" transform="translate(74.4857444748339,271.08395372447706)" d="M2.739,0A2.739,2.739,0,1,1,-2.739,0A2.739,2.739,0,1,1,2.739,0" stroke="#4c78a8" stroke-width="2" opacity="0.7"/><path aria-label="為替変動率 (Δlog(FX)): −0.271777575269; インフレ率 (Δlog(CPI)): 0.0011855365941; CPI_log_ret: 0.0011855365941; FX_log_ret: −0.271777575269" role="graphics-symbol" aria-roledescription="point" transform="translate(28.22242473058756,300.39669788245067)" d="M2.739,0A2.739,2.739,0,1,1,-2.739,0A2.739,2.739,0,1,1,2.739,0" stroke="#4c78a8" stroke-width="2" opacity="0.7"/><path aria-label="為替変動率 (Δlog(FX)): 0.031466896317; インフレ率 (Δlog(CPI)): 0.00708385488841; CPI_log_ret: 0.00708385488841; FX_log_ret: 0.031466896317" role="graphics-symbol" aria-roledescription="point" transform="translate(331.466896317045,264.09935453289205)" d="M2.739,0A2.739,2.739,0,1,1,-2.739,0A2.739,2.739,0,1,1,2.739,0" stroke="#4c78a8" stroke-width="2" opacity="0.7"/><path aria-label="為替変動率 (Δlog(FX)): 0.130149987115; インフレ率 (Δlog(CPI)): 0.022106775781; CPI_log_ret: 0.022106775781; FX_log_ret: 0.130149987115" role="graphics-symbol" aria-roledescription="point" transform="translate(430.14998711521855,171.65061057827694)" d="M2.739,0A2.739,2.739,0,1,1,-2.739,0A2.739,2.739,0,1,1,2.739,0" stroke="#4c78a8" stroke-width="2" opacity="0.7"/><path aria-label="為替変動率 (Δlog(FX)): −0.0574045676873; インフレ率 (Δlog(CPI)): 0.0305972877095; CPI_log_ret: 0.0305972877095; FX_log_ret: −0.0574045676873" role="graphics-symbol" aria-roledescription="point" transform="translate(242.5954323126546,119.40130640284123)" d="M2.739,0A2.739,2.739,0,1,1,-2.739,0A2.739,2.739,0,1,1,2.739,0" stroke="#4c78a8" stroke-width="2" opacity="0.7"/><path aria-label="為替変動率 (Δlog(FX)): −0.0779216205132; インフレ率 (Δlog(CPI)): 0.0329338216712; CPI_log_ret: 0.0329338216712; FX_log_ret: −0.0779216205132" role="graphics-symbol" aria-roledescription="point" transform="translate(222.0783794867995,105.02263586923787)" d="M2.739,0A2.739,2.739,0,1,1,-2.739,0A2.739,2.739,0,1,1,2.739,0" stroke="#4c78a8" stroke-width="2" opacity="0.7"/><path aria-label="為替変動率 (Δlog(FX)): −0.00480192999541; インフレ率 (Δlog(CPI)): 0.0160689049392; CPI_log_ret: 0.0160689049392; FX_log_ret: −0.00480192999541" role="graphics-symbol" aria-roledescription="point" transform="translate(295.1980700045928,208.80673883569054)" d="M2.739,0A2.739,2.739,0,1,1,-2.739,0A2.739,2.739,0,1,1,2.739,0" stroke="#4c78a8" stroke-width="2" opacity="0.7"/><path aria-label="為替変動率 (Δlog(FX)): −0.10799356415; インフレ率 (Δlog(CPI)): 0.0137205318629; CPI_log_ret: 0.0137205318629; FX_log_ret: −0.10799356415" role="graphics-symbol" aria-roledescription="point" transform="translate(192.00643585006281,223.25826545903337)" d="M2.739,0A2.739,2.739,0,1,1,-2.739,0A2.739,2.739,0,1,1,2.739,0" stroke="#4c78a8" stroke-width="2" opacity="0.7"/><path aria-label="為替変動率 (Δlog(FX)): −0.114047506471; インフレ率 (Δlog(CPI)): 0.0062696130136; CPI_log_ret: 0.0062696130136; FX_log_ret: −0.114047506471" role="graphics-symbol" aria-roledescription="point" transform="translate(185.95249352870397,269.11007376248983)" d="M2.739,0A2.739,2.739,0,1,1,-2.739,0A2.739,2.739,0,1,1,2.739,0" stroke="#4c78a8" stroke-width="2" opacity="0.7"/><path aria-label="為替変動率 (Δlog(FX)): 0.0303860804997; インフレ率 (Δlog(CPI)): −0.00104220957844; CPI_log_ret: −0.00104220957844; FX_log_ret: 0.0303860804997" role="graphics-symbol" aria-roledescription="point" transform="translate(330.3860804996664,314.1059050981147)" d="M2.739,0A2.739,2.739,0,1,1,-2.739,0A2.739,2.739,0,1,1,2.739,0" stroke="#4c78a8" stroke-width="2" opacity="0.7"/><path aria-label="為替変動率 (Δlog(FX)): 0.1195629426; インフレ率 (Δlog(CPI)): 0.00104220957844; CPI_log_ret: 0.00104220957844; FX_log_ret: 0.1195629426" role="graphics-symbol" aria-roledescription="point" transform="translate(419.56294260029426,301.278710286501)" d="M2.739,0A2.739,2.739,0,1,1,-2.739,0A2.739,2.739,0,1,1,2.739,0" stroke="#4c78a8" stroke-width="2" opacity="0.7"/><path aria-label="為替変動率 (Δlog(FX)): 0.113501113965; インフレ率 (Δlog(CPI)): 0.0175533675809; CPI_log_ret: 0.0175533675809; FX_log_ret: 0.113501113965" role="graphics-symbol" aria-roledescription="point" transform="translate(413.5011139650731,199.67158411753277)" d="M2.739,0A2.739,2.739,0,1,1,-2.739,0A2.739,2.739,0,1,1,2.739,0" stroke="#4c78a8" stroke-width="2" opacity="0.7"/><path aria-label="為替変動率 (Δlog(FX)): −0.120249128152; インフレ率 (Δlog(CPI)): 0.00612246810438; CPI_log_ret: 0.00612246810438; FX_log_ret: −0.120249128152" role="graphics-symbol" aria-roledescription="point" transform="translate(179.7508718484232,270.01558089609955)" d="M2.739,0A2.739,2.739,0,1,1,-2.739,0A2.739,2.739,0,1,1,2.739,0" stroke="#4c78a8" stroke-width="2" opacity="0.7"/><path aria-label="為替変動率 (Δlog(FX)): −0.120912928665; インフレ率 (Δlog(CPI)): −0.00305654848255; CPI_log_ret: −0.00305654848255; FX_log_ret: −0.120912928665" role="graphics-symbol" aria-roledescription="point" transform="translate(179.08707133468883,326.5018368156854)" d="M2.739,0A2.739,2.739,0,1,1,-2.739,0A2.739,2.739,0,1,1,2.739,0" stroke="#4c78a8" stroke-width="2" opacity="0.7"/><path aria-label="為替変動率 (Δlog(FX)): 0.118305365258; インフレ率 (Δlog(CPI)): −0.00716848947861; CPI_log_ret: −0.00716848947861; FX_log_ret: 0.118305365258" role="graphics-symbol" aria-roledescription="point" transform="translate(418.3053652582303,351.80608909915395)" d="M2.739,0A2.739,2.739,0,1,1,-2.739,0A2.739,2.739,0,1,1,2.739,0" stroke="#4c78a8" stroke-width="2" opacity="0.7"/><path aria-label="為替変動率 (Δlog(FX)): 0.134716503854; インフレ率 (Δlog(CPI)): −0.00618558673271; CPI_log_ret: −0.00618558673271; FX_log_ret: 0.134716503854" role="graphics-symbol" aria-roledescription="point" transform="translate(434.7165038538028,345.7574568166808)" d="M2.739,0A2.739,2.739,0,1,1,-2.739,0A2.739,2.739,0,1,1,2.739,0" stroke="#4c78a8" stroke-width="2" opacity="0.7"/><path aria-label="為替変動率 (Δlog(FX)): −0.0965507756016; インフレ率 (Δlog(CPI)): −0.00935071748243; CPI_log_ret: −0.00935071748243; FX_log_ret: −0.0965507756016" role="graphics-symbol" aria-roledescription="point" transform="translate(203.44922439843407,365.2351845072849)" d="M2.739,0A2.739,2.739,0,1,1,-2.739,0A2.739,2.739,0,1,1,2.739,0" stroke="#4c78a8" stroke-width="2" opacity="0.7"/><path aria-label="為替変動率 (Δlog(FX)): −0.109679491789; インフレ率 (Δlog(CPI)): −0.00313643749013; CPI_log_ret: −0.00313643749013; FX_log_ret: −0.109679491789" role="graphics-symbol" aria-roledescription="point" transform="translate(190.32050821109254,326.99346147772474)" d="M2.739,0A2.739,2.739,0,1,1,-2.739,0A2.739,2.739,0,1,1,2.739,0" stroke="#4c78a8" stroke-width="2" opacity="0.7"/><path aria-label="為替変動率 (Δlog(FX)): −0.0302751473784; インフレ率 (Δlog(CPI)): 0; CPI_log_ret: 0; FX_log_ret: −0.0302751473784" role="graphics-symbol" aria-roledescription="point" transform="translate(269.72485262155413,307.69230769230774)" d="M2.739,0A2.739,2.739,0,1,1,-2.739,0A2.739,2.739,0,1,1,2.739,0" stroke="#4c78a8" stroke-width="2" opacity="0.7"/><path aria-label="為替変動率 (Δlog(FX)): 0.123994832391; インフレ率 (Δlog(CPI)): −0.00314630568936; CPI_log_ret: −0.00314630568936; FX_log_ret: 0.123994832391" role="graphics-symbol" aria-roledescription="point" transform="translate(423.9948323908259,327.0541888576305)" d="M2.739,0A2.739,2.739,0,1,1,-2.739,0A2.739,2.739,0,1,1,2.739,0" stroke="#4c78a8" stroke-width="2" opacity="0.7"/><path aria-label="為替変動率 (Δlog(FX)): 0.0121828917995; インフレ率 (Δlog(CPI)): 0.00314630568936; CPI_log_ret: 0.00314630568936; FX_log_ret: 0.0121828917995" role="graphics-symbol" aria-roledescription="point" transform="translate(312.18289179947755,288.33042652698515)" d="M2.739,0A2.739,2.739,0,1,1,-2.739,0A2.739,2.739,0,1,1,2.739,0" stroke="#4c78a8" stroke-width="2" opacity="0.7"/><path aria-label="為替変動率 (Δlog(FX)): −0.0500017959816; インフレ率 (Δlog(CPI)): 0; CPI_log_ret: 0; FX_log_ret: −0.0500017959816" role="graphics-symbol" aria-roledescription="point" transform="translate(249.99820401836575,307.69230769230774)" d="M2.739,0A2.739,2.739,0,1,1,-2.739,0A2.739,2.739,0,1,1,2.739,0" stroke="#4c78a8" stroke-width="2" opacity="0.7"/><path aria-label="為替変動率 (Δlog(FX)): −0.225533250199; インフレ率 (Δlog(CPI)): 0.0135207467958; CPI_log_ret: 0.0135207467958; FX_log_ret: −0.225533250199" role="graphics-symbol" aria-roledescription="point" transform="translate(74.46674980107232,224.4877120255589)" d="M2.739,0A2.739,2.739,0,1,1,-2.739,0A2.739,2.739,0,1,1,2.739,0" stroke="#4c78a8" stroke-width="2" opacity="0.7"/><path aria-label="為替変動率 (Δlog(FX)): 0.0202846711715; インフレ率 (Δlog(CPI)): −0.0135207467958; CPI_log_ret: −0.0135207467958; FX_log_ret: 0.0202846711715" role="graphics-symbol" aria-roledescription="point" transform="translate(320.2846711715057,390.8969033590566)" d="M2.739,0A2.739,2.739,0,1,1,-2.739,0A2.739,2.739,0,1,1,2.739,0" stroke="#4c78a8" stroke-width="2" opacity="0.7"/><path aria-label="為替変動率 (Δlog(FX)): −0.122474911014; インフレ率 (Δlog(CPI)): −0.00735683822571; CPI_log_ret: −0.00735683822571; FX_log_ret: −0.122474911014" role="graphics-symbol" aria-roledescription="point" transform="translate(177.52508898552549,352.9651583120519)" d="M2.739,0A2.739,2.739,0,1,1,-2.739,0A2.739,2.739,0,1,1,2.739,0" stroke="#4c78a8" stroke-width="2" opacity="0.7"/><path aria-label="為替変動率 (Δlog(FX)): −0.0495449576036; インフレ率 (Δlog(CPI)): −0.00316957476128; CPI_log_ret: −0.00316957476128; FX_log_ret: −0.0495449576036" role="graphics-symbol" aria-roledescription="point" transform="translate(250.45504239641403,327.19738314633275)" d="M2.739,0A2.739,2.739,0,1,1,-2.739,0A2.739,2.739,0,1,1,2.739,0" stroke="#4c78a8" stroke-width="2" opacity="0.7"/><path aria-label="為替変動率 (Δlog(FX)): 0.106880566447; インフレ率 (Δlog(CPI)): 0; CPI_log_ret: 0; FX_log_ret: 0.106880566447" role="graphics-symbol" aria-roledescription="point" transform="translate(406.88056644709906,307.69230769230774)" d="M2.739,0A2.739,2.739,0,1,1,-2.739,0A2.739,2.739,0,1,1,2.739,0" stroke="#4c78a8" stroke-width="2" opacity="0.7"/><path aria-label="為替変動率 (Δlog(FX)): 0.199416644662; インフレ率 (Δlog(CPI)): 0.00422387111619; CPI_log_ret: 0.00422387111619; FX_log_ret: 0.199416644662" role="graphics-symbol" aria-roledescription="point" transform="translate(499.4166446615571,281.6992546696293)" d="M2.739,0A2.739,2.739,0,1,1,-2.739,0A2.739,2.739,0,1,1,2.739,0" stroke="#4c78a8" stroke-width="2" opacity="0.7"/><path aria-label="為替変動率 (Δlog(FX)): 0.12834572007; インフレ率 (Δlog(CPI)): 0.0270286723879; CPI_log_ret: 0.0270286723879; FX_log_ret: 0.12834572007" role="graphics-symbol" aria-roledescription="point" transform="translate(428.34572006991255,141.3620160743434)" d="M2.739,0A2.739,2.739,0,1,1,-2.739,0A2.739,2.739,0,1,1,2.739,0" stroke="#4c78a8" stroke-width="2" opacity="0.7"/><path aria-label="為替変動率 (Δlog(FX)): 0.00516194635495; インフレ率 (Δlog(CPI)): 0.00715383735662; CPI_log_ret: 0.00715383735662; FX_log_ret: 0.00516194635495" role="graphics-symbol" aria-roledescription="point" transform="translate(305.16194635495276,263.66869319003837)" d="M2.739,0A2.739,2.739,0,1,1,-2.739,0A2.739,2.739,0,1,1,2.739,0" stroke="#4c78a8" stroke-width="2" opacity="0.7"/><path aria-label="為替変動率 (Δlog(FX)): −0.0278719679823; インフレ率 (Δlog(CPI)): −0.0010188487891; CPI_log_ret: −0.0010188487891; FX_log_ret: −0.0278719679823" role="graphics-symbol" aria-roledescription="point" transform="translate(272.1280320177441,313.96214639447925)" d="M2.739,0A2.739,2.739,0,1,1,-2.739,0A2.739,2.739,0,1,1,2.739,0" stroke="#4c78a8" stroke-width="2" opacity="0.7"/><path aria-label="為替変動率 (Δlog(FX)): −0.0388279971758; インフレ率 (Δlog(CPI)): 0.00508389503727; CPI_log_ret: 0.00508389503727; FX_log_ret: −0.0388279971758" role="graphics-symbol" aria-roledescription="point" transform="translate(261.17200282420754,276.40679977063184)" d="M2.739,0A2.739,2.739,0,1,1,-2.739,0A2.739,2.739,0,1,1,2.739,0" stroke="#4c78a8" stroke-width="2" opacity="0.7"/><path aria-label="為替変動率 (Δlog(FX)): −0.0201755330353; インフレ率 (Δlog(CPI)): 0.00908638255596; CPI_log_ret: 0.00908638255596; FX_log_ret: −0.0201755330353" role="graphics-symbol" aria-roledescription="point" transform="translate(279.8244669647415,251.77610734795417)" d="M2.739,0A2.739,2.739,0,1,1,-2.739,0A2.739,2.739,0,1,1,2.739,0" stroke="#4c78a8" stroke-width="2" opacity="0.7"/><path aria-label="為替変動率 (Δlog(FX)): −0.011387050847; インフレ率 (Δlog(CPI)): 0.00501254182354; CPI_log_ret: 0.00501254182354; FX_log_ret: −0.011387050847" role="graphics-symbol" aria-roledescription="point" transform="translate(288.6129491529579,276.8458964704973)" d="M2.739,0A2.739,2.739,0,1,1,-2.739,0A2.739,2.739,0,1,1,2.739,0" stroke="#4c78a8" stroke-width="2" opacity="0.7"/><path aria-label="為替変動率 (Δlog(FX)): −0.0547953327697; インフレ率 (Δlog(CPI)): 0; CPI_log_ret: 0; FX_log_ret: −0.0547953327697" role="graphics-symbol" aria-roledescription="point" transform="translate(245.20466723031055,307.69230769230774)" d="M2.739,0A2.739,2.739,0,1,1,-2.739,0A2.739,2.739,0,1,1,2.739,0" stroke="#4c78a8" stroke-width="2" opacity="0.7"/><path aria-label="為替変動率 (Δlog(FX)): 0.108047312353; インフレ率 (Δlog(CPI)): −0.00200200267067; CPI_log_ret: −0.00200200267067; FX_log_ret: 0.108047312353" role="graphics-symbol" aria-roledescription="point" transform="translate(408.0473123528488,320.01232412721896)" d="M2.739,0A2.739,2.739,0,1,1,-2.739,0A2.739,2.739,0,1,1,2.739,0" stroke="#4c78a8" stroke-width="2" opacity="0.7"/><path aria-label="為替変動率 (Δlog(FX)): 0.137886904023; インフレ率 (Δlog(CPI)): 0.0247414896402; CPI_log_ret: 0.0247414896402; FX_log_ret: 0.137886904023" role="graphics-symbol" aria-roledescription="point" transform="translate(437.8869040226271,155.43698682976873)" d="M2.739,0A2.739,2.739,0,1,1,-2.739,0A2.739,2.739,0,1,1,2.739,0" stroke="#4c78a8" stroke-width="2" opacity="0.7"/><path aria-label="為替変動率 (Δlog(FX)): 0.0677307868607; インフレ率 (Δlog(CPI)): 0.0317486983146; CPI_log_ret: 0.0317486983146; FX_log_ret: 0.0677307868607" role="graphics-symbol" aria-roledescription="point" transform="translate(367.7307868607328,112.31570267950603)" d="M2.739,0A2.739,2.739,0,1,1,-2.739,0A2.739,2.739,0,1,1,2.739,0" stroke="#4c78a8" stroke-width="2" opacity="0.7"/><path aria-label="為替変動率 (Δlog(FX)): 0.110305834571; インフレ率 (Δlog(CPI)): 0.0270918017084; CPI_log_ret: 0.0270918017084; FX_log_ret: 0.110305834571" role="graphics-symbol" aria-roledescription="point" transform="translate(410.3058345713248,140.9735279485954)" d="M2.739,0A2.739,2.739,0,1,1,-2.739,0A2.739,2.739,0,1,1,2.739,0" stroke="#4c78a8" stroke-width="2" opacity="0.7"/><path aria-label="為替変動率 (Δlog(FX)): −0.0121707941314; インフレ率 (Δlog(CPI)): 0.0308554423374; CPI_log_ret: 0.0308554423374; FX_log_ret: −0.0121707941314" role="graphics-symbol" aria-roledescription="point" transform="translate(287.8292058685547,117.81266253929074)" d="M2.739,0A2.739,2.739,0,1,1,-2.739,0A2.739,2.739,0,1,1,2.739,0" stroke="#4c78a8" stroke-width="2" opacity="0.7"/></g><g class="mark-line role-mark layer_1_marks" role="graphics-object" aria-roledescription="line mark container"><path aria-label="FX_log_ret: −0.271777575269; CPI_log_ret: 0.00436221457439" role="graphics-symbol" aria-roledescription="line mark" d="M28.222,280.848L32.982,280.289L37.741,279.731L42.501,279.173L47.261,278.614L52.02,278.056L56.78,277.497L61.539,276.939L66.299,276.38L71.058,275.822L75.818,275.263L80.577,274.705L85.337,274.146L90.096,273.588L94.856,273.029L99.615,272.471L104.375,271.912L109.135,271.354L113.894,270.796L118.654,270.237L123.413,269.679L128.173,269.12L132.932,268.562L137.692,268.003L142.451,267.445L147.211,266.886L151.97,266.328L156.73,265.769L161.489,265.211L166.249,264.652L171.009,264.094L175.768,263.535L180.528,262.977L185.287,262.419L190.047,261.86L194.806,261.302L199.566,260.743L204.325,260.185L209.085,259.626L213.844,259.068L218.604,258.509L223.363,257.951L228.123,257.392L232.883,256.834L237.642,256.275L242.402,255.717L247.161,255.159L251.921,254.6L256.68,254.042L261.44,253.483L266.199,252.925L270.959,252.366L275.718,251.808L280.478,251.249L285.237,250.691L289.997,250.132L294.757,249.574L299.516,249.015L304.276,248.457L309.035,247.898L313.795,247.34L318.554,246.782L323.314,246.223L328.073,245.665L332.833,245.106L337.592,244.548L342.352,243.989L347.111,243.431L351.871,242.872L356.631,242.314L361.39,241.755L366.15,241.197L370.909,240.638L375.669,240.08L380.428,239.521L385.188,238.963L389.947,238.405L394.707,237.846L399.466,237.288L404.226,236.729L408.985,236.171L413.745,235.612L418.505,235.054L423.264,234.495L428.024,233.937L432.783,233.378L437.543,232.82L442.302,232.261L447.062,231.703L451.821,231.144L456.581,230.586L461.34,230.028L466.1,229.469L470.859,228.911L475.619,228.352L480.378,227.794L485.138,227.235L489.898,226.677L494.657,226.118L499.417,225.56" stroke="red" stroke-width="2"/></g><g class="mark-group role-title"><g transform="translate(250,-22)"><path class="background" aria-hidden="true" d="M0,0h0v0h0Z" pointer-events="none"/><g><g class="mark-text role-title-text" role="graphics-symbol" aria-roledescription="title" aria-label="Title text '為替変動とインフレ率の相関分析'" pointer-events="none"><text text-anchor="middle" transform="translate(0,10)" font-family="sans-serif" font-size="13px" font-weight="bold" fill="#000" opacity="1">為替変動とインフレ率の相関分析</text></g></g><path class="foreground" aria-hidden="true" d="" pointer-events="none" display="none"/></g></g></g><path class="foreground" aria-hidden="true" d="" display="none"/></g></g></g></svg>