<svg xmlns="http://www.w3.org/2000/svg" xmlns:xlink="http://www.w3.org/1999/xlink" version="1.1" class="marks" width="778" height="359" viewBox="0 0 778 359"><rect width="778" height="359" fill="white"/><g fill="none" stroke-miterlimit="10" transform="translate(47,22)"><g class="mark-group role-frame root" role="graphics-object" aria-roledescription="group mark container"><g transform="translate(0,0)"><path class="background" aria-hidden="true" d="M0.5,0.5h600v300h-600Z" stroke="#ddd"/><g><g class="mark-group role-axis" aria-hidden="true"><g transform="translate(0.5,300.5)"><path class="background" aria-hidden="true" d="M0,0h0v0h0Z" pointer-events="none"/><g><g class="mark-rule role-axis-grid" pointer-events="none"><line transform="translate(0,-300)" x2="0" y2="300" stroke="#ddd" stroke-width="1" opacity="1"/><line transform="translate(40,-300)" x2="0" y2="300" stroke="#ddd" stroke-width="1" opacity="1"/><line transform="translate(80,-300)" x2="0" y2="300" stroke="#ddd" stroke-width="1" opacity="1"/><line transform="translate(120,-300)" x2="0" y2="300" stroke="#ddd" stroke-width="1" opacity="1"/><line transform="translate(160,-300)" x2="0" y2="300" stroke="#ddd" stroke-width="1" opacity="1"/><line transform="translate(200,-300)" x2="0" y2="300" stroke="#ddd" stroke-width="1" opacity="1"/><line transform="translate(240,-300)" x2="0" y2="300" stroke="#ddd" stroke-width="1" opacity="1"/><line transform="translate(280,-300)" x2="0" y2="300" stroke="#ddd" stroke-width="1" opacity="1"/><line transform="translate(320,-300)" x2="0" y2="300" stroke="#ddd" stroke-width="1" opacity="1"/><line transform="translate(360,-300)" x2="0" y2="300" stroke="#ddd" stroke-width="1" opacity="1"/><line transform="translate(400,-300)" x2="0" y2="300" stroke="#ddd" stroke-width="1" opacity="1"/><line transform="translate(440,-300)" x2="0" y2="300" stroke="#ddd" stroke-width="1" opacity="1"/><line transform="translate(480,-300)" x2="0" y2="300" stroke="#ddd" stroke-width="1" opacity="1"/><line transform="translate(520,-300)" x2="0" y2="300" stroke="#ddd" stroke-width="1" opacity="1"/><line transform="translate(560,-300)" x2="0" y2="300" stroke="#ddd" stroke-width="1" opacity="1"/><line transform="translate(600,-300)" x2="0" y2="300" stroke="#ddd" stroke-width="1" opacity="1"/></g></g><path class="foreground" aria-hidden="true" d="" pointer-events="none" display="none"/></g></g><g class="mark-group role-axis" aria-hidden="true"><g transform="translate(0.5,0.5)"><path class="background" aria-hidden="true" d="M0,0h0v0h0Z" pointer-events="none"/><g><g class="mark-rule role-axis-grid" pointer-events="none"><line transform="translate(0,300)" x2="600" y2="0" stroke="#ddd" stroke-width="1" opacity="1"/><line transform="translate(0,254)" x2="600" y2="0" stroke="#ddd" stroke-width="1" opacity="1"/><line transform="translate(0,208)" x2="600" y2="0" stroke="#ddd" stroke-width="1" opacity="1"/><line transform="translate(0,162)" x2="600" y2="0" stroke="#ddd" stroke-width="1" opacity="1"/><line transform="translate(0,115)" x2="600" y2="0" stroke="#ddd" stroke-width="1" opacity="1"/><line transform="translate(0,69)" x2="600" y2="0" stroke="#ddd" stroke-width="1" opacity="1"/><line transform="translate(0,23)" x2="600" y2="0" stroke="#ddd" stroke-width="1" opacity="1"/></g></g><path class="foreground" aria-hidden="true" d="" pointer-events="none" display="none"/></g></g><g class="mark-group role-axis" role="graphics-symbol" aria-roledescription="axis" aria-label="X-axis titled '資産額 (億円)' for a linear scale with values from 0 to 30"><g transform="translate(0.5,300.5)"><path class="background" aria-hidden="true" d="M0,0h0v0h0Z" pointer-events="none"/><g><g class="mark-rule role-axis-tick" pointer-events="none"><line transform="translate(0,0)" x2="0" y2="5" stroke="#888" stroke-width="1" opacity="1"/><line transform="translate(40,0)" x2="0" y2="5" stroke="#888" stroke-width="1" opacity="1"/><line transform="translate(80,0)" x2="0" y2="5" stroke="#888" stroke-width="1" opacity="1"/><line transform="translate(120,0)" x2="0" y2="5" stroke="#888" stroke-width="1" opacity="1"/><line transform="translate(160,0)" x2="0" y2="5" stroke="#888" stroke-width="1" opacity="1"/><line transform="translate(200,0)" x2="0" y2="5" stroke="#888" stroke-width="1" opacity="1"/><line transform="translate(240,0)" x2="0" y2="5" stroke="#888" stroke-width="1" opacity="1"/><line transform="translate(280,0)" x2="0" y2="5" stroke="#888" stroke-width="1" opacity="1"/><line transform="translate(320,0)" x2="0" y2="5" stroke="#888" stroke-width="1" opacity="1"/><line transform="translate(360,0)" x2="0" y2="5" stroke="#888" stroke-width="1" opacity="1"/><line transform="translate(400,0)" x2="0" y2="5" stroke="#888" stroke-width="1" opacity="1"/><line transform="translate(440,0)" x2="0" y2="5" stroke="#888" stroke-width="1" opacity="1"/><line transform="translate(480,0)" x2="0" y2="5" stroke="#888" stroke-width="1" opacity="1"/><line transform="translate(520,0)" x2="0" y2="5" stroke="#888" stroke-width="1" opacity="1"/><line transform="translate(560,0)" x2="0" y2="5" stroke="#888" stroke-width="1" opacity="1"/><line transform="translate(600,0)" x2="0" y2="5" stroke="#888" stroke-width="1" opacity="1"/></g><g class="mark-text role-axis-label" pointer-events="none"><text text-anchor="start" transform="translate(0,15)" font-family="sans-serif" font-size="10px" fill="#000" opacity="1">0</text><text text-anchor="middle" transform="translate(40,15)" font-family="sans-serif" font-size="10px" fill="#000" opacity="1">2</text><text text-anchor="middle" transform="translate(80,15)" font-family="sans-serif" font-size="10px" fill="#000" opacity="1">4</text><text text-anchor="middle" transform="translate(120,15)" font-family="sans-serif" font-size="10px" fill="#000" opacity="1">6</text><text text-anchor="middle" transform="translate(160,15)" font-family="sans-serif" font-size="10px" fill="#000" opacity="1">8</text><text text-anchor="middle" transform="translate(200,15)" font-family="sans-serif" font-size="10px" fill="#000" opacity="1">10</text><text text-anchor="middle" transform="translate(240,15)" font-family="sans-serif" font-size="10px" fill="#000" opacity="1">12</text><text text-anchor="middle" transform="translate(280,15)" font-family="sans-serif" font-size="10px" fill="#000" opacity="1">14</text><text text-anchor="middle" transform="translate(320,15)" font-family="sans-serif" font-size="10px" fill="#000" opacity="1">16</text><text text-anchor="middle" transform="translate(360,15)" font-family="sans-serif" font-size="10px" fill="#000" opacity="1">18</text><text text-anchor="middle" transform="translate(400,15)" font-family="sans-serif" font-size="10px" fill="#000" opacity="1">20</text><text text-anchor="middle" transform="translate(439.99999999999994,15)" font-family="sans-serif" font-size="10px" fill="#000" opacity="1">22</text><text text-anchor="middle" transform="translate(480,15)" font-family="sans-serif" font-size="10px" fill="#000" opacity="1">24</text><text text-anchor="middle" transform="translate(520,15)" font-family="sans-serif" font-size="10px" fill="#000" opacity="1">26</text><text text-anchor="middle" transform="translate(560,15)" font-family="sans-serif" font-size="10px" fill="#000" opacity="1">28</text><text text-anchor="end" transform="translate(600,15)" font-family="sans-serif" font-size="10px" fill="#000" opacity="1">30</text></g><g class="mark-rule role-axis-domain" pointer-events="none"><line transform="translate(0,0)" x2="600" y2="0" stroke="#888" stroke-width="1" opacity="1"/></g><g class="mark-text role-axis-title" pointer-events="none"><text text-anchor="middle" transform="translate(300,30)" font-family="sans-serif" font-size="11px" font-weight="bold" fill="#000" opacity="1">資産額 (億円)</text></g></g><path class="foreground" aria-hidden="true" d="" pointer-events="none" display="none"/></g></g><g class="mark-group role-axis" role="graphics-symbol" aria-roledescription="axis" aria-label="Y-axis titled '頻度' for a linear scale with values from 0.00 to 0.13"><g transform="translate(0.5,0.5)"><path class="background" aria-hidden="true" d="M0,0h0v0h0Z" pointer-events="none"/><g><g class="mark-rule role-axis-tick" pointer-events="none"><line transform="translate(0,300)" x2="-5" y2="0" stroke="#888" stroke-width="1" opacity="1"/><line transform="translate(0,254)" x2="-5" y2="0" stroke="#888" stroke-width="1" opacity="1"/><line transform="translate(0,208)" x2="-5" y2="0" stroke="#888" stroke-width="1" opacity="1"/><line transform="translate(0,162)" x2="-5" y2="0" stroke="#888" stroke-width="1" opacity="1"/><line transform="translate(0,115)" x2="-5" y2="0" stroke="#888" stroke-width="1" opacity="1"/><line transform="translate(0,69)" x2="-5" y2="0" stroke="#888" stroke-width="1" opacity="1"/><line transform="translate(0,23)" x2="-5" y2="0" stroke="#888" stroke-width="1" opacity="1"/></g><g class="mark-text role-axis-label" pointer-events="none"><text text-anchor="end" transform="translate(-7,303)" font-family="sans-serif" font-size="10px" fill="#000" opacity="1">0.00</text><text text-anchor="end" transform="translate(-7,256.8461538461538)" font-family="sans-serif" font-size="10px" fill="#000" opacity="1">0.02</text><text text-anchor="end" transform="translate(-7,210.69230769230768)" font-family="sans-serif" font-size="10px" fill="#000" opacity="1">0.04</text><text text-anchor="end" transform="translate(-7,164.53846153846158)" font-family="sans-serif" font-size="10px" fill="#000" opacity="1">0.06</text><text text-anchor="end" transform="translate(-7,118.38461538461537)" font-family="sans-serif" font-size="10px" fill="#000" opacity="1">0.08</text><text text-anchor="end" transform="translate(-7,72.23076923076921)" font-family="sans-serif" font-size="10px" fill="#000" opacity="1">0.10</text><text text-anchor="end" transform="translate(-7,26.076923076923094)" font-family="sans-serif" font-size="10px" fill="#000" opacity="1">0.12</text></g><g class="mark-rule role-axis-domain" pointer-events="none"><line transform="translate(0,300)" x2="0" y2="-300" stroke="#888" stroke-width="1" opacity="1"/></g><g class="mark-text role-axis-title" pointer-events="none"><text text-anchor="middle" transform="translate(-30.462890625,150) rotate(-90) translate(0,-2)" font-family="sans-serif" font-size="11px" font-weight="bold" fill="#000" opacity="1">頻度</text></g></g><path class="foreground" aria-hidden="true" d="" pointer-events="none" display="none"/></g></g><g class="mark-group role-scope pathgroup" role="graphics-object" aria-roledescription="group mark container"><g transform="translate(0,0)"><path class="background" aria-hidden="true" d="M0,0h600v300h-600Z"/><g><g class="mark-line role-mark marks" clip-path="url(#clip206)" role="graphics-object" aria-roledescription="line mark container"><path aria-label="資産額 (億円): 0; 頻度: 0.00200344396214; Strategy: オルカン, ボラ=11%" role="graphics-symbol" aria-roledescription="line mark" d="M0,295.377L3.015,293.517L6.03,291.083L9.045,287.965L12.06,284.051L15.075,279.237L18.09,273.43L21.106,266.559L24.121,258.58L27.136,249.48L30.151,239.282L33.166,228.046L36.181,215.864L39.196,202.864L42.211,189.197L45.226,175.037L48.241,160.573L51.256,146.002L54.271,131.518L57.286,117.313L60.302,103.564L63.317,90.426L66.332,78.037L69.347,66.505L72.362,55.916L75.377,46.334L78.392,37.801L81.407,30.347L84.422,23.99L87.437,18.74L90.452,14.596L93.467,11.554L96.482,9.595L99.497,8.686L102.513,8.778L105.528,9.805L108.543,11.683L111.558,14.317L114.573,17.61L117.588,21.471L120.603,25.822L123.618,30.608L126.633,35.795L129.648,41.366L132.663,47.316L135.678,53.636L138.693,60.305L141.709,67.282L144.724,74.501L147.739,81.874L150.754,89.304L153.769,96.689L156.784,103.939L159.799,110.983L162.814,117.772L165.829,124.28L168.844,130.503L171.859,136.446L174.874,142.121L177.889,147.544L180.905,152.727L183.92,157.681L186.935,162.417L189.95,166.949L192.965,171.29L195.98,175.462L198.995,179.483L202.01,183.377L205.025,187.162L208.04,190.857L211.055,194.474L214.07,198.021L217.085,201.505L220.101,204.926L223.116,208.288L226.131,211.588L229.146,214.828L232.161,218.006L235.176,221.119L238.191,224.162L241.206,227.129L244.221,230.007L247.236,232.784L250.251,235.446L253.266,237.978L256.281,240.37L259.296,242.615L262.312,244.712L265.327,246.666L268.342,248.486L271.357,250.186L274.372,251.78L277.387,253.285L280.402,254.712L283.417,256.072L286.432,257.375L289.447,258.628L292.462,259.84L295.477,261.021L298.492,262.183L301.508,263.341L304.523,264.51L307.538,265.706L310.553,266.942L313.568,268.224L316.583,269.552L319.598,270.918L322.613,272.304L325.628,273.686L328.643,275.035L331.658,276.32L334.673,277.515L337.688,278.595L340.704,279.546L343.719,280.36L346.734,281.039L349.749,281.594L352.764,282.043L355.779,282.408L358.794,282.715L361.809,282.993L364.824,283.268L367.839,283.563L370.854,283.899L373.869,284.287L376.884,284.734L379.899,285.236L382.915,285.782L385.93,286.352L388.945,286.922L391.96,287.466L394.975,287.96L397.99,288.384L401.005,288.728L404.02,288.992L407.035,289.187L410.05,289.332L413.065,289.453L416.08,289.578L419.095,289.731L422.111,289.931L425.126,290.19L428.141,290.507L431.156,290.877L434.171,291.285L437.186,291.716L440.201,292.152L443.216,292.577L446.231,292.982L449.246,293.358L452.261,293.705L455.276,294.023L458.291,294.316L461.307,294.589L464.322,294.844L467.337,295.084L470.352,295.309L473.367,295.521L476.382,295.716L479.397,295.895L482.412,296.058L485.427,296.205L488.442,296.34L491.457,296.466L494.472,296.586L497.487,296.706L500.503,296.827L503.518,296.951L506.533,297.078L509.548,297.206L512.563,297.33L515.578,297.446L518.593,297.55L521.608,297.636L524.623,297.7L527.638,297.743L530.653,297.762L533.668,297.76L536.683,297.739L539.698,297.704L542.714,297.659L545.729,297.609L548.744,297.557L551.759,297.508L554.774,297.465L557.789,297.43L560.804,297.406L563.819,297.394L566.834,297.398L569.849,297.418L572.864,297.458L575.879,297.52L578.894,297.605L581.91,297.716L584.925,297.85L587.94,298.006L590.955,298.181L593.97,298.366L596.985,298.556L600,298.74" stroke="#4c78a8" stroke-width="2"/></g></g><path class="foreground" aria-hidden="true" d="" display="none"/></g><g transform="translate(0,0)"><path class="background" aria-hidden="true" d="M0,0h600v300h-600Z"/><g><g class="mark-line role-mark marks" clip-path="url(#clip207)" role="graphics-object" aria-roledescription="line mark container"><path aria-label="資産額 (億円): 0; 頻度: 0.0084528513838; Strategy: オルカン, ボラ=13%" role="graphics-symbol" aria-roledescription="line mark" d="M0,280.493L3.015,275.247L6.03,269.044L9.045,261.832L12.06,253.585L15.075,244.306L18.09,234.031L21.106,222.831L24.121,210.809L27.136,198.098L30.151,184.857L33.166,171.264L36.181,157.51L39.196,143.79L42.211,130.295L45.226,117.209L48.241,104.698L51.256,92.91L54.271,81.969L57.286,71.978L60.302,63.014L63.317,55.133L66.332,48.368L69.347,42.735L72.362,38.233L75.377,34.845L78.392,32.537L81.407,31.265L84.422,30.971L87.437,31.585L90.452,33.026L93.467,35.206L96.482,38.029L99.497,41.398L102.513,45.216L105.528,49.392L108.543,53.841L111.558,58.491L114.573,63.284L117.588,68.174L120.603,73.13L123.618,78.136L126.633,83.187L129.648,88.285L132.663,93.441L135.678,98.666L138.693,103.972L141.709,109.367L144.724,114.853L147.739,120.425L150.754,126.065L153.769,131.748L156.784,137.44L159.799,143.098L162.814,148.671L165.829,154.109L168.844,159.359L171.859,164.373L174.874,169.111L177.889,173.538L180.905,177.636L183.92,181.395L186.935,184.82L189.95,187.927L192.965,190.744L195.98,193.31L198.995,195.669L202.01,197.87L205.025,199.966L208.04,202.008L211.055,204.043L214.07,206.111L217.085,208.244L220.101,210.464L223.116,212.782L226.131,215.195L229.146,217.695L232.161,220.263L235.176,222.873L238.191,225.498L241.206,228.109L244.221,230.678L247.236,233.181L250.251,235.598L253.266,237.914L256.281,240.118L259.296,242.205L262.312,244.176L265.327,246.031L268.342,247.778L271.357,249.424L274.372,250.982L277.387,252.462L280.402,253.879L283.417,255.247L286.432,256.582L289.447,257.897L292.462,259.204L295.477,260.514L298.492,261.833L301.508,263.162L304.523,264.499L307.538,265.836L310.553,267.164L313.568,268.468L316.583,269.733L319.598,270.943L322.613,272.085L325.628,273.146L328.643,274.119L331.658,275L334.673,275.788L337.688,276.487L340.704,277.105L343.719,277.651L346.734,278.137L349.749,278.574L352.764,278.973L355.779,279.345L358.794,279.701L361.809,280.047L364.824,280.392L367.839,280.74L370.854,281.097L373.869,281.466L376.884,281.849L379.899,282.246L382.915,282.659L385.93,283.085L388.945,283.522L391.96,283.968L394.975,284.419L397.99,284.871L401.005,285.321L404.02,285.767L407.035,286.207L410.05,286.638L413.065,287.061L416.08,287.475L419.095,287.881L422.111,288.278L425.126,288.665L428.141,289.043L431.156,289.41L434.171,289.764L437.186,290.105L440.201,290.43L443.216,290.738L446.231,291.027L449.246,291.296L452.261,291.544L455.276,291.768L458.291,291.968L461.307,292.144L464.322,292.295L467.337,292.423L470.352,292.531L473.367,292.622L476.382,292.703L479.397,292.779L482.412,292.859L485.427,292.95L488.442,293.06L491.457,293.196L494.472,293.363L497.487,293.564L500.503,293.798L503.518,294.062L506.533,294.351L509.548,294.658L512.563,294.974L515.578,295.288L518.593,295.592L521.608,295.878L524.623,296.137L527.638,296.367L530.653,296.565L533.668,296.731L536.683,296.868L539.698,296.98L542.714,297.072L545.729,297.15L548.744,297.217L551.759,297.28L554.774,297.34L557.789,297.399L560.804,297.459L563.819,297.517L566.834,297.574L569.849,297.628L572.864,297.676L575.879,297.716L578.894,297.749L581.91,297.772L584.925,297.787L587.94,297.794L590.955,297.794L593.97,297.789L596.985,297.782L600,297.775" stroke="#f58518" stroke-width="2"/></g></g><path class="foreground" aria-hidden="true" d="" display="none"/></g><g transform="translate(0,0)"><path class="background" aria-hidden="true" d="M0,0h600v300h-600Z"/><g><g class="mark-line role-mark marks" clip-path="url(#clip208)" role="graphics-object" aria-roledescription="line mark container"><path aria-label="資産額 (億円): 0; 頻度: 0.019140479117; Strategy: オルカン, ボラ=15%" role="graphics-symbol" aria-roledescription="line mark" d="M0,255.83L3.015,247.717L6.03,238.766L9.045,229.022L12.06,218.554L15.075,207.456L18.09,195.846L21.106,183.859L24.121,171.649L27.136,159.375L30.151,147.202L33.166,135.293L36.181,123.804L39.196,112.876L42.211,102.635L45.226,93.188L48.241,84.617L51.256,76.984L54.271,70.329L57.286,64.669L60.302,60.004L63.317,56.317L66.332,53.58L69.347,51.75L72.362,50.781L75.377,50.616L78.392,51.198L81.407,52.466L84.422,54.358L87.437,56.811L90.452,59.762L93.467,63.15L96.482,66.915L99.497,70.995L102.513,75.335L105.528,79.879L108.543,84.577L111.558,89.38L114.573,94.244L117.588,99.13L120.603,104.005L123.618,108.838L126.633,113.606L129.648,118.29L132.663,122.875L135.678,127.35L138.693,131.71L141.709,135.952L144.724,140.075L147.739,144.082L150.754,147.976L153.769,151.763L156.784,155.448L159.799,159.035L162.814,162.529L165.829,165.933L168.844,169.252L171.859,172.486L174.874,175.636L177.889,178.704L180.905,181.69L183.92,184.597L186.935,187.429L189.95,190.19L192.965,192.888L195.98,195.533L198.995,198.137L202.01,200.711L205.025,203.269L208.04,205.823L211.055,208.383L214.07,210.957L217.085,213.547L220.101,216.152L223.116,218.767L226.131,221.38L229.146,223.977L232.161,226.541L235.176,229.052L238.191,231.491L241.206,233.84L244.221,236.085L247.236,238.215L250.251,240.222L253.266,242.107L256.281,243.872L259.296,245.525L262.312,247.079L265.327,248.546L268.342,249.941L271.357,251.279L274.372,252.573L277.387,253.834L280.402,255.07L283.417,256.287L286.432,257.485L289.447,258.665L292.462,259.823L295.477,260.955L298.492,262.057L301.508,263.123L304.523,264.15L307.538,265.134L310.553,266.073L313.568,266.967L316.583,267.818L319.598,268.628L322.613,269.401L325.628,270.141L328.643,270.853L331.658,271.542L334.673,272.213L337.688,272.871L340.704,273.519L343.719,274.161L346.734,274.801L349.749,275.44L352.764,276.08L355.779,276.722L358.794,277.366L361.809,278.01L364.824,278.654L367.839,279.293L370.854,279.927L373.869,280.55L376.884,281.16L379.899,281.754L382.915,282.327L385.93,282.877L388.945,283.401L391.96,283.9L394.975,284.371L397.99,284.815L401.005,285.234L404.02,285.628L407.035,286L410.05,286.352L413.065,286.685L416.08,287.002L419.095,287.303L422.111,287.59L425.126,287.863L428.141,288.122L431.156,288.366L434.171,288.596L437.186,288.81L440.201,289.008L443.216,289.191L446.231,289.357L449.246,289.509L452.261,289.645L455.276,289.768L458.291,289.879L461.307,289.979L464.322,290.069L467.337,290.151L470.352,290.228L473.367,290.3L476.382,290.37L479.397,290.44L482.412,290.51L485.427,290.583L488.442,290.659L491.457,290.74L494.472,290.827L497.487,290.919L500.503,291.018L503.518,291.121L506.533,291.229L509.548,291.341L512.563,291.456L515.578,291.574L518.593,291.697L521.608,291.823L524.623,291.956L527.638,292.096L530.653,292.247L533.668,292.411L536.683,292.591L539.698,292.79L542.714,293.008L545.729,293.246L548.744,293.503L551.759,293.778L554.774,294.067L557.789,294.365L560.804,294.666L563.819,294.966L566.834,295.256L569.849,295.533L572.864,295.789L575.879,296.021L578.894,296.226L581.91,296.402L584.925,296.549L587.94,296.666L590.955,296.757L593.97,296.824L596.985,296.871L600,296.9" stroke="#e45756" stroke-width="2"/></g></g><path class="foreground" aria-hidden="true" d="" display="none"/></g><g transform="translate(0,0)"><path class="background" aria-hidden="true" d="M0,0h600v300h-600Z"/><g><g class="mark-line role-mark marks" clip-path="url(#clip209)" role="graphics-object" aria-roledescription="line mark container"><path aria-label="資産額 (億円): 0; 頻度: 0.03201885959; Strategy: オルカン, ボラ=17%" role="graphics-symbol" aria-roledescription="line mark" d="M0,226.11L3.015,216.6L6.03,206.586L9.045,196.156L12.06,185.408L15.075,174.452L18.09,163.407L21.106,152.397L24.121,141.548L27.136,130.986L30.151,120.828L33.166,111.188L36.181,102.166L39.196,93.849L42.211,86.312L45.226,79.611L48.241,73.786L51.256,68.863L54.271,64.85L57.286,61.74L60.302,59.513L63.317,58.137L66.332,57.569L69.347,57.758L72.362,58.647L75.377,60.173L78.392,62.27L81.407,64.872L84.422,67.912L87.437,71.325L90.452,75.047L93.467,79.021L96.482,83.19L99.497,87.506L102.513,91.923L105.528,96.402L108.543,100.911L111.558,105.42L114.573,109.909L117.588,114.359L120.603,118.758L123.618,123.098L126.633,127.375L129.648,131.588L132.663,135.739L135.678,139.832L138.693,143.871L141.709,147.864L144.724,151.815L147.739,155.73L150.754,159.612L153.769,163.465L156.784,167.289L159.799,171.082L162.814,174.841L165.829,178.559L168.844,182.229L171.859,185.842L174.874,189.387L177.889,192.855L180.905,196.233L183.92,199.513L186.935,202.685L189.95,205.742L192.965,208.678L195.98,211.491L198.995,214.18L202.01,216.745L205.025,219.189L208.04,221.517L211.055,223.735L214.07,225.849L217.085,227.867L220.101,229.796L223.116,231.642L226.131,233.413L229.146,235.114L232.161,236.751L235.176,238.329L238.191,239.85L241.206,241.321L244.221,242.743L247.236,244.12L250.251,245.456L253.266,246.754L256.281,248.018L259.296,249.252L262.312,250.46L265.327,251.646L268.342,252.814L271.357,253.968L274.372,255.111L277.387,256.246L280.402,257.375L283.417,258.497L286.432,259.613L289.447,260.722L292.462,261.82L295.477,262.905L298.492,263.974L301.508,265.02L304.523,266.04L307.538,267.029L310.553,267.982L313.568,268.894L316.583,269.764L319.598,270.586L322.613,271.361L325.628,272.086L328.643,272.762L331.658,273.39L334.673,273.972L337.688,274.512L340.704,275.011L343.719,275.476L346.734,275.911L349.749,276.32L352.764,276.71L355.779,277.086L358.794,277.454L361.809,277.817L364.824,278.18L367.839,278.548L370.854,278.924L373.869,279.309L376.884,279.705L379.899,280.112L382.915,280.53L385.93,280.958L388.945,281.394L391.96,281.835L394.975,282.278L397.99,282.72L401.005,283.158L404.02,283.588L407.035,284.009L410.05,284.417L413.065,284.811L416.08,285.19L419.095,285.553L422.111,285.9L425.126,286.233L428.141,286.552L431.156,286.86L434.171,287.157L437.186,287.446L440.201,287.729L443.216,288.008L446.231,288.284L449.246,288.558L452.261,288.833L455.276,289.107L458.291,289.381L461.307,289.656L464.322,289.929L467.337,290.201L470.352,290.47L473.367,290.734L476.382,290.993L479.397,291.244L482.412,291.486L485.427,291.717L488.442,291.936L491.457,292.141L494.472,292.332L497.487,292.506L500.503,292.662L503.518,292.801L506.533,292.922L509.548,293.023L512.563,293.107L515.578,293.174L518.593,293.224L521.608,293.261L524.623,293.285L527.638,293.3L530.653,293.308L533.668,293.313L536.683,293.318L539.698,293.327L542.714,293.342L545.729,293.366L548.744,293.402L551.759,293.452L554.774,293.516L557.789,293.596L560.804,293.691L563.819,293.8L566.834,293.923L569.849,294.058L572.864,294.202L575.879,294.353L578.894,294.509L581.91,294.668L584.925,294.826L587.94,294.982L590.955,295.134L593.97,295.281L596.985,295.42L600,295.551" stroke="#72b7b2" stroke-width="2"/></g></g><path class="foreground" aria-hidden="true" d="" display="none"/></g></g><g class="mark-group role-legend" role="graphics-symbol" aria-roledescription="legend" aria-label="Symbol legend titled 'Strategy' for stroke color with 4 values: オルカン, ボラ=11%, オルカン, ボラ=13%, オルカン, ボラ=15%, オルカン, ボラ=17%"><g transform="translate(618,0)"><path class="background" aria-hidden="true" d="M0,0h108v66h-108Z" pointer-events="none"/><g><g class="mark-group role-legend-entry"><g transform="translate(0,16)"><path class="background" aria-hidden="true" d="M0,0h0v0h0Z" pointer-events="none"/><g><g class="mark-group role-scope" role="graphics-object" aria-roledescription="group mark container"><g transform="translate(0,0)"><path class="background" aria-hidden="true" d="M0,0h107.4111328125v11h-107.4111328125Z" pointer-events="none" opacity="1"/><g><g class="mark-symbol role-legend-symbol" pointer-events="none"><path transform="translate(6,6)" d="M-5,0L5,0" stroke="#4c78a8" stroke-width="1.5" opacity="1"/></g><g class="mark-text role-legend-label" pointer-events="none"><text text-anchor="start" transform="translate(16,9)" font-family="sans-serif" font-size="10px" fill="#000" opacity="1">オルカン, ボラ=11%</text></g></g><path class="foreground" aria-hidden="true" d="" pointer-events="none" display="none"/></g><g transform="translate(0,13)"><path class="background" aria-hidden="true" d="M0,0h107.4111328125v11h-107.4111328125Z" pointer-events="none" opacity="1"/><g><g class="mark-symbol role-legend-symbol" pointer-events="none"><path transform="translate(6,6)" d="M-5,0L5,0" stroke="#f58518" stroke-width="1.5" opacity="1"/></g><g class="mark-text role-legend-label" pointer-events="none"><text text-anchor="start" transform="translate(16,9)" font-family="sans-serif" font-size="10px" fill="#000" opacity="1">オルカン, ボラ=13%</text></g></g><path class="foreground" aria-hidden="true" d="" pointer-events="none" display="none"/></g><g transform="translate(0,26)"><path class="background" aria-hidden="true" d="M0,0h107.4111328125v11h-107.4111328125Z" pointer-events="none" opacity="1"/><g><g class="mark-symbol role-legend-symbol" pointer-events="none"><path transform="translate(6,6)" d="M-5,0L5,0" stroke="#e45756" stroke-width="1.5" opacity="1"/></g><g class="mark-text role-legend-label" pointer-events="none"><text text-anchor="start" transform="translate(16,9)" font-family="sans-serif" font-size="10px" fill="#000" opacity="1">オルカン, ボラ=15%</text></g></g><path class="foreground" aria-hidden="true" d="" pointer-events="none" display="none"/></g><g transform="translate(0,39)"><path class="background" aria-hidden="true" d="M0,0h107.4111328125v11h-107.4111328125Z" pointer-events="none" opacity="1"/><g><g class="mark-symbol role-legend-symbol" pointer-events="none"><path transform="translate(6,6)" d="M-5,0L5,0" stroke="#72b7b2" stroke-width="1.5" opacity="1"/></g><g class="mark-text role-legend-label" pointer-events="none"><text text-anchor="start" transform="translate(16,9)" font-family="sans-serif" font-size="10px" fill="#000" opacity="1">オルカン, ボラ=17%</text></g></g><path class="foreground" aria-hidden="true" d="" pointer-events="none" display="none"/></g></g></g><path class="foreground" aria-hidden="true" d="" pointer-events="none" display="none"/></g></g><g class="mark-text role-legend-title" pointer-events="none"><text text-anchor="start" transform="translate(0,9)" font-family="sans-serif" font-size="11px" font-weight="bold" fill="#000" opacity="1">Strategy</text></g></g><path class="foreground" aria-hidden="true" d="" pointer-events="none" display="none"/></g></g><g class="mark-group role-title"><g transform="translate(300,-17)"><path class="background" aria-hidden="true" d="M0,0h0v0h0Z" pointer-events="none"/><g><g class="mark-text role-title-text" role="graphics-symbol" aria-roledescription="title" aria-label="Title text '30年後の資産分布'" pointer-events="none"><text text-anchor="middle" transform="translate(0,10)" font-family="sans-serif" font-size="13px" font-weight="bold" fill="#000" opacity="1">30年後の資産分布</text></g></g><path class="foreground" aria-hidden="true" d="" pointer-events="none" display="none"/></g></g></g><path class="foreground" aria-hidden="true" d="" display="none"/></g></g></g><defs><clipPath id="clip206"><rect x="0" y="0" width="600" height="300"/></clipPath><clipPath id="clip207"><rect x="0" y="0" width="600" height="300"/></clipPath><clipPath id="clip208"><rect x="0" y="0" width="600" height="300"/></clipPath><clipPath id="clip209"><rect x="0" y="0" width="600" height="300"/></clipPath></defs></svg>