<svg xmlns="http://www.w3.org/2000/svg" xmlns:xlink="http://www.w3.org/1999/xlink" version="1.1" class="marks" width="809" height="364" viewBox="0 0 809 364"><rect width="809" height="364" fill="white"/><g fill="none" stroke-miterlimit="10" transform="translate(78,27)"><g class="mark-group role-frame root" role="graphics-object" aria-roledescription="group mark container"><g transform="translate(0,0)"><path class="background" aria-hidden="true" d="M0.5,0.5h600v300h-600Z" stroke="#ddd"/><g><g class="mark-group role-axis" aria-hidden="true"><g transform="translate(0.5,300.5)"><path class="background" aria-hidden="true" d="M0,0h0v0h0Z" pointer-events="none"/><g><g class="mark-rule role-axis-grid" pointer-events="none"><line transform="translate(0,-300)" x2="0" y2="300" stroke="#ddd" stroke-width="1" opacity="1"/><line transform="translate(30,-300)" x2="0" y2="300" stroke="#ddd" stroke-width="1" opacity="1"/><line transform="translate(60,-300)" x2="0" y2="300" stroke="#ddd" stroke-width="1" opacity="1"/><line transform="translate(90,-300)" x2="0" y2="300" stroke="#ddd" stroke-width="1" opacity="1"/><line transform="translate(120,-300)" x2="0" y2="300" stroke="#ddd" stroke-width="1" opacity="1"/><line transform="translate(150,-300)" x2="0" y2="300" stroke="#ddd" stroke-width="1" opacity="1"/><line transform="translate(180,-300)" x2="0" y2="300" stroke="#ddd" stroke-width="1" opacity="1"/><line transform="translate(210,-300)" x2="0" y2="300" stroke="#ddd" stroke-width="1" opacity="1"/><line transform="translate(240,-300)" x2="0" y2="300" stroke="#ddd" stroke-width="1" opacity="1"/><line transform="translate(270,-300)" x2="0" y2="300" stroke="#ddd" stroke-width="1" opacity="1"/><line transform="translate(300,-300)" x2="0" y2="300" stroke="#ddd" stroke-width="1" opacity="1"/><line transform="translate(330,-300)" x2="0" y2="300" stroke="#ddd" stroke-width="1" opacity="1"/><line transform="translate(360,-300)" x2="0" y2="300" stroke="#ddd" stroke-width="1" opacity="1"/><line transform="translate(390,-300)" x2="0" y2="300" stroke="#ddd" stroke-width="1" opacity="1"/><line transform="translate(420,-300)" x2="0" y2="300" stroke="#ddd" stroke-width="1" opacity="1"/><line transform="translate(450,-300)" x2="0" y2="300" stroke="#ddd" stroke-width="1" opacity="1"/><line transform="translate(480,-300)" x2="0" y2="300" stroke="#ddd" stroke-width="1" opacity="1"/><line transform="translate(510,-300)" x2="0" y2="300" stroke="#ddd" stroke-width="1" opacity="1"/><line transform="translate(540,-300)" x2="0" y2="300" stroke="#ddd" stroke-width="1" opacity="1"/><line transform="translate(570,-300)" x2="0" y2="300" stroke="#ddd" stroke-width="1" opacity="1"/><line transform="translate(600,-300)" x2="0" y2="300" stroke="#ddd" stroke-width="1" opacity="1"/></g></g><path class="foreground" aria-hidden="true" d="" pointer-events="none" display="none"/></g></g><g class="mark-group role-axis" aria-hidden="true"><g transform="translate(0.5,0.5)"><path class="background" aria-hidden="true" d="M0,0h0v0h0Z" pointer-events="none"/><g><g class="mark-rule role-axis-grid" pointer-events="none"><line transform="translate(0,300)" x2="600" y2="0" stroke="#ddd" stroke-width="1" opacity="1"/><line transform="translate(0,277)" x2="600" y2="0" stroke="#ddd" stroke-width="1" opacity="1"/><line transform="translate(0,264)" x2="600" y2="0" stroke="#ddd" stroke-width="1" opacity="1"/><line transform="translate(0,255)" x2="600" y2="0" stroke="#ddd" stroke-width="1" opacity="1"/><line transform="translate(0,248)" x2="600" y2="0" stroke="#ddd" stroke-width="1" opacity="1"/><line transform="translate(0,242)" x2="600" y2="0" stroke="#ddd" stroke-width="1" opacity="1"/><line transform="translate(0,237)" x2="600" y2="0" stroke="#ddd" stroke-width="1" opacity="1"/><line transform="translate(0,232)" x2="600" y2="0" stroke="#ddd" stroke-width="1" opacity="1"/><line transform="translate(0,228)" x2="600" y2="0" stroke="#ddd" stroke-width="1" opacity="1"/><line transform="translate(0,225)" x2="600" y2="0" stroke="#ddd" stroke-width="1" opacity="1"/><line transform="translate(0,202)" x2="600" y2="0" stroke="#ddd" stroke-width="1" opacity="1"/><line transform="translate(0,189)" x2="600" y2="0" stroke="#ddd" stroke-width="1" opacity="1"/><line transform="translate(0,180)" x2="600" y2="0" stroke="#ddd" stroke-width="1" opacity="1"/><line transform="translate(0,173)" x2="600" y2="0" stroke="#ddd" stroke-width="1" opacity="1"/><line transform="translate(0,167)" x2="600" y2="0" stroke="#ddd" stroke-width="1" opacity="1"/><line transform="translate(0,162)" x2="600" y2="0" stroke="#ddd" stroke-width="1" opacity="1"/><line transform="translate(0,157)" x2="600" y2="0" stroke="#ddd" stroke-width="1" opacity="1"/><line transform="translate(0,153)" x2="600" y2="0" stroke="#ddd" stroke-width="1" opacity="1"/><line transform="translate(0,150)" x2="600" y2="0" stroke="#ddd" stroke-width="1" opacity="1"/><line transform="translate(0,127)" x2="600" y2="0" stroke="#ddd" stroke-width="1" opacity="1"/><line transform="translate(0,114)" x2="600" y2="0" stroke="#ddd" stroke-width="1" opacity="1"/><line transform="translate(0,105)" x2="600" y2="0" stroke="#ddd" stroke-width="1" opacity="1"/><line transform="translate(0,98)" x2="600" y2="0" stroke="#ddd" stroke-width="1" opacity="1"/><line transform="translate(0,92)" x2="600" y2="0" stroke="#ddd" stroke-width="1" opacity="1"/><line transform="translate(0,87)" x2="600" y2="0" stroke="#ddd" stroke-width="1" opacity="1"/><line transform="translate(0,82)" x2="600" y2="0" stroke="#ddd" stroke-width="1" opacity="1"/><line transform="translate(0,78)" x2="600" y2="0" stroke="#ddd" stroke-width="1" opacity="1"/><line transform="translate(0,75)" x2="600" y2="0" stroke="#ddd" stroke-width="1" opacity="1"/><line transform="translate(0,52)" x2="600" y2="0" stroke="#ddd" stroke-width="1" opacity="1"/><line transform="translate(0,39)" x2="600" y2="0" stroke="#ddd" stroke-width="1" opacity="1"/><line transform="translate(0,30)" x2="600" y2="0" stroke="#ddd" stroke-width="1" opacity="1"/><line transform="translate(0,23)" x2="600" y2="0" stroke="#ddd" stroke-width="1" opacity="1"/><line transform="translate(0,17)" x2="600" y2="0" stroke="#ddd" stroke-width="1" opacity="1"/><line transform="translate(0,12)" x2="600" y2="0" stroke="#ddd" stroke-width="1" opacity="1"/><line transform="translate(0,7)" x2="600" y2="0" stroke="#ddd" stroke-width="1" opacity="1"/><line transform="translate(0,3)" x2="600" y2="0" stroke="#ddd" stroke-width="1" opacity="1"/><line transform="translate(0,0)" x2="600" y2="0" stroke="#ddd" stroke-width="1" opacity="1"/></g></g><path class="foreground" aria-hidden="true" d="" pointer-events="none" display="none"/></g></g><g class="mark-group role-axis" role="graphics-symbol" aria-roledescription="axis" aria-label="X-axis titled '運の良さ (パーセンタイル %)' for a linear scale with values from 0 to 100"><g transform="translate(0.5,300.5)"><path class="background" aria-hidden="true" d="M0,0h0v0h0Z" pointer-events="none"/><g><g class="mark-rule role-axis-tick" pointer-events="none"><line transform="translate(0,0)" x2="0" y2="5" stroke="#888" stroke-width="1" opacity="1"/><line transform="translate(30,0)" x2="0" y2="5" stroke="#888" stroke-width="1" opacity="1"/><line transform="translate(60,0)" x2="0" y2="5" stroke="#888" stroke-width="1" opacity="1"/><line transform="translate(90,0)" x2="0" y2="5" stroke="#888" stroke-width="1" opacity="1"/><line transform="translate(120,0)" x2="0" y2="5" stroke="#888" stroke-width="1" opacity="1"/><line transform="translate(150,0)" x2="0" y2="5" stroke="#888" stroke-width="1" opacity="1"/><line transform="translate(180,0)" x2="0" y2="5" stroke="#888" stroke-width="1" opacity="1"/><line transform="translate(210,0)" x2="0" y2="5" stroke="#888" stroke-width="1" opacity="1"/><line transform="translate(240,0)" x2="0" y2="5" stroke="#888" stroke-width="1" opacity="1"/><line transform="translate(270,0)" x2="0" y2="5" stroke="#888" stroke-width="1" opacity="1"/><line transform="translate(300,0)" x2="0" y2="5" stroke="#888" stroke-width="1" opacity="1"/><line transform="translate(330,0)" x2="0" y2="5" stroke="#888" stroke-width="1" opacity="1"/><line transform="translate(360,0)" x2="0" y2="5" stroke="#888" stroke-width="1" opacity="1"/><line transform="translate(390,0)" x2="0" y2="5" stroke="#888" stroke-width="1" opacity="1"/><line transform="translate(420,0)" x2="0" y2="5" stroke="#888" stroke-width="1" opacity="1"/><line transform="translate(450,0)" x2="0" y2="5" stroke="#888" stroke-width="1" opacity="1"/><line transform="translate(480,0)" x2="0" y2="5" stroke="#888" stroke-width="1" opacity="1"/><line transform="translate(510,0)" x2="0" y2="5" stroke="#888" stroke-width="1" opacity="1"/><line transform="translate(540,0)" x2="0" y2="5" stroke="#888" stroke-width="1" opacity="1"/><line transform="translate(570,0)" x2="0" y2="5" stroke="#888" stroke-width="1" opacity="1"/><line transform="translate(600,0)" x2="0" y2="5" stroke="#888" stroke-width="1" opacity="1"/></g><g class="mark-text role-axis-label" pointer-events="none"><text text-anchor="start" transform="translate(0,15)" font-family="sans-serif" font-size="10px" fill="#000" opacity="1">0</text><text text-anchor="middle" transform="translate(30,15)" font-family="sans-serif" font-size="10px" fill="#000" opacity="1">5</text><text text-anchor="middle" transform="translate(60,15)" font-family="sans-serif" font-size="10px" fill="#000" opacity="1">10</text><text text-anchor="middle" transform="translate(90,15)" font-family="sans-serif" font-size="10px" fill="#000" opacity="1">15</text><text text-anchor="middle" transform="translate(120,15)" font-family="sans-serif" font-size="10px" fill="#000" opacity="1">20</text><text text-anchor="middle" transform="translate(150,15)" font-family="sans-serif" font-size="10px" fill="#000" opacity="1">25</text><text text-anchor="middle" transform="translate(180,15)" font-family="sans-serif" font-size="10px" fill="#000" opacity="1">30</text><text text-anchor="middle" transform="translate(210,15)" font-family="sans-serif" font-size="10px" fill="#000" opacity="1">35</text><text text-anchor="middle" transform="translate(240,15)" font-family="sans-serif" font-size="10px" fill="#000" opacity="1">40</text><text text-anchor="middle" transform="translate(270,15)" font-family="sans-serif" font-size="10px" fill="#000" opacity="1">45</text><text text-anchor="middle" transform="translate(300,15)" font-family="sans-serif" font-size="10px" fill="#000" opacity="1">50</text><text text-anchor="middle" transform="translate(330,15)" font-family="sans-serif" font-size="10px" fill="#000" opacity="1">55</text><text text-anchor="middle" transform="translate(360,15)" font-family="sans-serif" font-size="10px" fill="#000" opacity="1">60</text><text text-anchor="middle" transform="translate(390,15)" font-family="sans-serif" font-size="10px" fill="#000" opacity="1">65</text><text text-anchor="middle" transform="translate(420,15)" font-family="sans-serif" font-size="10px" fill="#000" opacity="1">70</text><text text-anchor="middle" transform="translate(450,15)" font-family="sans-serif" font-size="10px" fill="#000" opacity="1">75</text><text text-anchor="middle" transform="translate(480,15)" font-family="sans-serif" font-size="10px" fill="#000" opacity="1">80</text><text text-anchor="middle" transform="translate(510,15)" font-family="sans-serif" font-size="10px" fill="#000" opacity="1">85</text><text text-anchor="middle" transform="translate(540,15)" font-family="sans-serif" font-size="10px" fill="#000" opacity="1">90</text><text text-anchor="middle" transform="translate(570,15)" font-family="sans-serif" font-size="10px" fill="#000" opacity="1">95</text><text text-anchor="end" transform="translate(600,15)" font-family="sans-serif" font-size="10px" fill="#000" opacity="1">100</text></g><g class="mark-rule role-axis-domain" pointer-events="none"><line transform="translate(0,0)" x2="600" y2="0" stroke="#888" stroke-width="1" opacity="1"/></g><g class="mark-text role-axis-title" pointer-events="none"><text text-anchor="middle" transform="translate(300,30)" font-family="sans-serif" font-size="11px" font-weight="bold" fill="#000" opacity="1">運の良さ (パーセンタイル %)</text></g></g><path class="foreground" aria-hidden="true" d="" pointer-events="none" display="none"/></g></g><g class="mark-group role-axis" role="graphics-symbol" aria-roledescription="axis" aria-label="Y-axis titled '最終評価額(万円), 対数スケール' for a log scale with values from 1,000 to 10,000,000"><g transform="translate(0.5,0.5)"><path class="background" aria-hidden="true" d="M0,0h0v0h0Z" pointer-events="none"/><g><g class="mark-rule role-axis-tick" pointer-events="none"><line transform="translate(0,300)" x2="-5" y2="0" stroke="#888" stroke-width="1" opacity="1"/><line transform="translate(0,277)" x2="-5" y2="0" stroke="#888" stroke-width="1" opacity="1"/><line transform="translate(0,264)" x2="-5" y2="0" stroke="#888" stroke-width="1" opacity="1"/><line transform="translate(0,255)" x2="-5" y2="0" stroke="#888" stroke-width="1" opacity="1"/><line transform="translate(0,248)" x2="-5" y2="0" stroke="#888" stroke-width="1" opacity="1"/><line transform="translate(0,242)" x2="-5" y2="0" stroke="#888" stroke-width="1" opacity="1"/><line transform="translate(0,237)" x2="-5" y2="0" stroke="#888" stroke-width="1" opacity="1"/><line transform="translate(0,232)" x2="-5" y2="0" stroke="#888" stroke-width="1" opacity="1"/><line transform="translate(0,228)" x2="-5" y2="0" stroke="#888" stroke-width="1" opacity="1"/><line transform="translate(0,225)" x2="-5" y2="0" stroke="#888" stroke-width="1" opacity="1"/><line transform="translate(0,202)" x2="-5" y2="0" stroke="#888" stroke-width="1" opacity="1"/><line transform="translate(0,189)" x2="-5" y2="0" stroke="#888" stroke-width="1" opacity="1"/><line transform="translate(0,180)" x2="-5" y2="0" stroke="#888" stroke-width="1" opacity="1"/><line transform="translate(0,173)" x2="-5" y2="0" stroke="#888" stroke-width="1" opacity="1"/><line transform="translate(0,167)" x2="-5" y2="0" stroke="#888" stroke-width="1" opacity="1"/><line transform="translate(0,162)" x2="-5" y2="0" stroke="#888" stroke-width="1" opacity="1"/><line transform="translate(0,157)" x2="-5" y2="0" stroke="#888" stroke-width="1" opacity="1"/><line transform="translate(0,153)" x2="-5" y2="0" stroke="#888" stroke-width="1" opacity="1"/><line transform="translate(0,150)" x2="-5" y2="0" stroke="#888" stroke-width="1" opacity="1"/><line transform="translate(0,127)" x2="-5" y2="0" stroke="#888" stroke-width="1" opacity="1"/><line transform="translate(0,114)" x2="-5" y2="0" stroke="#888" stroke-width="1" opacity="1"/><line transform="translate(0,105)" x2="-5" y2="0" stroke="#888" stroke-width="1" opacity="1"/><line transform="translate(0,98)" x2="-5" y2="0" stroke="#888" stroke-width="1" opacity="1"/><line transform="translate(0,92)" x2="-5" y2="0" stroke="#888" stroke-width="1" opacity="1"/><line transform="translate(0,87)" x2="-5" y2="0" stroke="#888" stroke-width="1" opacity="1"/><line transform="translate(0,82)" x2="-5" y2="0" stroke="#888" stroke-width="1" opacity="1"/><line transform="translate(0,78)" x2="-5" y2="0" stroke="#888" stroke-width="1" opacity="1"/><line transform="translate(0,75)" x2="-5" y2="0" stroke="#888" stroke-width="1" opacity="1"/><line transform="translate(0,52)" x2="-5" y2="0" stroke="#888" stroke-width="1" opacity="1"/><line transform="translate(0,39)" x2="-5" y2="0" stroke="#888" stroke-width="1" opacity="1"/><line transform="translate(0,30)" x2="-5" y2="0" stroke="#888" stroke-width="1" opacity="1"/><line transform="translate(0,23)" x2="-5" y2="0" stroke="#888" stroke-width="1" opacity="1"/><line transform="translate(0,17)" x2="-5" y2="0" stroke="#888" stroke-width="1" opacity="1"/><line transform="translate(0,12)" x2="-5" y2="0" stroke="#888" stroke-width="1" opacity="1"/><line transform="translate(0,7)" x2="-5" y2="0" stroke="#888" stroke-width="1" opacity="1"/><line transform="translate(0,3)" x2="-5" y2="0" stroke="#888" stroke-width="1" opacity="1"/><line transform="translate(0,0)" x2="-5" y2="0" stroke="#888" stroke-width="1" opacity="1"/></g><g class="mark-text role-axis-label" pointer-events="none"><text text-anchor="end" transform="translate(-7,303)" font-family="sans-serif" font-size="10px" fill="#000" opacity="1">1,000</text><text text-anchor="end" transform="translate(-7,280.4227503252014)" font-family="sans-serif" font-size="10px" fill="#000" opacity="1">2,000</text><text text-anchor="end" transform="translate(-7,267.21590589602533)" font-family="sans-serif" font-size="10px" fill="#000" opacity="1"/><text text-anchor="end" transform="translate(-7,257.8455006504028)" font-family="sans-serif" font-size="10px" fill="#000" opacity="1"/><text text-anchor="end" transform="translate(-7,250.57724967479857)" font-family="sans-serif" font-size="10px" fill="#000" opacity="1"/><text text-anchor="end" transform="translate(-7,244.63865622122674)" font-family="sans-serif" font-size="10px" fill="#000" opacity="1"/><text text-anchor="end" transform="translate(-7,239.61764699893072)" font-family="sans-serif" font-size="10px" fill="#000" opacity="1"/><text text-anchor="end" transform="translate(-7,235.26825097560422)" font-family="sans-serif" font-size="10px" fill="#000" opacity="1"/><text text-anchor="end" transform="translate(-7,231.4318117920506)" font-family="sans-serif" font-size="10px" fill="#000" opacity="1"/><text text-anchor="end" transform="translate(-7,227.99999999999997)" font-family="sans-serif" font-size="10px" fill="#000" opacity="1">10,000</text><text text-anchor="end" transform="translate(-7,205.42275032520143)" font-family="sans-serif" font-size="10px" fill="#000" opacity="1">20,000</text><text text-anchor="end" transform="translate(-7,192.2159058960253)" font-family="sans-serif" font-size="10px" fill="#000" opacity="1"/><text text-anchor="end" transform="translate(-7,182.84550065040284)" font-family="sans-serif" font-size="10px" fill="#000" opacity="1"/><text text-anchor="end" transform="translate(-7,175.5772496747986)" font-family="sans-serif" font-size="10px" fill="#000" opacity="1"/><text text-anchor="end" transform="translate(-7,169.6386562212267)" font-family="sans-serif" font-size="10px" fill="#000" opacity="1"/><text text-anchor="end" transform="translate(-7,164.61764699893075)" font-family="sans-serif" font-size="10px" fill="#000" opacity="1"/><text text-anchor="end" transform="translate(-7,160.26825097560425)" font-family="sans-serif" font-size="10px" fill="#000" opacity="1"/><text text-anchor="end" transform="translate(-7,156.43181179205064)" font-family="sans-serif" font-size="10px" fill="#000" opacity="1"/><text text-anchor="end" transform="translate(-7,153)" font-family="sans-serif" font-size="10px" fill="#000" opacity="1">100,000</text><text text-anchor="end" transform="translate(-7,130.4227503252014)" font-family="sans-serif" font-size="10px" fill="#000" opacity="1">200,000</text><text text-anchor="end" transform="translate(-7,117.21590589602533)" font-family="sans-serif" font-size="10px" fill="#000" opacity="1"/><text text-anchor="end" transform="translate(-7,107.84550065040281)" font-family="sans-serif" font-size="10px" fill="#000" opacity="1"/><text text-anchor="end" transform="translate(-7,100.57724967479862)" font-family="sans-serif" font-size="10px" fill="#000" opacity="1"/><text text-anchor="end" transform="translate(-7,94.63865622122674)" font-family="sans-serif" font-size="10px" fill="#000" opacity="1"/><text text-anchor="end" transform="translate(-7,89.61764699893072)" font-family="sans-serif" font-size="10px" fill="#000" opacity="1"/><text text-anchor="end" transform="translate(-7,85.26825097560422)" font-family="sans-serif" font-size="10px" fill="#000" opacity="1"/><text text-anchor="end" transform="translate(-7,81.43181179205061)" font-family="sans-serif" font-size="10px" fill="#000" opacity="1"/><text text-anchor="end" transform="translate(-7,78.00000000000003)" font-family="sans-serif" font-size="10px" fill="#000" opacity="1">1,000,000</text><text text-anchor="end" transform="translate(-7,55.42275032520144)" font-family="sans-serif" font-size="10px" fill="#000" opacity="1">2,000,000</text><text text-anchor="end" transform="translate(-7,42.215905896025305)" font-family="sans-serif" font-size="10px" fill="#000" opacity="1"/><text text-anchor="end" transform="translate(-7,32.84550065040284)" font-family="sans-serif" font-size="10px" fill="#000" opacity="1"/><text text-anchor="end" transform="translate(-7,25.577249674798594)" font-family="sans-serif" font-size="10px" fill="#000" opacity="1"/><text text-anchor="end" transform="translate(-7,19.63865622122671)" font-family="sans-serif" font-size="10px" fill="#000" opacity="1"/><text text-anchor="end" transform="translate(-7,14.617646998930764)" font-family="sans-serif" font-size="10px" fill="#000" opacity="1"/><text text-anchor="end" transform="translate(-7,10.268250975604252)" font-family="sans-serif" font-size="10px" fill="#000" opacity="1"/><text text-anchor="end" transform="translate(-7,6.431811792050709)" font-family="sans-serif" font-size="10px" fill="#000" opacity="1"/><text text-anchor="end" transform="translate(-7,3)" font-family="sans-serif" font-size="10px" fill="#000" opacity="1">10,000,000</text></g><g class="mark-rule role-axis-domain" pointer-events="none"><line transform="translate(0,300)" x2="0" y2="-300" stroke="#888" stroke-width="1" opacity="1"/></g><g class="mark-text role-axis-title" pointer-events="none"><text text-anchor="middle" transform="translate(-61.048828125,150) rotate(-90) translate(0,-2)" font-family="sans-serif" font-size="11px" font-weight="bold" fill="#000" opacity="1">最終評価額(万円), 対数スケール</text></g></g><path class="foreground" aria-hidden="true" d="" pointer-events="none" display="none"/></g></g><g class="mark-group role-scope pathgroup" role="graphics-object" aria-roledescription="group mark container"><g transform="translate(0,0)"><path class="background" aria-hidden="true" d="M0,0h600v300h-600Z"/><g><g class="mark-line role-mark marks" clip-path="url(#clip1)" role="graphics-object" aria-roledescription="line mark container"><path aria-label="運の良さ (パーセンタイル %): 0; 最終評価額(万円), 対数スケール: 331154.519587; Strategy: オルカン, ボラ=0%; Quantile (%): 0; Final Value (万円): 331,155" role="graphics-symbol" aria-roledescription="line mark" d="M0,110.998L6,110.998L12,110.998L18,110.998L24,110.998L30,110.998L36,110.998L42,110.998L48,110.998L54,110.998L60,110.998L66,110.998L72,110.998L78,110.998L84,110.998L90,110.998L96,110.998L102,110.998L108,110.998L114,110.998L120,110.998L126,110.998L132,110.998L138,110.998L144,110.998L150,110.998L156,110.998L162,110.998L168,110.998L174,110.998L180,110.998L186,110.998L192,110.998L198,110.998L204,110.998L210,110.998L216,110.998L222,110.998L228,110.998L234,110.998L240,110.998L246,110.998L252,110.998L258,110.998L264,110.998L270,110.998L276,110.998L282,110.998L288,110.998L294,110.998L300,110.998L306,110.998L312,110.998L318,110.998L324,110.998L330,110.998L336,110.998L342,110.998L348,110.998L354,110.998L360,110.998L366,110.998L372,110.998L378,110.998L384,110.998L390,110.998L396,110.998L402,110.998L408,110.998L414,110.998L420,110.998L426,110.998L432,110.998L438,110.998L444,110.998L450,110.998L456,110.998L462,110.998L468,110.998L474,110.998L480,110.998L486,110.998L492,110.998L498,110.998L504,110.998L510,110.998L516,110.998L522,110.998L528,110.998L534,110.998L540,110.998L546,110.998L552,110.998L558,110.998L564,110.998L570,110.998L576,110.998L582,110.998L588,110.998L594,110.998L600,110.998" stroke="#4c78a8" stroke-width="2"/></g></g><path class="foreground" aria-hidden="true" d="" display="none"/></g><g transform="translate(0,0)"><path class="background" aria-hidden="true" d="M0,0h600v300h-600Z"/><g><g class="mark-line role-mark marks" clip-path="url(#clip2)" role="graphics-object" aria-roledescription="line mark container"><path aria-label="運の良さ (パーセンタイル %): 0; 最終評価額(万円), 対数スケール: 12295.5068617; Strategy: オルカン, ボラ=11%; Quantile (%): 0; Final Value (万円): 12,296" role="graphics-symbol" aria-roledescription="line mark" d="M0,218.269L6,179.728L12,171.275L18,167.446L24,163.295L30,161.562L36,159.82L42,158.095L48,156.396L54,154.9L60,153.454L66,152.264L72,150.419L78,148.748L84,147.762L90,147.062L96,146.357L102,145.267L108,143.688L114,142.815L120,142.125L126,141.16L132,139.904L138,138.39L144,137.775L150,137.263L156,136.635L162,136.103L168,135.006L174,133.837L180,133.174L186,132.474L192,131.595L198,131.042L204,130.507L210,129.951L216,129.062L222,128.778L228,127.918L234,127.273L240,126.824L246,126.475L252,125.037L258,124.418L264,124.062L270,123.466L276,122.925L282,122.556L288,122.135L294,121.43L300,120.994L306,120.528L312,119.563L318,119.287L324,118.838L330,118.015L336,117.424L342,116.954L348,116.51L354,116.208L360,115.529L366,114.861L372,114.203L378,113.429L384,112.947L390,112.116L396,111.608L402,110.858L408,110.255L414,109.608L420,108.978L426,107.564L432,107.015L438,106.591L444,105.757L450,104.742L456,103.889L462,103.162L468,102.142L474,101.315L480,100.407L486,99.658L492,98.286L498,97.402L504,96.49L510,95.933L516,95.317L522,94.163L528,93.239L534,92.192L540,90.416L546,89.1L552,87.745L558,86.374L564,84.684L570,81.985L576,80.057L582,76.655L588,72.793L594,65.287L600,52.578" stroke="#f58518" stroke-width="2"/></g></g><path class="foreground" aria-hidden="true" d="" display="none"/></g><g transform="translate(0,0)"><path class="background" aria-hidden="true" d="M0,0h600v300h-600Z"/><g><g class="mark-line role-mark marks" clip-path="url(#clip3)" role="graphics-object" aria-roledescription="line mark container"><path aria-label="運の良さ (パーセンタイル %): 0; 最終評価額(万円), 対数スケール: 6330.90232773; Strategy: オルカン, ボラ=13%; Quantile (%): 0; Final Value (万円): 6,331" role="graphics-symbol" aria-roledescription="line mark" d="M0,239.89L6,194.341L12,184.352L18,179.826L24,174.921L30,172.872L36,170.814L42,168.776L48,166.768L54,164.999L60,163.29L66,161.884L72,159.704L78,157.729L84,156.564L90,155.736L96,154.903L102,153.615L108,151.749L114,150.717L120,149.901L126,148.762L132,147.277L138,145.488L144,144.761L150,144.155L156,143.413L162,142.784L168,141.489L174,140.107L180,139.324L186,138.496L192,137.457L198,136.803L204,136.171L210,135.515L216,134.464L222,134.129L228,133.111L234,132.349L240,131.819L246,131.406L252,129.707L258,128.975L264,128.555L270,127.851L276,127.211L282,126.774L288,126.277L294,125.444L300,124.929L306,124.378L312,123.237L318,122.911L324,122.381L330,121.408L336,120.71L342,120.155L348,119.629L354,119.273L360,118.47L366,117.681L372,116.903L378,115.988L384,115.419L390,114.437L396,113.836L402,112.95L408,112.237L414,111.472L420,110.728L426,109.056L432,108.409L438,107.907L444,106.921L450,105.721L456,104.714L462,103.855L468,102.649L474,101.672L480,100.599L486,99.714L492,98.092L498,97.047L504,95.97L510,95.311L516,94.583L522,93.219L528,92.127L534,90.89L540,88.791L546,87.236L552,85.635L558,84.014L564,82.017L570,78.827L576,76.548L582,72.528L588,67.963L594,59.093L600,44.073" stroke="#e45756" stroke-width="2"/></g></g><path class="foreground" aria-hidden="true" d="" display="none"/></g><g transform="translate(0,0)"><path class="background" aria-hidden="true" d="M0,0h600v300h-600Z"/><g><g class="mark-line role-mark marks" clip-path="url(#clip4)" role="graphics-object" aria-roledescription="line mark container"><path aria-label="運の良さ (パーセンタイル %): 0; 最終評価額(万円), 対数スケール: 3195.20627575; Strategy: オルカン, ボラ=15%; Quantile (%): 0; Final Value (万円): 3,195" role="graphics-symbol" aria-roledescription="line mark" d="M0,262.163L6,209.605L12,198.08L18,192.858L24,187.198L30,184.834L36,182.459L42,180.108L48,177.791L54,175.75L60,173.778L66,172.156L72,169.64L78,167.361L84,166.017L90,165.062L96,164.101L102,162.615L108,160.461L114,159.27L120,158.33L126,157.014L132,155.301L138,153.237L144,152.398L150,151.7L156,150.843L162,150.117L168,148.622L174,147.028L180,146.124L186,145.17L192,143.971L198,143.216L204,142.487L210,141.729L216,140.517L222,140.13L228,138.956L234,138.077L240,137.465L246,136.989L252,135.028L258,134.184L264,133.698L270,132.886L276,132.148L282,131.644L288,131.071L294,130.11L300,129.515L306,128.88L312,127.563L318,127.187L324,126.575L330,125.453L336,124.647L342,124.006L348,123.4L354,122.989L360,122.062L366,121.152L372,120.255L378,119.199L384,118.542L390,117.409L396,116.716L402,115.693L408,114.87L414,113.988L420,113.129L426,111.201L432,110.453L438,109.874L444,108.737L450,107.352L456,106.19L462,105.199L468,103.807L474,102.68L480,101.442L486,100.42L492,98.549L498,97.344L504,96.1L510,95.341L516,94.501L522,92.927L528,91.667L534,90.24L540,87.818L546,86.023L552,84.176L558,82.305L564,80.001L570,76.321L576,73.691L582,69.052L588,63.786L594,53.551L600,36.22" stroke="#72b7b2" stroke-width="2"/></g></g><path class="foreground" aria-hidden="true" d="" display="none"/></g><g transform="translate(0,0)"><path class="background" aria-hidden="true" d="M0,0h600v300h-600Z"/><g><g class="mark-line role-mark marks" clip-path="url(#clip5)" role="graphics-object" aria-roledescription="line mark container"><path aria-label="運の良さ (パーセンタイル %): 0; 最終評価額(万円), 対数スケール: 1580.68851605; Strategy: オルカン, ボラ=17%; Quantile (%): 0; Final Value (万円): 1,581" role="graphics-symbol" aria-roledescription="line mark" d="M0,285.087L6,225.521L12,212.459L18,206.541L24,200.127L30,197.448L36,194.756L42,192.091L48,189.465L54,187.153L60,184.918L66,183.079L72,180.228L78,177.645L84,176.121L90,175.039L96,173.95L102,172.266L108,169.825L114,168.475L120,167.409L126,165.919L132,163.976L138,161.638L144,160.687L150,159.895L156,158.925L162,158.102L168,156.408L174,154.601L180,153.577L186,152.495L192,151.136L198,150.281L204,149.454L210,148.596L216,147.222L222,146.783L228,145.453L234,144.456L240,143.762L246,143.223L252,141L258,140.044L264,139.494L270,138.573L276,137.737L282,137.166L288,136.516L294,135.427L300,134.752L306,134.033L312,132.54L318,132.114L324,131.42L330,130.149L336,129.235L342,128.509L348,127.822L354,127.356L360,126.306L366,125.275L372,124.258L378,123.061L384,122.317L390,121.033L396,120.247L402,119.088L408,118.155L414,117.156L420,116.182L426,113.996L432,113.149L438,112.493L444,111.204L450,109.635L456,108.318L462,107.194L468,105.617L474,104.34L480,102.937L486,101.779L492,99.658L498,98.292L504,96.883L510,96.022L516,95.07L522,93.286L528,91.858L534,90.241L540,87.496L546,85.462L552,83.368L558,81.248L564,78.637L570,74.466L576,71.486L582,66.228L588,60.259L594,48.66L600,29.019" stroke="#54a24b" stroke-width="2"/></g></g><path class="foreground" aria-hidden="true" d="" display="none"/></g></g><g class="mark-group role-legend" role="graphics-symbol" aria-roledescription="legend" aria-label="Symbol legend titled '戦略' for stroke color with 5 values: オルカン, ボラ=0%, オルカン, ボラ=11%, オルカン, ボラ=13%, オルカン, ボラ=15%, オルカン, ボラ=17%"><g transform="translate(618,0)"><path class="background" aria-hidden="true" d="M0,0h108v79h-108Z" pointer-events="none"/><g><g class="mark-group role-legend-entry"><g transform="translate(0,16)"><path class="background" aria-hidden="true" d="M0,0h0v0h0Z" pointer-events="none"/><g><g class="mark-group role-scope" role="graphics-object" aria-roledescription="group mark container"><g transform="translate(0,0)"><path class="background" aria-hidden="true" d="M0,0h107.4111328125v11h-107.4111328125Z" pointer-events="none" opacity="1"/><g><g class="mark-symbol role-legend-symbol" pointer-events="none"><path transform="translate(6,6)" d="M-5,0L5,0" stroke="#4c78a8" stroke-width="1.5" opacity="1"/></g><g class="mark-text role-legend-label" pointer-events="none"><text text-anchor="start" transform="translate(16,9)" font-family="sans-serif" font-size="10px" fill="#000" opacity="1">オルカン, ボラ=0%</text></g></g><path class="foreground" aria-hidden="true" d="" pointer-events="none" display="none"/></g><g transform="translate(0,13)"><path class="background" aria-hidden="true" d="M0,0h107.4111328125v11h-107.4111328125Z" pointer-events="none" opacity="1"/><g><g class="mark-symbol role-legend-symbol" pointer-events="none"><path transform="translate(6,6)" d="M-5,0L5,0" stroke="#f58518" stroke-width="1.5" opacity="1"/></g><g class="mark-text role-legend-label" pointer-events="none"><text text-anchor="start" transform="translate(16,9)" font-family="sans-serif" font-size="10px" fill="#000" opacity="1">オルカン, ボラ=11%</text></g></g><path class="foreground" aria-hidden="true" d="" pointer-events="none" display="none"/></g><g transform="translate(0,26)"><path class="background" aria-hidden="true" d="M0,0h107.4111328125v11h-107.4111328125Z" pointer-events="none" opacity="1"/><g><g class="mark-symbol role-legend-symbol" pointer-events="none"><path transform="translate(6,6)" d="M-5,0L5,0" stroke="#e45756" stroke-width="1.5" opacity="1"/></g><g class="mark-text role-legend-label" pointer-events="none"><text text-anchor="start" transform="translate(16,9)" font-family="sans-serif" font-size="10px" fill="#000" opacity="1">オルカン, ボラ=13%</text></g></g><path class="foreground" aria-hidden="true" d="" pointer-events="none" display="none"/></g><g transform="translate(0,39)"><path class="background" aria-hidden="true" d="M0,0h107.4111328125v11h-107.4111328125Z" pointer-events="none" opacity="1"/><g><g class="mark-symbol role-legend-symbol" pointer-events="none"><path transform="translate(6,6)" d="M-5,0L5,0" stroke="#72b7b2" stroke-width="1.5" opacity="1"/></g><g class="mark-text role-legend-label" pointer-events="none"><text text-anchor="start" transform="translate(16,9)" font-family="sans-serif" font-size="10px" fill="#000" opacity="1">オルカン, ボラ=15%</text></g></g><path class="foreground" aria-hidden="true" d="" pointer-events="none" display="none"/></g><g transform="translate(0,52)"><path class="background" aria-hidden="true" d="M0,0h107.4111328125v11h-107.4111328125Z" pointer-events="none" opacity="1"/><g><g class="mark-symbol role-legend-symbol" pointer-events="none"><path transform="translate(6,6)" d="M-5,0L5,0" stroke="#54a24b" stroke-width="1.5" opacity="1"/></g><g class="mark-text role-legend-label" pointer-events="none"><text text-anchor="start" transform="translate(16,9)" font-family="sans-serif" font-size="10px" fill="#000" opacity="1">オルカン, ボラ=17%</text></g></g><path class="foreground" aria-hidden="true" d="" pointer-events="none" display="none"/></g></g></g><path class="foreground" aria-hidden="true" d="" pointer-events="none" display="none"/></g></g><g class="mark-text role-legend-title" pointer-events="none"><text text-anchor="start" transform="translate(0,9)" font-family="sans-serif" font-size="11px" font-weight="bold" fill="#000" opacity="1">戦略</text></g></g><path class="foreground" aria-hidden="true" d="" pointer-events="none" display="none"/></g></g><g class="mark-group role-title"><g transform="translate(300,-22)"><path class="background" aria-hidden="true" d="M0,0h0v0h0Z" pointer-events="none"/><g><g class="mark-text role-title-text" role="graphics-symbol" aria-roledescription="title" aria-label="Title text '50年後の資産の分布'" pointer-events="none"><text text-anchor="middle" transform="translate(0,10)" font-family="sans-serif" font-size="13px" font-weight="bold" fill="#000" opacity="1">50年後の資産の分布</text></g></g><path class="foreground" aria-hidden="true" d="" pointer-events="none" display="none"/></g></g></g><path class="foreground" aria-hidden="true" d="" display="none"/></g></g></g><defs><clipPath id="clip1"><rect x="0" y="0" width="600" height="300"/></clipPath><clipPath id="clip2"><rect x="0" y="0" width="600" height="300"/></clipPath><clipPath id="clip3"><rect x="0" y="0" width="600" height="300"/></clipPath><clipPath id="clip4"><rect x="0" y="0" width="600" height="300"/></clipPath><clipPath id="clip5"><rect x="0" y="0" width="600" height="300"/></clipPath></defs></svg>