<svg xmlns="http://www.w3.org/2000/svg" xmlns:xlink="http://www.w3.org/1999/xlink" version="1.1" class="marks" width="877" height="364" viewBox="0 0 877 364"><rect width="877" height="364" fill="white"/><g fill="none" stroke-miterlimit="10" transform="translate(78,27)"><g class="mark-group role-frame root" role="graphics-object" aria-roledescription="group mark container"><g transform="translate(0,0)"><path class="background" aria-hidden="true" d="M0.5,0.5h600v300h-600Z" stroke="#ddd"/><g><g class="mark-group role-axis" aria-hidden="true"><g transform="translate(0.5,300.5)"><path class="background" aria-hidden="true" d="M0,0h0v0h0Z" pointer-events="none"/><g><g class="mark-rule role-axis-grid" pointer-events="none"><line transform="translate(0,-300)" x2="0" y2="300" stroke="#ddd" stroke-width="1" opacity="1"/><line transform="translate(30,-300)" x2="0" y2="300" stroke="#ddd" stroke-width="1" opacity="1"/><line transform="translate(60,-300)" x2="0" y2="300" stroke="#ddd" stroke-width="1" opacity="1"/><line transform="translate(90,-300)" x2="0" y2="300" stroke="#ddd" stroke-width="1" opacity="1"/><line transform="translate(120,-300)" x2="0" y2="300" stroke="#ddd" stroke-width="1" opacity="1"/><line transform="translate(150,-300)" x2="0" y2="300" stroke="#ddd" stroke-width="1" opacity="1"/><line transform="translate(180,-300)" x2="0" y2="300" stroke="#ddd" stroke-width="1" opacity="1"/><line transform="translate(210,-300)" x2="0" y2="300" stroke="#ddd" stroke-width="1" opacity="1"/><line transform="translate(240,-300)" x2="0" y2="300" stroke="#ddd" stroke-width="1" opacity="1"/><line transform="translate(270,-300)" x2="0" y2="300" stroke="#ddd" stroke-width="1" opacity="1"/><line transform="translate(300,-300)" x2="0" y2="300" stroke="#ddd" stroke-width="1" opacity="1"/><line transform="translate(330,-300)" x2="0" y2="300" stroke="#ddd" stroke-width="1" opacity="1"/><line transform="translate(360,-300)" x2="0" y2="300" stroke="#ddd" stroke-width="1" opacity="1"/><line transform="translate(390,-300)" x2="0" y2="300" stroke="#ddd" stroke-width="1" opacity="1"/><line transform="translate(420,-300)" x2="0" y2="300" stroke="#ddd" stroke-width="1" opacity="1"/><line transform="translate(450,-300)" x2="0" y2="300" stroke="#ddd" stroke-width="1" opacity="1"/><line transform="translate(480,-300)" x2="0" y2="300" stroke="#ddd" stroke-width="1" opacity="1"/><line transform="translate(510,-300)" x2="0" y2="300" stroke="#ddd" stroke-width="1" opacity="1"/><line transform="translate(540,-300)" x2="0" y2="300" stroke="#ddd" stroke-width="1" opacity="1"/><line transform="translate(570,-300)" x2="0" y2="300" stroke="#ddd" stroke-width="1" opacity="1"/><line transform="translate(600,-300)" x2="0" y2="300" stroke="#ddd" stroke-width="1" opacity="1"/></g></g><path class="foreground" aria-hidden="true" d="" pointer-events="none" display="none"/></g></g><g class="mark-group role-axis" aria-hidden="true"><g transform="translate(0.5,0.5)"><path class="background" aria-hidden="true" d="M0,0h0v0h0Z" pointer-events="none"/><g><g class="mark-rule role-axis-grid" pointer-events="none"><line transform="translate(0,300)" x2="600" y2="0" stroke="#ddd" stroke-width="1" opacity="1"/><line transform="translate(0,287)" x2="600" y2="0" stroke="#ddd" stroke-width="1" opacity="1"/><line transform="translate(0,280)" x2="600" y2="0" stroke="#ddd" stroke-width="1" opacity="1"/><line transform="translate(0,274)" x2="600" y2="0" stroke="#ddd" stroke-width="1" opacity="1"/><line transform="translate(0,270)" x2="600" y2="0" stroke="#ddd" stroke-width="1" opacity="1"/><line transform="translate(0,267)" x2="600" y2="0" stroke="#ddd" stroke-width="1" opacity="1"/><line transform="translate(0,264)" x2="600" y2="0" stroke="#ddd" stroke-width="1" opacity="1"/><line transform="translate(0,261)" x2="600" y2="0" stroke="#ddd" stroke-width="1" opacity="1"/><line transform="translate(0,259)" x2="600" y2="0" stroke="#ddd" stroke-width="1" opacity="1"/><line transform="translate(0,257)" x2="600" y2="0" stroke="#ddd" stroke-width="1" opacity="1"/><line transform="translate(0,244)" x2="600" y2="0" stroke="#ddd" stroke-width="1" opacity="1"/><line transform="translate(0,237)" x2="600" y2="0" stroke="#ddd" stroke-width="1" opacity="1"/><line transform="translate(0,231)" x2="600" y2="0" stroke="#ddd" stroke-width="1" opacity="1"/><line transform="translate(0,227)" x2="600" y2="0" stroke="#ddd" stroke-width="1" opacity="1"/><line transform="translate(0,224)" x2="600" y2="0" stroke="#ddd" stroke-width="1" opacity="1"/><line transform="translate(0,221)" x2="600" y2="0" stroke="#ddd" stroke-width="1" opacity="1"/><line transform="translate(0,218)" x2="600" y2="0" stroke="#ddd" stroke-width="1" opacity="1"/><line transform="translate(0,216)" x2="600" y2="0" stroke="#ddd" stroke-width="1" opacity="1"/><line transform="translate(0,214)" x2="600" y2="0" stroke="#ddd" stroke-width="1" opacity="1"/><line transform="translate(0,201)" x2="600" y2="0" stroke="#ddd" stroke-width="1" opacity="1"/><line transform="translate(0,194)" x2="600" y2="0" stroke="#ddd" stroke-width="1" opacity="1"/><line transform="translate(0,188)" x2="600" y2="0" stroke="#ddd" stroke-width="1" opacity="1"/><line transform="translate(0,184)" x2="600" y2="0" stroke="#ddd" stroke-width="1" opacity="1"/><line transform="translate(0,181)" x2="600" y2="0" stroke="#ddd" stroke-width="1" opacity="1"/><line transform="translate(0,178)" x2="600" y2="0" stroke="#ddd" stroke-width="1" opacity="1"/><line transform="translate(0,176)" x2="600" y2="0" stroke="#ddd" stroke-width="1" opacity="1"/><line transform="translate(0,173)" x2="600" y2="0" stroke="#ddd" stroke-width="1" opacity="1"/><line transform="translate(0,171)" x2="600" y2="0" stroke="#ddd" stroke-width="1" opacity="1"/><line transform="translate(0,159)" x2="600" y2="0" stroke="#ddd" stroke-width="1" opacity="1"/><line transform="translate(0,151)" x2="600" y2="0" stroke="#ddd" stroke-width="1" opacity="1"/><line transform="translate(0,146)" x2="600" y2="0" stroke="#ddd" stroke-width="1" opacity="1"/><line transform="translate(0,141)" x2="600" y2="0" stroke="#ddd" stroke-width="1" opacity="1"/><line transform="translate(0,138)" x2="600" y2="0" stroke="#ddd" stroke-width="1" opacity="1"/><line transform="translate(0,135)" x2="600" y2="0" stroke="#ddd" stroke-width="1" opacity="1"/><line transform="translate(0,133)" x2="600" y2="0" stroke="#ddd" stroke-width="1" opacity="1"/><line transform="translate(0,131)" x2="600" y2="0" stroke="#ddd" stroke-width="1" opacity="1"/><line transform="translate(0,129)" x2="600" y2="0" stroke="#ddd" stroke-width="1" opacity="1"/><line transform="translate(0,116)" x2="600" y2="0" stroke="#ddd" stroke-width="1" opacity="1"/><line transform="translate(0,108)" x2="600" y2="0" stroke="#ddd" stroke-width="1" opacity="1"/><line transform="translate(0,103)" x2="600" y2="0" stroke="#ddd" stroke-width="1" opacity="1"/><line transform="translate(0,99)" x2="600" y2="0" stroke="#ddd" stroke-width="1" opacity="1"/><line transform="translate(0,95)" x2="600" y2="0" stroke="#ddd" stroke-width="1" opacity="1"/><line transform="translate(0,92)" x2="600" y2="0" stroke="#ddd" stroke-width="1" opacity="1"/><line transform="translate(0,90)" x2="600" y2="0" stroke="#ddd" stroke-width="1" opacity="1"/><line transform="translate(0,88)" x2="600" y2="0" stroke="#ddd" stroke-width="1" opacity="1"/><line transform="translate(0,86)" x2="600" y2="0" stroke="#ddd" stroke-width="1" opacity="1"/><line transform="translate(0,73)" x2="600" y2="0" stroke="#ddd" stroke-width="1" opacity="1"/><line transform="translate(0,65)" x2="600" y2="0" stroke="#ddd" stroke-width="1" opacity="1"/><line transform="translate(0,60)" x2="600" y2="0" stroke="#ddd" stroke-width="1" opacity="1"/><line transform="translate(0,56)" x2="600" y2="0" stroke="#ddd" stroke-width="1" opacity="1"/><line transform="translate(0,52)" x2="600" y2="0" stroke="#ddd" stroke-width="1" opacity="1"/><line transform="translate(0,49)" x2="600" y2="0" stroke="#ddd" stroke-width="1" opacity="1"/><line transform="translate(0,47)" x2="600" y2="0" stroke="#ddd" stroke-width="1" opacity="1"/><line transform="translate(0,45)" x2="600" y2="0" stroke="#ddd" stroke-width="1" opacity="1"/><line transform="translate(0,43)" x2="600" y2="0" stroke="#ddd" stroke-width="1" opacity="1"/><line transform="translate(0,30)" x2="600" y2="0" stroke="#ddd" stroke-width="1" opacity="1"/><line transform="translate(0,22)" x2="600" y2="0" stroke="#ddd" stroke-width="1" opacity="1"/><line transform="translate(0,17)" x2="600" y2="0" stroke="#ddd" stroke-width="1" opacity="1"/><line transform="translate(0,13)" x2="600" y2="0" stroke="#ddd" stroke-width="1" opacity="1"/><line transform="translate(0,10)" x2="600" y2="0" stroke="#ddd" stroke-width="1" opacity="1"/><line transform="translate(0,7)" x2="600" y2="0" stroke="#ddd" stroke-width="1" opacity="1"/><line transform="translate(0,4)" x2="600" y2="0" stroke="#ddd" stroke-width="1" opacity="1"/><line transform="translate(0,2)" x2="600" y2="0" stroke="#ddd" stroke-width="1" opacity="1"/><line transform="translate(0,0)" x2="600" y2="0" stroke="#ddd" stroke-width="1" opacity="1"/></g></g><path class="foreground" aria-hidden="true" d="" pointer-events="none" display="none"/></g></g><g class="mark-group role-axis" role="graphics-symbol" aria-roledescription="axis" aria-label="X-axis titled '運の良さ (パーセンタイル %)' for a linear scale with values from 0 to 100"><g transform="translate(0.5,300.5)"><path class="background" aria-hidden="true" d="M0,0h0v0h0Z" pointer-events="none"/><g><g class="mark-rule role-axis-tick" pointer-events="none"><line transform="translate(0,0)" x2="0" y2="5" stroke="#888" stroke-width="1" opacity="1"/><line transform="translate(30,0)" x2="0" y2="5" stroke="#888" stroke-width="1" opacity="1"/><line transform="translate(60,0)" x2="0" y2="5" stroke="#888" stroke-width="1" opacity="1"/><line transform="translate(90,0)" x2="0" y2="5" stroke="#888" stroke-width="1" opacity="1"/><line transform="translate(120,0)" x2="0" y2="5" stroke="#888" stroke-width="1" opacity="1"/><line transform="translate(150,0)" x2="0" y2="5" stroke="#888" stroke-width="1" opacity="1"/><line transform="translate(180,0)" x2="0" y2="5" stroke="#888" stroke-width="1" opacity="1"/><line transform="translate(210,0)" x2="0" y2="5" stroke="#888" stroke-width="1" opacity="1"/><line transform="translate(240,0)" x2="0" y2="5" stroke="#888" stroke-width="1" opacity="1"/><line transform="translate(270,0)" x2="0" y2="5" stroke="#888" stroke-width="1" opacity="1"/><line transform="translate(300,0)" x2="0" y2="5" stroke="#888" stroke-width="1" opacity="1"/><line transform="translate(330,0)" x2="0" y2="5" stroke="#888" stroke-width="1" opacity="1"/><line transform="translate(360,0)" x2="0" y2="5" stroke="#888" stroke-width="1" opacity="1"/><line transform="translate(390,0)" x2="0" y2="5" stroke="#888" stroke-width="1" opacity="1"/><line transform="translate(420,0)" x2="0" y2="5" stroke="#888" stroke-width="1" opacity="1"/><line transform="translate(450,0)" x2="0" y2="5" stroke="#888" stroke-width="1" opacity="1"/><line transform="translate(480,0)" x2="0" y2="5" stroke="#888" stroke-width="1" opacity="1"/><line transform="translate(510,0)" x2="0" y2="5" stroke="#888" stroke-width="1" opacity="1"/><line transform="translate(540,0)" x2="0" y2="5" stroke="#888" stroke-width="1" opacity="1"/><line transform="translate(570,0)" x2="0" y2="5" stroke="#888" stroke-width="1" opacity="1"/><line transform="translate(600,0)" x2="0" y2="5" stroke="#888" stroke-width="1" opacity="1"/></g><g class="mark-text role-axis-label" pointer-events="none"><text text-anchor="start" transform="translate(0,15)" font-family="sans-serif" font-size="10px" fill="#000" opacity="1">0</text><text text-anchor="middle" transform="translate(30,15)" font-family="sans-serif" font-size="10px" fill="#000" opacity="1">5</text><text text-anchor="middle" transform="translate(60,15)" font-family="sans-serif" font-size="10px" fill="#000" opacity="1">10</text><text text-anchor="middle" transform="translate(90,15)" font-family="sans-serif" font-size="10px" fill="#000" opacity="1">15</text><text text-anchor="middle" transform="translate(120,15)" font-family="sans-serif" font-size="10px" fill="#000" opacity="1">20</text><text text-anchor="middle" transform="translate(150,15)" font-family="sans-serif" font-size="10px" fill="#000" opacity="1">25</text><text text-anchor="middle" transform="translate(180,15)" font-family="sans-serif" font-size="10px" fill="#000" opacity="1">30</text><text text-anchor="middle" transform="translate(210,15)" font-family="sans-serif" font-size="10px" fill="#000" opacity="1">35</text><text text-anchor="middle" transform="translate(240,15)" font-family="sans-serif" font-size="10px" fill="#000" opacity="1">40</text><text text-anchor="middle" transform="translate(270,15)" font-family="sans-serif" font-size="10px" fill="#000" opacity="1">45</text><text text-anchor="middle" transform="translate(300,15)" font-family="sans-serif" font-size="10px" fill="#000" opacity="1">50</text><text text-anchor="middle" transform="translate(330,15)" font-family="sans-serif" font-size="10px" fill="#000" opacity="1">55</text><text text-anchor="middle" transform="translate(360,15)" font-family="sans-serif" font-size="10px" fill="#000" opacity="1">60</text><text text-anchor="middle" transform="translate(390,15)" font-family="sans-serif" font-size="10px" fill="#000" opacity="1">65</text><text text-anchor="middle" transform="translate(420,15)" font-family="sans-serif" font-size="10px" fill="#000" opacity="1">70</text><text text-anchor="middle" transform="translate(450,15)" font-family="sans-serif" font-size="10px" fill="#000" opacity="1">75</text><text text-anchor="middle" transform="translate(480,15)" font-family="sans-serif" font-size="10px" fill="#000" opacity="1">80</text><text text-anchor="middle" transform="translate(510,15)" font-family="sans-serif" font-size="10px" fill="#000" opacity="1">85</text><text text-anchor="middle" transform="translate(540,15)" font-family="sans-serif" font-size="10px" fill="#000" opacity="1">90</text><text text-anchor="middle" transform="translate(570,15)" font-family="sans-serif" font-size="10px" fill="#000" opacity="1">95</text><text text-anchor="end" transform="translate(600,15)" font-family="sans-serif" font-size="10px" fill="#000" opacity="1">100</text></g><g class="mark-rule role-axis-domain" pointer-events="none"><line transform="translate(0,0)" x2="600" y2="0" stroke="#888" stroke-width="1" opacity="1"/></g><g class="mark-text role-axis-title" pointer-events="none"><text text-anchor="middle" transform="translate(300,30)" font-family="sans-serif" font-size="11px" font-weight="bold" fill="#000" opacity="1">運の良さ (パーセンタイル %)</text></g></g><path class="foreground" aria-hidden="true" d="" pointer-events="none" display="none"/></g></g><g class="mark-group role-axis" role="graphics-symbol" aria-roledescription="axis" aria-label="Y-axis titled '最終評価額(万円), 対数スケール' for a log scale with values from 1 to 10,000,000"><g transform="translate(0.5,0.5)"><path class="background" aria-hidden="true" d="M0,0h0v0h0Z" pointer-events="none"/><g><g class="mark-rule role-axis-tick" pointer-events="none"><line transform="translate(0,300)" x2="-5" y2="0" stroke="#888" stroke-width="1" opacity="1"/><line transform="translate(0,287)" x2="-5" y2="0" stroke="#888" stroke-width="1" opacity="1"/><line transform="translate(0,280)" x2="-5" y2="0" stroke="#888" stroke-width="1" opacity="1"/><line transform="translate(0,274)" x2="-5" y2="0" stroke="#888" stroke-width="1" opacity="1"/><line transform="translate(0,270)" x2="-5" y2="0" stroke="#888" stroke-width="1" opacity="1"/><line transform="translate(0,267)" x2="-5" y2="0" stroke="#888" stroke-width="1" opacity="1"/><line transform="translate(0,264)" x2="-5" y2="0" stroke="#888" stroke-width="1" opacity="1"/><line transform="translate(0,261)" x2="-5" y2="0" stroke="#888" stroke-width="1" opacity="1"/><line transform="translate(0,259)" x2="-5" y2="0" stroke="#888" stroke-width="1" opacity="1"/><line transform="translate(0,257)" x2="-5" y2="0" stroke="#888" stroke-width="1" opacity="1"/><line transform="translate(0,244)" x2="-5" y2="0" stroke="#888" stroke-width="1" opacity="1"/><line transform="translate(0,237)" x2="-5" y2="0" stroke="#888" stroke-width="1" opacity="1"/><line transform="translate(0,231)" x2="-5" y2="0" stroke="#888" stroke-width="1" opacity="1"/><line transform="translate(0,227)" x2="-5" y2="0" stroke="#888" stroke-width="1" opacity="1"/><line transform="translate(0,224)" x2="-5" y2="0" stroke="#888" stroke-width="1" opacity="1"/><line transform="translate(0,221)" x2="-5" y2="0" stroke="#888" stroke-width="1" opacity="1"/><line transform="translate(0,218)" x2="-5" y2="0" stroke="#888" stroke-width="1" opacity="1"/><line transform="translate(0,216)" x2="-5" y2="0" stroke="#888" stroke-width="1" opacity="1"/><line transform="translate(0,214)" x2="-5" y2="0" stroke="#888" stroke-width="1" opacity="1"/><line transform="translate(0,201)" x2="-5" y2="0" stroke="#888" stroke-width="1" opacity="1"/><line transform="translate(0,194)" x2="-5" y2="0" stroke="#888" stroke-width="1" opacity="1"/><line transform="translate(0,188)" x2="-5" y2="0" stroke="#888" stroke-width="1" opacity="1"/><line transform="translate(0,184)" x2="-5" y2="0" stroke="#888" stroke-width="1" opacity="1"/><line transform="translate(0,181)" x2="-5" y2="0" stroke="#888" stroke-width="1" opacity="1"/><line transform="translate(0,178)" x2="-5" y2="0" stroke="#888" stroke-width="1" opacity="1"/><line transform="translate(0,176)" x2="-5" y2="0" stroke="#888" stroke-width="1" opacity="1"/><line transform="translate(0,173)" x2="-5" y2="0" stroke="#888" stroke-width="1" opacity="1"/><line transform="translate(0,171)" x2="-5" y2="0" stroke="#888" stroke-width="1" opacity="1"/><line transform="translate(0,159)" x2="-5" y2="0" stroke="#888" stroke-width="1" opacity="1"/><line transform="translate(0,151)" x2="-5" y2="0" stroke="#888" stroke-width="1" opacity="1"/><line transform="translate(0,146)" x2="-5" y2="0" stroke="#888" stroke-width="1" opacity="1"/><line transform="translate(0,141)" x2="-5" y2="0" stroke="#888" stroke-width="1" opacity="1"/><line transform="translate(0,138)" x2="-5" y2="0" stroke="#888" stroke-width="1" opacity="1"/><line transform="translate(0,135)" x2="-5" y2="0" stroke="#888" stroke-width="1" opacity="1"/><line transform="translate(0,133)" x2="-5" y2="0" stroke="#888" stroke-width="1" opacity="1"/><line transform="translate(0,131)" x2="-5" y2="0" stroke="#888" stroke-width="1" opacity="1"/><line transform="translate(0,129)" x2="-5" y2="0" stroke="#888" stroke-width="1" opacity="1"/><line transform="translate(0,116)" x2="-5" y2="0" stroke="#888" stroke-width="1" opacity="1"/><line transform="translate(0,108)" x2="-5" y2="0" stroke="#888" stroke-width="1" opacity="1"/><line transform="translate(0,103)" x2="-5" y2="0" stroke="#888" stroke-width="1" opacity="1"/><line transform="translate(0,99)" x2="-5" y2="0" stroke="#888" stroke-width="1" opacity="1"/><line transform="translate(0,95)" x2="-5" y2="0" stroke="#888" stroke-width="1" opacity="1"/><line transform="translate(0,92)" x2="-5" y2="0" stroke="#888" stroke-width="1" opacity="1"/><line transform="translate(0,90)" x2="-5" y2="0" stroke="#888" stroke-width="1" opacity="1"/><line transform="translate(0,88)" x2="-5" y2="0" stroke="#888" stroke-width="1" opacity="1"/><line transform="translate(0,86)" x2="-5" y2="0" stroke="#888" stroke-width="1" opacity="1"/><line transform="translate(0,73)" x2="-5" y2="0" stroke="#888" stroke-width="1" opacity="1"/><line transform="translate(0,65)" x2="-5" y2="0" stroke="#888" stroke-width="1" opacity="1"/><line transform="translate(0,60)" x2="-5" y2="0" stroke="#888" stroke-width="1" opacity="1"/><line transform="translate(0,56)" x2="-5" y2="0" stroke="#888" stroke-width="1" opacity="1"/><line transform="translate(0,52)" x2="-5" y2="0" stroke="#888" stroke-width="1" opacity="1"/><line transform="translate(0,49)" x2="-5" y2="0" stroke="#888" stroke-width="1" opacity="1"/><line transform="translate(0,47)" x2="-5" y2="0" stroke="#888" stroke-width="1" opacity="1"/><line transform="translate(0,45)" x2="-5" y2="0" stroke="#888" stroke-width="1" opacity="1"/><line transform="translate(0,43)" x2="-5" y2="0" stroke="#888" stroke-width="1" opacity="1"/><line transform="translate(0,30)" x2="-5" y2="0" stroke="#888" stroke-width="1" opacity="1"/><line transform="translate(0,22)" x2="-5" y2="0" stroke="#888" stroke-width="1" opacity="1"/><line transform="translate(0,17)" x2="-5" y2="0" stroke="#888" stroke-width="1" opacity="1"/><line transform="translate(0,13)" x2="-5" y2="0" stroke="#888" stroke-width="1" opacity="1"/><line transform="translate(0,10)" x2="-5" y2="0" stroke="#888" stroke-width="1" opacity="1"/><line transform="translate(0,7)" x2="-5" y2="0" stroke="#888" stroke-width="1" opacity="1"/><line transform="translate(0,4)" x2="-5" y2="0" stroke="#888" stroke-width="1" opacity="1"/><line transform="translate(0,2)" x2="-5" y2="0" stroke="#888" stroke-width="1" opacity="1"/><line transform="translate(0,0)" x2="-5" y2="0" stroke="#888" stroke-width="1" opacity="1"/></g><g class="mark-text role-axis-label" pointer-events="none"><text text-anchor="end" transform="translate(-7,303)" font-family="sans-serif" font-size="10px" fill="#000" opacity="1">1</text><text text-anchor="end" transform="translate(-7,290.09871447154364)" font-family="sans-serif" font-size="10px" fill="#000" opacity="1"/><text text-anchor="end" transform="translate(-7,282.5519462263002)" font-family="sans-serif" font-size="10px" fill="#000" opacity="1"/><text text-anchor="end" transform="translate(-7,277.19742894308735)" font-family="sans-serif" font-size="10px" fill="#000" opacity="1"/><text text-anchor="end" transform="translate(-7,273.04414267131347)" font-family="sans-serif" font-size="10px" fill="#000" opacity="1"/><text text-anchor="end" transform="translate(-7,269.6506606978438)" font-family="sans-serif" font-size="10px" fill="#000" opacity="1"/><text text-anchor="end" transform="translate(-7,266.78151257081754)" font-family="sans-serif" font-size="10px" fill="#000" opacity="1"/><text text-anchor="end" transform="translate(-7,264.296143414631)" font-family="sans-serif" font-size="10px" fill="#000" opacity="1"/><text text-anchor="end" transform="translate(-7,262.10389245260035)" font-family="sans-serif" font-size="10px" fill="#000" opacity="1"/><text text-anchor="end" transform="translate(-7,260.1428571428571)" font-family="sans-serif" font-size="10px" fill="#000" opacity="1">10</text><text text-anchor="end" transform="translate(-7,247.2415716144008)" font-family="sans-serif" font-size="10px" fill="#000" opacity="1"/><text text-anchor="end" transform="translate(-7,239.69480336915734)" font-family="sans-serif" font-size="10px" fill="#000" opacity="1"/><text text-anchor="end" transform="translate(-7,234.34028608594446)" font-family="sans-serif" font-size="10px" fill="#000" opacity="1"/><text text-anchor="end" transform="translate(-7,230.18699981417063)" font-family="sans-serif" font-size="10px" fill="#000" opacity="1"/><text text-anchor="end" transform="translate(-7,226.793517840701)" font-family="sans-serif" font-size="10px" fill="#000" opacity="1"/><text text-anchor="end" transform="translate(-7,223.92436971367468)" font-family="sans-serif" font-size="10px" fill="#000" opacity="1"/><text text-anchor="end" transform="translate(-7,221.43900055748813)" font-family="sans-serif" font-size="10px" fill="#000" opacity="1"/><text text-anchor="end" transform="translate(-7,219.24674959545752)" font-family="sans-serif" font-size="10px" fill="#000" opacity="1"/><text text-anchor="end" transform="translate(-7,217.28571428571425)" font-family="sans-serif" font-size="10px" fill="#000" opacity="1">100</text><text text-anchor="end" transform="translate(-7,204.38442875725795)" font-family="sans-serif" font-size="10px" fill="#000" opacity="1"/><text text-anchor="end" transform="translate(-7,196.8376605120145)" font-family="sans-serif" font-size="10px" fill="#000" opacity="1"/><text text-anchor="end" transform="translate(-7,191.4831432288016)" font-family="sans-serif" font-size="10px" fill="#000" opacity="1"/><text text-anchor="end" transform="translate(-7,187.32985695702777)" font-family="sans-serif" font-size="10px" fill="#000" opacity="1"/><text text-anchor="end" transform="translate(-7,183.93637498355812)" font-family="sans-serif" font-size="10px" fill="#000" opacity="1"/><text text-anchor="end" transform="translate(-7,181.06722685653185)" font-family="sans-serif" font-size="10px" fill="#000" opacity="1"/><text text-anchor="end" transform="translate(-7,178.58185770034527)" font-family="sans-serif" font-size="10px" fill="#000" opacity="1"/><text text-anchor="end" transform="translate(-7,176.38960673831468)" font-family="sans-serif" font-size="10px" fill="#000" opacity="1"/><text text-anchor="end" transform="translate(-7,174.42857142857142)" font-family="sans-serif" font-size="10px" fill="#000" opacity="1">1,000</text><text text-anchor="end" transform="translate(-7,161.5272859001151)" font-family="sans-serif" font-size="10px" fill="#000" opacity="1"/><text text-anchor="end" transform="translate(-7,153.98051765487162)" font-family="sans-serif" font-size="10px" fill="#000" opacity="1"/><text text-anchor="end" transform="translate(-7,148.62600037165876)" font-family="sans-serif" font-size="10px" fill="#000" opacity="1"/><text text-anchor="end" transform="translate(-7,144.4727140998849)" font-family="sans-serif" font-size="10px" fill="#000" opacity="1"/><text text-anchor="end" transform="translate(-7,141.0792321264153)" font-family="sans-serif" font-size="10px" fill="#000" opacity="1"/><text text-anchor="end" transform="translate(-7,138.210083999389)" font-family="sans-serif" font-size="10px" fill="#000" opacity="1"/><text text-anchor="end" transform="translate(-7,135.72471484320243)" font-family="sans-serif" font-size="10px" fill="#000" opacity="1"/><text text-anchor="end" transform="translate(-7,133.5324638811718)" font-family="sans-serif" font-size="10px" fill="#000" opacity="1"/><text text-anchor="end" transform="translate(-7,131.57142857142856)" font-family="sans-serif" font-size="10px" fill="#000" opacity="1">10,000</text><text text-anchor="end" transform="translate(-7,118.67014304297226)" font-family="sans-serif" font-size="10px" fill="#000" opacity="1"/><text text-anchor="end" transform="translate(-7,111.12337479772876)" font-family="sans-serif" font-size="10px" fill="#000" opacity="1"/><text text-anchor="end" transform="translate(-7,105.76885751451591)" font-family="sans-serif" font-size="10px" fill="#000" opacity="1"/><text text-anchor="end" transform="translate(-7,101.61557124274208)" font-family="sans-serif" font-size="10px" fill="#000" opacity="1"/><text text-anchor="end" transform="translate(-7,98.22208926927243)" font-family="sans-serif" font-size="10px" fill="#000" opacity="1"/><text text-anchor="end" transform="translate(-7,95.35294114224617)" font-family="sans-serif" font-size="10px" fill="#000" opacity="1"/><text text-anchor="end" transform="translate(-7,92.86757198605959)" font-family="sans-serif" font-size="10px" fill="#000" opacity="1"/><text text-anchor="end" transform="translate(-7,90.67532102402896)" font-family="sans-serif" font-size="10px" fill="#000" opacity="1"/><text text-anchor="end" transform="translate(-7,88.71428571428571)" font-family="sans-serif" font-size="10px" fill="#000" opacity="1">100,000</text><text text-anchor="end" transform="translate(-7,75.81300018582938)" font-family="sans-serif" font-size="10px" fill="#000" opacity="1"/><text text-anchor="end" transform="translate(-7,68.26623194058591)" font-family="sans-serif" font-size="10px" fill="#000" opacity="1"/><text text-anchor="end" transform="translate(-7,62.91171465737305)" font-family="sans-serif" font-size="10px" fill="#000" opacity="1"/><text text-anchor="end" transform="translate(-7,58.7584283855992)" font-family="sans-serif" font-size="10px" fill="#000" opacity="1"/><text text-anchor="end" transform="translate(-7,55.364946412129584)" font-family="sans-serif" font-size="10px" fill="#000" opacity="1"/><text text-anchor="end" transform="translate(-7,52.4957982851033)" font-family="sans-serif" font-size="10px" fill="#000" opacity="1"/><text text-anchor="end" transform="translate(-7,50.01042912891672)" font-family="sans-serif" font-size="10px" fill="#000" opacity="1"/><text text-anchor="end" transform="translate(-7,47.81817816688606)" font-family="sans-serif" font-size="10px" fill="#000" opacity="1"/><text text-anchor="end" transform="translate(-7,45.85714285714287)" font-family="sans-serif" font-size="10px" fill="#000" opacity="1">1,000,000</text><text text-anchor="end" transform="translate(-7,32.95585732868654)" font-family="sans-serif" font-size="10px" fill="#000" opacity="1"/><text text-anchor="end" transform="translate(-7,25.409089083443046)" font-family="sans-serif" font-size="10px" fill="#000" opacity="1"/><text text-anchor="end" transform="translate(-7,20.05457180023021)" font-family="sans-serif" font-size="10px" fill="#000" opacity="1"/><text text-anchor="end" transform="translate(-7,15.90128552845633)" font-family="sans-serif" font-size="10px" fill="#000" opacity="1"/><text text-anchor="end" transform="translate(-7,12.507803554986683)" font-family="sans-serif" font-size="10px" fill="#000" opacity="1"/><text text-anchor="end" transform="translate(-7,9.638655427960426)" font-family="sans-serif" font-size="10px" fill="#000" opacity="1"/><text text-anchor="end" transform="translate(-7,7.153286271773848)" font-family="sans-serif" font-size="10px" fill="#000" opacity="1"/><text text-anchor="end" transform="translate(-7,4.961035309743253)" font-family="sans-serif" font-size="10px" fill="#000" opacity="1"/><text text-anchor="end" transform="translate(-7,3)" font-family="sans-serif" font-size="10px" fill="#000" opacity="1">10,000,000</text></g><g class="mark-rule role-axis-domain" pointer-events="none"><line transform="translate(0,300)" x2="0" y2="-300" stroke="#888" stroke-width="1" opacity="1"/></g><g class="mark-text role-axis-title" pointer-events="none"><text text-anchor="middle" transform="translate(-61.048828125,150) rotate(-90) translate(0,-2)" font-family="sans-serif" font-size="11px" font-weight="bold" fill="#000" opacity="1">最終評価額(万円), 対数スケール</text></g></g><path class="foreground" aria-hidden="true" d="" pointer-events="none" display="none"/></g></g><g class="mark-group role-scope view_0ef3a60735b14dfe_0_pathgroup" role="graphics-object" aria-roledescription="group mark container"><g transform="translate(0,0)"><path class="background" aria-hidden="true" d="M0,0h600v300h-600Z"/><g><g class="mark-area role-mark view_0ef3a60735b14dfe_0_marks" clip-path="url(#clip1)" role="graphics-object" aria-roledescription="area mark container"><path aria-label="運の良さ (パーセンタイル %): 0; 最終評価額(万円), 対数スケール: 1; Strategy: オルカン 100% (基準); Quantile (%): 0; Final Value (万円): 1" role="graphics-symbol" aria-roledescription="area mark" d="M0,300L6,300L12,300L18,300L24,300L30,300L36,300L42,300L48,300L54,300L60,300L66,300L72,300L78,300L84,300L90,300L96,300L102,300L108,300L114,300L120,300L126,300L132,300L138,300L144,300L150,300L156,300L162,300L168,300L174,300L180,300L186,300L192,300L198,300L204,300L210,300L216,300L222,300L228,300L234,300L240,300L246,300L252,300L258,300L264,300L270,300L276,300L282,300L288,300L294,300L300,300L306,300L312,300L318,300L324,300L330,300L336,300L342,300L348,300L354,300L360,300L366,300L372,300L378,167.874L384,148.053L390,136.818L396,131.164L402,125.709L408,122.108L414,117.017L420,112.86L426,110.99L432,108.572L438,107.58L444,104.717L450,103.258L456,100.938L462,99.925L468,98.287L474,95.319L480,93.478L486,91.526L492,88.908L498,86.856L504,83.26L510,82.123L516,79.784L522,77.515L528,75.873L534,73.657L540,70.587L546,67.93L552,65.432L558,62.552L564,60.007L570,55.512L576,52.764L582,50.519L588,47.259L594,42.841L600,21.719L600,300L594,300L588,300L582,300L576,300L570,300L564,300L558,300L552,300L546,300L540,300L534,300L528,300L522,300L516,300L510,300L504,300L498,300L492,300L486,300L480,300L474,300L468,300L462,300L456,300L450,300L444,300L438,300L432,300L426,300L420,300L414,300L408,300L402,300L396,300L390,300L384,300L378,300L372,300L366,300L360,300L354,300L348,300L342,300L336,300L330,300L324,300L318,300L312,300L306,300L300,300L294,300L288,300L282,300L276,300L270,300L264,300L258,300L252,300L246,300L240,300L234,300L228,300L222,300L216,300L210,300L204,300L198,300L192,300L186,300L180,300L174,300L168,300L162,300L156,300L150,300L144,300L138,300L132,300L126,300L120,300L114,300L108,300L102,300L96,300L90,300L84,300L78,300L72,300L66,300L60,300L54,300L48,300L42,300L36,300L30,300L24,300L18,300L12,300L6,300L0,300Z" fill="#4c78a8" opacity="0.3"/></g></g><path class="foreground" aria-hidden="true" d="" display="none"/></g><g transform="translate(0,0)"><path class="background" aria-hidden="true" d="M0,0h600v300h-600Z"/><g><g class="mark-area role-mark view_0ef3a60735b14dfe_0_marks" clip-path="url(#clip2)" role="graphics-object" aria-roledescription="area mark container"><path aria-label="運の良さ (パーセンタイル %): 0; 最終評価額(万円), 対数スケール: 1; Strategy: オルカン 80% (売却順: 1.株, 2.無リスク); Quantile (%): 0; Final Value (万円): 1" role="graphics-symbol" aria-roledescription="area mark" d="M0,300L6,300L12,300L18,300L24,300L30,300L36,300L42,300L48,300L54,300L60,300L66,300L72,300L78,300L84,300L90,300L96,300L102,300L108,300L114,300L120,300L126,300L132,300L138,300L144,300L150,300L156,300L162,300L168,300L174,300L180,300L186,300L192,300L198,300L204,300L210,300L216,300L222,300L228,300L234,300L240,300L246,300L252,300L258,300L264,300L270,300L276,300L282,300L288,300L294,300L300,300L306,300L312,300L318,300L324,300L330,300L336,300L342,300L348,300L354,300L360,300L366,300L372,300L378,300L384,300L390,300L396,300L402,300L408,300L414,163.197L420,144.683L426,135.324L432,129.125L438,123.582L444,121.582L450,117.352L456,115.615L462,112.1L468,109.856L474,107.853L480,104.753L486,101.943L492,98.924L498,95.616L504,93.54L510,90.784L516,88.487L522,85.12L528,83.516L534,80.775L540,78.379L546,75.154L552,71.873L558,68.714L564,65.904L570,61.198L576,58.439L582,56.055L588,52.558L594,48.664L600,27.794L600,300L594,300L588,300L582,300L576,300L570,300L564,300L558,300L552,300L546,300L540,300L534,300L528,300L522,300L516,300L510,300L504,300L498,300L492,300L486,300L480,300L474,300L468,300L462,300L456,300L450,300L444,300L438,300L432,300L426,300L420,300L414,300L408,300L402,300L396,300L390,300L384,300L378,300L372,300L366,300L360,300L354,300L348,300L342,300L336,300L330,300L324,300L318,300L312,300L306,300L300,300L294,300L288,300L282,300L276,300L270,300L264,300L258,300L252,300L246,300L240,300L234,300L228,300L222,300L216,300L210,300L204,300L198,300L192,300L186,300L180,300L174,300L168,300L162,300L156,300L150,300L144,300L138,300L132,300L126,300L120,300L114,300L108,300L102,300L96,300L90,300L84,300L78,300L72,300L66,300L60,300L54,300L48,300L42,300L36,300L30,300L24,300L18,300L12,300L6,300L0,300Z" fill="#eeca3b" opacity="0.3"/></g></g><path class="foreground" aria-hidden="true" d="" display="none"/></g><g transform="translate(0,0)"><path class="background" aria-hidden="true" d="M0,0h600v300h-600Z"/><g><g class="mark-area role-mark view_0ef3a60735b14dfe_0_marks" clip-path="url(#clip3)" role="graphics-object" aria-roledescription="area mark container"><path aria-label="運の良さ (パーセンタイル %): 0; 最終評価額(万円), 対数スケール: 1; Strategy: オルカン 80% (売却順: 1.無リスク, 2.株); Quantile (%): 0; Final Value (万円): 1" role="graphics-symbol" aria-roledescription="area mark" d="M0,300L6,300L12,300L18,300L24,300L30,300L36,300L42,300L48,300L54,300L60,300L66,300L72,300L78,300L84,300L90,300L96,300L102,300L108,300L114,300L120,300L126,300L132,300L138,300L144,300L150,300L156,300L162,300L168,300L174,300L180,300L186,300L192,300L198,300L204,300L210,300L216,300L222,300L228,300L234,300L240,300L246,300L252,300L258,300L264,300L270,300L276,300L282,300L288,300L294,300L300,300L306,300L312,300L318,300L324,300L330,300L336,300L342,300L348,300L354,300L360,300L366,300L372,300L378,179.726L384,156.452L390,139.853L396,132.14L402,127.883L408,123.59L414,118.913L420,115.454L426,113.52L432,110.997L438,109.1L444,107.22L450,105.553L456,103.13L462,101.274L468,98.649L474,97.083L480,94.855L486,92.777L492,89.709L498,87.923L504,85.077L510,83.566L516,80.64L522,78.301L528,76.896L534,74.559L540,72.239L546,69.529L552,66.431L558,63.498L564,60.49L570,57.349L576,54.259L582,52.362L588,48.648L594,42.522L600,21.849L600,300L594,300L588,300L582,300L576,300L570,300L564,300L558,300L552,300L546,300L540,300L534,300L528,300L522,300L516,300L510,300L504,300L498,300L492,300L486,300L480,300L474,300L468,300L462,300L456,300L450,300L444,300L438,300L432,300L426,300L420,300L414,300L408,300L402,300L396,300L390,300L384,300L378,300L372,300L366,300L360,300L354,300L348,300L342,300L336,300L330,300L324,300L318,300L312,300L306,300L300,300L294,300L288,300L282,300L276,300L270,300L264,300L258,300L252,300L246,300L240,300L234,300L228,300L222,300L216,300L210,300L204,300L198,300L192,300L186,300L180,300L174,300L168,300L162,300L156,300L150,300L144,300L138,300L132,300L126,300L120,300L114,300L108,300L102,300L96,300L90,300L84,300L78,300L72,300L66,300L60,300L54,300L48,300L42,300L36,300L30,300L24,300L18,300L12,300L6,300L0,300Z" fill="#b279a2" opacity="0.3"/></g></g><path class="foreground" aria-hidden="true" d="" display="none"/></g><g transform="translate(0,0)"><path class="background" aria-hidden="true" d="M0,0h600v300h-600Z"/><g><g class="mark-area role-mark view_0ef3a60735b14dfe_0_marks" clip-path="url(#clip4)" role="graphics-object" aria-roledescription="area mark container"><path aria-label="運の良さ (パーセンタイル %): 0; 最終評価額(万円), 対数スケール: 1; Strategy: オルカン 70% (売却順: 1.株, 2.無リスク); Quantile (%): 0; Final Value (万円): 1" role="graphics-symbol" aria-roledescription="area mark" d="M0,300L6,300L12,300L18,300L24,300L30,300L36,300L42,300L48,300L54,300L60,300L66,300L72,300L78,300L84,300L90,300L96,300L102,300L108,300L114,300L120,300L126,300L132,300L138,300L144,300L150,300L156,300L162,300L168,300L174,300L180,300L186,300L192,300L198,300L204,300L210,300L216,300L222,300L228,300L234,300L240,300L246,300L252,300L258,300L264,300L270,300L276,300L282,300L288,300L294,300L300,300L306,300L312,300L318,300L324,300L330,300L336,300L342,300L348,300L354,300L360,300L366,300L372,300L378,300L384,300L390,300L396,300L402,300L408,300L414,300L420,300L426,243.89L432,177.432L438,160.782L444,139.067L450,134.431L456,128.963L462,125.229L468,121.949L474,117.387L480,112.739L486,109.699L492,104.941L498,102.845L504,100.268L510,96.796L516,94.407L522,90.877L528,87.908L534,86.014L540,83.321L546,79.274L552,76.654L558,73.368L564,70.345L570,67.39L576,61.907L582,59.81L588,55.998L594,52.445L600,30.821L600,300L594,300L588,300L582,300L576,300L570,300L564,300L558,300L552,300L546,300L540,300L534,300L528,300L522,300L516,300L510,300L504,300L498,300L492,300L486,300L480,300L474,300L468,300L462,300L456,300L450,300L444,300L438,300L432,300L426,300L420,300L414,300L408,300L402,300L396,300L390,300L384,300L378,300L372,300L366,300L360,300L354,300L348,300L342,300L336,300L330,300L324,300L318,300L312,300L306,300L300,300L294,300L288,300L282,300L276,300L270,300L264,300L258,300L252,300L246,300L240,300L234,300L228,300L222,300L216,300L210,300L204,300L198,300L192,300L186,300L180,300L174,300L168,300L162,300L156,300L150,300L144,300L138,300L132,300L126,300L120,300L114,300L108,300L102,300L96,300L90,300L84,300L78,300L72,300L66,300L60,300L54,300L48,300L42,300L36,300L30,300L24,300L18,300L12,300L6,300L0,300Z" fill="#72b7b2" opacity="0.3"/></g></g><path class="foreground" aria-hidden="true" d="" display="none"/></g><g transform="translate(0,0)"><path class="background" aria-hidden="true" d="M0,0h600v300h-600Z"/><g><g class="mark-area role-mark view_0ef3a60735b14dfe_0_marks" clip-path="url(#clip5)" role="graphics-object" aria-roledescription="area mark container"><path aria-label="運の良さ (パーセンタイル %): 0; 最終評価額(万円), 対数スケール: 1; Strategy: オルカン 70% (売却順: 1.無リスク, 2.株); Quantile (%): 0; Final Value (万円): 1" role="graphics-symbol" aria-roledescription="area mark" d="M0,300L6,300L12,300L18,300L24,300L30,300L36,300L42,300L48,300L54,300L60,300L66,300L72,300L78,300L84,300L90,300L96,300L102,300L108,300L114,300L120,300L126,300L132,300L138,300L144,300L150,300L156,300L162,300L168,300L174,300L180,300L186,300L192,300L198,300L204,300L210,300L216,300L222,300L228,300L234,300L240,300L246,300L252,300L258,300L264,300L270,300L276,300L282,300L288,300L294,300L300,300L306,300L312,300L318,300L324,300L330,300L336,300L342,300L348,300L354,300L360,300L366,300L372,300L378,300L384,168.013L390,148.925L396,142.665L402,130.704L408,126L414,121.961L420,119.627L426,117.123L432,114.392L438,112.368L444,109.43L450,107.16L456,105.239L462,103.845L468,100.661L474,98.897L480,96.433L486,93.228L492,90.787L498,89.055L504,86.579L510,85.01L516,81.905L522,80.21L528,78.075L534,75.986L540,73.351L546,71.499L552,67.991L558,64.437L564,61.705L570,58.905L576,56.183L582,53.908L588,50.787L594,43.733L600,22.532L600,300L594,300L588,300L582,300L576,300L570,300L564,300L558,300L552,300L546,300L540,300L534,300L528,300L522,300L516,300L510,300L504,300L498,300L492,300L486,300L480,300L474,300L468,300L462,300L456,300L450,300L444,300L438,300L432,300L426,300L420,300L414,300L408,300L402,300L396,300L390,300L384,300L378,300L372,300L366,300L360,300L354,300L348,300L342,300L336,300L330,300L324,300L318,300L312,300L306,300L300,300L294,300L288,300L282,300L276,300L270,300L264,300L258,300L252,300L246,300L240,300L234,300L228,300L222,300L216,300L210,300L204,300L198,300L192,300L186,300L180,300L174,300L168,300L162,300L156,300L150,300L144,300L138,300L132,300L126,300L120,300L114,300L108,300L102,300L96,300L90,300L84,300L78,300L72,300L66,300L60,300L54,300L48,300L42,300L36,300L30,300L24,300L18,300L12,300L6,300L0,300Z" fill="#54a24b" opacity="0.3"/></g></g><path class="foreground" aria-hidden="true" d="" display="none"/></g><g transform="translate(0,0)"><path class="background" aria-hidden="true" d="M0,0h600v300h-600Z"/><g><g class="mark-area role-mark view_0ef3a60735b14dfe_0_marks" clip-path="url(#clip6)" role="graphics-object" aria-roledescription="area mark container"><path aria-label="運の良さ (パーセンタイル %): 0; 最終評価額(万円), 対数スケール: 1; Strategy: オルカン 50% (売却順: 1.株, 2.無リスク); Quantile (%): 0; Final Value (万円): 1" role="graphics-symbol" aria-roledescription="area mark" d="M0,300L6,300L12,300L18,300L24,300L30,300L36,300L42,300L48,300L54,300L60,300L66,300L72,300L78,300L84,300L90,300L96,300L102,300L108,300L114,300L120,300L126,300L132,300L138,300L144,300L150,300L156,300L162,300L168,300L174,300L180,300L186,300L192,300L198,300L204,300L210,300L216,300L222,300L228,300L234,300L240,300L246,300L252,300L258,300L264,300L270,300L276,300L282,300L288,300L294,300L300,300L306,300L312,300L318,300L324,300L330,300L336,300L342,300L348,300L354,300L360,300L366,300L372,300L378,300L384,300L390,300L396,300L402,300L408,300L414,300L420,300L426,300L432,300L438,300L444,300L450,300L456,300L462,300L468,300L474,300L480,300L486,184.415L492,152.786L498,138.704L504,129.482L510,124.398L516,117.025L522,112.954L528,106.701L534,101.285L540,98.527L546,94.909L552,91.316L558,86.609L564,82.851L570,78.557L576,73.057L582,69.253L588,67.261L594,62.468L600,38.93L600,300L594,300L588,300L582,300L576,300L570,300L564,300L558,300L552,300L546,300L540,300L534,300L528,300L522,300L516,300L510,300L504,300L498,300L492,300L486,300L480,300L474,300L468,300L462,300L456,300L450,300L444,300L438,300L432,300L426,300L420,300L414,300L408,300L402,300L396,300L390,300L384,300L378,300L372,300L366,300L360,300L354,300L348,300L342,300L336,300L330,300L324,300L318,300L312,300L306,300L300,300L294,300L288,300L282,300L276,300L270,300L264,300L258,300L252,300L246,300L240,300L234,300L228,300L222,300L216,300L210,300L204,300L198,300L192,300L186,300L180,300L174,300L168,300L162,300L156,300L150,300L144,300L138,300L132,300L126,300L120,300L114,300L108,300L102,300L96,300L90,300L84,300L78,300L72,300L66,300L60,300L54,300L48,300L42,300L36,300L30,300L24,300L18,300L12,300L6,300L0,300Z" fill="#f58518" opacity="0.3"/></g></g><path class="foreground" aria-hidden="true" d="" display="none"/></g><g transform="translate(0,0)"><path class="background" aria-hidden="true" d="M0,0h600v300h-600Z"/><g><g class="mark-area role-mark view_0ef3a60735b14dfe_0_marks" clip-path="url(#clip7)" role="graphics-object" aria-roledescription="area mark container"><path aria-label="運の良さ (パーセンタイル %): 0; 最終評価額(万円), 対数スケール: 1; Strategy: オルカン 50% (売却順: 1.無リスク, 2.株); Quantile (%): 0; Final Value (万円): 1" role="graphics-symbol" aria-roledescription="area mark" d="M0,300L6,300L12,300L18,300L24,300L30,300L36,300L42,300L48,300L54,300L60,300L66,300L72,300L78,300L84,300L90,300L96,300L102,300L108,300L114,300L120,300L126,300L132,300L138,300L144,300L150,300L156,300L162,300L168,300L174,300L180,300L186,300L192,300L198,300L204,300L210,300L216,300L222,300L228,300L234,300L240,300L246,300L252,300L258,300L264,300L270,300L276,300L282,300L288,300L294,300L300,300L306,300L312,300L318,300L324,300L330,300L336,300L342,300L348,300L354,300L360,300L366,300L372,300L378,300L384,300L390,300L396,187.217L402,166.924L408,151.06L414,140.787L420,135.181L426,129.82L432,126.259L438,122.806L444,119.04L450,115.603L456,112.175L462,109.814L468,107.313L474,106.215L480,101.346L486,99.7L492,97.335L498,94.328L504,92.64L510,90.337L516,88.41L522,86.069L528,83.549L534,81.247L540,79.373L546,75.042L552,73.318L558,70.61L564,66.457L570,64.105L576,61.665L582,59.122L588,55.825L594,49.602L600,24.839L600,300L594,300L588,300L582,300L576,300L570,300L564,300L558,300L552,300L546,300L540,300L534,300L528,300L522,300L516,300L510,300L504,300L498,300L492,300L486,300L480,300L474,300L468,300L462,300L456,300L450,300L444,300L438,300L432,300L426,300L420,300L414,300L408,300L402,300L396,300L390,300L384,300L378,300L372,300L366,300L360,300L354,300L348,300L342,300L336,300L330,300L324,300L318,300L312,300L306,300L300,300L294,300L288,300L282,300L276,300L270,300L264,300L258,300L252,300L246,300L240,300L234,300L228,300L222,300L216,300L210,300L204,300L198,300L192,300L186,300L180,300L174,300L168,300L162,300L156,300L150,300L144,300L138,300L132,300L126,300L120,300L114,300L108,300L102,300L96,300L90,300L84,300L78,300L72,300L66,300L60,300L54,300L48,300L42,300L36,300L30,300L24,300L18,300L12,300L6,300L0,300Z" fill="#e45756" opacity="0.3"/></g></g><path class="foreground" aria-hidden="true" d="" display="none"/></g></g><g class="mark-group role-scope layer_1_pathgroup" role="graphics-object" aria-roledescription="group mark container"><g transform="translate(0,0)"><path class="background" aria-hidden="true" d="M0,0h600v300h-600Z"/><g><g class="mark-line role-mark layer_1_marks" clip-path="url(#clip8)" role="graphics-object" aria-roledescription="line mark container" pointer-events="none"><path aria-label="Quantile (%): 0; Final Value (万円): 1; Strategy: オルカン 100% (基準)" role="graphics-symbol" aria-roledescription="line mark" d="M0,300L6,300L12,300L18,300L24,300L30,300L36,300L42,300L48,300L54,300L60,300L66,300L72,300L78,300L84,300L90,300L96,300L102,300L108,300L114,300L120,300L126,300L132,300L138,300L144,300L150,300L156,300L162,300L168,300L174,300L180,300L186,300L192,300L198,300L204,300L210,300L216,300L222,300L228,300L234,300L240,300L246,300L252,300L258,300L264,300L270,300L276,300L282,300L288,300L294,300L300,300L306,300L312,300L318,300L324,300L330,300L336,300L342,300L348,300L354,300L360,300L366,300L372,300L378,167.874L384,148.053L390,136.818L396,131.164L402,125.709L408,122.108L414,117.017L420,112.86L426,110.99L432,108.572L438,107.58L444,104.717L450,103.258L456,100.938L462,99.925L468,98.287L474,95.319L480,93.478L486,91.526L492,88.908L498,86.856L504,83.26L510,82.123L516,79.784L522,77.515L528,75.873L534,73.657L540,70.587L546,67.93L552,65.432L558,62.552L564,60.007L570,55.512L576,52.764L582,50.519L588,47.259L594,42.841L600,21.719" stroke="#4c78a8" stroke-width="2"/></g></g><path class="foreground" aria-hidden="true" d="" display="none"/></g><g transform="translate(0,0)"><path class="background" aria-hidden="true" d="M0,0h600v300h-600Z"/><g><g class="mark-line role-mark layer_1_marks" clip-path="url(#clip9)" role="graphics-object" aria-roledescription="line mark container" pointer-events="none"><path aria-label="Quantile (%): 0; Final Value (万円): 1; Strategy: オルカン 80% (売却順: 1.株, 2.無リスク)" role="graphics-symbol" aria-roledescription="line mark" d="M0,300L6,300L12,300L18,300L24,300L30,300L36,300L42,300L48,300L54,300L60,300L66,300L72,300L78,300L84,300L90,300L96,300L102,300L108,300L114,300L120,300L126,300L132,300L138,300L144,300L150,300L156,300L162,300L168,300L174,300L180,300L186,300L192,300L198,300L204,300L210,300L216,300L222,300L228,300L234,300L240,300L246,300L252,300L258,300L264,300L270,300L276,300L282,300L288,300L294,300L300,300L306,300L312,300L318,300L324,300L330,300L336,300L342,300L348,300L354,300L360,300L366,300L372,300L378,300L384,300L390,300L396,300L402,300L408,300L414,163.197L420,144.683L426,135.324L432,129.125L438,123.582L444,121.582L450,117.352L456,115.615L462,112.1L468,109.856L474,107.853L480,104.753L486,101.943L492,98.924L498,95.616L504,93.54L510,90.784L516,88.487L522,85.12L528,83.516L534,80.775L540,78.379L546,75.154L552,71.873L558,68.714L564,65.904L570,61.198L576,58.439L582,56.055L588,52.558L594,48.664L600,27.794" stroke="#eeca3b" stroke-width="2"/></g></g><path class="foreground" aria-hidden="true" d="" display="none"/></g><g transform="translate(0,0)"><path class="background" aria-hidden="true" d="M0,0h600v300h-600Z"/><g><g class="mark-line role-mark layer_1_marks" clip-path="url(#clip10)" role="graphics-object" aria-roledescription="line mark container" pointer-events="none"><path aria-label="Quantile (%): 0; Final Value (万円): 1; Strategy: オルカン 80% (売却順: 1.無リスク, 2.株)" role="graphics-symbol" aria-roledescription="line mark" d="M0,300L6,300L12,300L18,300L24,300L30,300L36,300L42,300L48,300L54,300L60,300L66,300L72,300L78,300L84,300L90,300L96,300L102,300L108,300L114,300L120,300L126,300L132,300L138,300L144,300L150,300L156,300L162,300L168,300L174,300L180,300L186,300L192,300L198,300L204,300L210,300L216,300L222,300L228,300L234,300L240,300L246,300L252,300L258,300L264,300L270,300L276,300L282,300L288,300L294,300L300,300L306,300L312,300L318,300L324,300L330,300L336,300L342,300L348,300L354,300L360,300L366,300L372,300L378,179.726L384,156.452L390,139.853L396,132.14L402,127.883L408,123.59L414,118.913L420,115.454L426,113.52L432,110.997L438,109.1L444,107.22L450,105.553L456,103.13L462,101.274L468,98.649L474,97.083L480,94.855L486,92.777L492,89.709L498,87.923L504,85.077L510,83.566L516,80.64L522,78.301L528,76.896L534,74.559L540,72.239L546,69.529L552,66.431L558,63.498L564,60.49L570,57.349L576,54.259L582,52.362L588,48.648L594,42.522L600,21.849" stroke="#b279a2" stroke-width="2"/></g></g><path class="foreground" aria-hidden="true" d="" display="none"/></g><g transform="translate(0,0)"><path class="background" aria-hidden="true" d="M0,0h600v300h-600Z"/><g><g class="mark-line role-mark layer_1_marks" clip-path="url(#clip11)" role="graphics-object" aria-roledescription="line mark container" pointer-events="none"><path aria-label="Quantile (%): 0; Final Value (万円): 1; Strategy: オルカン 70% (売却順: 1.株, 2.無リスク)" role="graphics-symbol" aria-roledescription="line mark" d="M0,300L6,300L12,300L18,300L24,300L30,300L36,300L42,300L48,300L54,300L60,300L66,300L72,300L78,300L84,300L90,300L96,300L102,300L108,300L114,300L120,300L126,300L132,300L138,300L144,300L150,300L156,300L162,300L168,300L174,300L180,300L186,300L192,300L198,300L204,300L210,300L216,300L222,300L228,300L234,300L240,300L246,300L252,300L258,300L264,300L270,300L276,300L282,300L288,300L294,300L300,300L306,300L312,300L318,300L324,300L330,300L336,300L342,300L348,300L354,300L360,300L366,300L372,300L378,300L384,300L390,300L396,300L402,300L408,300L414,300L420,300L426,243.89L432,177.432L438,160.782L444,139.067L450,134.431L456,128.963L462,125.229L468,121.949L474,117.387L480,112.739L486,109.699L492,104.941L498,102.845L504,100.268L510,96.796L516,94.407L522,90.877L528,87.908L534,86.014L540,83.321L546,79.274L552,76.654L558,73.368L564,70.345L570,67.39L576,61.907L582,59.81L588,55.998L594,52.445L600,30.821" stroke="#72b7b2" stroke-width="2"/></g></g><path class="foreground" aria-hidden="true" d="" display="none"/></g><g transform="translate(0,0)"><path class="background" aria-hidden="true" d="M0,0h600v300h-600Z"/><g><g class="mark-line role-mark layer_1_marks" clip-path="url(#clip12)" role="graphics-object" aria-roledescription="line mark container" pointer-events="none"><path aria-label="Quantile (%): 0; Final Value (万円): 1; Strategy: オルカン 70% (売却順: 1.無リスク, 2.株)" role="graphics-symbol" aria-roledescription="line mark" d="M0,300L6,300L12,300L18,300L24,300L30,300L36,300L42,300L48,300L54,300L60,300L66,300L72,300L78,300L84,300L90,300L96,300L102,300L108,300L114,300L120,300L126,300L132,300L138,300L144,300L150,300L156,300L162,300L168,300L174,300L180,300L186,300L192,300L198,300L204,300L210,300L216,300L222,300L228,300L234,300L240,300L246,300L252,300L258,300L264,300L270,300L276,300L282,300L288,300L294,300L300,300L306,300L312,300L318,300L324,300L330,300L336,300L342,300L348,300L354,300L360,300L366,300L372,300L378,300L384,168.013L390,148.925L396,142.665L402,130.704L408,126L414,121.961L420,119.627L426,117.123L432,114.392L438,112.368L444,109.43L450,107.16L456,105.239L462,103.845L468,100.661L474,98.897L480,96.433L486,93.228L492,90.787L498,89.055L504,86.579L510,85.01L516,81.905L522,80.21L528,78.075L534,75.986L540,73.351L546,71.499L552,67.991L558,64.437L564,61.705L570,58.905L576,56.183L582,53.908L588,50.787L594,43.733L600,22.532" stroke="#54a24b" stroke-width="2"/></g></g><path class="foreground" aria-hidden="true" d="" display="none"/></g><g transform="translate(0,0)"><path class="background" aria-hidden="true" d="M0,0h600v300h-600Z"/><g><g class="mark-line role-mark layer_1_marks" clip-path="url(#clip13)" role="graphics-object" aria-roledescription="line mark container" pointer-events="none"><path aria-label="Quantile (%): 0; Final Value (万円): 1; Strategy: オルカン 50% (売却順: 1.株, 2.無リスク)" role="graphics-symbol" aria-roledescription="line mark" d="M0,300L6,300L12,300L18,300L24,300L30,300L36,300L42,300L48,300L54,300L60,300L66,300L72,300L78,300L84,300L90,300L96,300L102,300L108,300L114,300L120,300L126,300L132,300L138,300L144,300L150,300L156,300L162,300L168,300L174,300L180,300L186,300L192,300L198,300L204,300L210,300L216,300L222,300L228,300L234,300L240,300L246,300L252,300L258,300L264,300L270,300L276,300L282,300L288,300L294,300L300,300L306,300L312,300L318,300L324,300L330,300L336,300L342,300L348,300L354,300L360,300L366,300L372,300L378,300L384,300L390,300L396,300L402,300L408,300L414,300L420,300L426,300L432,300L438,300L444,300L450,300L456,300L462,300L468,300L474,300L480,300L486,184.415L492,152.786L498,138.704L504,129.482L510,124.398L516,117.025L522,112.954L528,106.701L534,101.285L540,98.527L546,94.909L552,91.316L558,86.609L564,82.851L570,78.557L576,73.057L582,69.253L588,67.261L594,62.468L600,38.93" stroke="#f58518" stroke-width="2"/></g></g><path class="foreground" aria-hidden="true" d="" display="none"/></g><g transform="translate(0,0)"><path class="background" aria-hidden="true" d="M0,0h600v300h-600Z"/><g><g class="mark-line role-mark layer_1_marks" clip-path="url(#clip14)" role="graphics-object" aria-roledescription="line mark container" pointer-events="none"><path aria-label="Quantile (%): 0; Final Value (万円): 1; Strategy: オルカン 50% (売却順: 1.無リスク, 2.株)" role="graphics-symbol" aria-roledescription="line mark" d="M0,300L6,300L12,300L18,300L24,300L30,300L36,300L42,300L48,300L54,300L60,300L66,300L72,300L78,300L84,300L90,300L96,300L102,300L108,300L114,300L120,300L126,300L132,300L138,300L144,300L150,300L156,300L162,300L168,300L174,300L180,300L186,300L192,300L198,300L204,300L210,300L216,300L222,300L228,300L234,300L240,300L246,300L252,300L258,300L264,300L270,300L276,300L282,300L288,300L294,300L300,300L306,300L312,300L318,300L324,300L330,300L336,300L342,300L348,300L354,300L360,300L366,300L372,300L378,300L384,300L390,300L396,187.217L402,166.924L408,151.06L414,140.787L420,135.181L426,129.82L432,126.259L438,122.806L444,119.04L450,115.603L456,112.175L462,109.814L468,107.313L474,106.215L480,101.346L486,99.7L492,97.335L498,94.328L504,92.64L510,90.337L516,88.41L522,86.069L528,83.549L534,81.247L540,79.373L546,75.042L552,73.318L558,70.61L564,66.457L570,64.105L576,61.665L582,59.122L588,55.825L594,49.602L600,24.839" stroke="#e45756" stroke-width="2"/></g></g><path class="foreground" aria-hidden="true" d="" display="none"/></g></g><g class="mark-group role-legend" role="graphics-symbol" aria-roledescription="legend" aria-label="Symbol legend titled '戦略' for fill color and stroke color with 7 values: オルカン 100% (基準), オルカン 50% (売却順: 1.株, 2.無リスク), オルカン 50% (売却順: 1.無リスク, 2.株), オルカン 70% (売却順: 1.株, 2.無リスク), オルカン 70% (売却順: 1.無リスク, 2.株), オルカン 80% (売却順: 1.株, 2.無リスク), オルカン 80% (売却順: 1.無リスク, 2.株)"><g transform="translate(618,0)"><path class="background" aria-hidden="true" d="M0,0h176v125h-176Z" pointer-events="none"/><g><g class="mark-group role-legend-entry"><g transform="translate(0,16)"><path class="background" aria-hidden="true" d="M0,0h0v0h0Z" pointer-events="none"/><g><g class="mark-group role-scope" role="graphics-object" aria-roledescription="group mark container"><g transform="translate(0,0)"><path class="background" aria-hidden="true" d="M0,0h176v12.5h-176Z" pointer-events="none" opacity="1"/><g><g class="mark-symbol role-legend-symbol" pointer-events="none"><path transform="translate(6,6)" d="M5,0A5,5,0,1,1,-5,0A5,5,0,1,1,5,0" fill="#4c78a8" stroke="#4c78a8" stroke-width="1.5" opacity="1"/></g><g class="mark-text role-legend-label" pointer-events="none"><text text-anchor="start" transform="translate(16,9)" font-family="sans-serif" font-size="10px" fill="#000" opacity="1">オルカン 100% (基準)</text></g></g><path class="foreground" aria-hidden="true" d="" pointer-events="none" display="none"/></g><g transform="translate(0,16)"><path class="background" aria-hidden="true" d="M0,0h176v12.5h-176Z" pointer-events="none" opacity="1"/><g><g class="mark-symbol role-legend-symbol" pointer-events="none"><path transform="translate(6,6)" d="M5,0A5,5,0,1,1,-5,0A5,5,0,1,1,5,0" fill="#f58518" stroke="#f58518" stroke-width="1.5" opacity="1"/></g><g class="mark-text role-legend-label" pointer-events="none"><text text-anchor="start" transform="translate(16,9)" font-family="sans-serif" font-size="10px" fill="#000" opacity="1">オルカン 50% (売却順: 1.株, 2.無…</text></g></g><path class="foreground" aria-hidden="true" d="" pointer-events="none" display="none"/></g><g transform="translate(0,32)"><path class="background" aria-hidden="true" d="M0,0h176v12.5h-176Z" pointer-events="none" opacity="1"/><g><g class="mark-symbol role-legend-symbol" pointer-events="none"><path transform="translate(6,6)" d="M5,0A5,5,0,1,1,-5,0A5,5,0,1,1,5,0" fill="#e45756" stroke="#e45756" stroke-width="1.5" opacity="1"/></g><g class="mark-text role-legend-label" pointer-events="none"><text text-anchor="start" transform="translate(16,9)" font-family="sans-serif" font-size="10px" fill="#000" opacity="1">オルカン 50% (売却順: 1.無リス…</text></g></g><path class="foreground" aria-hidden="true" d="" pointer-events="none" display="none"/></g><g transform="translate(0,48)"><path class="background" aria-hidden="true" d="M0,0h176v12.5h-176Z" pointer-events="none" opacity="1"/><g><g class="mark-symbol role-legend-symbol" pointer-events="none"><path transform="translate(6,6)" d="M5,0A5,5,0,1,1,-5,0A5,5,0,1,1,5,0" fill="#72b7b2" stroke="#72b7b2" stroke-width="1.5" opacity="1"/></g><g class="mark-text role-legend-label" pointer-events="none"><text text-anchor="start" transform="translate(16,9)" font-family="sans-serif" font-size="10px" fill="#000" opacity="1">オルカン 70% (売却順: 1.株, 2.無…</text></g></g><path class="foreground" aria-hidden="true" d="" pointer-events="none" display="none"/></g><g transform="translate(0,64)"><path class="background" aria-hidden="true" d="M0,0h176v12.5h-176Z" pointer-events="none" opacity="1"/><g><g class="mark-symbol role-legend-symbol" pointer-events="none"><path transform="translate(6,6)" d="M5,0A5,5,0,1,1,-5,0A5,5,0,1,1,5,0" fill="#54a24b" stroke="#54a24b" stroke-width="1.5" opacity="1"/></g><g class="mark-text role-legend-label" pointer-events="none"><text text-anchor="start" transform="translate(16,9)" font-family="sans-serif" font-size="10px" fill="#000" opacity="1">オルカン 70% (売却順: 1.無リス…</text></g></g><path class="foreground" aria-hidden="true" d="" pointer-events="none" display="none"/></g><g transform="translate(0,80)"><path class="background" aria-hidden="true" d="M0,0h176v12.5h-176Z" pointer-events="none" opacity="1"/><g><g class="mark-symbol role-legend-symbol" pointer-events="none"><path transform="translate(6,6)" d="M5,0A5,5,0,1,1,-5,0A5,5,0,1,1,5,0" fill="#eeca3b" stroke="#eeca3b" stroke-width="1.5" opacity="1"/></g><g class="mark-text role-legend-label" pointer-events="none"><text text-anchor="start" transform="translate(16,9)" font-family="sans-serif" font-size="10px" fill="#000" opacity="1">オルカン 80% (売却順: 1.株, 2.無…</text></g></g><path class="foreground" aria-hidden="true" d="" pointer-events="none" display="none"/></g><g transform="translate(0,96)"><path class="background" aria-hidden="true" d="M0,0h176v12.5h-176Z" pointer-events="none" opacity="1"/><g><g class="mark-symbol role-legend-symbol" pointer-events="none"><path transform="translate(6,6)" d="M5,0A5,5,0,1,1,-5,0A5,5,0,1,1,5,0" fill="#b279a2" stroke="#b279a2" stroke-width="1.5" opacity="1"/></g><g class="mark-text role-legend-label" pointer-events="none"><text text-anchor="start" transform="translate(16,9)" font-family="sans-serif" font-size="10px" fill="#000" opacity="1">オルカン 80% (売却順: 1.無リス…</text></g></g><path class="foreground" aria-hidden="true" d="" pointer-events="none" display="none"/></g></g></g><path class="foreground" aria-hidden="true" d="" pointer-events="none" display="none"/></g></g><g class="mark-text role-legend-title" pointer-events="none"><text text-anchor="start" transform="translate(0,9)" font-family="sans-serif" font-size="11px" font-weight="bold" fill="#000" opacity="1">戦略</text></g></g><path class="foreground" aria-hidden="true" d="" pointer-events="none" display="none"/></g></g><g class="mark-group role-title"><g transform="translate(300,-22)"><path class="background" aria-hidden="true" d="M0,0h0v0h0Z" pointer-events="none"/><g><g class="mark-text role-title-text" role="graphics-symbol" aria-roledescription="title" aria-label="Title text '50年後の資産の分布'" pointer-events="none"><text text-anchor="middle" transform="translate(0,10)" font-family="sans-serif" font-size="13px" font-weight="bold" fill="#000" opacity="1">50年後の資産の分布</text></g></g><path class="foreground" aria-hidden="true" d="" pointer-events="none" display="none"/></g></g></g><path class="foreground" aria-hidden="true" d="" display="none"/></g></g></g><defs><clipPath id="clip1"><rect x="0" y="0" width="600" height="300"/></clipPath><clipPath id="clip2"><rect x="0" y="0" width="600" height="300"/></clipPath><clipPath id="clip3"><rect x="0" y="0" width="600" height="300"/></clipPath><clipPath id="clip4"><rect x="0" y="0" width="600" height="300"/></clipPath><clipPath id="clip5"><rect x="0" y="0" width="600" height="300"/></clipPath><clipPath id="clip6"><rect x="0" y="0" width="600" height="300"/></clipPath><clipPath id="clip7"><rect x="0" y="0" width="600" height="300"/></clipPath><clipPath id="clip8"><rect x="0" y="0" width="600" height="300"/></clipPath><clipPath id="clip9"><rect x="0" y="0" width="600" height="300"/></clipPath><clipPath id="clip10"><rect x="0" y="0" width="600" height="300"/></clipPath><clipPath id="clip11"><rect x="0" y="0" width="600" height="300"/></clipPath><clipPath id="clip12"><rect x="0" y="0" width="600" height="300"/></clipPath><clipPath id="clip13"><rect x="0" y="0" width="600" height="300"/></clipPath><clipPath id="clip14"><rect x="0" y="0" width="600" height="300"/></clipPath></defs></svg>