<svg xmlns="http://www.w3.org/2000/svg" xmlns:xlink="http://www.w3.org/1999/xlink" version="1.1" class="marks" width="651" height="516" viewBox="0 0 651 516"><rect width="651" height="516" fill="white"/><g fill="none" stroke-miterlimit="10" transform="translate(44,79)"><g class="mark-group role-frame root" role="graphics-object" aria-roledescription="group mark container"><g transform="translate(0,0)"><path class="background" aria-hidden="true" d="M0.5,0.5h600v400h-600Z" stroke="#ddd"/><g><g class="mark-group role-axis" aria-hidden="true"><g transform="translate(0.5,400.5)"><path class="background" aria-hidden="true" d="M0,0h0v0h0Z" pointer-events="none"/><g><g class="mark-rule role-axis-grid" pointer-events="none"><line transform="translate(0,-400)" x2="0" y2="400" stroke="#ddd" stroke-width="1" opacity="1"/><line transform="translate(55,-400)" x2="0" y2="400" stroke="#ddd" stroke-width="1" opacity="1"/><line transform="translate(109,-400)" x2="0" y2="400" stroke="#ddd" stroke-width="1" opacity="1"/><line transform="translate(164,-400)" x2="0" y2="400" stroke="#ddd" stroke-width="1" opacity="1"/><line transform="translate(218,-400)" x2="0" y2="400" stroke="#ddd" stroke-width="1" opacity="1"/><line transform="translate(273,-400)" x2="0" y2="400" stroke="#ddd" stroke-width="1" opacity="1"/><line transform="translate(327,-400)" x2="0" y2="400" stroke="#ddd" stroke-width="1" opacity="1"/><line transform="translate(382,-400)" x2="0" y2="400" stroke="#ddd" stroke-width="1" opacity="1"/><line transform="translate(436,-400)" x2="0" y2="400" stroke="#ddd" stroke-width="1" opacity="1"/><line transform="translate(491,-400)" x2="0" y2="400" stroke="#ddd" stroke-width="1" opacity="1"/><line transform="translate(545,-400)" x2="0" y2="400" stroke="#ddd" stroke-width="1" opacity="1"/><line transform="translate(600,-400)" x2="0" y2="400" stroke="#ddd" stroke-width="1" opacity="1"/></g></g><path class="foreground" aria-hidden="true" d="" pointer-events="none" display="none"/></g></g><g class="mark-group role-axis" aria-hidden="true"><g transform="translate(0.5,0.5)"><path class="background" aria-hidden="true" d="M0,0h0v0h0Z" pointer-events="none"/><g><g class="mark-rule role-axis-grid" pointer-events="none"><line transform="translate(0,400)" x2="600" y2="0" stroke="#ddd" stroke-width="1" opacity="1"/><line transform="translate(0,367)" x2="600" y2="0" stroke="#ddd" stroke-width="1" opacity="1"/><line transform="translate(0,333)" x2="600" y2="0" stroke="#ddd" stroke-width="1" opacity="1"/><line transform="translate(0,300)" x2="600" y2="0" stroke="#ddd" stroke-width="1" opacity="1"/><line transform="translate(0,267)" x2="600" y2="0" stroke="#ddd" stroke-width="1" opacity="1"/><line transform="translate(0,233)" x2="600" y2="0" stroke="#ddd" stroke-width="1" opacity="1"/><line transform="translate(0,200)" x2="600" y2="0" stroke="#ddd" stroke-width="1" opacity="1"/><line transform="translate(0,167)" x2="600" y2="0" stroke="#ddd" stroke-width="1" opacity="1"/><line transform="translate(0,133)" x2="600" y2="0" stroke="#ddd" stroke-width="1" opacity="1"/><line transform="translate(0,100)" x2="600" y2="0" stroke="#ddd" stroke-width="1" opacity="1"/><line transform="translate(0,67)" x2="600" y2="0" stroke="#ddd" stroke-width="1" opacity="1"/><line transform="translate(0,33)" x2="600" y2="0" stroke="#ddd" stroke-width="1" opacity="1"/><line transform="translate(0,0)" x2="600" y2="0" stroke="#ddd" stroke-width="1" opacity="1"/></g></g><path class="foreground" aria-hidden="true" d="" pointer-events="none" display="none"/></g></g><g class="mark-group role-axis" role="graphics-symbol" aria-roledescription="axis" aria-label="X-axis titled '年齢' for a linear scale with values from 40 to 95"><g transform="translate(0.5,400.5)"><path class="background" aria-hidden="true" d="M0,0h0v0h0Z" pointer-events="none"/><g><g class="mark-rule role-axis-tick" pointer-events="none"><line transform="translate(0,0)" x2="0" y2="5" stroke="#888" stroke-width="1" opacity="1"/><line transform="translate(55,0)" x2="0" y2="5" stroke="#888" stroke-width="1" opacity="1"/><line transform="translate(109,0)" x2="0" y2="5" stroke="#888" stroke-width="1" opacity="1"/><line transform="translate(164,0)" x2="0" y2="5" stroke="#888" stroke-width="1" opacity="1"/><line transform="translate(218,0)" x2="0" y2="5" stroke="#888" stroke-width="1" opacity="1"/><line transform="translate(273,0)" x2="0" y2="5" stroke="#888" stroke-width="1" opacity="1"/><line transform="translate(327,0)" x2="0" y2="5" stroke="#888" stroke-width="1" opacity="1"/><line transform="translate(382,0)" x2="0" y2="5" stroke="#888" stroke-width="1" opacity="1"/><line transform="translate(436,0)" x2="0" y2="5" stroke="#888" stroke-width="1" opacity="1"/><line transform="translate(491,0)" x2="0" y2="5" stroke="#888" stroke-width="1" opacity="1"/><line transform="translate(545,0)" x2="0" y2="5" stroke="#888" stroke-width="1" opacity="1"/><line transform="translate(600,0)" x2="0" y2="5" stroke="#888" stroke-width="1" opacity="1"/></g><g class="mark-text role-axis-label" pointer-events="none"><text text-anchor="start" transform="translate(0,15)" font-family="sans-serif" font-size="10px" fill="#000" opacity="1">40</text><text text-anchor="middle" transform="translate(54.54545454545455,15)" font-family="sans-serif" font-size="10px" fill="#000" opacity="1">45</text><text text-anchor="middle" transform="translate(109.0909090909091,15)" font-family="sans-serif" font-size="10px" fill="#000" opacity="1">50</text><text text-anchor="middle" transform="translate(163.63636363636363,15)" font-family="sans-serif" font-size="10px" fill="#000" opacity="1">55</text><text text-anchor="middle" transform="translate(218.1818181818182,15)" font-family="sans-serif" font-size="10px" fill="#000" opacity="1">60</text><text text-anchor="middle" transform="translate(272.7272727272727,15)" font-family="sans-serif" font-size="10px" fill="#000" opacity="1">65</text><text text-anchor="middle" transform="translate(327.27272727272725,15)" font-family="sans-serif" font-size="10px" fill="#000" opacity="1">70</text><text text-anchor="middle" transform="translate(381.8181818181818,15)" font-family="sans-serif" font-size="10px" fill="#000" opacity="1">75</text><text text-anchor="middle" transform="translate(436.3636363636364,15)" font-family="sans-serif" font-size="10px" fill="#000" opacity="1">80</text><text text-anchor="middle" transform="translate(490.90909090909093,15)" font-family="sans-serif" font-size="10px" fill="#000" opacity="1">85</text><text text-anchor="middle" transform="translate(545.4545454545454,15)" font-family="sans-serif" font-size="10px" fill="#000" opacity="1">90</text><text text-anchor="end" transform="translate(600,15)" font-family="sans-serif" font-size="10px" fill="#000" opacity="1">95</text></g><g class="mark-rule role-axis-domain" pointer-events="none"><line transform="translate(0,0)" x2="600" y2="0" stroke="#888" stroke-width="1" opacity="1"/></g><g class="mark-text role-axis-title" pointer-events="none"><text text-anchor="middle" transform="translate(300,30)" font-family="sans-serif" font-size="11px" font-weight="bold" fill="#000" opacity="1">年齢</text></g></g><path class="foreground" aria-hidden="true" d="" pointer-events="none" display="none"/></g></g><g class="mark-group role-axis" role="graphics-symbol" aria-roledescription="axis" aria-label="Y-axis titled '年間取り崩し額 (万円)' for a linear scale with values from 0 to 600"><g transform="translate(0.5,0.5)"><path class="background" aria-hidden="true" d="M0,0h0v0h0Z" pointer-events="none"/><g><g class="mark-rule role-axis-tick" pointer-events="none"><line transform="translate(0,400)" x2="-5" y2="0" stroke="#888" stroke-width="1" opacity="1"/><line transform="translate(0,367)" x2="-5" y2="0" stroke="#888" stroke-width="1" opacity="1"/><line transform="translate(0,333)" x2="-5" y2="0" stroke="#888" stroke-width="1" opacity="1"/><line transform="translate(0,300)" x2="-5" y2="0" stroke="#888" stroke-width="1" opacity="1"/><line transform="translate(0,267)" x2="-5" y2="0" stroke="#888" stroke-width="1" opacity="1"/><line transform="translate(0,233)" x2="-5" y2="0" stroke="#888" stroke-width="1" opacity="1"/><line transform="translate(0,200)" x2="-5" y2="0" stroke="#888" stroke-width="1" opacity="1"/><line transform="translate(0,167)" x2="-5" y2="0" stroke="#888" stroke-width="1" opacity="1"/><line transform="translate(0,133)" x2="-5" y2="0" stroke="#888" stroke-width="1" opacity="1"/><line transform="translate(0,100)" x2="-5" y2="0" stroke="#888" stroke-width="1" opacity="1"/><line transform="translate(0,67)" x2="-5" y2="0" stroke="#888" stroke-width="1" opacity="1"/><line transform="translate(0,33)" x2="-5" y2="0" stroke="#888" stroke-width="1" opacity="1"/><line transform="translate(0,0)" x2="-5" y2="0" stroke="#888" stroke-width="1" opacity="1"/></g><g class="mark-text role-axis-label" pointer-events="none"><text text-anchor="end" transform="translate(-7,403)" font-family="sans-serif" font-size="10px" fill="#000" opacity="1">0</text><text text-anchor="end" transform="translate(-7,369.66666666666663)" font-family="sans-serif" font-size="10px" fill="#000" opacity="1">50</text><text text-anchor="end" transform="translate(-7,336.33333333333337)" font-family="sans-serif" font-size="10px" fill="#000" opacity="1">100</text><text text-anchor="end" transform="translate(-7,303)" font-family="sans-serif" font-size="10px" fill="#000" opacity="1">150</text><text text-anchor="end" transform="translate(-7,269.6666666666667)" font-family="sans-serif" font-size="10px" fill="#000" opacity="1">200</text><text text-anchor="end" transform="translate(-7,236.33333333333331)" font-family="sans-serif" font-size="10px" fill="#000" opacity="1">250</text><text text-anchor="end" transform="translate(-7,203)" font-family="sans-serif" font-size="10px" fill="#000" opacity="1">300</text><text text-anchor="end" transform="translate(-7,169.66666666666666)" font-family="sans-serif" font-size="10px" fill="#000" opacity="1">350</text><text text-anchor="end" transform="translate(-7,136.33333333333334)" font-family="sans-serif" font-size="10px" fill="#000" opacity="1">400</text><text text-anchor="end" transform="translate(-7,103)" font-family="sans-serif" font-size="10px" fill="#000" opacity="1">450</text><text text-anchor="end" transform="translate(-7,69.66666666666666)" font-family="sans-serif" font-size="10px" fill="#000" opacity="1">500</text><text text-anchor="end" transform="translate(-7,36.33333333333335)" font-family="sans-serif" font-size="10px" fill="#000" opacity="1">550</text><text text-anchor="end" transform="translate(-7,3)" font-family="sans-serif" font-size="10px" fill="#000" opacity="1">600</text></g><g class="mark-rule role-axis-domain" pointer-events="none"><line transform="translate(0,400)" x2="0" y2="-400" stroke="#888" stroke-width="1" opacity="1"/></g><g class="mark-text role-axis-title" pointer-events="none"><text text-anchor="middle" transform="translate(-27.6845703125,200) rotate(-90) translate(0,-2)" font-family="sans-serif" font-size="11px" font-weight="bold" fill="#000" opacity="1">年間取り崩し額 (万円)</text></g></g><path class="foreground" aria-hidden="true" d="" pointer-events="none" display="none"/></g></g><g class="mark-group role-scope layer_0_pathgroup" role="graphics-object" aria-roledescription="group mark container"><g transform="translate(0,0)"><path class="background" aria-hidden="true" d="M0,0h600v400h-600Z"/><g><g class="mark-area role-mark layer_0_marks" role="graphics-object" aria-roledescription="area mark container"><path aria-label="年齢: 41; 年間取り崩し額 (万円): 478.536350223; spend75p: 485.250710233; 戦略: 定額取り崩し（ベースライン）" role="graphics-symbol" aria-roledescription="area mark" d="M10.909,80.976L21.818,75.146L32.727,68.514L43.636,61.635L54.545,54.647L65.455,48.003L76.364,41.453L87.273,35.016L98.182,28.933L109.091,23.979L120,19.939L130.909,16.875L141.818,15.253L152.727,15.287L163.636,17.076L174.545,20.785L185.455,26.633L196.364,33.145L207.273,40.538L218.182,48.435L229.091,158.549L240,167.059L250.909,175.23L261.818,183.107L272.727,190.82L283.636,198.748L294.545,207.277L305.455,216.191L316.364,225.415L327.273,235.512L338.182,245.602L349.091,256.065L360,265.389L370.909,273.977L381.818,281.355L392.727,287.502L403.636,292.635L414.545,297.383L425.455,301.424L436.364,305.128L447.273,308.835L458.182,312.405L469.091,315.178L480,318.482L490.909,321.121L501.818,324.634L512.727,328.816L523.636,333.993L534.545,338.69L545.455,344.002L556.364,350.229L567.273,355.274L578.182,360.48L589.091,366.273L600,371.43L600,318.802L589.091,314.427L578.182,310.17L567.273,306.089L556.364,301.948L545.455,297.928L534.545,294.524L523.636,290.732L512.727,287.638L501.818,284.306L490.909,282.217L480,280.057L469.091,277.964L458.182,275.698L447.273,273.459L436.364,271.479L425.455,268.817L414.545,265.92L403.636,262.127L392.727,257.342L381.818,252.088L370.909,245.518L360,237.698L349.091,229.064L338.182,220.087L327.273,210.845L316.364,201.51L305.455,193.382L294.545,185.251L283.636,177.815L272.727,170.134L261.818,162.698L250.909,155.664L240,148.115L229.091,140.37L218.182,39.711L207.273,31.741L196.364,23.991L185.455,17.073L174.545,11.395L163.636,7.67L152.727,5.8L141.818,5.915L130.909,7.376L120,10.495L109.091,14.835L98.182,20.585L87.273,26.573L76.364,33.105L65.455,40.15L54.545,47.344L43.636,54.44L32.727,61.689L21.818,69.256L10.909,76.5Z" fill="green" opacity="0.3"/></g></g><path class="foreground" aria-hidden="true" d="" display="none"/></g><g transform="translate(0,0)"><path class="background" aria-hidden="true" d="M0,0h600v400h-600Z"/><g><g class="mark-area role-mark layer_0_marks" role="graphics-object" aria-roledescription="area mark container"><path aria-label="年齢: 41; 年間取り崩し額 (万円): 478.203906665; spend75p: 478.490347629; 戦略: 支出率を目標にする@ダイナミックスペンディング" role="graphics-symbol" aria-roledescription="area mark" d="M10.909,81.197L21.818,85.478L32.727,82.977L43.636,87.273L54.545,91.504L65.455,91.578L76.364,93.395L87.273,97.571L98.182,101.701L109.091,104.12L120,105.346L130.909,107.955L141.818,111.905L152.727,115.808L163.636,118.328L174.545,119.692L185.455,121.493L196.364,124.868L207.273,126.096L218.182,127.183L229.091,224.217L240,227.93L250.909,231.999L261.818,235.832L272.727,239.748L283.636,243.672L294.545,247.796L305.455,251.743L316.364,255.979L327.273,259.877L338.182,263.504L349.091,267.752L360,271.339L370.909,275.14L381.818,279.329L392.727,283.466L403.636,287.548L414.545,291.598L425.455,295.907L436.364,300.043L447.273,304.499L458.182,308.737L469.091,312.73L480,316.618L490.909,320.878L501.818,325.301L512.727,328.803L523.636,332.804L534.545,337.174L545.455,340.838L556.364,345.225L567.273,349.218L578.182,353.684L589.091,357.236L600,361.112L600,247.137L589.091,247.189L578.182,245.696L567.273,245.553L556.364,243.692L545.455,240.847L534.545,241.066L523.636,240.521L512.727,238.977L501.818,237.304L490.909,234.418L480,231.108L469.091,228.151L458.182,227.507L447.273,224.974L436.364,223.098L425.455,221.135L414.545,219.229L403.636,215.653L392.727,212.775L381.818,210.113L370.909,207.355L360,202.757L349.091,199.639L338.182,195.063L327.273,191.529L316.364,187.562L305.455,183.708L294.545,179.84L283.636,175.628L272.727,171.525L261.818,168.321L250.909,164.438L240,160.974L229.091,157.283L218.182,45.253L207.273,47.146L196.364,47.37L185.455,46.237L174.545,49.135L163.636,48.383L152.727,47.85L141.818,50.912L130.909,52.697L120,49.688L109.091,52.811L98.182,56.06L87.273,59.272L76.364,62.469L65.455,65.638L54.545,68.779L43.636,71.887L32.727,74.977L21.818,78.02L10.909,81.006Z" fill="red" opacity="0.3"/></g></g><path class="foreground" aria-hidden="true" d="" display="none"/></g><g transform="translate(0,0)"><path class="background" aria-hidden="true" d="M0,0h600v400h-600Z"/><g><g class="mark-area role-mark layer_0_marks" role="graphics-object" aria-roledescription="area mark container"><path aria-label="年齢: 41; 年間取り崩し額 (万円): 473.626015742; spend75p: 473.912456705; 戦略: 生存確率を目標にする@ダイナミックスペンディング" role="graphics-symbol" aria-roledescription="area mark" d="M10.909,84.249L21.818,87.469L32.727,91.016L43.636,95.908L54.545,100.664L65.455,104.989L76.364,109.593L87.273,114.358L98.182,118.241L109.091,122.14L120,127.139L130.909,129.554L141.818,134.045L152.727,138.751L163.636,144.113L174.545,150.42L185.455,153.708L196.364,160.769L207.273,166.395L218.182,170.629L229.091,269.222L240,274.57L250.909,279.84L261.818,285.733L272.727,289.954L283.636,293.097L294.545,298.056L305.455,302.252L316.364,308.259L327.273,314.462L338.182,319.181L349.091,325.557L360,331.561L370.909,337.542L381.818,340.02L392.727,343.252L403.636,347.551L414.545,348.852L425.455,351.277L436.364,354.355L447.273,354.684L458.182,356.436L469.091,357.455L480,359.517L490.909,360.601L501.818,361.858L512.727,363.088L523.636,364.505L534.545,366.259L545.455,369.997L556.364,372.269L567.273,375.136L578.182,379.467L589.091,381.419L600,384.467L600,207.331L589.091,204.829L578.182,201.899L567.273,198.978L556.364,198.197L545.455,196.041L534.545,190.767L523.636,189.124L512.727,188.522L501.818,189.724L490.909,189.861L480,193.933L469.091,191.973L458.182,195.493L447.273,195.691L436.364,197.417L425.455,197.327L414.545,196.212L403.636,196.568L392.727,192.316L381.818,190.161L370.909,187.252L360,180.65L349.091,174.512L338.182,165.219L327.273,156.641L316.364,150.299L305.455,145.53L294.545,140.383L283.636,135.437L272.727,129.885L261.818,127.177L250.909,123.116L240,118.442L229.091,116.425L218.182,6.831L207.273,2.682L196.364,2.854L185.455,4.531L174.545,4.922L163.636,4.264L152.727,5.916L141.818,10.218L130.909,17.399L120,23.906L109.091,29.871L98.182,35.987L87.273,42.352L76.364,48.198L65.455,54.851L54.545,60.492L43.636,66.753L32.727,72.997L21.818,79.256L10.909,84.058Z" fill="blue" opacity="0.3"/></g></g><path class="foreground" aria-hidden="true" d="" display="none"/></g></g><g class="mark-group role-scope layer_1_pathgroup" role="graphics-object" aria-roledescription="group mark container"><g transform="translate(0,0)"><path class="background" aria-hidden="true" d="M0,0h600v400h-600Z"/><g><g class="mark-line role-mark layer_1_marks" role="graphics-object" aria-roledescription="line mark container"><path aria-label="年齢: 41; spend50p: 481.845245909; group_label: 定額取り崩し（ベースライン）" role="graphics-symbol" aria-roledescription="line mark" d="M10.909,78.77L21.818,72.125L32.727,65.133L43.636,57.99L54.545,51.044L65.455,44.115L76.364,37.255L87.273,30.794L98.182,24.848L109.091,19.583L120,15.277L130.909,12.123L141.818,10.362L152.727,10.292L163.636,12.159L174.545,16.158L185.455,21.77L196.364,28.611L207.273,36.3L218.182,44.126L229.091,148.862L240,156.64L250.909,164.545L261.818,171.878L272.727,179.311L283.636,186.62L294.545,194.357L305.455,202.655L316.364,211.646L327.273,220.743L338.182,230.467L349.091,240.395L360,248.949L370.909,256.804L381.818,263.768L392.727,269.618L403.636,274.622L414.545,278.973L425.455,282.424L436.364,285.828L447.273,288.407L458.182,291.248L469.091,293.909L480,296.355L490.909,299.014L501.818,302.09L512.727,305.541L523.636,309.587L534.545,313.619L545.455,317.719L556.364,322.112L567.273,326.34L578.182,330.826L589.091,335.231L600,340.127" stroke="green" stroke-width="2"/></g></g><path class="foreground" aria-hidden="true" d="" display="none"/></g><g transform="translate(0,0)"><path class="background" aria-hidden="true" d="M0,0h600v400h-600Z"/><g><g class="mark-line role-mark layer_1_marks" role="graphics-object" aria-roledescription="line mark container"><path aria-label="年齢: 41; spend50p: 478.345067292; group_label: 支出率を目標にする@ダイナミックスペンディング" role="graphics-symbol" aria-roledescription="line mark" d="M10.909,81.103L21.818,78.203L32.727,75.284L43.636,76.126L54.545,76.411L65.455,73.461L76.364,70.596L87.273,72.537L98.182,72.002L109.091,75.173L120,74.886L130.909,78.349L141.818,82.479L152.727,83.708L163.636,85.556L174.545,88.947L185.455,91.204L196.364,91.527L207.273,95.013L218.182,99.142L229.091,196.546L240,200.983L250.909,205.398L261.818,209.779L272.727,214.109L283.636,218.747L294.545,222.98L305.455,227.255L316.364,231.251L327.273,235.565L338.182,239.269L349.091,243.511L360,247.699L370.909,251.359L381.818,255.86L392.727,259.603L403.636,263.591L414.545,267.762L425.455,272.357L436.364,275.964L447.273,279.262L458.182,283.039L469.091,286.425L480,289.739L490.909,292.791L501.818,296.763L512.727,300.594L523.636,303.886L534.545,307.33L545.455,310.279L556.364,313.075L567.273,316.42L578.182,319.694L589.091,322.939L600,325.469" stroke="red" stroke-width="2"/></g></g><path class="foreground" aria-hidden="true" d="" display="none"/></g><g transform="translate(0,0)"><path class="background" aria-hidden="true" d="M0,0h600v400h-600Z"/><g><g class="mark-line role-mark layer_1_marks" role="graphics-object" aria-roledescription="line mark container"><path aria-label="年齢: 41; spend50p: 473.767176369; group_label: 生存確率を目標にする@ダイナミックスペンディング" role="graphics-symbol" aria-roledescription="line mark" d="M10.909,84.155L21.818,83.286L32.727,82.221L43.636,80.951L54.545,81.268L65.455,80.311L76.364,79.055L87.273,79.173L98.182,78.121L109.091,77.501L120,77.024L130.909,76.782L141.818,76.556L152.727,77.749L163.636,82.131L174.545,86.227L185.455,89.833L196.364,94.623L207.273,100.331L218.182,104.648L229.091,206.978L240,211.258L250.909,214.153L261.818,219.316L272.727,224.035L283.636,229.006L294.545,234.517L305.455,238.982L316.364,243.481L327.273,249.913L338.182,256.349L349.091,264.934L360,270.439L370.909,274.3L381.818,279.241L392.727,283.464L403.636,287.003L414.545,288.075L425.455,288.466L436.364,289.703L447.273,291.139L458.182,294.079L469.091,294.336L480,294.522L490.909,296.536L501.818,298.003L512.727,300.024L523.636,299.072L534.545,300.387L545.455,304.236L556.364,306.395L567.273,307.346L578.182,310.137L589.091,314.384L600,317.244" stroke="blue" stroke-width="2"/></g></g><path class="foreground" aria-hidden="true" d="" display="none"/></g></g><g class="mark-group role-legend" role="graphics-symbol" aria-roledescription="legend" aria-label="Symbol legend titled '戦略' for fill color and stroke color with 3 values: 支出率を目標にする@ダイナミックスペンディング, 生存確率を目標にする@ダイナミックスペンディング, 定額取り崩し（ベースライン）"><g transform="translate(0,-57)"><path class="background" aria-hidden="true" d="M0,0h470v39h-470Z" pointer-events="none"/><g><g class="mark-group role-legend-entry"><g transform="translate(0,16)"><path class="background" aria-hidden="true" d="M0,0h0v0h0Z" pointer-events="none"/><g><g class="mark-group role-scope" role="graphics-object" aria-roledescription="group mark container"><g transform="translate(0,0)"><path class="background" aria-hidden="true" d="M0,0h146v23h-146Z" pointer-events="none" opacity="1"/><g><g class="mark-symbol role-legend-symbol" pointer-events="none"><path transform="translate(6,6)" d="M5,0A5,5,0,1,1,-5,0A5,5,0,1,1,5,0" fill="red" stroke="red" stroke-width="1.5" opacity="0.3"/></g><g class="mark-text role-legend-label" pointer-events="none"><text text-anchor="start" transform="translate(16,9)" font-family="sans-serif" font-size="10px" fill="#000" opacity="1"><tspan>支出率を目標にする</tspan><tspan x="0" dy="12">ダイナミックスペンディング</tspan></text></g></g><path class="foreground" aria-hidden="true" d="" pointer-events="none" display="none"/></g><g transform="translate(157,0)"><path class="background" aria-hidden="true" d="M0,0h146v23h-146Z" pointer-events="none" opacity="1"/><g><g class="mark-symbol role-legend-symbol" pointer-events="none"><path transform="translate(6,6)" d="M5,0A5,5,0,1,1,-5,0A5,5,0,1,1,5,0" fill="blue" stroke="blue" stroke-width="1.5" opacity="0.3"/></g><g class="mark-text role-legend-label" pointer-events="none"><text text-anchor="start" transform="translate(16,9)" font-family="sans-serif" font-size="10px" fill="#000" opacity="1"><tspan>生存確率を目標にする</tspan><tspan x="0" dy="12">ダイナミックスペンディング</tspan></text></g></g><path class="foreground" aria-hidden="true" d="" pointer-events="none" display="none"/></g><g transform="translate(314,5.25)"><path class="background" aria-hidden="true" d="M0,0h156v12.5h-156Z" pointer-events="none" opacity="1"/><g><g class="mark-symbol role-legend-symbol" pointer-events="none"><path transform="translate(6,6)" d="M5,0A5,5,0,1,1,-5,0A5,5,0,1,1,5,0" fill="green" stroke="green" stroke-width="1.5" opacity="0.3"/></g><g class="mark-text role-legend-label" pointer-events="none"><text text-anchor="start" transform="translate(16,9)" font-family="sans-serif" font-size="10px" fill="#000" opacity="1">定額取り崩し（ベースライン）</text></g></g><path class="foreground" aria-hidden="true" d="" pointer-events="none" display="none"/></g></g></g><path class="foreground" aria-hidden="true" d="" pointer-events="none" display="none"/></g></g><g class="mark-text role-legend-title" pointer-events="none"><text text-anchor="start" transform="translate(0,9)" font-family="sans-serif" font-size="11px" font-weight="bold" fill="#000" opacity="1">戦略</text></g></g><path class="foreground" aria-hidden="true" d="" pointer-events="none" display="none"/></g></g><g class="mark-group role-title"><g transform="translate(300,-74)"><path class="background" aria-hidden="true" d="M0,0h0v0h0Z" pointer-events="none"/><g><g class="mark-text role-title-text" role="graphics-symbol" aria-roledescription="title" aria-label="Title text '実質支出額の推移比較 (初期支出率: 4.0%, 共通生存パスのみ)'" pointer-events="none"><text text-anchor="middle" transform="translate(0,10)" font-family="sans-serif" font-size="13px" font-weight="bold" fill="#000" opacity="1">実質支出額の推移比較 (初期支出率: 4.0%, 共通生存パスのみ)</text></g></g><path class="foreground" aria-hidden="true" d="" pointer-events="none" display="none"/></g></g></g><path class="foreground" aria-hidden="true" d="" display="none"/></g></g></g></svg>