<svg xmlns="http://www.w3.org/2000/svg" xmlns:xlink="http://www.w3.org/1999/xlink" version="1.1" class="marks" width="651" height="516" viewBox="0 0 651 516"><rect width="651" height="516" fill="white"/><g fill="none" stroke-miterlimit="10" transform="translate(44,79)"><g class="mark-group role-frame root" role="graphics-object" aria-roledescription="group mark container"><g transform="translate(0,0)"><path class="background" aria-hidden="true" d="M0.5,0.5h600v400h-600Z" stroke="#ddd"/><g><g class="mark-group role-axis" aria-hidden="true"><g transform="translate(0.5,400.5)"><path class="background" aria-hidden="true" d="M0,0h0v0h0Z" pointer-events="none"/><g><g class="mark-rule role-axis-grid" pointer-events="none"><line transform="translate(0,-400)" x2="0" y2="400" stroke="#ddd" stroke-width="1" opacity="1"/><line transform="translate(55,-400)" x2="0" y2="400" stroke="#ddd" stroke-width="1" opacity="1"/><line transform="translate(109,-400)" x2="0" y2="400" stroke="#ddd" stroke-width="1" opacity="1"/><line transform="translate(164,-400)" x2="0" y2="400" stroke="#ddd" stroke-width="1" opacity="1"/><line transform="translate(218,-400)" x2="0" y2="400" stroke="#ddd" stroke-width="1" opacity="1"/><line transform="translate(273,-400)" x2="0" y2="400" stroke="#ddd" stroke-width="1" opacity="1"/><line transform="translate(327,-400)" x2="0" y2="400" stroke="#ddd" stroke-width="1" opacity="1"/><line transform="translate(382,-400)" x2="0" y2="400" stroke="#ddd" stroke-width="1" opacity="1"/><line transform="translate(436,-400)" x2="0" y2="400" stroke="#ddd" stroke-width="1" opacity="1"/><line transform="translate(491,-400)" x2="0" y2="400" stroke="#ddd" stroke-width="1" opacity="1"/><line transform="translate(545,-400)" x2="0" y2="400" stroke="#ddd" stroke-width="1" opacity="1"/><line transform="translate(600,-400)" x2="0" y2="400" stroke="#ddd" stroke-width="1" opacity="1"/></g></g><path class="foreground" aria-hidden="true" d="" pointer-events="none" display="none"/></g></g><g class="mark-group role-axis" aria-hidden="true"><g transform="translate(0.5,0.5)"><path class="background" aria-hidden="true" d="M0,0h0v0h0Z" pointer-events="none"/><g><g class="mark-rule role-axis-grid" pointer-events="none"><line transform="translate(0,400)" x2="600" y2="0" stroke="#ddd" stroke-width="1" opacity="1"/><line transform="translate(0,371)" x2="600" y2="0" stroke="#ddd" stroke-width="1" opacity="1"/><line transform="translate(0,343)" x2="600" y2="0" stroke="#ddd" stroke-width="1" opacity="1"/><line transform="translate(0,314)" x2="600" y2="0" stroke="#ddd" stroke-width="1" opacity="1"/><line transform="translate(0,286)" x2="600" y2="0" stroke="#ddd" stroke-width="1" opacity="1"/><line transform="translate(0,257)" x2="600" y2="0" stroke="#ddd" stroke-width="1" opacity="1"/><line transform="translate(0,229)" x2="600" y2="0" stroke="#ddd" stroke-width="1" opacity="1"/><line transform="translate(0,200)" x2="600" y2="0" stroke="#ddd" stroke-width="1" opacity="1"/><line transform="translate(0,171)" x2="600" y2="0" stroke="#ddd" stroke-width="1" opacity="1"/><line transform="translate(0,143)" x2="600" y2="0" stroke="#ddd" stroke-width="1" opacity="1"/><line transform="translate(0,114)" x2="600" y2="0" stroke="#ddd" stroke-width="1" opacity="1"/><line transform="translate(0,86)" x2="600" y2="0" stroke="#ddd" stroke-width="1" opacity="1"/><line transform="translate(0,57)" x2="600" y2="0" stroke="#ddd" stroke-width="1" opacity="1"/><line transform="translate(0,29)" x2="600" y2="0" stroke="#ddd" stroke-width="1" opacity="1"/><line transform="translate(0,0)" x2="600" y2="0" stroke="#ddd" stroke-width="1" opacity="1"/></g></g><path class="foreground" aria-hidden="true" d="" pointer-events="none" display="none"/></g></g><g class="mark-group role-axis" role="graphics-symbol" aria-roledescription="axis" aria-label="X-axis titled '年齢' for a linear scale with values from 40 to 95"><g transform="translate(0.5,400.5)"><path class="background" aria-hidden="true" d="M0,0h0v0h0Z" pointer-events="none"/><g><g class="mark-rule role-axis-tick" pointer-events="none"><line transform="translate(0,0)" x2="0" y2="5" stroke="#888" stroke-width="1" opacity="1"/><line transform="translate(55,0)" x2="0" y2="5" stroke="#888" stroke-width="1" opacity="1"/><line transform="translate(109,0)" x2="0" y2="5" stroke="#888" stroke-width="1" opacity="1"/><line transform="translate(164,0)" x2="0" y2="5" stroke="#888" stroke-width="1" opacity="1"/><line transform="translate(218,0)" x2="0" y2="5" stroke="#888" stroke-width="1" opacity="1"/><line transform="translate(273,0)" x2="0" y2="5" stroke="#888" stroke-width="1" opacity="1"/><line transform="translate(327,0)" x2="0" y2="5" stroke="#888" stroke-width="1" opacity="1"/><line transform="translate(382,0)" x2="0" y2="5" stroke="#888" stroke-width="1" opacity="1"/><line transform="translate(436,0)" x2="0" y2="5" stroke="#888" stroke-width="1" opacity="1"/><line transform="translate(491,0)" x2="0" y2="5" stroke="#888" stroke-width="1" opacity="1"/><line transform="translate(545,0)" x2="0" y2="5" stroke="#888" stroke-width="1" opacity="1"/><line transform="translate(600,0)" x2="0" y2="5" stroke="#888" stroke-width="1" opacity="1"/></g><g class="mark-text role-axis-label" pointer-events="none"><text text-anchor="start" transform="translate(0,15)" font-family="sans-serif" font-size="10px" fill="#000" opacity="1">40</text><text text-anchor="middle" transform="translate(54.54545454545455,15)" font-family="sans-serif" font-size="10px" fill="#000" opacity="1">45</text><text text-anchor="middle" transform="translate(109.0909090909091,15)" font-family="sans-serif" font-size="10px" fill="#000" opacity="1">50</text><text text-anchor="middle" transform="translate(163.63636363636363,15)" font-family="sans-serif" font-size="10px" fill="#000" opacity="1">55</text><text text-anchor="middle" transform="translate(218.1818181818182,15)" font-family="sans-serif" font-size="10px" fill="#000" opacity="1">60</text><text text-anchor="middle" transform="translate(272.7272727272727,15)" font-family="sans-serif" font-size="10px" fill="#000" opacity="1">65</text><text text-anchor="middle" transform="translate(327.27272727272725,15)" font-family="sans-serif" font-size="10px" fill="#000" opacity="1">70</text><text text-anchor="middle" transform="translate(381.8181818181818,15)" font-family="sans-serif" font-size="10px" fill="#000" opacity="1">75</text><text text-anchor="middle" transform="translate(436.3636363636364,15)" font-family="sans-serif" font-size="10px" fill="#000" opacity="1">80</text><text text-anchor="middle" transform="translate(490.90909090909093,15)" font-family="sans-serif" font-size="10px" fill="#000" opacity="1">85</text><text text-anchor="middle" transform="translate(545.4545454545454,15)" font-family="sans-serif" font-size="10px" fill="#000" opacity="1">90</text><text text-anchor="end" transform="translate(600,15)" font-family="sans-serif" font-size="10px" fill="#000" opacity="1">95</text></g><g class="mark-rule role-axis-domain" pointer-events="none"><line transform="translate(0,0)" x2="600" y2="0" stroke="#888" stroke-width="1" opacity="1"/></g><g class="mark-text role-axis-title" pointer-events="none"><text text-anchor="middle" transform="translate(300,30)" font-family="sans-serif" font-size="11px" font-weight="bold" fill="#000" opacity="1">年齢</text></g></g><path class="foreground" aria-hidden="true" d="" pointer-events="none" display="none"/></g></g><g class="mark-group role-axis" role="graphics-symbol" aria-roledescription="axis" aria-label="Y-axis titled '年間取り崩し額 (万円)' for a linear scale with values from 0 to 700"><g transform="translate(0.5,0.5)"><path class="background" aria-hidden="true" d="M0,0h0v0h0Z" pointer-events="none"/><g><g class="mark-rule role-axis-tick" pointer-events="none"><line transform="translate(0,400)" x2="-5" y2="0" stroke="#888" stroke-width="1" opacity="1"/><line transform="translate(0,371)" x2="-5" y2="0" stroke="#888" stroke-width="1" opacity="1"/><line transform="translate(0,343)" x2="-5" y2="0" stroke="#888" stroke-width="1" opacity="1"/><line transform="translate(0,314)" x2="-5" y2="0" stroke="#888" stroke-width="1" opacity="1"/><line transform="translate(0,286)" x2="-5" y2="0" stroke="#888" stroke-width="1" opacity="1"/><line transform="translate(0,257)" x2="-5" y2="0" stroke="#888" stroke-width="1" opacity="1"/><line transform="translate(0,229)" x2="-5" y2="0" stroke="#888" stroke-width="1" opacity="1"/><line transform="translate(0,200)" x2="-5" y2="0" stroke="#888" stroke-width="1" opacity="1"/><line transform="translate(0,171)" x2="-5" y2="0" stroke="#888" stroke-width="1" opacity="1"/><line transform="translate(0,143)" x2="-5" y2="0" stroke="#888" stroke-width="1" opacity="1"/><line transform="translate(0,114)" x2="-5" y2="0" stroke="#888" stroke-width="1" opacity="1"/><line transform="translate(0,86)" x2="-5" y2="0" stroke="#888" stroke-width="1" opacity="1"/><line transform="translate(0,57)" x2="-5" y2="0" stroke="#888" stroke-width="1" opacity="1"/><line transform="translate(0,29)" x2="-5" y2="0" stroke="#888" stroke-width="1" opacity="1"/><line transform="translate(0,0)" x2="-5" y2="0" stroke="#888" stroke-width="1" opacity="1"/></g><g class="mark-text role-axis-label" pointer-events="none"><text text-anchor="end" transform="translate(-7,403)" font-family="sans-serif" font-size="10px" fill="#000" opacity="1">0</text><text text-anchor="end" transform="translate(-7,374.42857142857144)" font-family="sans-serif" font-size="10px" fill="#000" opacity="1">50</text><text text-anchor="end" transform="translate(-7,345.8571428571429)" font-family="sans-serif" font-size="10px" fill="#000" opacity="1">100</text><text text-anchor="end" transform="translate(-7,317.2857142857143)" font-family="sans-serif" font-size="10px" fill="#000" opacity="1">150</text><text text-anchor="end" transform="translate(-7,288.7142857142857)" font-family="sans-serif" font-size="10px" fill="#000" opacity="1">200</text><text text-anchor="end" transform="translate(-7,260.1428571428571)" font-family="sans-serif" font-size="10px" fill="#000" opacity="1">250</text><text text-anchor="end" transform="translate(-7,231.57142857142856)" font-family="sans-serif" font-size="10px" fill="#000" opacity="1">300</text><text text-anchor="end" transform="translate(-7,203)" font-family="sans-serif" font-size="10px" fill="#000" opacity="1">350</text><text text-anchor="end" transform="translate(-7,174.42857142857144)" font-family="sans-serif" font-size="10px" fill="#000" opacity="1">400</text><text text-anchor="end" transform="translate(-7,145.85714285714283)" font-family="sans-serif" font-size="10px" fill="#000" opacity="1">450</text><text text-anchor="end" transform="translate(-7,117.28571428571428)" font-family="sans-serif" font-size="10px" fill="#000" opacity="1">500</text><text text-anchor="end" transform="translate(-7,88.71428571428572)" font-family="sans-serif" font-size="10px" fill="#000" opacity="1">550</text><text text-anchor="end" transform="translate(-7,60.14285714285716)" font-family="sans-serif" font-size="10px" fill="#000" opacity="1">600</text><text text-anchor="end" transform="translate(-7,31.57142857142856)" font-family="sans-serif" font-size="10px" fill="#000" opacity="1">650</text><text text-anchor="end" transform="translate(-7,3)" font-family="sans-serif" font-size="10px" fill="#000" opacity="1">700</text></g><g class="mark-rule role-axis-domain" pointer-events="none"><line transform="translate(0,400)" x2="0" y2="-400" stroke="#888" stroke-width="1" opacity="1"/></g><g class="mark-text role-axis-title" pointer-events="none"><text text-anchor="middle" transform="translate(-27.6845703125,200) rotate(-90) translate(0,-2)" font-family="sans-serif" font-size="11px" font-weight="bold" fill="#000" opacity="1">年間取り崩し額 (万円)</text></g></g><path class="foreground" aria-hidden="true" d="" pointer-events="none" display="none"/></g></g><g class="mark-group role-scope layer_0_pathgroup" role="graphics-object" aria-roledescription="group mark container"><g transform="translate(0,0)"><path class="background" aria-hidden="true" d="M0,0h600v400h-600Z"/><g><g class="mark-area role-mark layer_0_marks" role="graphics-object" aria-roledescription="area mark container"><path aria-label="年齢: 41; 年間取り崩し額 (万円): 478.536350223; spend75p: 485.250710233; 戦略: 定額取り崩し（ベースライン）" role="graphics-symbol" aria-roledescription="area mark" d="M10.909,126.551L21.818,121.554L32.727,115.869L43.636,109.973L54.545,103.983L65.455,98.289L76.364,92.674L87.273,87.156L98.182,81.942L109.091,77.694L120,74.227L130.909,71.607L141.818,70.228L152.727,70.199L163.636,71.813L174.545,74.954L185.455,79.985L196.364,85.611L207.273,91.829L218.182,98.673L229.091,192.554L240,200.04L250.909,206.974L261.818,213.476L272.727,220.261L283.636,226.614L294.545,234.104L305.455,241.399L316.364,249.398L327.273,257.698L338.182,266.01L349.091,274.342L360,282.106L370.909,289.2L381.818,295.491L392.727,300.765L403.636,305.378L414.545,309.869L425.455,313.391L436.364,316.733L447.273,319.395L458.182,322.126L469.091,324.589L480,327.287L490.909,330.108L501.818,332.67L512.727,336.152L523.636,339.948L534.545,344.128L545.455,347.94L556.364,352.318L567.273,357.177L578.182,361.425L589.091,365.672L600,370.378L600,325.938L589.091,322.127L578.182,318.705L567.273,315.23L556.364,312.245L545.455,308.968L534.545,305.871L523.636,303.124L512.727,300.632L501.818,298.654L490.909,296.668L480,295.275L469.091,293.308L458.182,291.523L447.273,289.625L436.364,287.927L425.455,285.706L414.545,283.317L403.636,280.015L392.727,276.286L381.818,271.545L370.909,266.133L360,259.279L349.091,252.156L338.182,244.596L327.273,236.882L316.364,229.187L305.455,221.922L294.545,215.06L283.636,208.714L272.727,202.252L261.818,196.272L250.909,189.987L240,183.758L229.091,177.113L218.182,91.095L207.273,84.375L196.364,77.666L185.455,71.777L174.545,66.934L163.636,63.691L152.727,62.114L141.818,62.175L130.909,63.44L120,66.091L109.091,69.848L98.182,74.788L87.273,79.92L76.364,85.519L65.455,91.557L54.545,97.724L43.636,103.806L32.727,110.019L21.818,116.505L10.909,122.714Z" fill="green" opacity="0.3"/></g></g><path class="foreground" aria-hidden="true" d="" display="none"/></g><g transform="translate(0,0)"><path class="background" aria-hidden="true" d="M0,0h600v400h-600Z"/><g><g class="mark-area role-mark layer_0_marks" role="graphics-object" aria-roledescription="area mark container"><path aria-label="年齢: 41; 年間取り崩し額 (万円): 478.203906665; spend75p: 478.490347629; 戦略: 支出率を目標にする@ダイナミックスペンディング" role="graphics-symbol" aria-roledescription="area mark" d="M10.909,126.741L21.818,130.319L32.727,128.314L43.636,131.511L54.545,132.251L65.455,133.561L76.364,137.058L87.273,140.639L98.182,143.457L109.091,146.319L120,149.013L130.909,151.037L141.818,153.381L152.727,156.538L163.636,159.915L174.545,163.183L185.455,165.911L196.364,166.796L207.273,168.393L218.182,171.172L229.091,252.994L240,256.851L250.909,260.651L261.818,263.931L272.727,267.145L283.636,270.634L294.545,273.993L305.455,277.659L316.364,280.341L327.273,284.018L338.182,287.017L349.091,289.932L360,293.136L370.909,296.001L381.818,298.865L392.727,301.763L403.636,305.117L414.545,308.019L425.455,311.268L436.364,314.248L447.273,317.283L458.182,320.102L469.091,323.488L480,326.122L490.909,329.066L501.818,331.63L512.727,334.262L523.636,337.766L534.545,340.922L545.455,343.887L556.364,346.875L567.273,349.827L578.182,353.164L589.091,356.11L600,359.036L600,231.074L589.091,228.839L578.182,226.034L567.273,225.121L556.364,224.6L545.455,222.961L534.545,223.036L523.636,222.686L512.727,223.731L501.818,223.265L490.909,221.312L480,221.545L469.091,221.12L458.182,220.787L447.273,218.103L436.364,218.269L425.455,218.26L414.545,216.33L403.636,215.728L392.727,214.915L381.818,214.7L370.909,213.137L360,211.756L349.091,208.762L338.182,206.713L327.273,204.761L316.364,203.371L305.455,200.73L294.545,199.22L283.636,196.987L272.727,194.354L261.818,191.398L250.909,189.36L240,186.727L229.091,184.504L218.182,88.104L207.273,90.515L196.364,90.104L185.455,90.428L174.545,92.138L163.636,94.898L152.727,95.5L141.818,93.908L130.909,96.725L120,99.552L109.091,102.364L98.182,105.15L87.273,107.927L76.364,110.68L65.455,113.39L54.545,116.067L43.636,118.726L32.727,121.372L21.818,124.01L10.909,126.577Z" fill="red" opacity="0.3"/></g></g><path class="foreground" aria-hidden="true" d="" display="none"/></g><g transform="translate(0,0)"><path class="background" aria-hidden="true" d="M0,0h600v400h-600Z"/><g><g class="mark-area role-mark layer_0_marks" role="graphics-object" aria-roledescription="area mark container"><path aria-label="年齢: 41; 年間取り崩し額 (万円): 478.203906665; spend75p: 478.490347629; 戦略: 生存確率を目標にする@ダイナミックスペンディング" role="graphics-symbol" aria-roledescription="area mark" d="M10.909,126.741L21.818,127.133L32.727,128.154L43.636,129.804L54.545,131.142L65.455,131.837L76.364,132.14L87.273,132.672L98.182,133.681L109.091,134.286L120,134.339L130.909,137.081L141.818,137.352L152.727,140.415L163.636,144.601L174.545,150.597L185.455,154.584L196.364,161.798L207.273,168.306L218.182,174.349L229.091,257.834L240,264.489L250.909,271.749L261.818,277.239L272.727,282.506L283.636,287.706L294.545,293.384L305.455,298.09L316.364,303.215L327.273,310.173L338.182,316.118L349.091,321.485L360,328.424L370.909,333.777L381.818,337.879L392.727,340.759L403.636,342.62L414.545,344.43L425.455,348.192L436.364,350.03L447.273,351.564L458.182,353.77L469.091,354.443L480,355.498L490.909,356.063L501.818,357.514L512.727,359.413L523.636,362.042L534.545,364.442L545.455,367.227L556.364,369.742L567.273,373.059L578.182,375.466L589.091,378.931L600,381.635L600,207.384L589.091,204.226L578.182,202.951L567.273,201.101L556.364,199.026L545.455,195.314L534.545,193.115L523.636,190.391L512.727,188.152L501.818,185.502L490.909,186.422L480,190.001L469.091,191.46L458.182,190.299L447.273,190.3L436.364,192.888L425.455,194.696L414.545,194.953L403.636,194.851L392.727,192.496L381.818,188.934L370.909,181.333L360,171.642L349.091,165.972L338.182,160.183L327.273,148.459L316.364,142.201L305.455,135.655L294.545,132.532L283.636,125.157L272.727,118.915L261.818,113.58L250.909,110.335L240,103.186L229.091,98.799L218.182,6.524L207.273,4.385L196.364,3.304L185.455,3.164L174.545,2.179L163.636,4.421L152.727,9.947L141.818,15.489L130.909,24.371L120,32.086L109.091,41.832L98.182,52.516L87.273,61.997L76.364,72.545L65.455,82.261L54.545,91.706L43.636,101.022L32.727,110.51L21.818,119.315L10.909,126.577Z" fill="blue" opacity="0.3"/></g></g><path class="foreground" aria-hidden="true" d="" display="none"/></g></g><g class="mark-group role-scope layer_1_pathgroup" role="graphics-object" aria-roledescription="group mark container"><g transform="translate(0,0)"><path class="background" aria-hidden="true" d="M0,0h600v400h-600Z"/><g><g class="mark-line role-mark layer_1_marks" role="graphics-object" aria-roledescription="line mark container"><path aria-label="年齢: 41; spend50p: 481.845245909; group_label: 定額取り崩し（ベースライン）" role="graphics-symbol" aria-roledescription="line mark" d="M10.909,124.66L21.818,118.965L32.727,112.971L43.636,106.849L54.545,100.894L65.455,94.956L76.364,89.076L87.273,83.538L98.182,78.439L109.091,73.921L120,70.222L130.909,67.53L141.818,66.017L152.727,65.907L163.636,67.539L174.545,71.035L185.455,75.803L196.364,81.658L207.273,88.204L218.182,94.941L229.091,184.336L240,191.183L250.909,197.625L261.818,203.919L272.727,210.047L283.636,216.484L294.545,222.984L305.455,229.96L316.364,237.336L327.273,245.276L338.182,253.634L349.091,261.614L360,269.124L370.909,275.92L381.818,281.291L392.727,286.322L403.636,290.508L414.545,293.941L425.455,296.649L436.364,299.225L447.273,301.831L458.182,303.852L469.091,305.836L480,307.972L490.909,310.319L501.818,313.005L512.727,315.693L523.636,318.983L534.545,321.94L545.455,325.348L556.364,329.036L567.273,332.772L578.182,336.811L589.091,340.488L600,344.711" stroke="green" stroke-width="2"/></g></g><path class="foreground" aria-hidden="true" d="" display="none"/></g><g transform="translate(0,0)"><path class="background" aria-hidden="true" d="M0,0h600v400h-600Z"/><g><g class="mark-line role-mark layer_1_marks" role="graphics-object" aria-roledescription="line mark container"><path aria-label="年齢: 41; spend50p: 478.345067292; group_label: 支出率を目標にする@ダイナミックスペンディング" role="graphics-symbol" aria-roledescription="line mark" d="M10.909,126.66L21.818,124.158L32.727,121.557L43.636,118.966L54.545,116.385L65.455,117.863L76.364,117.57L87.273,120.666L98.182,120.27L109.091,122.525L120,123.031L130.909,124.332L141.818,125.926L152.727,126.87L163.636,129.411L174.545,130.402L185.455,132.062L196.364,133.451L207.273,133.77L218.182,136.018L229.091,222.478L240,226.359L250.909,230.243L261.818,233.944L272.727,237.698L283.636,241.07L294.545,244.478L305.455,247.862L316.364,250.852L327.273,253.961L338.182,256.837L349.091,259.976L360,263.211L370.909,265.286L381.818,268.647L392.727,271.857L403.636,274.574L414.545,276.797L425.455,279.091L436.364,282.121L447.273,284.635L458.182,287.071L469.091,290.467L480,292.512L490.909,294.408L501.818,296.52L512.727,297.725L523.636,300.12L534.545,301.692L545.455,303.174L556.364,304.235L567.273,306.186L578.182,308.487L589.091,310.409L600,312.685" stroke="red" stroke-width="2"/></g></g><path class="foreground" aria-hidden="true" d="" display="none"/></g><g transform="translate(0,0)"><path class="background" aria-hidden="true" d="M0,0h600v400h-600Z"/><g><g class="mark-line role-mark layer_1_marks" role="graphics-object" aria-roledescription="line mark container"><path aria-label="年齢: 41; spend50p: 478.345067292; group_label: 生存確率を目標にする@ダイナミックスペンディング" role="graphics-symbol" aria-roledescription="line mark" d="M10.909,126.66L21.818,123.264L32.727,119.212L43.636,115.233L54.545,111.525L65.455,107.845L76.364,103.722L87.273,99.607L98.182,94.995L109.091,90.003L120,84.998L130.909,82.397L141.818,82.066L152.727,80.163L163.636,82.317L174.545,85.419L185.455,89.73L196.364,94.843L207.273,100.248L218.182,104.971L229.091,192.15L240,197.24L250.909,203.937L261.818,208.547L272.727,213.487L283.636,218.503L294.545,222.947L305.455,229.114L316.364,234.864L327.273,241.923L338.182,250.241L349.091,258.118L360,263.466L370.909,268.059L381.818,272.579L392.727,276.908L403.636,280.758L414.545,282.837L425.455,284.146L436.364,285.588L447.273,288.239L458.182,289.718L469.091,289.588L480,291.807L490.909,291.671L501.818,292.058L512.727,294.316L523.636,295.693L534.545,297.935L545.455,300.234L556.364,302.025L567.273,304.648L578.182,307.561L589.091,311.078L600,316.449" stroke="blue" stroke-width="2"/></g></g><path class="foreground" aria-hidden="true" d="" display="none"/></g></g><g class="mark-group role-legend" role="graphics-symbol" aria-roledescription="legend" aria-label="Symbol legend titled '戦略' for fill color and stroke color with 3 values: 支出率を目標にする@ダイナミックスペンディング, 生存確率を目標にする@ダイナミックスペンディング, 定額取り崩し（ベースライン）"><g transform="translate(0,-57)"><path class="background" aria-hidden="true" d="M0,0h470v39h-470Z" pointer-events="none"/><g><g class="mark-group role-legend-entry"><g transform="translate(0,16)"><path class="background" aria-hidden="true" d="M0,0h0v0h0Z" pointer-events="none"/><g><g class="mark-group role-scope" role="graphics-object" aria-roledescription="group mark container"><g transform="translate(0,0)"><path class="background" aria-hidden="true" d="M0,0h146v23h-146Z" pointer-events="none" opacity="1"/><g><g class="mark-symbol role-legend-symbol" pointer-events="none"><path transform="translate(6,6)" d="M5,0A5,5,0,1,1,-5,0A5,5,0,1,1,5,0" fill="red" stroke="red" stroke-width="1.5" opacity="0.3"/></g><g class="mark-text role-legend-label" pointer-events="none"><text text-anchor="start" transform="translate(16,9)" font-family="sans-serif" font-size="10px" fill="#000" opacity="1"><tspan>支出率を目標にする</tspan><tspan x="0" dy="12">ダイナミックスペンディング</tspan></text></g></g><path class="foreground" aria-hidden="true" d="" pointer-events="none" display="none"/></g><g transform="translate(157,0)"><path class="background" aria-hidden="true" d="M0,0h146v23h-146Z" pointer-events="none" opacity="1"/><g><g class="mark-symbol role-legend-symbol" pointer-events="none"><path transform="translate(6,6)" d="M5,0A5,5,0,1,1,-5,0A5,5,0,1,1,5,0" fill="blue" stroke="blue" stroke-width="1.5" opacity="0.3"/></g><g class="mark-text role-legend-label" pointer-events="none"><text text-anchor="start" transform="translate(16,9)" font-family="sans-serif" font-size="10px" fill="#000" opacity="1"><tspan>生存確率を目標にする</tspan><tspan x="0" dy="12">ダイナミックスペンディング</tspan></text></g></g><path class="foreground" aria-hidden="true" d="" pointer-events="none" display="none"/></g><g transform="translate(314,5.25)"><path class="background" aria-hidden="true" d="M0,0h156v12.5h-156Z" pointer-events="none" opacity="1"/><g><g class="mark-symbol role-legend-symbol" pointer-events="none"><path transform="translate(6,6)" d="M5,0A5,5,0,1,1,-5,0A5,5,0,1,1,5,0" fill="green" stroke="green" stroke-width="1.5" opacity="0.3"/></g><g class="mark-text role-legend-label" pointer-events="none"><text text-anchor="start" transform="translate(16,9)" font-family="sans-serif" font-size="10px" fill="#000" opacity="1">定額取り崩し（ベースライン）</text></g></g><path class="foreground" aria-hidden="true" d="" pointer-events="none" display="none"/></g></g></g><path class="foreground" aria-hidden="true" d="" pointer-events="none" display="none"/></g></g><g class="mark-text role-legend-title" pointer-events="none"><text text-anchor="start" transform="translate(0,9)" font-family="sans-serif" font-size="11px" font-weight="bold" fill="#000" opacity="1">戦略</text></g></g><path class="foreground" aria-hidden="true" d="" pointer-events="none" display="none"/></g></g><g class="mark-group role-title"><g transform="translate(300,-74)"><path class="background" aria-hidden="true" d="M0,0h0v0h0Z" pointer-events="none"/><g><g class="mark-text role-title-text" role="graphics-symbol" aria-roledescription="title" aria-label="Title text '実質支出額の推移比較 (初期支出率: 3.0%, 共通生存パスのみ)'" pointer-events="none"><text text-anchor="middle" transform="translate(0,10)" font-family="sans-serif" font-size="13px" font-weight="bold" fill="#000" opacity="1">実質支出額の推移比較 (初期支出率: 3.0%, 共通生存パスのみ)</text></g></g><path class="foreground" aria-hidden="true" d="" pointer-events="none" display="none"/></g></g></g><path class="foreground" aria-hidden="true" d="" display="none"/></g></g></g></svg>