<svg xmlns="http://www.w3.org/2000/svg" xmlns:xlink="http://www.w3.org/1999/xlink" version="1.1" class="marks" width="651" height="516" viewBox="0 0 651 516"><rect width="651" height="516" fill="white"/><g fill="none" stroke-miterlimit="10" transform="translate(44,79)"><g class="mark-group role-frame root" role="graphics-object" aria-roledescription="group mark container"><g transform="translate(0,0)"><path class="background" aria-hidden="true" d="M0.5,0.5h600v400h-600Z" stroke="#ddd"/><g><g class="mark-group role-axis" aria-hidden="true"><g transform="translate(0.5,400.5)"><path class="background" aria-hidden="true" d="M0,0h0v0h0Z" pointer-events="none"/><g><g class="mark-rule role-axis-grid" pointer-events="none"><line transform="translate(0,-400)" x2="0" y2="400" stroke="#ddd" stroke-width="1" opacity="1"/><line transform="translate(55,-400)" x2="0" y2="400" stroke="#ddd" stroke-width="1" opacity="1"/><line transform="translate(109,-400)" x2="0" y2="400" stroke="#ddd" stroke-width="1" opacity="1"/><line transform="translate(164,-400)" x2="0" y2="400" stroke="#ddd" stroke-width="1" opacity="1"/><line transform="translate(218,-400)" x2="0" y2="400" stroke="#ddd" stroke-width="1" opacity="1"/><line transform="translate(273,-400)" x2="0" y2="400" stroke="#ddd" stroke-width="1" opacity="1"/><line transform="translate(327,-400)" x2="0" y2="400" stroke="#ddd" stroke-width="1" opacity="1"/><line transform="translate(382,-400)" x2="0" y2="400" stroke="#ddd" stroke-width="1" opacity="1"/><line transform="translate(436,-400)" x2="0" y2="400" stroke="#ddd" stroke-width="1" opacity="1"/><line transform="translate(491,-400)" x2="0" y2="400" stroke="#ddd" stroke-width="1" opacity="1"/><line transform="translate(545,-400)" x2="0" y2="400" stroke="#ddd" stroke-width="1" opacity="1"/><line transform="translate(600,-400)" x2="0" y2="400" stroke="#ddd" stroke-width="1" opacity="1"/></g></g><path class="foreground" aria-hidden="true" d="" pointer-events="none" display="none"/></g></g><g class="mark-group role-axis" aria-hidden="true"><g transform="translate(0.5,0.5)"><path class="background" aria-hidden="true" d="M0,0h0v0h0Z" pointer-events="none"/><g><g class="mark-rule role-axis-grid" pointer-events="none"><line transform="translate(0,400)" x2="600" y2="0" stroke="#ddd" stroke-width="1" opacity="1"/><line transform="translate(0,371)" x2="600" y2="0" stroke="#ddd" stroke-width="1" opacity="1"/><line transform="translate(0,343)" x2="600" y2="0" stroke="#ddd" stroke-width="1" opacity="1"/><line transform="translate(0,314)" x2="600" y2="0" stroke="#ddd" stroke-width="1" opacity="1"/><line transform="translate(0,286)" x2="600" y2="0" stroke="#ddd" stroke-width="1" opacity="1"/><line transform="translate(0,257)" x2="600" y2="0" stroke="#ddd" stroke-width="1" opacity="1"/><line transform="translate(0,229)" x2="600" y2="0" stroke="#ddd" stroke-width="1" opacity="1"/><line transform="translate(0,200)" x2="600" y2="0" stroke="#ddd" stroke-width="1" opacity="1"/><line transform="translate(0,171)" x2="600" y2="0" stroke="#ddd" stroke-width="1" opacity="1"/><line transform="translate(0,143)" x2="600" y2="0" stroke="#ddd" stroke-width="1" opacity="1"/><line transform="translate(0,114)" x2="600" y2="0" stroke="#ddd" stroke-width="1" opacity="1"/><line transform="translate(0,86)" x2="600" y2="0" stroke="#ddd" stroke-width="1" opacity="1"/><line transform="translate(0,57)" x2="600" y2="0" stroke="#ddd" stroke-width="1" opacity="1"/><line transform="translate(0,29)" x2="600" y2="0" stroke="#ddd" stroke-width="1" opacity="1"/><line transform="translate(0,0)" x2="600" y2="0" stroke="#ddd" stroke-width="1" opacity="1"/></g></g><path class="foreground" aria-hidden="true" d="" pointer-events="none" display="none"/></g></g><g class="mark-group role-axis" role="graphics-symbol" aria-roledescription="axis" aria-label="X-axis titled '年齢' for a linear scale with values from 40 to 95"><g transform="translate(0.5,400.5)"><path class="background" aria-hidden="true" d="M0,0h0v0h0Z" pointer-events="none"/><g><g class="mark-rule role-axis-tick" pointer-events="none"><line transform="translate(0,0)" x2="0" y2="5" stroke="#888" stroke-width="1" opacity="1"/><line transform="translate(55,0)" x2="0" y2="5" stroke="#888" stroke-width="1" opacity="1"/><line transform="translate(109,0)" x2="0" y2="5" stroke="#888" stroke-width="1" opacity="1"/><line transform="translate(164,0)" x2="0" y2="5" stroke="#888" stroke-width="1" opacity="1"/><line transform="translate(218,0)" x2="0" y2="5" stroke="#888" stroke-width="1" opacity="1"/><line transform="translate(273,0)" x2="0" y2="5" stroke="#888" stroke-width="1" opacity="1"/><line transform="translate(327,0)" x2="0" y2="5" stroke="#888" stroke-width="1" opacity="1"/><line transform="translate(382,0)" x2="0" y2="5" stroke="#888" stroke-width="1" opacity="1"/><line transform="translate(436,0)" x2="0" y2="5" stroke="#888" stroke-width="1" opacity="1"/><line transform="translate(491,0)" x2="0" y2="5" stroke="#888" stroke-width="1" opacity="1"/><line transform="translate(545,0)" x2="0" y2="5" stroke="#888" stroke-width="1" opacity="1"/><line transform="translate(600,0)" x2="0" y2="5" stroke="#888" stroke-width="1" opacity="1"/></g><g class="mark-text role-axis-label" pointer-events="none"><text text-anchor="start" transform="translate(0,15)" font-family="sans-serif" font-size="10px" fill="#000" opacity="1">40</text><text text-anchor="middle" transform="translate(54.54545454545455,15)" font-family="sans-serif" font-size="10px" fill="#000" opacity="1">45</text><text text-anchor="middle" transform="translate(109.0909090909091,15)" font-family="sans-serif" font-size="10px" fill="#000" opacity="1">50</text><text text-anchor="middle" transform="translate(163.63636363636363,15)" font-family="sans-serif" font-size="10px" fill="#000" opacity="1">55</text><text text-anchor="middle" transform="translate(218.1818181818182,15)" font-family="sans-serif" font-size="10px" fill="#000" opacity="1">60</text><text text-anchor="middle" transform="translate(272.7272727272727,15)" font-family="sans-serif" font-size="10px" fill="#000" opacity="1">65</text><text text-anchor="middle" transform="translate(327.27272727272725,15)" font-family="sans-serif" font-size="10px" fill="#000" opacity="1">70</text><text text-anchor="middle" transform="translate(381.8181818181818,15)" font-family="sans-serif" font-size="10px" fill="#000" opacity="1">75</text><text text-anchor="middle" transform="translate(436.3636363636364,15)" font-family="sans-serif" font-size="10px" fill="#000" opacity="1">80</text><text text-anchor="middle" transform="translate(490.90909090909093,15)" font-family="sans-serif" font-size="10px" fill="#000" opacity="1">85</text><text text-anchor="middle" transform="translate(545.4545454545454,15)" font-family="sans-serif" font-size="10px" fill="#000" opacity="1">90</text><text text-anchor="end" transform="translate(600,15)" font-family="sans-serif" font-size="10px" fill="#000" opacity="1">95</text></g><g class="mark-rule role-axis-domain" pointer-events="none"><line transform="translate(0,0)" x2="600" y2="0" stroke="#888" stroke-width="1" opacity="1"/></g><g class="mark-text role-axis-title" pointer-events="none"><text text-anchor="middle" transform="translate(300,30)" font-family="sans-serif" font-size="11px" font-weight="bold" fill="#000" opacity="1">年齢</text></g></g><path class="foreground" aria-hidden="true" d="" pointer-events="none" display="none"/></g></g><g class="mark-group role-axis" role="graphics-symbol" aria-roledescription="axis" aria-label="Y-axis titled '年間取り崩し額 (万円)' for a linear scale with values from −50 to 650"><g transform="translate(0.5,0.5)"><path class="background" aria-hidden="true" d="M0,0h0v0h0Z" pointer-events="none"/><g><g class="mark-rule role-axis-tick" pointer-events="none"><line transform="translate(0,400)" x2="-5" y2="0" stroke="#888" stroke-width="1" opacity="1"/><line transform="translate(0,371)" x2="-5" y2="0" stroke="#888" stroke-width="1" opacity="1"/><line transform="translate(0,343)" x2="-5" y2="0" stroke="#888" stroke-width="1" opacity="1"/><line transform="translate(0,314)" x2="-5" y2="0" stroke="#888" stroke-width="1" opacity="1"/><line transform="translate(0,286)" x2="-5" y2="0" stroke="#888" stroke-width="1" opacity="1"/><line transform="translate(0,257)" x2="-5" y2="0" stroke="#888" stroke-width="1" opacity="1"/><line transform="translate(0,229)" x2="-5" y2="0" stroke="#888" stroke-width="1" opacity="1"/><line transform="translate(0,200)" x2="-5" y2="0" stroke="#888" stroke-width="1" opacity="1"/><line transform="translate(0,171)" x2="-5" y2="0" stroke="#888" stroke-width="1" opacity="1"/><line transform="translate(0,143)" x2="-5" y2="0" stroke="#888" stroke-width="1" opacity="1"/><line transform="translate(0,114)" x2="-5" y2="0" stroke="#888" stroke-width="1" opacity="1"/><line transform="translate(0,86)" x2="-5" y2="0" stroke="#888" stroke-width="1" opacity="1"/><line transform="translate(0,57)" x2="-5" y2="0" stroke="#888" stroke-width="1" opacity="1"/><line transform="translate(0,29)" x2="-5" y2="0" stroke="#888" stroke-width="1" opacity="1"/><line transform="translate(0,0)" x2="-5" y2="0" stroke="#888" stroke-width="1" opacity="1"/></g><g class="mark-text role-axis-label" pointer-events="none"><text text-anchor="end" transform="translate(-7,403)" font-family="sans-serif" font-size="10px" fill="#000" opacity="1">−50</text><text text-anchor="end" transform="translate(-7,374.42857142857144)" font-family="sans-serif" font-size="10px" fill="#000" opacity="1">0</text><text text-anchor="end" transform="translate(-7,345.8571428571429)" font-family="sans-serif" font-size="10px" fill="#000" opacity="1">50</text><text text-anchor="end" transform="translate(-7,317.2857142857143)" font-family="sans-serif" font-size="10px" fill="#000" opacity="1">100</text><text text-anchor="end" transform="translate(-7,288.7142857142857)" font-family="sans-serif" font-size="10px" fill="#000" opacity="1">150</text><text text-anchor="end" transform="translate(-7,260.1428571428571)" font-family="sans-serif" font-size="10px" fill="#000" opacity="1">200</text><text text-anchor="end" transform="translate(-7,231.57142857142856)" font-family="sans-serif" font-size="10px" fill="#000" opacity="1">250</text><text text-anchor="end" transform="translate(-7,203)" font-family="sans-serif" font-size="10px" fill="#000" opacity="1">300</text><text text-anchor="end" transform="translate(-7,174.42857142857144)" font-family="sans-serif" font-size="10px" fill="#000" opacity="1">350</text><text text-anchor="end" transform="translate(-7,145.85714285714283)" font-family="sans-serif" font-size="10px" fill="#000" opacity="1">400</text><text text-anchor="end" transform="translate(-7,117.28571428571428)" font-family="sans-serif" font-size="10px" fill="#000" opacity="1">450</text><text text-anchor="end" transform="translate(-7,88.71428571428572)" font-family="sans-serif" font-size="10px" fill="#000" opacity="1">500</text><text text-anchor="end" transform="translate(-7,60.14285714285716)" font-family="sans-serif" font-size="10px" fill="#000" opacity="1">550</text><text text-anchor="end" transform="translate(-7,31.57142857142856)" font-family="sans-serif" font-size="10px" fill="#000" opacity="1">600</text><text text-anchor="end" transform="translate(-7,3)" font-family="sans-serif" font-size="10px" fill="#000" opacity="1">650</text></g><g class="mark-rule role-axis-domain" pointer-events="none"><line transform="translate(0,400)" x2="0" y2="-400" stroke="#888" stroke-width="1" opacity="1"/></g><g class="mark-text role-axis-title" pointer-events="none"><text text-anchor="middle" transform="translate(-27.962890625,200) rotate(-90) translate(0,-2)" font-family="sans-serif" font-size="11px" font-weight="bold" fill="#000" opacity="1">年間取り崩し額 (万円)</text></g></g><path class="foreground" aria-hidden="true" d="" pointer-events="none" display="none"/></g></g><g class="mark-group role-scope layer_0_pathgroup" role="graphics-object" aria-roledescription="group mark container"><g transform="translate(0,0)"><path class="background" aria-hidden="true" d="M0,0h600v400h-600Z"/><g><g class="mark-area role-mark layer_0_marks" role="graphics-object" aria-roledescription="area mark container"><path aria-label="年齢: 41; 年間取り崩し額 (万円): 479.637149036; spend75p: 486.366954392; 戦略: 定額取り崩し（ベースライン）" role="graphics-symbol" aria-roledescription="area mark" d="M10.909,97.35L21.818,92.356L32.727,86.671L43.636,80.775L54.545,74.785L65.455,69.091L76.364,63.477L87.273,57.96L98.182,52.746L109.091,48.501L120,45.094L130.909,42.415L141.818,41.195L152.727,41.323L163.636,42.725L174.545,45.869L185.455,51.049L196.364,56.632L207.273,62.941L218.182,69.69L229.091,166.783L240,174.172L250.909,181.491L261.818,188.497L272.727,195.077L283.636,202.182L294.545,209.461L305.455,217.456L316.364,225.59L327.273,234.305L338.182,243.319L349.091,251.329L360,259.607L370.909,267.227L381.818,273.105L392.727,278.851L403.636,283.478L414.545,287.254L425.455,290.751L436.364,294.011L447.273,296.625L458.182,299.58L469.091,302.553L480,305.847L490.909,308.023L501.818,311.739L512.727,314.979L523.636,319.485L534.545,323.372L545.455,327.727L556.364,331.448L567.273,335.806L578.182,340.963L589.091,345.79L600,350.993L600,301.243L589.091,297.543L578.182,293.616L567.273,290.597L556.364,287.391L545.455,283.992L534.545,280.984L523.636,278.487L512.727,276.105L501.818,273.909L490.909,271.674L480,269.528L469.091,268.087L458.182,266.068L447.273,264.519L436.364,262.837L425.455,260.987L414.545,258.162L403.636,255.362L392.727,251.329L381.818,246.423L370.909,241.112L360,234.417L349.091,227.169L338.182,219.409L327.273,211.466L316.364,203.445L305.455,196.289L294.545,189.25L283.636,182.372L272.727,176.19L261.818,170.121L250.909,163.882L240,157.346L229.091,150.134L218.182,62.064L207.273,55.281L196.364,48.563L185.455,42.904L174.545,37.818L163.636,34.572L152.727,33.015L141.818,33.026L130.909,34.253L120,37.049L109.091,40.65L98.182,45.577L87.273,50.705L76.364,56.307L65.455,62.346L54.545,68.512L43.636,74.595L32.727,80.809L21.818,87.295L10.909,93.505Z" fill="green" opacity="0.3"/></g></g><path class="foreground" aria-hidden="true" d="" display="none"/></g><g transform="translate(0,0)"><path class="background" aria-hidden="true" d="M0,0h600v400h-600Z"/><g><g class="mark-area role-mark layer_0_marks" role="graphics-object" aria-roledescription="area mark container"><path aria-label="年齢: 41; 年間取り崩し額 (万円): 479.304705478; spend75p: 479.606591788; 戦略: 支出率を目標にする@ダイナミックスペンディング" role="graphics-symbol" aria-roledescription="area mark" d="M10.909,97.54L21.818,95.411L32.727,93.391L43.636,88.546L54.545,83.878L65.455,82.317L76.364,80.959L87.273,79.992L98.182,79.513L109.091,79.685L120,80.616L130.909,82.451L141.818,85.147L152.727,85.602L163.636,88.601L174.545,95.209L185.455,100.959L196.364,105.778L207.273,114.48L218.182,122.914L229.091,212.575L240,220.658L250.909,228.145L261.818,235.897L272.727,243.322L283.636,249.844L294.545,257.276L305.455,264.541L316.364,271.389L327.273,279.381L338.182,287.433L349.091,295.273L360,302.233L370.909,308.608L381.818,315.075L392.727,319.966L403.636,324.994L414.545,329.137L425.455,332.535L436.364,336.677L447.273,340.054L458.182,342.748L469.091,346.012L480,348.459L490.909,351.544L501.818,354.278L512.727,357.928L523.636,361.53L534.545,364.537L545.455,367.736L556.364,370.794L567.273,374.897L578.182,377.959L589.091,381.605L600,386.18L600,291.85L589.091,289.412L578.182,287.135L567.273,283.593L556.364,280.944L545.455,278.547L534.545,275.356L523.636,272.258L512.727,269.522L501.818,266.33L490.909,264.344L480,262.449L469.091,260.622L458.182,259.432L447.273,258.68L436.364,257.2L425.455,255.341L414.545,253.71L403.636,250.5L392.727,246.21L381.818,241.957L370.909,235.403L360,229.155L349.091,221.854L338.182,212.52L327.273,204.66L316.364,195.856L305.455,186.753L294.545,178.586L283.636,170.619L272.727,164.493L261.818,156.815L250.909,148.541L240,139.6L229.091,130.563L218.182,33.013L207.273,28.789L196.364,24.772L185.455,21.844L174.545,20.037L163.636,19.831L152.727,21.248L141.818,24.131L130.909,24.042L120,27.501L109.091,34.297L98.182,38.86L87.273,42.876L76.364,51.506L65.455,58.915L54.545,62.418L43.636,71.289L32.727,80.1L21.818,88.801L10.909,97.368Z" fill="red" opacity="0.3"/></g></g><path class="foreground" aria-hidden="true" d="" display="none"/></g><g transform="translate(0,0)"><path class="background" aria-hidden="true" d="M0,0h600v400h-600Z"/><g><g class="mark-area role-mark layer_0_marks" role="graphics-object" aria-roledescription="area mark container"><path aria-label="年齢: 41; 年間取り崩し額 (万円): 472.437869094; spend75p: 472.739755403; 戦略: 生存確率を目標にする@ダイナミックスペンディング" role="graphics-symbol" aria-roledescription="area mark" d="M10.909,101.464L21.818,99.58L32.727,97.796L43.636,96.127L54.545,94.585L65.455,93.171L76.364,91.924L87.273,91.004L98.182,90.563L109.091,90.767L120,91.709L130.909,93.544L141.818,96.369L152.727,100.31L163.636,105.451L174.545,111.857L185.455,119.228L196.364,127.188L207.273,135.418L218.182,143.479L229.091,227.681L240,234.364L250.909,239.351L261.818,241.683L272.727,245.02L283.636,247.911L294.545,251.389L305.455,255.135L316.364,258.033L327.273,263.349L338.182,268.69L349.091,274.269L360,279.849L370.909,284.978L381.818,289.021L392.727,292.111L403.636,295.313L414.545,297.357L425.455,298.753L436.364,300.219L447.273,301.156L458.182,301.319L469.091,303.082L480,304.053L490.909,305.143L501.818,305.794L512.727,307.742L523.636,309.266L534.545,311.692L545.455,314.091L556.364,316.16L567.273,318.769L578.182,321.073L589.091,323.845L600,327.507L600,267.832L589.091,265.371L578.182,263.081L567.273,261.261L556.364,260.3L545.455,258.958L534.545,258.045L523.636,256.739L512.727,255.397L501.818,254.92L490.909,254.666L480,254.659L469.091,255.179L458.182,254.752L447.273,254.856L436.364,254.98L425.455,254.156L414.545,253.2L403.636,251.211L392.727,249.041L381.818,246.067L370.909,242.283L360,237.104L349.091,231.822L338.182,225.525L327.273,219.674L316.364,213.576L305.455,208.561L294.545,203.59L283.636,199.031L272.727,195.725L261.818,191.871L250.909,188.032L240,184.156L229.091,179.217L218.182,88.28L207.273,84.075L196.364,80.908L185.455,77.323L174.545,75.784L163.636,73.624L152.727,74.872L141.818,75.728L130.909,77.042L120,79.324L109.091,82.521L98.182,86.271L87.273,88.025L76.364,91.475L65.455,92.832L54.545,94.302L43.636,95.86L32.727,97.544L21.818,99.358L10.909,101.292Z" fill="blue" opacity="0.3"/></g></g><path class="foreground" aria-hidden="true" d="" display="none"/></g></g><g class="mark-group role-scope layer_1_pathgroup" role="graphics-object" aria-roledescription="group mark container"><g transform="translate(0,0)"><path class="background" aria-hidden="true" d="M0,0h600v400h-600Z"/><g><g class="mark-line role-mark layer_1_marks" role="graphics-object" aria-roledescription="line mark container"><path aria-label="年齢: 41; spend50p: 482.953656325; group_label: 定額取り崩し（ベースライン）" role="graphics-symbol" aria-roledescription="line mark" d="M10.909,95.455L21.818,89.76L32.727,83.767L43.636,77.644L54.545,71.69L65.455,65.752L76.364,59.871L87.273,54.337L98.182,49.239L109.091,44.737L120,41.062L130.909,38.349L141.818,36.953L152.727,36.949L163.636,38.458L174.545,42.054L185.455,46.789L196.364,52.621L207.273,59.181L218.182,65.889L229.091,157.8L240,164.847L250.909,171.649L261.818,177.833L272.727,184.314L283.636,190.393L294.545,197.263L305.455,204.398L316.364,212.149L327.273,220.099L338.182,228.738L349.091,236.9L360,244.588L370.909,251.676L381.818,257.685L392.727,262.615L403.636,266.93L414.545,270.54L425.455,273.72L436.364,276.38L447.273,278.654L458.182,280.299L469.091,282.602L480,284.852L490.909,287.031L501.818,289.766L512.727,292.276L523.636,295.981L534.545,298.328L545.455,301.899L556.364,305.092L567.273,308.755L578.182,312.803L589.091,316.817L600,321.09" stroke="green" stroke-width="2"/></g></g><path class="foreground" aria-hidden="true" d="" display="none"/></g><g transform="translate(0,0)"><path class="background" aria-hidden="true" d="M0,0h600v400h-600Z"/><g><g class="mark-line role-mark layer_1_marks" role="graphics-object" aria-roledescription="line mark container"><path aria-label="年齢: 41; spend50p: 479.453477708; group_label: 支出率を目標にする@ダイナミックスペンディング" role="graphics-symbol" aria-roledescription="line mark" d="M10.909,97.455L21.818,89.008L32.727,86.726L43.636,78.441L54.545,76.496L65.455,71.628L76.364,66.791L87.273,65.632L98.182,65.005L109.091,63.803L120,59.379L130.909,61.099L141.818,63.814L152.727,61.528L163.636,66.878L174.545,67.562L185.455,70.381L196.364,77.505L207.273,81.817L218.182,85.253L229.091,176.894L240,184.016L250.909,191.985L261.818,198.206L272.727,204.773L283.636,212.128L294.545,218.84L305.455,225.599L316.364,232.772L327.273,241.55L338.182,249.611L349.091,258.321L360,266.393L370.909,273.263L381.818,280.303L392.727,285.779L403.636,290.861L414.545,294.257L425.455,297.65L436.364,300.958L447.273,303.953L458.182,306.13L469.091,308.47L480,311.462L490.909,314.523L501.818,316.974L512.727,319.62L523.636,322.182L534.545,326.158L545.455,329.596L556.364,332.474L567.273,336.505L578.182,339.94L589.091,343.706L600,347.806" stroke="red" stroke-width="2"/></g></g><path class="foreground" aria-hidden="true" d="" display="none"/></g><g transform="translate(0,0)"><path class="background" aria-hidden="true" d="M0,0h600v400h-600Z"/><g><g class="mark-line role-mark layer_1_marks" role="graphics-object" aria-roledescription="line mark container"><path aria-label="年齢: 41; spend50p: 472.586641323; group_label: 生存確率を目標にする@ダイナミックスペンディング" role="graphics-symbol" aria-roledescription="line mark" d="M10.909,101.379L21.818,99.466L32.727,97.671L43.636,95.993L54.545,94.452L65.455,93.017L76.364,91.757L87.273,90.822L98.182,90.379L109.091,90.54L120,91.471L130.909,93.263L141.818,96.033L152.727,99.714L163.636,101.519L174.545,104.186L185.455,104.707L196.364,108.593L207.273,110.759L218.182,112.795L229.091,202.343L240,206.425L250.909,209.253L261.818,212.486L272.727,216.268L283.636,218.873L294.545,223.092L305.455,228.154L316.364,233.18L327.273,239.113L338.182,244.654L349.091,250.996L360,256.43L370.909,261.351L381.818,265.087L392.727,268.446L403.636,270.319L414.545,272.249L425.455,273.706L436.364,274.365L447.273,274.907L458.182,274.85L469.091,275.343L480,275.67L490.909,276.715L501.818,277.217L512.727,278.286L523.636,279.249L534.545,280.8L545.455,282.382L556.364,283.725L567.273,286.364L578.182,289.295L589.091,291.974L600,293.983" stroke="blue" stroke-width="2"/></g></g><path class="foreground" aria-hidden="true" d="" display="none"/></g></g><g class="mark-group role-legend" role="graphics-symbol" aria-roledescription="legend" aria-label="Symbol legend titled '戦略' for fill color and stroke color with 3 values: 支出率を目標にする@ダイナミックスペンディング, 生存確率を目標にする@ダイナミックスペンディング, 定額取り崩し（ベースライン）"><g transform="translate(0,-57)"><path class="background" aria-hidden="true" d="M0,0h470v39h-470Z" pointer-events="none"/><g><g class="mark-group role-legend-entry"><g transform="translate(0,16)"><path class="background" aria-hidden="true" d="M0,0h0v0h0Z" pointer-events="none"/><g><g class="mark-group role-scope" role="graphics-object" aria-roledescription="group mark container"><g transform="translate(0,0)"><path class="background" aria-hidden="true" d="M0,0h146v23h-146Z" pointer-events="none" opacity="1"/><g><g class="mark-symbol role-legend-symbol" pointer-events="none"><path transform="translate(6,6)" d="M5,0A5,5,0,1,1,-5,0A5,5,0,1,1,5,0" fill="red" stroke="red" stroke-width="1.5" opacity="0.3"/></g><g class="mark-text role-legend-label" pointer-events="none"><text text-anchor="start" transform="translate(16,9)" font-family="sans-serif" font-size="10px" fill="#000" opacity="1"><tspan>支出率を目標にする</tspan><tspan x="0" dy="12">ダイナミックスペンディング</tspan></text></g></g><path class="foreground" aria-hidden="true" d="" pointer-events="none" display="none"/></g><g transform="translate(157,0)"><path class="background" aria-hidden="true" d="M0,0h146v23h-146Z" pointer-events="none" opacity="1"/><g><g class="mark-symbol role-legend-symbol" pointer-events="none"><path transform="translate(6,6)" d="M5,0A5,5,0,1,1,-5,0A5,5,0,1,1,5,0" fill="blue" stroke="blue" stroke-width="1.5" opacity="0.3"/></g><g class="mark-text role-legend-label" pointer-events="none"><text text-anchor="start" transform="translate(16,9)" font-family="sans-serif" font-size="10px" fill="#000" opacity="1"><tspan>生存確率を目標にする</tspan><tspan x="0" dy="12">ダイナミックスペンディング</tspan></text></g></g><path class="foreground" aria-hidden="true" d="" pointer-events="none" display="none"/></g><g transform="translate(314,5.25)"><path class="background" aria-hidden="true" d="M0,0h156v12.5h-156Z" pointer-events="none" opacity="1"/><g><g class="mark-symbol role-legend-symbol" pointer-events="none"><path transform="translate(6,6)" d="M5,0A5,5,0,1,1,-5,0A5,5,0,1,1,5,0" fill="green" stroke="green" stroke-width="1.5" opacity="0.3"/></g><g class="mark-text role-legend-label" pointer-events="none"><text text-anchor="start" transform="translate(16,9)" font-family="sans-serif" font-size="10px" fill="#000" opacity="1">定額取り崩し（ベースライン）</text></g></g><path class="foreground" aria-hidden="true" d="" pointer-events="none" display="none"/></g></g></g><path class="foreground" aria-hidden="true" d="" pointer-events="none" display="none"/></g></g><g class="mark-text role-legend-title" pointer-events="none"><text text-anchor="start" transform="translate(0,9)" font-family="sans-serif" font-size="11px" font-weight="bold" fill="#000" opacity="1">戦略</text></g></g><path class="foreground" aria-hidden="true" d="" pointer-events="none" display="none"/></g></g><g class="mark-group role-title"><g transform="translate(300,-74)"><path class="background" aria-hidden="true" d="M0,0h0v0h0Z" pointer-events="none"/><g><g class="mark-text role-title-text" role="graphics-symbol" aria-roledescription="title" aria-label="Title text '実質支出額の推移比較 (初期支出率: 5.0%, 共通生存パスのみ)'" pointer-events="none"><text text-anchor="middle" transform="translate(0,10)" font-family="sans-serif" font-size="13px" font-weight="bold" fill="#000" opacity="1">実質支出額の推移比較 (初期支出率: 5.0%, 共通生存パスのみ)</text></g></g><path class="foreground" aria-hidden="true" d="" pointer-events="none" display="none"/></g></g></g><path class="foreground" aria-hidden="true" d="" display="none"/></g></g></g></svg>