<svg xmlns="http://www.w3.org/2000/svg" xmlns:xlink="http://www.w3.org/1999/xlink" version="1.1" class="marks" width="651" height="516" viewBox="0 0 651 516"><rect width="651" height="516" fill="white"/><g fill="none" stroke-miterlimit="10" transform="translate(44,79)"><g class="mark-group role-frame root" role="graphics-object" aria-roledescription="group mark container"><g transform="translate(0,0)"><path class="background" aria-hidden="true" d="M0.5,0.5h600v400h-600Z" stroke="#ddd"/><g><g class="mark-group role-axis" aria-hidden="true"><g transform="translate(0.5,400.5)"><path class="background" aria-hidden="true" d="M0,0h0v0h0Z" pointer-events="none"/><g><g class="mark-rule role-axis-grid" pointer-events="none"><line transform="translate(0,-400)" x2="0" y2="400" stroke="#ddd" stroke-width="1" opacity="1"/><line transform="translate(55,-400)" x2="0" y2="400" stroke="#ddd" stroke-width="1" opacity="1"/><line transform="translate(109,-400)" x2="0" y2="400" stroke="#ddd" stroke-width="1" opacity="1"/><line transform="translate(164,-400)" x2="0" y2="400" stroke="#ddd" stroke-width="1" opacity="1"/><line transform="translate(218,-400)" x2="0" y2="400" stroke="#ddd" stroke-width="1" opacity="1"/><line transform="translate(273,-400)" x2="0" y2="400" stroke="#ddd" stroke-width="1" opacity="1"/><line transform="translate(327,-400)" x2="0" y2="400" stroke="#ddd" stroke-width="1" opacity="1"/><line transform="translate(382,-400)" x2="0" y2="400" stroke="#ddd" stroke-width="1" opacity="1"/><line transform="translate(436,-400)" x2="0" y2="400" stroke="#ddd" stroke-width="1" opacity="1"/><line transform="translate(491,-400)" x2="0" y2="400" stroke="#ddd" stroke-width="1" opacity="1"/><line transform="translate(545,-400)" x2="0" y2="400" stroke="#ddd" stroke-width="1" opacity="1"/><line transform="translate(600,-400)" x2="0" y2="400" stroke="#ddd" stroke-width="1" opacity="1"/></g></g><path class="foreground" aria-hidden="true" d="" pointer-events="none" display="none"/></g></g><g class="mark-group role-axis" aria-hidden="true"><g transform="translate(0.5,0.5)"><path class="background" aria-hidden="true" d="M0,0h0v0h0Z" pointer-events="none"/><g><g class="mark-rule role-axis-grid" pointer-events="none"><line transform="translate(0,400)" x2="600" y2="0" stroke="#ddd" stroke-width="1" opacity="1"/><line transform="translate(0,367)" x2="600" y2="0" stroke="#ddd" stroke-width="1" opacity="1"/><line transform="translate(0,333)" x2="600" y2="0" stroke="#ddd" stroke-width="1" opacity="1"/><line transform="translate(0,300)" x2="600" y2="0" stroke="#ddd" stroke-width="1" opacity="1"/><line transform="translate(0,267)" x2="600" y2="0" stroke="#ddd" stroke-width="1" opacity="1"/><line transform="translate(0,233)" x2="600" y2="0" stroke="#ddd" stroke-width="1" opacity="1"/><line transform="translate(0,200)" x2="600" y2="0" stroke="#ddd" stroke-width="1" opacity="1"/><line transform="translate(0,167)" x2="600" y2="0" stroke="#ddd" stroke-width="1" opacity="1"/><line transform="translate(0,133)" x2="600" y2="0" stroke="#ddd" stroke-width="1" opacity="1"/><line transform="translate(0,100)" x2="600" y2="0" stroke="#ddd" stroke-width="1" opacity="1"/><line transform="translate(0,67)" x2="600" y2="0" stroke="#ddd" stroke-width="1" opacity="1"/><line transform="translate(0,33)" x2="600" y2="0" stroke="#ddd" stroke-width="1" opacity="1"/><line transform="translate(0,0)" x2="600" y2="0" stroke="#ddd" stroke-width="1" opacity="1"/></g></g><path class="foreground" aria-hidden="true" d="" pointer-events="none" display="none"/></g></g><g class="mark-group role-axis" role="graphics-symbol" aria-roledescription="axis" aria-label="X-axis titled '年齢' for a linear scale with values from 40 to 95"><g transform="translate(0.5,400.5)"><path class="background" aria-hidden="true" d="M0,0h0v0h0Z" pointer-events="none"/><g><g class="mark-rule role-axis-tick" pointer-events="none"><line transform="translate(0,0)" x2="0" y2="5" stroke="#888" stroke-width="1" opacity="1"/><line transform="translate(55,0)" x2="0" y2="5" stroke="#888" stroke-width="1" opacity="1"/><line transform="translate(109,0)" x2="0" y2="5" stroke="#888" stroke-width="1" opacity="1"/><line transform="translate(164,0)" x2="0" y2="5" stroke="#888" stroke-width="1" opacity="1"/><line transform="translate(218,0)" x2="0" y2="5" stroke="#888" stroke-width="1" opacity="1"/><line transform="translate(273,0)" x2="0" y2="5" stroke="#888" stroke-width="1" opacity="1"/><line transform="translate(327,0)" x2="0" y2="5" stroke="#888" stroke-width="1" opacity="1"/><line transform="translate(382,0)" x2="0" y2="5" stroke="#888" stroke-width="1" opacity="1"/><line transform="translate(436,0)" x2="0" y2="5" stroke="#888" stroke-width="1" opacity="1"/><line transform="translate(491,0)" x2="0" y2="5" stroke="#888" stroke-width="1" opacity="1"/><line transform="translate(545,0)" x2="0" y2="5" stroke="#888" stroke-width="1" opacity="1"/><line transform="translate(600,0)" x2="0" y2="5" stroke="#888" stroke-width="1" opacity="1"/></g><g class="mark-text role-axis-label" pointer-events="none"><text text-anchor="start" transform="translate(0,15)" font-family="sans-serif" font-size="10px" fill="#000" opacity="1">40</text><text text-anchor="middle" transform="translate(54.54545454545455,15)" font-family="sans-serif" font-size="10px" fill="#000" opacity="1">45</text><text text-anchor="middle" transform="translate(109.0909090909091,15)" font-family="sans-serif" font-size="10px" fill="#000" opacity="1">50</text><text text-anchor="middle" transform="translate(163.63636363636363,15)" font-family="sans-serif" font-size="10px" fill="#000" opacity="1">55</text><text text-anchor="middle" transform="translate(218.1818181818182,15)" font-family="sans-serif" font-size="10px" fill="#000" opacity="1">60</text><text text-anchor="middle" transform="translate(272.7272727272727,15)" font-family="sans-serif" font-size="10px" fill="#000" opacity="1">65</text><text text-anchor="middle" transform="translate(327.27272727272725,15)" font-family="sans-serif" font-size="10px" fill="#000" opacity="1">70</text><text text-anchor="middle" transform="translate(381.8181818181818,15)" font-family="sans-serif" font-size="10px" fill="#000" opacity="1">75</text><text text-anchor="middle" transform="translate(436.3636363636364,15)" font-family="sans-serif" font-size="10px" fill="#000" opacity="1">80</text><text text-anchor="middle" transform="translate(490.90909090909093,15)" font-family="sans-serif" font-size="10px" fill="#000" opacity="1">85</text><text text-anchor="middle" transform="translate(545.4545454545454,15)" font-family="sans-serif" font-size="10px" fill="#000" opacity="1">90</text><text text-anchor="end" transform="translate(600,15)" font-family="sans-serif" font-size="10px" fill="#000" opacity="1">95</text></g><g class="mark-rule role-axis-domain" pointer-events="none"><line transform="translate(0,0)" x2="600" y2="0" stroke="#888" stroke-width="1" opacity="1"/></g><g class="mark-text role-axis-title" pointer-events="none"><text text-anchor="middle" transform="translate(300,30)" font-family="sans-serif" font-size="11px" font-weight="bold" fill="#000" opacity="1">年齢</text></g></g><path class="foreground" aria-hidden="true" d="" pointer-events="none" display="none"/></g></g><g class="mark-group role-axis" role="graphics-symbol" aria-roledescription="axis" aria-label="Y-axis titled '年間取り崩し額 (万円)' for a linear scale with values from −50 to 550"><g transform="translate(0.5,0.5)"><path class="background" aria-hidden="true" d="M0,0h0v0h0Z" pointer-events="none"/><g><g class="mark-rule role-axis-tick" pointer-events="none"><line transform="translate(0,400)" x2="-5" y2="0" stroke="#888" stroke-width="1" opacity="1"/><line transform="translate(0,367)" x2="-5" y2="0" stroke="#888" stroke-width="1" opacity="1"/><line transform="translate(0,333)" x2="-5" y2="0" stroke="#888" stroke-width="1" opacity="1"/><line transform="translate(0,300)" x2="-5" y2="0" stroke="#888" stroke-width="1" opacity="1"/><line transform="translate(0,267)" x2="-5" y2="0" stroke="#888" stroke-width="1" opacity="1"/><line transform="translate(0,233)" x2="-5" y2="0" stroke="#888" stroke-width="1" opacity="1"/><line transform="translate(0,200)" x2="-5" y2="0" stroke="#888" stroke-width="1" opacity="1"/><line transform="translate(0,167)" x2="-5" y2="0" stroke="#888" stroke-width="1" opacity="1"/><line transform="translate(0,133)" x2="-5" y2="0" stroke="#888" stroke-width="1" opacity="1"/><line transform="translate(0,100)" x2="-5" y2="0" stroke="#888" stroke-width="1" opacity="1"/><line transform="translate(0,67)" x2="-5" y2="0" stroke="#888" stroke-width="1" opacity="1"/><line transform="translate(0,33)" x2="-5" y2="0" stroke="#888" stroke-width="1" opacity="1"/><line transform="translate(0,0)" x2="-5" y2="0" stroke="#888" stroke-width="1" opacity="1"/></g><g class="mark-text role-axis-label" pointer-events="none"><text text-anchor="end" transform="translate(-7,403)" font-family="sans-serif" font-size="10px" fill="#000" opacity="1">−50</text><text text-anchor="end" transform="translate(-7,369.66666666666663)" font-family="sans-serif" font-size="10px" fill="#000" opacity="1">0</text><text text-anchor="end" transform="translate(-7,336.33333333333337)" font-family="sans-serif" font-size="10px" fill="#000" opacity="1">50</text><text text-anchor="end" transform="translate(-7,303)" font-family="sans-serif" font-size="10px" fill="#000" opacity="1">100</text><text text-anchor="end" transform="translate(-7,269.6666666666667)" font-family="sans-serif" font-size="10px" fill="#000" opacity="1">150</text><text text-anchor="end" transform="translate(-7,236.33333333333331)" font-family="sans-serif" font-size="10px" fill="#000" opacity="1">200</text><text text-anchor="end" transform="translate(-7,203)" font-family="sans-serif" font-size="10px" fill="#000" opacity="1">250</text><text text-anchor="end" transform="translate(-7,169.66666666666666)" font-family="sans-serif" font-size="10px" fill="#000" opacity="1">300</text><text text-anchor="end" transform="translate(-7,136.33333333333334)" font-family="sans-serif" font-size="10px" fill="#000" opacity="1">350</text><text text-anchor="end" transform="translate(-7,103)" font-family="sans-serif" font-size="10px" fill="#000" opacity="1">400</text><text text-anchor="end" transform="translate(-7,69.66666666666666)" font-family="sans-serif" font-size="10px" fill="#000" opacity="1">450</text><text text-anchor="end" transform="translate(-7,36.33333333333335)" font-family="sans-serif" font-size="10px" fill="#000" opacity="1">500</text><text text-anchor="end" transform="translate(-7,3)" font-family="sans-serif" font-size="10px" fill="#000" opacity="1">550</text></g><g class="mark-rule role-axis-domain" pointer-events="none"><line transform="translate(0,400)" x2="0" y2="-400" stroke="#888" stroke-width="1" opacity="1"/></g><g class="mark-text role-axis-title" pointer-events="none"><text text-anchor="middle" transform="translate(-27.962890625,200) rotate(-90) translate(0,-2)" font-family="sans-serif" font-size="11px" font-weight="bold" fill="#000" opacity="1">年間取り崩し額 (万円)</text></g></g><path class="foreground" aria-hidden="true" d="" pointer-events="none" display="none"/></g></g><g class="mark-group role-scope layer_0_pathgroup" role="graphics-object" aria-roledescription="group mark container"><g transform="translate(0,0)"><path class="background" aria-hidden="true" d="M0,0h600v400h-600Z"/><g><g class="mark-area role-mark layer_0_marks" role="graphics-object" aria-roledescription="area mark container"><path aria-label="年齢: 41; 年間取り崩し額 (万円): 498.603906665; spend75p: 498.890347629; 戦略: 支出率を目標にする@ダイナミックスペンディング" role="graphics-symbol" aria-roledescription="area mark" d="M10.909,34.264L21.818,39L32.727,43.635L43.636,48.208L54.545,52.734L65.455,57.18L76.364,61.567L87.273,65.884L98.182,70.12L109.091,74.233L120,78.013L130.909,78.517L141.818,80.619L152.727,84.472L163.636,88.401L174.545,92.207L185.455,94.392L196.364,95.528L207.273,97.791L218.182,101.245L229.091,196.515L240,196.84L250.909,197.732L261.818,196.867L272.727,197.576L283.636,198.464L294.545,199.388L305.455,201.549L316.364,202.976L327.273,205.848L338.182,208.217L349.091,208.149L360,211.102L370.909,213.461L381.818,216.79L392.727,219.948L403.636,222.577L414.545,226.361L425.455,230.062L436.364,233.312L447.273,236.976L458.182,239.867L469.091,243.206L480,246.454L490.909,249.807L501.818,252.354L512.727,255.429L523.636,258.127L534.545,261.679L545.455,265.415L556.364,267.958L567.273,270.172L578.182,274.69L589.091,276.651L600,280.653L600,137.224L589.091,132.019L578.182,134.378L567.273,133.271L556.364,133.158L545.455,131.259L534.545,131.5L523.636,128.979L512.727,127.738L501.818,127.889L490.909,124.112L480,123.148L469.091,121.533L458.182,121.898L447.273,122.104L436.364,122.154L425.455,122.038L414.545,119.751L403.636,119.619L392.727,118.41L381.818,117.039L370.909,116.09L360,116.234L349.091,116.405L338.182,117.73L327.273,116.387L316.364,116.936L305.455,114.897L294.545,113.517L283.636,113.757L272.727,113.973L261.818,113.847L250.909,115.51L240,116.32L229.091,118.018L218.182,16.271L207.273,16.57L196.364,16.788L185.455,14.878L174.545,17.806L163.636,14.737L152.727,16.47L141.818,18.31L130.909,15.143L120,18.023L109.091,21.094L98.182,22.437L87.273,20.23L76.364,23.198L65.455,26.337L54.545,29.41L43.636,32.414L32.727,28.293L21.818,31.106L10.909,34.073Z" fill="#4c78a8" opacity="0.3"/></g></g><path class="foreground" aria-hidden="true" d="" display="none"/></g><g transform="translate(0,0)"><path class="background" aria-hidden="true" d="M0,0h600v400h-600Z"/><g><g class="mark-area role-mark layer_0_marks" role="graphics-object" aria-roledescription="area mark container"><path aria-label="年齢: 41; 年間取り崩し額 (万円): 471.337070281; spend75p: 471.623511244; 戦略: 生存確率を目標にする@ダイナミックスペンディング" role="graphics-symbol" aria-roledescription="area mark" d="M10.909,52.442L21.818,57.325L32.727,62.766L43.636,69.508L54.545,76.224L65.455,82.28L76.364,88.254L87.273,94.051L98.182,99.575L109.091,106.062L120,111.6L130.909,116.213L141.818,121.461L152.727,127.369L163.636,134.103L174.545,139.151L185.455,144.922L196.364,152.129L207.273,157.628L218.182,161.843L229.091,260.112L240,265.728L250.909,272.399L261.818,277.435L272.727,282.828L283.636,288.786L294.545,294.72L305.455,299.151L316.364,305.208L327.273,311.994L338.182,319.273L349.091,324.356L360,329.41L370.909,336.201L381.818,340.724L392.727,343.416L403.636,347.3L414.545,350.924L425.455,353.933L436.364,356.689L447.273,359.604L458.182,360.868L469.091,362.918L480,365.744L490.909,367.859L501.818,369.572L512.727,371.435L523.636,374.991L534.545,379.104L545.455,382.192L556.364,385.894L567.273,388.738L578.182,391.981L589.091,394.526L600,396.902L600,299.832L589.091,294.463L578.182,288.895L567.273,283.689L556.364,279.132L545.455,274.921L534.545,272.728L523.636,269.565L512.727,264.677L501.818,263.015L490.909,261.013L480,261.672L469.091,259.384L458.182,257.084L447.273,255.687L436.364,251.822L425.455,250.492L414.545,247.115L403.636,243.706L392.727,240.297L381.818,233.576L370.909,227.324L360,221.31L349.091,212.334L338.182,206.994L327.273,197.745L316.364,189.291L305.455,183.568L294.545,177.226L283.636,169.315L272.727,164.425L261.818,156.148L250.909,152.186L240,143.947L229.091,139.947L218.182,25.457L207.273,21.458L196.364,16.641L185.455,13.614L174.545,13.447L163.636,11.937L152.727,10.871L141.818,12.454L130.909,15.522L120,17.095L109.091,20.397L98.182,23.021L87.273,26.299L76.364,30.094L65.455,34.053L54.545,38.08L43.636,41.676L32.727,45.421L21.818,49.277L10.909,52.251Z" fill="#f58518" opacity="0.3"/></g></g><path class="foreground" aria-hidden="true" d="" display="none"/></g></g><g class="mark-group role-scope layer_1_pathgroup" role="graphics-object" aria-roledescription="group mark container"><g transform="translate(0,0)"><path class="background" aria-hidden="true" d="M0,0h600v400h-600Z"/><g><g class="mark-line role-mark layer_1_marks" role="graphics-object" aria-roledescription="line mark container"><path aria-label="年齢: 41; spend50p: 498.745067292; group_label: 支出率を目標にする@ダイナミックスペンディング" role="graphics-symbol" aria-roledescription="line mark" d="M10.909,34.17L21.818,38.782L32.727,36.157L43.636,40.557L54.545,44.871L65.455,42.488L76.364,46.793L87.273,51.035L98.182,48.856L109.091,53.019L120,56.996L130.909,55.815L141.818,58.912L152.727,60.153L163.636,60.493L174.545,62.267L185.455,62.378L196.364,64.364L207.273,63.557L218.182,64.237L229.091,159.057L240,158.873L250.909,160.27L261.818,161.308L272.727,162.942L283.636,164.12L294.545,165.777L305.455,168.279L316.364,170.274L327.273,171.19L338.182,172.144L349.091,174.403L360,176.899L370.909,179.723L381.818,181.204L392.727,183.632L403.636,185.71L414.545,188.232L425.455,190.848L436.364,192.999L447.273,195.634L458.182,198.498L469.091,201.259L480,204.022L490.909,206.463L501.818,209.039L512.727,212.606L523.636,213.761L534.545,216.343L545.455,216.959L556.364,220.526L567.273,223.562L578.182,227.047L589.091,228.363L600,231.112" stroke="#4c78a8" stroke-width="2"/></g></g><path class="foreground" aria-hidden="true" d="" display="none"/></g><g transform="translate(0,0)"><path class="background" aria-hidden="true" d="M0,0h600v400h-600Z"/><g><g class="mark-line role-mark layer_1_marks" role="graphics-object" aria-roledescription="line mark container"><path aria-label="年齢: 41; spend50p: 471.478230907; group_label: 生存確率を目標にする@ダイナミックスペンディング" role="graphics-symbol" aria-roledescription="line mark" d="M10.909,52.348L21.818,53.224L32.727,54.184L43.636,55.19L54.545,57.139L65.455,58.895L76.364,59.969L87.273,62.29L98.182,63.449L109.091,65.049L120,67.262L130.909,70.215L141.818,73.571L152.727,78.018L163.636,82.193L174.545,86.749L185.455,89.466L196.364,95.708L207.273,103.219L218.182,108.605L229.091,212.518L240,219.539L250.909,224.658L261.818,229.337L272.727,232.813L283.636,240.033L294.545,246.452L305.455,251.634L316.364,257.94L327.273,264.96L338.182,271.865L349.091,278.748L360,285.787L370.909,291.043L381.818,297.564L392.727,302.862L403.636,306.495L414.545,310.304L425.455,312.67L436.364,314.222L447.273,317.43L458.182,319.531L469.091,321.725L480,323.325L490.909,324.902L501.818,328.217L512.727,330.858L523.636,333.651L534.545,336.421L545.455,339.147L556.364,341.788L567.273,346.573L578.182,350.227L589.091,354.063L600,359.104" stroke="#f58518" stroke-width="2"/></g></g><path class="foreground" aria-hidden="true" d="" display="none"/></g></g><g class="mark-group role-legend" role="graphics-symbol" aria-roledescription="legend" aria-label="Symbol legend titled '戦略' for fill color and stroke color with 2 values: 支出率を目標にする@ダイナミックスペンディング, 生存確率を目標にする@ダイナミックスペンディング"><g transform="translate(0,-57)"><path class="background" aria-hidden="true" d="M0,0h303v39h-303Z" pointer-events="none"/><g><g class="mark-group role-legend-entry"><g transform="translate(0,16)"><path class="background" aria-hidden="true" d="M0,0h0v0h0Z" pointer-events="none"/><g><g class="mark-group role-scope" role="graphics-object" aria-roledescription="group mark container"><g transform="translate(0,0)"><path class="background" aria-hidden="true" d="M0,0h146v23h-146Z" pointer-events="none" opacity="1"/><g><g class="mark-symbol role-legend-symbol" pointer-events="none"><path transform="translate(6,6)" d="M5,0A5,5,0,1,1,-5,0A5,5,0,1,1,5,0" fill="#4c78a8" stroke="#4c78a8" stroke-width="1.5" opacity="0.3"/></g><g class="mark-text role-legend-label" pointer-events="none"><text text-anchor="start" transform="translate(16,9)" font-family="sans-serif" font-size="10px" fill="#000" opacity="1"><tspan>支出率を目標にする</tspan><tspan x="0" dy="12">ダイナミックスペンディング</tspan></text></g></g><path class="foreground" aria-hidden="true" d="" pointer-events="none" display="none"/></g><g transform="translate(157,0)"><path class="background" aria-hidden="true" d="M0,0h146v23h-146Z" pointer-events="none" opacity="1"/><g><g class="mark-symbol role-legend-symbol" pointer-events="none"><path transform="translate(6,6)" d="M5,0A5,5,0,1,1,-5,0A5,5,0,1,1,5,0" fill="#f58518" stroke="#f58518" stroke-width="1.5" opacity="0.3"/></g><g class="mark-text role-legend-label" pointer-events="none"><text text-anchor="start" transform="translate(16,9)" font-family="sans-serif" font-size="10px" fill="#000" opacity="1"><tspan>生存確率を目標にする</tspan><tspan x="0" dy="12">ダイナミックスペンディング</tspan></text></g></g><path class="foreground" aria-hidden="true" d="" pointer-events="none" display="none"/></g></g></g><path class="foreground" aria-hidden="true" d="" pointer-events="none" display="none"/></g></g><g class="mark-text role-legend-title" pointer-events="none"><text text-anchor="start" transform="translate(0,9)" font-family="sans-serif" font-size="11px" font-weight="bold" fill="#000" opacity="1">戦略</text></g></g><path class="foreground" aria-hidden="true" d="" pointer-events="none" display="none"/></g></g><g class="mark-group role-title"><g transform="translate(300,-74)"><path class="background" aria-hidden="true" d="M0,0h0v0h0Z" pointer-events="none"/><g><g class="mark-text role-title-text" role="graphics-symbol" aria-roledescription="title" aria-label="Title text '実質支出額の推移比較 (初期支出率: 5.0%, 共通生存パスのみ)'" pointer-events="none"><text text-anchor="middle" transform="translate(0,10)" font-family="sans-serif" font-size="13px" font-weight="bold" fill="#000" opacity="1">実質支出額の推移比較 (初期支出率: 5.0%, 共通生存パスのみ)</text></g></g><path class="foreground" aria-hidden="true" d="" pointer-events="none" display="none"/></g></g></g><path class="foreground" aria-hidden="true" d="" display="none"/></g></g></g></svg>