<svg xmlns="http://www.w3.org/2000/svg" xmlns:xlink="http://www.w3.org/1999/xlink" version="1.1" class="marks" width="813" height="464" viewBox="0 0 813 464"><rect width="813" height="464" fill="white"/><g fill="none" stroke-miterlimit="10" transform="translate(44,27)"><g class="mark-group role-frame root" role="graphics-object" aria-roledescription="group mark container"><g transform="translate(0,0)"><path class="background" aria-hidden="true" d="M0.5,0.5h600v400h-600Z" stroke="#ddd"/><g><g class="mark-group role-axis" aria-hidden="true"><g transform="translate(0.5,400.5)"><path class="background" aria-hidden="true" d="M0,0h0v0h0Z" pointer-events="none"/><g><g class="mark-rule role-axis-grid" pointer-events="none"><line transform="translate(0,-400)" x2="0" y2="400" stroke="#ddd" stroke-width="1" opacity="1"/><line transform="translate(55,-400)" x2="0" y2="400" stroke="#ddd" stroke-width="1" opacity="1"/><line transform="translate(109,-400)" x2="0" y2="400" stroke="#ddd" stroke-width="1" opacity="1"/><line transform="translate(164,-400)" x2="0" y2="400" stroke="#ddd" stroke-width="1" opacity="1"/><line transform="translate(218,-400)" x2="0" y2="400" stroke="#ddd" stroke-width="1" opacity="1"/><line transform="translate(273,-400)" x2="0" y2="400" stroke="#ddd" stroke-width="1" opacity="1"/><line transform="translate(327,-400)" x2="0" y2="400" stroke="#ddd" stroke-width="1" opacity="1"/><line transform="translate(382,-400)" x2="0" y2="400" stroke="#ddd" stroke-width="1" opacity="1"/><line transform="translate(436,-400)" x2="0" y2="400" stroke="#ddd" stroke-width="1" opacity="1"/><line transform="translate(491,-400)" x2="0" y2="400" stroke="#ddd" stroke-width="1" opacity="1"/><line transform="translate(545,-400)" x2="0" y2="400" stroke="#ddd" stroke-width="1" opacity="1"/><line transform="translate(600,-400)" x2="0" y2="400" stroke="#ddd" stroke-width="1" opacity="1"/></g></g><path class="foreground" aria-hidden="true" d="" pointer-events="none" display="none"/></g></g><g class="mark-group role-axis" aria-hidden="true"><g transform="translate(0.5,0.5)"><path class="background" aria-hidden="true" d="M0,0h0v0h0Z" pointer-events="none"/><g><g class="mark-rule role-axis-grid" pointer-events="none"><line transform="translate(0,400)" x2="600" y2="0" stroke="#ddd" stroke-width="1" opacity="1"/><line transform="translate(0,360)" x2="600" y2="0" stroke="#ddd" stroke-width="1" opacity="1"/><line transform="translate(0,320)" x2="600" y2="0" stroke="#ddd" stroke-width="1" opacity="1"/><line transform="translate(0,280)" x2="600" y2="0" stroke="#ddd" stroke-width="1" opacity="1"/><line transform="translate(0,240)" x2="600" y2="0" stroke="#ddd" stroke-width="1" opacity="1"/><line transform="translate(0,200)" x2="600" y2="0" stroke="#ddd" stroke-width="1" opacity="1"/><line transform="translate(0,160)" x2="600" y2="0" stroke="#ddd" stroke-width="1" opacity="1"/><line transform="translate(0,120)" x2="600" y2="0" stroke="#ddd" stroke-width="1" opacity="1"/><line transform="translate(0,80)" x2="600" y2="0" stroke="#ddd" stroke-width="1" opacity="1"/><line transform="translate(0,40)" x2="600" y2="0" stroke="#ddd" stroke-width="1" opacity="1"/><line transform="translate(0,0)" x2="600" y2="0" stroke="#ddd" stroke-width="1" opacity="1"/></g></g><path class="foreground" aria-hidden="true" d="" pointer-events="none" display="none"/></g></g><g class="mark-group role-axis" role="graphics-symbol" aria-roledescription="axis" aria-label="X-axis titled '経過年数 (年)' for a linear scale with values from 0 to 55"><g transform="translate(0.5,400.5)"><path class="background" aria-hidden="true" d="M0,0h0v0h0Z" pointer-events="none"/><g><g class="mark-rule role-axis-tick" pointer-events="none"><line transform="translate(0,0)" x2="0" y2="5" stroke="#888" stroke-width="1" opacity="1"/><line transform="translate(55,0)" x2="0" y2="5" stroke="#888" stroke-width="1" opacity="1"/><line transform="translate(109,0)" x2="0" y2="5" stroke="#888" stroke-width="1" opacity="1"/><line transform="translate(164,0)" x2="0" y2="5" stroke="#888" stroke-width="1" opacity="1"/><line transform="translate(218,0)" x2="0" y2="5" stroke="#888" stroke-width="1" opacity="1"/><line transform="translate(273,0)" x2="0" y2="5" stroke="#888" stroke-width="1" opacity="1"/><line transform="translate(327,0)" x2="0" y2="5" stroke="#888" stroke-width="1" opacity="1"/><line transform="translate(382,0)" x2="0" y2="5" stroke="#888" stroke-width="1" opacity="1"/><line transform="translate(436,0)" x2="0" y2="5" stroke="#888" stroke-width="1" opacity="1"/><line transform="translate(491,0)" x2="0" y2="5" stroke="#888" stroke-width="1" opacity="1"/><line transform="translate(545,0)" x2="0" y2="5" stroke="#888" stroke-width="1" opacity="1"/><line transform="translate(600,0)" x2="0" y2="5" stroke="#888" stroke-width="1" opacity="1"/></g><g class="mark-text role-axis-label" pointer-events="none"><text text-anchor="start" transform="translate(0,15)" font-family="sans-serif" font-size="10px" fill="#000" opacity="1">0</text><text text-anchor="middle" transform="translate(54.54545454545455,15)" font-family="sans-serif" font-size="10px" fill="#000" opacity="1">5</text><text text-anchor="middle" transform="translate(109.0909090909091,15)" font-family="sans-serif" font-size="10px" fill="#000" opacity="1">10</text><text text-anchor="middle" transform="translate(163.63636363636363,15)" font-family="sans-serif" font-size="10px" fill="#000" opacity="1">15</text><text text-anchor="middle" transform="translate(218.1818181818182,15)" font-family="sans-serif" font-size="10px" fill="#000" opacity="1">20</text><text text-anchor="middle" transform="translate(272.7272727272727,15)" font-family="sans-serif" font-size="10px" fill="#000" opacity="1">25</text><text text-anchor="middle" transform="translate(327.27272727272725,15)" font-family="sans-serif" font-size="10px" fill="#000" opacity="1">30</text><text text-anchor="middle" transform="translate(381.8181818181818,15)" font-family="sans-serif" font-size="10px" fill="#000" opacity="1">35</text><text text-anchor="middle" transform="translate(436.3636363636364,15)" font-family="sans-serif" font-size="10px" fill="#000" opacity="1">40</text><text text-anchor="middle" transform="translate(490.90909090909093,15)" font-family="sans-serif" font-size="10px" fill="#000" opacity="1">45</text><text text-anchor="middle" transform="translate(545.4545454545454,15)" font-family="sans-serif" font-size="10px" fill="#000" opacity="1">50</text><text text-anchor="end" transform="translate(600,15)" font-family="sans-serif" font-size="10px" fill="#000" opacity="1">55</text></g><g class="mark-rule role-axis-domain" pointer-events="none"><line transform="translate(0,0)" x2="600" y2="0" stroke="#888" stroke-width="1" opacity="1"/></g><g class="mark-text role-axis-title" pointer-events="none"><text text-anchor="middle" transform="translate(300,30)" font-family="sans-serif" font-size="11px" font-weight="bold" fill="#000" opacity="1">経過年数 (年)</text></g></g><path class="foreground" aria-hidden="true" d="" pointer-events="none" display="none"/></g></g><g class="mark-group role-axis" role="graphics-symbol" aria-roledescription="axis" aria-label="Y-axis titled '生存確率 (%)' for a linear scale with values from 50 to 100"><g transform="translate(0.5,0.5)"><path class="background" aria-hidden="true" d="M0,0h0v0h0Z" pointer-events="none"/><g><g class="mark-rule role-axis-tick" pointer-events="none"><line transform="translate(0,400)" x2="-5" y2="0" stroke="#888" stroke-width="1" opacity="1"/><line transform="translate(0,360)" x2="-5" y2="0" stroke="#888" stroke-width="1" opacity="1"/><line transform="translate(0,320)" x2="-5" y2="0" stroke="#888" stroke-width="1" opacity="1"/><line transform="translate(0,280)" x2="-5" y2="0" stroke="#888" stroke-width="1" opacity="1"/><line transform="translate(0,240)" x2="-5" y2="0" stroke="#888" stroke-width="1" opacity="1"/><line transform="translate(0,200)" x2="-5" y2="0" stroke="#888" stroke-width="1" opacity="1"/><line transform="translate(0,160)" x2="-5" y2="0" stroke="#888" stroke-width="1" opacity="1"/><line transform="translate(0,120)" x2="-5" y2="0" stroke="#888" stroke-width="1" opacity="1"/><line transform="translate(0,80)" x2="-5" y2="0" stroke="#888" stroke-width="1" opacity="1"/><line transform="translate(0,40)" x2="-5" y2="0" stroke="#888" stroke-width="1" opacity="1"/><line transform="translate(0,0)" x2="-5" y2="0" stroke="#888" stroke-width="1" opacity="1"/></g><g class="mark-text role-axis-label" pointer-events="none"><text text-anchor="end" transform="translate(-7,403)" font-family="sans-serif" font-size="10px" fill="#000" opacity="1">50</text><text text-anchor="end" transform="translate(-7,363)" font-family="sans-serif" font-size="10px" fill="#000" opacity="1">55</text><text text-anchor="end" transform="translate(-7,323)" font-family="sans-serif" font-size="10px" fill="#000" opacity="1">60</text><text text-anchor="end" transform="translate(-7,283)" font-family="sans-serif" font-size="10px" fill="#000" opacity="1">65</text><text text-anchor="end" transform="translate(-7,243)" font-family="sans-serif" font-size="10px" fill="#000" opacity="1">70</text><text text-anchor="end" transform="translate(-7,203)" font-family="sans-serif" font-size="10px" fill="#000" opacity="1">75</text><text text-anchor="end" transform="translate(-7,163)" font-family="sans-serif" font-size="10px" fill="#000" opacity="1">80</text><text text-anchor="end" transform="translate(-7,123.00000000000001)" font-family="sans-serif" font-size="10px" fill="#000" opacity="1">85</text><text text-anchor="end" transform="translate(-7,82.99999999999999)" font-family="sans-serif" font-size="10px" fill="#000" opacity="1">90</text><text text-anchor="end" transform="translate(-7,42.99999999999999)" font-family="sans-serif" font-size="10px" fill="#000" opacity="1">95</text><text text-anchor="end" transform="translate(-7,3)" font-family="sans-serif" font-size="10px" fill="#000" opacity="1">100</text></g><g class="mark-rule role-axis-domain" pointer-events="none"><line transform="translate(0,400)" x2="0" y2="-400" stroke="#888" stroke-width="1" opacity="1"/></g><g class="mark-text role-axis-title" pointer-events="none"><text text-anchor="middle" transform="translate(-27.6845703125,200) rotate(-90) translate(0,-2)" font-family="sans-serif" font-size="11px" font-weight="bold" fill="#000" opacity="1">生存確率 (%)</text></g></g><path class="foreground" aria-hidden="true" d="" pointer-events="none" display="none"/></g></g><g class="mark-group role-scope pathgroup" role="graphics-object" aria-roledescription="group mark container"><g transform="translate(0,0)"><path class="background" aria-hidden="true" d="M0,0h600v400h-600Z"/><g><g class="mark-line role-mark marks" clip-path="url(#clip1)" role="graphics-object" aria-roledescription="line mark container"><path aria-label="経過年数 (年): 0; 生存確率 (%): 100; 初期支出ルール: 初期支出 3.0%; 戦略: 支出率を目標にする@ダイナミックスペンディング; year: 0; rule: 3; strategy_jp: 支出率を目標にする@ダイナミックスペンディング; Survival Probability (%): 100.0" role="graphics-symbol" aria-roledescription="line mark" d="M0,0L10.909,0L21.818,0L32.727,0L43.636,0L54.545,0L65.455,0L76.364,0L87.273,0L98.182,0L109.091,0L120,0.8L130.909,0.8L141.818,2.8L152.727,2.8L163.636,3.6L174.545,4.4L185.455,6.8L196.364,8.8L207.273,10.8L218.182,11.2L229.091,12.4L240,14L250.909,15.2L261.818,16.8L272.727,19.2L283.636,20.8L294.545,22L305.455,24L316.364,25.6L327.273,26.4L338.182,26.8L349.091,29.6L360,31.2L370.909,32.8L381.818,35.6L392.727,38L403.636,42.8L414.545,46L425.455,47.2L436.364,50.4L447.273,52.8L458.182,55.6L469.091,56.4L480,58L490.909,61.2L501.818,63.2L512.727,66.4L523.636,69.2L534.545,70.4L545.455,71.2L556.364,72.8L567.273,74L578.182,75.2L589.091,77.2L600,78.4" stroke="#4c78a8" stroke-width="2" stroke-dasharray="4,4"/></g></g><path class="foreground" aria-hidden="true" d="" display="none"/></g><g transform="translate(0,0)"><path class="background" aria-hidden="true" d="M0,0h600v400h-600Z"/><g><g class="mark-line role-mark marks" clip-path="url(#clip2)" role="graphics-object" aria-roledescription="line mark container"><path aria-label="経過年数 (年): 0; 生存確率 (%): 100; 初期支出ルール: 初期支出 3.0%; 戦略: 生存確率を目標にする@ダイナミックスペンディング; year: 0; rule: 3; strategy_jp: 生存確率を目標にする@ダイナミックスペンディング; Survival Probability (%): 100.0" role="graphics-symbol" aria-roledescription="line mark" d="M0,0L10.909,0L21.818,0L32.727,0L43.636,0L54.545,0L65.455,0L76.364,0L87.273,0L98.182,0L109.091,0L120,0L130.909,0.4L141.818,0.8L152.727,1.6L163.636,1.6L174.545,2L185.455,2.4L196.364,4L207.273,4.4L218.182,5.6L229.091,5.6L240,6L250.909,6.4L261.818,6.8L272.727,6.8L283.636,6.8L294.545,6.8L305.455,6.8L316.364,6.8L327.273,6.8L338.182,6.8L349.091,6.8L360,6.8L370.909,6.8L381.818,7.2L392.727,7.2L403.636,7.2L414.545,7.2L425.455,7.2L436.364,7.2L447.273,7.2L458.182,7.2L469.091,7.2L480,7.2L490.909,7.2L501.818,7.2L512.727,7.2L523.636,7.2L534.545,7.2L545.455,7.2L556.364,7.2L567.273,7.2L578.182,7.2L589.091,7.2L600,7.2" stroke="#4c78a8" stroke-width="2" stroke-dasharray="0,0"/></g></g><path class="foreground" aria-hidden="true" d="" display="none"/></g><g transform="translate(0,0)"><path class="background" aria-hidden="true" d="M0,0h600v400h-600Z"/><g><g class="mark-line role-mark marks" clip-path="url(#clip3)" role="graphics-object" aria-roledescription="line mark container"><path aria-label="経過年数 (年): 0; 生存確率 (%): 100; 初期支出ルール: 初期支出 3.5%; 戦略: 支出率を目標にする@ダイナミックスペンディング; year: 0; rule: 3.5; strategy_jp: 支出率を目標にする@ダイナミックスペンディング; Survival Probability (%): 100.0" role="graphics-symbol" aria-roledescription="line mark" d="M0,0L10.909,0L21.818,0L32.727,0L43.636,0L54.545,0L65.455,0L76.364,0L87.273,0L98.182,0L109.091,0.4L120,1.6L130.909,3.2L141.818,5.6L152.727,6.4L163.636,9.2L174.545,13.2L185.455,18L196.364,21.6L207.273,27.2L218.182,31.2L229.091,36.4L240,39.6L250.909,43.6L261.818,47.6L272.727,51.2L283.636,55.2L294.545,59.6L305.455,63.6L316.364,65.2L327.273,68L338.182,71.2L349.091,75.2L360,82L370.909,86.4L381.818,91.2L392.727,94.4L403.636,97.2L414.545,101.6L425.455,104.4L436.364,107.2L447.273,110.4L458.182,113.6L469.091,116.4L480,120.4L490.909,125.6L501.818,127.2L512.727,130L523.636,131.6L534.545,134L545.455,135.6L556.364,139.2L567.273,141.6L578.182,143.2L589.091,144.8L600,149.2" stroke="#f58518" stroke-width="2" stroke-dasharray="4,4"/></g></g><path class="foreground" aria-hidden="true" d="" display="none"/></g><g transform="translate(0,0)"><path class="background" aria-hidden="true" d="M0,0h600v400h-600Z"/><g><g class="mark-line role-mark marks" clip-path="url(#clip4)" role="graphics-object" aria-roledescription="line mark container"><path aria-label="経過年数 (年): 0; 生存確率 (%): 100; 初期支出ルール: 初期支出 3.5%; 戦略: 生存確率を目標にする@ダイナミックスペンディング; year: 0; rule: 3.5; strategy_jp: 生存確率を目標にする@ダイナミックスペンディング; Survival Probability (%): 100.0" role="graphics-symbol" aria-roledescription="line mark" d="M0,0L10.909,0L21.818,0L32.727,0L43.636,0L54.545,0L65.455,0L76.364,0L87.273,0L98.182,0L109.091,0L120,0.4L130.909,1.6L141.818,2.4L152.727,2.8L163.636,4.4L174.545,8L185.455,9.6L196.364,12.4L207.273,14L218.182,16.4L229.091,19.2L240,19.6L250.909,20.4L261.818,20.8L272.727,21.2L283.636,21.6L294.545,22L305.455,22L316.364,22.4L327.273,22.4L338.182,22.4L349.091,22.8L360,23.2L370.909,23.2L381.818,23.2L392.727,23.2L403.636,23.2L414.545,23.2L425.455,23.2L436.364,23.2L447.273,23.2L458.182,23.2L469.091,23.2L480,23.2L490.909,23.2L501.818,23.2L512.727,23.2L523.636,23.2L534.545,23.2L545.455,23.2L556.364,23.2L567.273,23.2L578.182,23.2L589.091,23.2L600,23.2" stroke="#f58518" stroke-width="2" stroke-dasharray="0,0"/></g></g><path class="foreground" aria-hidden="true" d="" display="none"/></g><g transform="translate(0,0)"><path class="background" aria-hidden="true" d="M0,0h600v400h-600Z"/><g><g class="mark-line role-mark marks" clip-path="url(#clip5)" role="graphics-object" aria-roledescription="line mark container"><path aria-label="経過年数 (年): 0; 生存確率 (%): 100; 初期支出ルール: 初期支出 4.0%; 戦略: 支出率を目標にする@ダイナミックスペンディング; year: 0; rule: 4; strategy_jp: 支出率を目標にする@ダイナミックスペンディング; Survival Probability (%): 100.0" role="graphics-symbol" aria-roledescription="line mark" d="M0,0L10.909,0L21.818,0L32.727,0L43.636,0L54.545,0L65.455,0L76.364,0L87.273,0L98.182,0.4L109.091,1.2L120,4L130.909,6.4L141.818,9.6L152.727,14.8L163.636,24L174.545,31.2L185.455,43.2L196.364,55.2L207.273,63.6L218.182,73.2L229.091,82L240,88.8L250.909,97.2L261.818,102.4L272.727,108L283.636,112.4L294.545,118L305.455,122.8L316.364,132L327.273,136L338.182,141.6L349.091,146L360,149.6L370.909,152.4L381.818,155.6L392.727,160.8L403.636,163.6L414.545,167.6L425.455,173.2L436.364,177.2L447.273,180.8L458.182,184L469.091,188L480,192L490.909,194L501.818,198.4L512.727,200.8L523.636,204.8L534.545,210.4L545.455,215.6L556.364,219.6L567.273,222.8L578.182,226L589.091,229.6L600,235.2" stroke="#e45756" stroke-width="2" stroke-dasharray="4,4"/></g></g><path class="foreground" aria-hidden="true" d="" display="none"/></g><g transform="translate(0,0)"><path class="background" aria-hidden="true" d="M0,0h600v400h-600Z"/><g><g class="mark-line role-mark marks" clip-path="url(#clip6)" role="graphics-object" aria-roledescription="line mark container"><path aria-label="経過年数 (年): 0; 生存確率 (%): 100; 初期支出ルール: 初期支出 4.0%; 戦略: 生存確率を目標にする@ダイナミックスペンディング; year: 0; rule: 4; strategy_jp: 生存確率を目標にする@ダイナミックスペンディング; Survival Probability (%): 100.0" role="graphics-symbol" aria-roledescription="line mark" d="M0,0L10.909,0L21.818,0L32.727,0L43.636,0L54.545,0L65.455,0L76.364,0L87.273,0L98.182,0L109.091,0.4L120,1.2L130.909,2.8L141.818,4.4L152.727,8.8L163.636,16.4L174.545,20.8L185.455,27.6L196.364,34.4L207.273,40.8L218.182,45.6L229.091,48.8L240,50.4L250.909,52.8L261.818,54.8L272.727,56.4L283.636,56.8L294.545,56.8L305.455,57.6L316.364,57.6L327.273,58.8L338.182,59.2L349.091,59.2L360,59.6L370.909,59.6L381.818,59.6L392.727,59.6L403.636,59.6L414.545,59.6L425.455,59.6L436.364,59.6L447.273,59.6L458.182,59.6L469.091,59.6L480,59.6L490.909,59.6L501.818,59.6L512.727,59.6L523.636,59.6L534.545,59.6L545.455,59.6L556.364,59.6L567.273,59.6L578.182,59.6L589.091,59.6L600,59.6" stroke="#e45756" stroke-width="2" stroke-dasharray="0,0"/></g></g><path class="foreground" aria-hidden="true" d="" display="none"/></g><g transform="translate(0,0)"><path class="background" aria-hidden="true" d="M0,0h600v400h-600Z"/><g><g class="mark-line role-mark marks" clip-path="url(#clip7)" role="graphics-object" aria-roledescription="line mark container"><path aria-label="経過年数 (年): 0; 生存確率 (%): 100; 初期支出ルール: 初期支出 4.5%; 戦略: 支出率を目標にする@ダイナミックスペンディング; year: 0; rule: 4.5; strategy_jp: 支出率を目標にする@ダイナミックスペンディング; Survival Probability (%): 100.0" role="graphics-symbol" aria-roledescription="line mark" d="M0,0L10.909,0L21.818,0L32.727,0L43.636,0L54.545,0L65.455,0L76.364,0L87.273,0.4L98.182,0.4L109.091,2.8L120,6.8L130.909,10.8L141.818,18.8L152.727,30.4L163.636,42.8L174.545,56.8L185.455,72.4L196.364,88.8L207.273,107.2L218.182,127.2L229.091,135.6L240,144L250.909,154.8L261.818,162.4L272.727,170L283.636,177.2L294.545,184.4L305.455,192.8L316.364,199.6L327.273,205.2L338.182,212.4L349.091,217.2L360,222.4L370.909,224.8L381.818,230L392.727,236.4L403.636,240.8L414.545,246.8L425.455,250.4L436.364,256.4L447.273,258.4L458.182,265.2L469.091,271.2L480,277.2L490.909,282.8L501.818,288L512.727,293.2L523.636,300.8L534.545,304.4L545.455,310L556.364,314.4L567.273,321.2L578.182,326L589.091,328.4L600,333.2" stroke="#72b7b2" stroke-width="2" stroke-dasharray="4,4"/></g></g><path class="foreground" aria-hidden="true" d="" display="none"/></g><g transform="translate(0,0)"><path class="background" aria-hidden="true" d="M0,0h600v400h-600Z"/><g><g class="mark-line role-mark marks" clip-path="url(#clip8)" role="graphics-object" aria-roledescription="line mark container"><path aria-label="経過年数 (年): 0; 生存確率 (%): 100; 初期支出ルール: 初期支出 4.5%; 戦略: 生存確率を目標にする@ダイナミックスペンディング; year: 0; rule: 4.5; strategy_jp: 生存確率を目標にする@ダイナミックスペンディング; Survival Probability (%): 100.0" role="graphics-symbol" aria-roledescription="line mark" d="M0,0L10.909,0L21.818,0L32.727,0L43.636,0L54.545,0L65.455,0L76.364,0L87.273,0L98.182,0.4L109.091,1.2L120,3.6L130.909,6.8L141.818,14L152.727,21.2L163.636,28L174.545,39.6L185.455,49.6L196.364,58.4L207.273,65.6L218.182,72.8L229.091,75.2L240,80L250.909,84.8L261.818,88.4L272.727,90.4L283.636,91.6L294.545,92.8L305.455,94.4L316.364,95.6L327.273,96.8L338.182,98L349.091,98.4L360,98.8L370.909,98.8L381.818,98.8L392.727,99.2L403.636,99.2L414.545,99.2L425.455,99.6L436.364,99.6L447.273,99.6L458.182,99.6L469.091,99.6L480,99.6L490.909,99.6L501.818,99.6L512.727,99.6L523.636,99.6L534.545,99.6L545.455,99.6L556.364,99.6L567.273,99.6L578.182,99.6L589.091,99.6L600,99.6" stroke="#72b7b2" stroke-width="2" stroke-dasharray="0,0"/></g></g><path class="foreground" aria-hidden="true" d="" display="none"/></g></g><g class="mark-group role-legend" role="graphics-symbol" aria-roledescription="legend" aria-label="Symbol legend titled '初期支出ルール' for stroke color with 4 values: 初期支出 3.0%, 初期支出 3.5%, 初期支出 4.0%, 初期支出 4.5%"><g transform="translate(618,0)"><path class="background" aria-hidden="true" d="M0,0h82v66h-82Z" pointer-events="none"/><g><g class="mark-group role-legend-entry"><g transform="translate(0,16)"><path class="background" aria-hidden="true" d="M0,0h0v0h0Z" pointer-events="none"/><g><g class="mark-group role-scope" role="graphics-object" aria-roledescription="group mark container"><g transform="translate(0,0)"><path class="background" aria-hidden="true" d="M0,0h81.5712890625v11h-81.5712890625Z" pointer-events="none" opacity="1"/><g><g class="mark-symbol role-legend-symbol" pointer-events="none"><path transform="translate(6,6)" d="M-5,0L5,0" stroke="#4c78a8" stroke-width="1.5" opacity="1"/></g><g class="mark-text role-legend-label" pointer-events="none"><text text-anchor="start" transform="translate(16,9)" font-family="sans-serif" font-size="10px" fill="#000" opacity="1">初期支出 3.0%</text></g></g><path class="foreground" aria-hidden="true" d="" pointer-events="none" display="none"/></g><g transform="translate(0,13)"><path class="background" aria-hidden="true" d="M0,0h81.5712890625v11h-81.5712890625Z" pointer-events="none" opacity="1"/><g><g class="mark-symbol role-legend-symbol" pointer-events="none"><path transform="translate(6,6)" d="M-5,0L5,0" stroke="#f58518" stroke-width="1.5" opacity="1"/></g><g class="mark-text role-legend-label" pointer-events="none"><text text-anchor="start" transform="translate(16,9)" font-family="sans-serif" font-size="10px" fill="#000" opacity="1">初期支出 3.5%</text></g></g><path class="foreground" aria-hidden="true" d="" pointer-events="none" display="none"/></g><g transform="translate(0,26)"><path class="background" aria-hidden="true" d="M0,0h81.5712890625v11h-81.5712890625Z" pointer-events="none" opacity="1"/><g><g class="mark-symbol role-legend-symbol" pointer-events="none"><path transform="translate(6,6)" d="M-5,0L5,0" stroke="#e45756" stroke-width="1.5" opacity="1"/></g><g class="mark-text role-legend-label" pointer-events="none"><text text-anchor="start" transform="translate(16,9)" font-family="sans-serif" font-size="10px" fill="#000" opacity="1">初期支出 4.0%</text></g></g><path class="foreground" aria-hidden="true" d="" pointer-events="none" display="none"/></g><g transform="translate(0,39)"><path class="background" aria-hidden="true" d="M0,0h81.5712890625v11h-81.5712890625Z" pointer-events="none" opacity="1"/><g><g class="mark-symbol role-legend-symbol" pointer-events="none"><path transform="translate(6,6)" d="M-5,0L5,0" stroke="#72b7b2" stroke-width="1.5" opacity="1"/></g><g class="mark-text role-legend-label" pointer-events="none"><text text-anchor="start" transform="translate(16,9)" font-family="sans-serif" font-size="10px" fill="#000" opacity="1">初期支出 4.5%</text></g></g><path class="foreground" aria-hidden="true" d="" pointer-events="none" display="none"/></g></g></g><path class="foreground" aria-hidden="true" d="" pointer-events="none" display="none"/></g></g><g class="mark-text role-legend-title" pointer-events="none"><text text-anchor="start" transform="translate(0,9)" font-family="sans-serif" font-size="11px" font-weight="bold" fill="#000" opacity="1">初期支出ルール</text></g></g><path class="foreground" aria-hidden="true" d="" pointer-events="none" display="none"/></g></g><g class="mark-group role-legend" role="graphics-symbol" aria-roledescription="legend" aria-label="Symbol legend titled '戦略' for strokeDash with 2 values: 支出率を目標にする@ダイナミックスペンディング, 生存確率を目標にする@ダイナミックスペンディング"><g transform="translate(618,74)"><path class="background" aria-hidden="true" d="M0,0h146v64h-146Z" pointer-events="none"/><g><g class="mark-group role-legend-entry"><g transform="translate(0,16)"><path class="background" aria-hidden="true" d="M0,0h0v0h0Z" pointer-events="none"/><g><g class="mark-group role-scope" role="graphics-object" aria-roledescription="group mark container"><g transform="translate(0,0)"><path class="background" aria-hidden="true" d="M0,0h146v23h-146Z" pointer-events="none" opacity="1"/><g><g class="mark-symbol role-legend-symbol" pointer-events="none"><path transform="translate(6,6)" d="M-5,0L5,0" stroke="#888" stroke-width="1.5" stroke-dasharray="4,4" opacity="1"/></g><g class="mark-text role-legend-label" pointer-events="none"><text text-anchor="start" transform="translate(16,9)" font-family="sans-serif" font-size="10px" fill="#000" opacity="1"><tspan>支出率を目標にする</tspan><tspan x="0" dy="12">ダイナミックスペンディング</tspan></text></g></g><path class="foreground" aria-hidden="true" d="" pointer-events="none" display="none"/></g><g transform="translate(0,25)"><path class="background" aria-hidden="true" d="M0,0h146v23h-146Z" pointer-events="none" opacity="1"/><g><g class="mark-symbol role-legend-symbol" pointer-events="none"><path transform="translate(6,6)" d="M-5,0L5,0" stroke="#888" stroke-width="1.5" stroke-dasharray="0,0" opacity="1"/></g><g class="mark-text role-legend-label" pointer-events="none"><text text-anchor="start" transform="translate(16,9)" font-family="sans-serif" font-size="10px" fill="#000" opacity="1"><tspan>生存確率を目標にする</tspan><tspan x="0" dy="12">ダイナミックスペンディング</tspan></text></g></g><path class="foreground" aria-hidden="true" d="" pointer-events="none" display="none"/></g></g></g><path class="foreground" aria-hidden="true" d="" pointer-events="none" display="none"/></g></g><g class="mark-text role-legend-title" pointer-events="none"><text text-anchor="start" transform="translate(0,9)" font-family="sans-serif" font-size="11px" font-weight="bold" fill="#000" opacity="1">戦略</text></g></g><path class="foreground" aria-hidden="true" d="" pointer-events="none" display="none"/></g></g><g class="mark-group role-title"><g transform="translate(300,-22)"><path class="background" aria-hidden="true" d="M0,0h0v0h0Z" pointer-events="none"/><g><g class="mark-text role-title-text" role="graphics-symbol" aria-roledescription="title" aria-label="Title text '経過年数と生存確率の推移（生存確率 50%以下は描画を省略）'" pointer-events="none"><text text-anchor="middle" transform="translate(0,10)" font-family="sans-serif" font-size="13px" font-weight="bold" fill="#000" opacity="1">経過年数と生存確率の推移（生存確率 50%以下は描画を省略）</text></g></g><path class="foreground" aria-hidden="true" d="" pointer-events="none" display="none"/></g></g></g><path class="foreground" aria-hidden="true" d="" display="none"/></g></g></g><defs><clipPath id="clip1"><rect x="0" y="0" width="600" height="400"/></clipPath><clipPath id="clip2"><rect x="0" y="0" width="600" height="400"/></clipPath><clipPath id="clip3"><rect x="0" y="0" width="600" height="400"/></clipPath><clipPath id="clip4"><rect x="0" y="0" width="600" height="400"/></clipPath><clipPath id="clip5"><rect x="0" y="0" width="600" height="400"/></clipPath><clipPath id="clip6"><rect x="0" y="0" width="600" height="400"/></clipPath><clipPath id="clip7"><rect x="0" y="0" width="600" height="400"/></clipPath><clipPath id="clip8"><rect x="0" y="0" width="600" height="400"/></clipPath></defs></svg>