<svg xmlns="http://www.w3.org/2000/svg" xmlns:xlink="http://www.w3.org/1999/xlink" version="1.1" class="marks" width="651" height="516" viewBox="0 0 651 516"><rect width="651" height="516" fill="white"/><g fill="none" stroke-miterlimit="10" transform="translate(44,79)"><g class="mark-group role-frame root" role="graphics-object" aria-roledescription="group mark container"><g transform="translate(0,0)"><path class="background" aria-hidden="true" d="M0.5,0.5h600v400h-600Z" stroke="#ddd"/><g><g class="mark-group role-axis" aria-hidden="true"><g transform="translate(0.5,400.5)"><path class="background" aria-hidden="true" d="M0,0h0v0h0Z" pointer-events="none"/><g><g class="mark-rule role-axis-grid" pointer-events="none"><line transform="translate(0,-400)" x2="0" y2="400" stroke="#ddd" stroke-width="1" opacity="1"/><line transform="translate(55,-400)" x2="0" y2="400" stroke="#ddd" stroke-width="1" opacity="1"/><line transform="translate(109,-400)" x2="0" y2="400" stroke="#ddd" stroke-width="1" opacity="1"/><line transform="translate(164,-400)" x2="0" y2="400" stroke="#ddd" stroke-width="1" opacity="1"/><line transform="translate(218,-400)" x2="0" y2="400" stroke="#ddd" stroke-width="1" opacity="1"/><line transform="translate(273,-400)" x2="0" y2="400" stroke="#ddd" stroke-width="1" opacity="1"/><line transform="translate(327,-400)" x2="0" y2="400" stroke="#ddd" stroke-width="1" opacity="1"/><line transform="translate(382,-400)" x2="0" y2="400" stroke="#ddd" stroke-width="1" opacity="1"/><line transform="translate(436,-400)" x2="0" y2="400" stroke="#ddd" stroke-width="1" opacity="1"/><line transform="translate(491,-400)" x2="0" y2="400" stroke="#ddd" stroke-width="1" opacity="1"/><line transform="translate(545,-400)" x2="0" y2="400" stroke="#ddd" stroke-width="1" opacity="1"/><line transform="translate(600,-400)" x2="0" y2="400" stroke="#ddd" stroke-width="1" opacity="1"/></g></g><path class="foreground" aria-hidden="true" d="" pointer-events="none" display="none"/></g></g><g class="mark-group role-axis" aria-hidden="true"><g transform="translate(0.5,0.5)"><path class="background" aria-hidden="true" d="M0,0h0v0h0Z" pointer-events="none"/><g><g class="mark-rule role-axis-grid" pointer-events="none"><line transform="translate(0,400)" x2="600" y2="0" stroke="#ddd" stroke-width="1" opacity="1"/><line transform="translate(0,369)" x2="600" y2="0" stroke="#ddd" stroke-width="1" opacity="1"/><line transform="translate(0,338)" x2="600" y2="0" stroke="#ddd" stroke-width="1" opacity="1"/><line transform="translate(0,308)" x2="600" y2="0" stroke="#ddd" stroke-width="1" opacity="1"/><line transform="translate(0,277)" x2="600" y2="0" stroke="#ddd" stroke-width="1" opacity="1"/><line transform="translate(0,246)" x2="600" y2="0" stroke="#ddd" stroke-width="1" opacity="1"/><line transform="translate(0,215)" x2="600" y2="0" stroke="#ddd" stroke-width="1" opacity="1"/><line transform="translate(0,185)" x2="600" y2="0" stroke="#ddd" stroke-width="1" opacity="1"/><line transform="translate(0,154)" x2="600" y2="0" stroke="#ddd" stroke-width="1" opacity="1"/><line transform="translate(0,123)" x2="600" y2="0" stroke="#ddd" stroke-width="1" opacity="1"/><line transform="translate(0,92)" x2="600" y2="0" stroke="#ddd" stroke-width="1" opacity="1"/><line transform="translate(0,62)" x2="600" y2="0" stroke="#ddd" stroke-width="1" opacity="1"/><line transform="translate(0,31)" x2="600" y2="0" stroke="#ddd" stroke-width="1" opacity="1"/><line transform="translate(0,0)" x2="600" y2="0" stroke="#ddd" stroke-width="1" opacity="1"/></g></g><path class="foreground" aria-hidden="true" d="" pointer-events="none" display="none"/></g></g><g class="mark-group role-axis" role="graphics-symbol" aria-roledescription="axis" aria-label="X-axis titled '年齢' for a linear scale with values from 40 to 95"><g transform="translate(0.5,400.5)"><path class="background" aria-hidden="true" d="M0,0h0v0h0Z" pointer-events="none"/><g><g class="mark-rule role-axis-tick" pointer-events="none"><line transform="translate(0,0)" x2="0" y2="5" stroke="#888" stroke-width="1" opacity="1"/><line transform="translate(55,0)" x2="0" y2="5" stroke="#888" stroke-width="1" opacity="1"/><line transform="translate(109,0)" x2="0" y2="5" stroke="#888" stroke-width="1" opacity="1"/><line transform="translate(164,0)" x2="0" y2="5" stroke="#888" stroke-width="1" opacity="1"/><line transform="translate(218,0)" x2="0" y2="5" stroke="#888" stroke-width="1" opacity="1"/><line transform="translate(273,0)" x2="0" y2="5" stroke="#888" stroke-width="1" opacity="1"/><line transform="translate(327,0)" x2="0" y2="5" stroke="#888" stroke-width="1" opacity="1"/><line transform="translate(382,0)" x2="0" y2="5" stroke="#888" stroke-width="1" opacity="1"/><line transform="translate(436,0)" x2="0" y2="5" stroke="#888" stroke-width="1" opacity="1"/><line transform="translate(491,0)" x2="0" y2="5" stroke="#888" stroke-width="1" opacity="1"/><line transform="translate(545,0)" x2="0" y2="5" stroke="#888" stroke-width="1" opacity="1"/><line transform="translate(600,0)" x2="0" y2="5" stroke="#888" stroke-width="1" opacity="1"/></g><g class="mark-text role-axis-label" pointer-events="none"><text text-anchor="start" transform="translate(0,15)" font-family="sans-serif" font-size="10px" fill="#000" opacity="1">40</text><text text-anchor="middle" transform="translate(54.54545454545455,15)" font-family="sans-serif" font-size="10px" fill="#000" opacity="1">45</text><text text-anchor="middle" transform="translate(109.0909090909091,15)" font-family="sans-serif" font-size="10px" fill="#000" opacity="1">50</text><text text-anchor="middle" transform="translate(163.63636363636363,15)" font-family="sans-serif" font-size="10px" fill="#000" opacity="1">55</text><text text-anchor="middle" transform="translate(218.1818181818182,15)" font-family="sans-serif" font-size="10px" fill="#000" opacity="1">60</text><text text-anchor="middle" transform="translate(272.7272727272727,15)" font-family="sans-serif" font-size="10px" fill="#000" opacity="1">65</text><text text-anchor="middle" transform="translate(327.27272727272725,15)" font-family="sans-serif" font-size="10px" fill="#000" opacity="1">70</text><text text-anchor="middle" transform="translate(381.8181818181818,15)" font-family="sans-serif" font-size="10px" fill="#000" opacity="1">75</text><text text-anchor="middle" transform="translate(436.3636363636364,15)" font-family="sans-serif" font-size="10px" fill="#000" opacity="1">80</text><text text-anchor="middle" transform="translate(490.90909090909093,15)" font-family="sans-serif" font-size="10px" fill="#000" opacity="1">85</text><text text-anchor="middle" transform="translate(545.4545454545454,15)" font-family="sans-serif" font-size="10px" fill="#000" opacity="1">90</text><text text-anchor="end" transform="translate(600,15)" font-family="sans-serif" font-size="10px" fill="#000" opacity="1">95</text></g><g class="mark-rule role-axis-domain" pointer-events="none"><line transform="translate(0,0)" x2="600" y2="0" stroke="#888" stroke-width="1" opacity="1"/></g><g class="mark-text role-axis-title" pointer-events="none"><text text-anchor="middle" transform="translate(300,30)" font-family="sans-serif" font-size="11px" font-weight="bold" fill="#000" opacity="1">年齢</text></g></g><path class="foreground" aria-hidden="true" d="" pointer-events="none" display="none"/></g></g><g class="mark-group role-axis" role="graphics-symbol" aria-roledescription="axis" aria-label="Y-axis titled '年間取り崩し額 (万円)' for a linear scale with values from 0 to 650"><g transform="translate(0.5,0.5)"><path class="background" aria-hidden="true" d="M0,0h0v0h0Z" pointer-events="none"/><g><g class="mark-rule role-axis-tick" pointer-events="none"><line transform="translate(0,400)" x2="-5" y2="0" stroke="#888" stroke-width="1" opacity="1"/><line transform="translate(0,369)" x2="-5" y2="0" stroke="#888" stroke-width="1" opacity="1"/><line transform="translate(0,338)" x2="-5" y2="0" stroke="#888" stroke-width="1" opacity="1"/><line transform="translate(0,308)" x2="-5" y2="0" stroke="#888" stroke-width="1" opacity="1"/><line transform="translate(0,277)" x2="-5" y2="0" stroke="#888" stroke-width="1" opacity="1"/><line transform="translate(0,246)" x2="-5" y2="0" stroke="#888" stroke-width="1" opacity="1"/><line transform="translate(0,215)" x2="-5" y2="0" stroke="#888" stroke-width="1" opacity="1"/><line transform="translate(0,185)" x2="-5" y2="0" stroke="#888" stroke-width="1" opacity="1"/><line transform="translate(0,154)" x2="-5" y2="0" stroke="#888" stroke-width="1" opacity="1"/><line transform="translate(0,123)" x2="-5" y2="0" stroke="#888" stroke-width="1" opacity="1"/><line transform="translate(0,92)" x2="-5" y2="0" stroke="#888" stroke-width="1" opacity="1"/><line transform="translate(0,62)" x2="-5" y2="0" stroke="#888" stroke-width="1" opacity="1"/><line transform="translate(0,31)" x2="-5" y2="0" stroke="#888" stroke-width="1" opacity="1"/><line transform="translate(0,0)" x2="-5" y2="0" stroke="#888" stroke-width="1" opacity="1"/></g><g class="mark-text role-axis-label" pointer-events="none"><text text-anchor="end" transform="translate(-7,403)" font-family="sans-serif" font-size="10px" fill="#000" opacity="1">0</text><text text-anchor="end" transform="translate(-7,372.2307692307692)" font-family="sans-serif" font-size="10px" fill="#000" opacity="1">50</text><text text-anchor="end" transform="translate(-7,341.46153846153845)" font-family="sans-serif" font-size="10px" fill="#000" opacity="1">100</text><text text-anchor="end" transform="translate(-7,310.6923076923077)" font-family="sans-serif" font-size="10px" fill="#000" opacity="1">150</text><text text-anchor="end" transform="translate(-7,279.9230769230769)" font-family="sans-serif" font-size="10px" fill="#000" opacity="1">200</text><text text-anchor="end" transform="translate(-7,249.15384615384616)" font-family="sans-serif" font-size="10px" fill="#000" opacity="1">250</text><text text-anchor="end" transform="translate(-7,218.3846153846154)" font-family="sans-serif" font-size="10px" fill="#000" opacity="1">300</text><text text-anchor="end" transform="translate(-7,187.6153846153846)" font-family="sans-serif" font-size="10px" fill="#000" opacity="1">350</text><text text-anchor="end" transform="translate(-7,156.84615384615384)" font-family="sans-serif" font-size="10px" fill="#000" opacity="1">400</text><text text-anchor="end" transform="translate(-7,126.07692307692308)" font-family="sans-serif" font-size="10px" fill="#000" opacity="1">450</text><text text-anchor="end" transform="translate(-7,95.30769230769229)" font-family="sans-serif" font-size="10px" fill="#000" opacity="1">500</text><text text-anchor="end" transform="translate(-7,64.53846153846155)" font-family="sans-serif" font-size="10px" fill="#000" opacity="1">550</text><text text-anchor="end" transform="translate(-7,33.769230769230745)" font-family="sans-serif" font-size="10px" fill="#000" opacity="1">600</text><text text-anchor="end" transform="translate(-7,3)" font-family="sans-serif" font-size="10px" fill="#000" opacity="1">650</text></g><g class="mark-rule role-axis-domain" pointer-events="none"><line transform="translate(0,400)" x2="0" y2="-400" stroke="#888" stroke-width="1" opacity="1"/></g><g class="mark-text role-axis-title" pointer-events="none"><text text-anchor="middle" transform="translate(-27.6845703125,200) rotate(-90) translate(0,-2)" font-family="sans-serif" font-size="11px" font-weight="bold" fill="#000" opacity="1">年間取り崩し額 (万円)</text></g></g><path class="foreground" aria-hidden="true" d="" pointer-events="none" display="none"/></g></g><g class="mark-group role-scope layer_0_pathgroup" role="graphics-object" aria-roledescription="group mark container"><g transform="translate(0,0)"><path class="background" aria-hidden="true" d="M0,0h600v400h-600Z"/><g><g class="mark-area role-mark layer_0_marks" role="graphics-object" aria-roledescription="area mark container"><path aria-label="年齢: 41; 年間取り崩し額 (万円): 478.536350223; spend75p: 485.250710233; 戦略: 定額取り崩し（ベースライン）" role="graphics-symbol" aria-roledescription="area mark" d="M10.909,105.516L21.818,100.135L32.727,94.013L43.636,87.663L54.545,81.212L65.455,75.08L76.364,69.033L87.273,63.091L98.182,57.476L109.091,52.902L120,49.168L130.909,46.349L141.818,44.872L152.727,44.855L163.636,46.571L174.545,49.971L185.455,55.373L196.364,61.383L207.273,68.151L218.182,75.494L229.091,176.709L240,184.836L250.909,192.254L261.818,199.318L272.727,206.657L283.636,213.789L294.545,221.614L305.455,229.699L316.364,238.137L327.273,246.975L338.182,256.305L349.091,265.492L360,274.388L370.909,282.233L381.818,288.736L392.727,294.335L403.636,299.177L414.545,303.555L425.455,307.479L436.364,311.531L447.273,314.659L458.182,317.495L469.091,320.668L480,323.359L490.909,325.971L501.818,328.35L512.727,332.798L523.636,336.863L534.545,341.381L545.455,346.089L556.364,351.754L567.273,356.436L578.182,361.41L589.091,366.334L600,371.168L600,322.496L589.091,318.696L578.182,314.465L567.273,310.868L556.364,307.463L545.455,303.826L534.545,300.417L523.636,297.144L512.727,294.348L501.818,291.93L490.909,290.188L480,288.339L469.091,286.167L458.182,284.261L447.273,282.37L436.364,280.336L425.455,277.813L414.545,275.302L403.636,271.804L392.727,267.428L381.818,262.55L370.909,256.561L360,249.198L349.091,241.403L338.182,233.121L327.273,224.66L316.364,216.294L305.455,208.506L294.545,201.11L283.636,194.095L272.727,187.233L261.818,180.684L250.909,173.871L240,167.225L229.091,160.037L218.182,67.341L207.273,60.091L196.364,52.871L185.455,46.559L174.545,41.352L163.636,37.839L152.727,36.127L141.818,36.212L130.909,37.574L120,40.43L109.091,44.457L98.182,49.772L87.273,55.298L76.364,61.328L65.455,67.831L54.545,74.472L43.636,81.022L32.727,87.713L21.818,94.698L10.909,101.384Z" fill="green" opacity="0.3"/></g></g><path class="foreground" aria-hidden="true" d="" display="none"/></g><g transform="translate(0,0)"><path class="background" aria-hidden="true" d="M0,0h600v400h-600Z"/><g><g class="mark-area role-mark layer_0_marks" role="graphics-object" aria-roledescription="area mark container"><path aria-label="年齢: 41; 年間取り崩し額 (万円): 478.203906665; spend75p: 478.490347629; 戦略: 支出率を目標にする@ダイナミックスペンディング" role="graphics-symbol" aria-roledescription="area mark" d="M10.909,105.721L21.818,109.635L32.727,107.259L43.636,111.092L54.545,108.771L65.455,112.587L76.364,116.221L87.273,117.988L98.182,120.151L109.091,123.113L120,126.455L130.909,130.125L141.818,133.821L152.727,137.342L163.636,139.942L174.545,142.522L185.455,144.565L196.364,147.009L207.273,150.267L218.182,153.604L229.091,240.897L240,244.882L250.909,248.575L261.818,252.421L272.727,256.339L283.636,260.007L294.545,263.549L305.455,267.464L316.364,270.789L327.273,274.407L338.182,277.976L349.091,281.491L360,285.374L370.909,288.517L381.818,292.267L392.727,296.12L403.636,299.113L414.545,302.865L425.455,306.636L436.364,309.811L447.273,313.456L458.182,316.83L469.091,320.602L480,324.378L490.909,327.684L501.818,330.824L512.727,334.361L523.636,337.628L534.545,340.992L545.455,344.535L556.364,347.686L567.273,351.371L578.182,354.543L589.091,358.704L600,362.216L600,247.485L589.091,244.889L578.182,242.718L567.273,240.258L556.364,238.974L545.455,236.395L534.545,234.994L523.636,233.074L512.727,234.054L501.818,233.228L490.909,232.255L480,231.837L469.091,231.183L458.182,230.801L447.273,230.588L436.364,230.275L425.455,227.054L414.545,224.929L403.636,222.612L392.727,221.45L381.818,219.222L370.909,216.239L360,214.229L349.091,211.133L338.182,208.925L327.273,205.709L316.364,202.001L305.455,198.584L294.545,194.909L283.636,191.999L272.727,188.489L261.818,184.445L250.909,181.462L240,177.782L229.091,174.917L218.182,71.668L207.273,72.694L196.364,71.306L185.455,73.227L174.545,75.118L163.636,72.028L152.727,74.776L141.818,77.593L130.909,77.574L120,76.648L109.091,79.564L98.182,82.539L87.273,85.497L76.364,88.441L65.455,91.354L54.545,94.237L43.636,97.102L32.727,99.95L21.818,102.785L10.909,105.544Z" fill="red" opacity="0.3"/></g></g><path class="foreground" aria-hidden="true" d="" display="none"/></g><g transform="translate(0,0)"><path class="background" aria-hidden="true" d="M0,0h600v400h-600Z"/><g><g class="mark-area role-mark layer_0_marks" role="graphics-object" aria-roledescription="area mark container"><path aria-label="年齢: 41; 年間取り崩し額 (万円): 473.626015742; spend75p: 473.912456705; 戦略: 生存確率を目標にする@ダイナミックスペンディング" role="graphics-symbol" aria-roledescription="area mark" d="M10.909,108.538L21.818,110.842L32.727,113.381L43.636,117.013L54.545,119.911L65.455,123.846L76.364,127.252L87.273,129.383L98.182,132.38L109.091,134.114L120,137.054L130.909,139.467L141.818,141.748L152.727,145.99L163.636,149.494L174.545,152.702L185.455,159.636L196.364,166.766L207.273,172.742L218.182,178.004L229.091,267.613L240,274.68L250.909,279.554L261.818,284.467L272.727,289.979L283.636,294.307L294.545,298.594L305.455,303.143L316.364,307.886L327.273,314.481L338.182,320.738L349.091,326.517L360,332.37L370.909,336.274L381.818,341.177L392.727,344.922L403.636,346.54L414.545,349.903L425.455,351.183L436.364,353.634L447.273,355.505L458.182,356.407L469.091,358.178L480,359.067L490.909,359.477L501.818,361.229L512.727,363.848L523.636,365.681L534.545,369.12L545.455,371.245L556.364,372.962L567.273,376.23L578.182,380.042L589.091,382.746L600,384.949L600,215.589L589.091,211.538L578.182,207.827L567.273,205.54L556.364,202.92L545.455,203.959L534.545,197.986L523.636,194.335L512.727,191.512L501.818,192.558L490.909,191.964L480,193.518L469.091,194.042L458.182,196.281L447.273,198.717L436.364,200.275L425.455,202.669L414.545,203.673L403.636,198.721L392.727,197.562L381.818,192.635L370.909,186.354L360,179.323L349.091,175.364L338.182,169.554L327.273,164.154L316.364,156.059L305.455,149.079L294.545,145.158L283.636,139.958L272.727,130.846L261.818,126.988L250.909,122.337L240,115.879L229.091,114.079L218.182,13.857L207.273,11.358L196.364,9.327L185.455,8.053L174.545,9.337L163.636,9.688L152.727,13.385L141.818,19.509L130.909,28.455L120,35.702L109.091,43.922L98.182,51.781L87.273,59.169L76.364,66.378L65.455,74.777L54.545,81.286L43.636,89.18L32.727,96.238L21.818,102.848L10.909,108.362Z" fill="blue" opacity="0.3"/></g></g><path class="foreground" aria-hidden="true" d="" display="none"/></g></g><g class="mark-group role-scope layer_1_pathgroup" role="graphics-object" aria-roledescription="group mark container"><g transform="translate(0,0)"><path class="background" aria-hidden="true" d="M0,0h600v400h-600Z"/><g><g class="mark-line role-mark layer_1_marks" role="graphics-object" aria-roledescription="line mark container"><path aria-label="年齢: 41; spend50p: 481.845245909; group_label: 定額取り崩し（ベースライン）" role="graphics-symbol" aria-roledescription="line mark" d="M10.909,103.48L21.818,97.346L32.727,90.892L43.636,84.299L54.545,77.886L65.455,71.491L76.364,65.158L87.273,59.195L98.182,53.703L109.091,48.846L120,44.855L130.909,41.961L141.818,40.341L152.727,40.209L163.636,41.982L174.545,45.765L185.455,50.908L196.364,57.159L207.273,64.221L218.182,71.441L229.091,167.848L240,175.214L250.909,182.344L261.818,189.007L272.727,195.857L283.636,202.626L294.545,209.696L305.455,217.308L316.364,225.277L327.273,233.82L338.182,242.8L349.091,251.728L360,259.728L370.909,267.204L381.818,273.042L392.727,278.793L403.636,283.499L414.545,286.895L425.455,290.085L436.364,293.111L447.273,295.526L458.182,298.165L469.091,300.349L480,302.752L490.909,305.512L501.818,307.81L512.727,311.33L523.636,314.528L534.545,318.065L545.455,321.981L556.364,325.773L567.273,329.758L578.182,333.776L589.091,337.935L600,342.581" stroke="green" stroke-width="2"/></g></g><path class="foreground" aria-hidden="true" d="" display="none"/></g><g transform="translate(0,0)"><path class="background" aria-hidden="true" d="M0,0h600v400h-600Z"/><g><g class="mark-line role-mark layer_1_marks" role="graphics-object" aria-roledescription="line mark container"><path aria-label="年齢: 41; spend50p: 478.345067292; group_label: 支出率を目標にする@ダイナミックスペンディング" role="graphics-symbol" aria-roledescription="line mark" d="M10.909,105.634L21.818,102.949L32.727,100.175L43.636,97.413L54.545,96.652L65.455,98.392L76.364,95.937L87.273,99.5L98.182,98.802L109.091,101.63L120,105.425L130.909,106.306L141.818,107.548L152.727,111.333L163.636,112.812L174.545,114.531L185.455,116.983L196.364,120.209L207.273,121.629L218.182,122.656L229.091,215.894L240,220.285L250.909,224.265L261.818,228.264L272.727,232.073L283.636,236.179L294.545,240.196L305.455,244.195L316.364,247.631L327.273,251.159L338.182,254.044L349.091,257.417L360,260.944L370.909,263.513L381.818,267.237L392.727,270.416L403.636,273.482L414.545,276.739L425.455,279.976L436.364,283.407L447.273,286.435L458.182,289.748L469.091,292.699L480,295.527L490.909,298.461L501.818,302.066L512.727,304.782L523.636,308.002L534.545,311.411L545.455,313.816L556.364,315.985L567.273,318.016L578.182,320.98L589.091,323.59L600,326.886" stroke="red" stroke-width="2"/></g></g><path class="foreground" aria-hidden="true" d="" display="none"/></g><g transform="translate(0,0)"><path class="background" aria-hidden="true" d="M0,0h600v400h-600Z"/><g><g class="mark-line role-mark layer_1_marks" role="graphics-object" aria-roledescription="line mark container"><path aria-label="年齢: 41; spend50p: 473.767176369; group_label: 生存確率を目標にする@ダイナミックスペンディング" role="graphics-symbol" aria-roledescription="line mark" d="M10.909,108.451L21.818,106.863L32.727,104.857L43.636,102.742L54.545,101.615L65.455,99.735L76.364,97.188L87.273,95.222L98.182,93.128L109.091,90.664L120,88.477L130.909,86.238L141.818,85.734L152.727,86.086L163.636,89.602L174.545,92.729L185.455,95.074L196.364,99.512L207.273,105.119L218.182,109.827L229.091,203.193L240,208.045L250.909,212.671L261.818,216.918L272.727,222.187L283.636,228.926L294.545,232.747L305.455,238.974L316.364,244.524L327.273,250.634L338.182,258.895L349.091,264.552L360,270.415L370.909,274.737L381.818,280.334L392.727,282.885L403.636,285.703L414.545,287.918L425.455,289.049L436.364,291.67L447.273,292.264L458.182,292.88L469.091,294.571L480,294.161L490.909,294.257L501.818,295.445L512.727,297.607L523.636,300.296L534.545,302.303L545.455,304.622L556.364,306.19L567.273,310.093L578.182,312.287L589.091,315.763L600,318.481" stroke="blue" stroke-width="2"/></g></g><path class="foreground" aria-hidden="true" d="" display="none"/></g></g><g class="mark-group role-legend" role="graphics-symbol" aria-roledescription="legend" aria-label="Symbol legend titled '戦略' for fill color and stroke color with 3 values: 支出率を目標にする@ダイナミックスペンディング, 生存確率を目標にする@ダイナミックスペンディング, 定額取り崩し（ベースライン）"><g transform="translate(0,-57)"><path class="background" aria-hidden="true" d="M0,0h470v39h-470Z" pointer-events="none"/><g><g class="mark-group role-legend-entry"><g transform="translate(0,16)"><path class="background" aria-hidden="true" d="M0,0h0v0h0Z" pointer-events="none"/><g><g class="mark-group role-scope" role="graphics-object" aria-roledescription="group mark container"><g transform="translate(0,0)"><path class="background" aria-hidden="true" d="M0,0h146v23h-146Z" pointer-events="none" opacity="1"/><g><g class="mark-symbol role-legend-symbol" pointer-events="none"><path transform="translate(6,6)" d="M5,0A5,5,0,1,1,-5,0A5,5,0,1,1,5,0" fill="red" stroke="red" stroke-width="1.5" opacity="0.3"/></g><g class="mark-text role-legend-label" pointer-events="none"><text text-anchor="start" transform="translate(16,9)" font-family="sans-serif" font-size="10px" fill="#000" opacity="1"><tspan>支出率を目標にする</tspan><tspan x="0" dy="12">ダイナミックスペンディング</tspan></text></g></g><path class="foreground" aria-hidden="true" d="" pointer-events="none" display="none"/></g><g transform="translate(157,0)"><path class="background" aria-hidden="true" d="M0,0h146v23h-146Z" pointer-events="none" opacity="1"/><g><g class="mark-symbol role-legend-symbol" pointer-events="none"><path transform="translate(6,6)" d="M5,0A5,5,0,1,1,-5,0A5,5,0,1,1,5,0" fill="blue" stroke="blue" stroke-width="1.5" opacity="0.3"/></g><g class="mark-text role-legend-label" pointer-events="none"><text text-anchor="start" transform="translate(16,9)" font-family="sans-serif" font-size="10px" fill="#000" opacity="1"><tspan>生存確率を目標にする</tspan><tspan x="0" dy="12">ダイナミックスペンディング</tspan></text></g></g><path class="foreground" aria-hidden="true" d="" pointer-events="none" display="none"/></g><g transform="translate(314,5.25)"><path class="background" aria-hidden="true" d="M0,0h156v12.5h-156Z" pointer-events="none" opacity="1"/><g><g class="mark-symbol role-legend-symbol" pointer-events="none"><path transform="translate(6,6)" d="M5,0A5,5,0,1,1,-5,0A5,5,0,1,1,5,0" fill="green" stroke="green" stroke-width="1.5" opacity="0.3"/></g><g class="mark-text role-legend-label" pointer-events="none"><text text-anchor="start" transform="translate(16,9)" font-family="sans-serif" font-size="10px" fill="#000" opacity="1">定額取り崩し（ベースライン）</text></g></g><path class="foreground" aria-hidden="true" d="" pointer-events="none" display="none"/></g></g></g><path class="foreground" aria-hidden="true" d="" pointer-events="none" display="none"/></g></g><g class="mark-text role-legend-title" pointer-events="none"><text text-anchor="start" transform="translate(0,9)" font-family="sans-serif" font-size="11px" font-weight="bold" fill="#000" opacity="1">戦略</text></g></g><path class="foreground" aria-hidden="true" d="" pointer-events="none" display="none"/></g></g><g class="mark-group role-title"><g transform="translate(300,-74)"><path class="background" aria-hidden="true" d="M0,0h0v0h0Z" pointer-events="none"/><g><g class="mark-text role-title-text" role="graphics-symbol" aria-roledescription="title" aria-label="Title text '実質支出額の推移比較 (初期支出率: 3.5%, 共通生存パスのみ)'" pointer-events="none"><text text-anchor="middle" transform="translate(0,10)" font-family="sans-serif" font-size="13px" font-weight="bold" fill="#000" opacity="1">実質支出額の推移比較 (初期支出率: 3.5%, 共通生存パスのみ)</text></g></g><path class="foreground" aria-hidden="true" d="" pointer-events="none" display="none"/></g></g></g><path class="foreground" aria-hidden="true" d="" display="none"/></g></g></g></svg>