<svg xmlns="http://www.w3.org/2000/svg" xmlns:xlink="http://www.w3.org/1999/xlink" version="1.1" class="marks" width="651" height="516" viewBox="0 0 651 516"><rect width="651" height="516" fill="white"/><g fill="none" stroke-miterlimit="10" transform="translate(44,79)"><g class="mark-group role-frame root" role="graphics-object" aria-roledescription="group mark container"><g transform="translate(0,0)"><path class="background" aria-hidden="true" d="M0.5,0.5h600v400h-600Z" stroke="#ddd"/><g><g class="mark-group role-axis" aria-hidden="true"><g transform="translate(0.5,400.5)"><path class="background" aria-hidden="true" d="M0,0h0v0h0Z" pointer-events="none"/><g><g class="mark-rule role-axis-grid" pointer-events="none"><line transform="translate(0,-400)" x2="0" y2="400" stroke="#ddd" stroke-width="1" opacity="1"/><line transform="translate(55,-400)" x2="0" y2="400" stroke="#ddd" stroke-width="1" opacity="1"/><line transform="translate(109,-400)" x2="0" y2="400" stroke="#ddd" stroke-width="1" opacity="1"/><line transform="translate(164,-400)" x2="0" y2="400" stroke="#ddd" stroke-width="1" opacity="1"/><line transform="translate(218,-400)" x2="0" y2="400" stroke="#ddd" stroke-width="1" opacity="1"/><line transform="translate(273,-400)" x2="0" y2="400" stroke="#ddd" stroke-width="1" opacity="1"/><line transform="translate(327,-400)" x2="0" y2="400" stroke="#ddd" stroke-width="1" opacity="1"/><line transform="translate(382,-400)" x2="0" y2="400" stroke="#ddd" stroke-width="1" opacity="1"/><line transform="translate(436,-400)" x2="0" y2="400" stroke="#ddd" stroke-width="1" opacity="1"/><line transform="translate(491,-400)" x2="0" y2="400" stroke="#ddd" stroke-width="1" opacity="1"/><line transform="translate(545,-400)" x2="0" y2="400" stroke="#ddd" stroke-width="1" opacity="1"/><line transform="translate(600,-400)" x2="0" y2="400" stroke="#ddd" stroke-width="1" opacity="1"/></g></g><path class="foreground" aria-hidden="true" d="" pointer-events="none" display="none"/></g></g><g class="mark-group role-axis" aria-hidden="true"><g transform="translate(0.5,0.5)"><path class="background" aria-hidden="true" d="M0,0h0v0h0Z" pointer-events="none"/><g><g class="mark-rule role-axis-grid" pointer-events="none"><line transform="translate(0,400)" x2="600" y2="0" stroke="#ddd" stroke-width="1" opacity="1"/><line transform="translate(0,371)" x2="600" y2="0" stroke="#ddd" stroke-width="1" opacity="1"/><line transform="translate(0,343)" x2="600" y2="0" stroke="#ddd" stroke-width="1" opacity="1"/><line transform="translate(0,314)" x2="600" y2="0" stroke="#ddd" stroke-width="1" opacity="1"/><line transform="translate(0,286)" x2="600" y2="0" stroke="#ddd" stroke-width="1" opacity="1"/><line transform="translate(0,257)" x2="600" y2="0" stroke="#ddd" stroke-width="1" opacity="1"/><line transform="translate(0,229)" x2="600" y2="0" stroke="#ddd" stroke-width="1" opacity="1"/><line transform="translate(0,200)" x2="600" y2="0" stroke="#ddd" stroke-width="1" opacity="1"/><line transform="translate(0,171)" x2="600" y2="0" stroke="#ddd" stroke-width="1" opacity="1"/><line transform="translate(0,143)" x2="600" y2="0" stroke="#ddd" stroke-width="1" opacity="1"/><line transform="translate(0,114)" x2="600" y2="0" stroke="#ddd" stroke-width="1" opacity="1"/><line transform="translate(0,86)" x2="600" y2="0" stroke="#ddd" stroke-width="1" opacity="1"/><line transform="translate(0,57)" x2="600" y2="0" stroke="#ddd" stroke-width="1" opacity="1"/><line transform="translate(0,29)" x2="600" y2="0" stroke="#ddd" stroke-width="1" opacity="1"/><line transform="translate(0,0)" x2="600" y2="0" stroke="#ddd" stroke-width="1" opacity="1"/></g></g><path class="foreground" aria-hidden="true" d="" pointer-events="none" display="none"/></g></g><g class="mark-group role-axis" role="graphics-symbol" aria-roledescription="axis" aria-label="X-axis titled '年齢' for a linear scale with values from 40 to 95"><g transform="translate(0.5,400.5)"><path class="background" aria-hidden="true" d="M0,0h0v0h0Z" pointer-events="none"/><g><g class="mark-rule role-axis-tick" pointer-events="none"><line transform="translate(0,0)" x2="0" y2="5" stroke="#888" stroke-width="1" opacity="1"/><line transform="translate(55,0)" x2="0" y2="5" stroke="#888" stroke-width="1" opacity="1"/><line transform="translate(109,0)" x2="0" y2="5" stroke="#888" stroke-width="1" opacity="1"/><line transform="translate(164,0)" x2="0" y2="5" stroke="#888" stroke-width="1" opacity="1"/><line transform="translate(218,0)" x2="0" y2="5" stroke="#888" stroke-width="1" opacity="1"/><line transform="translate(273,0)" x2="0" y2="5" stroke="#888" stroke-width="1" opacity="1"/><line transform="translate(327,0)" x2="0" y2="5" stroke="#888" stroke-width="1" opacity="1"/><line transform="translate(382,0)" x2="0" y2="5" stroke="#888" stroke-width="1" opacity="1"/><line transform="translate(436,0)" x2="0" y2="5" stroke="#888" stroke-width="1" opacity="1"/><line transform="translate(491,0)" x2="0" y2="5" stroke="#888" stroke-width="1" opacity="1"/><line transform="translate(545,0)" x2="0" y2="5" stroke="#888" stroke-width="1" opacity="1"/><line transform="translate(600,0)" x2="0" y2="5" stroke="#888" stroke-width="1" opacity="1"/></g><g class="mark-text role-axis-label" pointer-events="none"><text text-anchor="start" transform="translate(0,15)" font-family="sans-serif" font-size="10px" fill="#000" opacity="1">40</text><text text-anchor="middle" transform="translate(54.54545454545455,15)" font-family="sans-serif" font-size="10px" fill="#000" opacity="1">45</text><text text-anchor="middle" transform="translate(109.0909090909091,15)" font-family="sans-serif" font-size="10px" fill="#000" opacity="1">50</text><text text-anchor="middle" transform="translate(163.63636363636363,15)" font-family="sans-serif" font-size="10px" fill="#000" opacity="1">55</text><text text-anchor="middle" transform="translate(218.1818181818182,15)" font-family="sans-serif" font-size="10px" fill="#000" opacity="1">60</text><text text-anchor="middle" transform="translate(272.7272727272727,15)" font-family="sans-serif" font-size="10px" fill="#000" opacity="1">65</text><text text-anchor="middle" transform="translate(327.27272727272725,15)" font-family="sans-serif" font-size="10px" fill="#000" opacity="1">70</text><text text-anchor="middle" transform="translate(381.8181818181818,15)" font-family="sans-serif" font-size="10px" fill="#000" opacity="1">75</text><text text-anchor="middle" transform="translate(436.3636363636364,15)" font-family="sans-serif" font-size="10px" fill="#000" opacity="1">80</text><text text-anchor="middle" transform="translate(490.90909090909093,15)" font-family="sans-serif" font-size="10px" fill="#000" opacity="1">85</text><text text-anchor="middle" transform="translate(545.4545454545454,15)" font-family="sans-serif" font-size="10px" fill="#000" opacity="1">90</text><text text-anchor="end" transform="translate(600,15)" font-family="sans-serif" font-size="10px" fill="#000" opacity="1">95</text></g><g class="mark-rule role-axis-domain" pointer-events="none"><line transform="translate(0,0)" x2="600" y2="0" stroke="#888" stroke-width="1" opacity="1"/></g><g class="mark-text role-axis-title" pointer-events="none"><text text-anchor="middle" transform="translate(300,30)" font-family="sans-serif" font-size="11px" font-weight="bold" fill="#000" opacity="1">年齢</text></g></g><path class="foreground" aria-hidden="true" d="" pointer-events="none" display="none"/></g></g><g class="mark-group role-axis" role="graphics-symbol" aria-roledescription="axis" aria-label="Y-axis titled '年間取り崩し額 (万円)' for a linear scale with values from −50 to 650"><g transform="translate(0.5,0.5)"><path class="background" aria-hidden="true" d="M0,0h0v0h0Z" pointer-events="none"/><g><g class="mark-rule role-axis-tick" pointer-events="none"><line transform="translate(0,400)" x2="-5" y2="0" stroke="#888" stroke-width="1" opacity="1"/><line transform="translate(0,371)" x2="-5" y2="0" stroke="#888" stroke-width="1" opacity="1"/><line transform="translate(0,343)" x2="-5" y2="0" stroke="#888" stroke-width="1" opacity="1"/><line transform="translate(0,314)" x2="-5" y2="0" stroke="#888" stroke-width="1" opacity="1"/><line transform="translate(0,286)" x2="-5" y2="0" stroke="#888" stroke-width="1" opacity="1"/><line transform="translate(0,257)" x2="-5" y2="0" stroke="#888" stroke-width="1" opacity="1"/><line transform="translate(0,229)" x2="-5" y2="0" stroke="#888" stroke-width="1" opacity="1"/><line transform="translate(0,200)" x2="-5" y2="0" stroke="#888" stroke-width="1" opacity="1"/><line transform="translate(0,171)" x2="-5" y2="0" stroke="#888" stroke-width="1" opacity="1"/><line transform="translate(0,143)" x2="-5" y2="0" stroke="#888" stroke-width="1" opacity="1"/><line transform="translate(0,114)" x2="-5" y2="0" stroke="#888" stroke-width="1" opacity="1"/><line transform="translate(0,86)" x2="-5" y2="0" stroke="#888" stroke-width="1" opacity="1"/><line transform="translate(0,57)" x2="-5" y2="0" stroke="#888" stroke-width="1" opacity="1"/><line transform="translate(0,29)" x2="-5" y2="0" stroke="#888" stroke-width="1" opacity="1"/><line transform="translate(0,0)" x2="-5" y2="0" stroke="#888" stroke-width="1" opacity="1"/></g><g class="mark-text role-axis-label" pointer-events="none"><text text-anchor="end" transform="translate(-7,403)" font-family="sans-serif" font-size="10px" fill="#000" opacity="1">−50</text><text text-anchor="end" transform="translate(-7,374.42857142857144)" font-family="sans-serif" font-size="10px" fill="#000" opacity="1">0</text><text text-anchor="end" transform="translate(-7,345.8571428571429)" font-family="sans-serif" font-size="10px" fill="#000" opacity="1">50</text><text text-anchor="end" transform="translate(-7,317.2857142857143)" font-family="sans-serif" font-size="10px" fill="#000" opacity="1">100</text><text text-anchor="end" transform="translate(-7,288.7142857142857)" font-family="sans-serif" font-size="10px" fill="#000" opacity="1">150</text><text text-anchor="end" transform="translate(-7,260.1428571428571)" font-family="sans-serif" font-size="10px" fill="#000" opacity="1">200</text><text text-anchor="end" transform="translate(-7,231.57142857142856)" font-family="sans-serif" font-size="10px" fill="#000" opacity="1">250</text><text text-anchor="end" transform="translate(-7,203)" font-family="sans-serif" font-size="10px" fill="#000" opacity="1">300</text><text text-anchor="end" transform="translate(-7,174.42857142857144)" font-family="sans-serif" font-size="10px" fill="#000" opacity="1">350</text><text text-anchor="end" transform="translate(-7,145.85714285714283)" font-family="sans-serif" font-size="10px" fill="#000" opacity="1">400</text><text text-anchor="end" transform="translate(-7,117.28571428571428)" font-family="sans-serif" font-size="10px" fill="#000" opacity="1">450</text><text text-anchor="end" transform="translate(-7,88.71428571428572)" font-family="sans-serif" font-size="10px" fill="#000" opacity="1">500</text><text text-anchor="end" transform="translate(-7,60.14285714285716)" font-family="sans-serif" font-size="10px" fill="#000" opacity="1">550</text><text text-anchor="end" transform="translate(-7,31.57142857142856)" font-family="sans-serif" font-size="10px" fill="#000" opacity="1">600</text><text text-anchor="end" transform="translate(-7,3)" font-family="sans-serif" font-size="10px" fill="#000" opacity="1">650</text></g><g class="mark-rule role-axis-domain" pointer-events="none"><line transform="translate(0,400)" x2="0" y2="-400" stroke="#888" stroke-width="1" opacity="1"/></g><g class="mark-text role-axis-title" pointer-events="none"><text text-anchor="middle" transform="translate(-27.962890625,200) rotate(-90) translate(0,-2)" font-family="sans-serif" font-size="11px" font-weight="bold" fill="#000" opacity="1">年間取り崩し額 (万円)</text></g></g><path class="foreground" aria-hidden="true" d="" pointer-events="none" display="none"/></g></g><g class="mark-group role-scope layer_0_pathgroup" role="graphics-object" aria-roledescription="group mark container"><g transform="translate(0,0)"><path class="background" aria-hidden="true" d="M0,0h600v400h-600Z"/><g><g class="mark-area role-mark layer_0_marks" role="graphics-object" aria-roledescription="area mark container"><path aria-label="年齢: 41; 年間取り崩し額 (万円): 479.637149036; spend75p: 486.366954392; 戦略: 定額取り崩し（ベースライン）" role="graphics-symbol" aria-roledescription="area mark" d="M10.909,97.35L21.818,92.356L32.727,86.671L43.636,80.775L54.545,74.785L65.455,69.091L76.364,63.477L87.273,57.959L98.182,52.744L109.091,48.498L120,45.031L130.909,42.413L141.818,41.05L152.727,41.026L163.636,42.617L174.545,45.746L185.455,50.813L196.364,56.429L207.273,62.742L218.182,69.472L229.091,164.832L240,172.069L250.909,179.114L261.818,185.884L272.727,192.467L283.636,199.24L294.545,206.587L305.455,214.376L316.364,222.405L327.273,230.717L338.182,239.309L349.091,248.081L360,255.979L370.909,263.441L381.818,269.543L392.727,275.055L403.636,279.451L414.545,283.496L425.455,286.967L436.364,290.043L447.273,293.117L458.182,295.824L469.091,298.524L480,300.882L490.909,303L501.818,305.12L512.727,309.071L523.636,312.689L534.545,316.916L545.455,321.367L556.364,325.801L567.273,330.817L578.182,335.668L589.091,339.784L600,344.217L600,297.883L589.091,294.182L578.182,290.52L567.273,287.044L556.364,284.157L545.455,281.007L534.545,277.76L523.636,275.002L512.727,272.613L501.818,270.565L490.909,268.889L480,267.289L469.091,265.469L458.182,263.72L447.273,262.203L436.364,260.386L425.455,258.24L414.545,255.843L403.636,252.716L392.727,248.823L381.818,244.445L370.909,238.84L360,232.138L349.091,224.817L338.182,217.133L327.273,209.238L316.364,201.287L305.455,194.279L294.545,187.525L283.636,181.018L272.727,174.625L261.818,168.402L250.909,162.213L240,155.75L229.091,148.988L218.182,61.926L207.273,55.206L196.364,48.499L185.455,42.592L174.545,37.693L163.636,34.464L152.727,32.896L141.818,33.001L130.909,34.249L120,36.91L109.091,40.64L98.182,45.576L87.273,50.708L76.364,56.307L65.455,62.346L54.545,68.512L43.636,74.595L32.727,80.809L21.818,87.295L10.909,93.505Z" fill="green" opacity="0.3"/></g></g><path class="foreground" aria-hidden="true" d="" display="none"/></g><g transform="translate(0,0)"><path class="background" aria-hidden="true" d="M0,0h600v400h-600Z"/><g><g class="mark-area role-mark layer_0_marks" role="graphics-object" aria-roledescription="area mark container"><path aria-label="年齢: 41; 年間取り崩し額 (万円): 479.304705478; spend75p: 479.606591788; 戦略: 支出率を目標にする@ダイナミックスペンディング" role="graphics-symbol" aria-roledescription="area mark" d="M10.909,97.54L21.818,95.369L32.727,91.395L43.636,85.348L54.545,83.588L65.455,81.745L76.364,77.436L87.273,73.443L98.182,72.653L109.091,72.705L120,73.641L130.909,75.532L141.818,78.54L152.727,82.601L163.636,87.409L174.545,92.729L185.455,97.714L196.364,105.643L207.273,114.557L218.182,123.404L229.091,211.411L240,219.736L250.909,227.777L261.818,235.098L272.727,242.13L283.636,249.863L294.545,257.029L305.455,263.69L316.364,271.152L327.273,279.139L338.182,286.8L349.091,294.136L360,301.169L370.909,307.148L381.818,312.817L392.727,317.941L403.636,322.233L414.545,325.974L425.455,329.225L436.364,332.322L447.273,335.006L458.182,337.16L469.091,340.04L480,342.937L490.909,345.782L501.818,348.348L512.727,351.344L523.636,354.258L534.545,358.163L545.455,361.315L556.364,364.813L567.273,368.442L578.182,371.503L589.091,375.345L600,379.058L600,307.245L589.091,304.891L578.182,301.718L567.273,298.934L556.364,296.422L545.455,294.436L534.545,291.69L523.636,289.19L512.727,288.016L501.818,285.314L490.909,283.455L480,282.449L469.091,281.411L458.182,280.38L447.273,279.338L436.364,278.333L425.455,275.626L414.545,273.072L403.636,269.921L392.727,266.281L381.818,262.007L370.909,256.756L360,250.383L349.091,242.029L338.182,234.19L327.273,226.302L316.364,217.746L305.455,208.961L294.545,201.352L283.636,193.345L272.727,185.991L261.818,178.16L250.909,170.338L240,162.854L229.091,154.066L218.182,55.187L207.273,49.182L196.364,41.649L185.455,37.817L174.545,31.577L163.636,28.146L152.727,25.487L141.818,24.833L130.909,23.285L120,27.109L109.091,27.307L98.182,34.196L87.273,42.338L76.364,44.721L65.455,53.208L54.545,62.249L43.636,71.202L32.727,80.05L21.818,88.792L10.909,97.368Z" fill="red" opacity="0.3"/></g></g><path class="foreground" aria-hidden="true" d="" display="none"/></g><g transform="translate(0,0)"><path class="background" aria-hidden="true" d="M0,0h600v400h-600Z"/><g><g class="mark-area role-mark layer_0_marks" role="graphics-object" aria-roledescription="area mark container"><path aria-label="年齢: 41; 年間取り崩し額 (万円): 472.437869094; spend75p: 472.739755403; 戦略: 生存確率を目標にする@ダイナミックスペンディング" role="graphics-symbol" aria-roledescription="area mark" d="M10.909,101.464L21.818,99.562L32.727,97.747L43.636,96.051L54.545,94.475L65.455,93.021L76.364,91.733L87.273,90.806L98.182,90.331L109.091,90.439L120,91.253L130.909,89.67L141.818,91.959L152.727,92.569L163.636,93.96L174.545,98.036L185.455,102.612L196.364,106.791L207.273,110.827L218.182,115.374L229.091,200.829L240,204.298L250.909,209.073L261.818,213.184L272.727,217.262L283.636,221.698L294.545,226.119L305.455,231.127L316.364,236.969L327.273,243.755L338.182,250.433L349.091,256.527L360,262.841L370.909,267.556L381.818,272.54L392.727,275.813L403.636,278.857L414.545,281.006L425.455,282.103L436.364,283.793L447.273,283.906L458.182,284.494L469.091,285.083L480,286.066L490.909,286.815L501.818,287.945L512.727,289.038L523.636,290.621L534.545,292.979L545.455,295.252L556.364,297.253L567.273,299.345L578.182,302.202L589.091,306.119L600,308.692L600,251.375L589.091,249.424L578.182,247.509L567.273,245.85L556.364,244.386L545.455,243.368L534.545,242.105L523.636,240.716L512.727,239.61L501.818,239.25L490.909,239.069L480,238.589L469.091,238.759L458.182,238.87L447.273,238.956L436.364,238.973L425.455,238.287L414.545,237.049L403.636,235.816L392.727,233.668L381.818,230.464L370.909,226.767L360,221.558L349.091,215.602L338.182,209.215L327.273,202.964L316.364,196.792L305.455,191.171L294.545,186.176L283.636,181.928L272.727,177.661L261.818,173.641L250.909,169.876L240,165.183L229.091,160.81L218.182,66.437L207.273,62.719L196.364,59.229L185.455,55.652L174.545,53.764L163.636,52.868L152.727,53.363L141.818,54.047L130.909,57.524L120,61.559L109.091,65.169L98.182,69.429L87.273,74.227L76.364,79.399L65.455,84.803L54.545,90.1L43.636,93.574L32.727,97.436L21.818,99.305L10.909,101.292Z" fill="blue" opacity="0.3"/></g></g><path class="foreground" aria-hidden="true" d="" display="none"/></g></g><g class="mark-group role-scope layer_1_pathgroup" role="graphics-object" aria-roledescription="group mark container"><g transform="translate(0,0)"><path class="background" aria-hidden="true" d="M0,0h600v400h-600Z"/><g><g class="mark-line role-mark layer_1_marks" role="graphics-object" aria-roledescription="line mark container"><path aria-label="年齢: 41; spend50p: 482.953656325; group_label: 定額取り崩し（ベースライン）" role="graphics-symbol" aria-roledescription="line mark" d="M10.909,95.455L21.818,89.76L32.727,83.767L43.636,77.644L54.545,71.69L65.455,65.752L76.364,59.871L87.273,54.334L98.182,49.234L109.091,44.724L120,41.018L130.909,38.335L141.818,36.861L152.727,36.703L163.636,38.348L174.545,41.873L185.455,46.623L196.364,52.526L207.273,59L218.182,65.728L229.091,156.349L240,163.327L250.909,169.998L261.818,176.307L272.727,182.442L283.636,188.592L294.545,195.143L305.455,202.338L316.364,209.979L327.273,217.889L338.182,226.101L349.091,234.642L360,241.848L370.909,248.688L381.818,254.48L392.727,259.465L403.636,263.921L414.545,267.526L425.455,270.146L436.364,272.823L447.273,275.002L458.182,277.36L469.091,279.079L480,281.142L490.909,283.651L501.818,285.639L512.727,288.823L523.636,291.44L534.545,294.742L545.455,298.213L556.364,301.416L567.273,305.374L578.182,309.232L589.091,313.101L600,317.87" stroke="green" stroke-width="2"/></g></g><path class="foreground" aria-hidden="true" d="" display="none"/></g><g transform="translate(0,0)"><path class="background" aria-hidden="true" d="M0,0h600v400h-600Z"/><g><g class="mark-line role-mark layer_1_marks" role="graphics-object" aria-roledescription="line mark container"><path aria-label="年齢: 41; spend50p: 479.453477708; group_label: 支出率を目標にする@ダイナミックスペンディング" role="graphics-symbol" aria-roledescription="line mark" d="M10.909,97.455L21.818,88.978L32.727,80.347L43.636,78.017L54.545,69.571L65.455,66.558L76.364,59.242L87.273,57.884L98.182,53.519L109.091,50.372L120,51.147L130.909,52.683L141.818,53.773L152.727,55.392L163.636,60.097L174.545,67.323L185.455,75.269L196.364,82.305L207.273,89.106L218.182,98.631L229.091,188.652L240,197.611L250.909,205.772L261.818,213.153L272.727,221.158L283.636,228.634L294.545,235.811L305.455,243.4L316.364,251.224L327.273,259.766L338.182,267.234L349.091,274.666L360,282.4L370.909,288.439L381.818,294.251L392.727,298.816L403.636,302.517L414.545,305.901L425.455,309.001L436.364,311.665L447.273,314.311L458.182,315.833L469.091,318.371L480,320.774L490.909,322.912L501.818,325.026L512.727,328.192L523.636,330.097L534.545,333.071L545.455,336.167L556.364,338.514L567.273,341.584L578.182,344.482L589.091,348.241L600,352.225" stroke="red" stroke-width="2"/></g></g><path class="foreground" aria-hidden="true" d="" display="none"/></g><g transform="translate(0,0)"><path class="background" aria-hidden="true" d="M0,0h600v400h-600Z"/><g><g class="mark-line role-mark layer_1_marks" role="graphics-object" aria-roledescription="line mark container"><path aria-label="年齢: 41; spend50p: 472.586641323; group_label: 生存確率を目標にする@ダイナミックスペンディング" role="graphics-symbol" aria-roledescription="line mark" d="M10.909,101.379L21.818,99.439L32.727,97.617L43.636,95.887L54.545,94.267L65.455,92.653L76.364,87.763L87.273,82.876L98.182,78.399L109.091,75.902L120,73.837L130.909,72.142L141.818,70.382L152.727,69.042L163.636,69.64L174.545,71.628L185.455,75.741L196.364,79.983L207.273,83.242L218.182,88.496L229.091,176.689L240,181.679L250.909,185.837L261.818,189.933L272.727,194.128L283.636,198.586L294.545,202.839L305.455,207.942L316.364,213.307L327.273,219.203L338.182,226.087L349.091,232.588L360,239.191L370.909,243.92L381.818,247.981L392.727,251.375L403.636,253.706L414.545,255.857L425.455,257.031L436.364,258.015L447.273,259.013L458.182,258.945L469.091,259.253L480,259.298L490.909,259.417L501.818,260.379L512.727,261.569L523.636,262.25L534.545,263.545L545.455,266.004L556.364,268.035L567.273,270.526L578.182,272.25L589.091,274.055L600,276.516" stroke="blue" stroke-width="2"/></g></g><path class="foreground" aria-hidden="true" d="" display="none"/></g></g><g class="mark-group role-legend" role="graphics-symbol" aria-roledescription="legend" aria-label="Symbol legend titled '戦略' for fill color and stroke color with 3 values: 支出率を目標にする@ダイナミックスペンディング, 生存確率を目標にする@ダイナミックスペンディング, 定額取り崩し（ベースライン）"><g transform="translate(0,-57)"><path class="background" aria-hidden="true" d="M0,0h470v39h-470Z" pointer-events="none"/><g><g class="mark-group role-legend-entry"><g transform="translate(0,16)"><path class="background" aria-hidden="true" d="M0,0h0v0h0Z" pointer-events="none"/><g><g class="mark-group role-scope" role="graphics-object" aria-roledescription="group mark container"><g transform="translate(0,0)"><path class="background" aria-hidden="true" d="M0,0h146v23h-146Z" pointer-events="none" opacity="1"/><g><g class="mark-symbol role-legend-symbol" pointer-events="none"><path transform="translate(6,6)" d="M5,0A5,5,0,1,1,-5,0A5,5,0,1,1,5,0" fill="red" stroke="red" stroke-width="1.5" opacity="0.3"/></g><g class="mark-text role-legend-label" pointer-events="none"><text text-anchor="start" transform="translate(16,9)" font-family="sans-serif" font-size="10px" fill="#000" opacity="1"><tspan>支出率を目標にする</tspan><tspan x="0" dy="12">ダイナミックスペンディング</tspan></text></g></g><path class="foreground" aria-hidden="true" d="" pointer-events="none" display="none"/></g><g transform="translate(157,0)"><path class="background" aria-hidden="true" d="M0,0h146v23h-146Z" pointer-events="none" opacity="1"/><g><g class="mark-symbol role-legend-symbol" pointer-events="none"><path transform="translate(6,6)" d="M5,0A5,5,0,1,1,-5,0A5,5,0,1,1,5,0" fill="blue" stroke="blue" stroke-width="1.5" opacity="0.3"/></g><g class="mark-text role-legend-label" pointer-events="none"><text text-anchor="start" transform="translate(16,9)" font-family="sans-serif" font-size="10px" fill="#000" opacity="1"><tspan>生存確率を目標にする</tspan><tspan x="0" dy="12">ダイナミックスペンディング</tspan></text></g></g><path class="foreground" aria-hidden="true" d="" pointer-events="none" display="none"/></g><g transform="translate(314,5.25)"><path class="background" aria-hidden="true" d="M0,0h156v12.5h-156Z" pointer-events="none" opacity="1"/><g><g class="mark-symbol role-legend-symbol" pointer-events="none"><path transform="translate(6,6)" d="M5,0A5,5,0,1,1,-5,0A5,5,0,1,1,5,0" fill="green" stroke="green" stroke-width="1.5" opacity="0.3"/></g><g class="mark-text role-legend-label" pointer-events="none"><text text-anchor="start" transform="translate(16,9)" font-family="sans-serif" font-size="10px" fill="#000" opacity="1">定額取り崩し（ベースライン）</text></g></g><path class="foreground" aria-hidden="true" d="" pointer-events="none" display="none"/></g></g></g><path class="foreground" aria-hidden="true" d="" pointer-events="none" display="none"/></g></g><g class="mark-text role-legend-title" pointer-events="none"><text text-anchor="start" transform="translate(0,9)" font-family="sans-serif" font-size="11px" font-weight="bold" fill="#000" opacity="1">戦略</text></g></g><path class="foreground" aria-hidden="true" d="" pointer-events="none" display="none"/></g></g><g class="mark-group role-title"><g transform="translate(300,-74)"><path class="background" aria-hidden="true" d="M0,0h0v0h0Z" pointer-events="none"/><g><g class="mark-text role-title-text" role="graphics-symbol" aria-roledescription="title" aria-label="Title text '実質支出額の推移比較 (初期支出率: 3.5%, 共通生存パスのみ)'" pointer-events="none"><text text-anchor="middle" transform="translate(0,10)" font-family="sans-serif" font-size="13px" font-weight="bold" fill="#000" opacity="1">実質支出額の推移比較 (初期支出率: 3.5%, 共通生存パスのみ)</text></g></g><path class="foreground" aria-hidden="true" d="" pointer-events="none" display="none"/></g></g></g><path class="foreground" aria-hidden="true" d="" display="none"/></g></g></g></svg>