<svg xmlns="http://www.w3.org/2000/svg" xmlns:xlink="http://www.w3.org/1999/xlink" version="1.1" class="marks" width="651" height="516" viewBox="0 0 651 516"><rect width="651" height="516" fill="white"/><g fill="none" stroke-miterlimit="10" transform="translate(44,79)"><g class="mark-group role-frame root" role="graphics-object" aria-roledescription="group mark container"><g transform="translate(0,0)"><path class="background" aria-hidden="true" d="M0.5,0.5h600v400h-600Z" stroke="#ddd"/><g><g class="mark-group role-axis" aria-hidden="true"><g transform="translate(0.5,400.5)"><path class="background" aria-hidden="true" d="M0,0h0v0h0Z" pointer-events="none"/><g><g class="mark-rule role-axis-grid" pointer-events="none"><line transform="translate(0,-400)" x2="0" y2="400" stroke="#ddd" stroke-width="1" opacity="1"/><line transform="translate(55,-400)" x2="0" y2="400" stroke="#ddd" stroke-width="1" opacity="1"/><line transform="translate(109,-400)" x2="0" y2="400" stroke="#ddd" stroke-width="1" opacity="1"/><line transform="translate(164,-400)" x2="0" y2="400" stroke="#ddd" stroke-width="1" opacity="1"/><line transform="translate(218,-400)" x2="0" y2="400" stroke="#ddd" stroke-width="1" opacity="1"/><line transform="translate(273,-400)" x2="0" y2="400" stroke="#ddd" stroke-width="1" opacity="1"/><line transform="translate(327,-400)" x2="0" y2="400" stroke="#ddd" stroke-width="1" opacity="1"/><line transform="translate(382,-400)" x2="0" y2="400" stroke="#ddd" stroke-width="1" opacity="1"/><line transform="translate(436,-400)" x2="0" y2="400" stroke="#ddd" stroke-width="1" opacity="1"/><line transform="translate(491,-400)" x2="0" y2="400" stroke="#ddd" stroke-width="1" opacity="1"/><line transform="translate(545,-400)" x2="0" y2="400" stroke="#ddd" stroke-width="1" opacity="1"/><line transform="translate(600,-400)" x2="0" y2="400" stroke="#ddd" stroke-width="1" opacity="1"/></g></g><path class="foreground" aria-hidden="true" d="" pointer-events="none" display="none"/></g></g><g class="mark-group role-axis" aria-hidden="true"><g transform="translate(0.5,0.5)"><path class="background" aria-hidden="true" d="M0,0h0v0h0Z" pointer-events="none"/><g><g class="mark-rule role-axis-grid" pointer-events="none"><line transform="translate(0,400)" x2="600" y2="0" stroke="#ddd" stroke-width="1" opacity="1"/><line transform="translate(0,367)" x2="600" y2="0" stroke="#ddd" stroke-width="1" opacity="1"/><line transform="translate(0,333)" x2="600" y2="0" stroke="#ddd" stroke-width="1" opacity="1"/><line transform="translate(0,300)" x2="600" y2="0" stroke="#ddd" stroke-width="1" opacity="1"/><line transform="translate(0,267)" x2="600" y2="0" stroke="#ddd" stroke-width="1" opacity="1"/><line transform="translate(0,233)" x2="600" y2="0" stroke="#ddd" stroke-width="1" opacity="1"/><line transform="translate(0,200)" x2="600" y2="0" stroke="#ddd" stroke-width="1" opacity="1"/><line transform="translate(0,167)" x2="600" y2="0" stroke="#ddd" stroke-width="1" opacity="1"/><line transform="translate(0,133)" x2="600" y2="0" stroke="#ddd" stroke-width="1" opacity="1"/><line transform="translate(0,100)" x2="600" y2="0" stroke="#ddd" stroke-width="1" opacity="1"/><line transform="translate(0,67)" x2="600" y2="0" stroke="#ddd" stroke-width="1" opacity="1"/><line transform="translate(0,33)" x2="600" y2="0" stroke="#ddd" stroke-width="1" opacity="1"/><line transform="translate(0,0)" x2="600" y2="0" stroke="#ddd" stroke-width="1" opacity="1"/></g></g><path class="foreground" aria-hidden="true" d="" pointer-events="none" display="none"/></g></g><g class="mark-group role-axis" role="graphics-symbol" aria-roledescription="axis" aria-label="X-axis titled '年齢' for a linear scale with values from 40 to 95"><g transform="translate(0.5,400.5)"><path class="background" aria-hidden="true" d="M0,0h0v0h0Z" pointer-events="none"/><g><g class="mark-rule role-axis-tick" pointer-events="none"><line transform="translate(0,0)" x2="0" y2="5" stroke="#888" stroke-width="1" opacity="1"/><line transform="translate(55,0)" x2="0" y2="5" stroke="#888" stroke-width="1" opacity="1"/><line transform="translate(109,0)" x2="0" y2="5" stroke="#888" stroke-width="1" opacity="1"/><line transform="translate(164,0)" x2="0" y2="5" stroke="#888" stroke-width="1" opacity="1"/><line transform="translate(218,0)" x2="0" y2="5" stroke="#888" stroke-width="1" opacity="1"/><line transform="translate(273,0)" x2="0" y2="5" stroke="#888" stroke-width="1" opacity="1"/><line transform="translate(327,0)" x2="0" y2="5" stroke="#888" stroke-width="1" opacity="1"/><line transform="translate(382,0)" x2="0" y2="5" stroke="#888" stroke-width="1" opacity="1"/><line transform="translate(436,0)" x2="0" y2="5" stroke="#888" stroke-width="1" opacity="1"/><line transform="translate(491,0)" x2="0" y2="5" stroke="#888" stroke-width="1" opacity="1"/><line transform="translate(545,0)" x2="0" y2="5" stroke="#888" stroke-width="1" opacity="1"/><line transform="translate(600,0)" x2="0" y2="5" stroke="#888" stroke-width="1" opacity="1"/></g><g class="mark-text role-axis-label" pointer-events="none"><text text-anchor="start" transform="translate(0,15)" font-family="sans-serif" font-size="10px" fill="#000" opacity="1">40</text><text text-anchor="middle" transform="translate(54.54545454545455,15)" font-family="sans-serif" font-size="10px" fill="#000" opacity="1">45</text><text text-anchor="middle" transform="translate(109.0909090909091,15)" font-family="sans-serif" font-size="10px" fill="#000" opacity="1">50</text><text text-anchor="middle" transform="translate(163.63636363636363,15)" font-family="sans-serif" font-size="10px" fill="#000" opacity="1">55</text><text text-anchor="middle" transform="translate(218.1818181818182,15)" font-family="sans-serif" font-size="10px" fill="#000" opacity="1">60</text><text text-anchor="middle" transform="translate(272.7272727272727,15)" font-family="sans-serif" font-size="10px" fill="#000" opacity="1">65</text><text text-anchor="middle" transform="translate(327.27272727272725,15)" font-family="sans-serif" font-size="10px" fill="#000" opacity="1">70</text><text text-anchor="middle" transform="translate(381.8181818181818,15)" font-family="sans-serif" font-size="10px" fill="#000" opacity="1">75</text><text text-anchor="middle" transform="translate(436.3636363636364,15)" font-family="sans-serif" font-size="10px" fill="#000" opacity="1">80</text><text text-anchor="middle" transform="translate(490.90909090909093,15)" font-family="sans-serif" font-size="10px" fill="#000" opacity="1">85</text><text text-anchor="middle" transform="translate(545.4545454545454,15)" font-family="sans-serif" font-size="10px" fill="#000" opacity="1">90</text><text text-anchor="end" transform="translate(600,15)" font-family="sans-serif" font-size="10px" fill="#000" opacity="1">95</text></g><g class="mark-rule role-axis-domain" pointer-events="none"><line transform="translate(0,0)" x2="600" y2="0" stroke="#888" stroke-width="1" opacity="1"/></g><g class="mark-text role-axis-title" pointer-events="none"><text text-anchor="middle" transform="translate(300,30)" font-family="sans-serif" font-size="11px" font-weight="bold" fill="#000" opacity="1">年齢</text></g></g><path class="foreground" aria-hidden="true" d="" pointer-events="none" display="none"/></g></g><g class="mark-group role-axis" role="graphics-symbol" aria-roledescription="axis" aria-label="Y-axis titled '年間取り崩し額 (万円)' for a linear scale with values from 0 to 600"><g transform="translate(0.5,0.5)"><path class="background" aria-hidden="true" d="M0,0h0v0h0Z" pointer-events="none"/><g><g class="mark-rule role-axis-tick" pointer-events="none"><line transform="translate(0,400)" x2="-5" y2="0" stroke="#888" stroke-width="1" opacity="1"/><line transform="translate(0,367)" x2="-5" y2="0" stroke="#888" stroke-width="1" opacity="1"/><line transform="translate(0,333)" x2="-5" y2="0" stroke="#888" stroke-width="1" opacity="1"/><line transform="translate(0,300)" x2="-5" y2="0" stroke="#888" stroke-width="1" opacity="1"/><line transform="translate(0,267)" x2="-5" y2="0" stroke="#888" stroke-width="1" opacity="1"/><line transform="translate(0,233)" x2="-5" y2="0" stroke="#888" stroke-width="1" opacity="1"/><line transform="translate(0,200)" x2="-5" y2="0" stroke="#888" stroke-width="1" opacity="1"/><line transform="translate(0,167)" x2="-5" y2="0" stroke="#888" stroke-width="1" opacity="1"/><line transform="translate(0,133)" x2="-5" y2="0" stroke="#888" stroke-width="1" opacity="1"/><line transform="translate(0,100)" x2="-5" y2="0" stroke="#888" stroke-width="1" opacity="1"/><line transform="translate(0,67)" x2="-5" y2="0" stroke="#888" stroke-width="1" opacity="1"/><line transform="translate(0,33)" x2="-5" y2="0" stroke="#888" stroke-width="1" opacity="1"/><line transform="translate(0,0)" x2="-5" y2="0" stroke="#888" stroke-width="1" opacity="1"/></g><g class="mark-text role-axis-label" pointer-events="none"><text text-anchor="end" transform="translate(-7,403)" font-family="sans-serif" font-size="10px" fill="#000" opacity="1">0</text><text text-anchor="end" transform="translate(-7,369.66666666666663)" font-family="sans-serif" font-size="10px" fill="#000" opacity="1">50</text><text text-anchor="end" transform="translate(-7,336.33333333333337)" font-family="sans-serif" font-size="10px" fill="#000" opacity="1">100</text><text text-anchor="end" transform="translate(-7,303)" font-family="sans-serif" font-size="10px" fill="#000" opacity="1">150</text><text text-anchor="end" transform="translate(-7,269.6666666666667)" font-family="sans-serif" font-size="10px" fill="#000" opacity="1">200</text><text text-anchor="end" transform="translate(-7,236.33333333333331)" font-family="sans-serif" font-size="10px" fill="#000" opacity="1">250</text><text text-anchor="end" transform="translate(-7,203)" font-family="sans-serif" font-size="10px" fill="#000" opacity="1">300</text><text text-anchor="end" transform="translate(-7,169.66666666666666)" font-family="sans-serif" font-size="10px" fill="#000" opacity="1">350</text><text text-anchor="end" transform="translate(-7,136.33333333333334)" font-family="sans-serif" font-size="10px" fill="#000" opacity="1">400</text><text text-anchor="end" transform="translate(-7,103)" font-family="sans-serif" font-size="10px" fill="#000" opacity="1">450</text><text text-anchor="end" transform="translate(-7,69.66666666666666)" font-family="sans-serif" font-size="10px" fill="#000" opacity="1">500</text><text text-anchor="end" transform="translate(-7,36.33333333333335)" font-family="sans-serif" font-size="10px" fill="#000" opacity="1">550</text><text text-anchor="end" transform="translate(-7,3)" font-family="sans-serif" font-size="10px" fill="#000" opacity="1">600</text></g><g class="mark-rule role-axis-domain" pointer-events="none"><line transform="translate(0,400)" x2="0" y2="-400" stroke="#888" stroke-width="1" opacity="1"/></g><g class="mark-text role-axis-title" pointer-events="none"><text text-anchor="middle" transform="translate(-27.6845703125,200) rotate(-90) translate(0,-2)" font-family="sans-serif" font-size="11px" font-weight="bold" fill="#000" opacity="1">年間取り崩し額 (万円)</text></g></g><path class="foreground" aria-hidden="true" d="" pointer-events="none" display="none"/></g></g><g class="mark-group role-scope layer_0_pathgroup" role="graphics-object" aria-roledescription="group mark container"><g transform="translate(0,0)"><path class="background" aria-hidden="true" d="M0,0h600v400h-600Z"/><g><g class="mark-area role-mark layer_0_marks" role="graphics-object" aria-roledescription="area mark container"><path aria-label="年齢: 41; 年間取り崩し額 (万円): 478.536350223; spend75p: 485.250710233; 戦略: 定額取り崩し（ベースライン）" role="graphics-symbol" aria-roledescription="area mark" d="M10.909,80.976L21.818,75.146L32.727,68.514L43.636,61.635L54.545,54.647L65.455,48.003L76.364,41.453L87.273,35.017L98.182,28.933L109.091,23.985L120,19.932L130.909,16.873L141.818,15.303L152.727,15.26L163.636,17.125L174.545,20.856L185.455,26.683L196.364,33.192L207.273,40.614L218.182,48.508L229.091,159.227L240,167.733L250.909,175.764L261.818,183.569L272.727,191.262L283.636,199.477L294.545,207.854L305.455,216.967L316.364,226.26L327.273,236.406L338.182,246.426L349.091,256.629L360,265.853L370.909,274.584L381.818,281.571L392.727,288.175L403.636,293.18L414.545,297.829L425.455,301.97L436.364,305.865L447.273,309.303L458.182,312.776L469.091,315.397L480,318.795L490.909,322.809L501.818,326.177L512.727,331.016L523.636,335.982L534.545,341.557L545.455,346.953L556.364,351.932L567.273,357.968L578.182,363.976L589.091,369.34L600,376.11L600,321.911L589.091,317.307L578.182,313.225L567.273,309.079L556.364,305.019L545.455,300.257L534.545,296.377L523.636,293.142L512.727,289.548L501.818,286.54L490.909,283.776L480,281.074L469.091,279.198L458.182,276.677L447.273,274.361L436.364,272.558L425.455,270.003L414.545,266.767L403.636,262.871L392.727,258.106L381.818,252.986L370.909,246.021L360,238.423L349.091,230.001L338.182,221.127L327.273,211.644L316.364,202.341L305.455,194.173L294.545,185.884L283.636,178.032L272.727,170.797L261.818,163.39L250.909,156.479L240,148.805L229.091,140.999L218.182,39.752L207.273,31.776L196.364,24.071L185.455,17.145L174.545,11.418L163.636,7.663L152.727,5.813L141.818,5.929L130.909,7.377L120,10.481L109.091,14.871L98.182,20.585L87.273,26.57L76.364,33.105L65.455,40.15L54.545,47.344L43.636,54.44L32.727,61.689L21.818,69.256L10.909,76.5Z" fill="green" opacity="0.3"/></g></g><path class="foreground" aria-hidden="true" d="" display="none"/></g><g transform="translate(0,0)"><path class="background" aria-hidden="true" d="M0,0h600v400h-600Z"/><g><g class="mark-area role-mark layer_0_marks" role="graphics-object" aria-roledescription="area mark container"><path aria-label="年齢: 41; 年間取り崩し額 (万円): 498.603906665; spend75p: 498.890347629; 戦略: 支出率を目標にする@ダイナミックスペンディング" role="graphics-symbol" aria-roledescription="area mark" d="M10.909,67.597L21.818,72.332L32.727,76.962L43.636,81.528L54.545,86.037L65.455,90.474L76.364,94.842L87.273,99.093L98.182,103.317L109.091,106.412L120,108.938L130.909,112.016L141.818,114.052L152.727,117.869L163.636,121.752L174.545,125.57L185.455,129.303L196.364,130.828L207.273,131.464L218.182,134.72L229.091,230.469L240,230.87L250.909,232.343L261.818,233.658L272.727,233.959L283.636,234.787L294.545,236.03L305.455,236.302L316.364,238.288L327.273,241.102L338.182,243.554L349.091,246.493L360,249.15L370.909,253.281L381.818,255.392L392.727,258.293L403.636,260.663L414.545,264.269L425.455,267.061L436.364,269.42L447.273,273.326L458.182,276.211L469.091,280.575L480,282.94L490.909,285.349L501.818,288.485L512.727,291.602L523.636,295.383L534.545,298.479L545.455,300.791L556.364,303.065L567.273,305.81L578.182,309.203L589.091,312.314L600,315.418L600,164.532L589.091,164.659L578.182,165.749L567.273,164.169L556.364,164.629L545.455,163.506L534.545,164.725L523.636,163.014L512.727,161.539L501.818,162.033L490.909,161.433L480,160.918L469.091,158.824L458.182,157.449L447.273,157.716L436.364,157.699L425.455,157.338L414.545,154.633L403.636,154.941L392.727,153.372L381.818,151.691L370.909,149.902L360,148.392L349.091,148.804L338.182,148.448L327.273,147.737L316.364,147.415L305.455,147.522L294.545,147.583L283.636,147.88L272.727,148.954L261.818,149.5L250.909,150.071L240,152.407L229.091,153.912L218.182,52.34L207.273,51.032L196.364,53.169L185.455,49.9L174.545,51.517L163.636,50.846L152.727,49.751L141.818,50.981L130.909,48.283L120,51.323L109.091,50.374L98.182,49.975L87.273,53.14L76.364,56.338L65.455,59.521L54.545,62.626L43.636,65.437L32.727,61.467L21.818,64.43L10.909,67.406Z" fill="red" opacity="0.3"/></g></g><path class="foreground" aria-hidden="true" d="" display="none"/></g><g transform="translate(0,0)"><path class="background" aria-hidden="true" d="M0,0h600v400h-600Z"/><g><g class="mark-area role-mark layer_0_marks" role="graphics-object" aria-roledescription="area mark container"><path aria-label="年齢: 41; 年間取り崩し額 (万円): 473.626015742; spend75p: 473.912456705; 戦略: 生存確率を目標にする@ダイナミックスペンディング" role="graphics-symbol" aria-roledescription="area mark" d="M10.909,84.249L21.818,87.59L32.727,91.547L43.636,96.715L54.545,102.208L65.455,106.83L76.364,112.728L87.273,116.718L98.182,121.909L109.091,127.26L120,131.149L130.909,135.894L141.818,140.528L152.727,145.885L163.636,150.98L174.545,155.965L185.455,161.491L196.364,167.248L207.273,173.606L218.182,176.634L229.091,274.841L240,279.533L250.909,284.247L261.818,289.514L272.727,294.563L283.636,298.955L294.545,302.72L305.455,307.376L316.364,312.667L327.273,318.971L338.182,323.196L349.091,330.246L360,336.862L370.909,341.816L381.818,346.165L392.727,348.31L403.636,350.106L414.545,352.822L425.455,353.521L436.364,355.173L447.273,358.206L458.182,358.492L469.091,358.543L480,358.372L490.909,359.813L501.818,361.812L512.727,363.207L523.636,364.256L534.545,367.234L545.455,369.664L556.364,372.061L567.273,373.795L578.182,375.943L589.091,378.428L600,380.906L600,214.129L589.091,206.537L578.182,200.913L567.273,200.394L556.364,201.349L545.455,198.637L534.545,198.091L523.636,195.567L512.727,197.933L501.818,197.905L490.909,199.876L480,202.054L469.091,205.725L458.182,205.583L447.273,204.922L436.364,204.166L425.455,207.396L414.545,208.553L403.636,206.294L392.727,199.398L381.818,197.86L370.909,193.649L360,190.258L349.091,184.44L338.182,175.726L327.273,168.472L316.364,165.013L305.455,157.761L294.545,152.442L283.636,148.832L272.727,143.565L261.818,140.2L250.909,138.813L240,135.225L229.091,131.166L218.182,17.644L207.273,18.526L196.364,17.21L185.455,15.665L174.545,14.859L163.636,17.567L152.727,20.115L141.818,23.925L130.909,28.109L120,31.853L109.091,37.212L98.182,41.504L87.273,46.347L76.364,51.49L65.455,57.203L54.545,62.4L43.636,68.312L32.727,73.968L21.818,79.495L10.909,84.058Z" fill="blue" opacity="0.3"/></g></g><path class="foreground" aria-hidden="true" d="" display="none"/></g></g><g class="mark-group role-scope layer_1_pathgroup" role="graphics-object" aria-roledescription="group mark container"><g transform="translate(0,0)"><path class="background" aria-hidden="true" d="M0,0h600v400h-600Z"/><g><g class="mark-line role-mark layer_1_marks" role="graphics-object" aria-roledescription="line mark container"><path aria-label="年齢: 41; spend50p: 481.845245909; group_label: 定額取り崩し（ベースライン）" role="graphics-symbol" aria-roledescription="line mark" d="M10.909,78.77L21.818,72.125L32.727,65.133L43.636,57.99L54.545,51.044L65.455,44.115L76.364,37.255L87.273,30.799L98.182,24.848L109.091,19.608L120,15.277L130.909,12.124L141.818,10.398L152.727,10.303L163.636,12.171L174.545,16.336L185.455,21.876L196.364,28.694L207.273,36.446L218.182,44.163L229.091,149.368L240,157.43L250.909,165.385L261.818,172.646L272.727,179.689L283.636,187.004L294.545,194.775L305.455,203.123L316.364,212.16L327.273,221.361L338.182,231.324L349.091,241.126L360,249.753L370.909,257.261L381.818,264.153L392.727,270.208L403.636,275.226L414.545,279.472L425.455,283.176L436.364,286.383L447.273,289.452L458.182,292.041L469.091,294.557L480,297.575L490.909,300.18L501.818,303.74L512.727,307.218L523.636,311.272L534.545,315.395L545.455,320.074L556.364,324.174L567.273,329.03L578.182,333.994L589.091,339.044L600,344.194" stroke="green" stroke-width="2"/></g></g><path class="foreground" aria-hidden="true" d="" display="none"/></g><g transform="translate(0,0)"><path class="background" aria-hidden="true" d="M0,0h600v400h-600Z"/><g><g class="mark-line role-mark layer_1_marks" role="graphics-object" aria-roledescription="line mark container"><path aria-label="年齢: 41; spend50p: 498.745067292; group_label: 支出率を目標にする@ダイナミックスペンディング" role="graphics-symbol" aria-roledescription="line mark" d="M10.909,67.503L21.818,72.105L32.727,69.425L43.636,73.833L54.545,74.12L65.455,75.574L76.364,78.561L87.273,77.264L98.182,81.582L109.091,84.396L120,84.089L130.909,87.832L141.818,90.401L152.727,91.157L163.636,93.662L174.545,95.553L185.455,95.968L196.364,99.403L207.273,100.82L218.182,101.339L229.091,195.994L240,197.05L250.909,197.964L261.818,199.167L272.727,201.148L283.636,202.193L294.545,203.212L305.455,205.669L316.364,207.123L327.273,208.612L338.182,209.754L349.091,211.704L360,213.848L370.909,215.689L381.818,216.635L392.727,216.971L403.636,218.893L414.545,220.333L425.455,223.615L436.364,224.24L447.273,227.536L458.182,229.888L469.091,232.728L480,234.543L490.909,236.584L501.818,239.328L512.727,241.389L523.636,241.882L534.545,243.864L545.455,245.261L556.364,247.677L567.273,248.05L578.182,251.809L589.091,254.799L600,257.112" stroke="red" stroke-width="2"/></g></g><path class="foreground" aria-hidden="true" d="" display="none"/></g><g transform="translate(0,0)"><path class="background" aria-hidden="true" d="M0,0h600v400h-600Z"/><g><g class="mark-line role-mark layer_1_marks" role="graphics-object" aria-roledescription="line mark container"><path aria-label="年齢: 41; spend50p: 473.767176369; group_label: 生存確率を目標にする@ダイナミックスペンディング" role="graphics-symbol" aria-roledescription="line mark" d="M10.909,84.155L21.818,83.448L32.727,82.851L43.636,82.198L54.545,82.584L65.455,82.758L76.364,82.533L87.273,83.444L98.182,83.651L109.091,83.849L120,84.222L130.909,85.997L141.818,88.479L152.727,91.37L163.636,93.225L174.545,96.999L185.455,100.675L196.364,105.902L207.273,108.486L218.182,113.44L229.091,215.906L240,221.912L250.909,225.423L261.818,230.571L272.727,233.503L283.636,237.394L294.545,240.401L305.455,246.814L316.364,250.468L327.273,257.004L338.182,264.63L349.091,271.297L360,276.474L370.909,281.678L381.818,286.384L392.727,290.187L403.636,292.339L414.545,293.503L425.455,294.719L436.364,295.365L447.273,297.213L458.182,299.095L469.091,300.158L480,300.475L490.909,301.826L501.818,301.229L512.727,301.808L523.636,301.929L534.545,305.372L545.455,305.411L556.364,307.492L567.273,304.985L578.182,306.718L589.091,308.913L600,311.451" stroke="blue" stroke-width="2"/></g></g><path class="foreground" aria-hidden="true" d="" display="none"/></g></g><g class="mark-group role-legend" role="graphics-symbol" aria-roledescription="legend" aria-label="Symbol legend titled '戦略' for fill color and stroke color with 3 values: 支出率を目標にする@ダイナミックスペンディング, 生存確率を目標にする@ダイナミックスペンディング, 定額取り崩し（ベースライン）"><g transform="translate(0,-57)"><path class="background" aria-hidden="true" d="M0,0h470v39h-470Z" pointer-events="none"/><g><g class="mark-group role-legend-entry"><g transform="translate(0,16)"><path class="background" aria-hidden="true" d="M0,0h0v0h0Z" pointer-events="none"/><g><g class="mark-group role-scope" role="graphics-object" aria-roledescription="group mark container"><g transform="translate(0,0)"><path class="background" aria-hidden="true" d="M0,0h146v23h-146Z" pointer-events="none" opacity="1"/><g><g class="mark-symbol role-legend-symbol" pointer-events="none"><path transform="translate(6,6)" d="M5,0A5,5,0,1,1,-5,0A5,5,0,1,1,5,0" fill="red" stroke="red" stroke-width="1.5" opacity="0.3"/></g><g class="mark-text role-legend-label" pointer-events="none"><text text-anchor="start" transform="translate(16,9)" font-family="sans-serif" font-size="10px" fill="#000" opacity="1"><tspan>支出率を目標にする</tspan><tspan x="0" dy="12">ダイナミックスペンディング</tspan></text></g></g><path class="foreground" aria-hidden="true" d="" pointer-events="none" display="none"/></g><g transform="translate(157,0)"><path class="background" aria-hidden="true" d="M0,0h146v23h-146Z" pointer-events="none" opacity="1"/><g><g class="mark-symbol role-legend-symbol" pointer-events="none"><path transform="translate(6,6)" d="M5,0A5,5,0,1,1,-5,0A5,5,0,1,1,5,0" fill="blue" stroke="blue" stroke-width="1.5" opacity="0.3"/></g><g class="mark-text role-legend-label" pointer-events="none"><text text-anchor="start" transform="translate(16,9)" font-family="sans-serif" font-size="10px" fill="#000" opacity="1"><tspan>生存確率を目標にする</tspan><tspan x="0" dy="12">ダイナミックスペンディング</tspan></text></g></g><path class="foreground" aria-hidden="true" d="" pointer-events="none" display="none"/></g><g transform="translate(314,5.25)"><path class="background" aria-hidden="true" d="M0,0h156v12.5h-156Z" pointer-events="none" opacity="1"/><g><g class="mark-symbol role-legend-symbol" pointer-events="none"><path transform="translate(6,6)" d="M5,0A5,5,0,1,1,-5,0A5,5,0,1,1,5,0" fill="green" stroke="green" stroke-width="1.5" opacity="0.3"/></g><g class="mark-text role-legend-label" pointer-events="none"><text text-anchor="start" transform="translate(16,9)" font-family="sans-serif" font-size="10px" fill="#000" opacity="1">定額取り崩し（ベースライン）</text></g></g><path class="foreground" aria-hidden="true" d="" pointer-events="none" display="none"/></g></g></g><path class="foreground" aria-hidden="true" d="" pointer-events="none" display="none"/></g></g><g class="mark-text role-legend-title" pointer-events="none"><text text-anchor="start" transform="translate(0,9)" font-family="sans-serif" font-size="11px" font-weight="bold" fill="#000" opacity="1">戦略</text></g></g><path class="foreground" aria-hidden="true" d="" pointer-events="none" display="none"/></g></g><g class="mark-group role-title"><g transform="translate(300,-74)"><path class="background" aria-hidden="true" d="M0,0h0v0h0Z" pointer-events="none"/><g><g class="mark-text role-title-text" role="graphics-symbol" aria-roledescription="title" aria-label="Title text '実質支出額の推移比較 (初期支出率: 4.5%, 共通生存パスのみ)'" pointer-events="none"><text text-anchor="middle" transform="translate(0,10)" font-family="sans-serif" font-size="13px" font-weight="bold" fill="#000" opacity="1">実質支出額の推移比較 (初期支出率: 4.5%, 共通生存パスのみ)</text></g></g><path class="foreground" aria-hidden="true" d="" pointer-events="none" display="none"/></g></g></g><path class="foreground" aria-hidden="true" d="" display="none"/></g></g></g></svg>