<svg xmlns="http://www.w3.org/2000/svg" xmlns:xlink="http://www.w3.org/1999/xlink" version="1.1" class="marks" width="651" height="516" viewBox="0 0 651 516"><rect width="651" height="516" fill="white"/><g fill="none" stroke-miterlimit="10" transform="translate(44,79)"><g class="mark-group role-frame root" role="graphics-object" aria-roledescription="group mark container"><g transform="translate(0,0)"><path class="background" aria-hidden="true" d="M0.5,0.5h600v400h-600Z" stroke="#ddd"/><g><g class="mark-group role-axis" aria-hidden="true"><g transform="translate(0.5,400.5)"><path class="background" aria-hidden="true" d="M0,0h0v0h0Z" pointer-events="none"/><g><g class="mark-rule role-axis-grid" pointer-events="none"><line transform="translate(0,-400)" x2="0" y2="400" stroke="#ddd" stroke-width="1" opacity="1"/><line transform="translate(55,-400)" x2="0" y2="400" stroke="#ddd" stroke-width="1" opacity="1"/><line transform="translate(109,-400)" x2="0" y2="400" stroke="#ddd" stroke-width="1" opacity="1"/><line transform="translate(164,-400)" x2="0" y2="400" stroke="#ddd" stroke-width="1" opacity="1"/><line transform="translate(218,-400)" x2="0" y2="400" stroke="#ddd" stroke-width="1" opacity="1"/><line transform="translate(273,-400)" x2="0" y2="400" stroke="#ddd" stroke-width="1" opacity="1"/><line transform="translate(327,-400)" x2="0" y2="400" stroke="#ddd" stroke-width="1" opacity="1"/><line transform="translate(382,-400)" x2="0" y2="400" stroke="#ddd" stroke-width="1" opacity="1"/><line transform="translate(436,-400)" x2="0" y2="400" stroke="#ddd" stroke-width="1" opacity="1"/><line transform="translate(491,-400)" x2="0" y2="400" stroke="#ddd" stroke-width="1" opacity="1"/><line transform="translate(545,-400)" x2="0" y2="400" stroke="#ddd" stroke-width="1" opacity="1"/><line transform="translate(600,-400)" x2="0" y2="400" stroke="#ddd" stroke-width="1" opacity="1"/></g></g><path class="foreground" aria-hidden="true" d="" pointer-events="none" display="none"/></g></g><g class="mark-group role-axis" aria-hidden="true"><g transform="translate(0.5,0.5)"><path class="background" aria-hidden="true" d="M0,0h0v0h0Z" pointer-events="none"/><g><g class="mark-rule role-axis-grid" pointer-events="none"><line transform="translate(0,400)" x2="600" y2="0" stroke="#ddd" stroke-width="1" opacity="1"/><line transform="translate(0,369)" x2="600" y2="0" stroke="#ddd" stroke-width="1" opacity="1"/><line transform="translate(0,338)" x2="600" y2="0" stroke="#ddd" stroke-width="1" opacity="1"/><line transform="translate(0,308)" x2="600" y2="0" stroke="#ddd" stroke-width="1" opacity="1"/><line transform="translate(0,277)" x2="600" y2="0" stroke="#ddd" stroke-width="1" opacity="1"/><line transform="translate(0,246)" x2="600" y2="0" stroke="#ddd" stroke-width="1" opacity="1"/><line transform="translate(0,215)" x2="600" y2="0" stroke="#ddd" stroke-width="1" opacity="1"/><line transform="translate(0,185)" x2="600" y2="0" stroke="#ddd" stroke-width="1" opacity="1"/><line transform="translate(0,154)" x2="600" y2="0" stroke="#ddd" stroke-width="1" opacity="1"/><line transform="translate(0,123)" x2="600" y2="0" stroke="#ddd" stroke-width="1" opacity="1"/><line transform="translate(0,92)" x2="600" y2="0" stroke="#ddd" stroke-width="1" opacity="1"/><line transform="translate(0,62)" x2="600" y2="0" stroke="#ddd" stroke-width="1" opacity="1"/><line transform="translate(0,31)" x2="600" y2="0" stroke="#ddd" stroke-width="1" opacity="1"/><line transform="translate(0,0)" x2="600" y2="0" stroke="#ddd" stroke-width="1" opacity="1"/></g></g><path class="foreground" aria-hidden="true" d="" pointer-events="none" display="none"/></g></g><g class="mark-group role-axis" role="graphics-symbol" aria-roledescription="axis" aria-label="X-axis titled '年齢' for a linear scale with values from 40 to 95"><g transform="translate(0.5,400.5)"><path class="background" aria-hidden="true" d="M0,0h0v0h0Z" pointer-events="none"/><g><g class="mark-rule role-axis-tick" pointer-events="none"><line transform="translate(0,0)" x2="0" y2="5" stroke="#888" stroke-width="1" opacity="1"/><line transform="translate(55,0)" x2="0" y2="5" stroke="#888" stroke-width="1" opacity="1"/><line transform="translate(109,0)" x2="0" y2="5" stroke="#888" stroke-width="1" opacity="1"/><line transform="translate(164,0)" x2="0" y2="5" stroke="#888" stroke-width="1" opacity="1"/><line transform="translate(218,0)" x2="0" y2="5" stroke="#888" stroke-width="1" opacity="1"/><line transform="translate(273,0)" x2="0" y2="5" stroke="#888" stroke-width="1" opacity="1"/><line transform="translate(327,0)" x2="0" y2="5" stroke="#888" stroke-width="1" opacity="1"/><line transform="translate(382,0)" x2="0" y2="5" stroke="#888" stroke-width="1" opacity="1"/><line transform="translate(436,0)" x2="0" y2="5" stroke="#888" stroke-width="1" opacity="1"/><line transform="translate(491,0)" x2="0" y2="5" stroke="#888" stroke-width="1" opacity="1"/><line transform="translate(545,0)" x2="0" y2="5" stroke="#888" stroke-width="1" opacity="1"/><line transform="translate(600,0)" x2="0" y2="5" stroke="#888" stroke-width="1" opacity="1"/></g><g class="mark-text role-axis-label" pointer-events="none"><text text-anchor="start" transform="translate(0,15)" font-family="sans-serif" font-size="10px" fill="#000" opacity="1">40</text><text text-anchor="middle" transform="translate(54.54545454545455,15)" font-family="sans-serif" font-size="10px" fill="#000" opacity="1">45</text><text text-anchor="middle" transform="translate(109.0909090909091,15)" font-family="sans-serif" font-size="10px" fill="#000" opacity="1">50</text><text text-anchor="middle" transform="translate(163.63636363636363,15)" font-family="sans-serif" font-size="10px" fill="#000" opacity="1">55</text><text text-anchor="middle" transform="translate(218.1818181818182,15)" font-family="sans-serif" font-size="10px" fill="#000" opacity="1">60</text><text text-anchor="middle" transform="translate(272.7272727272727,15)" font-family="sans-serif" font-size="10px" fill="#000" opacity="1">65</text><text text-anchor="middle" transform="translate(327.27272727272725,15)" font-family="sans-serif" font-size="10px" fill="#000" opacity="1">70</text><text text-anchor="middle" transform="translate(381.8181818181818,15)" font-family="sans-serif" font-size="10px" fill="#000" opacity="1">75</text><text text-anchor="middle" transform="translate(436.3636363636364,15)" font-family="sans-serif" font-size="10px" fill="#000" opacity="1">80</text><text text-anchor="middle" transform="translate(490.90909090909093,15)" font-family="sans-serif" font-size="10px" fill="#000" opacity="1">85</text><text text-anchor="middle" transform="translate(545.4545454545454,15)" font-family="sans-serif" font-size="10px" fill="#000" opacity="1">90</text><text text-anchor="end" transform="translate(600,15)" font-family="sans-serif" font-size="10px" fill="#000" opacity="1">95</text></g><g class="mark-rule role-axis-domain" pointer-events="none"><line transform="translate(0,0)" x2="600" y2="0" stroke="#888" stroke-width="1" opacity="1"/></g><g class="mark-text role-axis-title" pointer-events="none"><text text-anchor="middle" transform="translate(300,30)" font-family="sans-serif" font-size="11px" font-weight="bold" fill="#000" opacity="1">年齢</text></g></g><path class="foreground" aria-hidden="true" d="" pointer-events="none" display="none"/></g></g><g class="mark-group role-axis" role="graphics-symbol" aria-roledescription="axis" aria-label="Y-axis titled '年間取り崩し額 (万円)' for a linear scale with values from 0 to 650"><g transform="translate(0.5,0.5)"><path class="background" aria-hidden="true" d="M0,0h0v0h0Z" pointer-events="none"/><g><g class="mark-rule role-axis-tick" pointer-events="none"><line transform="translate(0,400)" x2="-5" y2="0" stroke="#888" stroke-width="1" opacity="1"/><line transform="translate(0,369)" x2="-5" y2="0" stroke="#888" stroke-width="1" opacity="1"/><line transform="translate(0,338)" x2="-5" y2="0" stroke="#888" stroke-width="1" opacity="1"/><line transform="translate(0,308)" x2="-5" y2="0" stroke="#888" stroke-width="1" opacity="1"/><line transform="translate(0,277)" x2="-5" y2="0" stroke="#888" stroke-width="1" opacity="1"/><line transform="translate(0,246)" x2="-5" y2="0" stroke="#888" stroke-width="1" opacity="1"/><line transform="translate(0,215)" x2="-5" y2="0" stroke="#888" stroke-width="1" opacity="1"/><line transform="translate(0,185)" x2="-5" y2="0" stroke="#888" stroke-width="1" opacity="1"/><line transform="translate(0,154)" x2="-5" y2="0" stroke="#888" stroke-width="1" opacity="1"/><line transform="translate(0,123)" x2="-5" y2="0" stroke="#888" stroke-width="1" opacity="1"/><line transform="translate(0,92)" x2="-5" y2="0" stroke="#888" stroke-width="1" opacity="1"/><line transform="translate(0,62)" x2="-5" y2="0" stroke="#888" stroke-width="1" opacity="1"/><line transform="translate(0,31)" x2="-5" y2="0" stroke="#888" stroke-width="1" opacity="1"/><line transform="translate(0,0)" x2="-5" y2="0" stroke="#888" stroke-width="1" opacity="1"/></g><g class="mark-text role-axis-label" pointer-events="none"><text text-anchor="end" transform="translate(-7,403)" font-family="sans-serif" font-size="10px" fill="#000" opacity="1">0</text><text text-anchor="end" transform="translate(-7,372.2307692307692)" font-family="sans-serif" font-size="10px" fill="#000" opacity="1">50</text><text text-anchor="end" transform="translate(-7,341.46153846153845)" font-family="sans-serif" font-size="10px" fill="#000" opacity="1">100</text><text text-anchor="end" transform="translate(-7,310.6923076923077)" font-family="sans-serif" font-size="10px" fill="#000" opacity="1">150</text><text text-anchor="end" transform="translate(-7,279.9230769230769)" font-family="sans-serif" font-size="10px" fill="#000" opacity="1">200</text><text text-anchor="end" transform="translate(-7,249.15384615384616)" font-family="sans-serif" font-size="10px" fill="#000" opacity="1">250</text><text text-anchor="end" transform="translate(-7,218.3846153846154)" font-family="sans-serif" font-size="10px" fill="#000" opacity="1">300</text><text text-anchor="end" transform="translate(-7,187.6153846153846)" font-family="sans-serif" font-size="10px" fill="#000" opacity="1">350</text><text text-anchor="end" transform="translate(-7,156.84615384615384)" font-family="sans-serif" font-size="10px" fill="#000" opacity="1">400</text><text text-anchor="end" transform="translate(-7,126.07692307692308)" font-family="sans-serif" font-size="10px" fill="#000" opacity="1">450</text><text text-anchor="end" transform="translate(-7,95.30769230769229)" font-family="sans-serif" font-size="10px" fill="#000" opacity="1">500</text><text text-anchor="end" transform="translate(-7,64.53846153846155)" font-family="sans-serif" font-size="10px" fill="#000" opacity="1">550</text><text text-anchor="end" transform="translate(-7,33.769230769230745)" font-family="sans-serif" font-size="10px" fill="#000" opacity="1">600</text><text text-anchor="end" transform="translate(-7,3)" font-family="sans-serif" font-size="10px" fill="#000" opacity="1">650</text></g><g class="mark-rule role-axis-domain" pointer-events="none"><line transform="translate(0,400)" x2="0" y2="-400" stroke="#888" stroke-width="1" opacity="1"/></g><g class="mark-text role-axis-title" pointer-events="none"><text text-anchor="middle" transform="translate(-27.6845703125,200) rotate(-90) translate(0,-2)" font-family="sans-serif" font-size="11px" font-weight="bold" fill="#000" opacity="1">年間取り崩し額 (万円)</text></g></g><path class="foreground" aria-hidden="true" d="" pointer-events="none" display="none"/></g></g><g class="mark-group role-scope layer_0_pathgroup" role="graphics-object" aria-roledescription="group mark container"><g transform="translate(0,0)"><path class="background" aria-hidden="true" d="M0,0h600v400h-600Z"/><g><g class="mark-area role-mark layer_0_marks" role="graphics-object" aria-roledescription="area mark container"><path aria-label="年齢: 41; 年間取り崩し額 (万円): 478.536350223; spend75p: 485.250710233; 戦略: 定額取り崩し（ベースライン）" role="graphics-symbol" aria-roledescription="area mark" d="M10.909,105.516L21.818,100.135L32.727,94.013L43.636,87.663L54.545,81.212L65.455,75.08L76.364,69.033L87.273,63.091L98.182,57.476L109.091,52.902L120,49.17L130.909,46.349L141.818,44.866L152.727,44.856L163.636,46.57L174.545,49.982L185.455,55.373L196.364,61.383L207.273,68.165L218.182,75.484L229.091,176.777L240,184.857L250.909,192.305L261.818,199.285L272.727,206.652L283.636,213.819L294.545,221.7L305.455,229.928L316.364,238.224L327.273,247.031L338.182,256.325L349.091,265.492L360,274.419L370.909,282.294L381.818,288.923L392.727,294.478L403.636,299.188L414.545,303.612L425.455,307.506L436.364,311.688L447.273,314.713L458.182,317.506L469.091,320.635L480,323.133L490.909,325.957L501.818,328.35L512.727,332.798L523.636,336.715L534.545,341.341L545.455,346.067L556.364,351.72L567.273,356.377L578.182,361.375L589.091,365.981L600,371.13L600,322.613L589.091,318.625L578.182,314.261L567.273,310.812L556.364,307.463L545.455,303.762L534.545,300.477L523.636,297.17L512.727,294.348L501.818,291.965L490.909,290.254L480,288.312L469.091,286.139L458.182,284.169L447.273,282.37L436.364,280.388L425.455,278.042L414.545,275.357L403.636,271.83L392.727,267.435L381.818,262.598L370.909,256.604L360,249.289L349.091,241.403L338.182,233.13L327.273,224.714L316.364,216.3L305.455,208.546L294.545,201.13L283.636,194.099L272.727,187.178L261.818,180.672L250.909,173.97L240,167.24L229.091,160.038L218.182,67.333L207.273,60.073L196.364,52.869L185.455,46.549L174.545,41.36L163.636,37.837L152.727,36.131L141.818,36.217L130.909,37.577L120,40.443L109.091,44.457L98.182,49.772L87.273,55.298L76.364,61.328L65.455,67.831L54.545,74.472L43.636,81.022L32.727,87.713L21.818,94.698L10.909,101.384Z" fill="green" opacity="0.3"/></g></g><path class="foreground" aria-hidden="true" d="" display="none"/></g><g transform="translate(0,0)"><path class="background" aria-hidden="true" d="M0,0h600v400h-600Z"/><g><g class="mark-area role-mark layer_0_marks" role="graphics-object" aria-roledescription="area mark container"><path aria-label="年齢: 41; 年間取り崩し額 (万円): 498.603906665; spend75p: 498.890347629; 戦略: 支出率を目標にする@ダイナミックスペンディング" role="graphics-symbol" aria-roledescription="area mark" d="M10.909,93.167L21.818,97.535L32.727,101.807L43.636,106.018L54.545,110.202L65.455,114.316L76.364,118.38L87.273,122.394L98.182,126.334L109.091,130.217L120,134.013L130.909,137.771L141.818,141.367L152.727,144.894L163.636,147.443L174.545,149.853L185.455,151.916L196.364,154.557L207.273,157.54L218.182,160.83L229.091,245.378L240,246.78L250.909,247.833L261.818,249.57L272.727,251.692L283.636,253.744L294.545,255.337L305.455,257.485L316.364,259.537L327.273,261.324L338.182,263.233L349.091,264.051L360,265.968L370.909,268.563L381.818,269.745L392.727,272.149L403.636,274.494L414.545,276.759L425.455,278.2L436.364,281.007L447.273,282.645L458.182,285.394L469.091,286.573L480,287.181L490.909,289.717L501.818,291.237L512.727,293.106L523.636,295.963L534.545,299.108L545.455,301.461L556.364,303.638L567.273,305.217L578.182,307.925L589.091,309.687L600,311.251L600,177.719L589.091,177.064L578.182,176.569L567.273,176.068L556.364,176.147L545.455,173.622L534.545,172.123L523.636,171.329L512.727,171.821L501.818,171.91L490.909,171.919L480,172.618L469.091,171.855L458.182,172.514L447.273,172.848L436.364,173.465L425.455,172.3L414.545,171.951L403.636,169.89L392.727,170.874L381.818,170.561L370.909,171.396L360,171.308L349.091,171.453L338.182,171.577L327.273,171.711L316.364,171.769L305.455,171.974L294.545,172.609L283.636,174.019L272.727,173.467L261.818,174.925L250.909,175.882L240,177.884L229.091,179.428L218.182,83.444L207.273,83.86L196.364,83.029L185.455,82.942L174.545,83.774L163.636,81.671L152.727,83.922L141.818,82.063L130.909,82.667L120,81.713L109.091,81.398L98.182,83.33L87.273,80.149L76.364,82.847L65.455,85.616L54.545,85.805L43.636,84.521L32.727,87.368L21.818,90.25L10.909,92.991Z" fill="red" opacity="0.3"/></g></g><path class="foreground" aria-hidden="true" d="" display="none"/></g><g transform="translate(0,0)"><path class="background" aria-hidden="true" d="M0,0h600v400h-600Z"/><g><g class="mark-area role-mark layer_0_marks" role="graphics-object" aria-roledescription="area mark container"><path aria-label="年齢: 41; 年間取り崩し額 (万円): 473.626015742; spend75p: 473.912456705; 戦略: 生存確率を目標にする@ダイナミックスペンディング" role="graphics-symbol" aria-roledescription="area mark" d="M10.909,108.538L21.818,110.842L32.727,113.381L43.636,117.013L54.545,119.911L65.455,123.846L76.364,127.252L87.273,129.383L98.182,132.38L109.091,134.114L120,137.043L130.909,139.431L141.818,141.355L152.727,145.671L163.636,149.35L174.545,152.446L185.455,159.288L196.364,166.295L207.273,171.456L218.182,177.404L229.091,266.667L240,273.672L250.909,278.859L261.818,284.154L272.727,289.56L283.636,293.429L294.545,297.312L305.455,301.641L316.364,307.227L327.273,313.161L338.182,319.922L349.091,325.852L360,331.985L370.909,335.742L381.818,340.807L392.727,343.315L403.636,346.135L414.545,349.276L425.455,350.598L436.364,353.21L447.273,355.407L458.182,356.205L469.091,358.14L480,358.965L490.909,359.295L501.818,360.68L512.727,362.404L523.636,365.225L534.545,368.013L545.455,370.705L556.364,372.62L567.273,375.747L578.182,379.03L589.091,382.313L600,382.836L600,214.636L589.091,210.924L578.182,206.689L567.273,203.92L556.364,202.442L545.455,203.391L534.545,196.993L523.636,194.042L512.727,190.945L501.818,191.538L490.909,191.477L480,193.229L469.091,193.825L458.182,195.309L447.273,197.624L436.364,198.768L425.455,201.83L414.545,200.123L403.636,197.865L392.727,196.567L381.818,192.07L370.909,185.51L360,179.005L349.091,175.025L338.182,168.417L327.273,162.037L316.364,155.093L305.455,147.516L294.545,143.865L283.636,138.267L272.727,129.61L261.818,126.727L250.909,121.771L240,115.683L229.091,113.349L218.182,13.102L207.273,10.535L196.364,8.462L185.455,7.82L174.545,9.239L163.636,9.657L152.727,13.295L141.818,19.443L130.909,28.454L120,35.634L109.091,43.922L98.182,51.781L87.273,59.169L76.364,66.378L65.455,74.777L54.545,81.286L43.636,89.18L32.727,96.238L21.818,102.848L10.909,108.362Z" fill="blue" opacity="0.3"/></g></g><path class="foreground" aria-hidden="true" d="" display="none"/></g></g><g class="mark-group role-scope layer_1_pathgroup" role="graphics-object" aria-roledescription="group mark container"><g transform="translate(0,0)"><path class="background" aria-hidden="true" d="M0,0h600v400h-600Z"/><g><g class="mark-line role-mark layer_1_marks" role="graphics-object" aria-roledescription="line mark container"><path aria-label="年齢: 41; spend50p: 481.845245909; group_label: 定額取り崩し（ベースライン）" role="graphics-symbol" aria-roledescription="line mark" d="M10.909,103.48L21.818,97.346L32.727,90.892L43.636,84.299L54.545,77.886L65.455,71.491L76.364,65.158L87.273,59.195L98.182,53.703L109.091,48.846L120,44.858L130.909,41.963L141.818,40.337L152.727,40.237L163.636,41.982L174.545,45.768L185.455,50.892L196.364,57.159L207.273,64.217L218.182,71.438L229.091,167.892L240,175.236L250.909,182.345L261.818,188.992L272.727,195.849L283.636,202.628L294.545,209.717L305.455,217.345L316.364,225.344L327.273,233.874L338.182,242.856L349.091,251.728L360,259.797L370.909,267.22L381.818,273.075L392.727,278.8L403.636,283.499L414.545,286.922L425.455,290.155L436.364,293.128L447.273,295.556L458.182,298.157L469.091,300.181L480,302.589L490.909,305.453L501.818,307.784L512.727,311.311L523.636,314.359L534.545,318.009L545.455,321.884L556.364,325.646L567.273,329.563L578.182,333.514L589.091,337.87L600,342.581" stroke="green" stroke-width="2"/></g></g><path class="foreground" aria-hidden="true" d="" display="none"/></g><g transform="translate(0,0)"><path class="background" aria-hidden="true" d="M0,0h600v400h-600Z"/><g><g class="mark-line role-mark layer_1_marks" role="graphics-object" aria-roledescription="line mark container"><path aria-label="年齢: 41; spend50p: 498.745067292; group_label: 支出率を目標にする@ダイナミックスペンディング" role="graphics-symbol" aria-roledescription="line mark" d="M10.909,93.08L21.818,97.317L32.727,95.012L43.636,98.867L54.545,97.716L65.455,100.47L76.364,103.976L87.273,105.719L98.182,107.685L109.091,110.673L120,114.351L130.909,117.457L141.818,119.655L152.727,120.447L163.636,123.928L174.545,125.545L185.455,126.783L196.364,129.429L207.273,132.098L218.182,132.813L229.091,221.218L240,221.904L250.909,222.26L261.818,223.148L272.727,224.318L283.636,225.03L294.545,224.81L305.455,224.85L316.364,225.37L327.273,226.622L338.182,226.234L349.091,227.631L360,227.254L370.909,227.253L381.818,227.884L392.727,228.792L403.636,229.673L414.545,229.716L425.455,230.394L436.364,231.531L447.273,232.655L458.182,234.558L469.091,235.527L480,235.994L490.909,237.712L501.818,238.696L512.727,241.312L523.636,243.108L534.545,244.423L545.455,245.599L556.364,245.524L567.273,246.588L578.182,247.341L589.091,250.113L600,250.467" stroke="red" stroke-width="2"/></g></g><path class="foreground" aria-hidden="true" d="" display="none"/></g><g transform="translate(0,0)"><path class="background" aria-hidden="true" d="M0,0h600v400h-600Z"/><g><g class="mark-line role-mark layer_1_marks" role="graphics-object" aria-roledescription="line mark container"><path aria-label="年齢: 41; spend50p: 473.767176369; group_label: 生存確率を目標にする@ダイナミックスペンディング" role="graphics-symbol" aria-roledescription="line mark" d="M10.909,108.451L21.818,106.863L32.727,104.857L43.636,102.742L54.545,101.615L65.455,99.735L76.364,97.188L87.273,95.222L98.182,93.128L109.091,90.664L120,88.417L130.909,86.145L141.818,85.68L152.727,85.942L163.636,89.567L174.545,91.843L185.455,94.96L196.364,99.36L207.273,104.411L218.182,109.283L229.091,202.656L240,207.33L250.909,211.625L261.818,216.479L272.727,221.443L283.636,228.117L294.545,232.42L305.455,238.301L316.364,243.376L327.273,249.865L338.182,258.178L349.091,264.082L360,270.002L370.909,274.024L381.818,279.744L392.727,282.47L403.636,285.569L414.545,286.878L425.455,288.613L436.364,290.95L447.273,291.429L458.182,292.551L469.091,294.599L480,294.161L490.909,294.09L501.818,295.304L512.727,297.512L523.636,300.296L534.545,302.148L545.455,304.622L556.364,306.135L567.273,309.68L578.182,312.015L589.091,314.676L600,317.984" stroke="blue" stroke-width="2"/></g></g><path class="foreground" aria-hidden="true" d="" display="none"/></g></g><g class="mark-group role-legend" role="graphics-symbol" aria-roledescription="legend" aria-label="Symbol legend titled '戦略' for fill color and stroke color with 3 values: 支出率を目標にする@ダイナミックスペンディング, 生存確率を目標にする@ダイナミックスペンディング, 定額取り崩し（ベースライン）"><g transform="translate(0,-57)"><path class="background" aria-hidden="true" d="M0,0h470v39h-470Z" pointer-events="none"/><g><g class="mark-group role-legend-entry"><g transform="translate(0,16)"><path class="background" aria-hidden="true" d="M0,0h0v0h0Z" pointer-events="none"/><g><g class="mark-group role-scope" role="graphics-object" aria-roledescription="group mark container"><g transform="translate(0,0)"><path class="background" aria-hidden="true" d="M0,0h146v23h-146Z" pointer-events="none" opacity="1"/><g><g class="mark-symbol role-legend-symbol" pointer-events="none"><path transform="translate(6,6)" d="M5,0A5,5,0,1,1,-5,0A5,5,0,1,1,5,0" fill="red" stroke="red" stroke-width="1.5" opacity="0.3"/></g><g class="mark-text role-legend-label" pointer-events="none"><text text-anchor="start" transform="translate(16,9)" font-family="sans-serif" font-size="10px" fill="#000" opacity="1"><tspan>支出率を目標にする</tspan><tspan x="0" dy="12">ダイナミックスペンディング</tspan></text></g></g><path class="foreground" aria-hidden="true" d="" pointer-events="none" display="none"/></g><g transform="translate(157,0)"><path class="background" aria-hidden="true" d="M0,0h146v23h-146Z" pointer-events="none" opacity="1"/><g><g class="mark-symbol role-legend-symbol" pointer-events="none"><path transform="translate(6,6)" d="M5,0A5,5,0,1,1,-5,0A5,5,0,1,1,5,0" fill="blue" stroke="blue" stroke-width="1.5" opacity="0.3"/></g><g class="mark-text role-legend-label" pointer-events="none"><text text-anchor="start" transform="translate(16,9)" font-family="sans-serif" font-size="10px" fill="#000" opacity="1"><tspan>生存確率を目標にする</tspan><tspan x="0" dy="12">ダイナミックスペンディング</tspan></text></g></g><path class="foreground" aria-hidden="true" d="" pointer-events="none" display="none"/></g><g transform="translate(314,5.25)"><path class="background" aria-hidden="true" d="M0,0h156v12.5h-156Z" pointer-events="none" opacity="1"/><g><g class="mark-symbol role-legend-symbol" pointer-events="none"><path transform="translate(6,6)" d="M5,0A5,5,0,1,1,-5,0A5,5,0,1,1,5,0" fill="green" stroke="green" stroke-width="1.5" opacity="0.3"/></g><g class="mark-text role-legend-label" pointer-events="none"><text text-anchor="start" transform="translate(16,9)" font-family="sans-serif" font-size="10px" fill="#000" opacity="1">定額取り崩し（ベースライン）</text></g></g><path class="foreground" aria-hidden="true" d="" pointer-events="none" display="none"/></g></g></g><path class="foreground" aria-hidden="true" d="" pointer-events="none" display="none"/></g></g><g class="mark-text role-legend-title" pointer-events="none"><text text-anchor="start" transform="translate(0,9)" font-family="sans-serif" font-size="11px" font-weight="bold" fill="#000" opacity="1">戦略</text></g></g><path class="foreground" aria-hidden="true" d="" pointer-events="none" display="none"/></g></g><g class="mark-group role-title"><g transform="translate(300,-74)"><path class="background" aria-hidden="true" d="M0,0h0v0h0Z" pointer-events="none"/><g><g class="mark-text role-title-text" role="graphics-symbol" aria-roledescription="title" aria-label="Title text '実質支出額の推移比較 (初期支出率: 3.5%, 共通生存パスのみ)'" pointer-events="none"><text text-anchor="middle" transform="translate(0,10)" font-family="sans-serif" font-size="13px" font-weight="bold" fill="#000" opacity="1">実質支出額の推移比較 (初期支出率: 3.5%, 共通生存パスのみ)</text></g></g><path class="foreground" aria-hidden="true" d="" pointer-events="none" display="none"/></g></g></g><path class="foreground" aria-hidden="true" d="" display="none"/></g></g></g></svg>