<svg xmlns="http://www.w3.org/2000/svg" xmlns:xlink="http://www.w3.org/1999/xlink" version="1.1" class="marks" width="651" height="516" viewBox="0 0 651 516"><rect width="651" height="516" fill="white"/><g fill="none" stroke-miterlimit="10" transform="translate(44,79)"><g class="mark-group role-frame root" role="graphics-object" aria-roledescription="group mark container"><g transform="translate(0,0)"><path class="background" aria-hidden="true" d="M0.5,0.5h600v400h-600Z" stroke="#ddd"/><g><g class="mark-group role-axis" aria-hidden="true"><g transform="translate(0.5,400.5)"><path class="background" aria-hidden="true" d="M0,0h0v0h0Z" pointer-events="none"/><g><g class="mark-rule role-axis-grid" pointer-events="none"><line transform="translate(0,-400)" x2="0" y2="400" stroke="#ddd" stroke-width="1" opacity="1"/><line transform="translate(55,-400)" x2="0" y2="400" stroke="#ddd" stroke-width="1" opacity="1"/><line transform="translate(109,-400)" x2="0" y2="400" stroke="#ddd" stroke-width="1" opacity="1"/><line transform="translate(164,-400)" x2="0" y2="400" stroke="#ddd" stroke-width="1" opacity="1"/><line transform="translate(218,-400)" x2="0" y2="400" stroke="#ddd" stroke-width="1" opacity="1"/><line transform="translate(273,-400)" x2="0" y2="400" stroke="#ddd" stroke-width="1" opacity="1"/><line transform="translate(327,-400)" x2="0" y2="400" stroke="#ddd" stroke-width="1" opacity="1"/><line transform="translate(382,-400)" x2="0" y2="400" stroke="#ddd" stroke-width="1" opacity="1"/><line transform="translate(436,-400)" x2="0" y2="400" stroke="#ddd" stroke-width="1" opacity="1"/><line transform="translate(491,-400)" x2="0" y2="400" stroke="#ddd" stroke-width="1" opacity="1"/><line transform="translate(545,-400)" x2="0" y2="400" stroke="#ddd" stroke-width="1" opacity="1"/><line transform="translate(600,-400)" x2="0" y2="400" stroke="#ddd" stroke-width="1" opacity="1"/></g></g><path class="foreground" aria-hidden="true" d="" pointer-events="none" display="none"/></g></g><g class="mark-group role-axis" aria-hidden="true"><g transform="translate(0.5,0.5)"><path class="background" aria-hidden="true" d="M0,0h0v0h0Z" pointer-events="none"/><g><g class="mark-rule role-axis-grid" pointer-events="none"><line transform="translate(0,400)" x2="600" y2="0" stroke="#ddd" stroke-width="1" opacity="1"/><line transform="translate(0,371)" x2="600" y2="0" stroke="#ddd" stroke-width="1" opacity="1"/><line transform="translate(0,343)" x2="600" y2="0" stroke="#ddd" stroke-width="1" opacity="1"/><line transform="translate(0,314)" x2="600" y2="0" stroke="#ddd" stroke-width="1" opacity="1"/><line transform="translate(0,286)" x2="600" y2="0" stroke="#ddd" stroke-width="1" opacity="1"/><line transform="translate(0,257)" x2="600" y2="0" stroke="#ddd" stroke-width="1" opacity="1"/><line transform="translate(0,229)" x2="600" y2="0" stroke="#ddd" stroke-width="1" opacity="1"/><line transform="translate(0,200)" x2="600" y2="0" stroke="#ddd" stroke-width="1" opacity="1"/><line transform="translate(0,171)" x2="600" y2="0" stroke="#ddd" stroke-width="1" opacity="1"/><line transform="translate(0,143)" x2="600" y2="0" stroke="#ddd" stroke-width="1" opacity="1"/><line transform="translate(0,114)" x2="600" y2="0" stroke="#ddd" stroke-width="1" opacity="1"/><line transform="translate(0,86)" x2="600" y2="0" stroke="#ddd" stroke-width="1" opacity="1"/><line transform="translate(0,57)" x2="600" y2="0" stroke="#ddd" stroke-width="1" opacity="1"/><line transform="translate(0,29)" x2="600" y2="0" stroke="#ddd" stroke-width="1" opacity="1"/><line transform="translate(0,0)" x2="600" y2="0" stroke="#ddd" stroke-width="1" opacity="1"/></g></g><path class="foreground" aria-hidden="true" d="" pointer-events="none" display="none"/></g></g><g class="mark-group role-axis" role="graphics-symbol" aria-roledescription="axis" aria-label="X-axis titled '年齢' for a linear scale with values from 40 to 95"><g transform="translate(0.5,400.5)"><path class="background" aria-hidden="true" d="M0,0h0v0h0Z" pointer-events="none"/><g><g class="mark-rule role-axis-tick" pointer-events="none"><line transform="translate(0,0)" x2="0" y2="5" stroke="#888" stroke-width="1" opacity="1"/><line transform="translate(55,0)" x2="0" y2="5" stroke="#888" stroke-width="1" opacity="1"/><line transform="translate(109,0)" x2="0" y2="5" stroke="#888" stroke-width="1" opacity="1"/><line transform="translate(164,0)" x2="0" y2="5" stroke="#888" stroke-width="1" opacity="1"/><line transform="translate(218,0)" x2="0" y2="5" stroke="#888" stroke-width="1" opacity="1"/><line transform="translate(273,0)" x2="0" y2="5" stroke="#888" stroke-width="1" opacity="1"/><line transform="translate(327,0)" x2="0" y2="5" stroke="#888" stroke-width="1" opacity="1"/><line transform="translate(382,0)" x2="0" y2="5" stroke="#888" stroke-width="1" opacity="1"/><line transform="translate(436,0)" x2="0" y2="5" stroke="#888" stroke-width="1" opacity="1"/><line transform="translate(491,0)" x2="0" y2="5" stroke="#888" stroke-width="1" opacity="1"/><line transform="translate(545,0)" x2="0" y2="5" stroke="#888" stroke-width="1" opacity="1"/><line transform="translate(600,0)" x2="0" y2="5" stroke="#888" stroke-width="1" opacity="1"/></g><g class="mark-text role-axis-label" pointer-events="none"><text text-anchor="start" transform="translate(0,15)" font-family="sans-serif" font-size="10px" fill="#000" opacity="1">40</text><text text-anchor="middle" transform="translate(54.54545454545455,15)" font-family="sans-serif" font-size="10px" fill="#000" opacity="1">45</text><text text-anchor="middle" transform="translate(109.0909090909091,15)" font-family="sans-serif" font-size="10px" fill="#000" opacity="1">50</text><text text-anchor="middle" transform="translate(163.63636363636363,15)" font-family="sans-serif" font-size="10px" fill="#000" opacity="1">55</text><text text-anchor="middle" transform="translate(218.1818181818182,15)" font-family="sans-serif" font-size="10px" fill="#000" opacity="1">60</text><text text-anchor="middle" transform="translate(272.7272727272727,15)" font-family="sans-serif" font-size="10px" fill="#000" opacity="1">65</text><text text-anchor="middle" transform="translate(327.27272727272725,15)" font-family="sans-serif" font-size="10px" fill="#000" opacity="1">70</text><text text-anchor="middle" transform="translate(381.8181818181818,15)" font-family="sans-serif" font-size="10px" fill="#000" opacity="1">75</text><text text-anchor="middle" transform="translate(436.3636363636364,15)" font-family="sans-serif" font-size="10px" fill="#000" opacity="1">80</text><text text-anchor="middle" transform="translate(490.90909090909093,15)" font-family="sans-serif" font-size="10px" fill="#000" opacity="1">85</text><text text-anchor="middle" transform="translate(545.4545454545454,15)" font-family="sans-serif" font-size="10px" fill="#000" opacity="1">90</text><text text-anchor="end" transform="translate(600,15)" font-family="sans-serif" font-size="10px" fill="#000" opacity="1">95</text></g><g class="mark-rule role-axis-domain" pointer-events="none"><line transform="translate(0,0)" x2="600" y2="0" stroke="#888" stroke-width="1" opacity="1"/></g><g class="mark-text role-axis-title" pointer-events="none"><text text-anchor="middle" transform="translate(300,30)" font-family="sans-serif" font-size="11px" font-weight="bold" fill="#000" opacity="1">年齢</text></g></g><path class="foreground" aria-hidden="true" d="" pointer-events="none" display="none"/></g></g><g class="mark-group role-axis" role="graphics-symbol" aria-roledescription="axis" aria-label="Y-axis titled '年間取り崩し額 (万円)' for a linear scale with values from 0 to 700"><g transform="translate(0.5,0.5)"><path class="background" aria-hidden="true" d="M0,0h0v0h0Z" pointer-events="none"/><g><g class="mark-rule role-axis-tick" pointer-events="none"><line transform="translate(0,400)" x2="-5" y2="0" stroke="#888" stroke-width="1" opacity="1"/><line transform="translate(0,371)" x2="-5" y2="0" stroke="#888" stroke-width="1" opacity="1"/><line transform="translate(0,343)" x2="-5" y2="0" stroke="#888" stroke-width="1" opacity="1"/><line transform="translate(0,314)" x2="-5" y2="0" stroke="#888" stroke-width="1" opacity="1"/><line transform="translate(0,286)" x2="-5" y2="0" stroke="#888" stroke-width="1" opacity="1"/><line transform="translate(0,257)" x2="-5" y2="0" stroke="#888" stroke-width="1" opacity="1"/><line transform="translate(0,229)" x2="-5" y2="0" stroke="#888" stroke-width="1" opacity="1"/><line transform="translate(0,200)" x2="-5" y2="0" stroke="#888" stroke-width="1" opacity="1"/><line transform="translate(0,171)" x2="-5" y2="0" stroke="#888" stroke-width="1" opacity="1"/><line transform="translate(0,143)" x2="-5" y2="0" stroke="#888" stroke-width="1" opacity="1"/><line transform="translate(0,114)" x2="-5" y2="0" stroke="#888" stroke-width="1" opacity="1"/><line transform="translate(0,86)" x2="-5" y2="0" stroke="#888" stroke-width="1" opacity="1"/><line transform="translate(0,57)" x2="-5" y2="0" stroke="#888" stroke-width="1" opacity="1"/><line transform="translate(0,29)" x2="-5" y2="0" stroke="#888" stroke-width="1" opacity="1"/><line transform="translate(0,0)" x2="-5" y2="0" stroke="#888" stroke-width="1" opacity="1"/></g><g class="mark-text role-axis-label" pointer-events="none"><text text-anchor="end" transform="translate(-7,403)" font-family="sans-serif" font-size="10px" fill="#000" opacity="1">0</text><text text-anchor="end" transform="translate(-7,374.42857142857144)" font-family="sans-serif" font-size="10px" fill="#000" opacity="1">50</text><text text-anchor="end" transform="translate(-7,345.8571428571429)" font-family="sans-serif" font-size="10px" fill="#000" opacity="1">100</text><text text-anchor="end" transform="translate(-7,317.2857142857143)" font-family="sans-serif" font-size="10px" fill="#000" opacity="1">150</text><text text-anchor="end" transform="translate(-7,288.7142857142857)" font-family="sans-serif" font-size="10px" fill="#000" opacity="1">200</text><text text-anchor="end" transform="translate(-7,260.1428571428571)" font-family="sans-serif" font-size="10px" fill="#000" opacity="1">250</text><text text-anchor="end" transform="translate(-7,231.57142857142856)" font-family="sans-serif" font-size="10px" fill="#000" opacity="1">300</text><text text-anchor="end" transform="translate(-7,203)" font-family="sans-serif" font-size="10px" fill="#000" opacity="1">350</text><text text-anchor="end" transform="translate(-7,174.42857142857144)" font-family="sans-serif" font-size="10px" fill="#000" opacity="1">400</text><text text-anchor="end" transform="translate(-7,145.85714285714283)" font-family="sans-serif" font-size="10px" fill="#000" opacity="1">450</text><text text-anchor="end" transform="translate(-7,117.28571428571428)" font-family="sans-serif" font-size="10px" fill="#000" opacity="1">500</text><text text-anchor="end" transform="translate(-7,88.71428571428572)" font-family="sans-serif" font-size="10px" fill="#000" opacity="1">550</text><text text-anchor="end" transform="translate(-7,60.14285714285716)" font-family="sans-serif" font-size="10px" fill="#000" opacity="1">600</text><text text-anchor="end" transform="translate(-7,31.57142857142856)" font-family="sans-serif" font-size="10px" fill="#000" opacity="1">650</text><text text-anchor="end" transform="translate(-7,3)" font-family="sans-serif" font-size="10px" fill="#000" opacity="1">700</text></g><g class="mark-rule role-axis-domain" pointer-events="none"><line transform="translate(0,400)" x2="0" y2="-400" stroke="#888" stroke-width="1" opacity="1"/></g><g class="mark-text role-axis-title" pointer-events="none"><text text-anchor="middle" transform="translate(-27.6845703125,200) rotate(-90) translate(0,-2)" font-family="sans-serif" font-size="11px" font-weight="bold" fill="#000" opacity="1">年間取り崩し額 (万円)</text></g></g><path class="foreground" aria-hidden="true" d="" pointer-events="none" display="none"/></g></g><g class="mark-group role-scope layer_0_pathgroup" role="graphics-object" aria-roledescription="group mark container"><g transform="translate(0,0)"><path class="background" aria-hidden="true" d="M0,0h600v400h-600Z"/><g><g class="mark-area role-mark layer_0_marks" role="graphics-object" aria-roledescription="area mark container"><path aria-label="年齢: 41; 年間取り崩し額 (万円): 478.536350223; spend75p: 485.250710233; 戦略: 定額取り崩し（ベースライン）" role="graphics-symbol" aria-roledescription="area mark" d="M10.909,126.551L21.818,121.554L32.727,115.869L43.636,109.973L54.545,103.983L65.455,98.289L76.364,92.674L87.273,87.156L98.182,81.942L109.091,77.694L120,74.227L130.909,71.607L141.818,70.238L152.727,70.199L163.636,71.814L174.545,74.958L185.455,79.99L196.364,85.611L207.273,91.852L218.182,98.664L229.091,192.578L240,200.064L250.909,206.999L261.818,213.489L272.727,220.294L283.636,226.693L294.545,234.186L305.455,241.41L316.364,249.441L327.273,257.717L338.182,266.064L349.091,274.43L360,282.223L370.909,289.259L381.818,295.543L392.727,300.771L403.636,305.478L414.545,309.888L425.455,313.448L436.364,316.91L447.273,319.643L458.182,322.361L469.091,324.796L480,327.312L490.909,330.152L501.818,332.681L512.727,336.182L523.636,339.991L534.545,344.355L545.455,348.369L556.364,352.364L567.273,357.4L578.182,361.442L589.091,365.787L600,370.465L600,326.058L589.091,322.155L578.182,318.731L567.273,315.263L556.364,312.249L545.455,308.968L534.545,305.883L523.636,303.124L512.727,300.588L501.818,298.612L490.909,296.593L480,295.091L469.091,293.248L458.182,291.548L447.273,289.632L436.364,287.929L425.455,285.703L414.545,283.413L403.636,280.13L392.727,276.275L381.818,271.545L370.909,265.928L360,259.279L349.091,252.194L338.182,244.55L327.273,236.784L316.364,229.134L305.455,221.921L294.545,215.118L283.636,208.766L272.727,202.297L261.818,196.28L250.909,190.019L240,183.821L229.091,177.148L218.182,91.102L207.273,84.379L196.364,77.666L185.455,71.778L174.545,66.93L163.636,63.681L152.727,62.114L141.818,62.181L130.909,63.44L120,66.114L109.091,69.848L98.182,74.788L87.273,79.92L76.364,85.519L65.455,91.557L54.545,97.724L43.636,103.806L32.727,110.019L21.818,116.505L10.909,122.714Z" fill="green" opacity="0.3"/></g></g><path class="foreground" aria-hidden="true" d="" display="none"/></g><g transform="translate(0,0)"><path class="background" aria-hidden="true" d="M0,0h600v400h-600Z"/><g><g class="mark-area role-mark layer_0_marks" role="graphics-object" aria-roledescription="area mark container"><path aria-label="年齢: 41; 年間取り崩し額 (万円): 498.603906665; spend75p: 498.890347629; 戦略: 支出率を目標にする@ダイナミックスペンディング" role="graphics-symbol" aria-roledescription="area mark" d="M10.909,115.083L21.818,119.138L32.727,123.135L43.636,127.067L54.545,130.962L65.455,134.785L76.364,138.565L87.273,142.294L98.182,145.965L109.091,149.543L120,153.082L130.909,156.572L141.818,160.001L152.727,163.407L163.636,166.746L174.545,170.02L185.455,173.17L196.364,174.397L207.273,176.291L218.182,178.267L229.091,257.165L240,258.403L250.909,258.339L261.818,259.571L272.727,260.161L283.636,261.964L294.545,263.24L305.455,264.643L316.364,265.507L327.273,267.108L338.182,267.885L349.091,268.938L360,270.224L370.909,271.897L381.818,273.867L392.727,274.756L403.636,275.743L414.545,277.93L425.455,279.331L436.364,281.58L447.273,282.97L458.182,283.637L469.091,285.704L480,287.76L490.909,288.853L501.818,289.384L512.727,290.796L523.636,293.079L534.545,295.184L545.455,296.97L556.364,297.424L567.273,299.394L578.182,301.048L589.091,302.599L600,303.972L600,171.582L589.091,170.92L578.182,170.231L567.273,170.569L556.364,170.049L545.455,170.437L534.545,171.273L523.636,171.485L512.727,171.846L501.818,172.747L490.909,172.642L480,172.137L469.091,173.195L458.182,175.329L447.273,175.732L436.364,175.933L425.455,176.988L414.545,176.672L403.636,178.41L392.727,179.769L381.818,179.981L370.909,180.297L360,180.269L349.091,181.15L338.182,181.399L327.273,182.238L316.364,183.233L305.455,183.642L294.545,183.785L283.636,184.525L272.727,185.094L261.818,185.637L250.909,186.944L240,188.212L229.091,189.341L218.182,102.617L207.273,101.988L196.364,102.778L185.455,102.8L174.545,102.099L163.636,103.991L152.727,103.086L141.818,102.743L130.909,104.229L120,104.192L109.091,104.179L98.182,106.624L87.273,105.731L76.364,105.499L65.455,107.773L54.545,105.927L43.636,107.011L32.727,109.669L21.818,112.375L10.909,114.92Z" fill="red" opacity="0.3"/></g></g><path class="foreground" aria-hidden="true" d="" display="none"/></g><g transform="translate(0,0)"><path class="background" aria-hidden="true" d="M0,0h600v400h-600Z"/><g><g class="mark-area role-mark layer_0_marks" role="graphics-object" aria-roledescription="area mark container"><path aria-label="年齢: 41; 年間取り崩し額 (万円): 478.203906665; spend75p: 478.490347629; 戦略: 生存確率を目標にする@ダイナミックスペンディング" role="graphics-symbol" aria-roledescription="area mark" d="M10.909,126.741L21.818,127.133L32.727,128.154L43.636,129.804L54.545,131.142L65.455,131.837L76.364,132.14L87.273,132.672L98.182,133.681L109.091,134.286L120,134.324L130.909,137.081L141.818,137.253L152.727,140.415L163.636,144.418L174.545,150.352L185.455,154.069L196.364,161.269L207.273,167.738L218.182,173.697L229.091,257.136L240,263.424L250.909,271.426L261.818,276.432L272.727,281.868L283.636,287.17L294.545,292.657L305.455,297.502L316.364,303.065L327.273,309.64L338.182,315.529L349.091,321.039L360,327.113L370.909,333.479L381.818,337.153L392.727,340.682L403.636,341.532L414.545,343.829L425.455,347.606L436.364,349.64L447.273,351.228L458.182,352.596L469.091,353.982L480,354.773L490.909,356.076L501.818,357.935L512.727,359.247L523.636,361.349L534.545,363.668L545.455,366.726L556.364,369.363L567.273,372.248L578.182,374.694L589.091,378.317L600,381.049L600,206.508L589.091,203.705L578.182,201.645L567.273,200.432L556.364,197.608L545.455,195.229L534.545,191.794L523.636,189.075L512.727,187.175L501.818,185.472L490.909,186.079L480,189.783L469.091,190.889L458.182,189.723L447.273,189.404L436.364,191.82L425.455,194.189L414.545,193.762L403.636,194.243L392.727,191.809L381.818,187.658L370.909,179.428L360,171.184L349.091,164.952L338.182,159.127L327.273,148.2L316.364,141.243L305.455,135.152L294.545,132.132L283.636,124.25L272.727,118.436L261.818,113.343L250.909,110.096L240,102.904L229.091,98.264L218.182,6.482L207.273,3.687L196.364,2.797L185.455,2.693L174.545,1.667L163.636,4.018L152.727,9.947L141.818,15.459L130.909,24.371L120,32.069L109.091,41.832L98.182,52.516L87.273,61.997L76.364,72.545L65.455,82.261L54.545,91.706L43.636,101.022L32.727,110.51L21.818,119.315L10.909,126.577Z" fill="blue" opacity="0.3"/></g></g><path class="foreground" aria-hidden="true" d="" display="none"/></g></g><g class="mark-group role-scope layer_1_pathgroup" role="graphics-object" aria-roledescription="group mark container"><g transform="translate(0,0)"><path class="background" aria-hidden="true" d="M0,0h600v400h-600Z"/><g><g class="mark-line role-mark layer_1_marks" role="graphics-object" aria-roledescription="line mark container"><path aria-label="年齢: 41; spend50p: 481.845245909; group_label: 定額取り崩し（ベースライン）" role="graphics-symbol" aria-roledescription="line mark" d="M10.909,124.66L21.818,118.965L32.727,112.971L43.636,106.849L54.545,100.894L65.455,94.956L76.364,89.076L87.273,83.538L98.182,78.439L109.091,73.921L120,70.222L130.909,67.53L141.818,66.025L152.727,65.907L163.636,67.539L174.545,71.05L185.455,75.809L196.364,81.667L207.273,88.205L218.182,94.941L229.091,184.35L240,191.208L250.909,197.631L261.818,203.925L272.727,210.121L283.636,216.509L294.545,223.05L305.455,229.983L316.364,237.346L327.273,245.266L338.182,253.675L349.091,261.701L360,269.181L370.909,275.932L381.818,281.345L392.727,286.322L403.636,290.702L414.545,294.105L425.455,296.74L436.364,299.406L447.273,301.859L458.182,303.985L469.091,305.924L480,307.97L490.909,310.235L501.818,312.937L512.727,315.693L523.636,319.024L534.545,322.062L545.455,325.458L556.364,329.102L567.273,332.988L578.182,336.922L589.091,340.559L600,344.906" stroke="green" stroke-width="2"/></g></g><path class="foreground" aria-hidden="true" d="" display="none"/></g><g transform="translate(0,0)"><path class="background" aria-hidden="true" d="M0,0h600v400h-600Z"/><g><g class="mark-line role-mark layer_1_marks" role="graphics-object" aria-roledescription="line mark container"><path aria-label="年齢: 41; spend50p: 498.745067292; group_label: 支出率を目標にする@ダイナミックスペンディング" role="graphics-symbol" aria-roledescription="line mark" d="M10.909,115.003L21.818,118.931L32.727,122.721L43.636,122.308L54.545,124.55L65.455,127.184L76.364,127.697L87.273,129.889L98.182,133.188L109.091,133.995L120,135.061L130.909,137.593L141.818,137.691L152.727,139.944L163.636,139.715L174.545,141.256L185.455,142.76L196.364,143.034L207.273,146.067L218.182,146.359L229.091,229.026L240,228.843L250.909,228.75L261.818,228.967L272.727,229.133L283.636,228.724L294.545,229.086L305.455,229.457L316.364,229.605L327.273,230.083L338.182,230.413L349.091,230.573L360,230.395L370.909,231.587L381.818,231.124L392.727,231.048L403.636,230.902L414.545,230.987L425.455,231.529L436.364,231.67L447.273,232.385L458.182,232.252L469.091,233.83L480,234.778L490.909,235.785L501.818,235.761L512.727,235.497L523.636,236.315L534.545,237.105L545.455,237.227L556.364,237.356L567.273,238.857L578.182,239.369L589.091,239.61L600,241.185" stroke="red" stroke-width="2"/></g></g><path class="foreground" aria-hidden="true" d="" display="none"/></g><g transform="translate(0,0)"><path class="background" aria-hidden="true" d="M0,0h600v400h-600Z"/><g><g class="mark-line role-mark layer_1_marks" role="graphics-object" aria-roledescription="line mark container"><path aria-label="年齢: 41; spend50p: 478.345067292; group_label: 生存確率を目標にする@ダイナミックスペンディング" role="graphics-symbol" aria-roledescription="line mark" d="M10.909,126.66L21.818,123.264L32.727,119.212L43.636,115.233L54.545,111.525L65.455,107.845L76.364,103.722L87.273,99.607L98.182,94.995L109.091,90.003L120,84.966L130.909,82.397L141.818,81.989L152.727,80.163L163.636,82.075L174.545,85.262L185.455,89.511L196.364,94.212L207.273,100.19L218.182,104.817L229.091,191.818L240,196.879L250.909,202.777L261.818,207.079L272.727,212.887L283.636,218.079L294.545,221.662L305.455,228.837L316.364,234.596L327.273,241.173L338.182,249.906L349.091,256.784L360,262.697L370.909,267.404L381.818,271.443L392.727,276.22L403.636,279.633L414.545,281.8L425.455,283.467L436.364,285.151L447.273,287.052L458.182,288.67L469.091,289.166L480,291.69L490.909,291.67L501.818,291.976L512.727,293.973L523.636,294.713L534.545,296.321L545.455,299.958L556.364,301.463L567.273,303.539L578.182,307.251L589.091,310.079L600,315.576" stroke="blue" stroke-width="2"/></g></g><path class="foreground" aria-hidden="true" d="" display="none"/></g></g><g class="mark-group role-legend" role="graphics-symbol" aria-roledescription="legend" aria-label="Symbol legend titled '戦略' for fill color and stroke color with 3 values: 支出率を目標にする@ダイナミックスペンディング, 生存確率を目標にする@ダイナミックスペンディング, 定額取り崩し（ベースライン）"><g transform="translate(0,-57)"><path class="background" aria-hidden="true" d="M0,0h470v39h-470Z" pointer-events="none"/><g><g class="mark-group role-legend-entry"><g transform="translate(0,16)"><path class="background" aria-hidden="true" d="M0,0h0v0h0Z" pointer-events="none"/><g><g class="mark-group role-scope" role="graphics-object" aria-roledescription="group mark container"><g transform="translate(0,0)"><path class="background" aria-hidden="true" d="M0,0h146v23h-146Z" pointer-events="none" opacity="1"/><g><g class="mark-symbol role-legend-symbol" pointer-events="none"><path transform="translate(6,6)" d="M5,0A5,5,0,1,1,-5,0A5,5,0,1,1,5,0" fill="red" stroke="red" stroke-width="1.5" opacity="0.3"/></g><g class="mark-text role-legend-label" pointer-events="none"><text text-anchor="start" transform="translate(16,9)" font-family="sans-serif" font-size="10px" fill="#000" opacity="1"><tspan>支出率を目標にする</tspan><tspan x="0" dy="12">ダイナミックスペンディング</tspan></text></g></g><path class="foreground" aria-hidden="true" d="" pointer-events="none" display="none"/></g><g transform="translate(157,0)"><path class="background" aria-hidden="true" d="M0,0h146v23h-146Z" pointer-events="none" opacity="1"/><g><g class="mark-symbol role-legend-symbol" pointer-events="none"><path transform="translate(6,6)" d="M5,0A5,5,0,1,1,-5,0A5,5,0,1,1,5,0" fill="blue" stroke="blue" stroke-width="1.5" opacity="0.3"/></g><g class="mark-text role-legend-label" pointer-events="none"><text text-anchor="start" transform="translate(16,9)" font-family="sans-serif" font-size="10px" fill="#000" opacity="1"><tspan>生存確率を目標にする</tspan><tspan x="0" dy="12">ダイナミックスペンディング</tspan></text></g></g><path class="foreground" aria-hidden="true" d="" pointer-events="none" display="none"/></g><g transform="translate(314,5.25)"><path class="background" aria-hidden="true" d="M0,0h156v12.5h-156Z" pointer-events="none" opacity="1"/><g><g class="mark-symbol role-legend-symbol" pointer-events="none"><path transform="translate(6,6)" d="M5,0A5,5,0,1,1,-5,0A5,5,0,1,1,5,0" fill="green" stroke="green" stroke-width="1.5" opacity="0.3"/></g><g class="mark-text role-legend-label" pointer-events="none"><text text-anchor="start" transform="translate(16,9)" font-family="sans-serif" font-size="10px" fill="#000" opacity="1">定額取り崩し（ベースライン）</text></g></g><path class="foreground" aria-hidden="true" d="" pointer-events="none" display="none"/></g></g></g><path class="foreground" aria-hidden="true" d="" pointer-events="none" display="none"/></g></g><g class="mark-text role-legend-title" pointer-events="none"><text text-anchor="start" transform="translate(0,9)" font-family="sans-serif" font-size="11px" font-weight="bold" fill="#000" opacity="1">戦略</text></g></g><path class="foreground" aria-hidden="true" d="" pointer-events="none" display="none"/></g></g><g class="mark-group role-title"><g transform="translate(300,-74)"><path class="background" aria-hidden="true" d="M0,0h0v0h0Z" pointer-events="none"/><g><g class="mark-text role-title-text" role="graphics-symbol" aria-roledescription="title" aria-label="Title text '実質支出額の推移比較 (初期支出率: 3.0%, 共通生存パスのみ)'" pointer-events="none"><text text-anchor="middle" transform="translate(0,10)" font-family="sans-serif" font-size="13px" font-weight="bold" fill="#000" opacity="1">実質支出額の推移比較 (初期支出率: 3.0%, 共通生存パスのみ)</text></g></g><path class="foreground" aria-hidden="true" d="" pointer-events="none" display="none"/></g></g></g><path class="foreground" aria-hidden="true" d="" display="none"/></g></g></g></svg>