<svg xmlns="http://www.w3.org/2000/svg" xmlns:xlink="http://www.w3.org/1999/xlink" version="1.1" class="marks" width="651" height="516" viewBox="0 0 651 516"><rect width="651" height="516" fill="white"/><g fill="none" stroke-miterlimit="10" transform="translate(44,79)"><g class="mark-group role-frame root" role="graphics-object" aria-roledescription="group mark container"><g transform="translate(0,0)"><path class="background" aria-hidden="true" d="M0.5,0.5h600v400h-600Z" stroke="#ddd"/><g><g class="mark-group role-axis" aria-hidden="true"><g transform="translate(0.5,400.5)"><path class="background" aria-hidden="true" d="M0,0h0v0h0Z" pointer-events="none"/><g><g class="mark-rule role-axis-grid" pointer-events="none"><line transform="translate(0,-400)" x2="0" y2="400" stroke="#ddd" stroke-width="1" opacity="1"/><line transform="translate(55,-400)" x2="0" y2="400" stroke="#ddd" stroke-width="1" opacity="1"/><line transform="translate(109,-400)" x2="0" y2="400" stroke="#ddd" stroke-width="1" opacity="1"/><line transform="translate(164,-400)" x2="0" y2="400" stroke="#ddd" stroke-width="1" opacity="1"/><line transform="translate(218,-400)" x2="0" y2="400" stroke="#ddd" stroke-width="1" opacity="1"/><line transform="translate(273,-400)" x2="0" y2="400" stroke="#ddd" stroke-width="1" opacity="1"/><line transform="translate(327,-400)" x2="0" y2="400" stroke="#ddd" stroke-width="1" opacity="1"/><line transform="translate(382,-400)" x2="0" y2="400" stroke="#ddd" stroke-width="1" opacity="1"/><line transform="translate(436,-400)" x2="0" y2="400" stroke="#ddd" stroke-width="1" opacity="1"/><line transform="translate(491,-400)" x2="0" y2="400" stroke="#ddd" stroke-width="1" opacity="1"/><line transform="translate(545,-400)" x2="0" y2="400" stroke="#ddd" stroke-width="1" opacity="1"/><line transform="translate(600,-400)" x2="0" y2="400" stroke="#ddd" stroke-width="1" opacity="1"/></g></g><path class="foreground" aria-hidden="true" d="" pointer-events="none" display="none"/></g></g><g class="mark-group role-axis" aria-hidden="true"><g transform="translate(0.5,0.5)"><path class="background" aria-hidden="true" d="M0,0h0v0h0Z" pointer-events="none"/><g><g class="mark-rule role-axis-grid" pointer-events="none"><line transform="translate(0,400)" x2="600" y2="0" stroke="#ddd" stroke-width="1" opacity="1"/><line transform="translate(0,367)" x2="600" y2="0" stroke="#ddd" stroke-width="1" opacity="1"/><line transform="translate(0,333)" x2="600" y2="0" stroke="#ddd" stroke-width="1" opacity="1"/><line transform="translate(0,300)" x2="600" y2="0" stroke="#ddd" stroke-width="1" opacity="1"/><line transform="translate(0,267)" x2="600" y2="0" stroke="#ddd" stroke-width="1" opacity="1"/><line transform="translate(0,233)" x2="600" y2="0" stroke="#ddd" stroke-width="1" opacity="1"/><line transform="translate(0,200)" x2="600" y2="0" stroke="#ddd" stroke-width="1" opacity="1"/><line transform="translate(0,167)" x2="600" y2="0" stroke="#ddd" stroke-width="1" opacity="1"/><line transform="translate(0,133)" x2="600" y2="0" stroke="#ddd" stroke-width="1" opacity="1"/><line transform="translate(0,100)" x2="600" y2="0" stroke="#ddd" stroke-width="1" opacity="1"/><line transform="translate(0,67)" x2="600" y2="0" stroke="#ddd" stroke-width="1" opacity="1"/><line transform="translate(0,33)" x2="600" y2="0" stroke="#ddd" stroke-width="1" opacity="1"/><line transform="translate(0,0)" x2="600" y2="0" stroke="#ddd" stroke-width="1" opacity="1"/></g></g><path class="foreground" aria-hidden="true" d="" pointer-events="none" display="none"/></g></g><g class="mark-group role-axis" role="graphics-symbol" aria-roledescription="axis" aria-label="X-axis titled '年齢' for a linear scale with values from 40 to 95"><g transform="translate(0.5,400.5)"><path class="background" aria-hidden="true" d="M0,0h0v0h0Z" pointer-events="none"/><g><g class="mark-rule role-axis-tick" pointer-events="none"><line transform="translate(0,0)" x2="0" y2="5" stroke="#888" stroke-width="1" opacity="1"/><line transform="translate(55,0)" x2="0" y2="5" stroke="#888" stroke-width="1" opacity="1"/><line transform="translate(109,0)" x2="0" y2="5" stroke="#888" stroke-width="1" opacity="1"/><line transform="translate(164,0)" x2="0" y2="5" stroke="#888" stroke-width="1" opacity="1"/><line transform="translate(218,0)" x2="0" y2="5" stroke="#888" stroke-width="1" opacity="1"/><line transform="translate(273,0)" x2="0" y2="5" stroke="#888" stroke-width="1" opacity="1"/><line transform="translate(327,0)" x2="0" y2="5" stroke="#888" stroke-width="1" opacity="1"/><line transform="translate(382,0)" x2="0" y2="5" stroke="#888" stroke-width="1" opacity="1"/><line transform="translate(436,0)" x2="0" y2="5" stroke="#888" stroke-width="1" opacity="1"/><line transform="translate(491,0)" x2="0" y2="5" stroke="#888" stroke-width="1" opacity="1"/><line transform="translate(545,0)" x2="0" y2="5" stroke="#888" stroke-width="1" opacity="1"/><line transform="translate(600,0)" x2="0" y2="5" stroke="#888" stroke-width="1" opacity="1"/></g><g class="mark-text role-axis-label" pointer-events="none"><text text-anchor="start" transform="translate(0,15)" font-family="sans-serif" font-size="10px" fill="#000" opacity="1">40</text><text text-anchor="middle" transform="translate(54.54545454545455,15)" font-family="sans-serif" font-size="10px" fill="#000" opacity="1">45</text><text text-anchor="middle" transform="translate(109.0909090909091,15)" font-family="sans-serif" font-size="10px" fill="#000" opacity="1">50</text><text text-anchor="middle" transform="translate(163.63636363636363,15)" font-family="sans-serif" font-size="10px" fill="#000" opacity="1">55</text><text text-anchor="middle" transform="translate(218.1818181818182,15)" font-family="sans-serif" font-size="10px" fill="#000" opacity="1">60</text><text text-anchor="middle" transform="translate(272.7272727272727,15)" font-family="sans-serif" font-size="10px" fill="#000" opacity="1">65</text><text text-anchor="middle" transform="translate(327.27272727272725,15)" font-family="sans-serif" font-size="10px" fill="#000" opacity="1">70</text><text text-anchor="middle" transform="translate(381.8181818181818,15)" font-family="sans-serif" font-size="10px" fill="#000" opacity="1">75</text><text text-anchor="middle" transform="translate(436.3636363636364,15)" font-family="sans-serif" font-size="10px" fill="#000" opacity="1">80</text><text text-anchor="middle" transform="translate(490.90909090909093,15)" font-family="sans-serif" font-size="10px" fill="#000" opacity="1">85</text><text text-anchor="middle" transform="translate(545.4545454545454,15)" font-family="sans-serif" font-size="10px" fill="#000" opacity="1">90</text><text text-anchor="end" transform="translate(600,15)" font-family="sans-serif" font-size="10px" fill="#000" opacity="1">95</text></g><g class="mark-rule role-axis-domain" pointer-events="none"><line transform="translate(0,0)" x2="600" y2="0" stroke="#888" stroke-width="1" opacity="1"/></g><g class="mark-text role-axis-title" pointer-events="none"><text text-anchor="middle" transform="translate(300,30)" font-family="sans-serif" font-size="11px" font-weight="bold" fill="#000" opacity="1">年齢</text></g></g><path class="foreground" aria-hidden="true" d="" pointer-events="none" display="none"/></g></g><g class="mark-group role-axis" role="graphics-symbol" aria-roledescription="axis" aria-label="Y-axis titled '年間取り崩し額 (万円)' for a linear scale with values from 0 to 600"><g transform="translate(0.5,0.5)"><path class="background" aria-hidden="true" d="M0,0h0v0h0Z" pointer-events="none"/><g><g class="mark-rule role-axis-tick" pointer-events="none"><line transform="translate(0,400)" x2="-5" y2="0" stroke="#888" stroke-width="1" opacity="1"/><line transform="translate(0,367)" x2="-5" y2="0" stroke="#888" stroke-width="1" opacity="1"/><line transform="translate(0,333)" x2="-5" y2="0" stroke="#888" stroke-width="1" opacity="1"/><line transform="translate(0,300)" x2="-5" y2="0" stroke="#888" stroke-width="1" opacity="1"/><line transform="translate(0,267)" x2="-5" y2="0" stroke="#888" stroke-width="1" opacity="1"/><line transform="translate(0,233)" x2="-5" y2="0" stroke="#888" stroke-width="1" opacity="1"/><line transform="translate(0,200)" x2="-5" y2="0" stroke="#888" stroke-width="1" opacity="1"/><line transform="translate(0,167)" x2="-5" y2="0" stroke="#888" stroke-width="1" opacity="1"/><line transform="translate(0,133)" x2="-5" y2="0" stroke="#888" stroke-width="1" opacity="1"/><line transform="translate(0,100)" x2="-5" y2="0" stroke="#888" stroke-width="1" opacity="1"/><line transform="translate(0,67)" x2="-5" y2="0" stroke="#888" stroke-width="1" opacity="1"/><line transform="translate(0,33)" x2="-5" y2="0" stroke="#888" stroke-width="1" opacity="1"/><line transform="translate(0,0)" x2="-5" y2="0" stroke="#888" stroke-width="1" opacity="1"/></g><g class="mark-text role-axis-label" pointer-events="none"><text text-anchor="end" transform="translate(-7,403)" font-family="sans-serif" font-size="10px" fill="#000" opacity="1">0</text><text text-anchor="end" transform="translate(-7,369.66666666666663)" font-family="sans-serif" font-size="10px" fill="#000" opacity="1">50</text><text text-anchor="end" transform="translate(-7,336.33333333333337)" font-family="sans-serif" font-size="10px" fill="#000" opacity="1">100</text><text text-anchor="end" transform="translate(-7,303)" font-family="sans-serif" font-size="10px" fill="#000" opacity="1">150</text><text text-anchor="end" transform="translate(-7,269.6666666666667)" font-family="sans-serif" font-size="10px" fill="#000" opacity="1">200</text><text text-anchor="end" transform="translate(-7,236.33333333333331)" font-family="sans-serif" font-size="10px" fill="#000" opacity="1">250</text><text text-anchor="end" transform="translate(-7,203)" font-family="sans-serif" font-size="10px" fill="#000" opacity="1">300</text><text text-anchor="end" transform="translate(-7,169.66666666666666)" font-family="sans-serif" font-size="10px" fill="#000" opacity="1">350</text><text text-anchor="end" transform="translate(-7,136.33333333333334)" font-family="sans-serif" font-size="10px" fill="#000" opacity="1">400</text><text text-anchor="end" transform="translate(-7,103)" font-family="sans-serif" font-size="10px" fill="#000" opacity="1">450</text><text text-anchor="end" transform="translate(-7,69.66666666666666)" font-family="sans-serif" font-size="10px" fill="#000" opacity="1">500</text><text text-anchor="end" transform="translate(-7,36.33333333333335)" font-family="sans-serif" font-size="10px" fill="#000" opacity="1">550</text><text text-anchor="end" transform="translate(-7,3)" font-family="sans-serif" font-size="10px" fill="#000" opacity="1">600</text></g><g class="mark-rule role-axis-domain" pointer-events="none"><line transform="translate(0,400)" x2="0" y2="-400" stroke="#888" stroke-width="1" opacity="1"/></g><g class="mark-text role-axis-title" pointer-events="none"><text text-anchor="middle" transform="translate(-27.6845703125,200) rotate(-90) translate(0,-2)" font-family="sans-serif" font-size="11px" font-weight="bold" fill="#000" opacity="1">年間取り崩し額 (万円)</text></g></g><path class="foreground" aria-hidden="true" d="" pointer-events="none" display="none"/></g></g><g class="mark-group role-scope layer_0_pathgroup" role="graphics-object" aria-roledescription="group mark container"><g transform="translate(0,0)"><path class="background" aria-hidden="true" d="M0,0h600v400h-600Z"/><g><g class="mark-area role-mark layer_0_marks" role="graphics-object" aria-roledescription="area mark container"><path aria-label="年齢: 41; 年間取り崩し額 (万円): 478.536350223; spend75p: 485.250710233; 戦略: 定額取り崩し（ベースライン）" role="graphics-symbol" aria-roledescription="area mark" d="M10.909,80.976L21.818,75.146L32.727,68.514L43.636,61.635L54.545,54.647L65.455,48.003L76.364,41.453L87.273,35.017L98.182,28.933L109.091,23.981L120,19.932L130.909,16.86L141.818,15.306L152.727,15.239L163.636,17.131L174.545,20.812L185.455,26.724L196.364,33.193L207.273,40.603L218.182,48.508L229.091,159L240,167.384L250.909,175.521L261.818,183.364L272.727,191.118L283.636,199.082L294.545,207.583L305.455,216.57L316.364,225.812L327.273,235.612L338.182,245.877L349.091,256.314L360,265.529L370.909,274.156L381.818,281.419L392.727,287.395L403.636,292.538L414.545,297.379L425.455,301.675L436.364,305.137L447.273,308.816L458.182,312.45L469.091,315.197L480,318.57L490.909,321.589L501.818,325.408L512.727,329.39L523.636,334.648L534.545,339.534L545.455,345.13L556.364,351.125L567.273,357.386L578.182,362.211L589.091,368.118L600,373.374L600,321.187L589.091,316.877L578.182,312.537L567.273,308.418L556.364,303.746L545.455,299.52L534.545,295.867L523.636,292.403L512.727,288.831L501.818,286.007L490.909,283.146L480,280.611L469.091,278.671L458.182,276.276L447.273,274.086L436.364,271.837L425.455,269.5L414.545,266.245L403.636,262.455L392.727,257.637L381.818,252.705L370.909,245.855L360,237.827L349.091,229.341L338.182,220.576L327.273,211.173L316.364,201.803L305.455,193.756L294.545,185.608L283.636,177.881L272.727,170.651L261.818,163.126L250.909,155.976L240,148.595L229.091,140.789L218.182,39.731L207.273,31.74L196.364,24.048L185.455,17.133L174.545,11.415L163.636,7.666L152.727,5.81L141.818,5.927L130.909,7.378L120,10.495L109.091,14.867L98.182,20.585L87.273,26.57L76.364,33.105L65.455,40.15L54.545,47.344L43.636,54.44L32.727,61.689L21.818,69.256L10.909,76.5Z" fill="green" opacity="0.3"/></g></g><path class="foreground" aria-hidden="true" d="" display="none"/></g><g transform="translate(0,0)"><path class="background" aria-hidden="true" d="M0,0h600v400h-600Z"/><g><g class="mark-area role-mark layer_0_marks" role="graphics-object" aria-roledescription="area mark container"><path aria-label="年齢: 41; 年間取り崩し額 (万円): 478.203906665; spend75p: 478.490347629; 戦略: 支出率を目標にする@ダイナミックスペンディング" role="graphics-symbol" aria-roledescription="area mark" d="M10.909,81.197L21.818,85.684L32.727,90.078L43.636,94.4L54.545,98.607L65.455,100.311L76.364,100.879L87.273,104.969L98.182,109.08L109.091,113.234L120,117.231L130.909,121.215L141.818,125.099L152.727,128.748L163.636,129.215L174.545,130.74L185.455,134.404L196.364,137.951L207.273,139.813L218.182,139.728L229.091,235.025L240,235.906L250.909,236.279L261.818,237.236L272.727,239.245L283.636,240.559L294.545,241.286L305.455,242.837L316.364,244.654L327.273,247.129L338.182,249.849L349.091,253.317L360,255.241L370.909,257.672L381.818,260.321L392.727,263.348L403.636,266.465L414.545,268.658L425.455,271.015L436.364,274.042L447.273,276.66L458.182,280.603L469.091,283.952L480,287.052L490.909,290.244L501.818,292.917L512.727,296.319L523.636,299.603L534.545,301.802L545.455,303.723L556.364,307.358L567.273,310.152L578.182,313.16L589.091,316.769L600,319.335L600,170.878L589.091,170.433L578.182,170.975L567.273,168.583L556.364,167.325L545.455,167.256L534.545,166.415L523.636,163.391L512.727,165.693L501.818,165.182L490.909,164.963L480,165.404L469.091,165.362L458.182,165.758L447.273,165.286L436.364,163.163L425.455,162.817L414.545,160.808L403.636,160.423L392.727,160.017L381.818,159.348L370.909,158.712L360,159.149L349.091,158.418L338.182,156.601L327.273,156.261L316.364,156.251L305.455,155.146L294.545,155.582L283.636,156.493L272.727,157.377L261.818,157.6L250.909,157.994L240,160.71L229.091,163.51L218.182,60.869L207.273,59.146L196.364,59.384L185.455,59.393L174.545,57.938L163.636,60.711L152.727,57.594L141.818,59.297L130.909,61.987L120,58.099L109.091,60.9L98.182,63.913L87.273,66.942L76.364,67.928L65.455,68.975L54.545,69.146L43.636,72.131L32.727,75.123L21.818,78.091L10.909,81.006Z" fill="red" opacity="0.3"/></g></g><path class="foreground" aria-hidden="true" d="" display="none"/></g><g transform="translate(0,0)"><path class="background" aria-hidden="true" d="M0,0h600v400h-600Z"/><g><g class="mark-area role-mark layer_0_marks" role="graphics-object" aria-roledescription="area mark container"><path aria-label="年齢: 41; 年間取り崩し額 (万円): 473.626015742; spend75p: 473.912456705; 戦略: 生存確率を目標にする@ダイナミックスペンディング" role="graphics-symbol" aria-roledescription="area mark" d="M10.909,84.249L21.818,87.59L32.727,91.547L43.636,96.715L54.545,102.208L65.455,106.83L76.364,112.728L87.273,116.718L98.182,121.909L109.091,127.303L120,131.168L130.909,135.906L141.818,140.764L152.727,146.114L163.636,152.365L174.545,157.367L185.455,163.664L196.364,169.645L207.273,175.725L218.182,178.228L229.091,277.837L240,282.802L250.909,287.692L261.818,292.843L272.727,296.859L283.636,301.007L294.545,306.878L305.455,312.226L316.364,316.75L327.273,321.683L338.182,327.778L349.091,333.759L360,338.983L370.909,343.79L381.818,347.662L392.727,351.058L403.636,353.385L414.545,355.207L425.455,356.327L436.364,358.124L447.273,360.215L458.182,362.199L469.091,361.983L480,362.073L490.909,361.974L501.818,364.053L512.727,365.547L523.636,366.849L534.545,369.402L545.455,372.321L556.364,374.062L567.273,376.816L578.182,380.023L589.091,381.752L600,384.915L600,221.807L589.091,218.959L578.182,213.928L567.273,211.665L556.364,210.431L545.455,206.556L534.545,204.945L523.636,202.687L512.727,204.191L501.818,202.843L490.909,206.027L480,206.187L469.091,210.351L458.182,212.079L447.273,211.341L436.364,209.712L425.455,213.173L414.545,213.683L403.636,210.948L392.727,205.145L381.818,201.449L370.909,197.646L360,193.215L349.091,188.253L338.182,179.334L327.273,173.39L316.364,169.559L305.455,160.491L294.545,156.404L283.636,151.321L272.727,145.91L261.818,142.288L250.909,141.067L240,138.17L229.091,133.047L218.182,20.17L207.273,20.243L196.364,18.587L185.455,16.949L174.545,15.332L163.636,18.272L152.727,20.313L141.818,24.446L130.909,28.162L120,31.914L109.091,37.25L98.182,41.504L87.273,46.347L76.364,51.49L65.455,57.203L54.545,62.4L43.636,68.312L32.727,73.968L21.818,79.495L10.909,84.058Z" fill="blue" opacity="0.3"/></g></g><path class="foreground" aria-hidden="true" d="" display="none"/></g></g><g class="mark-group role-scope layer_1_pathgroup" role="graphics-object" aria-roledescription="group mark container"><g transform="translate(0,0)"><path class="background" aria-hidden="true" d="M0,0h600v400h-600Z"/><g><g class="mark-line role-mark layer_1_marks" role="graphics-object" aria-roledescription="line mark container"><path aria-label="年齢: 41; spend50p: 481.845245909; group_label: 定額取り崩し（ベースライン）" role="graphics-symbol" aria-roledescription="line mark" d="M10.909,78.77L21.818,72.125L32.727,65.133L43.636,57.99L54.545,51.044L65.455,44.115L76.364,37.255L87.273,30.799L98.182,24.848L109.091,19.601L120,15.277L130.909,12.123L141.818,10.398L152.727,10.292L163.636,12.19L174.545,16.266L185.455,21.866L196.364,28.686L207.273,36.358L218.182,44.152L229.091,149.181L240,157.201L250.909,165.129L261.818,172.413L272.727,179.493L283.636,186.674L294.545,194.469L305.455,202.784L316.364,211.765L327.273,220.966L338.182,230.656L349.091,240.692L360,249.434L370.909,256.979L381.818,263.905L392.727,269.642L403.636,274.751L414.545,279.006L425.455,282.716L436.364,286.024L447.273,288.626L458.182,291.452L469.091,294.222L480,296.912L490.909,299.735L501.818,302.957L512.727,306.359L523.636,310.413L534.545,314.966L545.455,319.431L556.364,323.517L567.273,328.093L578.182,332.64L589.091,337.698L600,342.625" stroke="green" stroke-width="2"/></g></g><path class="foreground" aria-hidden="true" d="" display="none"/></g><g transform="translate(0,0)"><path class="background" aria-hidden="true" d="M0,0h600v400h-600Z"/><g><g class="mark-line role-mark layer_1_marks" role="graphics-object" aria-roledescription="line mark container"><path aria-label="年齢: 41; spend50p: 478.345067292; group_label: 支出率を目標にする@ダイナミックスペンディング" role="graphics-symbol" aria-roledescription="line mark" d="M10.909,81.103L21.818,83.205L32.727,82.698L43.636,81.747L54.545,84.231L65.455,83.942L76.364,85.7L87.273,84.976L98.182,87.25L109.091,88.461L120,89.192L130.909,93.153L141.818,93.504L152.727,95.092L163.636,99.03L174.545,100.653L185.455,101.214L196.364,104.911L207.273,107.628L218.182,106.82L229.091,203.231L240,203.679L250.909,203.802L261.818,205.263L272.727,206.682L283.636,207.455L294.545,208.45L305.455,209.691L316.364,211.542L327.273,212.022L338.182,213.911L349.091,215.32L360,217.219L370.909,218.606L381.818,219.44L392.727,221.678L403.636,223.72L414.545,225.077L425.455,226.852L436.364,229.68L447.273,232.476L458.182,234.891L469.091,237.678L480,239.45L490.909,241.263L501.818,243.588L512.727,246.768L523.636,247.771L534.545,248.271L545.455,250.892L556.364,252.444L567.273,254.124L578.182,257.562L589.091,259.468L600,261.463" stroke="red" stroke-width="2"/></g></g><path class="foreground" aria-hidden="true" d="" display="none"/></g><g transform="translate(0,0)"><path class="background" aria-hidden="true" d="M0,0h600v400h-600Z"/><g><g class="mark-line role-mark layer_1_marks" role="graphics-object" aria-roledescription="line mark container"><path aria-label="年齢: 41; spend50p: 473.767176369; group_label: 生存確率を目標にする@ダイナミックスペンディング" role="graphics-symbol" aria-roledescription="line mark" d="M10.909,84.155L21.818,83.448L32.727,82.851L43.636,82.198L54.545,82.584L65.455,82.758L76.364,82.533L87.273,83.444L98.182,83.651L109.091,83.98L120,84.263L130.909,86.096L141.818,89.545L152.727,91.622L163.636,94.161L174.545,97.887L185.455,101.535L196.364,108.272L207.273,111.324L218.182,115.829L229.091,218.132L240,223.688L250.909,228.277L261.818,233.943L272.727,237.11L283.636,241.292L294.545,246.062L305.455,249.831L316.364,255.722L327.273,261.369L338.182,268.27L349.091,274.331L360,279.797L370.909,284.876L381.818,289.186L392.727,293.544L403.636,295.473L414.545,296.985L425.455,299.077L436.364,301.22L447.273,303.191L458.182,304.246L469.091,305.185L480,305.512L490.909,305.666L501.818,306.706L512.727,308.056L523.636,308.747L534.545,309.406L545.455,311.647L556.364,312.127L567.273,312.855L578.182,312.271L589.091,314.062L600,318.144" stroke="blue" stroke-width="2"/></g></g><path class="foreground" aria-hidden="true" d="" display="none"/></g></g><g class="mark-group role-legend" role="graphics-symbol" aria-roledescription="legend" aria-label="Symbol legend titled '戦略' for fill color and stroke color with 3 values: 支出率を目標にする@ダイナミックスペンディング, 生存確率を目標にする@ダイナミックスペンディング, 定額取り崩し（ベースライン）"><g transform="translate(0,-57)"><path class="background" aria-hidden="true" d="M0,0h470v39h-470Z" pointer-events="none"/><g><g class="mark-group role-legend-entry"><g transform="translate(0,16)"><path class="background" aria-hidden="true" d="M0,0h0v0h0Z" pointer-events="none"/><g><g class="mark-group role-scope" role="graphics-object" aria-roledescription="group mark container"><g transform="translate(0,0)"><path class="background" aria-hidden="true" d="M0,0h146v23h-146Z" pointer-events="none" opacity="1"/><g><g class="mark-symbol role-legend-symbol" pointer-events="none"><path transform="translate(6,6)" d="M5,0A5,5,0,1,1,-5,0A5,5,0,1,1,5,0" fill="red" stroke="red" stroke-width="1.5" opacity="0.3"/></g><g class="mark-text role-legend-label" pointer-events="none"><text text-anchor="start" transform="translate(16,9)" font-family="sans-serif" font-size="10px" fill="#000" opacity="1"><tspan>支出率を目標にする</tspan><tspan x="0" dy="12">ダイナミックスペンディング</tspan></text></g></g><path class="foreground" aria-hidden="true" d="" pointer-events="none" display="none"/></g><g transform="translate(157,0)"><path class="background" aria-hidden="true" d="M0,0h146v23h-146Z" pointer-events="none" opacity="1"/><g><g class="mark-symbol role-legend-symbol" pointer-events="none"><path transform="translate(6,6)" d="M5,0A5,5,0,1,1,-5,0A5,5,0,1,1,5,0" fill="blue" stroke="blue" stroke-width="1.5" opacity="0.3"/></g><g class="mark-text role-legend-label" pointer-events="none"><text text-anchor="start" transform="translate(16,9)" font-family="sans-serif" font-size="10px" fill="#000" opacity="1"><tspan>生存確率を目標にする</tspan><tspan x="0" dy="12">ダイナミックスペンディング</tspan></text></g></g><path class="foreground" aria-hidden="true" d="" pointer-events="none" display="none"/></g><g transform="translate(314,5.25)"><path class="background" aria-hidden="true" d="M0,0h156v12.5h-156Z" pointer-events="none" opacity="1"/><g><g class="mark-symbol role-legend-symbol" pointer-events="none"><path transform="translate(6,6)" d="M5,0A5,5,0,1,1,-5,0A5,5,0,1,1,5,0" fill="green" stroke="green" stroke-width="1.5" opacity="0.3"/></g><g class="mark-text role-legend-label" pointer-events="none"><text text-anchor="start" transform="translate(16,9)" font-family="sans-serif" font-size="10px" fill="#000" opacity="1">定額取り崩し（ベースライン）</text></g></g><path class="foreground" aria-hidden="true" d="" pointer-events="none" display="none"/></g></g></g><path class="foreground" aria-hidden="true" d="" pointer-events="none" display="none"/></g></g><g class="mark-text role-legend-title" pointer-events="none"><text text-anchor="start" transform="translate(0,9)" font-family="sans-serif" font-size="11px" font-weight="bold" fill="#000" opacity="1">戦略</text></g></g><path class="foreground" aria-hidden="true" d="" pointer-events="none" display="none"/></g></g><g class="mark-group role-title"><g transform="translate(300,-74)"><path class="background" aria-hidden="true" d="M0,0h0v0h0Z" pointer-events="none"/><g><g class="mark-text role-title-text" role="graphics-symbol" aria-roledescription="title" aria-label="Title text '実質支出額の推移比較 (初期支出率: 4.5%, 共通生存パスのみ)'" pointer-events="none"><text text-anchor="middle" transform="translate(0,10)" font-family="sans-serif" font-size="13px" font-weight="bold" fill="#000" opacity="1">実質支出額の推移比較 (初期支出率: 4.5%, 共通生存パスのみ)</text></g></g><path class="foreground" aria-hidden="true" d="" pointer-events="none" display="none"/></g></g></g><path class="foreground" aria-hidden="true" d="" display="none"/></g></g></g></svg>