<svg xmlns="http://www.w3.org/2000/svg" xmlns:xlink="http://www.w3.org/1999/xlink" version="1.1" class="marks" width="651" height="516" viewBox="0 0 651 516"><rect width="651" height="516" fill="white"/><g fill="none" stroke-miterlimit="10" transform="translate(44,79)"><g class="mark-group role-frame root" role="graphics-object" aria-roledescription="group mark container"><g transform="translate(0,0)"><path class="background" aria-hidden="true" d="M0.5,0.5h600v400h-600Z" stroke="#ddd"/><g><g class="mark-group role-axis" aria-hidden="true"><g transform="translate(0.5,400.5)"><path class="background" aria-hidden="true" d="M0,0h0v0h0Z" pointer-events="none"/><g><g class="mark-rule role-axis-grid" pointer-events="none"><line transform="translate(0,-400)" x2="0" y2="400" stroke="#ddd" stroke-width="1" opacity="1"/><line transform="translate(55,-400)" x2="0" y2="400" stroke="#ddd" stroke-width="1" opacity="1"/><line transform="translate(109,-400)" x2="0" y2="400" stroke="#ddd" stroke-width="1" opacity="1"/><line transform="translate(164,-400)" x2="0" y2="400" stroke="#ddd" stroke-width="1" opacity="1"/><line transform="translate(218,-400)" x2="0" y2="400" stroke="#ddd" stroke-width="1" opacity="1"/><line transform="translate(273,-400)" x2="0" y2="400" stroke="#ddd" stroke-width="1" opacity="1"/><line transform="translate(327,-400)" x2="0" y2="400" stroke="#ddd" stroke-width="1" opacity="1"/><line transform="translate(382,-400)" x2="0" y2="400" stroke="#ddd" stroke-width="1" opacity="1"/><line transform="translate(436,-400)" x2="0" y2="400" stroke="#ddd" stroke-width="1" opacity="1"/><line transform="translate(491,-400)" x2="0" y2="400" stroke="#ddd" stroke-width="1" opacity="1"/><line transform="translate(545,-400)" x2="0" y2="400" stroke="#ddd" stroke-width="1" opacity="1"/><line transform="translate(600,-400)" x2="0" y2="400" stroke="#ddd" stroke-width="1" opacity="1"/></g></g><path class="foreground" aria-hidden="true" d="" pointer-events="none" display="none"/></g></g><g class="mark-group role-axis" aria-hidden="true"><g transform="translate(0.5,0.5)"><path class="background" aria-hidden="true" d="M0,0h0v0h0Z" pointer-events="none"/><g><g class="mark-rule role-axis-grid" pointer-events="none"><line transform="translate(0,400)" x2="600" y2="0" stroke="#ddd" stroke-width="1" opacity="1"/><line transform="translate(0,371)" x2="600" y2="0" stroke="#ddd" stroke-width="1" opacity="1"/><line transform="translate(0,343)" x2="600" y2="0" stroke="#ddd" stroke-width="1" opacity="1"/><line transform="translate(0,314)" x2="600" y2="0" stroke="#ddd" stroke-width="1" opacity="1"/><line transform="translate(0,286)" x2="600" y2="0" stroke="#ddd" stroke-width="1" opacity="1"/><line transform="translate(0,257)" x2="600" y2="0" stroke="#ddd" stroke-width="1" opacity="1"/><line transform="translate(0,229)" x2="600" y2="0" stroke="#ddd" stroke-width="1" opacity="1"/><line transform="translate(0,200)" x2="600" y2="0" stroke="#ddd" stroke-width="1" opacity="1"/><line transform="translate(0,171)" x2="600" y2="0" stroke="#ddd" stroke-width="1" opacity="1"/><line transform="translate(0,143)" x2="600" y2="0" stroke="#ddd" stroke-width="1" opacity="1"/><line transform="translate(0,114)" x2="600" y2="0" stroke="#ddd" stroke-width="1" opacity="1"/><line transform="translate(0,86)" x2="600" y2="0" stroke="#ddd" stroke-width="1" opacity="1"/><line transform="translate(0,57)" x2="600" y2="0" stroke="#ddd" stroke-width="1" opacity="1"/><line transform="translate(0,29)" x2="600" y2="0" stroke="#ddd" stroke-width="1" opacity="1"/><line transform="translate(0,0)" x2="600" y2="0" stroke="#ddd" stroke-width="1" opacity="1"/></g></g><path class="foreground" aria-hidden="true" d="" pointer-events="none" display="none"/></g></g><g class="mark-group role-axis" role="graphics-symbol" aria-roledescription="axis" aria-label="X-axis titled '年齢' for a linear scale with values from 40 to 95"><g transform="translate(0.5,400.5)"><path class="background" aria-hidden="true" d="M0,0h0v0h0Z" pointer-events="none"/><g><g class="mark-rule role-axis-tick" pointer-events="none"><line transform="translate(0,0)" x2="0" y2="5" stroke="#888" stroke-width="1" opacity="1"/><line transform="translate(55,0)" x2="0" y2="5" stroke="#888" stroke-width="1" opacity="1"/><line transform="translate(109,0)" x2="0" y2="5" stroke="#888" stroke-width="1" opacity="1"/><line transform="translate(164,0)" x2="0" y2="5" stroke="#888" stroke-width="1" opacity="1"/><line transform="translate(218,0)" x2="0" y2="5" stroke="#888" stroke-width="1" opacity="1"/><line transform="translate(273,0)" x2="0" y2="5" stroke="#888" stroke-width="1" opacity="1"/><line transform="translate(327,0)" x2="0" y2="5" stroke="#888" stroke-width="1" opacity="1"/><line transform="translate(382,0)" x2="0" y2="5" stroke="#888" stroke-width="1" opacity="1"/><line transform="translate(436,0)" x2="0" y2="5" stroke="#888" stroke-width="1" opacity="1"/><line transform="translate(491,0)" x2="0" y2="5" stroke="#888" stroke-width="1" opacity="1"/><line transform="translate(545,0)" x2="0" y2="5" stroke="#888" stroke-width="1" opacity="1"/><line transform="translate(600,0)" x2="0" y2="5" stroke="#888" stroke-width="1" opacity="1"/></g><g class="mark-text role-axis-label" pointer-events="none"><text text-anchor="start" transform="translate(0,15)" font-family="sans-serif" font-size="10px" fill="#000" opacity="1">40</text><text text-anchor="middle" transform="translate(54.54545454545455,15)" font-family="sans-serif" font-size="10px" fill="#000" opacity="1">45</text><text text-anchor="middle" transform="translate(109.0909090909091,15)" font-family="sans-serif" font-size="10px" fill="#000" opacity="1">50</text><text text-anchor="middle" transform="translate(163.63636363636363,15)" font-family="sans-serif" font-size="10px" fill="#000" opacity="1">55</text><text text-anchor="middle" transform="translate(218.1818181818182,15)" font-family="sans-serif" font-size="10px" fill="#000" opacity="1">60</text><text text-anchor="middle" transform="translate(272.7272727272727,15)" font-family="sans-serif" font-size="10px" fill="#000" opacity="1">65</text><text text-anchor="middle" transform="translate(327.27272727272725,15)" font-family="sans-serif" font-size="10px" fill="#000" opacity="1">70</text><text text-anchor="middle" transform="translate(381.8181818181818,15)" font-family="sans-serif" font-size="10px" fill="#000" opacity="1">75</text><text text-anchor="middle" transform="translate(436.3636363636364,15)" font-family="sans-serif" font-size="10px" fill="#000" opacity="1">80</text><text text-anchor="middle" transform="translate(490.90909090909093,15)" font-family="sans-serif" font-size="10px" fill="#000" opacity="1">85</text><text text-anchor="middle" transform="translate(545.4545454545454,15)" font-family="sans-serif" font-size="10px" fill="#000" opacity="1">90</text><text text-anchor="end" transform="translate(600,15)" font-family="sans-serif" font-size="10px" fill="#000" opacity="1">95</text></g><g class="mark-rule role-axis-domain" pointer-events="none"><line transform="translate(0,0)" x2="600" y2="0" stroke="#888" stroke-width="1" opacity="1"/></g><g class="mark-text role-axis-title" pointer-events="none"><text text-anchor="middle" transform="translate(300,30)" font-family="sans-serif" font-size="11px" font-weight="bold" fill="#000" opacity="1">年齢</text></g></g><path class="foreground" aria-hidden="true" d="" pointer-events="none" display="none"/></g></g><g class="mark-group role-axis" role="graphics-symbol" aria-roledescription="axis" aria-label="Y-axis titled '年間取り崩し額 (万円)' for a linear scale with values from −50 to 650"><g transform="translate(0.5,0.5)"><path class="background" aria-hidden="true" d="M0,0h0v0h0Z" pointer-events="none"/><g><g class="mark-rule role-axis-tick" pointer-events="none"><line transform="translate(0,400)" x2="-5" y2="0" stroke="#888" stroke-width="1" opacity="1"/><line transform="translate(0,371)" x2="-5" y2="0" stroke="#888" stroke-width="1" opacity="1"/><line transform="translate(0,343)" x2="-5" y2="0" stroke="#888" stroke-width="1" opacity="1"/><line transform="translate(0,314)" x2="-5" y2="0" stroke="#888" stroke-width="1" opacity="1"/><line transform="translate(0,286)" x2="-5" y2="0" stroke="#888" stroke-width="1" opacity="1"/><line transform="translate(0,257)" x2="-5" y2="0" stroke="#888" stroke-width="1" opacity="1"/><line transform="translate(0,229)" x2="-5" y2="0" stroke="#888" stroke-width="1" opacity="1"/><line transform="translate(0,200)" x2="-5" y2="0" stroke="#888" stroke-width="1" opacity="1"/><line transform="translate(0,171)" x2="-5" y2="0" stroke="#888" stroke-width="1" opacity="1"/><line transform="translate(0,143)" x2="-5" y2="0" stroke="#888" stroke-width="1" opacity="1"/><line transform="translate(0,114)" x2="-5" y2="0" stroke="#888" stroke-width="1" opacity="1"/><line transform="translate(0,86)" x2="-5" y2="0" stroke="#888" stroke-width="1" opacity="1"/><line transform="translate(0,57)" x2="-5" y2="0" stroke="#888" stroke-width="1" opacity="1"/><line transform="translate(0,29)" x2="-5" y2="0" stroke="#888" stroke-width="1" opacity="1"/><line transform="translate(0,0)" x2="-5" y2="0" stroke="#888" stroke-width="1" opacity="1"/></g><g class="mark-text role-axis-label" pointer-events="none"><text text-anchor="end" transform="translate(-7,403)" font-family="sans-serif" font-size="10px" fill="#000" opacity="1">−50</text><text text-anchor="end" transform="translate(-7,374.42857142857144)" font-family="sans-serif" font-size="10px" fill="#000" opacity="1">0</text><text text-anchor="end" transform="translate(-7,345.8571428571429)" font-family="sans-serif" font-size="10px" fill="#000" opacity="1">50</text><text text-anchor="end" transform="translate(-7,317.2857142857143)" font-family="sans-serif" font-size="10px" fill="#000" opacity="1">100</text><text text-anchor="end" transform="translate(-7,288.7142857142857)" font-family="sans-serif" font-size="10px" fill="#000" opacity="1">150</text><text text-anchor="end" transform="translate(-7,260.1428571428571)" font-family="sans-serif" font-size="10px" fill="#000" opacity="1">200</text><text text-anchor="end" transform="translate(-7,231.57142857142856)" font-family="sans-serif" font-size="10px" fill="#000" opacity="1">250</text><text text-anchor="end" transform="translate(-7,203)" font-family="sans-serif" font-size="10px" fill="#000" opacity="1">300</text><text text-anchor="end" transform="translate(-7,174.42857142857144)" font-family="sans-serif" font-size="10px" fill="#000" opacity="1">350</text><text text-anchor="end" transform="translate(-7,145.85714285714283)" font-family="sans-serif" font-size="10px" fill="#000" opacity="1">400</text><text text-anchor="end" transform="translate(-7,117.28571428571428)" font-family="sans-serif" font-size="10px" fill="#000" opacity="1">450</text><text text-anchor="end" transform="translate(-7,88.71428571428572)" font-family="sans-serif" font-size="10px" fill="#000" opacity="1">500</text><text text-anchor="end" transform="translate(-7,60.14285714285716)" font-family="sans-serif" font-size="10px" fill="#000" opacity="1">550</text><text text-anchor="end" transform="translate(-7,31.57142857142856)" font-family="sans-serif" font-size="10px" fill="#000" opacity="1">600</text><text text-anchor="end" transform="translate(-7,3)" font-family="sans-serif" font-size="10px" fill="#000" opacity="1">650</text></g><g class="mark-rule role-axis-domain" pointer-events="none"><line transform="translate(0,400)" x2="0" y2="-400" stroke="#888" stroke-width="1" opacity="1"/></g><g class="mark-text role-axis-title" pointer-events="none"><text text-anchor="middle" transform="translate(-27.962890625,200) rotate(-90) translate(0,-2)" font-family="sans-serif" font-size="11px" font-weight="bold" fill="#000" opacity="1">年間取り崩し額 (万円)</text></g></g><path class="foreground" aria-hidden="true" d="" pointer-events="none" display="none"/></g></g><g class="mark-group role-scope layer_0_pathgroup" role="graphics-object" aria-roledescription="group mark container"><g transform="translate(0,0)"><path class="background" aria-hidden="true" d="M0,0h600v400h-600Z"/><g><g class="mark-area role-mark layer_0_marks" role="graphics-object" aria-roledescription="area mark container"><path aria-label="年齢: 41; 年間取り崩し額 (万円): 479.637149036; spend75p: 486.366954392; 戦略: 定額取り崩し（ベースライン）" role="graphics-symbol" aria-roledescription="area mark" d="M10.909,97.35L21.818,92.356L32.727,86.671L43.636,80.775L54.545,74.785L65.455,69.091L76.364,63.477L87.273,57.96L98.182,52.744L109.091,48.498L120,45.062L130.909,42.423L141.818,41.139L152.727,41.154L163.636,42.704L174.545,45.857L185.455,50.985L196.364,56.568L207.273,62.839L218.182,69.69L229.091,166.19L240,173.597L250.909,180.518L261.818,187.792L272.727,194.438L283.636,201.128L294.545,208.748L305.455,216.462L316.364,224.354L327.273,233.327L338.182,242.035L349.091,250.249L360,258.58L370.909,265.861L381.818,272.189L392.727,277.869L403.636,282.589L414.545,286.407L425.455,290.072L436.364,293.147L447.273,295.968L458.182,298.182L469.091,301.668L480,304.095L490.909,306.884L501.818,310.445L512.727,314.107L523.636,317.94L534.545,322.033L545.455,326.679L556.364,330.321L567.273,335.209L578.182,339.911L589.091,344.7L600,348.888L600,300.348L589.091,296.807L578.182,292.941L567.273,289.853L556.364,286.668L545.455,283.248L534.545,280.622L523.636,277.604L512.727,275.309L501.818,272.881L490.909,270.926L480,269.134L469.091,267.457L458.182,265.513L447.273,263.742L436.364,262.097L425.455,260.093L414.545,257.362L403.636,254.417L392.727,250.662L381.818,246.122L370.909,240.402L360,233.985L349.091,226.389L338.182,218.46L327.273,210.719L316.364,202.685L305.455,195.588L294.545,188.594L283.636,182.038L272.727,175.691L261.818,169.494L250.909,163.46L240,156.687L229.091,149.833L218.182,62.057L207.273,55.334L196.364,48.603L185.455,42.75L174.545,37.813L163.636,34.561L152.727,32.92L141.818,33.001L130.909,34.257L120,36.937L109.091,40.647L98.182,45.577L87.273,50.705L76.364,56.307L65.455,62.346L54.545,68.512L43.636,74.595L32.727,80.809L21.818,87.295L10.909,93.505Z" fill="green" opacity="0.3"/></g></g><path class="foreground" aria-hidden="true" d="" display="none"/></g><g transform="translate(0,0)"><path class="background" aria-hidden="true" d="M0,0h600v400h-600Z"/><g><g class="mark-area role-mark layer_0_marks" role="graphics-object" aria-roledescription="area mark container"><path aria-label="年齢: 41; 年間取り崩し額 (万円): 479.304705478; spend75p: 479.606591788; 戦略: 支出率を目標にする@ダイナミックスペンディング" role="graphics-symbol" aria-roledescription="area mark" d="M10.909,97.54L21.818,95.401L32.727,93.328L43.636,85.957L54.545,83.756L65.455,82.23L76.364,80.865L87.273,79.885L98.182,79.389L109.091,79.527L120,80.385L130.909,81.653L141.818,82.634L152.727,83.15L163.636,88.486L174.545,95.155L185.455,101.637L196.364,106.772L207.273,114.666L218.182,123.377L229.091,213.603L240,222.108L250.909,229.73L261.818,236.733L272.727,243.624L283.636,250.938L294.545,257.659L305.455,264.897L316.364,272.809L327.273,280.531L338.182,288.258L349.091,295.431L360,302.466L370.909,308.249L381.818,314.091L392.727,319.072L403.636,323.469L414.545,326.838L425.455,330.418L436.364,334.293L447.273,337.339L458.182,340.424L469.091,342.385L480,345.571L490.909,347.97L501.818,350.997L512.727,354.581L523.636,357.827L534.545,360.911L545.455,364.408L556.364,367.802L567.273,371.195L578.182,375.225L589.091,378.403L600,383.357L600,296.817L589.091,294.448L578.182,291.998L567.273,289.513L556.364,286.495L545.455,284.085L534.545,281.081L523.636,277.781L512.727,275.846L501.818,273.869L490.909,272.946L480,271.302L469.091,269.619L458.182,268.68L447.273,267.314L436.364,266.426L425.455,264.072L414.545,261.497L403.636,258.241L392.727,254.16L381.818,249.611L370.909,243.91L360,236.238L349.091,228.597L338.182,219.777L327.273,210.779L316.364,201.609L305.455,192.802L294.545,185.241L283.636,177.901L272.727,169.847L261.818,162.727L250.909,154.347L240,146.123L229.091,136.89L218.182,40.865L207.273,35.793L196.364,27.936L185.455,22.11L174.545,19.863L163.636,16.813L152.727,14.143L141.818,16.593L130.909,21.17L120,26.974L109.091,28.289L98.182,34.305L87.273,42.667L76.364,51.237L65.455,53.458L54.545,62.35L43.636,71.258L32.727,80.091L21.818,88.798L10.909,97.368Z" fill="red" opacity="0.3"/></g></g><path class="foreground" aria-hidden="true" d="" display="none"/></g><g transform="translate(0,0)"><path class="background" aria-hidden="true" d="M0,0h600v400h-600Z"/><g><g class="mark-area role-mark layer_0_marks" role="graphics-object" aria-roledescription="area mark container"><path aria-label="年齢: 41; 年間取り崩し額 (万円): 472.437869094; spend75p: 472.739755403; 戦略: 生存確率を目標にする@ダイナミックスペンディング" role="graphics-symbol" aria-roledescription="area mark" d="M10.909,101.464L21.818,99.58L32.727,97.792L43.636,96.118L54.545,94.571L65.455,93.149L76.364,91.893L87.273,90.977L98.182,90.528L109.091,90.723L120,91.669L130.909,93.493L141.818,96.312L152.727,100.237L163.636,105.377L174.545,111.772L185.455,119.095L196.364,127.058L207.273,132.479L218.182,137.59L229.091,223.966L240,229.79L250.909,232.713L261.818,235.562L272.727,238.364L283.636,242.489L294.545,246.089L305.455,250.188L316.364,255.397L327.273,260.704L338.182,266.241L349.091,271.794L360,276.772L370.909,281.436L381.818,285.856L392.727,288.942L403.636,292.315L414.545,294.057L425.455,295.526L436.364,296.832L447.273,298.066L458.182,299.004L469.091,299.79L480,300.904L490.909,302.206L501.818,303.32L512.727,304.507L523.636,306.41L534.545,307.925L545.455,310.355L556.364,313.01L567.273,315.683L578.182,318.705L589.091,321.129L600,323.954L600,263.108L589.091,260.929L578.182,258.846L567.273,256.285L556.364,255.11L545.455,253.872L534.545,252.74L523.636,251.118L512.727,250.771L501.818,250.214L490.909,249.917L480,249.968L469.091,250.114L458.182,250.24L447.273,250.679L436.364,250.619L425.455,250.225L414.545,249.07L403.636,247.296L392.727,244.7L381.818,241.83L370.909,237.765L360,232.935L349.091,227.163L338.182,220.927L327.273,214.875L316.364,209.078L305.455,203.642L294.545,198.697L283.636,194.418L272.727,190.887L261.818,187.084L250.909,183.531L240,179.056L229.091,174.43L218.182,81.911L207.273,78.795L196.364,76.011L185.455,71.838L174.545,69.866L163.636,68.413L152.727,67.247L141.818,69.01L130.909,72.058L120,74.68L109.091,77.942L98.182,81.754L87.273,84.49L76.364,88.017L65.455,92.745L54.545,94.266L43.636,95.848L32.727,97.537L21.818,99.355L10.909,101.292Z" fill="blue" opacity="0.3"/></g></g><path class="foreground" aria-hidden="true" d="" display="none"/></g></g><g class="mark-group role-scope layer_1_pathgroup" role="graphics-object" aria-roledescription="group mark container"><g transform="translate(0,0)"><path class="background" aria-hidden="true" d="M0,0h600v400h-600Z"/><g><g class="mark-line role-mark layer_1_marks" role="graphics-object" aria-roledescription="line mark container"><path aria-label="年齢: 41; spend50p: 482.953656325; group_label: 定額取り崩し（ベースライン）" role="graphics-symbol" aria-roledescription="line mark" d="M10.909,95.455L21.818,89.76L32.727,83.767L43.636,77.644L54.545,71.69L65.455,65.752L76.364,59.871L87.273,54.337L98.182,49.237L109.091,44.725L120,41.039L130.909,38.349L141.818,36.885L152.727,36.826L163.636,38.45L174.545,42.037L185.455,46.743L196.364,52.606L207.273,59.176L218.182,65.883L229.091,157.219L240,164.196L250.909,171.083L261.818,177.34L272.727,183.789L283.636,190.085L294.545,196.637L305.455,203.878L316.364,211.349L327.273,219.414L338.182,227.683L349.091,236.021L360,244.037L370.909,250.9L381.818,256.644L392.727,262.125L403.636,265.952L414.545,269.63L425.455,272.625L436.364,275.196L447.273,277.67L458.182,279.712L469.091,281.737L480,283.961L490.909,285.894L501.818,288.481L512.727,291.209L523.636,294.123L534.545,297.394L545.455,300.7L556.364,304.404L567.273,308.193L578.182,312.361L589.091,315.88L600,320.248" stroke="green" stroke-width="2"/></g></g><path class="foreground" aria-hidden="true" d="" display="none"/></g><g transform="translate(0,0)"><path class="background" aria-hidden="true" d="M0,0h600v400h-600Z"/><g><g class="mark-line role-mark layer_1_marks" role="graphics-object" aria-roledescription="line mark container"><path aria-label="年齢: 41; spend50p: 479.453477708; group_label: 支出率を目標にする@ダイナミックスペンディング" role="graphics-symbol" aria-roledescription="line mark" d="M10.909,97.455L21.818,88.994L32.727,86.624L43.636,78.362L54.545,76.31L65.455,68.226L76.364,66.547L87.273,65.215L98.182,59.212L109.091,57.992L120,58.881L130.909,59.293L141.818,56.977L152.727,61L163.636,60.084L174.545,67.232L185.455,69.142L196.364,76.365L207.273,81.69L218.182,85.491L229.091,177.979L240,187.148L250.909,194.49L261.818,202.019L272.727,208.542L283.636,215.692L294.545,223.216L305.455,231.194L316.364,238.627L327.273,247.106L338.182,255.547L349.091,264.044L360,271.25L370.909,277.433L381.818,283.399L392.727,288.984L403.636,293.685L414.545,298.041L425.455,300.866L436.364,304.334L447.273,307.032L458.182,309.281L469.091,311.8L480,314.1L490.909,316.591L501.818,319.498L512.727,322.558L523.636,325.716L534.545,329.306L545.455,332.744L556.364,335.484L567.273,339.438L578.182,342.871L589.091,345.992L600,349.932" stroke="red" stroke-width="2"/></g></g><path class="foreground" aria-hidden="true" d="" display="none"/></g><g transform="translate(0,0)"><path class="background" aria-hidden="true" d="M0,0h600v400h-600Z"/><g><g class="mark-line role-mark layer_1_marks" role="graphics-object" aria-roledescription="line mark container"><path aria-label="年齢: 41; spend50p: 472.586641323; group_label: 生存確率を目標にする@ダイナミックスペンディング" role="graphics-symbol" aria-roledescription="line mark" d="M10.909,101.379L21.818,99.465L32.727,97.666L43.636,95.982L54.545,94.435L65.455,92.979L76.364,91.703L87.273,90.771L98.182,90.307L109.091,90.413L120,91.261L130.909,89.814L141.818,92.185L152.727,92.3L163.636,93.444L174.545,95.039L185.455,96.727L196.364,101.122L207.273,103.2L218.182,105.16L229.091,194.393L240,199.231L250.909,202.855L261.818,206.234L272.727,209.45L283.636,213.04L294.545,217.258L305.455,222.906L316.364,227.959L327.273,233.387L338.182,239.831L349.091,245.724L360,251.517L370.909,256.77L381.818,260.791L392.727,264.068L403.636,266.607L414.545,268.085L425.455,269.261L436.364,270.142L447.273,270.536L458.182,271.054L469.091,271.498L480,271.882L490.909,272.555L501.818,273.038L512.727,274.405L523.636,275.533L534.545,277.111L545.455,279.559L556.364,280.826L567.273,283.028L578.182,284.945L589.091,287.529L600,290.135" stroke="blue" stroke-width="2"/></g></g><path class="foreground" aria-hidden="true" d="" display="none"/></g></g><g class="mark-group role-legend" role="graphics-symbol" aria-roledescription="legend" aria-label="Symbol legend titled '戦略' for fill color and stroke color with 3 values: 支出率を目標にする@ダイナミックスペンディング, 生存確率を目標にする@ダイナミックスペンディング, 定額取り崩し（ベースライン）"><g transform="translate(0,-57)"><path class="background" aria-hidden="true" d="M0,0h470v39h-470Z" pointer-events="none"/><g><g class="mark-group role-legend-entry"><g transform="translate(0,16)"><path class="background" aria-hidden="true" d="M0,0h0v0h0Z" pointer-events="none"/><g><g class="mark-group role-scope" role="graphics-object" aria-roledescription="group mark container"><g transform="translate(0,0)"><path class="background" aria-hidden="true" d="M0,0h146v23h-146Z" pointer-events="none" opacity="1"/><g><g class="mark-symbol role-legend-symbol" pointer-events="none"><path transform="translate(6,6)" d="M5,0A5,5,0,1,1,-5,0A5,5,0,1,1,5,0" fill="red" stroke="red" stroke-width="1.5" opacity="0.3"/></g><g class="mark-text role-legend-label" pointer-events="none"><text text-anchor="start" transform="translate(16,9)" font-family="sans-serif" font-size="10px" fill="#000" opacity="1"><tspan>支出率を目標にする</tspan><tspan x="0" dy="12">ダイナミックスペンディング</tspan></text></g></g><path class="foreground" aria-hidden="true" d="" pointer-events="none" display="none"/></g><g transform="translate(157,0)"><path class="background" aria-hidden="true" d="M0,0h146v23h-146Z" pointer-events="none" opacity="1"/><g><g class="mark-symbol role-legend-symbol" pointer-events="none"><path transform="translate(6,6)" d="M5,0A5,5,0,1,1,-5,0A5,5,0,1,1,5,0" fill="blue" stroke="blue" stroke-width="1.5" opacity="0.3"/></g><g class="mark-text role-legend-label" pointer-events="none"><text text-anchor="start" transform="translate(16,9)" font-family="sans-serif" font-size="10px" fill="#000" opacity="1"><tspan>生存確率を目標にする</tspan><tspan x="0" dy="12">ダイナミックスペンディング</tspan></text></g></g><path class="foreground" aria-hidden="true" d="" pointer-events="none" display="none"/></g><g transform="translate(314,5.25)"><path class="background" aria-hidden="true" d="M0,0h156v12.5h-156Z" pointer-events="none" opacity="1"/><g><g class="mark-symbol role-legend-symbol" pointer-events="none"><path transform="translate(6,6)" d="M5,0A5,5,0,1,1,-5,0A5,5,0,1,1,5,0" fill="green" stroke="green" stroke-width="1.5" opacity="0.3"/></g><g class="mark-text role-legend-label" pointer-events="none"><text text-anchor="start" transform="translate(16,9)" font-family="sans-serif" font-size="10px" fill="#000" opacity="1">定額取り崩し（ベースライン）</text></g></g><path class="foreground" aria-hidden="true" d="" pointer-events="none" display="none"/></g></g></g><path class="foreground" aria-hidden="true" d="" pointer-events="none" display="none"/></g></g><g class="mark-text role-legend-title" pointer-events="none"><text text-anchor="start" transform="translate(0,9)" font-family="sans-serif" font-size="11px" font-weight="bold" fill="#000" opacity="1">戦略</text></g></g><path class="foreground" aria-hidden="true" d="" pointer-events="none" display="none"/></g></g><g class="mark-group role-title"><g transform="translate(300,-74)"><path class="background" aria-hidden="true" d="M0,0h0v0h0Z" pointer-events="none"/><g><g class="mark-text role-title-text" role="graphics-symbol" aria-roledescription="title" aria-label="Title text '実質支出額の推移比較 (初期支出率: 4.5%, 共通生存パスのみ)'" pointer-events="none"><text text-anchor="middle" transform="translate(0,10)" font-family="sans-serif" font-size="13px" font-weight="bold" fill="#000" opacity="1">実質支出額の推移比較 (初期支出率: 4.5%, 共通生存パスのみ)</text></g></g><path class="foreground" aria-hidden="true" d="" pointer-events="none" display="none"/></g></g></g><path class="foreground" aria-hidden="true" d="" display="none"/></g></g></g></svg>