<svg xmlns="http://www.w3.org/2000/svg" xmlns:xlink="http://www.w3.org/1999/xlink" version="1.1" class="marks" width="651" height="516" viewBox="0 0 651 516"><rect width="651" height="516" fill="white"/><g fill="none" stroke-miterlimit="10" transform="translate(44,79)"><g class="mark-group role-frame root" role="graphics-object" aria-roledescription="group mark container"><g transform="translate(0,0)"><path class="background" aria-hidden="true" d="M0.5,0.5h600v400h-600Z" stroke="#ddd"/><g><g class="mark-group role-axis" aria-hidden="true"><g transform="translate(0.5,400.5)"><path class="background" aria-hidden="true" d="M0,0h0v0h0Z" pointer-events="none"/><g><g class="mark-rule role-axis-grid" pointer-events="none"><line transform="translate(0,-400)" x2="0" y2="400" stroke="#ddd" stroke-width="1" opacity="1"/><line transform="translate(55,-400)" x2="0" y2="400" stroke="#ddd" stroke-width="1" opacity="1"/><line transform="translate(109,-400)" x2="0" y2="400" stroke="#ddd" stroke-width="1" opacity="1"/><line transform="translate(164,-400)" x2="0" y2="400" stroke="#ddd" stroke-width="1" opacity="1"/><line transform="translate(218,-400)" x2="0" y2="400" stroke="#ddd" stroke-width="1" opacity="1"/><line transform="translate(273,-400)" x2="0" y2="400" stroke="#ddd" stroke-width="1" opacity="1"/><line transform="translate(327,-400)" x2="0" y2="400" stroke="#ddd" stroke-width="1" opacity="1"/><line transform="translate(382,-400)" x2="0" y2="400" stroke="#ddd" stroke-width="1" opacity="1"/><line transform="translate(436,-400)" x2="0" y2="400" stroke="#ddd" stroke-width="1" opacity="1"/><line transform="translate(491,-400)" x2="0" y2="400" stroke="#ddd" stroke-width="1" opacity="1"/><line transform="translate(545,-400)" x2="0" y2="400" stroke="#ddd" stroke-width="1" opacity="1"/><line transform="translate(600,-400)" x2="0" y2="400" stroke="#ddd" stroke-width="1" opacity="1"/></g></g><path class="foreground" aria-hidden="true" d="" pointer-events="none" display="none"/></g></g><g class="mark-group role-axis" aria-hidden="true"><g transform="translate(0.5,0.5)"><path class="background" aria-hidden="true" d="M0,0h0v0h0Z" pointer-events="none"/><g><g class="mark-rule role-axis-grid" pointer-events="none"><line transform="translate(0,400)" x2="600" y2="0" stroke="#ddd" stroke-width="1" opacity="1"/><line transform="translate(0,369)" x2="600" y2="0" stroke="#ddd" stroke-width="1" opacity="1"/><line transform="translate(0,338)" x2="600" y2="0" stroke="#ddd" stroke-width="1" opacity="1"/><line transform="translate(0,308)" x2="600" y2="0" stroke="#ddd" stroke-width="1" opacity="1"/><line transform="translate(0,277)" x2="600" y2="0" stroke="#ddd" stroke-width="1" opacity="1"/><line transform="translate(0,246)" x2="600" y2="0" stroke="#ddd" stroke-width="1" opacity="1"/><line transform="translate(0,215)" x2="600" y2="0" stroke="#ddd" stroke-width="1" opacity="1"/><line transform="translate(0,185)" x2="600" y2="0" stroke="#ddd" stroke-width="1" opacity="1"/><line transform="translate(0,154)" x2="600" y2="0" stroke="#ddd" stroke-width="1" opacity="1"/><line transform="translate(0,123)" x2="600" y2="0" stroke="#ddd" stroke-width="1" opacity="1"/><line transform="translate(0,92)" x2="600" y2="0" stroke="#ddd" stroke-width="1" opacity="1"/><line transform="translate(0,62)" x2="600" y2="0" stroke="#ddd" stroke-width="1" opacity="1"/><line transform="translate(0,31)" x2="600" y2="0" stroke="#ddd" stroke-width="1" opacity="1"/><line transform="translate(0,0)" x2="600" y2="0" stroke="#ddd" stroke-width="1" opacity="1"/></g></g><path class="foreground" aria-hidden="true" d="" pointer-events="none" display="none"/></g></g><g class="mark-group role-axis" role="graphics-symbol" aria-roledescription="axis" aria-label="X-axis titled '年齢' for a linear scale with values from 40 to 95"><g transform="translate(0.5,400.5)"><path class="background" aria-hidden="true" d="M0,0h0v0h0Z" pointer-events="none"/><g><g class="mark-rule role-axis-tick" pointer-events="none"><line transform="translate(0,0)" x2="0" y2="5" stroke="#888" stroke-width="1" opacity="1"/><line transform="translate(55,0)" x2="0" y2="5" stroke="#888" stroke-width="1" opacity="1"/><line transform="translate(109,0)" x2="0" y2="5" stroke="#888" stroke-width="1" opacity="1"/><line transform="translate(164,0)" x2="0" y2="5" stroke="#888" stroke-width="1" opacity="1"/><line transform="translate(218,0)" x2="0" y2="5" stroke="#888" stroke-width="1" opacity="1"/><line transform="translate(273,0)" x2="0" y2="5" stroke="#888" stroke-width="1" opacity="1"/><line transform="translate(327,0)" x2="0" y2="5" stroke="#888" stroke-width="1" opacity="1"/><line transform="translate(382,0)" x2="0" y2="5" stroke="#888" stroke-width="1" opacity="1"/><line transform="translate(436,0)" x2="0" y2="5" stroke="#888" stroke-width="1" opacity="1"/><line transform="translate(491,0)" x2="0" y2="5" stroke="#888" stroke-width="1" opacity="1"/><line transform="translate(545,0)" x2="0" y2="5" stroke="#888" stroke-width="1" opacity="1"/><line transform="translate(600,0)" x2="0" y2="5" stroke="#888" stroke-width="1" opacity="1"/></g><g class="mark-text role-axis-label" pointer-events="none"><text text-anchor="start" transform="translate(0,15)" font-family="sans-serif" font-size="10px" fill="#000" opacity="1">40</text><text text-anchor="middle" transform="translate(54.54545454545455,15)" font-family="sans-serif" font-size="10px" fill="#000" opacity="1">45</text><text text-anchor="middle" transform="translate(109.0909090909091,15)" font-family="sans-serif" font-size="10px" fill="#000" opacity="1">50</text><text text-anchor="middle" transform="translate(163.63636363636363,15)" font-family="sans-serif" font-size="10px" fill="#000" opacity="1">55</text><text text-anchor="middle" transform="translate(218.1818181818182,15)" font-family="sans-serif" font-size="10px" fill="#000" opacity="1">60</text><text text-anchor="middle" transform="translate(272.7272727272727,15)" font-family="sans-serif" font-size="10px" fill="#000" opacity="1">65</text><text text-anchor="middle" transform="translate(327.27272727272725,15)" font-family="sans-serif" font-size="10px" fill="#000" opacity="1">70</text><text text-anchor="middle" transform="translate(381.8181818181818,15)" font-family="sans-serif" font-size="10px" fill="#000" opacity="1">75</text><text text-anchor="middle" transform="translate(436.3636363636364,15)" font-family="sans-serif" font-size="10px" fill="#000" opacity="1">80</text><text text-anchor="middle" transform="translate(490.90909090909093,15)" font-family="sans-serif" font-size="10px" fill="#000" opacity="1">85</text><text text-anchor="middle" transform="translate(545.4545454545454,15)" font-family="sans-serif" font-size="10px" fill="#000" opacity="1">90</text><text text-anchor="end" transform="translate(600,15)" font-family="sans-serif" font-size="10px" fill="#000" opacity="1">95</text></g><g class="mark-rule role-axis-domain" pointer-events="none"><line transform="translate(0,0)" x2="600" y2="0" stroke="#888" stroke-width="1" opacity="1"/></g><g class="mark-text role-axis-title" pointer-events="none"><text text-anchor="middle" transform="translate(300,30)" font-family="sans-serif" font-size="11px" font-weight="bold" fill="#000" opacity="1">年齢</text></g></g><path class="foreground" aria-hidden="true" d="" pointer-events="none" display="none"/></g></g><g class="mark-group role-axis" role="graphics-symbol" aria-roledescription="axis" aria-label="Y-axis titled '年間取り崩し額 (万円)' for a linear scale with values from −50 to 600"><g transform="translate(0.5,0.5)"><path class="background" aria-hidden="true" d="M0,0h0v0h0Z" pointer-events="none"/><g><g class="mark-rule role-axis-tick" pointer-events="none"><line transform="translate(0,400)" x2="-5" y2="0" stroke="#888" stroke-width="1" opacity="1"/><line transform="translate(0,369)" x2="-5" y2="0" stroke="#888" stroke-width="1" opacity="1"/><line transform="translate(0,338)" x2="-5" y2="0" stroke="#888" stroke-width="1" opacity="1"/><line transform="translate(0,308)" x2="-5" y2="0" stroke="#888" stroke-width="1" opacity="1"/><line transform="translate(0,277)" x2="-5" y2="0" stroke="#888" stroke-width="1" opacity="1"/><line transform="translate(0,246)" x2="-5" y2="0" stroke="#888" stroke-width="1" opacity="1"/><line transform="translate(0,215)" x2="-5" y2="0" stroke="#888" stroke-width="1" opacity="1"/><line transform="translate(0,185)" x2="-5" y2="0" stroke="#888" stroke-width="1" opacity="1"/><line transform="translate(0,154)" x2="-5" y2="0" stroke="#888" stroke-width="1" opacity="1"/><line transform="translate(0,123)" x2="-5" y2="0" stroke="#888" stroke-width="1" opacity="1"/><line transform="translate(0,92)" x2="-5" y2="0" stroke="#888" stroke-width="1" opacity="1"/><line transform="translate(0,62)" x2="-5" y2="0" stroke="#888" stroke-width="1" opacity="1"/><line transform="translate(0,31)" x2="-5" y2="0" stroke="#888" stroke-width="1" opacity="1"/><line transform="translate(0,0)" x2="-5" y2="0" stroke="#888" stroke-width="1" opacity="1"/></g><g class="mark-text role-axis-label" pointer-events="none"><text text-anchor="end" transform="translate(-7,403)" font-family="sans-serif" font-size="10px" fill="#000" opacity="1">−50</text><text text-anchor="end" transform="translate(-7,372.2307692307692)" font-family="sans-serif" font-size="10px" fill="#000" opacity="1">0</text><text text-anchor="end" transform="translate(-7,341.46153846153845)" font-family="sans-serif" font-size="10px" fill="#000" opacity="1">50</text><text text-anchor="end" transform="translate(-7,310.6923076923077)" font-family="sans-serif" font-size="10px" fill="#000" opacity="1">100</text><text text-anchor="end" transform="translate(-7,279.9230769230769)" font-family="sans-serif" font-size="10px" fill="#000" opacity="1">150</text><text text-anchor="end" transform="translate(-7,249.15384615384616)" font-family="sans-serif" font-size="10px" fill="#000" opacity="1">200</text><text text-anchor="end" transform="translate(-7,218.3846153846154)" font-family="sans-serif" font-size="10px" fill="#000" opacity="1">250</text><text text-anchor="end" transform="translate(-7,187.6153846153846)" font-family="sans-serif" font-size="10px" fill="#000" opacity="1">300</text><text text-anchor="end" transform="translate(-7,156.84615384615384)" font-family="sans-serif" font-size="10px" fill="#000" opacity="1">350</text><text text-anchor="end" transform="translate(-7,126.07692307692308)" font-family="sans-serif" font-size="10px" fill="#000" opacity="1">400</text><text text-anchor="end" transform="translate(-7,95.30769230769229)" font-family="sans-serif" font-size="10px" fill="#000" opacity="1">450</text><text text-anchor="end" transform="translate(-7,64.53846153846155)" font-family="sans-serif" font-size="10px" fill="#000" opacity="1">500</text><text text-anchor="end" transform="translate(-7,33.769230769230745)" font-family="sans-serif" font-size="10px" fill="#000" opacity="1">550</text><text text-anchor="end" transform="translate(-7,3)" font-family="sans-serif" font-size="10px" fill="#000" opacity="1">600</text></g><g class="mark-rule role-axis-domain" pointer-events="none"><line transform="translate(0,400)" x2="0" y2="-400" stroke="#888" stroke-width="1" opacity="1"/></g><g class="mark-text role-axis-title" pointer-events="none"><text text-anchor="middle" transform="translate(-27.962890625,200) rotate(-90) translate(0,-2)" font-family="sans-serif" font-size="11px" font-weight="bold" fill="#000" opacity="1">年間取り崩し額 (万円)</text></g></g><path class="foreground" aria-hidden="true" d="" pointer-events="none" display="none"/></g></g><g class="mark-group role-scope layer_0_pathgroup" role="graphics-object" aria-roledescription="group mark container"><g transform="translate(0,0)"><path class="background" aria-hidden="true" d="M0,0h600v400h-600Z"/><g><g class="mark-area role-mark layer_0_marks" role="graphics-object" aria-roledescription="area mark container"><path aria-label="年齢: 41; 年間取り崩し額 (万円): 479.637149036; spend75p: 486.366954392; 戦略: 定額取り崩し（ベースライン）" role="graphics-symbol" aria-roledescription="area mark" d="M10.909,74.069L21.818,68.691L32.727,62.569L43.636,56.22L54.545,49.768L65.455,43.636L76.364,37.59L87.273,31.648L98.182,26.033L109.091,21.458L120,17.725L130.909,14.905L141.818,13.418L152.727,13.381L163.636,15.125L174.545,18.48L185.455,23.917L196.364,29.967L207.273,36.679L218.182,43.99L229.091,146.165L240,154.245L250.909,161.625L261.818,168.916L272.727,175.991L283.636,183.105L294.545,190.98L305.455,199.195L316.364,207.526L327.273,216.602L338.182,225.629L349.091,234.576L360,243.158L370.909,250.894L381.818,257.45L392.727,263.165L403.636,267.652L414.545,272.445L425.455,276.287L436.364,280.211L447.273,283.348L458.182,285.933L469.091,289.073L480,291.139L490.909,294.16L501.818,296.95L512.727,300.585L523.636,304.588L534.545,309.201L545.455,313.161L556.364,317.921L567.273,323.375L578.182,327.905L589.091,332.341L600,337.428L600,288.786L589.091,284.695L578.182,281.01L567.273,277.335L556.364,273.874L545.455,270.664L534.545,267.253L523.636,264.343L512.727,261.789L501.818,259.857L490.909,257.9L480,256.521L469.091,254.377L458.182,252.527L447.273,250.469L436.364,248.84L425.455,246.453L414.545,243.968L403.636,240.616L392.727,236.247L381.818,231.447L370.909,225.522L360,218.375L349.091,210.655L338.182,202.459L327.273,193.98L316.364,185.653L305.455,177.955L294.545,170.613L283.636,163.589L272.727,156.601L261.818,150.02L250.909,143.326L240,136.544L229.091,129.227L218.182,35.892L207.273,28.626L196.364,21.376L185.455,15.083L174.545,9.839L163.636,6.372L152.727,4.66L141.818,4.73L130.909,6.089L120,8.946L109.091,12.992L98.182,18.313L87.273,23.839L76.364,29.869L65.455,36.372L54.545,43.013L43.636,49.564L32.727,56.255L21.818,63.241L10.909,69.928Z" fill="green" opacity="0.3"/></g></g><path class="foreground" aria-hidden="true" d="" display="none"/></g><g transform="translate(0,0)"><path class="background" aria-hidden="true" d="M0,0h600v400h-600Z"/><g><g class="mark-area role-mark layer_0_marks" role="graphics-object" aria-roledescription="area mark container"><path aria-label="年齢: 41; 年間取り崩し額 (万円): 479.304705478; spend75p: 479.606591788; 戦略: 支出率を目標にする@ダイナミックスペンディング" role="graphics-symbol" aria-roledescription="area mark" d="M10.909,74.274L21.818,71.919L32.727,69.713L43.636,64.498L54.545,60.705L65.455,57.868L76.364,56.235L87.273,55.1L98.182,54.48L109.091,54.529L120,54.953L130.909,56.212L141.818,58.541L152.727,62.159L163.636,66.008L174.545,72.327L185.455,80.561L196.364,89.578L207.273,98.952L218.182,108.149L229.091,201.286L240,210.675L250.909,219.481L261.818,227.486L272.727,235.207L283.636,242.75L294.545,249.936L305.455,257.3L316.364,265.51L327.273,273.401L338.182,281.615L349.091,289.41L360,296.874L370.909,303.531L381.818,309.179L392.727,313.845L403.636,318.003L414.545,321.395L425.455,325.038L436.364,328.085L447.273,331.134L458.182,333.429L469.091,336.381L480,339.085L490.909,341.654L501.818,344.824L512.727,347.71L523.636,351.162L534.545,354.737L545.455,358.031L556.364,361.544L567.273,364.736L578.182,368.536L589.091,371.954L600,375.471L600,302.035L589.091,299.067L578.182,295.46L567.273,293.004L556.364,289.554L545.455,287.377L534.545,284.942L523.636,281.993L512.727,281.142L501.818,279.651L490.909,277.515L480,277.035L469.091,274.931L458.182,274.036L447.273,272.537L436.364,271.034L425.455,269.373L414.545,267.285L403.636,264.195L392.727,260.3L381.818,255.964L370.909,250.958L360,244.417L349.091,237.206L338.182,228.927L327.273,220.012L316.364,211.086L305.455,203.416L294.545,196.086L283.636,188.27L272.727,181.104L261.818,172.584L250.909,164.664L240,155.549L229.091,145.638L218.182,38.199L207.273,32.822L196.364,26.455L185.455,19.513L174.545,16.015L163.636,10.661L152.727,9.621L141.818,5.455L130.909,6.216L120,7.404L109.091,6.75L98.182,10.984L87.273,15.285L76.364,20.188L65.455,26.581L54.545,36.288L43.636,45.904L32.727,55.438L21.818,64.849L10.909,74.088Z" fill="red" opacity="0.3"/></g></g><path class="foreground" aria-hidden="true" d="" display="none"/></g><g transform="translate(0,0)"><path class="background" aria-hidden="true" d="M0,0h600v400h-600Z"/><g><g class="mark-area role-mark layer_0_marks" role="graphics-object" aria-roledescription="area mark container"><path aria-label="年齢: 41; 年間取り崩し額 (万円): 472.437869094; spend75p: 472.739755403; 戦略: 生存確率を目標にする@ダイナミックスペンディング" role="graphics-symbol" aria-roledescription="area mark" d="M10.909,78.5L21.818,76.374L32.727,74.38L43.636,72.522L54.545,70.787L65.455,69.089L76.364,63.974L87.273,61.364L98.182,57.647L109.091,53.573L120,51.049L130.909,51.018L141.818,50.543L152.727,50.662L163.636,52.246L174.545,55.677L185.455,60.137L196.364,65.643L207.273,71.5L218.182,75.956L229.091,167.724L240,172.921L250.909,178.48L261.818,184.181L272.727,189.672L283.636,195.026L294.545,199.989L305.455,205.752L316.364,211.716L327.273,218.871L338.182,226.692L349.091,233.93L360,240.511L370.909,246.201L381.818,250.86L392.727,254.55L403.636,257.994L414.545,259.862L425.455,262.161L436.364,263.32L447.273,264.713L458.182,264.787L469.091,265.768L480,266.558L490.909,267.989L501.818,269.13L512.727,270.4L523.636,272.007L534.545,274.2L545.455,276.814L556.364,279.31L567.273,281.175L578.182,283.31L589.091,287.292L600,290.309L600,226.78L589.091,225.066L578.182,222.918L567.273,220.936L556.364,218.601L545.455,217.665L534.545,216.616L523.636,215.138L512.727,214.371L501.818,214.075L490.909,214.172L480,213.835L469.091,214.495L458.182,214.876L447.273,214.708L436.364,215.158L425.455,214.661L414.545,213.914L403.636,212.113L392.727,209.209L381.818,205.685L370.909,201.109L360,195.442L349.091,188.772L338.182,181.605L327.273,174.163L316.364,166.966L305.455,160.75L294.545,155.141L283.636,150.001L272.727,145.678L261.818,141.286L250.909,137.194L240,132.225L229.091,127.545L218.182,23.89L207.273,19.489L196.364,16.032L185.455,12.466L174.545,10.524L163.636,10.241L152.727,11.846L141.818,14.945L130.909,17.983L120,20.915L109.091,24.832L98.182,29.631L87.273,35.078L76.364,40.953L65.455,47.129L54.545,53.349L43.636,59.588L32.727,65.879L21.818,72.176L10.909,78.314Z" fill="blue" opacity="0.3"/></g></g><path class="foreground" aria-hidden="true" d="" display="none"/></g></g><g class="mark-group role-scope layer_1_pathgroup" role="graphics-object" aria-roledescription="group mark container"><g transform="translate(0,0)"><path class="background" aria-hidden="true" d="M0,0h600v400h-600Z"/><g><g class="mark-line role-mark layer_1_marks" role="graphics-object" aria-roledescription="line mark container"><path aria-label="年齢: 41; spend50p: 482.953656325; group_label: 定額取り崩し（ベースライン）" role="graphics-symbol" aria-roledescription="line mark" d="M10.909,72.029L21.818,65.896L32.727,59.441L43.636,52.848L54.545,46.435L65.455,40.04L76.364,33.707L87.273,27.744L98.182,22.252L109.091,17.387L120,13.403L130.909,10.504L141.818,8.883L152.727,8.751L163.636,10.521L174.545,14.244L185.455,19.423L196.364,25.702L207.273,32.759L218.182,40.016L229.091,137.241L240,144.56L250.909,151.684L261.818,158.329L272.727,165.125L283.636,171.872L294.545,178.98L305.455,186.453L316.364,194.621L327.273,203.121L338.182,212.043L349.091,220.796L360,228.775L370.909,236.132L381.818,241.901L392.727,247.57L403.636,252.142L414.545,255.522L425.455,258.489L436.364,261.49L447.273,263.849L458.182,266.071L469.091,268.212L480,270.289L490.909,272.756L501.818,275.615L512.727,278.321L523.636,281.855L534.545,284.904L545.455,288.529L556.364,292.615L567.273,296.729L578.182,301.201L589.091,305.184L600,309.872" stroke="green" stroke-width="2"/></g></g><path class="foreground" aria-hidden="true" d="" display="none"/></g><g transform="translate(0,0)"><path class="background" aria-hidden="true" d="M0,0h600v400h-600Z"/><g><g class="mark-line role-mark layer_1_marks" role="graphics-object" aria-roledescription="line mark container"><path aria-label="年齢: 41; spend50p: 479.453477708; group_label: 支出率を目標にする@ダイナミックスペンディング" role="graphics-symbol" aria-roledescription="line mark" d="M10.909,74.182L21.818,65.04L32.727,55.716L43.636,52.834L54.545,45.279L65.455,42.464L76.364,40.73L87.273,38.086L98.182,34.511L109.091,33.583L120,33.499L130.909,35.09L141.818,38.417L152.727,43.003L163.636,48.117L174.545,53.606L185.455,59.846L196.364,68.614L207.273,76.925L218.182,83.441L229.091,182.484L240,192.143L250.909,201.007L261.818,208.699L272.727,216.292L283.636,224.164L294.545,232.066L305.455,240.242L316.364,248.516L327.273,256.586L338.182,263.821L349.091,271.267L360,279.022L370.909,285.415L381.818,290.826L392.727,295.193L403.636,299.103L414.545,303.052L425.455,306.106L436.364,309.224L447.273,311.366L458.182,313.197L469.091,315.138L480,317.5L490.909,318.939L501.818,321.323L512.727,323.559L523.636,325.781L534.545,328.116L545.455,330.84L556.364,334.383L567.273,336.843L578.182,340.403L589.091,343.679L600,347.078" stroke="red" stroke-width="2"/></g></g><path class="foreground" aria-hidden="true" d="" display="none"/></g><g transform="translate(0,0)"><path class="background" aria-hidden="true" d="M0,0h600v400h-600Z"/><g><g class="mark-line role-mark layer_1_marks" role="graphics-object" aria-roledescription="line mark container"><path aria-label="年齢: 41; spend50p: 472.586641323; group_label: 生存確率を目標にする@ダイナミックスペンディング" role="graphics-symbol" aria-roledescription="line mark" d="M10.909,78.408L21.818,76.146L32.727,73.134L43.636,68.163L54.545,62.289L65.455,56.382L76.364,50.572L87.273,46.473L98.182,42.415L109.091,38.149L120,33.941L130.909,30.309L141.818,27.745L152.727,26.92L163.636,27.771L174.545,29.23L185.455,32.296L196.364,37.657L207.273,42.027L218.182,47.204L229.091,144.867L240,150.566L250.909,155.65L261.818,160.121L272.727,164.983L283.636,169.732L294.545,174.568L305.455,180.343L316.364,186.514L327.273,193.039L338.182,200.191L349.091,207.489L360,214.208L370.909,220.114L381.818,225.13L392.727,228.557L403.636,231.19L414.545,233.378L425.455,234.236L436.364,235.026L447.273,235.773L458.182,236.358L469.091,236.22L480,236.745L490.909,236.968L501.818,237.571L512.727,238.276L523.636,240.019L534.545,241.646L545.455,243.068L556.364,245.742L567.273,248.479L578.182,250.151L589.091,252.355L600,255.245" stroke="blue" stroke-width="2"/></g></g><path class="foreground" aria-hidden="true" d="" display="none"/></g></g><g class="mark-group role-legend" role="graphics-symbol" aria-roledescription="legend" aria-label="Symbol legend titled '戦略' for fill color and stroke color with 3 values: 支出率を目標にする@ダイナミックスペンディング, 生存確率を目標にする@ダイナミックスペンディング, 定額取り崩し（ベースライン）"><g transform="translate(0,-57)"><path class="background" aria-hidden="true" d="M0,0h470v39h-470Z" pointer-events="none"/><g><g class="mark-group role-legend-entry"><g transform="translate(0,16)"><path class="background" aria-hidden="true" d="M0,0h0v0h0Z" pointer-events="none"/><g><g class="mark-group role-scope" role="graphics-object" aria-roledescription="group mark container"><g transform="translate(0,0)"><path class="background" aria-hidden="true" d="M0,0h146v23h-146Z" pointer-events="none" opacity="1"/><g><g class="mark-symbol role-legend-symbol" pointer-events="none"><path transform="translate(6,6)" d="M5,0A5,5,0,1,1,-5,0A5,5,0,1,1,5,0" fill="red" stroke="red" stroke-width="1.5" opacity="0.3"/></g><g class="mark-text role-legend-label" pointer-events="none"><text text-anchor="start" transform="translate(16,9)" font-family="sans-serif" font-size="10px" fill="#000" opacity="1"><tspan>支出率を目標にする</tspan><tspan x="0" dy="12">ダイナミックスペンディング</tspan></text></g></g><path class="foreground" aria-hidden="true" d="" pointer-events="none" display="none"/></g><g transform="translate(157,0)"><path class="background" aria-hidden="true" d="M0,0h146v23h-146Z" pointer-events="none" opacity="1"/><g><g class="mark-symbol role-legend-symbol" pointer-events="none"><path transform="translate(6,6)" d="M5,0A5,5,0,1,1,-5,0A5,5,0,1,1,5,0" fill="blue" stroke="blue" stroke-width="1.5" opacity="0.3"/></g><g class="mark-text role-legend-label" pointer-events="none"><text text-anchor="start" transform="translate(16,9)" font-family="sans-serif" font-size="10px" fill="#000" opacity="1"><tspan>生存確率を目標にする</tspan><tspan x="0" dy="12">ダイナミックスペンディング</tspan></text></g></g><path class="foreground" aria-hidden="true" d="" pointer-events="none" display="none"/></g><g transform="translate(314,5.25)"><path class="background" aria-hidden="true" d="M0,0h156v12.5h-156Z" pointer-events="none" opacity="1"/><g><g class="mark-symbol role-legend-symbol" pointer-events="none"><path transform="translate(6,6)" d="M5,0A5,5,0,1,1,-5,0A5,5,0,1,1,5,0" fill="green" stroke="green" stroke-width="1.5" opacity="0.3"/></g><g class="mark-text role-legend-label" pointer-events="none"><text text-anchor="start" transform="translate(16,9)" font-family="sans-serif" font-size="10px" fill="#000" opacity="1">定額取り崩し（ベースライン）</text></g></g><path class="foreground" aria-hidden="true" d="" pointer-events="none" display="none"/></g></g></g><path class="foreground" aria-hidden="true" d="" pointer-events="none" display="none"/></g></g><g class="mark-text role-legend-title" pointer-events="none"><text text-anchor="start" transform="translate(0,9)" font-family="sans-serif" font-size="11px" font-weight="bold" fill="#000" opacity="1">戦略</text></g></g><path class="foreground" aria-hidden="true" d="" pointer-events="none" display="none"/></g></g><g class="mark-group role-title"><g transform="translate(300,-74)"><path class="background" aria-hidden="true" d="M0,0h0v0h0Z" pointer-events="none"/><g><g class="mark-text role-title-text" role="graphics-symbol" aria-roledescription="title" aria-label="Title text '実質支出額の推移比較 (初期支出率: 3.0%, 共通生存パスのみ)'" pointer-events="none"><text text-anchor="middle" transform="translate(0,10)" font-family="sans-serif" font-size="13px" font-weight="bold" fill="#000" opacity="1">実質支出額の推移比較 (初期支出率: 3.0%, 共通生存パスのみ)</text></g></g><path class="foreground" aria-hidden="true" d="" pointer-events="none" display="none"/></g></g></g><path class="foreground" aria-hidden="true" d="" display="none"/></g></g></g></svg>