<svg xmlns="http://www.w3.org/2000/svg" xmlns:xlink="http://www.w3.org/1999/xlink" version="1.1" class="marks" width="651" height="516" viewBox="0 0 651 516"><rect width="651" height="516" fill="white"/><g fill="none" stroke-miterlimit="10" transform="translate(44,79)"><g class="mark-group role-frame root" role="graphics-object" aria-roledescription="group mark container"><g transform="translate(0,0)"><path class="background" aria-hidden="true" d="M0.5,0.5h600v400h-600Z" stroke="#ddd"/><g><g class="mark-group role-axis" aria-hidden="true"><g transform="translate(0.5,400.5)"><path class="background" aria-hidden="true" d="M0,0h0v0h0Z" pointer-events="none"/><g><g class="mark-rule role-axis-grid" pointer-events="none"><line transform="translate(0,-400)" x2="0" y2="400" stroke="#ddd" stroke-width="1" opacity="1"/><line transform="translate(55,-400)" x2="0" y2="400" stroke="#ddd" stroke-width="1" opacity="1"/><line transform="translate(109,-400)" x2="0" y2="400" stroke="#ddd" stroke-width="1" opacity="1"/><line transform="translate(164,-400)" x2="0" y2="400" stroke="#ddd" stroke-width="1" opacity="1"/><line transform="translate(218,-400)" x2="0" y2="400" stroke="#ddd" stroke-width="1" opacity="1"/><line transform="translate(273,-400)" x2="0" y2="400" stroke="#ddd" stroke-width="1" opacity="1"/><line transform="translate(327,-400)" x2="0" y2="400" stroke="#ddd" stroke-width="1" opacity="1"/><line transform="translate(382,-400)" x2="0" y2="400" stroke="#ddd" stroke-width="1" opacity="1"/><line transform="translate(436,-400)" x2="0" y2="400" stroke="#ddd" stroke-width="1" opacity="1"/><line transform="translate(491,-400)" x2="0" y2="400" stroke="#ddd" stroke-width="1" opacity="1"/><line transform="translate(545,-400)" x2="0" y2="400" stroke="#ddd" stroke-width="1" opacity="1"/><line transform="translate(600,-400)" x2="0" y2="400" stroke="#ddd" stroke-width="1" opacity="1"/></g></g><path class="foreground" aria-hidden="true" d="" pointer-events="none" display="none"/></g></g><g class="mark-group role-axis" aria-hidden="true"><g transform="translate(0.5,0.5)"><path class="background" aria-hidden="true" d="M0,0h0v0h0Z" pointer-events="none"/><g><g class="mark-rule role-axis-grid" pointer-events="none"><line transform="translate(0,400)" x2="600" y2="0" stroke="#ddd" stroke-width="1" opacity="1"/><line transform="translate(0,367)" x2="600" y2="0" stroke="#ddd" stroke-width="1" opacity="1"/><line transform="translate(0,333)" x2="600" y2="0" stroke="#ddd" stroke-width="1" opacity="1"/><line transform="translate(0,300)" x2="600" y2="0" stroke="#ddd" stroke-width="1" opacity="1"/><line transform="translate(0,267)" x2="600" y2="0" stroke="#ddd" stroke-width="1" opacity="1"/><line transform="translate(0,233)" x2="600" y2="0" stroke="#ddd" stroke-width="1" opacity="1"/><line transform="translate(0,200)" x2="600" y2="0" stroke="#ddd" stroke-width="1" opacity="1"/><line transform="translate(0,167)" x2="600" y2="0" stroke="#ddd" stroke-width="1" opacity="1"/><line transform="translate(0,133)" x2="600" y2="0" stroke="#ddd" stroke-width="1" opacity="1"/><line transform="translate(0,100)" x2="600" y2="0" stroke="#ddd" stroke-width="1" opacity="1"/><line transform="translate(0,67)" x2="600" y2="0" stroke="#ddd" stroke-width="1" opacity="1"/><line transform="translate(0,33)" x2="600" y2="0" stroke="#ddd" stroke-width="1" opacity="1"/><line transform="translate(0,0)" x2="600" y2="0" stroke="#ddd" stroke-width="1" opacity="1"/></g></g><path class="foreground" aria-hidden="true" d="" pointer-events="none" display="none"/></g></g><g class="mark-group role-axis" role="graphics-symbol" aria-roledescription="axis" aria-label="X-axis titled '年齢' for a linear scale with values from 40 to 95"><g transform="translate(0.5,400.5)"><path class="background" aria-hidden="true" d="M0,0h0v0h0Z" pointer-events="none"/><g><g class="mark-rule role-axis-tick" pointer-events="none"><line transform="translate(0,0)" x2="0" y2="5" stroke="#888" stroke-width="1" opacity="1"/><line transform="translate(55,0)" x2="0" y2="5" stroke="#888" stroke-width="1" opacity="1"/><line transform="translate(109,0)" x2="0" y2="5" stroke="#888" stroke-width="1" opacity="1"/><line transform="translate(164,0)" x2="0" y2="5" stroke="#888" stroke-width="1" opacity="1"/><line transform="translate(218,0)" x2="0" y2="5" stroke="#888" stroke-width="1" opacity="1"/><line transform="translate(273,0)" x2="0" y2="5" stroke="#888" stroke-width="1" opacity="1"/><line transform="translate(327,0)" x2="0" y2="5" stroke="#888" stroke-width="1" opacity="1"/><line transform="translate(382,0)" x2="0" y2="5" stroke="#888" stroke-width="1" opacity="1"/><line transform="translate(436,0)" x2="0" y2="5" stroke="#888" stroke-width="1" opacity="1"/><line transform="translate(491,0)" x2="0" y2="5" stroke="#888" stroke-width="1" opacity="1"/><line transform="translate(545,0)" x2="0" y2="5" stroke="#888" stroke-width="1" opacity="1"/><line transform="translate(600,0)" x2="0" y2="5" stroke="#888" stroke-width="1" opacity="1"/></g><g class="mark-text role-axis-label" pointer-events="none"><text text-anchor="start" transform="translate(0,15)" font-family="sans-serif" font-size="10px" fill="#000" opacity="1">40</text><text text-anchor="middle" transform="translate(54.54545454545455,15)" font-family="sans-serif" font-size="10px" fill="#000" opacity="1">45</text><text text-anchor="middle" transform="translate(109.0909090909091,15)" font-family="sans-serif" font-size="10px" fill="#000" opacity="1">50</text><text text-anchor="middle" transform="translate(163.63636363636363,15)" font-family="sans-serif" font-size="10px" fill="#000" opacity="1">55</text><text text-anchor="middle" transform="translate(218.1818181818182,15)" font-family="sans-serif" font-size="10px" fill="#000" opacity="1">60</text><text text-anchor="middle" transform="translate(272.7272727272727,15)" font-family="sans-serif" font-size="10px" fill="#000" opacity="1">65</text><text text-anchor="middle" transform="translate(327.27272727272725,15)" font-family="sans-serif" font-size="10px" fill="#000" opacity="1">70</text><text text-anchor="middle" transform="translate(381.8181818181818,15)" font-family="sans-serif" font-size="10px" fill="#000" opacity="1">75</text><text text-anchor="middle" transform="translate(436.3636363636364,15)" font-family="sans-serif" font-size="10px" fill="#000" opacity="1">80</text><text text-anchor="middle" transform="translate(490.90909090909093,15)" font-family="sans-serif" font-size="10px" fill="#000" opacity="1">85</text><text text-anchor="middle" transform="translate(545.4545454545454,15)" font-family="sans-serif" font-size="10px" fill="#000" opacity="1">90</text><text text-anchor="end" transform="translate(600,15)" font-family="sans-serif" font-size="10px" fill="#000" opacity="1">95</text></g><g class="mark-rule role-axis-domain" pointer-events="none"><line transform="translate(0,0)" x2="600" y2="0" stroke="#888" stroke-width="1" opacity="1"/></g><g class="mark-text role-axis-title" pointer-events="none"><text text-anchor="middle" transform="translate(300,30)" font-family="sans-serif" font-size="11px" font-weight="bold" fill="#000" opacity="1">年齢</text></g></g><path class="foreground" aria-hidden="true" d="" pointer-events="none" display="none"/></g></g><g class="mark-group role-axis" role="graphics-symbol" aria-roledescription="axis" aria-label="Y-axis titled '年間取り崩し額 (万円)' for a linear scale with values from 0 to 600"><g transform="translate(0.5,0.5)"><path class="background" aria-hidden="true" d="M0,0h0v0h0Z" pointer-events="none"/><g><g class="mark-rule role-axis-tick" pointer-events="none"><line transform="translate(0,400)" x2="-5" y2="0" stroke="#888" stroke-width="1" opacity="1"/><line transform="translate(0,367)" x2="-5" y2="0" stroke="#888" stroke-width="1" opacity="1"/><line transform="translate(0,333)" x2="-5" y2="0" stroke="#888" stroke-width="1" opacity="1"/><line transform="translate(0,300)" x2="-5" y2="0" stroke="#888" stroke-width="1" opacity="1"/><line transform="translate(0,267)" x2="-5" y2="0" stroke="#888" stroke-width="1" opacity="1"/><line transform="translate(0,233)" x2="-5" y2="0" stroke="#888" stroke-width="1" opacity="1"/><line transform="translate(0,200)" x2="-5" y2="0" stroke="#888" stroke-width="1" opacity="1"/><line transform="translate(0,167)" x2="-5" y2="0" stroke="#888" stroke-width="1" opacity="1"/><line transform="translate(0,133)" x2="-5" y2="0" stroke="#888" stroke-width="1" opacity="1"/><line transform="translate(0,100)" x2="-5" y2="0" stroke="#888" stroke-width="1" opacity="1"/><line transform="translate(0,67)" x2="-5" y2="0" stroke="#888" stroke-width="1" opacity="1"/><line transform="translate(0,33)" x2="-5" y2="0" stroke="#888" stroke-width="1" opacity="1"/><line transform="translate(0,0)" x2="-5" y2="0" stroke="#888" stroke-width="1" opacity="1"/></g><g class="mark-text role-axis-label" pointer-events="none"><text text-anchor="end" transform="translate(-7,403)" font-family="sans-serif" font-size="10px" fill="#000" opacity="1">0</text><text text-anchor="end" transform="translate(-7,369.66666666666663)" font-family="sans-serif" font-size="10px" fill="#000" opacity="1">50</text><text text-anchor="end" transform="translate(-7,336.33333333333337)" font-family="sans-serif" font-size="10px" fill="#000" opacity="1">100</text><text text-anchor="end" transform="translate(-7,303)" font-family="sans-serif" font-size="10px" fill="#000" opacity="1">150</text><text text-anchor="end" transform="translate(-7,269.6666666666667)" font-family="sans-serif" font-size="10px" fill="#000" opacity="1">200</text><text text-anchor="end" transform="translate(-7,236.33333333333331)" font-family="sans-serif" font-size="10px" fill="#000" opacity="1">250</text><text text-anchor="end" transform="translate(-7,203)" font-family="sans-serif" font-size="10px" fill="#000" opacity="1">300</text><text text-anchor="end" transform="translate(-7,169.66666666666666)" font-family="sans-serif" font-size="10px" fill="#000" opacity="1">350</text><text text-anchor="end" transform="translate(-7,136.33333333333334)" font-family="sans-serif" font-size="10px" fill="#000" opacity="1">400</text><text text-anchor="end" transform="translate(-7,103)" font-family="sans-serif" font-size="10px" fill="#000" opacity="1">450</text><text text-anchor="end" transform="translate(-7,69.66666666666666)" font-family="sans-serif" font-size="10px" fill="#000" opacity="1">500</text><text text-anchor="end" transform="translate(-7,36.33333333333335)" font-family="sans-serif" font-size="10px" fill="#000" opacity="1">550</text><text text-anchor="end" transform="translate(-7,3)" font-family="sans-serif" font-size="10px" fill="#000" opacity="1">600</text></g><g class="mark-rule role-axis-domain" pointer-events="none"><line transform="translate(0,400)" x2="0" y2="-400" stroke="#888" stroke-width="1" opacity="1"/></g><g class="mark-text role-axis-title" pointer-events="none"><text text-anchor="middle" transform="translate(-27.6845703125,200) rotate(-90) translate(0,-2)" font-family="sans-serif" font-size="11px" font-weight="bold" fill="#000" opacity="1">年間取り崩し額 (万円)</text></g></g><path class="foreground" aria-hidden="true" d="" pointer-events="none" display="none"/></g></g><g class="mark-group role-scope layer_0_pathgroup" role="graphics-object" aria-roledescription="group mark container"><g transform="translate(0,0)"><path class="background" aria-hidden="true" d="M0,0h600v400h-600Z"/><g><g class="mark-area role-mark layer_0_marks" role="graphics-object" aria-roledescription="area mark container"><path aria-label="年齢: 41; 年間取り崩し額 (万円): 478.536350223; spend75p: 485.250710233; 戦略: 定額取り崩し（ベースライン）" role="graphics-symbol" aria-roledescription="area mark" d="M10.909,80.976L21.818,75.146L32.727,68.514L43.636,61.635L54.545,54.647L65.455,48.003L76.364,41.453L87.273,35.016L98.182,28.933L109.091,23.98L120,19.968L130.909,16.877L141.818,15.272L152.727,15.3L163.636,17.112L174.545,20.792L185.455,26.64L196.364,33.152L207.273,40.569L218.182,48.454L229.091,158.822L240,167.155L250.909,175.429L261.818,183.185L272.727,190.865L283.636,198.855L294.545,207.372L305.455,216.308L316.364,225.647L327.273,235.629L338.182,245.786L349.091,256.196L360,265.446L370.909,273.988L381.818,281.104L392.727,287.369L403.636,292.318L414.545,296.934L425.455,301.096L436.364,304.961L447.273,308.738L458.182,312.153L469.091,315.058L480,318.22L490.909,320.982L501.818,324.543L512.727,328.423L523.636,333.773L534.545,338.47L545.455,344.093L556.364,350.244L567.273,355.391L578.182,360.48L589.091,366.32L600,371.555L600,318.959L589.091,314.476L578.182,310.038L567.273,306.046L556.364,301.925L545.455,297.735L534.545,294.288L523.636,290.591L512.727,287.552L501.818,284.245L490.909,281.971L480,280.004L469.091,277.904L458.182,275.659L447.273,273.748L436.364,271.49L425.455,268.746L414.545,265.817L403.636,262.121L392.727,257.346L381.818,252.038L370.909,245.523L360,237.662L349.091,229.11L338.182,220.219L327.273,210.901L316.364,201.571L305.455,193.393L294.545,185.43L283.636,177.804L272.727,170.228L261.818,162.962L250.909,155.849L240,148.275L229.091,140.648L218.182,39.754L207.273,31.771L196.364,23.997L185.455,17.074L174.545,11.411L163.636,7.679L152.727,5.796L141.818,5.928L130.909,7.374L120,10.546L109.091,14.84L98.182,20.585L87.273,26.573L76.364,33.105L65.455,40.15L54.545,47.344L43.636,54.44L32.727,61.689L21.818,69.256L10.909,76.5Z" fill="green" opacity="0.3"/></g></g><path class="foreground" aria-hidden="true" d="" display="none"/></g><g transform="translate(0,0)"><path class="background" aria-hidden="true" d="M0,0h600v400h-600Z"/><g><g class="mark-area role-mark layer_0_marks" role="graphics-object" aria-roledescription="area mark container"><path aria-label="年齢: 41; 年間取り崩し額 (万円): 498.603906665; spend75p: 498.890347629; 戦略: 支出率を目標にする@ダイナミックスペンディング" role="graphics-symbol" aria-roledescription="area mark" d="M10.909,67.597L21.818,72.33L32.727,76.955L43.636,81.508L54.545,86.006L65.455,90.449L76.364,94.842L87.273,99.102L98.182,103.324L109.091,107.454L120,110.507L130.909,113.718L141.818,116.786L152.727,119.301L163.636,121.952L174.545,125.751L185.455,129.506L196.364,133.096L207.273,135.387L218.182,136.312L229.091,230.35L240,231.952L250.909,233.123L261.818,234.859L272.727,236.863L283.636,239.547L294.545,241.047L305.455,243.433L316.364,245.515L327.273,247.764L338.182,249.577L349.091,252.448L360,255.254L370.909,258.109L381.818,260.235L392.727,262.523L403.636,266.097L414.545,268.899L425.455,270.463L436.364,272.929L447.273,275.981L458.182,278.797L469.091,281.451L480,284.628L490.909,287.223L501.818,289.558L512.727,292.642L523.636,295.646L534.545,298.485L545.455,301.157L556.364,304.139L567.273,307.421L578.182,309.403L589.091,312.578L600,315.892L600,165.486L589.091,167.697L578.182,165.592L567.273,164.506L556.364,162.843L545.455,162.449L534.545,161.282L523.636,158.727L512.727,158.436L501.818,158.939L490.909,158.934L480,157.292L469.091,156.654L458.182,155.959L447.273,155.783L436.364,155.929L425.455,156.853L414.545,155.945L403.636,153.105L392.727,154.019L381.818,154.597L370.909,155.107L360,154.461L349.091,154.29L338.182,153.791L327.273,154.272L316.364,154.693L305.455,154.487L294.545,153.787L283.636,153.19L272.727,153.395L261.818,154.724L250.909,155.936L240,157.566L229.091,159.14L218.182,56.717L207.273,58.184L196.364,56.087L185.455,56.454L174.545,55.562L163.636,54.723L152.727,54.751L141.818,53.316L130.909,54.763L120,51.626L109.091,54.487L98.182,50.898L87.273,53.15L76.364,56.278L65.455,59.373L54.545,61.505L43.636,58.444L32.727,61.345L21.818,64.422L10.909,67.406Z" fill="red" opacity="0.3"/></g></g><path class="foreground" aria-hidden="true" d="" display="none"/></g><g transform="translate(0,0)"><path class="background" aria-hidden="true" d="M0,0h600v400h-600Z"/><g><g class="mark-area role-mark layer_0_marks" role="graphics-object" aria-roledescription="area mark container"><path aria-label="年齢: 41; 年間取り崩し額 (万円): 473.626015742; spend75p: 473.912456705; 戦略: 生存確率を目標にする@ダイナミックスペンディング" role="graphics-symbol" aria-roledescription="area mark" d="M10.909,84.249L21.818,87.469L32.727,91.016L43.636,95.908L54.545,100.664L65.455,104.989L76.364,109.593L87.273,114.358L98.182,118.241L109.091,122.033L120,127.11L130.909,129.459L141.818,134.041L152.727,138.584L163.636,143.55L174.545,149.134L185.455,153.025L196.364,158.573L207.273,164.697L218.182,169.683L229.091,266.719L240,272.792L250.909,277.669L261.818,284.417L272.727,288.034L283.636,291.591L294.545,296.056L305.455,301.047L316.364,306.802L327.273,313.24L338.182,318.055L349.091,324.686L360,330.962L370.909,337.314L381.818,340.245L392.727,343.296L403.636,347.6L414.545,349.462L425.455,352.207L436.364,354.92L447.273,355.19L458.182,357.186L469.091,359.048L480,359.689L490.909,360.803L501.818,361.867L512.727,363.449L523.636,365.096L534.545,366.348L545.455,369.01L556.364,371.583L567.273,374.524L578.182,378.35L589.091,379.972L600,382.79L600,203.56L589.091,203.415L578.182,201.307L567.273,198.194L556.364,196.891L545.455,194.248L534.545,190.439L523.636,189.331L512.727,188.522L501.818,189.386L490.909,190.1L480,194.339L469.091,192.242L458.182,195.337L447.273,195.678L436.364,197.003L425.455,197.256L414.545,196.212L403.636,196.443L392.727,191.163L381.818,189.77L370.909,186.389L360,180.096L349.091,174.182L338.182,164.052L327.273,155.656L316.364,149.536L305.455,144.258L294.545,140.056L283.636,134.63L272.727,129.369L261.818,126.176L250.909,121.201L240,117.489L229.091,114.886L218.182,4.608L207.273,0.822L196.364,2.051L185.455,3.357L174.545,3.699L163.636,4.027L152.727,5.855L141.818,9.984L130.909,17.298L120,23.784L109.091,29.828L98.182,35.987L87.273,42.352L76.364,48.198L65.455,54.851L54.545,60.492L43.636,66.753L32.727,72.997L21.818,79.256L10.909,84.058Z" fill="blue" opacity="0.3"/></g></g><path class="foreground" aria-hidden="true" d="" display="none"/></g></g><g class="mark-group role-scope layer_1_pathgroup" role="graphics-object" aria-roledescription="group mark container"><g transform="translate(0,0)"><path class="background" aria-hidden="true" d="M0,0h600v400h-600Z"/><g><g class="mark-line role-mark layer_1_marks" role="graphics-object" aria-roledescription="line mark container"><path aria-label="年齢: 41; spend50p: 481.845245909; group_label: 定額取り崩し（ベースライン）" role="graphics-symbol" aria-roledescription="line mark" d="M10.909,78.77L21.818,72.125L32.727,65.133L43.636,57.99L54.545,51.044L65.455,44.115L76.364,37.255L87.273,30.794L98.182,24.848L109.091,19.584L120,15.295L130.909,12.122L141.818,10.382L152.727,10.282L163.636,12.181L174.545,16.165L185.455,21.817L196.364,28.644L207.273,36.315L218.182,44.161L229.091,149.005L240,156.943L250.909,164.803L261.818,172.076L272.727,179.351L283.636,186.723L294.545,194.482L305.455,202.767L316.364,211.752L327.273,220.841L338.182,230.557L349.091,240.45L360,248.949L370.909,256.823L381.818,263.61L392.727,269.593L403.636,274.583L414.545,278.938L425.455,282.249L436.364,285.507L447.273,288.395L458.182,291.172L469.091,293.652L480,296.207L490.909,298.886L501.818,302.071L512.727,305.413L523.636,309.39L534.545,313.496L545.455,317.842L556.364,322.331L567.273,326.58L578.182,331.382L589.091,335.818L600,341.081" stroke="green" stroke-width="2"/></g></g><path class="foreground" aria-hidden="true" d="" display="none"/></g><g transform="translate(0,0)"><path class="background" aria-hidden="true" d="M0,0h600v400h-600Z"/><g><g class="mark-line role-mark layer_1_marks" role="graphics-object" aria-roledescription="line mark container"><path aria-label="年齢: 41; spend50p: 498.745067292; group_label: 支出率を目標にする@ダイナミックスペンディング" role="graphics-symbol" aria-roledescription="line mark" d="M10.909,67.503L21.818,72.089L32.727,69.373L43.636,73.749L54.545,70.974L65.455,75.225L76.364,73.017L87.273,77.065L98.182,80.412L109.091,82.916L120,84.531L130.909,87.983L141.818,92.241L152.727,96.354L163.636,96.367L174.545,98.437L185.455,102.164L196.364,103.122L207.273,104.656L218.182,108.048L229.091,202.715L240,203.926L250.909,205.036L261.818,205.838L272.727,206.941L283.636,207.828L294.545,208.957L305.455,210.543L316.364,210.754L327.273,210.927L338.182,211.921L349.091,212.927L360,214.817L370.909,216.594L381.818,219.074L392.727,220.663L403.636,220.778L414.545,222.012L425.455,223.124L436.364,224.758L447.273,226.927L458.182,228.884L469.091,232.079L480,233.918L490.909,236.916L501.818,238.816L512.727,240.94L523.636,243.421L534.545,244.321L545.455,246.467L556.364,247.492L567.273,248.832L578.182,251.256L589.091,253.698L600,254.355" stroke="red" stroke-width="2"/></g></g><path class="foreground" aria-hidden="true" d="" display="none"/></g><g transform="translate(0,0)"><path class="background" aria-hidden="true" d="M0,0h600v400h-600Z"/><g><g class="mark-line role-mark layer_1_marks" role="graphics-object" aria-roledescription="line mark container"><path aria-label="年齢: 41; spend50p: 473.767176369; group_label: 生存確率を目標にする@ダイナミックスペンディング" role="graphics-symbol" aria-roledescription="line mark" d="M10.909,84.155L21.818,83.286L32.727,82.221L43.636,80.951L54.545,81.268L65.455,80.311L76.364,79.055L87.273,79.173L98.182,78.121L109.091,77.476L120,76.951L130.909,76.743L141.818,76.534L152.727,77.6L163.636,81.43L174.545,85.867L185.455,88.789L196.364,93.964L207.273,99.779L218.182,104.386L229.091,204.715L240,210.114L250.909,213.436L261.818,217.377L272.727,222.463L283.636,228.255L294.545,232.855L305.455,238.292L316.364,242.75L327.273,247.759L338.182,255.541L349.091,263.192L360,269.938L370.909,274.123L381.818,279.324L392.727,283.432L403.636,286.989L414.545,288.075L425.455,289.003L436.364,289.961L447.273,291.715L458.182,295.075L469.091,295.33L480,295.428L490.909,297.446L501.818,298.003L512.727,300.436L523.636,299.152L534.545,300.502L545.455,302.949L556.364,305.528L567.273,306.704L578.182,309.454L589.091,313.033L600,315.438" stroke="blue" stroke-width="2"/></g></g><path class="foreground" aria-hidden="true" d="" display="none"/></g></g><g class="mark-group role-legend" role="graphics-symbol" aria-roledescription="legend" aria-label="Symbol legend titled '戦略' for fill color and stroke color with 3 values: 支出率を目標にする@ダイナミックスペンディング, 生存確率を目標にする@ダイナミックスペンディング, 定額取り崩し（ベースライン）"><g transform="translate(0,-57)"><path class="background" aria-hidden="true" d="M0,0h470v39h-470Z" pointer-events="none"/><g><g class="mark-group role-legend-entry"><g transform="translate(0,16)"><path class="background" aria-hidden="true" d="M0,0h0v0h0Z" pointer-events="none"/><g><g class="mark-group role-scope" role="graphics-object" aria-roledescription="group mark container"><g transform="translate(0,0)"><path class="background" aria-hidden="true" d="M0,0h146v23h-146Z" pointer-events="none" opacity="1"/><g><g class="mark-symbol role-legend-symbol" pointer-events="none"><path transform="translate(6,6)" d="M5,0A5,5,0,1,1,-5,0A5,5,0,1,1,5,0" fill="red" stroke="red" stroke-width="1.5" opacity="0.3"/></g><g class="mark-text role-legend-label" pointer-events="none"><text text-anchor="start" transform="translate(16,9)" font-family="sans-serif" font-size="10px" fill="#000" opacity="1"><tspan>支出率を目標にする</tspan><tspan x="0" dy="12">ダイナミックスペンディング</tspan></text></g></g><path class="foreground" aria-hidden="true" d="" pointer-events="none" display="none"/></g><g transform="translate(157,0)"><path class="background" aria-hidden="true" d="M0,0h146v23h-146Z" pointer-events="none" opacity="1"/><g><g class="mark-symbol role-legend-symbol" pointer-events="none"><path transform="translate(6,6)" d="M5,0A5,5,0,1,1,-5,0A5,5,0,1,1,5,0" fill="blue" stroke="blue" stroke-width="1.5" opacity="0.3"/></g><g class="mark-text role-legend-label" pointer-events="none"><text text-anchor="start" transform="translate(16,9)" font-family="sans-serif" font-size="10px" fill="#000" opacity="1"><tspan>生存確率を目標にする</tspan><tspan x="0" dy="12">ダイナミックスペンディング</tspan></text></g></g><path class="foreground" aria-hidden="true" d="" pointer-events="none" display="none"/></g><g transform="translate(314,5.25)"><path class="background" aria-hidden="true" d="M0,0h156v12.5h-156Z" pointer-events="none" opacity="1"/><g><g class="mark-symbol role-legend-symbol" pointer-events="none"><path transform="translate(6,6)" d="M5,0A5,5,0,1,1,-5,0A5,5,0,1,1,5,0" fill="green" stroke="green" stroke-width="1.5" opacity="0.3"/></g><g class="mark-text role-legend-label" pointer-events="none"><text text-anchor="start" transform="translate(16,9)" font-family="sans-serif" font-size="10px" fill="#000" opacity="1">定額取り崩し（ベースライン）</text></g></g><path class="foreground" aria-hidden="true" d="" pointer-events="none" display="none"/></g></g></g><path class="foreground" aria-hidden="true" d="" pointer-events="none" display="none"/></g></g><g class="mark-text role-legend-title" pointer-events="none"><text text-anchor="start" transform="translate(0,9)" font-family="sans-serif" font-size="11px" font-weight="bold" fill="#000" opacity="1">戦略</text></g></g><path class="foreground" aria-hidden="true" d="" pointer-events="none" display="none"/></g></g><g class="mark-group role-title"><g transform="translate(300,-74)"><path class="background" aria-hidden="true" d="M0,0h0v0h0Z" pointer-events="none"/><g><g class="mark-text role-title-text" role="graphics-symbol" aria-roledescription="title" aria-label="Title text '実質支出額の推移比較 (初期支出率: 4.0%, 共通生存パスのみ)'" pointer-events="none"><text text-anchor="middle" transform="translate(0,10)" font-family="sans-serif" font-size="13px" font-weight="bold" fill="#000" opacity="1">実質支出額の推移比較 (初期支出率: 4.0%, 共通生存パスのみ)</text></g></g><path class="foreground" aria-hidden="true" d="" pointer-events="none" display="none"/></g></g></g><path class="foreground" aria-hidden="true" d="" display="none"/></g></g></g></svg>