<svg xmlns="http://www.w3.org/2000/svg" xmlns:xlink="http://www.w3.org/1999/xlink" version="1.1" class="marks" width="813" height="464" viewBox="0 0 813 464"><rect width="813" height="464" fill="white"/><g fill="none" stroke-miterlimit="10" transform="translate(44,27)"><g class="mark-group role-frame root" role="graphics-object" aria-roledescription="group mark container"><g transform="translate(0,0)"><path class="background" aria-hidden="true" d="M0.5,0.5h600v400h-600Z" stroke="#ddd"/><g><g class="mark-group role-axis" aria-hidden="true"><g transform="translate(0.5,400.5)"><path class="background" aria-hidden="true" d="M0,0h0v0h0Z" pointer-events="none"/><g><g class="mark-rule role-axis-grid" pointer-events="none"><line transform="translate(0,-400)" x2="0" y2="400" stroke="#ddd" stroke-width="1" opacity="1"/><line transform="translate(55,-400)" x2="0" y2="400" stroke="#ddd" stroke-width="1" opacity="1"/><line transform="translate(109,-400)" x2="0" y2="400" stroke="#ddd" stroke-width="1" opacity="1"/><line transform="translate(164,-400)" x2="0" y2="400" stroke="#ddd" stroke-width="1" opacity="1"/><line transform="translate(218,-400)" x2="0" y2="400" stroke="#ddd" stroke-width="1" opacity="1"/><line transform="translate(273,-400)" x2="0" y2="400" stroke="#ddd" stroke-width="1" opacity="1"/><line transform="translate(327,-400)" x2="0" y2="400" stroke="#ddd" stroke-width="1" opacity="1"/><line transform="translate(382,-400)" x2="0" y2="400" stroke="#ddd" stroke-width="1" opacity="1"/><line transform="translate(436,-400)" x2="0" y2="400" stroke="#ddd" stroke-width="1" opacity="1"/><line transform="translate(491,-400)" x2="0" y2="400" stroke="#ddd" stroke-width="1" opacity="1"/><line transform="translate(545,-400)" x2="0" y2="400" stroke="#ddd" stroke-width="1" opacity="1"/><line transform="translate(600,-400)" x2="0" y2="400" stroke="#ddd" stroke-width="1" opacity="1"/></g></g><path class="foreground" aria-hidden="true" d="" pointer-events="none" display="none"/></g></g><g class="mark-group role-axis" aria-hidden="true"><g transform="translate(0.5,0.5)"><path class="background" aria-hidden="true" d="M0,0h0v0h0Z" pointer-events="none"/><g><g class="mark-rule role-axis-grid" pointer-events="none"><line transform="translate(0,400)" x2="600" y2="0" stroke="#ddd" stroke-width="1" opacity="1"/><line transform="translate(0,350)" x2="600" y2="0" stroke="#ddd" stroke-width="1" opacity="1"/><line transform="translate(0,300)" x2="600" y2="0" stroke="#ddd" stroke-width="1" opacity="1"/><line transform="translate(0,250)" x2="600" y2="0" stroke="#ddd" stroke-width="1" opacity="1"/><line transform="translate(0,200)" x2="600" y2="0" stroke="#ddd" stroke-width="1" opacity="1"/><line transform="translate(0,150)" x2="600" y2="0" stroke="#ddd" stroke-width="1" opacity="1"/><line transform="translate(0,100)" x2="600" y2="0" stroke="#ddd" stroke-width="1" opacity="1"/><line transform="translate(0,50)" x2="600" y2="0" stroke="#ddd" stroke-width="1" opacity="1"/><line transform="translate(0,0)" x2="600" y2="0" stroke="#ddd" stroke-width="1" opacity="1"/></g></g><path class="foreground" aria-hidden="true" d="" pointer-events="none" display="none"/></g></g><g class="mark-group role-axis" role="graphics-symbol" aria-roledescription="axis" aria-label="X-axis titled '経過年数 (年)' for a linear scale with values from 0 to 55"><g transform="translate(0.5,400.5)"><path class="background" aria-hidden="true" d="M0,0h0v0h0Z" pointer-events="none"/><g><g class="mark-rule role-axis-tick" pointer-events="none"><line transform="translate(0,0)" x2="0" y2="5" stroke="#888" stroke-width="1" opacity="1"/><line transform="translate(55,0)" x2="0" y2="5" stroke="#888" stroke-width="1" opacity="1"/><line transform="translate(109,0)" x2="0" y2="5" stroke="#888" stroke-width="1" opacity="1"/><line transform="translate(164,0)" x2="0" y2="5" stroke="#888" stroke-width="1" opacity="1"/><line transform="translate(218,0)" x2="0" y2="5" stroke="#888" stroke-width="1" opacity="1"/><line transform="translate(273,0)" x2="0" y2="5" stroke="#888" stroke-width="1" opacity="1"/><line transform="translate(327,0)" x2="0" y2="5" stroke="#888" stroke-width="1" opacity="1"/><line transform="translate(382,0)" x2="0" y2="5" stroke="#888" stroke-width="1" opacity="1"/><line transform="translate(436,0)" x2="0" y2="5" stroke="#888" stroke-width="1" opacity="1"/><line transform="translate(491,0)" x2="0" y2="5" stroke="#888" stroke-width="1" opacity="1"/><line transform="translate(545,0)" x2="0" y2="5" stroke="#888" stroke-width="1" opacity="1"/><line transform="translate(600,0)" x2="0" y2="5" stroke="#888" stroke-width="1" opacity="1"/></g><g class="mark-text role-axis-label" pointer-events="none"><text text-anchor="start" transform="translate(0,15)" font-family="sans-serif" font-size="10px" fill="#000" opacity="1">0</text><text text-anchor="middle" transform="translate(54.54545454545455,15)" font-family="sans-serif" font-size="10px" fill="#000" opacity="1">5</text><text text-anchor="middle" transform="translate(109.0909090909091,15)" font-family="sans-serif" font-size="10px" fill="#000" opacity="1">10</text><text text-anchor="middle" transform="translate(163.63636363636363,15)" font-family="sans-serif" font-size="10px" fill="#000" opacity="1">15</text><text text-anchor="middle" transform="translate(218.1818181818182,15)" font-family="sans-serif" font-size="10px" fill="#000" opacity="1">20</text><text text-anchor="middle" transform="translate(272.7272727272727,15)" font-family="sans-serif" font-size="10px" fill="#000" opacity="1">25</text><text text-anchor="middle" transform="translate(327.27272727272725,15)" font-family="sans-serif" font-size="10px" fill="#000" opacity="1">30</text><text text-anchor="middle" transform="translate(381.8181818181818,15)" font-family="sans-serif" font-size="10px" fill="#000" opacity="1">35</text><text text-anchor="middle" transform="translate(436.3636363636364,15)" font-family="sans-serif" font-size="10px" fill="#000" opacity="1">40</text><text text-anchor="middle" transform="translate(490.90909090909093,15)" font-family="sans-serif" font-size="10px" fill="#000" opacity="1">45</text><text text-anchor="middle" transform="translate(545.4545454545454,15)" font-family="sans-serif" font-size="10px" fill="#000" opacity="1">50</text><text text-anchor="end" transform="translate(600,15)" font-family="sans-serif" font-size="10px" fill="#000" opacity="1">55</text></g><g class="mark-rule role-axis-domain" pointer-events="none"><line transform="translate(0,0)" x2="600" y2="0" stroke="#888" stroke-width="1" opacity="1"/></g><g class="mark-text role-axis-title" pointer-events="none"><text text-anchor="middle" transform="translate(300,30)" font-family="sans-serif" font-size="11px" font-weight="bold" fill="#000" opacity="1">経過年数 (年)</text></g></g><path class="foreground" aria-hidden="true" d="" pointer-events="none" display="none"/></g></g><g class="mark-group role-axis" role="graphics-symbol" aria-roledescription="axis" aria-label="Y-axis titled '生存確率 (%)' for a linear scale with values from 60 to 100"><g transform="translate(0.5,0.5)"><path class="background" aria-hidden="true" d="M0,0h0v0h0Z" pointer-events="none"/><g><g class="mark-rule role-axis-tick" pointer-events="none"><line transform="translate(0,400)" x2="-5" y2="0" stroke="#888" stroke-width="1" opacity="1"/><line transform="translate(0,350)" x2="-5" y2="0" stroke="#888" stroke-width="1" opacity="1"/><line transform="translate(0,300)" x2="-5" y2="0" stroke="#888" stroke-width="1" opacity="1"/><line transform="translate(0,250)" x2="-5" y2="0" stroke="#888" stroke-width="1" opacity="1"/><line transform="translate(0,200)" x2="-5" y2="0" stroke="#888" stroke-width="1" opacity="1"/><line transform="translate(0,150)" x2="-5" y2="0" stroke="#888" stroke-width="1" opacity="1"/><line transform="translate(0,100)" x2="-5" y2="0" stroke="#888" stroke-width="1" opacity="1"/><line transform="translate(0,50)" x2="-5" y2="0" stroke="#888" stroke-width="1" opacity="1"/><line transform="translate(0,0)" x2="-5" y2="0" stroke="#888" stroke-width="1" opacity="1"/></g><g class="mark-text role-axis-label" pointer-events="none"><text text-anchor="end" transform="translate(-7,403)" font-family="sans-serif" font-size="10px" fill="#000" opacity="1">60</text><text text-anchor="end" transform="translate(-7,353)" font-family="sans-serif" font-size="10px" fill="#000" opacity="1">65</text><text text-anchor="end" transform="translate(-7,303)" font-family="sans-serif" font-size="10px" fill="#000" opacity="1">70</text><text text-anchor="end" transform="translate(-7,253)" font-family="sans-serif" font-size="10px" fill="#000" opacity="1">75</text><text text-anchor="end" transform="translate(-7,203)" font-family="sans-serif" font-size="10px" fill="#000" opacity="1">80</text><text text-anchor="end" transform="translate(-7,153)" font-family="sans-serif" font-size="10px" fill="#000" opacity="1">85</text><text text-anchor="end" transform="translate(-7,103)" font-family="sans-serif" font-size="10px" fill="#000" opacity="1">90</text><text text-anchor="end" transform="translate(-7,53)" font-family="sans-serif" font-size="10px" fill="#000" opacity="1">95</text><text text-anchor="end" transform="translate(-7,3)" font-family="sans-serif" font-size="10px" fill="#000" opacity="1">100</text></g><g class="mark-rule role-axis-domain" pointer-events="none"><line transform="translate(0,400)" x2="0" y2="-400" stroke="#888" stroke-width="1" opacity="1"/></g><g class="mark-text role-axis-title" pointer-events="none"><text text-anchor="middle" transform="translate(-27.6845703125,200) rotate(-90) translate(0,-2)" font-family="sans-serif" font-size="11px" font-weight="bold" fill="#000" opacity="1">生存確率 (%)</text></g></g><path class="foreground" aria-hidden="true" d="" pointer-events="none" display="none"/></g></g><g class="mark-group role-scope pathgroup" role="graphics-object" aria-roledescription="group mark container"><g transform="translate(0,0)"><path class="background" aria-hidden="true" d="M0,0h600v400h-600Z"/><g><g class="mark-line role-mark marks" clip-path="url(#clip1)" role="graphics-object" aria-roledescription="line mark container"><path aria-label="経過年数 (年): 0; 生存確率 (%): 100; 初期支出ルール: 初期支出 3.0%; 戦略: 支出率を目標にする@ダイナミックスペンディング; year: 0; rule: 3; strategy_jp: 支出率を目標にする@ダイナミックスペンディング; Survival Probability (%): 100.0" role="graphics-symbol" aria-roledescription="line mark" d="M0,0L10.909,0L21.818,0L32.727,0L43.636,0L54.545,0L65.455,0L76.364,0L87.273,0L98.182,0L109.091,0L120,0.5L130.909,1.5L141.818,2.5L152.727,4L163.636,8L174.545,11.5L185.455,16L196.364,21L207.273,27L218.182,35L229.091,39L240,43.5L250.909,45.5L261.818,51.5L272.727,55.5L283.636,59L294.545,64.5L305.455,66.5L316.364,69.5L327.273,69.5L338.182,72.5L349.091,75L360,75.5L370.909,77L381.818,80.5L392.727,81.5L403.636,82.5L414.545,83.5L425.455,84.5L436.364,84.5L447.273,86.5L458.182,87.5L469.091,89L480,90L490.909,90.5L501.818,90.5L512.727,90.5L523.636,90.5L534.545,90.5L545.455,91L556.364,91.5L567.273,91.5L578.182,92L589.091,92L600,92" stroke="#4c78a8" stroke-width="2" stroke-dasharray="4,4"/></g></g><path class="foreground" aria-hidden="true" d="" display="none"/></g><g transform="translate(0,0)"><path class="background" aria-hidden="true" d="M0,0h600v400h-600Z"/><g><g class="mark-line role-mark marks" clip-path="url(#clip2)" role="graphics-object" aria-roledescription="line mark container"><path aria-label="経過年数 (年): 0; 生存確率 (%): 100; 初期支出ルール: 初期支出 3.0%; 戦略: 生存確率を目標にする@ダイナミックスペンディング; year: 0; rule: 3; strategy_jp: 生存確率を目標にする@ダイナミックスペンディング; Survival Probability (%): 100.0" role="graphics-symbol" aria-roledescription="line mark" d="M0,0L10.909,0L21.818,0L32.727,0L43.636,0L54.545,0L65.455,0L76.364,0L87.273,0L98.182,0L109.091,0L120,0.5L130.909,1.5L141.818,2.5L152.727,4L163.636,7.5L174.545,9L185.455,12.5L196.364,18L207.273,21.5L218.182,31L229.091,33.5L240,38L250.909,42.5L261.818,45.5L272.727,48L283.636,52L294.545,57L305.455,59.5L316.364,61L327.273,63.5L338.182,67L349.091,69L360,71.5L370.909,72.5L381.818,73L392.727,76L403.636,79L414.545,81L425.455,83L436.364,84.5L447.273,85.5L458.182,87.5L469.091,88L480,89L490.909,90L501.818,90L512.727,92L523.636,93L534.545,93L545.455,93.5L556.364,95.5L567.273,99L578.182,101.5L589.091,103.5L600,107" stroke="#4c78a8" stroke-width="2" stroke-dasharray="0,0"/></g></g><path class="foreground" aria-hidden="true" d="" display="none"/></g><g transform="translate(0,0)"><path class="background" aria-hidden="true" d="M0,0h600v400h-600Z"/><g><g class="mark-line role-mark marks" clip-path="url(#clip3)" role="graphics-object" aria-roledescription="line mark container"><path aria-label="経過年数 (年): 0; 生存確率 (%): 100; 初期支出ルール: 初期支出 3.5%; 戦略: 支出率を目標にする@ダイナミックスペンディング; year: 0; rule: 3.5; strategy_jp: 支出率を目標にする@ダイナミックスペンディング; Survival Probability (%): 100.0" role="graphics-symbol" aria-roledescription="line mark" d="M0,0L10.909,0L21.818,0L32.727,0L43.636,0L54.545,0L65.455,0L76.364,0L87.273,0L98.182,0L109.091,0.5L120,1.5L130.909,5.5L141.818,8L152.727,14.5L163.636,23L174.545,33L185.455,47L196.364,58L207.273,73L218.182,84L229.091,93L240,104L250.909,111L261.818,120.5L272.727,127L283.636,133.5L294.545,144L305.455,149.5L316.364,153.5L327.273,157L338.182,160.5L349.091,166L360,166.5L370.909,171L381.818,172.5L392.727,174L403.636,176L414.545,177.5L425.455,179L436.364,180L447.273,182L458.182,182.5L469.091,183.5L480,184L490.909,184.5L501.818,184.5L512.727,184.5L523.636,185L534.545,185L545.455,185L556.364,185L567.273,185L578.182,185.5L589.091,186L600,186" stroke="#f58518" stroke-width="2" stroke-dasharray="4,4"/></g></g><path class="foreground" aria-hidden="true" d="" display="none"/></g><g transform="translate(0,0)"><path class="background" aria-hidden="true" d="M0,0h600v400h-600Z"/><g><g class="mark-line role-mark marks" clip-path="url(#clip4)" role="graphics-object" aria-roledescription="line mark container"><path aria-label="経過年数 (年): 0; 生存確率 (%): 100; 初期支出ルール: 初期支出 3.5%; 戦略: 生存確率を目標にする@ダイナミックスペンディング; year: 0; rule: 3.5; strategy_jp: 生存確率を目標にする@ダイナミックスペンディング; Survival Probability (%): 100.0" role="graphics-symbol" aria-roledescription="line mark" d="M0,0L10.909,0L21.818,0L32.727,0L43.636,0L54.545,0L65.455,0L76.364,0L87.273,0L98.182,0L109.091,0.5L120,1.5L130.909,5L141.818,6L152.727,12.5L163.636,19L174.545,27.5L185.455,38.5L196.364,48L207.273,57.5L218.182,68L229.091,74L240,82L250.909,90.5L261.818,98L272.727,104L283.636,110.5L294.545,114.5L305.455,119.5L316.364,123.5L327.273,127.5L338.182,130.5L349.091,132L360,135L370.909,137.5L381.818,138.5L392.727,141.5L403.636,146L414.545,148.5L425.455,150.5L436.364,151L447.273,152.5L458.182,152.5L469.091,153L480,153.5L490.909,154L501.818,154L512.727,155L523.636,156L534.545,156.5L545.455,156.5L556.364,157.5L567.273,160.5L578.182,163.5L589.091,164.5L600,168.5" stroke="#f58518" stroke-width="2" stroke-dasharray="0,0"/></g></g><path class="foreground" aria-hidden="true" d="" display="none"/></g><g transform="translate(0,0)"><path class="background" aria-hidden="true" d="M0,0h600v400h-600Z"/><g><g class="mark-line role-mark marks" clip-path="url(#clip5)" role="graphics-object" aria-roledescription="line mark container"><path aria-label="経過年数 (年): 0; 生存確率 (%): 100; 初期支出ルール: 初期支出 4.0%; 戦略: 支出率を目標にする@ダイナミックスペンディング; year: 0; rule: 4; strategy_jp: 支出率を目標にする@ダイナミックスペンディング; Survival Probability (%): 100.0" role="graphics-symbol" aria-roledescription="line mark" d="M0,0L10.909,0L21.818,0L32.727,0L43.636,0L54.545,0L65.455,0L76.364,0L87.273,0L98.182,0.5L109.091,2.5L120,6.5L130.909,11.5L141.818,21.5L152.727,33L163.636,49L174.545,66.5L185.455,87.5L196.364,105L207.273,125L218.182,148L229.091,164.5L240,178L250.909,194L261.818,201L272.727,210.5L283.636,220.5L294.545,230.5L305.455,238L316.364,245.5L327.273,252L338.182,258.5L349.091,262L360,264.5L370.909,267.5L381.818,271.5L392.727,274.5L403.636,277.5L414.545,282L425.455,283.5L436.364,286.5L447.273,287.5L458.182,289L469.091,290L480,291L490.909,293.5L501.818,294.5L512.727,294.5L523.636,294.5L534.545,295L545.455,295.5L556.364,296L567.273,296L578.182,296.5L589.091,296.5L600,296.5" stroke="#e45756" stroke-width="2" stroke-dasharray="4,4"/></g></g><path class="foreground" aria-hidden="true" d="" display="none"/></g><g transform="translate(0,0)"><path class="background" aria-hidden="true" d="M0,0h600v400h-600Z"/><g><g class="mark-line role-mark marks" clip-path="url(#clip6)" role="graphics-object" aria-roledescription="line mark container"><path aria-label="経過年数 (年): 0; 生存確率 (%): 100; 初期支出ルール: 初期支出 4.0%; 戦略: 生存確率を目標にする@ダイナミックスペンディング; year: 0; rule: 4; strategy_jp: 生存確率を目標にする@ダイナミックスペンディング; Survival Probability (%): 100.0" role="graphics-symbol" aria-roledescription="line mark" d="M0,0L10.909,0L21.818,0L32.727,0L43.636,0L54.545,0L65.455,0L76.364,0L87.273,0L98.182,0.5L109.091,2L120,5L130.909,9L141.818,18.5L152.727,29L163.636,43.5L174.545,56.5L185.455,70.5L196.364,88L207.273,101.5L218.182,122.5L229.091,134.5L240,143.5L250.909,155L261.818,163L272.727,167L283.636,174.5L294.545,180.5L305.455,187.5L316.364,192L327.273,197L338.182,200.5L349.091,205L360,209L370.909,212L381.818,213.5L392.727,215.5L403.636,217.5L414.545,219.5L425.455,222L436.364,222.5L447.273,225.5L458.182,225.5L469.091,227L480,227.5L490.909,228.5L501.818,229L512.727,229L523.636,229.5L534.545,230L545.455,230.5L556.364,232.5L567.273,233.5L578.182,236L589.091,237L600,240.5" stroke="#e45756" stroke-width="2" stroke-dasharray="0,0"/></g></g><path class="foreground" aria-hidden="true" d="" display="none"/></g><g transform="translate(0,0)"><path class="background" aria-hidden="true" d="M0,0h600v400h-600Z"/><g><g class="mark-line role-mark marks" clip-path="url(#clip7)" role="graphics-object" aria-roledescription="line mark container"><path aria-label="経過年数 (年): 0; 生存確率 (%): 100; 初期支出ルール: 初期支出 4.5%; 戦略: 支出率を目標にする@ダイナミックスペンディング; year: 0; rule: 4.5; strategy_jp: 支出率を目標にする@ダイナミックスペンディング; Survival Probability (%): 100.0" role="graphics-symbol" aria-roledescription="line mark" d="M0,0L10.909,0L21.818,0L32.727,0L43.636,0L54.545,0L65.455,0L76.364,0L87.273,0.5L98.182,1.5L109.091,6.5L120,11L130.909,24.5L141.818,36.5L152.727,62L163.636,84.5L174.545,109L185.455,137.5L196.364,162L207.273,196.5L218.182,227.5L229.091,245L240,256.5L250.909,275L261.818,288.5L272.727,303L283.636,313L294.545,320L305.455,328.5L316.364,334L327.273,342.5L338.182,348.5L349.091,353.5L360,362.5L370.909,367L381.818,371L392.727,375L403.636,376.5L414.545,380.5L425.455,382L436.364,383L447.273,385.5L458.182,386L469.091,387.5L480,388L490.909,389.5L501.818,389.5L512.727,391L523.636,391L534.545,391.5L545.455,391.5L556.364,391.5L567.273,391.5L578.182,392L589.091,393L600,393" stroke="#72b7b2" stroke-width="2" stroke-dasharray="4,4"/></g></g><path class="foreground" aria-hidden="true" d="" display="none"/></g><g transform="translate(0,0)"><path class="background" aria-hidden="true" d="M0,0h600v400h-600Z"/><g><g class="mark-line role-mark marks" clip-path="url(#clip8)" role="graphics-object" aria-roledescription="line mark container"><path aria-label="経過年数 (年): 0; 生存確率 (%): 100; 初期支出ルール: 初期支出 4.5%; 戦略: 生存確率を目標にする@ダイナミックスペンディング; year: 0; rule: 4.5; strategy_jp: 生存確率を目標にする@ダイナミックスペンディング; Survival Probability (%): 100.0" role="graphics-symbol" aria-roledescription="line mark" d="M0,0L10.909,0L21.818,0L32.727,0L43.636,0L54.545,0L65.455,0L76.364,0L87.273,0L98.182,1L109.091,6L120,10.5L130.909,20.5L141.818,32L152.727,49.5L163.636,73.5L174.545,94L185.455,118L196.364,141.5L207.273,161L218.182,190.5L229.091,207L240,221L250.909,229.5L261.818,238.5L272.727,252L283.636,260.5L294.545,271L305.455,277L316.364,285L327.273,290.5L338.182,294.5L349.091,297.5L360,300.5L370.909,303L381.818,305L392.727,307L403.636,309.5L414.545,312.5L425.455,313.5L436.364,315L447.273,315.5L458.182,316L469.091,316.5L480,317.5L490.909,317.5L501.818,318L512.727,318L523.636,318.5L534.545,318.5L545.455,319.5L556.364,321L567.273,322.5L578.182,324.5L589.091,325L600,328" stroke="#72b7b2" stroke-width="2" stroke-dasharray="0,0"/></g></g><path class="foreground" aria-hidden="true" d="" display="none"/></g></g><g class="mark-group role-legend" role="graphics-symbol" aria-roledescription="legend" aria-label="Symbol legend titled '初期支出ルール' for stroke color with 4 values: 初期支出 3.0%, 初期支出 3.5%, 初期支出 4.0%, 初期支出 4.5%"><g transform="translate(618,0)"><path class="background" aria-hidden="true" d="M0,0h82v66h-82Z" pointer-events="none"/><g><g class="mark-group role-legend-entry"><g transform="translate(0,16)"><path class="background" aria-hidden="true" d="M0,0h0v0h0Z" pointer-events="none"/><g><g class="mark-group role-scope" role="graphics-object" aria-roledescription="group mark container"><g transform="translate(0,0)"><path class="background" aria-hidden="true" d="M0,0h81.5712890625v11h-81.5712890625Z" pointer-events="none" opacity="1"/><g><g class="mark-symbol role-legend-symbol" pointer-events="none"><path transform="translate(6,6)" d="M-5,0L5,0" stroke="#4c78a8" stroke-width="1.5" opacity="1"/></g><g class="mark-text role-legend-label" pointer-events="none"><text text-anchor="start" transform="translate(16,9)" font-family="sans-serif" font-size="10px" fill="#000" opacity="1">初期支出 3.0%</text></g></g><path class="foreground" aria-hidden="true" d="" pointer-events="none" display="none"/></g><g transform="translate(0,13)"><path class="background" aria-hidden="true" d="M0,0h81.5712890625v11h-81.5712890625Z" pointer-events="none" opacity="1"/><g><g class="mark-symbol role-legend-symbol" pointer-events="none"><path transform="translate(6,6)" d="M-5,0L5,0" stroke="#f58518" stroke-width="1.5" opacity="1"/></g><g class="mark-text role-legend-label" pointer-events="none"><text text-anchor="start" transform="translate(16,9)" font-family="sans-serif" font-size="10px" fill="#000" opacity="1">初期支出 3.5%</text></g></g><path class="foreground" aria-hidden="true" d="" pointer-events="none" display="none"/></g><g transform="translate(0,26)"><path class="background" aria-hidden="true" d="M0,0h81.5712890625v11h-81.5712890625Z" pointer-events="none" opacity="1"/><g><g class="mark-symbol role-legend-symbol" pointer-events="none"><path transform="translate(6,6)" d="M-5,0L5,0" stroke="#e45756" stroke-width="1.5" opacity="1"/></g><g class="mark-text role-legend-label" pointer-events="none"><text text-anchor="start" transform="translate(16,9)" font-family="sans-serif" font-size="10px" fill="#000" opacity="1">初期支出 4.0%</text></g></g><path class="foreground" aria-hidden="true" d="" pointer-events="none" display="none"/></g><g transform="translate(0,39)"><path class="background" aria-hidden="true" d="M0,0h81.5712890625v11h-81.5712890625Z" pointer-events="none" opacity="1"/><g><g class="mark-symbol role-legend-symbol" pointer-events="none"><path transform="translate(6,6)" d="M-5,0L5,0" stroke="#72b7b2" stroke-width="1.5" opacity="1"/></g><g class="mark-text role-legend-label" pointer-events="none"><text text-anchor="start" transform="translate(16,9)" font-family="sans-serif" font-size="10px" fill="#000" opacity="1">初期支出 4.5%</text></g></g><path class="foreground" aria-hidden="true" d="" pointer-events="none" display="none"/></g></g></g><path class="foreground" aria-hidden="true" d="" pointer-events="none" display="none"/></g></g><g class="mark-text role-legend-title" pointer-events="none"><text text-anchor="start" transform="translate(0,9)" font-family="sans-serif" font-size="11px" font-weight="bold" fill="#000" opacity="1">初期支出ルール</text></g></g><path class="foreground" aria-hidden="true" d="" pointer-events="none" display="none"/></g></g><g class="mark-group role-legend" role="graphics-symbol" aria-roledescription="legend" aria-label="Symbol legend titled '戦略' for strokeDash with 2 values: 支出率を目標にする@ダイナミックスペンディング, 生存確率を目標にする@ダイナミックスペンディング"><g transform="translate(618,74)"><path class="background" aria-hidden="true" d="M0,0h146v64h-146Z" pointer-events="none"/><g><g class="mark-group role-legend-entry"><g transform="translate(0,16)"><path class="background" aria-hidden="true" d="M0,0h0v0h0Z" pointer-events="none"/><g><g class="mark-group role-scope" role="graphics-object" aria-roledescription="group mark container"><g transform="translate(0,0)"><path class="background" aria-hidden="true" d="M0,0h146v23h-146Z" pointer-events="none" opacity="1"/><g><g class="mark-symbol role-legend-symbol" pointer-events="none"><path transform="translate(6,6)" d="M-5,0L5,0" stroke="#888" stroke-width="1.5" stroke-dasharray="4,4" opacity="1"/></g><g class="mark-text role-legend-label" pointer-events="none"><text text-anchor="start" transform="translate(16,9)" font-family="sans-serif" font-size="10px" fill="#000" opacity="1"><tspan>支出率を目標にする</tspan><tspan x="0" dy="12">ダイナミックスペンディング</tspan></text></g></g><path class="foreground" aria-hidden="true" d="" pointer-events="none" display="none"/></g><g transform="translate(0,25)"><path class="background" aria-hidden="true" d="M0,0h146v23h-146Z" pointer-events="none" opacity="1"/><g><g class="mark-symbol role-legend-symbol" pointer-events="none"><path transform="translate(6,6)" d="M-5,0L5,0" stroke="#888" stroke-width="1.5" stroke-dasharray="0,0" opacity="1"/></g><g class="mark-text role-legend-label" pointer-events="none"><text text-anchor="start" transform="translate(16,9)" font-family="sans-serif" font-size="10px" fill="#000" opacity="1"><tspan>生存確率を目標にする</tspan><tspan x="0" dy="12">ダイナミックスペンディング</tspan></text></g></g><path class="foreground" aria-hidden="true" d="" pointer-events="none" display="none"/></g></g></g><path class="foreground" aria-hidden="true" d="" pointer-events="none" display="none"/></g></g><g class="mark-text role-legend-title" pointer-events="none"><text text-anchor="start" transform="translate(0,9)" font-family="sans-serif" font-size="11px" font-weight="bold" fill="#000" opacity="1">戦略</text></g></g><path class="foreground" aria-hidden="true" d="" pointer-events="none" display="none"/></g></g><g class="mark-group role-title"><g transform="translate(300,-22)"><path class="background" aria-hidden="true" d="M0,0h0v0h0Z" pointer-events="none"/><g><g class="mark-text role-title-text" role="graphics-symbol" aria-roledescription="title" aria-label="Title text '経過年数と生存確率の推移（生存確率 60%以下は描画を省略）'" pointer-events="none"><text text-anchor="middle" transform="translate(0,10)" font-family="sans-serif" font-size="13px" font-weight="bold" fill="#000" opacity="1">経過年数と生存確率の推移（生存確率 60%以下は描画を省略）</text></g></g><path class="foreground" aria-hidden="true" d="" pointer-events="none" display="none"/></g></g></g><path class="foreground" aria-hidden="true" d="" display="none"/></g></g></g><defs><clipPath id="clip1"><rect x="0" y="0" width="600" height="400"/></clipPath><clipPath id="clip2"><rect x="0" y="0" width="600" height="400"/></clipPath><clipPath id="clip3"><rect x="0" y="0" width="600" height="400"/></clipPath><clipPath id="clip4"><rect x="0" y="0" width="600" height="400"/></clipPath><clipPath id="clip5"><rect x="0" y="0" width="600" height="400"/></clipPath><clipPath id="clip6"><rect x="0" y="0" width="600" height="400"/></clipPath><clipPath id="clip7"><rect x="0" y="0" width="600" height="400"/></clipPath><clipPath id="clip8"><rect x="0" y="0" width="600" height="400"/></clipPath></defs></svg>