<svg xmlns="http://www.w3.org/2000/svg" xmlns:xlink="http://www.w3.org/1999/xlink" version="1.1" class="marks" width="651" height="516" viewBox="0 0 651 516"><rect width="651" height="516" fill="white"/><g fill="none" stroke-miterlimit="10" transform="translate(44,79)"><g class="mark-group role-frame root" role="graphics-object" aria-roledescription="group mark container"><g transform="translate(0,0)"><path class="background" aria-hidden="true" d="M0.5,0.5h600v400h-600Z" stroke="#ddd"/><g><g class="mark-group role-axis" aria-hidden="true"><g transform="translate(0.5,400.5)"><path class="background" aria-hidden="true" d="M0,0h0v0h0Z" pointer-events="none"/><g><g class="mark-rule role-axis-grid" pointer-events="none"><line transform="translate(0,-400)" x2="0" y2="400" stroke="#ddd" stroke-width="1" opacity="1"/><line transform="translate(55,-400)" x2="0" y2="400" stroke="#ddd" stroke-width="1" opacity="1"/><line transform="translate(109,-400)" x2="0" y2="400" stroke="#ddd" stroke-width="1" opacity="1"/><line transform="translate(164,-400)" x2="0" y2="400" stroke="#ddd" stroke-width="1" opacity="1"/><line transform="translate(218,-400)" x2="0" y2="400" stroke="#ddd" stroke-width="1" opacity="1"/><line transform="translate(273,-400)" x2="0" y2="400" stroke="#ddd" stroke-width="1" opacity="1"/><line transform="translate(327,-400)" x2="0" y2="400" stroke="#ddd" stroke-width="1" opacity="1"/><line transform="translate(382,-400)" x2="0" y2="400" stroke="#ddd" stroke-width="1" opacity="1"/><line transform="translate(436,-400)" x2="0" y2="400" stroke="#ddd" stroke-width="1" opacity="1"/><line transform="translate(491,-400)" x2="0" y2="400" stroke="#ddd" stroke-width="1" opacity="1"/><line transform="translate(545,-400)" x2="0" y2="400" stroke="#ddd" stroke-width="1" opacity="1"/><line transform="translate(600,-400)" x2="0" y2="400" stroke="#ddd" stroke-width="1" opacity="1"/></g></g><path class="foreground" aria-hidden="true" d="" pointer-events="none" display="none"/></g></g><g class="mark-group role-axis" aria-hidden="true"><g transform="translate(0.5,0.5)"><path class="background" aria-hidden="true" d="M0,0h0v0h0Z" pointer-events="none"/><g><g class="mark-rule role-axis-grid" pointer-events="none"><line transform="translate(0,400)" x2="600" y2="0" stroke="#ddd" stroke-width="1" opacity="1"/><line transform="translate(0,367)" x2="600" y2="0" stroke="#ddd" stroke-width="1" opacity="1"/><line transform="translate(0,333)" x2="600" y2="0" stroke="#ddd" stroke-width="1" opacity="1"/><line transform="translate(0,300)" x2="600" y2="0" stroke="#ddd" stroke-width="1" opacity="1"/><line transform="translate(0,267)" x2="600" y2="0" stroke="#ddd" stroke-width="1" opacity="1"/><line transform="translate(0,233)" x2="600" y2="0" stroke="#ddd" stroke-width="1" opacity="1"/><line transform="translate(0,200)" x2="600" y2="0" stroke="#ddd" stroke-width="1" opacity="1"/><line transform="translate(0,167)" x2="600" y2="0" stroke="#ddd" stroke-width="1" opacity="1"/><line transform="translate(0,133)" x2="600" y2="0" stroke="#ddd" stroke-width="1" opacity="1"/><line transform="translate(0,100)" x2="600" y2="0" stroke="#ddd" stroke-width="1" opacity="1"/><line transform="translate(0,67)" x2="600" y2="0" stroke="#ddd" stroke-width="1" opacity="1"/><line transform="translate(0,33)" x2="600" y2="0" stroke="#ddd" stroke-width="1" opacity="1"/><line transform="translate(0,0)" x2="600" y2="0" stroke="#ddd" stroke-width="1" opacity="1"/></g></g><path class="foreground" aria-hidden="true" d="" pointer-events="none" display="none"/></g></g><g class="mark-group role-axis" role="graphics-symbol" aria-roledescription="axis" aria-label="X-axis titled '年齢' for a linear scale with values from 40 to 95"><g transform="translate(0.5,400.5)"><path class="background" aria-hidden="true" d="M0,0h0v0h0Z" pointer-events="none"/><g><g class="mark-rule role-axis-tick" pointer-events="none"><line transform="translate(0,0)" x2="0" y2="5" stroke="#888" stroke-width="1" opacity="1"/><line transform="translate(55,0)" x2="0" y2="5" stroke="#888" stroke-width="1" opacity="1"/><line transform="translate(109,0)" x2="0" y2="5" stroke="#888" stroke-width="1" opacity="1"/><line transform="translate(164,0)" x2="0" y2="5" stroke="#888" stroke-width="1" opacity="1"/><line transform="translate(218,0)" x2="0" y2="5" stroke="#888" stroke-width="1" opacity="1"/><line transform="translate(273,0)" x2="0" y2="5" stroke="#888" stroke-width="1" opacity="1"/><line transform="translate(327,0)" x2="0" y2="5" stroke="#888" stroke-width="1" opacity="1"/><line transform="translate(382,0)" x2="0" y2="5" stroke="#888" stroke-width="1" opacity="1"/><line transform="translate(436,0)" x2="0" y2="5" stroke="#888" stroke-width="1" opacity="1"/><line transform="translate(491,0)" x2="0" y2="5" stroke="#888" stroke-width="1" opacity="1"/><line transform="translate(545,0)" x2="0" y2="5" stroke="#888" stroke-width="1" opacity="1"/><line transform="translate(600,0)" x2="0" y2="5" stroke="#888" stroke-width="1" opacity="1"/></g><g class="mark-text role-axis-label" pointer-events="none"><text text-anchor="start" transform="translate(0,15)" font-family="sans-serif" font-size="10px" fill="#000" opacity="1">40</text><text text-anchor="middle" transform="translate(54.54545454545455,15)" font-family="sans-serif" font-size="10px" fill="#000" opacity="1">45</text><text text-anchor="middle" transform="translate(109.0909090909091,15)" font-family="sans-serif" font-size="10px" fill="#000" opacity="1">50</text><text text-anchor="middle" transform="translate(163.63636363636363,15)" font-family="sans-serif" font-size="10px" fill="#000" opacity="1">55</text><text text-anchor="middle" transform="translate(218.1818181818182,15)" font-family="sans-serif" font-size="10px" fill="#000" opacity="1">60</text><text text-anchor="middle" transform="translate(272.7272727272727,15)" font-family="sans-serif" font-size="10px" fill="#000" opacity="1">65</text><text text-anchor="middle" transform="translate(327.27272727272725,15)" font-family="sans-serif" font-size="10px" fill="#000" opacity="1">70</text><text text-anchor="middle" transform="translate(381.8181818181818,15)" font-family="sans-serif" font-size="10px" fill="#000" opacity="1">75</text><text text-anchor="middle" transform="translate(436.3636363636364,15)" font-family="sans-serif" font-size="10px" fill="#000" opacity="1">80</text><text text-anchor="middle" transform="translate(490.90909090909093,15)" font-family="sans-serif" font-size="10px" fill="#000" opacity="1">85</text><text text-anchor="middle" transform="translate(545.4545454545454,15)" font-family="sans-serif" font-size="10px" fill="#000" opacity="1">90</text><text text-anchor="end" transform="translate(600,15)" font-family="sans-serif" font-size="10px" fill="#000" opacity="1">95</text></g><g class="mark-rule role-axis-domain" pointer-events="none"><line transform="translate(0,0)" x2="600" y2="0" stroke="#888" stroke-width="1" opacity="1"/></g><g class="mark-text role-axis-title" pointer-events="none"><text text-anchor="middle" transform="translate(300,30)" font-family="sans-serif" font-size="11px" font-weight="bold" fill="#000" opacity="1">年齢</text></g></g><path class="foreground" aria-hidden="true" d="" pointer-events="none" display="none"/></g></g><g class="mark-group role-axis" role="graphics-symbol" aria-roledescription="axis" aria-label="Y-axis titled '年間取り崩し額 (万円)' for a linear scale with values from 0 to 600"><g transform="translate(0.5,0.5)"><path class="background" aria-hidden="true" d="M0,0h0v0h0Z" pointer-events="none"/><g><g class="mark-rule role-axis-tick" pointer-events="none"><line transform="translate(0,400)" x2="-5" y2="0" stroke="#888" stroke-width="1" opacity="1"/><line transform="translate(0,367)" x2="-5" y2="0" stroke="#888" stroke-width="1" opacity="1"/><line transform="translate(0,333)" x2="-5" y2="0" stroke="#888" stroke-width="1" opacity="1"/><line transform="translate(0,300)" x2="-5" y2="0" stroke="#888" stroke-width="1" opacity="1"/><line transform="translate(0,267)" x2="-5" y2="0" stroke="#888" stroke-width="1" opacity="1"/><line transform="translate(0,233)" x2="-5" y2="0" stroke="#888" stroke-width="1" opacity="1"/><line transform="translate(0,200)" x2="-5" y2="0" stroke="#888" stroke-width="1" opacity="1"/><line transform="translate(0,167)" x2="-5" y2="0" stroke="#888" stroke-width="1" opacity="1"/><line transform="translate(0,133)" x2="-5" y2="0" stroke="#888" stroke-width="1" opacity="1"/><line transform="translate(0,100)" x2="-5" y2="0" stroke="#888" stroke-width="1" opacity="1"/><line transform="translate(0,67)" x2="-5" y2="0" stroke="#888" stroke-width="1" opacity="1"/><line transform="translate(0,33)" x2="-5" y2="0" stroke="#888" stroke-width="1" opacity="1"/><line transform="translate(0,0)" x2="-5" y2="0" stroke="#888" stroke-width="1" opacity="1"/></g><g class="mark-text role-axis-label" pointer-events="none"><text text-anchor="end" transform="translate(-7,403)" font-family="sans-serif" font-size="10px" fill="#000" opacity="1">0</text><text text-anchor="end" transform="translate(-7,369.66666666666663)" font-family="sans-serif" font-size="10px" fill="#000" opacity="1">50</text><text text-anchor="end" transform="translate(-7,336.33333333333337)" font-family="sans-serif" font-size="10px" fill="#000" opacity="1">100</text><text text-anchor="end" transform="translate(-7,303)" font-family="sans-serif" font-size="10px" fill="#000" opacity="1">150</text><text text-anchor="end" transform="translate(-7,269.6666666666667)" font-family="sans-serif" font-size="10px" fill="#000" opacity="1">200</text><text text-anchor="end" transform="translate(-7,236.33333333333331)" font-family="sans-serif" font-size="10px" fill="#000" opacity="1">250</text><text text-anchor="end" transform="translate(-7,203)" font-family="sans-serif" font-size="10px" fill="#000" opacity="1">300</text><text text-anchor="end" transform="translate(-7,169.66666666666666)" font-family="sans-serif" font-size="10px" fill="#000" opacity="1">350</text><text text-anchor="end" transform="translate(-7,136.33333333333334)" font-family="sans-serif" font-size="10px" fill="#000" opacity="1">400</text><text text-anchor="end" transform="translate(-7,103)" font-family="sans-serif" font-size="10px" fill="#000" opacity="1">450</text><text text-anchor="end" transform="translate(-7,69.66666666666666)" font-family="sans-serif" font-size="10px" fill="#000" opacity="1">500</text><text text-anchor="end" transform="translate(-7,36.33333333333335)" font-family="sans-serif" font-size="10px" fill="#000" opacity="1">550</text><text text-anchor="end" transform="translate(-7,3)" font-family="sans-serif" font-size="10px" fill="#000" opacity="1">600</text></g><g class="mark-rule role-axis-domain" pointer-events="none"><line transform="translate(0,400)" x2="0" y2="-400" stroke="#888" stroke-width="1" opacity="1"/></g><g class="mark-text role-axis-title" pointer-events="none"><text text-anchor="middle" transform="translate(-27.6845703125,200) rotate(-90) translate(0,-2)" font-family="sans-serif" font-size="11px" font-weight="bold" fill="#000" opacity="1">年間取り崩し額 (万円)</text></g></g><path class="foreground" aria-hidden="true" d="" pointer-events="none" display="none"/></g></g><g class="mark-group role-scope layer_0_pathgroup" role="graphics-object" aria-roledescription="group mark container"><g transform="translate(0,0)"><path class="background" aria-hidden="true" d="M0,0h600v400h-600Z"/><g><g class="mark-area role-mark layer_0_marks" role="graphics-object" aria-roledescription="area mark container"><path aria-label="年齢: 41; 年間取り崩し額 (万円): 478.536350223; spend75p: 485.250710233; 戦略: 定額取り崩し（ベースライン）" role="graphics-symbol" aria-roledescription="area mark" d="M10.909,80.976L21.818,75.146L32.727,68.514L43.636,61.635L54.545,54.647L65.455,48.003L76.364,41.453L87.273,35.016L98.182,28.933L109.091,23.979L120,19.939L130.909,16.875L141.818,15.253L152.727,15.287L163.636,17.072L174.545,20.781L185.455,26.627L196.364,33.15L207.273,40.54L218.182,48.418L229.091,158.407L240,166.946L250.909,175.141L261.818,183.037L272.727,190.628L283.636,198.539L294.545,207.184L305.455,216.073L316.364,225.117L327.273,235.38L338.182,245.411L349.091,255.518L360,264.98L370.909,273.819L381.818,280.956L392.727,287.027L403.636,292.116L414.545,296.853L425.455,301.01L436.364,304.946L447.273,308.704L458.182,312.117L469.091,315.058L480,318.215L490.909,320.634L501.818,324.483L512.727,328.234L523.636,333.268L534.545,338.138L545.455,343.339L556.364,349.952L567.273,354.928L578.182,359.959L589.091,365.828L600,371.348L600,318.692L589.091,314.217L578.182,309.634L567.273,305.32L556.364,301.451L545.455,296.924L534.545,293.802L523.636,290.106L512.727,287.332L501.818,284.076L490.909,281.796L480,279.925L469.091,277.89L458.182,275.565L447.273,273.362L436.364,271.209L425.455,268.482L414.545,265.497L403.636,261.811L392.727,257.058L381.818,251.877L370.909,245.286L360,237.424L349.091,228.681L338.182,219.855L327.273,210.638L316.364,201.372L305.455,193.211L294.545,185.176L283.636,177.535L272.727,169.776L261.818,162.615L250.909,155.31L240,148.012L229.091,140.244L218.182,39.715L207.273,31.742L196.364,23.977L185.455,17.067L174.545,11.395L163.636,7.666L152.727,5.8L141.818,5.915L130.909,7.376L120,10.495L109.091,14.835L98.182,20.585L87.273,26.573L76.364,33.105L65.455,40.15L54.545,47.344L43.636,54.44L32.727,61.689L21.818,69.256L10.909,76.5Z" fill="green" opacity="0.3"/></g></g><path class="foreground" aria-hidden="true" d="" display="none"/></g><g transform="translate(0,0)"><path class="background" aria-hidden="true" d="M0,0h600v400h-600Z"/><g><g class="mark-area role-mark layer_0_marks" role="graphics-object" aria-roledescription="area mark container"><path aria-label="年齢: 41; 年間取り崩し額 (万円): 478.203906665; spend75p: 478.490347629; 戦略: 支出率を目標にする@ダイナミックスペンディング" role="graphics-symbol" aria-roledescription="area mark" d="M10.909,81.197L21.818,85.679L32.727,90.057L43.636,94.366L54.545,98.321L65.455,98.675L76.364,100.812L87.273,104.957L98.182,109.026L109.091,113.175L120,117.208L130.909,121.185L141.818,125.047L152.727,128.754L163.636,131.481L174.545,132.659L185.455,134.524L196.364,137.837L207.273,140.248L218.182,142.413L229.091,235.433L240,237.062L250.909,238.023L261.818,239.687L272.727,241.031L283.636,243.944L294.545,245.67L305.455,247.399L316.364,249.516L327.273,251.137L338.182,253.77L349.091,256.766L360,259.668L370.909,262.103L381.818,264.297L392.727,266.283L403.636,269.15L414.545,271.348L425.455,273.104L436.364,275.943L447.273,279.335L458.182,281.695L469.091,282.801L480,285.363L490.909,288.191L501.818,291.077L512.727,293.948L523.636,296.861L534.545,299.182L545.455,301.741L556.364,304.212L567.273,307.081L578.182,309.653L589.091,312.199L600,316.381L600,172.885L589.091,173.916L578.182,172.201L567.273,171.204L556.364,168.521L545.455,168.602L534.545,166.341L523.636,164.323L512.727,165.195L501.818,164L490.909,163.274L480,161.619L469.091,162.807L458.182,163.04L447.273,162.908L436.364,162.798L425.455,161.698L414.545,162.663L403.636,161.108L392.727,160.339L381.818,160.452L370.909,159.813L360,160.828L349.091,160.81L338.182,160.489L327.273,161.046L316.364,161.624L305.455,160.015L294.545,160.37L283.636,160.034L272.727,159.911L261.818,160.584L250.909,162.627L240,164.263L229.091,166.129L218.182,61.136L207.273,63.494L196.364,62.052L185.455,62.486L174.545,61.435L163.636,61.046L152.727,63.037L141.818,61.063L130.909,62.48L120,62.689L109.091,60.993L98.182,63.917L87.273,66.164L76.364,63.818L65.455,65.898L54.545,68.969L43.636,72.045L32.727,75.082L21.818,78.087L10.909,81.006Z" fill="red" opacity="0.3"/></g></g><path class="foreground" aria-hidden="true" d="" display="none"/></g><g transform="translate(0,0)"><path class="background" aria-hidden="true" d="M0,0h600v400h-600Z"/><g><g class="mark-area role-mark layer_0_marks" role="graphics-object" aria-roledescription="area mark container"><path aria-label="年齢: 41; 年間取り崩し額 (万円): 473.626015742; spend75p: 473.912456705; 戦略: 生存確率を目標にする@ダイナミックスペンディング" role="graphics-symbol" aria-roledescription="area mark" d="M10.909,84.249L21.818,87.469L32.727,91.016L43.636,95.908L54.545,100.664L65.455,104.989L76.364,109.593L87.273,114.358L98.182,118.241L109.091,122.14L120,127.139L130.909,129.554L141.818,134.045L152.727,138.751L163.636,144.321L174.545,150.375L185.455,154.067L196.364,160.965L207.273,167.104L218.182,171.981L229.091,269.796L240,276.285L250.909,281.039L261.818,286.748L272.727,291.373L283.636,296.142L294.545,299.938L305.455,304.274L316.364,309.525L327.273,315.643L338.182,321.907L349.091,328.206L360,334.033L370.909,338.556L381.818,342.938L392.727,344.905L403.636,348.855L414.545,350.459L425.455,352.912L436.364,356.678L447.273,357.128L458.182,358.412L469.091,359.439L480,360.768L490.909,361.104L501.818,362.305L512.727,364.709L523.636,366.569L534.545,368.764L545.455,370.886L556.364,372.74L567.273,376.54L578.182,380.285L589.091,382.438L600,384.48L600,210.744L589.091,206.78L578.182,206.47L567.273,202.32L556.364,201.237L545.455,197.172L534.545,194.297L523.636,193.315L512.727,191.946L501.818,191.016L490.909,191.629L480,196.004L469.091,193.806L458.182,197.789L447.273,197.922L436.364,199.305L425.455,198.639L414.545,198.355L403.636,197.684L392.727,195.092L381.818,192.55L370.909,188.251L360,182.774L349.091,176.468L338.182,167.399L327.273,158.355L316.364,151.564L305.455,146.574L294.545,141.043L283.636,137.559L272.727,130.969L261.818,127.622L250.909,123.748L240,118.911L229.091,117.727L218.182,7.531L207.273,3.258L196.364,2.953L185.455,5.761L174.545,4.948L163.636,4.329L152.727,5.916L141.818,10.218L130.909,17.399L120,23.906L109.091,29.871L98.182,35.987L87.273,42.352L76.364,48.198L65.455,54.851L54.545,60.492L43.636,66.753L32.727,72.997L21.818,79.256L10.909,84.058Z" fill="blue" opacity="0.3"/></g></g><path class="foreground" aria-hidden="true" d="" display="none"/></g></g><g class="mark-group role-scope layer_1_pathgroup" role="graphics-object" aria-roledescription="group mark container"><g transform="translate(0,0)"><path class="background" aria-hidden="true" d="M0,0h600v400h-600Z"/><g><g class="mark-line role-mark layer_1_marks" role="graphics-object" aria-roledescription="line mark container"><path aria-label="年齢: 41; spend50p: 481.845245909; group_label: 定額取り崩し（ベースライン）" role="graphics-symbol" aria-roledescription="line mark" d="M10.909,78.77L21.818,72.125L32.727,65.133L43.636,57.99L54.545,51.044L65.455,44.115L76.364,37.255L87.273,30.794L98.182,24.848L109.091,19.583L120,15.277L130.909,12.123L141.818,10.362L152.727,10.292L163.636,12.147L174.545,16.159L185.455,21.756L196.364,28.606L207.273,36.306L218.182,44.121L229.091,148.712L240,156.576L250.909,164.395L261.818,171.643L272.727,179.084L283.636,186.466L294.545,194.169L305.455,202.525L316.364,211.402L327.273,220.57L338.182,230.177L349.091,240.087L360,248.619L370.909,256.625L381.818,263.53L392.727,269.32L403.636,274.506L414.545,278.75L425.455,281.98L436.364,285.357L447.273,288.138L458.182,291.042L469.091,293.475L480,296.034L490.909,298.804L501.818,301.888L512.727,305.193L523.636,309.213L534.545,313.125L545.455,317.365L556.364,321.884L567.273,326.138L578.182,330.732L589.091,335.083L600,340.127" stroke="green" stroke-width="2"/></g></g><path class="foreground" aria-hidden="true" d="" display="none"/></g><g transform="translate(0,0)"><path class="background" aria-hidden="true" d="M0,0h600v400h-600Z"/><g><g class="mark-line role-mark layer_1_marks" role="graphics-object" aria-roledescription="line mark container"><path aria-label="年齢: 41; spend50p: 478.345067292; group_label: 支出率を目標にする@ダイナミックスペンディング" role="graphics-symbol" aria-roledescription="line mark" d="M10.909,81.103L21.818,81.619L32.727,82.648L43.636,79.881L54.545,83.697L65.455,81.282L76.364,82.896L87.273,82.971L98.182,87.195L109.091,89.928L120,90.812L130.909,93.441L141.818,97.619L152.727,100.425L163.636,100.908L174.545,103.593L185.455,107.002L196.364,108.273L207.273,109.385L218.182,113.312L229.091,207.78L240,208.446L250.909,209.478L261.818,210.631L272.727,211.288L283.636,213.058L294.545,214.282L305.455,214.369L316.364,213.514L327.273,214.686L338.182,216.855L349.091,217.325L360,219.225L370.909,219.938L381.818,221.001L392.727,222.029L403.636,223.706L414.545,224.674L425.455,227.111L436.364,228.976L447.273,230.308L458.182,232.039L469.091,233.705L480,235.887L490.909,237.537L501.818,239.183L512.727,241.309L523.636,244.245L534.545,246.242L545.455,248.53L556.364,248.785L567.273,249.526L578.182,251.948L589.091,254.827L600,255.91" stroke="red" stroke-width="2"/></g></g><path class="foreground" aria-hidden="true" d="" display="none"/></g><g transform="translate(0,0)"><path class="background" aria-hidden="true" d="M0,0h600v400h-600Z"/><g><g class="mark-line role-mark layer_1_marks" role="graphics-object" aria-roledescription="line mark container"><path aria-label="年齢: 41; spend50p: 473.767176369; group_label: 生存確率を目標にする@ダイナミックスペンディング" role="graphics-symbol" aria-roledescription="line mark" d="M10.909,84.155L21.818,83.286L32.727,82.221L43.636,80.951L54.545,81.268L65.455,80.311L76.364,79.055L87.273,79.173L98.182,78.121L109.091,77.501L120,77.024L130.909,76.782L141.818,76.556L152.727,77.749L163.636,82.322L174.545,86.059L185.455,90.043L196.364,95.119L207.273,100.958L218.182,105.85L229.091,208.216L240,211.976L250.909,215.963L261.818,220.375L272.727,225.791L283.636,230.91L294.545,236.187L305.455,240.435L316.364,245.304L327.273,250.963L338.182,258.435L349.091,267.073L360,271.55L370.909,276.805L381.818,280.932L392.727,285.307L403.636,288.962L414.545,289.761L425.455,290.238L436.364,290.791L447.273,292.727L458.182,295.33L469.091,296.144L480,295.972L490.909,297.679L501.818,298.922L512.727,301.303L523.636,301.58L534.545,301.607L545.455,305.558L556.364,308.115L567.273,310.668L578.182,312.775L589.091,315.782L600,317.629" stroke="blue" stroke-width="2"/></g></g><path class="foreground" aria-hidden="true" d="" display="none"/></g></g><g class="mark-group role-legend" role="graphics-symbol" aria-roledescription="legend" aria-label="Symbol legend titled '戦略' for fill color and stroke color with 3 values: 支出率を目標にする@ダイナミックスペンディング, 生存確率を目標にする@ダイナミックスペンディング, 定額取り崩し（ベースライン）"><g transform="translate(0,-57)"><path class="background" aria-hidden="true" d="M0,0h470v39h-470Z" pointer-events="none"/><g><g class="mark-group role-legend-entry"><g transform="translate(0,16)"><path class="background" aria-hidden="true" d="M0,0h0v0h0Z" pointer-events="none"/><g><g class="mark-group role-scope" role="graphics-object" aria-roledescription="group mark container"><g transform="translate(0,0)"><path class="background" aria-hidden="true" d="M0,0h146v23h-146Z" pointer-events="none" opacity="1"/><g><g class="mark-symbol role-legend-symbol" pointer-events="none"><path transform="translate(6,6)" d="M5,0A5,5,0,1,1,-5,0A5,5,0,1,1,5,0" fill="red" stroke="red" stroke-width="1.5" opacity="0.3"/></g><g class="mark-text role-legend-label" pointer-events="none"><text text-anchor="start" transform="translate(16,9)" font-family="sans-serif" font-size="10px" fill="#000" opacity="1"><tspan>支出率を目標にする</tspan><tspan x="0" dy="12">ダイナミックスペンディング</tspan></text></g></g><path class="foreground" aria-hidden="true" d="" pointer-events="none" display="none"/></g><g transform="translate(157,0)"><path class="background" aria-hidden="true" d="M0,0h146v23h-146Z" pointer-events="none" opacity="1"/><g><g class="mark-symbol role-legend-symbol" pointer-events="none"><path transform="translate(6,6)" d="M5,0A5,5,0,1,1,-5,0A5,5,0,1,1,5,0" fill="blue" stroke="blue" stroke-width="1.5" opacity="0.3"/></g><g class="mark-text role-legend-label" pointer-events="none"><text text-anchor="start" transform="translate(16,9)" font-family="sans-serif" font-size="10px" fill="#000" opacity="1"><tspan>生存確率を目標にする</tspan><tspan x="0" dy="12">ダイナミックスペンディング</tspan></text></g></g><path class="foreground" aria-hidden="true" d="" pointer-events="none" display="none"/></g><g transform="translate(314,5.25)"><path class="background" aria-hidden="true" d="M0,0h156v12.5h-156Z" pointer-events="none" opacity="1"/><g><g class="mark-symbol role-legend-symbol" pointer-events="none"><path transform="translate(6,6)" d="M5,0A5,5,0,1,1,-5,0A5,5,0,1,1,5,0" fill="green" stroke="green" stroke-width="1.5" opacity="0.3"/></g><g class="mark-text role-legend-label" pointer-events="none"><text text-anchor="start" transform="translate(16,9)" font-family="sans-serif" font-size="10px" fill="#000" opacity="1">定額取り崩し（ベースライン）</text></g></g><path class="foreground" aria-hidden="true" d="" pointer-events="none" display="none"/></g></g></g><path class="foreground" aria-hidden="true" d="" pointer-events="none" display="none"/></g></g><g class="mark-text role-legend-title" pointer-events="none"><text text-anchor="start" transform="translate(0,9)" font-family="sans-serif" font-size="11px" font-weight="bold" fill="#000" opacity="1">戦略</text></g></g><path class="foreground" aria-hidden="true" d="" pointer-events="none" display="none"/></g></g><g class="mark-group role-title"><g transform="translate(300,-74)"><path class="background" aria-hidden="true" d="M0,0h0v0h0Z" pointer-events="none"/><g><g class="mark-text role-title-text" role="graphics-symbol" aria-roledescription="title" aria-label="Title text '実質支出額の推移比較 (初期支出率: 4.0%, 共通生存パスのみ)'" pointer-events="none"><text text-anchor="middle" transform="translate(0,10)" font-family="sans-serif" font-size="13px" font-weight="bold" fill="#000" opacity="1">実質支出額の推移比較 (初期支出率: 4.0%, 共通生存パスのみ)</text></g></g><path class="foreground" aria-hidden="true" d="" pointer-events="none" display="none"/></g></g></g><path class="foreground" aria-hidden="true" d="" display="none"/></g></g></g></svg>