<svg xmlns="http://www.w3.org/2000/svg" xmlns:xlink="http://www.w3.org/1999/xlink" version="1.1" class="marks" width="813" height="464" viewBox="0 0 813 464"><rect width="813" height="464" fill="white"/><g fill="none" stroke-miterlimit="10" transform="translate(44,27)"><g class="mark-group role-frame root" role="graphics-object" aria-roledescription="group mark container"><g transform="translate(0,0)"><path class="background" aria-hidden="true" d="M0.5,0.5h600v400h-600Z" stroke="#ddd"/><g><g class="mark-group role-axis" aria-hidden="true"><g transform="translate(0.5,400.5)"><path class="background" aria-hidden="true" d="M0,0h0v0h0Z" pointer-events="none"/><g><g class="mark-rule role-axis-grid" pointer-events="none"><line transform="translate(0,-400)" x2="0" y2="400" stroke="#ddd" stroke-width="1" opacity="1"/><line transform="translate(55,-400)" x2="0" y2="400" stroke="#ddd" stroke-width="1" opacity="1"/><line transform="translate(109,-400)" x2="0" y2="400" stroke="#ddd" stroke-width="1" opacity="1"/><line transform="translate(164,-400)" x2="0" y2="400" stroke="#ddd" stroke-width="1" opacity="1"/><line transform="translate(218,-400)" x2="0" y2="400" stroke="#ddd" stroke-width="1" opacity="1"/><line transform="translate(273,-400)" x2="0" y2="400" stroke="#ddd" stroke-width="1" opacity="1"/><line transform="translate(327,-400)" x2="0" y2="400" stroke="#ddd" stroke-width="1" opacity="1"/><line transform="translate(382,-400)" x2="0" y2="400" stroke="#ddd" stroke-width="1" opacity="1"/><line transform="translate(436,-400)" x2="0" y2="400" stroke="#ddd" stroke-width="1" opacity="1"/><line transform="translate(491,-400)" x2="0" y2="400" stroke="#ddd" stroke-width="1" opacity="1"/><line transform="translate(545,-400)" x2="0" y2="400" stroke="#ddd" stroke-width="1" opacity="1"/><line transform="translate(600,-400)" x2="0" y2="400" stroke="#ddd" stroke-width="1" opacity="1"/></g></g><path class="foreground" aria-hidden="true" d="" pointer-events="none" display="none"/></g></g><g class="mark-group role-axis" aria-hidden="true"><g transform="translate(0.5,0.5)"><path class="background" aria-hidden="true" d="M0,0h0v0h0Z" pointer-events="none"/><g><g class="mark-rule role-axis-grid" pointer-events="none"><line transform="translate(0,400)" x2="600" y2="0" stroke="#ddd" stroke-width="1" opacity="1"/><line transform="translate(0,350)" x2="600" y2="0" stroke="#ddd" stroke-width="1" opacity="1"/><line transform="translate(0,300)" x2="600" y2="0" stroke="#ddd" stroke-width="1" opacity="1"/><line transform="translate(0,250)" x2="600" y2="0" stroke="#ddd" stroke-width="1" opacity="1"/><line transform="translate(0,200)" x2="600" y2="0" stroke="#ddd" stroke-width="1" opacity="1"/><line transform="translate(0,150)" x2="600" y2="0" stroke="#ddd" stroke-width="1" opacity="1"/><line transform="translate(0,100)" x2="600" y2="0" stroke="#ddd" stroke-width="1" opacity="1"/><line transform="translate(0,50)" x2="600" y2="0" stroke="#ddd" stroke-width="1" opacity="1"/><line transform="translate(0,0)" x2="600" y2="0" stroke="#ddd" stroke-width="1" opacity="1"/></g></g><path class="foreground" aria-hidden="true" d="" pointer-events="none" display="none"/></g></g><g class="mark-group role-axis" role="graphics-symbol" aria-roledescription="axis" aria-label="X-axis titled '経過年数 (年)' for a linear scale with values from 0 to 55"><g transform="translate(0.5,400.5)"><path class="background" aria-hidden="true" d="M0,0h0v0h0Z" pointer-events="none"/><g><g class="mark-rule role-axis-tick" pointer-events="none"><line transform="translate(0,0)" x2="0" y2="5" stroke="#888" stroke-width="1" opacity="1"/><line transform="translate(55,0)" x2="0" y2="5" stroke="#888" stroke-width="1" opacity="1"/><line transform="translate(109,0)" x2="0" y2="5" stroke="#888" stroke-width="1" opacity="1"/><line transform="translate(164,0)" x2="0" y2="5" stroke="#888" stroke-width="1" opacity="1"/><line transform="translate(218,0)" x2="0" y2="5" stroke="#888" stroke-width="1" opacity="1"/><line transform="translate(273,0)" x2="0" y2="5" stroke="#888" stroke-width="1" opacity="1"/><line transform="translate(327,0)" x2="0" y2="5" stroke="#888" stroke-width="1" opacity="1"/><line transform="translate(382,0)" x2="0" y2="5" stroke="#888" stroke-width="1" opacity="1"/><line transform="translate(436,0)" x2="0" y2="5" stroke="#888" stroke-width="1" opacity="1"/><line transform="translate(491,0)" x2="0" y2="5" stroke="#888" stroke-width="1" opacity="1"/><line transform="translate(545,0)" x2="0" y2="5" stroke="#888" stroke-width="1" opacity="1"/><line transform="translate(600,0)" x2="0" y2="5" stroke="#888" stroke-width="1" opacity="1"/></g><g class="mark-text role-axis-label" pointer-events="none"><text text-anchor="start" transform="translate(0,15)" font-family="sans-serif" font-size="10px" fill="#000" opacity="1">0</text><text text-anchor="middle" transform="translate(54.54545454545455,15)" font-family="sans-serif" font-size="10px" fill="#000" opacity="1">5</text><text text-anchor="middle" transform="translate(109.0909090909091,15)" font-family="sans-serif" font-size="10px" fill="#000" opacity="1">10</text><text text-anchor="middle" transform="translate(163.63636363636363,15)" font-family="sans-serif" font-size="10px" fill="#000" opacity="1">15</text><text text-anchor="middle" transform="translate(218.1818181818182,15)" font-family="sans-serif" font-size="10px" fill="#000" opacity="1">20</text><text text-anchor="middle" transform="translate(272.7272727272727,15)" font-family="sans-serif" font-size="10px" fill="#000" opacity="1">25</text><text text-anchor="middle" transform="translate(327.27272727272725,15)" font-family="sans-serif" font-size="10px" fill="#000" opacity="1">30</text><text text-anchor="middle" transform="translate(381.8181818181818,15)" font-family="sans-serif" font-size="10px" fill="#000" opacity="1">35</text><text text-anchor="middle" transform="translate(436.3636363636364,15)" font-family="sans-serif" font-size="10px" fill="#000" opacity="1">40</text><text text-anchor="middle" transform="translate(490.90909090909093,15)" font-family="sans-serif" font-size="10px" fill="#000" opacity="1">45</text><text text-anchor="middle" transform="translate(545.4545454545454,15)" font-family="sans-serif" font-size="10px" fill="#000" opacity="1">50</text><text text-anchor="end" transform="translate(600,15)" font-family="sans-serif" font-size="10px" fill="#000" opacity="1">55</text></g><g class="mark-rule role-axis-domain" pointer-events="none"><line transform="translate(0,0)" x2="600" y2="0" stroke="#888" stroke-width="1" opacity="1"/></g><g class="mark-text role-axis-title" pointer-events="none"><text text-anchor="middle" transform="translate(300,30)" font-family="sans-serif" font-size="11px" font-weight="bold" fill="#000" opacity="1">経過年数 (年)</text></g></g><path class="foreground" aria-hidden="true" d="" pointer-events="none" display="none"/></g></g><g class="mark-group role-axis" role="graphics-symbol" aria-roledescription="axis" aria-label="Y-axis titled '生存確率 (%)' for a linear scale with values from 60 to 100"><g transform="translate(0.5,0.5)"><path class="background" aria-hidden="true" d="M0,0h0v0h0Z" pointer-events="none"/><g><g class="mark-rule role-axis-tick" pointer-events="none"><line transform="translate(0,400)" x2="-5" y2="0" stroke="#888" stroke-width="1" opacity="1"/><line transform="translate(0,350)" x2="-5" y2="0" stroke="#888" stroke-width="1" opacity="1"/><line transform="translate(0,300)" x2="-5" y2="0" stroke="#888" stroke-width="1" opacity="1"/><line transform="translate(0,250)" x2="-5" y2="0" stroke="#888" stroke-width="1" opacity="1"/><line transform="translate(0,200)" x2="-5" y2="0" stroke="#888" stroke-width="1" opacity="1"/><line transform="translate(0,150)" x2="-5" y2="0" stroke="#888" stroke-width="1" opacity="1"/><line transform="translate(0,100)" x2="-5" y2="0" stroke="#888" stroke-width="1" opacity="1"/><line transform="translate(0,50)" x2="-5" y2="0" stroke="#888" stroke-width="1" opacity="1"/><line transform="translate(0,0)" x2="-5" y2="0" stroke="#888" stroke-width="1" opacity="1"/></g><g class="mark-text role-axis-label" pointer-events="none"><text text-anchor="end" transform="translate(-7,403)" font-family="sans-serif" font-size="10px" fill="#000" opacity="1">60</text><text text-anchor="end" transform="translate(-7,353)" font-family="sans-serif" font-size="10px" fill="#000" opacity="1">65</text><text text-anchor="end" transform="translate(-7,303)" font-family="sans-serif" font-size="10px" fill="#000" opacity="1">70</text><text text-anchor="end" transform="translate(-7,253)" font-family="sans-serif" font-size="10px" fill="#000" opacity="1">75</text><text text-anchor="end" transform="translate(-7,203)" font-family="sans-serif" font-size="10px" fill="#000" opacity="1">80</text><text text-anchor="end" transform="translate(-7,153)" font-family="sans-serif" font-size="10px" fill="#000" opacity="1">85</text><text text-anchor="end" transform="translate(-7,103)" font-family="sans-serif" font-size="10px" fill="#000" opacity="1">90</text><text text-anchor="end" transform="translate(-7,53)" font-family="sans-serif" font-size="10px" fill="#000" opacity="1">95</text><text text-anchor="end" transform="translate(-7,3)" font-family="sans-serif" font-size="10px" fill="#000" opacity="1">100</text></g><g class="mark-rule role-axis-domain" pointer-events="none"><line transform="translate(0,400)" x2="0" y2="-400" stroke="#888" stroke-width="1" opacity="1"/></g><g class="mark-text role-axis-title" pointer-events="none"><text text-anchor="middle" transform="translate(-27.6845703125,200) rotate(-90) translate(0,-2)" font-family="sans-serif" font-size="11px" font-weight="bold" fill="#000" opacity="1">生存確率 (%)</text></g></g><path class="foreground" aria-hidden="true" d="" pointer-events="none" display="none"/></g></g><g class="mark-group role-scope pathgroup" role="graphics-object" aria-roledescription="group mark container"><g transform="translate(0,0)"><path class="background" aria-hidden="true" d="M0,0h600v400h-600Z"/><g><g class="mark-line role-mark marks" clip-path="url(#clip1)" role="graphics-object" aria-roledescription="line mark container"><path aria-label="経過年数 (年): 0; 生存確率 (%): 100; 初期支出ルール: 初期支出 3.0%; 戦略: 支出率を目標にする@ダイナミックスペンディング; year: 0; rule: 3; strategy_jp: 支出率を目標にする@ダイナミックスペンディング; Survival Probability (%): 100.0" role="graphics-symbol" aria-roledescription="line mark" d="M0,0L10.909,0L21.818,0L32.727,0L43.636,0L54.545,0L65.455,0L76.364,0L87.273,0L98.182,0L109.091,0L120,0.5L130.909,1L141.818,2.5L152.727,3.5L163.636,3.5L174.545,4L185.455,5L196.364,8.5L207.273,10L218.182,11.5L229.091,13L240,14L250.909,14.5L261.818,17L272.727,18.5L283.636,20.5L294.545,20.5L305.455,24L316.364,27L327.273,28.5L338.182,28.5L349.091,29.5L360,32L370.909,35L381.818,37.5L392.727,42.5L403.636,44.5L414.545,51L425.455,52.5L436.364,56.5L447.273,60L458.182,60.5L469.091,65L480,69L490.909,74.5L501.818,77.5L512.727,80L523.636,81.5L534.545,82L545.455,85L556.364,87L567.273,87.5L578.182,90L589.091,91L600,92.5" stroke="#4c78a8" stroke-width="2" stroke-dasharray="4,4"/></g></g><path class="foreground" aria-hidden="true" d="" display="none"/></g><g transform="translate(0,0)"><path class="background" aria-hidden="true" d="M0,0h600v400h-600Z"/><g><g class="mark-line role-mark marks" clip-path="url(#clip2)" role="graphics-object" aria-roledescription="line mark container"><path aria-label="経過年数 (年): 0; 生存確率 (%): 100; 初期支出ルール: 初期支出 3.0%; 戦略: 生存確率を目標にする@ダイナミックスペンディング; year: 0; rule: 3; strategy_jp: 生存確率を目標にする@ダイナミックスペンディング; Survival Probability (%): 100.0" role="graphics-symbol" aria-roledescription="line mark" d="M0,0L10.909,0L21.818,0L32.727,0L43.636,0L54.545,0L65.455,0L76.364,0L87.273,0L98.182,0L109.091,0L120,0L130.909,1L141.818,1.5L152.727,2L163.636,2.5L174.545,3L185.455,5L196.364,6.5L207.273,7.5L218.182,9L229.091,9.5L240,9.5L250.909,10L261.818,10L272.727,11L283.636,11L294.545,11.5L305.455,11.5L316.364,11.5L327.273,11.5L338.182,11.5L349.091,11.5L360,11.5L370.909,11.5L381.818,11.5L392.727,11.5L403.636,11.5L414.545,11.5L425.455,11.5L436.364,11.5L447.273,11.5L458.182,11.5L469.091,11.5L480,11.5L490.909,11.5L501.818,11.5L512.727,11.5L523.636,11.5L534.545,11.5L545.455,11.5L556.364,11.5L567.273,11.5L578.182,11.5L589.091,11.5L600,11.5" stroke="#4c78a8" stroke-width="2" stroke-dasharray="0,0"/></g></g><path class="foreground" aria-hidden="true" d="" display="none"/></g><g transform="translate(0,0)"><path class="background" aria-hidden="true" d="M0,0h600v400h-600Z"/><g><g class="mark-line role-mark marks" clip-path="url(#clip3)" role="graphics-object" aria-roledescription="line mark container"><path aria-label="経過年数 (年): 0; 生存確率 (%): 100; 初期支出ルール: 初期支出 3.5%; 戦略: 支出率を目標にする@ダイナミックスペンディング; year: 0; rule: 3.5; strategy_jp: 支出率を目標にする@ダイナミックスペンディング; Survival Probability (%): 100.0" role="graphics-symbol" aria-roledescription="line mark" d="M0,0L10.909,0L21.818,0L32.727,0L43.636,0L54.545,0L65.455,0L76.364,0L87.273,0L98.182,0L109.091,0.5L120,1L130.909,3L141.818,5.5L152.727,7L163.636,10.5L174.545,14L185.455,19L196.364,22L207.273,26L218.182,33.5L229.091,36.5L240,41.5L250.909,47.5L261.818,52.5L272.727,57L283.636,60.5L294.545,64.5L305.455,68.5L316.364,71.5L327.273,73.5L338.182,81.5L349.091,88L360,94.5L370.909,100.5L381.818,104.5L392.727,108.5L403.636,113.5L414.545,116L425.455,121.5L436.364,125.5L447.273,130L458.182,135.5L469.091,141L480,146.5L490.909,151L501.818,153L512.727,156.5L523.636,159.5L534.545,161.5L545.455,163.5L556.364,167.5L567.273,169.5L578.182,170.5L589.091,173L600,175.5" stroke="#f58518" stroke-width="2" stroke-dasharray="4,4"/></g></g><path class="foreground" aria-hidden="true" d="" display="none"/></g><g transform="translate(0,0)"><path class="background" aria-hidden="true" d="M0,0h600v400h-600Z"/><g><g class="mark-line role-mark marks" clip-path="url(#clip4)" role="graphics-object" aria-roledescription="line mark container"><path aria-label="経過年数 (年): 0; 生存確率 (%): 100; 初期支出ルール: 初期支出 3.5%; 戦略: 生存確率を目標にする@ダイナミックスペンディング; year: 0; rule: 3.5; strategy_jp: 生存確率を目標にする@ダイナミックスペンディング; Survival Probability (%): 100.0" role="graphics-symbol" aria-roledescription="line mark" d="M0,0L10.909,0L21.818,0L32.727,0L43.636,0L54.545,0L65.455,0L76.364,0L87.273,0L98.182,0L109.091,0.5L120,1L130.909,2L141.818,3.5L152.727,4.5L163.636,9L174.545,11.5L185.455,15L196.364,18L207.273,22.5L218.182,27.5L229.091,29.5L240,29.5L250.909,33.5L261.818,35L272.727,35L283.636,36L294.545,36L305.455,36L316.364,38.5L327.273,39L338.182,39L349.091,39L360,39L370.909,39L381.818,39L392.727,39L403.636,39L414.545,39L425.455,39L436.364,39L447.273,39L458.182,39L469.091,39L480,39L490.909,39L501.818,39L512.727,39L523.636,39.5L534.545,39.5L545.455,39.5L556.364,39.5L567.273,39.5L578.182,39.5L589.091,39.5L600,39.5" stroke="#f58518" stroke-width="2" stroke-dasharray="0,0"/></g></g><path class="foreground" aria-hidden="true" d="" display="none"/></g><g transform="translate(0,0)"><path class="background" aria-hidden="true" d="M0,0h600v400h-600Z"/><g><g class="mark-line role-mark marks" clip-path="url(#clip5)" role="graphics-object" aria-roledescription="line mark container"><path aria-label="経過年数 (年): 0; 生存確率 (%): 100; 初期支出ルール: 初期支出 4.0%; 戦略: 支出率を目標にする@ダイナミックスペンディング; year: 0; rule: 4; strategy_jp: 支出率を目標にする@ダイナミックスペンディング; Survival Probability (%): 100.0" role="graphics-symbol" aria-roledescription="line mark" d="M0,0L10.909,0L21.818,0L32.727,0L43.636,0L54.545,0L65.455,0L76.364,0L87.273,0L98.182,0.5L109.091,1L120,3L130.909,6.5L141.818,10L152.727,15.5L163.636,24L174.545,33L185.455,43.5L196.364,58L207.273,70.5L218.182,82L229.091,88L240,96L250.909,106L261.818,115L272.727,126.5L283.636,133L294.545,136.5L305.455,143L316.364,150.5L327.273,155.5L338.182,164L349.091,171L360,177L370.909,180.5L381.818,189L392.727,194L403.636,197.5L414.545,204.5L425.455,212L436.364,216L447.273,220.5L458.182,225.5L469.091,233.5L480,236.5L490.909,239.5L501.818,242.5L512.727,246.5L523.636,252.5L534.545,257.5L545.455,260L556.364,265.5L567.273,269L578.182,272L589.091,276L600,279.5" stroke="#e45756" stroke-width="2" stroke-dasharray="4,4"/></g></g><path class="foreground" aria-hidden="true" d="" display="none"/></g><g transform="translate(0,0)"><path class="background" aria-hidden="true" d="M0,0h600v400h-600Z"/><g><g class="mark-line role-mark marks" clip-path="url(#clip6)" role="graphics-object" aria-roledescription="line mark container"><path aria-label="経過年数 (年): 0; 生存確率 (%): 100; 初期支出ルール: 初期支出 4.0%; 戦略: 生存確率を目標にする@ダイナミックスペンディング; year: 0; rule: 4; strategy_jp: 生存確率を目標にする@ダイナミックスペンディング; Survival Probability (%): 100.0" role="graphics-symbol" aria-roledescription="line mark" d="M0,0L10.909,0L21.818,0L32.727,0L43.636,0L54.545,0L65.455,0L76.364,0L87.273,0L98.182,0.5L109.091,0.5L120,2.5L130.909,5L141.818,6.5L152.727,16L163.636,25L174.545,32L185.455,42L196.364,51.5L207.273,62L218.182,69.5L229.091,73.5L240,77L250.909,78.5L261.818,79L272.727,81L283.636,82L294.545,84L305.455,86.5L316.364,87.5L327.273,89L338.182,89L349.091,89.5L360,90.5L370.909,90.5L381.818,90.5L392.727,90.5L403.636,91.5L414.545,91.5L425.455,91.5L436.364,91.5L447.273,91.5L458.182,91.5L469.091,91.5L480,91.5L490.909,91.5L501.818,91.5L512.727,91.5L523.636,91.5L534.545,91.5L545.455,91.5L556.364,91.5L567.273,91.5L578.182,91.5L589.091,91.5L600,91.5" stroke="#e45756" stroke-width="2" stroke-dasharray="0,0"/></g></g><path class="foreground" aria-hidden="true" d="" display="none"/></g><g transform="translate(0,0)"><path class="background" aria-hidden="true" d="M0,0h600v400h-600Z"/><g><g class="mark-line role-mark marks" clip-path="url(#clip7)" role="graphics-object" aria-roledescription="line mark container"><path aria-label="経過年数 (年): 0; 生存確率 (%): 100; 初期支出ルール: 初期支出 4.5%; 戦略: 支出率を目標にする@ダイナミックスペンディング; year: 0; rule: 4.5; strategy_jp: 支出率を目標にする@ダイナミックスペンディング; Survival Probability (%): 100.0" role="graphics-symbol" aria-roledescription="line mark" d="M0,0L10.909,0L21.818,0L32.727,0L43.636,0L54.545,0L65.455,0L76.364,0L87.273,0.5L98.182,0.5L109.091,2.5L120,7L130.909,11.5L141.818,20.5L152.727,32L163.636,46L174.545,62.5L185.455,83L196.364,99.5L207.273,123L218.182,144.5L229.091,151L240,166.5L250.909,176.5L261.818,188L272.727,199.5L283.636,206.5L294.545,217L305.455,225.5L316.364,232.5L327.273,244L338.182,252L349.091,259.5L360,269.5L370.909,276L381.818,280.5L392.727,287.5L403.636,293L414.545,302.5L425.455,308L436.364,315L447.273,321L458.182,325L469.091,333L480,339L490.909,346L501.818,353L512.727,355L523.636,358.5L534.545,363.5L545.455,366.5L556.364,369.5L567.273,375L578.182,378.5L589.091,381L600,383.5" stroke="#72b7b2" stroke-width="2" stroke-dasharray="4,4"/></g></g><path class="foreground" aria-hidden="true" d="" display="none"/></g><g transform="translate(0,0)"><path class="background" aria-hidden="true" d="M0,0h600v400h-600Z"/><g><g class="mark-line role-mark marks" clip-path="url(#clip8)" role="graphics-object" aria-roledescription="line mark container"><path aria-label="経過年数 (年): 0; 生存確率 (%): 100; 初期支出ルール: 初期支出 4.5%; 戦略: 生存確率を目標にする@ダイナミックスペンディング; year: 0; rule: 4.5; strategy_jp: 生存確率を目標にする@ダイナミックスペンディング; Survival Probability (%): 100.0" role="graphics-symbol" aria-roledescription="line mark" d="M0,0L10.909,0L21.818,0L32.727,0L43.636,0L54.545,0L65.455,0L76.364,0L87.273,0L98.182,0.5L109.091,2L120,4.5L130.909,11L141.818,21.5L152.727,30L163.636,45L174.545,60.5L185.455,74L196.364,83.5L207.273,95L218.182,112L229.091,118L240,126L250.909,133L261.818,139.5L272.727,144L283.636,148L294.545,150.5L305.455,153.5L316.364,155.5L327.273,157.5L338.182,159L349.091,160L360,161.5L370.909,161.5L381.818,162L392.727,162.5L403.636,162.5L414.545,163L425.455,163L436.364,163.5L447.273,163.5L458.182,163.5L469.091,163.5L480,164L490.909,164L501.818,164L512.727,164L523.636,164L534.545,164L545.455,164L556.364,164L567.273,164L578.182,164L589.091,164L600,164" stroke="#72b7b2" stroke-width="2" stroke-dasharray="0,0"/></g></g><path class="foreground" aria-hidden="true" d="" display="none"/></g></g><g class="mark-group role-legend" role="graphics-symbol" aria-roledescription="legend" aria-label="Symbol legend titled '初期支出ルール' for stroke color with 4 values: 初期支出 3.0%, 初期支出 3.5%, 初期支出 4.0%, 初期支出 4.5%"><g transform="translate(618,0)"><path class="background" aria-hidden="true" d="M0,0h82v66h-82Z" pointer-events="none"/><g><g class="mark-group role-legend-entry"><g transform="translate(0,16)"><path class="background" aria-hidden="true" d="M0,0h0v0h0Z" pointer-events="none"/><g><g class="mark-group role-scope" role="graphics-object" aria-roledescription="group mark container"><g transform="translate(0,0)"><path class="background" aria-hidden="true" d="M0,0h81.5712890625v11h-81.5712890625Z" pointer-events="none" opacity="1"/><g><g class="mark-symbol role-legend-symbol" pointer-events="none"><path transform="translate(6,6)" d="M-5,0L5,0" stroke="#4c78a8" stroke-width="1.5" opacity="1"/></g><g class="mark-text role-legend-label" pointer-events="none"><text text-anchor="start" transform="translate(16,9)" font-family="sans-serif" font-size="10px" fill="#000" opacity="1">初期支出 3.0%</text></g></g><path class="foreground" aria-hidden="true" d="" pointer-events="none" display="none"/></g><g transform="translate(0,13)"><path class="background" aria-hidden="true" d="M0,0h81.5712890625v11h-81.5712890625Z" pointer-events="none" opacity="1"/><g><g class="mark-symbol role-legend-symbol" pointer-events="none"><path transform="translate(6,6)" d="M-5,0L5,0" stroke="#f58518" stroke-width="1.5" opacity="1"/></g><g class="mark-text role-legend-label" pointer-events="none"><text text-anchor="start" transform="translate(16,9)" font-family="sans-serif" font-size="10px" fill="#000" opacity="1">初期支出 3.5%</text></g></g><path class="foreground" aria-hidden="true" d="" pointer-events="none" display="none"/></g><g transform="translate(0,26)"><path class="background" aria-hidden="true" d="M0,0h81.5712890625v11h-81.5712890625Z" pointer-events="none" opacity="1"/><g><g class="mark-symbol role-legend-symbol" pointer-events="none"><path transform="translate(6,6)" d="M-5,0L5,0" stroke="#e45756" stroke-width="1.5" opacity="1"/></g><g class="mark-text role-legend-label" pointer-events="none"><text text-anchor="start" transform="translate(16,9)" font-family="sans-serif" font-size="10px" fill="#000" opacity="1">初期支出 4.0%</text></g></g><path class="foreground" aria-hidden="true" d="" pointer-events="none" display="none"/></g><g transform="translate(0,39)"><path class="background" aria-hidden="true" d="M0,0h81.5712890625v11h-81.5712890625Z" pointer-events="none" opacity="1"/><g><g class="mark-symbol role-legend-symbol" pointer-events="none"><path transform="translate(6,6)" d="M-5,0L5,0" stroke="#72b7b2" stroke-width="1.5" opacity="1"/></g><g class="mark-text role-legend-label" pointer-events="none"><text text-anchor="start" transform="translate(16,9)" font-family="sans-serif" font-size="10px" fill="#000" opacity="1">初期支出 4.5%</text></g></g><path class="foreground" aria-hidden="true" d="" pointer-events="none" display="none"/></g></g></g><path class="foreground" aria-hidden="true" d="" pointer-events="none" display="none"/></g></g><g class="mark-text role-legend-title" pointer-events="none"><text text-anchor="start" transform="translate(0,9)" font-family="sans-serif" font-size="11px" font-weight="bold" fill="#000" opacity="1">初期支出ルール</text></g></g><path class="foreground" aria-hidden="true" d="" pointer-events="none" display="none"/></g></g><g class="mark-group role-legend" role="graphics-symbol" aria-roledescription="legend" aria-label="Symbol legend titled '戦略' for strokeDash with 2 values: 支出率を目標にする@ダイナミックスペンディング, 生存確率を目標にする@ダイナミックスペンディング"><g transform="translate(618,74)"><path class="background" aria-hidden="true" d="M0,0h146v64h-146Z" pointer-events="none"/><g><g class="mark-group role-legend-entry"><g transform="translate(0,16)"><path class="background" aria-hidden="true" d="M0,0h0v0h0Z" pointer-events="none"/><g><g class="mark-group role-scope" role="graphics-object" aria-roledescription="group mark container"><g transform="translate(0,0)"><path class="background" aria-hidden="true" d="M0,0h146v23h-146Z" pointer-events="none" opacity="1"/><g><g class="mark-symbol role-legend-symbol" pointer-events="none"><path transform="translate(6,6)" d="M-5,0L5,0" stroke="#888" stroke-width="1.5" stroke-dasharray="4,4" opacity="1"/></g><g class="mark-text role-legend-label" pointer-events="none"><text text-anchor="start" transform="translate(16,9)" font-family="sans-serif" font-size="10px" fill="#000" opacity="1"><tspan>支出率を目標にする</tspan><tspan x="0" dy="12">ダイナミックスペンディング</tspan></text></g></g><path class="foreground" aria-hidden="true" d="" pointer-events="none" display="none"/></g><g transform="translate(0,25)"><path class="background" aria-hidden="true" d="M0,0h146v23h-146Z" pointer-events="none" opacity="1"/><g><g class="mark-symbol role-legend-symbol" pointer-events="none"><path transform="translate(6,6)" d="M-5,0L5,0" stroke="#888" stroke-width="1.5" stroke-dasharray="0,0" opacity="1"/></g><g class="mark-text role-legend-label" pointer-events="none"><text text-anchor="start" transform="translate(16,9)" font-family="sans-serif" font-size="10px" fill="#000" opacity="1"><tspan>生存確率を目標にする</tspan><tspan x="0" dy="12">ダイナミックスペンディング</tspan></text></g></g><path class="foreground" aria-hidden="true" d="" pointer-events="none" display="none"/></g></g></g><path class="foreground" aria-hidden="true" d="" pointer-events="none" display="none"/></g></g><g class="mark-text role-legend-title" pointer-events="none"><text text-anchor="start" transform="translate(0,9)" font-family="sans-serif" font-size="11px" font-weight="bold" fill="#000" opacity="1">戦略</text></g></g><path class="foreground" aria-hidden="true" d="" pointer-events="none" display="none"/></g></g><g class="mark-group role-title"><g transform="translate(300,-22)"><path class="background" aria-hidden="true" d="M0,0h0v0h0Z" pointer-events="none"/><g><g class="mark-text role-title-text" role="graphics-symbol" aria-roledescription="title" aria-label="Title text '経過年数と生存確率の推移（生存確率 60%以下は描画を省略）'" pointer-events="none"><text text-anchor="middle" transform="translate(0,10)" font-family="sans-serif" font-size="13px" font-weight="bold" fill="#000" opacity="1">経過年数と生存確率の推移（生存確率 60%以下は描画を省略）</text></g></g><path class="foreground" aria-hidden="true" d="" pointer-events="none" display="none"/></g></g></g><path class="foreground" aria-hidden="true" d="" display="none"/></g></g></g><defs><clipPath id="clip1"><rect x="0" y="0" width="600" height="400"/></clipPath><clipPath id="clip2"><rect x="0" y="0" width="600" height="400"/></clipPath><clipPath id="clip3"><rect x="0" y="0" width="600" height="400"/></clipPath><clipPath id="clip4"><rect x="0" y="0" width="600" height="400"/></clipPath><clipPath id="clip5"><rect x="0" y="0" width="600" height="400"/></clipPath><clipPath id="clip6"><rect x="0" y="0" width="600" height="400"/></clipPath><clipPath id="clip7"><rect x="0" y="0" width="600" height="400"/></clipPath><clipPath id="clip8"><rect x="0" y="0" width="600" height="400"/></clipPath></defs></svg>