<svg xmlns="http://www.w3.org/2000/svg" xmlns:xlink="http://www.w3.org/1999/xlink" version="1.1" class="marks" width="651" height="516" viewBox="0 0 651 516"><rect width="651" height="516" fill="white"/><g fill="none" stroke-miterlimit="10" transform="translate(44,79)"><g class="mark-group role-frame root" role="graphics-object" aria-roledescription="group mark container"><g transform="translate(0,0)"><path class="background" aria-hidden="true" d="M0.5,0.5h600v400h-600Z" stroke="#ddd"/><g><g class="mark-group role-axis" aria-hidden="true"><g transform="translate(0.5,400.5)"><path class="background" aria-hidden="true" d="M0,0h0v0h0Z" pointer-events="none"/><g><g class="mark-rule role-axis-grid" pointer-events="none"><line transform="translate(0,-400)" x2="0" y2="400" stroke="#ddd" stroke-width="1" opacity="1"/><line transform="translate(55,-400)" x2="0" y2="400" stroke="#ddd" stroke-width="1" opacity="1"/><line transform="translate(109,-400)" x2="0" y2="400" stroke="#ddd" stroke-width="1" opacity="1"/><line transform="translate(164,-400)" x2="0" y2="400" stroke="#ddd" stroke-width="1" opacity="1"/><line transform="translate(218,-400)" x2="0" y2="400" stroke="#ddd" stroke-width="1" opacity="1"/><line transform="translate(273,-400)" x2="0" y2="400" stroke="#ddd" stroke-width="1" opacity="1"/><line transform="translate(327,-400)" x2="0" y2="400" stroke="#ddd" stroke-width="1" opacity="1"/><line transform="translate(382,-400)" x2="0" y2="400" stroke="#ddd" stroke-width="1" opacity="1"/><line transform="translate(436,-400)" x2="0" y2="400" stroke="#ddd" stroke-width="1" opacity="1"/><line transform="translate(491,-400)" x2="0" y2="400" stroke="#ddd" stroke-width="1" opacity="1"/><line transform="translate(545,-400)" x2="0" y2="400" stroke="#ddd" stroke-width="1" opacity="1"/><line transform="translate(600,-400)" x2="0" y2="400" stroke="#ddd" stroke-width="1" opacity="1"/></g></g><path class="foreground" aria-hidden="true" d="" pointer-events="none" display="none"/></g></g><g class="mark-group role-axis" aria-hidden="true"><g transform="translate(0.5,0.5)"><path class="background" aria-hidden="true" d="M0,0h0v0h0Z" pointer-events="none"/><g><g class="mark-rule role-axis-grid" pointer-events="none"><line transform="translate(0,400)" x2="600" y2="0" stroke="#ddd" stroke-width="1" opacity="1"/><line transform="translate(0,367)" x2="600" y2="0" stroke="#ddd" stroke-width="1" opacity="1"/><line transform="translate(0,333)" x2="600" y2="0" stroke="#ddd" stroke-width="1" opacity="1"/><line transform="translate(0,300)" x2="600" y2="0" stroke="#ddd" stroke-width="1" opacity="1"/><line transform="translate(0,267)" x2="600" y2="0" stroke="#ddd" stroke-width="1" opacity="1"/><line transform="translate(0,233)" x2="600" y2="0" stroke="#ddd" stroke-width="1" opacity="1"/><line transform="translate(0,200)" x2="600" y2="0" stroke="#ddd" stroke-width="1" opacity="1"/><line transform="translate(0,167)" x2="600" y2="0" stroke="#ddd" stroke-width="1" opacity="1"/><line transform="translate(0,133)" x2="600" y2="0" stroke="#ddd" stroke-width="1" opacity="1"/><line transform="translate(0,100)" x2="600" y2="0" stroke="#ddd" stroke-width="1" opacity="1"/><line transform="translate(0,67)" x2="600" y2="0" stroke="#ddd" stroke-width="1" opacity="1"/><line transform="translate(0,33)" x2="600" y2="0" stroke="#ddd" stroke-width="1" opacity="1"/><line transform="translate(0,0)" x2="600" y2="0" stroke="#ddd" stroke-width="1" opacity="1"/></g></g><path class="foreground" aria-hidden="true" d="" pointer-events="none" display="none"/></g></g><g class="mark-group role-axis" role="graphics-symbol" aria-roledescription="axis" aria-label="X-axis titled '年齢' for a linear scale with values from 40 to 95"><g transform="translate(0.5,400.5)"><path class="background" aria-hidden="true" d="M0,0h0v0h0Z" pointer-events="none"/><g><g class="mark-rule role-axis-tick" pointer-events="none"><line transform="translate(0,0)" x2="0" y2="5" stroke="#888" stroke-width="1" opacity="1"/><line transform="translate(55,0)" x2="0" y2="5" stroke="#888" stroke-width="1" opacity="1"/><line transform="translate(109,0)" x2="0" y2="5" stroke="#888" stroke-width="1" opacity="1"/><line transform="translate(164,0)" x2="0" y2="5" stroke="#888" stroke-width="1" opacity="1"/><line transform="translate(218,0)" x2="0" y2="5" stroke="#888" stroke-width="1" opacity="1"/><line transform="translate(273,0)" x2="0" y2="5" stroke="#888" stroke-width="1" opacity="1"/><line transform="translate(327,0)" x2="0" y2="5" stroke="#888" stroke-width="1" opacity="1"/><line transform="translate(382,0)" x2="0" y2="5" stroke="#888" stroke-width="1" opacity="1"/><line transform="translate(436,0)" x2="0" y2="5" stroke="#888" stroke-width="1" opacity="1"/><line transform="translate(491,0)" x2="0" y2="5" stroke="#888" stroke-width="1" opacity="1"/><line transform="translate(545,0)" x2="0" y2="5" stroke="#888" stroke-width="1" opacity="1"/><line transform="translate(600,0)" x2="0" y2="5" stroke="#888" stroke-width="1" opacity="1"/></g><g class="mark-text role-axis-label" pointer-events="none"><text text-anchor="start" transform="translate(0,15)" font-family="sans-serif" font-size="10px" fill="#000" opacity="1">40</text><text text-anchor="middle" transform="translate(54.54545454545455,15)" font-family="sans-serif" font-size="10px" fill="#000" opacity="1">45</text><text text-anchor="middle" transform="translate(109.0909090909091,15)" font-family="sans-serif" font-size="10px" fill="#000" opacity="1">50</text><text text-anchor="middle" transform="translate(163.63636363636363,15)" font-family="sans-serif" font-size="10px" fill="#000" opacity="1">55</text><text text-anchor="middle" transform="translate(218.1818181818182,15)" font-family="sans-serif" font-size="10px" fill="#000" opacity="1">60</text><text text-anchor="middle" transform="translate(272.7272727272727,15)" font-family="sans-serif" font-size="10px" fill="#000" opacity="1">65</text><text text-anchor="middle" transform="translate(327.27272727272725,15)" font-family="sans-serif" font-size="10px" fill="#000" opacity="1">70</text><text text-anchor="middle" transform="translate(381.8181818181818,15)" font-family="sans-serif" font-size="10px" fill="#000" opacity="1">75</text><text text-anchor="middle" transform="translate(436.3636363636364,15)" font-family="sans-serif" font-size="10px" fill="#000" opacity="1">80</text><text text-anchor="middle" transform="translate(490.90909090909093,15)" font-family="sans-serif" font-size="10px" fill="#000" opacity="1">85</text><text text-anchor="middle" transform="translate(545.4545454545454,15)" font-family="sans-serif" font-size="10px" fill="#000" opacity="1">90</text><text text-anchor="end" transform="translate(600,15)" font-family="sans-serif" font-size="10px" fill="#000" opacity="1">95</text></g><g class="mark-rule role-axis-domain" pointer-events="none"><line transform="translate(0,0)" x2="600" y2="0" stroke="#888" stroke-width="1" opacity="1"/></g><g class="mark-text role-axis-title" pointer-events="none"><text text-anchor="middle" transform="translate(300,30)" font-family="sans-serif" font-size="11px" font-weight="bold" fill="#000" opacity="1">年齢</text></g></g><path class="foreground" aria-hidden="true" d="" pointer-events="none" display="none"/></g></g><g class="mark-group role-axis" role="graphics-symbol" aria-roledescription="axis" aria-label="Y-axis titled '年間取り崩し額 (万円)' for a linear scale with values from 0 to 600"><g transform="translate(0.5,0.5)"><path class="background" aria-hidden="true" d="M0,0h0v0h0Z" pointer-events="none"/><g><g class="mark-rule role-axis-tick" pointer-events="none"><line transform="translate(0,400)" x2="-5" y2="0" stroke="#888" stroke-width="1" opacity="1"/><line transform="translate(0,367)" x2="-5" y2="0" stroke="#888" stroke-width="1" opacity="1"/><line transform="translate(0,333)" x2="-5" y2="0" stroke="#888" stroke-width="1" opacity="1"/><line transform="translate(0,300)" x2="-5" y2="0" stroke="#888" stroke-width="1" opacity="1"/><line transform="translate(0,267)" x2="-5" y2="0" stroke="#888" stroke-width="1" opacity="1"/><line transform="translate(0,233)" x2="-5" y2="0" stroke="#888" stroke-width="1" opacity="1"/><line transform="translate(0,200)" x2="-5" y2="0" stroke="#888" stroke-width="1" opacity="1"/><line transform="translate(0,167)" x2="-5" y2="0" stroke="#888" stroke-width="1" opacity="1"/><line transform="translate(0,133)" x2="-5" y2="0" stroke="#888" stroke-width="1" opacity="1"/><line transform="translate(0,100)" x2="-5" y2="0" stroke="#888" stroke-width="1" opacity="1"/><line transform="translate(0,67)" x2="-5" y2="0" stroke="#888" stroke-width="1" opacity="1"/><line transform="translate(0,33)" x2="-5" y2="0" stroke="#888" stroke-width="1" opacity="1"/><line transform="translate(0,0)" x2="-5" y2="0" stroke="#888" stroke-width="1" opacity="1"/></g><g class="mark-text role-axis-label" pointer-events="none"><text text-anchor="end" transform="translate(-7,403)" font-family="sans-serif" font-size="10px" fill="#000" opacity="1">0</text><text text-anchor="end" transform="translate(-7,369.66666666666663)" font-family="sans-serif" font-size="10px" fill="#000" opacity="1">50</text><text text-anchor="end" transform="translate(-7,336.33333333333337)" font-family="sans-serif" font-size="10px" fill="#000" opacity="1">100</text><text text-anchor="end" transform="translate(-7,303)" font-family="sans-serif" font-size="10px" fill="#000" opacity="1">150</text><text text-anchor="end" transform="translate(-7,269.6666666666667)" font-family="sans-serif" font-size="10px" fill="#000" opacity="1">200</text><text text-anchor="end" transform="translate(-7,236.33333333333331)" font-family="sans-serif" font-size="10px" fill="#000" opacity="1">250</text><text text-anchor="end" transform="translate(-7,203)" font-family="sans-serif" font-size="10px" fill="#000" opacity="1">300</text><text text-anchor="end" transform="translate(-7,169.66666666666666)" font-family="sans-serif" font-size="10px" fill="#000" opacity="1">350</text><text text-anchor="end" transform="translate(-7,136.33333333333334)" font-family="sans-serif" font-size="10px" fill="#000" opacity="1">400</text><text text-anchor="end" transform="translate(-7,103)" font-family="sans-serif" font-size="10px" fill="#000" opacity="1">450</text><text text-anchor="end" transform="translate(-7,69.66666666666666)" font-family="sans-serif" font-size="10px" fill="#000" opacity="1">500</text><text text-anchor="end" transform="translate(-7,36.33333333333335)" font-family="sans-serif" font-size="10px" fill="#000" opacity="1">550</text><text text-anchor="end" transform="translate(-7,3)" font-family="sans-serif" font-size="10px" fill="#000" opacity="1">600</text></g><g class="mark-rule role-axis-domain" pointer-events="none"><line transform="translate(0,400)" x2="0" y2="-400" stroke="#888" stroke-width="1" opacity="1"/></g><g class="mark-text role-axis-title" pointer-events="none"><text text-anchor="middle" transform="translate(-27.6845703125,200) rotate(-90) translate(0,-2)" font-family="sans-serif" font-size="11px" font-weight="bold" fill="#000" opacity="1">年間取り崩し額 (万円)</text></g></g><path class="foreground" aria-hidden="true" d="" pointer-events="none" display="none"/></g></g><g class="mark-group role-scope layer_0_pathgroup" role="graphics-object" aria-roledescription="group mark container"><g transform="translate(0,0)"><path class="background" aria-hidden="true" d="M0,0h600v400h-600Z"/><g><g class="mark-area role-mark layer_0_marks" role="graphics-object" aria-roledescription="area mark container"><path aria-label="年齢: 41; 年間取り崩し額 (万円): 478.536350223; spend75p: 485.250710233; 戦略: 定額取り崩し（ベースライン）" role="graphics-symbol" aria-roledescription="area mark" d="M10.909,80.976L21.818,75.146L32.727,68.514L43.636,61.635L54.545,54.647L65.455,48.003L76.364,41.453L87.273,35.017L98.182,28.946L109.091,23.982L120,19.935L130.909,16.876L141.818,15.299L152.727,15.239L163.636,17.166L174.545,20.837L185.455,26.726L196.364,33.224L207.273,40.605L218.182,48.545L229.091,159.093L240,167.669L250.909,175.892L261.818,183.73L272.727,191.745L283.636,199.864L294.545,208.456L305.455,217.276L316.364,226.7L327.273,236.851L338.182,246.715L349.091,257.052L360,266.262L370.909,275.14L381.818,282.259L392.727,288.928L403.636,293.953L414.545,298.708L425.455,302.88L436.364,306.878L447.273,310.597L458.182,313.374L469.091,316.657L480,320.382L490.909,324.145L501.818,328.952L512.727,333.354L523.636,337.942L534.545,343.086L545.455,348.909L556.364,354.203L567.273,360.037L578.182,366.487L589.091,372.552L600,378.717L600,325.477L589.091,320.203L578.182,315.568L567.273,310.624L556.364,305.982L545.455,302.121L534.545,297.98L523.636,294.682L512.727,291.128L501.818,287.92L490.909,284.821L480,282.061L469.091,279.682L458.182,277.27L447.273,275.198L436.364,273.307L425.455,270.835L414.545,267.328L403.636,263.322L392.727,258.491L381.818,253.169L370.909,246.143L360,238.536L349.091,230.171L338.182,221.204L327.273,211.815L316.364,202.526L305.455,194.326L294.545,185.993L283.636,178.352L272.727,171.18L261.818,163.735L250.909,156.819L240,149.231L229.091,141.205L218.182,39.76L207.273,31.777L196.364,24.101L185.455,17.275L174.545,11.432L163.636,7.669L152.727,5.787L141.818,5.927L130.909,7.376L120,10.548L109.091,14.875L98.182,20.588L87.273,26.57L76.364,33.105L65.455,40.15L54.545,47.344L43.636,54.44L32.727,61.689L21.818,69.256L10.909,76.5Z" fill="green" opacity="0.3"/></g></g><path class="foreground" aria-hidden="true" d="" display="none"/></g><g transform="translate(0,0)"><path class="background" aria-hidden="true" d="M0,0h600v400h-600Z"/><g><g class="mark-area role-mark layer_0_marks" role="graphics-object" aria-roledescription="area mark container"><path aria-label="年齢: 41; 年間取り崩し額 (万円): 478.203906665; spend75p: 478.490347629; 戦略: 支出率を目標にする@ダイナミックスペンディング" role="graphics-symbol" aria-roledescription="area mark" d="M10.909,81.197L21.818,85.691L32.727,90.099L43.636,94.447L54.545,98.71L65.455,102.772L76.364,105.012L87.273,105.485L98.182,109.236L109.091,113.288L120,117.325L130.909,121.276L141.818,125.046L152.727,126.713L163.636,126.921L174.545,130.662L185.455,134.237L196.364,135.186L207.273,135.816L218.182,139.208L229.091,232.741L240,232.841L250.909,233.99L261.818,233.917L272.727,233.446L283.636,234.009L294.545,235.756L305.455,236.071L316.364,238.147L327.273,240.441L338.182,242.147L349.091,243.941L360,247.286L370.909,251.553L381.818,253.916L392.727,257.1L403.636,259.378L414.545,262.065L425.455,265.348L436.364,268.957L447.273,271.587L458.182,274.817L469.091,279.093L480,282.538L490.909,286.296L501.818,289.139L512.727,291.307L523.636,294.617L534.545,297.89L545.455,300.768L556.364,303.842L567.273,306.119L578.182,309.86L589.091,312.336L600,315.216L600,170.507L589.091,170.064L578.182,169.566L567.273,171.269L556.364,169.644L545.455,170.128L534.545,169.298L523.636,166.456L512.727,164.277L501.818,165.067L490.909,163.831L480,162.849L469.091,164.54L458.182,162.677L447.273,161.887L436.364,160.765L425.455,159.399L414.545,158.372L403.636,157.668L392.727,157.716L381.818,156.545L370.909,156.31L360,155.798L349.091,155.369L338.182,155.255L327.273,154.873L316.364,155.03L305.455,153.378L294.545,152.294L283.636,151.637L272.727,152.523L261.818,153.715L250.909,155.085L240,156.646L229.091,158.105L218.182,57.594L207.273,56.031L196.364,57.582L185.455,55.594L174.545,57.571L163.636,57.177L152.727,56.222L141.818,59.146L130.909,61.337L120,57.871L109.091,60.921L98.182,64.07L87.273,67.211L76.364,70.279L65.455,73.29L54.545,75.844L43.636,72.28L32.727,75.145L21.818,78.099L10.909,81.006Z" fill="red" opacity="0.3"/></g></g><path class="foreground" aria-hidden="true" d="" display="none"/></g><g transform="translate(0,0)"><path class="background" aria-hidden="true" d="M0,0h600v400h-600Z"/><g><g class="mark-area role-mark layer_0_marks" role="graphics-object" aria-roledescription="area mark container"><path aria-label="年齢: 41; 年間取り崩し額 (万円): 473.626015742; spend75p: 473.912456705; 戦略: 生存確率を目標にする@ダイナミックスペンディング" role="graphics-symbol" aria-roledescription="area mark" d="M10.909,84.249L21.818,87.651L32.727,91.659L43.636,97.089L54.545,102.83L65.455,108.023L76.364,113.506L87.273,119.2L98.182,124.121L109.091,130.078L120,135.831L130.909,140.682L141.818,145.03L152.727,151.383L163.636,157.211L174.545,164.937L185.455,170.134L196.364,173.854L207.273,180.435L218.182,185.714L229.091,283.897L240,287.423L250.909,293.093L261.818,296.45L272.727,299.948L283.636,304.132L294.545,309.037L305.455,314.437L316.364,318.806L327.273,324.361L338.182,329.545L349.091,335.934L360,341.35L370.909,348.191L381.818,350.865L392.727,353.632L403.636,356.196L414.545,357.364L425.455,359.335L436.364,361.361L447.273,363.841L458.182,364.219L469.091,363.823L480,363.697L490.909,363.7L501.818,363.85L512.727,365.8L523.636,366.476L534.545,370.368L545.455,374.373L556.364,376.52L567.273,378.973L578.182,379.399L589.091,382.016L600,382.328L600,208.67L589.091,204.56L578.182,205.111L567.273,205.429L556.364,203.945L545.455,202.862L534.545,203.565L523.636,200.708L512.727,198.503L501.818,202.301L490.909,203.904L480,207.464L469.091,211.355L458.182,211.835L447.273,213.507L436.364,213.315L425.455,214.471L414.545,216.534L403.636,215.051L392.727,213.198L381.818,210.413L370.909,207.942L360,201.182L349.091,197.663L338.182,190.572L327.273,181.931L316.364,176.96L305.455,171.205L294.545,166.027L283.636,160.249L272.727,156.882L261.818,157.395L250.909,154.33L240,150.946L229.091,146.573L218.182,36.213L207.273,32.322L196.364,25.153L185.455,28.705L174.545,27.214L163.636,26.852L152.727,27.4L141.818,31.962L130.909,35.469L120,39.716L109.091,43.489L98.182,45.941L87.273,49.739L76.364,53.888L65.455,58.446L54.545,63.949L43.636,69.022L32.727,74.312L21.818,79.525L10.909,84.058Z" fill="blue" opacity="0.3"/></g></g><path class="foreground" aria-hidden="true" d="" display="none"/></g></g><g class="mark-group role-scope layer_1_pathgroup" role="graphics-object" aria-roledescription="group mark container"><g transform="translate(0,0)"><path class="background" aria-hidden="true" d="M0,0h600v400h-600Z"/><g><g class="mark-line role-mark layer_1_marks" role="graphics-object" aria-roledescription="line mark container"><path aria-label="年齢: 41; spend50p: 481.845245909; group_label: 定額取り崩し（ベースライン）" role="graphics-symbol" aria-roledescription="line mark" d="M10.909,78.77L21.818,72.125L32.727,65.133L43.636,57.99L54.545,51.044L65.455,44.115L76.364,37.255L87.273,30.799L98.182,24.854L109.091,19.612L120,15.29L130.909,12.124L141.818,10.395L152.727,10.242L163.636,12.196L174.545,16.361L185.455,21.834L196.364,28.721L207.273,36.486L218.182,44.144L229.091,149.286L240,157.467L250.909,165.439L261.818,172.776L272.727,179.919L283.636,187.359L294.545,194.983L305.455,203.277L316.364,212.29L327.273,221.673L338.182,231.358L349.091,241.244L360,249.92L370.909,257.355L381.818,264.498L392.727,270.632L403.636,275.784L414.545,279.916L425.455,284.052L436.364,287.355L447.273,290.491L458.182,293.187L469.091,296.09L480,299.149L490.909,301.719L501.818,305.572L512.727,309.104L523.636,313.409L534.545,317.554L545.455,321.958L556.364,326.473L567.273,330.927L578.182,336.735L589.091,341.396L600,346.599" stroke="green" stroke-width="2"/></g></g><path class="foreground" aria-hidden="true" d="" display="none"/></g><g transform="translate(0,0)"><path class="background" aria-hidden="true" d="M0,0h600v400h-600Z"/><g><g class="mark-line role-mark layer_1_marks" role="graphics-object" aria-roledescription="line mark container"><path aria-label="年齢: 41; spend50p: 478.345067292; group_label: 支出率を目標にする@ダイナミックスペンディング" role="graphics-symbol" aria-roledescription="line mark" d="M10.909,81.103L21.818,84.807L32.727,82.739L43.636,86.646L54.545,84.358L65.455,88.57L76.364,86.237L87.273,90.244L98.182,91.225L109.091,91.916L120,96.107L130.909,95.259L141.818,97.478L152.727,95.287L163.636,98.88L174.545,98.389L185.455,100.581L196.364,99.645L207.273,101.843L218.182,102.171L229.091,195.964L240,196.514L250.909,197.798L261.818,199.643L272.727,200.57L283.636,201.782L294.545,202.965L305.455,204.523L316.364,206.498L327.273,207.706L338.182,209.631L349.091,210.123L360,211.788L370.909,215.541L381.818,217.452L392.727,219.067L403.636,220.239L414.545,221.507L425.455,224.292L436.364,227.217L447.273,229.635L458.182,232.768L469.091,235.013L480,238.242L490.909,241.963L501.818,244.75L512.727,247.35L523.636,248.949L534.545,250.313L545.455,251.918L556.364,253.225L567.273,255.229L578.182,258.419L589.091,261.938L600,263.977" stroke="red" stroke-width="2"/></g></g><path class="foreground" aria-hidden="true" d="" display="none"/></g><g transform="translate(0,0)"><path class="background" aria-hidden="true" d="M0,0h600v400h-600Z"/><g><g class="mark-line role-mark layer_1_marks" role="graphics-object" aria-roledescription="line mark container"><path aria-label="年齢: 41; spend50p: 473.767176369; group_label: 生存確率を目標にする@ダイナミックスペンディング" role="graphics-symbol" aria-roledescription="line mark" d="M10.909,84.155L21.818,83.506L32.727,83.059L43.636,82.657L54.545,83.411L65.455,83.989L76.364,84.381L87.273,85.358L98.182,86.687L109.091,87.478L120,89.336L130.909,92.056L141.818,94.249L152.727,99.333L163.636,103.694L174.545,107.395L185.455,109.37L196.364,113.848L207.273,121.832L218.182,125.453L229.091,228.453L240,233.525L250.909,236.97L261.818,241.758L272.727,244.308L283.636,246.572L294.545,252.203L305.455,255.712L316.364,259.997L327.273,265.538L338.182,271.675L349.091,277.872L360,284.248L370.909,289.324L381.818,294.333L392.727,298.245L403.636,299.778L414.545,300.524L425.455,300.694L436.364,303.49L447.273,304.215L458.182,302.627L469.091,304.114L480,303.096L490.909,304.265L501.818,304.574L512.727,304.681L523.636,303.871L534.545,305.408L545.455,306.57L556.364,307.573L567.273,309.715L578.182,310.023L589.091,312.505L600,314.363" stroke="blue" stroke-width="2"/></g></g><path class="foreground" aria-hidden="true" d="" display="none"/></g></g><g class="mark-group role-legend" role="graphics-symbol" aria-roledescription="legend" aria-label="Symbol legend titled '戦略' for fill color and stroke color with 3 values: 支出率を目標にする@ダイナミックスペンディング, 生存確率を目標にする@ダイナミックスペンディング, 定額取り崩し（ベースライン）"><g transform="translate(0,-57)"><path class="background" aria-hidden="true" d="M0,0h470v39h-470Z" pointer-events="none"/><g><g class="mark-group role-legend-entry"><g transform="translate(0,16)"><path class="background" aria-hidden="true" d="M0,0h0v0h0Z" pointer-events="none"/><g><g class="mark-group role-scope" role="graphics-object" aria-roledescription="group mark container"><g transform="translate(0,0)"><path class="background" aria-hidden="true" d="M0,0h146v23h-146Z" pointer-events="none" opacity="1"/><g><g class="mark-symbol role-legend-symbol" pointer-events="none"><path transform="translate(6,6)" d="M5,0A5,5,0,1,1,-5,0A5,5,0,1,1,5,0" fill="red" stroke="red" stroke-width="1.5" opacity="0.3"/></g><g class="mark-text role-legend-label" pointer-events="none"><text text-anchor="start" transform="translate(16,9)" font-family="sans-serif" font-size="10px" fill="#000" opacity="1"><tspan>支出率を目標にする</tspan><tspan x="0" dy="12">ダイナミックスペンディング</tspan></text></g></g><path class="foreground" aria-hidden="true" d="" pointer-events="none" display="none"/></g><g transform="translate(157,0)"><path class="background" aria-hidden="true" d="M0,0h146v23h-146Z" pointer-events="none" opacity="1"/><g><g class="mark-symbol role-legend-symbol" pointer-events="none"><path transform="translate(6,6)" d="M5,0A5,5,0,1,1,-5,0A5,5,0,1,1,5,0" fill="blue" stroke="blue" stroke-width="1.5" opacity="0.3"/></g><g class="mark-text role-legend-label" pointer-events="none"><text text-anchor="start" transform="translate(16,9)" font-family="sans-serif" font-size="10px" fill="#000" opacity="1"><tspan>生存確率を目標にする</tspan><tspan x="0" dy="12">ダイナミックスペンディング</tspan></text></g></g><path class="foreground" aria-hidden="true" d="" pointer-events="none" display="none"/></g><g transform="translate(314,5.25)"><path class="background" aria-hidden="true" d="M0,0h156v12.5h-156Z" pointer-events="none" opacity="1"/><g><g class="mark-symbol role-legend-symbol" pointer-events="none"><path transform="translate(6,6)" d="M5,0A5,5,0,1,1,-5,0A5,5,0,1,1,5,0" fill="green" stroke="green" stroke-width="1.5" opacity="0.3"/></g><g class="mark-text role-legend-label" pointer-events="none"><text text-anchor="start" transform="translate(16,9)" font-family="sans-serif" font-size="10px" fill="#000" opacity="1">定額取り崩し（ベースライン）</text></g></g><path class="foreground" aria-hidden="true" d="" pointer-events="none" display="none"/></g></g></g><path class="foreground" aria-hidden="true" d="" pointer-events="none" display="none"/></g></g><g class="mark-text role-legend-title" pointer-events="none"><text text-anchor="start" transform="translate(0,9)" font-family="sans-serif" font-size="11px" font-weight="bold" fill="#000" opacity="1">戦略</text></g></g><path class="foreground" aria-hidden="true" d="" pointer-events="none" display="none"/></g></g><g class="mark-group role-title"><g transform="translate(300,-74)"><path class="background" aria-hidden="true" d="M0,0h0v0h0Z" pointer-events="none"/><g><g class="mark-text role-title-text" role="graphics-symbol" aria-roledescription="title" aria-label="Title text '実質支出額の推移比較 (初期支出率: 5.0%, 共通生存パスのみ)'" pointer-events="none"><text text-anchor="middle" transform="translate(0,10)" font-family="sans-serif" font-size="13px" font-weight="bold" fill="#000" opacity="1">実質支出額の推移比較 (初期支出率: 5.0%, 共通生存パスのみ)</text></g></g><path class="foreground" aria-hidden="true" d="" pointer-events="none" display="none"/></g></g></g><path class="foreground" aria-hidden="true" d="" display="none"/></g></g></g></svg>