<svg xmlns="http://www.w3.org/2000/svg" xmlns:xlink="http://www.w3.org/1999/xlink" version="1.1" class="marks" width="651" height="516" viewBox="0 0 651 516"><rect width="651" height="516" fill="white"/><g fill="none" stroke-miterlimit="10" transform="translate(44,79)"><g class="mark-group role-frame root" role="graphics-object" aria-roledescription="group mark container"><g transform="translate(0,0)"><path class="background" aria-hidden="true" d="M0.5,0.5h600v400h-600Z" stroke="#ddd"/><g><g class="mark-group role-axis" aria-hidden="true"><g transform="translate(0.5,400.5)"><path class="background" aria-hidden="true" d="M0,0h0v0h0Z" pointer-events="none"/><g><g class="mark-rule role-axis-grid" pointer-events="none"><line transform="translate(0,-400)" x2="0" y2="400" stroke="#ddd" stroke-width="1" opacity="1"/><line transform="translate(55,-400)" x2="0" y2="400" stroke="#ddd" stroke-width="1" opacity="1"/><line transform="translate(109,-400)" x2="0" y2="400" stroke="#ddd" stroke-width="1" opacity="1"/><line transform="translate(164,-400)" x2="0" y2="400" stroke="#ddd" stroke-width="1" opacity="1"/><line transform="translate(218,-400)" x2="0" y2="400" stroke="#ddd" stroke-width="1" opacity="1"/><line transform="translate(273,-400)" x2="0" y2="400" stroke="#ddd" stroke-width="1" opacity="1"/><line transform="translate(327,-400)" x2="0" y2="400" stroke="#ddd" stroke-width="1" opacity="1"/><line transform="translate(382,-400)" x2="0" y2="400" stroke="#ddd" stroke-width="1" opacity="1"/><line transform="translate(436,-400)" x2="0" y2="400" stroke="#ddd" stroke-width="1" opacity="1"/><line transform="translate(491,-400)" x2="0" y2="400" stroke="#ddd" stroke-width="1" opacity="1"/><line transform="translate(545,-400)" x2="0" y2="400" stroke="#ddd" stroke-width="1" opacity="1"/><line transform="translate(600,-400)" x2="0" y2="400" stroke="#ddd" stroke-width="1" opacity="1"/></g></g><path class="foreground" aria-hidden="true" d="" pointer-events="none" display="none"/></g></g><g class="mark-group role-axis" aria-hidden="true"><g transform="translate(0.5,0.5)"><path class="background" aria-hidden="true" d="M0,0h0v0h0Z" pointer-events="none"/><g><g class="mark-rule role-axis-grid" pointer-events="none"><line transform="translate(0,400)" x2="600" y2="0" stroke="#ddd" stroke-width="1" opacity="1"/><line transform="translate(0,369)" x2="600" y2="0" stroke="#ddd" stroke-width="1" opacity="1"/><line transform="translate(0,338)" x2="600" y2="0" stroke="#ddd" stroke-width="1" opacity="1"/><line transform="translate(0,308)" x2="600" y2="0" stroke="#ddd" stroke-width="1" opacity="1"/><line transform="translate(0,277)" x2="600" y2="0" stroke="#ddd" stroke-width="1" opacity="1"/><line transform="translate(0,246)" x2="600" y2="0" stroke="#ddd" stroke-width="1" opacity="1"/><line transform="translate(0,215)" x2="600" y2="0" stroke="#ddd" stroke-width="1" opacity="1"/><line transform="translate(0,185)" x2="600" y2="0" stroke="#ddd" stroke-width="1" opacity="1"/><line transform="translate(0,154)" x2="600" y2="0" stroke="#ddd" stroke-width="1" opacity="1"/><line transform="translate(0,123)" x2="600" y2="0" stroke="#ddd" stroke-width="1" opacity="1"/><line transform="translate(0,92)" x2="600" y2="0" stroke="#ddd" stroke-width="1" opacity="1"/><line transform="translate(0,62)" x2="600" y2="0" stroke="#ddd" stroke-width="1" opacity="1"/><line transform="translate(0,31)" x2="600" y2="0" stroke="#ddd" stroke-width="1" opacity="1"/><line transform="translate(0,0)" x2="600" y2="0" stroke="#ddd" stroke-width="1" opacity="1"/></g></g><path class="foreground" aria-hidden="true" d="" pointer-events="none" display="none"/></g></g><g class="mark-group role-axis" role="graphics-symbol" aria-roledescription="axis" aria-label="X-axis titled '年齢' for a linear scale with values from 40 to 95"><g transform="translate(0.5,400.5)"><path class="background" aria-hidden="true" d="M0,0h0v0h0Z" pointer-events="none"/><g><g class="mark-rule role-axis-tick" pointer-events="none"><line transform="translate(0,0)" x2="0" y2="5" stroke="#888" stroke-width="1" opacity="1"/><line transform="translate(55,0)" x2="0" y2="5" stroke="#888" stroke-width="1" opacity="1"/><line transform="translate(109,0)" x2="0" y2="5" stroke="#888" stroke-width="1" opacity="1"/><line transform="translate(164,0)" x2="0" y2="5" stroke="#888" stroke-width="1" opacity="1"/><line transform="translate(218,0)" x2="0" y2="5" stroke="#888" stroke-width="1" opacity="1"/><line transform="translate(273,0)" x2="0" y2="5" stroke="#888" stroke-width="1" opacity="1"/><line transform="translate(327,0)" x2="0" y2="5" stroke="#888" stroke-width="1" opacity="1"/><line transform="translate(382,0)" x2="0" y2="5" stroke="#888" stroke-width="1" opacity="1"/><line transform="translate(436,0)" x2="0" y2="5" stroke="#888" stroke-width="1" opacity="1"/><line transform="translate(491,0)" x2="0" y2="5" stroke="#888" stroke-width="1" opacity="1"/><line transform="translate(545,0)" x2="0" y2="5" stroke="#888" stroke-width="1" opacity="1"/><line transform="translate(600,0)" x2="0" y2="5" stroke="#888" stroke-width="1" opacity="1"/></g><g class="mark-text role-axis-label" pointer-events="none"><text text-anchor="start" transform="translate(0,15)" font-family="sans-serif" font-size="10px" fill="#000" opacity="1">40</text><text text-anchor="middle" transform="translate(54.54545454545455,15)" font-family="sans-serif" font-size="10px" fill="#000" opacity="1">45</text><text text-anchor="middle" transform="translate(109.0909090909091,15)" font-family="sans-serif" font-size="10px" fill="#000" opacity="1">50</text><text text-anchor="middle" transform="translate(163.63636363636363,15)" font-family="sans-serif" font-size="10px" fill="#000" opacity="1">55</text><text text-anchor="middle" transform="translate(218.1818181818182,15)" font-family="sans-serif" font-size="10px" fill="#000" opacity="1">60</text><text text-anchor="middle" transform="translate(272.7272727272727,15)" font-family="sans-serif" font-size="10px" fill="#000" opacity="1">65</text><text text-anchor="middle" transform="translate(327.27272727272725,15)" font-family="sans-serif" font-size="10px" fill="#000" opacity="1">70</text><text text-anchor="middle" transform="translate(381.8181818181818,15)" font-family="sans-serif" font-size="10px" fill="#000" opacity="1">75</text><text text-anchor="middle" transform="translate(436.3636363636364,15)" font-family="sans-serif" font-size="10px" fill="#000" opacity="1">80</text><text text-anchor="middle" transform="translate(490.90909090909093,15)" font-family="sans-serif" font-size="10px" fill="#000" opacity="1">85</text><text text-anchor="middle" transform="translate(545.4545454545454,15)" font-family="sans-serif" font-size="10px" fill="#000" opacity="1">90</text><text text-anchor="end" transform="translate(600,15)" font-family="sans-serif" font-size="10px" fill="#000" opacity="1">95</text></g><g class="mark-rule role-axis-domain" pointer-events="none"><line transform="translate(0,0)" x2="600" y2="0" stroke="#888" stroke-width="1" opacity="1"/></g><g class="mark-text role-axis-title" pointer-events="none"><text text-anchor="middle" transform="translate(300,30)" font-family="sans-serif" font-size="11px" font-weight="bold" fill="#000" opacity="1">年齢</text></g></g><path class="foreground" aria-hidden="true" d="" pointer-events="none" display="none"/></g></g><g class="mark-group role-axis" role="graphics-symbol" aria-roledescription="axis" aria-label="Y-axis titled '年間取り崩し額 (万円)' for a linear scale with values from 0 to 650"><g transform="translate(0.5,0.5)"><path class="background" aria-hidden="true" d="M0,0h0v0h0Z" pointer-events="none"/><g><g class="mark-rule role-axis-tick" pointer-events="none"><line transform="translate(0,400)" x2="-5" y2="0" stroke="#888" stroke-width="1" opacity="1"/><line transform="translate(0,369)" x2="-5" y2="0" stroke="#888" stroke-width="1" opacity="1"/><line transform="translate(0,338)" x2="-5" y2="0" stroke="#888" stroke-width="1" opacity="1"/><line transform="translate(0,308)" x2="-5" y2="0" stroke="#888" stroke-width="1" opacity="1"/><line transform="translate(0,277)" x2="-5" y2="0" stroke="#888" stroke-width="1" opacity="1"/><line transform="translate(0,246)" x2="-5" y2="0" stroke="#888" stroke-width="1" opacity="1"/><line transform="translate(0,215)" x2="-5" y2="0" stroke="#888" stroke-width="1" opacity="1"/><line transform="translate(0,185)" x2="-5" y2="0" stroke="#888" stroke-width="1" opacity="1"/><line transform="translate(0,154)" x2="-5" y2="0" stroke="#888" stroke-width="1" opacity="1"/><line transform="translate(0,123)" x2="-5" y2="0" stroke="#888" stroke-width="1" opacity="1"/><line transform="translate(0,92)" x2="-5" y2="0" stroke="#888" stroke-width="1" opacity="1"/><line transform="translate(0,62)" x2="-5" y2="0" stroke="#888" stroke-width="1" opacity="1"/><line transform="translate(0,31)" x2="-5" y2="0" stroke="#888" stroke-width="1" opacity="1"/><line transform="translate(0,0)" x2="-5" y2="0" stroke="#888" stroke-width="1" opacity="1"/></g><g class="mark-text role-axis-label" pointer-events="none"><text text-anchor="end" transform="translate(-7,403)" font-family="sans-serif" font-size="10px" fill="#000" opacity="1">0</text><text text-anchor="end" transform="translate(-7,372.2307692307692)" font-family="sans-serif" font-size="10px" fill="#000" opacity="1">50</text><text text-anchor="end" transform="translate(-7,341.46153846153845)" font-family="sans-serif" font-size="10px" fill="#000" opacity="1">100</text><text text-anchor="end" transform="translate(-7,310.6923076923077)" font-family="sans-serif" font-size="10px" fill="#000" opacity="1">150</text><text text-anchor="end" transform="translate(-7,279.9230769230769)" font-family="sans-serif" font-size="10px" fill="#000" opacity="1">200</text><text text-anchor="end" transform="translate(-7,249.15384615384616)" font-family="sans-serif" font-size="10px" fill="#000" opacity="1">250</text><text text-anchor="end" transform="translate(-7,218.3846153846154)" font-family="sans-serif" font-size="10px" fill="#000" opacity="1">300</text><text text-anchor="end" transform="translate(-7,187.6153846153846)" font-family="sans-serif" font-size="10px" fill="#000" opacity="1">350</text><text text-anchor="end" transform="translate(-7,156.84615384615384)" font-family="sans-serif" font-size="10px" fill="#000" opacity="1">400</text><text text-anchor="end" transform="translate(-7,126.07692307692308)" font-family="sans-serif" font-size="10px" fill="#000" opacity="1">450</text><text text-anchor="end" transform="translate(-7,95.30769230769229)" font-family="sans-serif" font-size="10px" fill="#000" opacity="1">500</text><text text-anchor="end" transform="translate(-7,64.53846153846155)" font-family="sans-serif" font-size="10px" fill="#000" opacity="1">550</text><text text-anchor="end" transform="translate(-7,33.769230769230745)" font-family="sans-serif" font-size="10px" fill="#000" opacity="1">600</text><text text-anchor="end" transform="translate(-7,3)" font-family="sans-serif" font-size="10px" fill="#000" opacity="1">650</text></g><g class="mark-rule role-axis-domain" pointer-events="none"><line transform="translate(0,400)" x2="0" y2="-400" stroke="#888" stroke-width="1" opacity="1"/></g><g class="mark-text role-axis-title" pointer-events="none"><text text-anchor="middle" transform="translate(-27.6845703125,200) rotate(-90) translate(0,-2)" font-family="sans-serif" font-size="11px" font-weight="bold" fill="#000" opacity="1">年間取り崩し額 (万円)</text></g></g><path class="foreground" aria-hidden="true" d="" pointer-events="none" display="none"/></g></g><g class="mark-group role-scope layer_0_pathgroup" role="graphics-object" aria-roledescription="group mark container"><g transform="translate(0,0)"><path class="background" aria-hidden="true" d="M0,0h600v400h-600Z"/><g><g class="mark-area role-mark layer_0_marks" role="graphics-object" aria-roledescription="area mark container"><path aria-label="年齢: 41; 年間取り崩し額 (万円): 478.536350223; spend75p: 485.250710233; 戦略: 定額取り崩し（ベースライン）" role="graphics-symbol" aria-roledescription="area mark" d="M10.909,105.516L21.818,100.135L32.727,94.013L43.636,87.663L54.545,81.212L65.455,75.08L76.364,69.033L87.273,63.091L98.182,57.476L109.091,52.902L120,49.168L130.909,46.349L141.818,44.872L152.727,44.849L163.636,46.57L174.545,49.979L185.455,55.374L196.364,61.386L207.273,68.15L218.182,75.489L229.091,176.703L240,184.801L250.909,192.239L261.818,199.279L272.727,206.575L283.636,213.722L294.545,221.546L305.455,229.575L316.364,238.043L327.273,246.962L338.182,256.152L349.091,265.169L360,273.87L370.909,281.636L381.818,288.194L392.727,293.919L403.636,298.566L414.545,303.346L425.455,307.176L436.364,311.229L447.273,314.456L458.182,317.104L469.091,320.272L480,322.724L490.909,325.8L501.818,328.146L512.727,332.284L523.636,336.271L534.545,340.998L545.455,345.677L556.364,350.25L567.273,355.766L578.182,360.812L589.091,365.209L600,370.062L600,321.968L589.091,318.114L578.182,313.823L567.273,310.48L556.364,307.012L545.455,303.474L534.545,300.07L523.636,296.88L512.727,294.148L501.818,291.669L490.909,289.893L480,287.905L469.091,285.836L458.182,283.867L447.273,281.893L436.364,279.971L425.455,277.494L414.545,274.96L403.636,271.497L392.727,267.128L381.818,262.341L370.909,256.296L360,249.038L349.091,241.097L338.182,233.057L327.273,224.614L316.364,216.217L305.455,208.412L294.545,201.045L283.636,194.08L272.727,187.127L261.818,180.632L250.909,173.871L240,167.191L229.091,159.977L218.182,67.319L207.273,60.085L196.364,52.872L185.455,46.555L174.545,41.352L163.636,37.841L152.727,36.129L141.818,36.212L130.909,37.574L120,40.43L109.091,44.457L98.182,49.772L87.273,55.298L76.364,61.328L65.455,67.831L54.545,74.472L43.636,81.022L32.727,87.713L21.818,94.698L10.909,101.384Z" fill="green" opacity="0.3"/></g></g><path class="foreground" aria-hidden="true" d="" display="none"/></g><g transform="translate(0,0)"><path class="background" aria-hidden="true" d="M0,0h600v400h-600Z"/><g><g class="mark-area role-mark layer_0_marks" role="graphics-object" aria-roledescription="area mark container"><path aria-label="年齢: 41; 年間取り崩し額 (万円): 478.203906665; spend75p: 478.490347629; 戦略: 支出率を目標にする@ダイナミックスペンディング" role="graphics-symbol" aria-roledescription="area mark" d="M10.909,105.721L21.818,109.851L32.727,113.9L43.636,117.89L54.545,121.809L65.455,124.628L76.364,127.819L87.273,130.624L98.182,133.302L109.091,136.4L120,139.365L130.909,142.908L141.818,146.362L152.727,149.779L163.636,153.112L174.545,155.292L185.455,157.414L196.364,159.761L207.273,162.361L218.182,165.243L229.091,250.513L240,252.142L250.909,253.541L261.818,254.981L272.727,256.05L283.636,257.618L294.545,259.701L305.455,261.358L316.364,263.112L327.273,265.249L338.182,266.378L349.091,268.629L360,270.467L370.909,272.397L381.818,274.309L392.727,276.092L403.636,277.715L414.545,279.59L425.455,281.943L436.364,283.652L447.273,284.756L458.182,287.75L469.091,289.052L480,290.357L490.909,291.167L501.818,292.972L512.727,295.729L523.636,298.751L534.545,301.651L545.455,303.921L556.364,305.855L567.273,307.815L578.182,310.562L589.091,313.022L600,315.423L600,179.586L589.091,179.302L578.182,178.45L567.273,176.819L556.364,176.033L545.455,176.94L534.545,176.237L523.636,175.941L512.727,176.647L501.818,177.425L490.909,176.223L480,175.884L469.091,176.402L458.182,176.924L447.273,176.979L436.364,176.392L425.455,177.09L414.545,177.047L403.636,175.988L392.727,176.651L381.818,177.035L370.909,177.824L360,176.801L349.091,176.043L338.182,175.728L327.273,176.152L316.364,176.914L305.455,177.752L294.545,177.786L283.636,178.137L272.727,178.898L261.818,179.61L250.909,180.725L240,181.959L229.091,183.374L218.182,87.086L207.273,87.883L196.364,86.955L185.455,88.563L174.545,88.135L163.636,87.225L152.727,89.175L141.818,86.484L130.909,88.447L120,88.805L109.091,87.406L98.182,89.931L87.273,92.478L76.364,91.108L65.455,91.606L54.545,94.418L43.636,97.247L32.727,100.068L21.818,102.853L10.909,105.544Z" fill="red" opacity="0.3"/></g></g><path class="foreground" aria-hidden="true" d="" display="none"/></g><g transform="translate(0,0)"><path class="background" aria-hidden="true" d="M0,0h600v400h-600Z"/><g><g class="mark-area role-mark layer_0_marks" role="graphics-object" aria-roledescription="area mark container"><path aria-label="年齢: 41; 年間取り崩し額 (万円): 473.626015742; spend75p: 473.912456705; 戦略: 生存確率を目標にする@ダイナミックスペンディング" role="graphics-symbol" aria-roledescription="area mark" d="M10.909,108.538L21.818,110.842L32.727,113.381L43.636,117.013L54.545,119.911L65.455,123.846L76.364,127.252L87.273,129.383L98.182,132.38L109.091,134.114L120,137.054L130.909,139.467L141.818,141.748L152.727,145.959L163.636,149.506L174.545,152.769L185.455,159.787L196.364,166.885L207.273,173.127L218.182,178.655L229.091,268.361L240,275.191L250.909,280.844L261.818,285.599L272.727,291.298L283.636,295.158L294.545,299.52L305.455,304.759L316.364,308.966L327.273,315.089L338.182,321.639L349.091,328.814L360,335.54L370.909,339.142L381.818,342.7L392.727,346.079L403.636,349.349L414.545,351.868L425.455,353.997L436.364,354.808L447.273,357.405L458.182,358.787L469.091,359.306L480,360.266L490.909,361.538L501.818,363.693L512.727,365.361L523.636,367.966L534.545,371.054L545.455,373.47L556.364,374.968L567.273,377.557L578.182,381.301L589.091,383.574L600,386.691L600,219.606L589.091,215.383L578.182,211.227L567.273,208.766L556.364,207.179L545.455,205.953L534.545,201.935L523.636,197.789L512.727,194.4L501.818,195.097L490.909,196.611L480,197.999L469.091,196.799L458.182,198.779L447.273,201.298L436.364,202.059L425.455,205.502L414.545,205.742L403.636,201.974L392.727,200.141L381.818,195.016L370.909,188.333L360,180.893L349.091,179.16L338.182,170.78L327.273,165.072L316.364,156.946L305.455,150.772L294.545,145.686L283.636,141.916L272.727,131.578L261.818,127.655L250.909,122.625L240,116.323L229.091,115.024L218.182,14.128L207.273,12.164L196.364,9.549L185.455,8.187L174.545,9.343L163.636,9.766L152.727,13.48L141.818,19.509L130.909,28.455L120,35.702L109.091,43.922L98.182,51.781L87.273,59.169L76.364,66.378L65.455,74.777L54.545,81.286L43.636,89.18L32.727,96.238L21.818,102.848L10.909,108.362Z" fill="blue" opacity="0.3"/></g></g><path class="foreground" aria-hidden="true" d="" display="none"/></g></g><g class="mark-group role-scope layer_1_pathgroup" role="graphics-object" aria-roledescription="group mark container"><g transform="translate(0,0)"><path class="background" aria-hidden="true" d="M0,0h600v400h-600Z"/><g><g class="mark-line role-mark layer_1_marks" role="graphics-object" aria-roledescription="line mark container"><path aria-label="年齢: 41; spend50p: 481.845245909; group_label: 定額取り崩し（ベースライン）" role="graphics-symbol" aria-roledescription="line mark" d="M10.909,103.48L21.818,97.346L32.727,90.892L43.636,84.299L54.545,77.886L65.455,71.491L76.364,65.158L87.273,59.195L98.182,53.703L109.091,48.846L120,44.855L130.909,41.961L141.818,40.341L152.727,40.223L163.636,41.981L174.545,45.768L185.455,50.906L196.364,57.167L207.273,64.221L218.182,71.438L229.091,167.841L240,175.204L250.909,182.211L261.818,188.963L272.727,195.764L283.636,202.577L294.545,209.565L305.455,217.174L316.364,225.155L327.273,233.693L338.182,242.715L349.091,251.487L360,259.531L370.909,266.952L381.818,272.734L392.727,278.456L403.636,283.118L414.545,286.563L425.455,289.595L436.364,292.657L447.273,295.107L458.182,297.439L469.091,299.829L480,302.286L490.909,304.885L501.818,307.404L512.727,310.981L523.636,313.905L534.545,317.511L545.455,321.293L556.364,325.111L567.273,328.98L578.182,333.158L589.091,337.329L600,342.28" stroke="green" stroke-width="2"/></g></g><path class="foreground" aria-hidden="true" d="" display="none"/></g><g transform="translate(0,0)"><path class="background" aria-hidden="true" d="M0,0h600v400h-600Z"/><g><g class="mark-line role-mark layer_1_marks" role="graphics-object" aria-roledescription="line mark container"><path aria-label="年齢: 41; spend50p: 478.345067292; group_label: 支出率を目標にする@ダイナミックスペンディング" role="graphics-symbol" aria-roledescription="line mark" d="M10.909,105.634L21.818,105.631L32.727,107.007L43.636,104.564L54.545,108.182L65.455,106.006L76.364,109.83L87.273,112.526L98.182,112.475L109.091,115.577L120,119.376L130.909,121.946L141.818,123.587L152.727,125.579L163.636,128.504L174.545,130.055L185.455,131.464L196.364,134.147L207.273,136.16L218.182,137.862L229.091,226.159L240,226.793L250.909,226.778L261.818,227.044L272.727,228.269L283.636,228.456L294.545,228.471L305.455,228.265L316.364,228.86L327.273,229.574L338.182,229.468L349.091,231.168L360,231.273L370.909,231.408L381.818,231.641L392.727,231.535L403.636,231.587L414.545,232.076L425.455,233.566L436.364,234.523L447.273,235.943L458.182,237.036L469.091,238.061L480,238.256L490.909,239.035L501.818,241.209L512.727,242.492L523.636,243.54L534.545,244.446L545.455,245.958L556.364,247.165L567.273,248.69L578.182,250.766L589.091,251.963L600,253.994" stroke="red" stroke-width="2"/></g></g><path class="foreground" aria-hidden="true" d="" display="none"/></g><g transform="translate(0,0)"><path class="background" aria-hidden="true" d="M0,0h600v400h-600Z"/><g><g class="mark-line role-mark layer_1_marks" role="graphics-object" aria-roledescription="line mark container"><path aria-label="年齢: 41; spend50p: 473.767176369; group_label: 生存確率を目標にする@ダイナミックスペンディング" role="graphics-symbol" aria-roledescription="line mark" d="M10.909,108.451L21.818,106.863L32.727,104.857L43.636,102.742L54.545,101.615L65.455,99.735L76.364,97.188L87.273,95.222L98.182,93.128L109.091,90.664L120,88.477L130.909,86.238L141.818,85.734L152.727,86.089L163.636,89.618L174.545,92.737L185.455,95.176L196.364,99.664L207.273,105.323L218.182,110.194L229.091,203.525L240,208.608L250.909,213.196L261.818,217.674L272.727,223.551L283.636,229.395L294.545,234.147L305.455,239.583L316.364,245.541L327.273,251.781L338.182,259.671L349.091,265.656L360,271.619L370.909,276.768L381.818,281.734L392.727,284.132L403.636,287.817L414.545,289.971L425.455,293.053L436.364,293.366L447.273,294.034L458.182,295.865L469.091,297.082L480,295.715L490.909,297.278L501.818,298.722L512.727,300.064L523.636,302.775L534.545,305.316L545.455,306.052L556.364,309.779L567.273,312.332L578.182,315.463L589.091,318.629L600,321.562" stroke="blue" stroke-width="2"/></g></g><path class="foreground" aria-hidden="true" d="" display="none"/></g></g><g class="mark-group role-legend" role="graphics-symbol" aria-roledescription="legend" aria-label="Symbol legend titled '戦略' for fill color and stroke color with 3 values: 支出率を目標にする@ダイナミックスペンディング, 生存確率を目標にする@ダイナミックスペンディング, 定額取り崩し（ベースライン）"><g transform="translate(0,-57)"><path class="background" aria-hidden="true" d="M0,0h470v39h-470Z" pointer-events="none"/><g><g class="mark-group role-legend-entry"><g transform="translate(0,16)"><path class="background" aria-hidden="true" d="M0,0h0v0h0Z" pointer-events="none"/><g><g class="mark-group role-scope" role="graphics-object" aria-roledescription="group mark container"><g transform="translate(0,0)"><path class="background" aria-hidden="true" d="M0,0h146v23h-146Z" pointer-events="none" opacity="1"/><g><g class="mark-symbol role-legend-symbol" pointer-events="none"><path transform="translate(6,6)" d="M5,0A5,5,0,1,1,-5,0A5,5,0,1,1,5,0" fill="red" stroke="red" stroke-width="1.5" opacity="0.3"/></g><g class="mark-text role-legend-label" pointer-events="none"><text text-anchor="start" transform="translate(16,9)" font-family="sans-serif" font-size="10px" fill="#000" opacity="1"><tspan>支出率を目標にする</tspan><tspan x="0" dy="12">ダイナミックスペンディング</tspan></text></g></g><path class="foreground" aria-hidden="true" d="" pointer-events="none" display="none"/></g><g transform="translate(157,0)"><path class="background" aria-hidden="true" d="M0,0h146v23h-146Z" pointer-events="none" opacity="1"/><g><g class="mark-symbol role-legend-symbol" pointer-events="none"><path transform="translate(6,6)" d="M5,0A5,5,0,1,1,-5,0A5,5,0,1,1,5,0" fill="blue" stroke="blue" stroke-width="1.5" opacity="0.3"/></g><g class="mark-text role-legend-label" pointer-events="none"><text text-anchor="start" transform="translate(16,9)" font-family="sans-serif" font-size="10px" fill="#000" opacity="1"><tspan>生存確率を目標にする</tspan><tspan x="0" dy="12">ダイナミックスペンディング</tspan></text></g></g><path class="foreground" aria-hidden="true" d="" pointer-events="none" display="none"/></g><g transform="translate(314,5.25)"><path class="background" aria-hidden="true" d="M0,0h156v12.5h-156Z" pointer-events="none" opacity="1"/><g><g class="mark-symbol role-legend-symbol" pointer-events="none"><path transform="translate(6,6)" d="M5,0A5,5,0,1,1,-5,0A5,5,0,1,1,5,0" fill="green" stroke="green" stroke-width="1.5" opacity="0.3"/></g><g class="mark-text role-legend-label" pointer-events="none"><text text-anchor="start" transform="translate(16,9)" font-family="sans-serif" font-size="10px" fill="#000" opacity="1">定額取り崩し（ベースライン）</text></g></g><path class="foreground" aria-hidden="true" d="" pointer-events="none" display="none"/></g></g></g><path class="foreground" aria-hidden="true" d="" pointer-events="none" display="none"/></g></g><g class="mark-text role-legend-title" pointer-events="none"><text text-anchor="start" transform="translate(0,9)" font-family="sans-serif" font-size="11px" font-weight="bold" fill="#000" opacity="1">戦略</text></g></g><path class="foreground" aria-hidden="true" d="" pointer-events="none" display="none"/></g></g><g class="mark-group role-title"><g transform="translate(300,-74)"><path class="background" aria-hidden="true" d="M0,0h0v0h0Z" pointer-events="none"/><g><g class="mark-text role-title-text" role="graphics-symbol" aria-roledescription="title" aria-label="Title text '実質支出額の推移比較 (初期支出率: 3.5%, 共通生存パスのみ)'" pointer-events="none"><text text-anchor="middle" transform="translate(0,10)" font-family="sans-serif" font-size="13px" font-weight="bold" fill="#000" opacity="1">実質支出額の推移比較 (初期支出率: 3.5%, 共通生存パスのみ)</text></g></g><path class="foreground" aria-hidden="true" d="" pointer-events="none" display="none"/></g></g></g><path class="foreground" aria-hidden="true" d="" display="none"/></g></g></g></svg>