<svg xmlns="http://www.w3.org/2000/svg" xmlns:xlink="http://www.w3.org/1999/xlink" version="1.1" class="marks" width="651" height="516" viewBox="0 0 651 516"><rect width="651" height="516" fill="white"/><g fill="none" stroke-miterlimit="10" transform="translate(44,79)"><g class="mark-group role-frame root" role="graphics-object" aria-roledescription="group mark container"><g transform="translate(0,0)"><path class="background" aria-hidden="true" d="M0.5,0.5h600v400h-600Z" stroke="#ddd"/><g><g class="mark-group role-axis" aria-hidden="true"><g transform="translate(0.5,400.5)"><path class="background" aria-hidden="true" d="M0,0h0v0h0Z" pointer-events="none"/><g><g class="mark-rule role-axis-grid" pointer-events="none"><line transform="translate(0,-400)" x2="0" y2="400" stroke="#ddd" stroke-width="1" opacity="1"/><line transform="translate(55,-400)" x2="0" y2="400" stroke="#ddd" stroke-width="1" opacity="1"/><line transform="translate(109,-400)" x2="0" y2="400" stroke="#ddd" stroke-width="1" opacity="1"/><line transform="translate(164,-400)" x2="0" y2="400" stroke="#ddd" stroke-width="1" opacity="1"/><line transform="translate(218,-400)" x2="0" y2="400" stroke="#ddd" stroke-width="1" opacity="1"/><line transform="translate(273,-400)" x2="0" y2="400" stroke="#ddd" stroke-width="1" opacity="1"/><line transform="translate(327,-400)" x2="0" y2="400" stroke="#ddd" stroke-width="1" opacity="1"/><line transform="translate(382,-400)" x2="0" y2="400" stroke="#ddd" stroke-width="1" opacity="1"/><line transform="translate(436,-400)" x2="0" y2="400" stroke="#ddd" stroke-width="1" opacity="1"/><line transform="translate(491,-400)" x2="0" y2="400" stroke="#ddd" stroke-width="1" opacity="1"/><line transform="translate(545,-400)" x2="0" y2="400" stroke="#ddd" stroke-width="1" opacity="1"/><line transform="translate(600,-400)" x2="0" y2="400" stroke="#ddd" stroke-width="1" opacity="1"/></g></g><path class="foreground" aria-hidden="true" d="" pointer-events="none" display="none"/></g></g><g class="mark-group role-axis" aria-hidden="true"><g transform="translate(0.5,0.5)"><path class="background" aria-hidden="true" d="M0,0h0v0h0Z" pointer-events="none"/><g><g class="mark-rule role-axis-grid" pointer-events="none"><line transform="translate(0,400)" x2="600" y2="0" stroke="#ddd" stroke-width="1" opacity="1"/><line transform="translate(0,371)" x2="600" y2="0" stroke="#ddd" stroke-width="1" opacity="1"/><line transform="translate(0,343)" x2="600" y2="0" stroke="#ddd" stroke-width="1" opacity="1"/><line transform="translate(0,314)" x2="600" y2="0" stroke="#ddd" stroke-width="1" opacity="1"/><line transform="translate(0,286)" x2="600" y2="0" stroke="#ddd" stroke-width="1" opacity="1"/><line transform="translate(0,257)" x2="600" y2="0" stroke="#ddd" stroke-width="1" opacity="1"/><line transform="translate(0,229)" x2="600" y2="0" stroke="#ddd" stroke-width="1" opacity="1"/><line transform="translate(0,200)" x2="600" y2="0" stroke="#ddd" stroke-width="1" opacity="1"/><line transform="translate(0,171)" x2="600" y2="0" stroke="#ddd" stroke-width="1" opacity="1"/><line transform="translate(0,143)" x2="600" y2="0" stroke="#ddd" stroke-width="1" opacity="1"/><line transform="translate(0,114)" x2="600" y2="0" stroke="#ddd" stroke-width="1" opacity="1"/><line transform="translate(0,86)" x2="600" y2="0" stroke="#ddd" stroke-width="1" opacity="1"/><line transform="translate(0,57)" x2="600" y2="0" stroke="#ddd" stroke-width="1" opacity="1"/><line transform="translate(0,29)" x2="600" y2="0" stroke="#ddd" stroke-width="1" opacity="1"/><line transform="translate(0,0)" x2="600" y2="0" stroke="#ddd" stroke-width="1" opacity="1"/></g></g><path class="foreground" aria-hidden="true" d="" pointer-events="none" display="none"/></g></g><g class="mark-group role-axis" role="graphics-symbol" aria-roledescription="axis" aria-label="X-axis titled '年齢' for a linear scale with values from 40 to 95"><g transform="translate(0.5,400.5)"><path class="background" aria-hidden="true" d="M0,0h0v0h0Z" pointer-events="none"/><g><g class="mark-rule role-axis-tick" pointer-events="none"><line transform="translate(0,0)" x2="0" y2="5" stroke="#888" stroke-width="1" opacity="1"/><line transform="translate(55,0)" x2="0" y2="5" stroke="#888" stroke-width="1" opacity="1"/><line transform="translate(109,0)" x2="0" y2="5" stroke="#888" stroke-width="1" opacity="1"/><line transform="translate(164,0)" x2="0" y2="5" stroke="#888" stroke-width="1" opacity="1"/><line transform="translate(218,0)" x2="0" y2="5" stroke="#888" stroke-width="1" opacity="1"/><line transform="translate(273,0)" x2="0" y2="5" stroke="#888" stroke-width="1" opacity="1"/><line transform="translate(327,0)" x2="0" y2="5" stroke="#888" stroke-width="1" opacity="1"/><line transform="translate(382,0)" x2="0" y2="5" stroke="#888" stroke-width="1" opacity="1"/><line transform="translate(436,0)" x2="0" y2="5" stroke="#888" stroke-width="1" opacity="1"/><line transform="translate(491,0)" x2="0" y2="5" stroke="#888" stroke-width="1" opacity="1"/><line transform="translate(545,0)" x2="0" y2="5" stroke="#888" stroke-width="1" opacity="1"/><line transform="translate(600,0)" x2="0" y2="5" stroke="#888" stroke-width="1" opacity="1"/></g><g class="mark-text role-axis-label" pointer-events="none"><text text-anchor="start" transform="translate(0,15)" font-family="sans-serif" font-size="10px" fill="#000" opacity="1">40</text><text text-anchor="middle" transform="translate(54.54545454545455,15)" font-family="sans-serif" font-size="10px" fill="#000" opacity="1">45</text><text text-anchor="middle" transform="translate(109.0909090909091,15)" font-family="sans-serif" font-size="10px" fill="#000" opacity="1">50</text><text text-anchor="middle" transform="translate(163.63636363636363,15)" font-family="sans-serif" font-size="10px" fill="#000" opacity="1">55</text><text text-anchor="middle" transform="translate(218.1818181818182,15)" font-family="sans-serif" font-size="10px" fill="#000" opacity="1">60</text><text text-anchor="middle" transform="translate(272.7272727272727,15)" font-family="sans-serif" font-size="10px" fill="#000" opacity="1">65</text><text text-anchor="middle" transform="translate(327.27272727272725,15)" font-family="sans-serif" font-size="10px" fill="#000" opacity="1">70</text><text text-anchor="middle" transform="translate(381.8181818181818,15)" font-family="sans-serif" font-size="10px" fill="#000" opacity="1">75</text><text text-anchor="middle" transform="translate(436.3636363636364,15)" font-family="sans-serif" font-size="10px" fill="#000" opacity="1">80</text><text text-anchor="middle" transform="translate(490.90909090909093,15)" font-family="sans-serif" font-size="10px" fill="#000" opacity="1">85</text><text text-anchor="middle" transform="translate(545.4545454545454,15)" font-family="sans-serif" font-size="10px" fill="#000" opacity="1">90</text><text text-anchor="end" transform="translate(600,15)" font-family="sans-serif" font-size="10px" fill="#000" opacity="1">95</text></g><g class="mark-rule role-axis-domain" pointer-events="none"><line transform="translate(0,0)" x2="600" y2="0" stroke="#888" stroke-width="1" opacity="1"/></g><g class="mark-text role-axis-title" pointer-events="none"><text text-anchor="middle" transform="translate(300,30)" font-family="sans-serif" font-size="11px" font-weight="bold" fill="#000" opacity="1">年齢</text></g></g><path class="foreground" aria-hidden="true" d="" pointer-events="none" display="none"/></g></g><g class="mark-group role-axis" role="graphics-symbol" aria-roledescription="axis" aria-label="Y-axis titled '年間取り崩し額 (万円)' for a linear scale with values from 0 to 700"><g transform="translate(0.5,0.5)"><path class="background" aria-hidden="true" d="M0,0h0v0h0Z" pointer-events="none"/><g><g class="mark-rule role-axis-tick" pointer-events="none"><line transform="translate(0,400)" x2="-5" y2="0" stroke="#888" stroke-width="1" opacity="1"/><line transform="translate(0,371)" x2="-5" y2="0" stroke="#888" stroke-width="1" opacity="1"/><line transform="translate(0,343)" x2="-5" y2="0" stroke="#888" stroke-width="1" opacity="1"/><line transform="translate(0,314)" x2="-5" y2="0" stroke="#888" stroke-width="1" opacity="1"/><line transform="translate(0,286)" x2="-5" y2="0" stroke="#888" stroke-width="1" opacity="1"/><line transform="translate(0,257)" x2="-5" y2="0" stroke="#888" stroke-width="1" opacity="1"/><line transform="translate(0,229)" x2="-5" y2="0" stroke="#888" stroke-width="1" opacity="1"/><line transform="translate(0,200)" x2="-5" y2="0" stroke="#888" stroke-width="1" opacity="1"/><line transform="translate(0,171)" x2="-5" y2="0" stroke="#888" stroke-width="1" opacity="1"/><line transform="translate(0,143)" x2="-5" y2="0" stroke="#888" stroke-width="1" opacity="1"/><line transform="translate(0,114)" x2="-5" y2="0" stroke="#888" stroke-width="1" opacity="1"/><line transform="translate(0,86)" x2="-5" y2="0" stroke="#888" stroke-width="1" opacity="1"/><line transform="translate(0,57)" x2="-5" y2="0" stroke="#888" stroke-width="1" opacity="1"/><line transform="translate(0,29)" x2="-5" y2="0" stroke="#888" stroke-width="1" opacity="1"/><line transform="translate(0,0)" x2="-5" y2="0" stroke="#888" stroke-width="1" opacity="1"/></g><g class="mark-text role-axis-label" pointer-events="none"><text text-anchor="end" transform="translate(-7,403)" font-family="sans-serif" font-size="10px" fill="#000" opacity="1">0</text><text text-anchor="end" transform="translate(-7,374.42857142857144)" font-family="sans-serif" font-size="10px" fill="#000" opacity="1">50</text><text text-anchor="end" transform="translate(-7,345.8571428571429)" font-family="sans-serif" font-size="10px" fill="#000" opacity="1">100</text><text text-anchor="end" transform="translate(-7,317.2857142857143)" font-family="sans-serif" font-size="10px" fill="#000" opacity="1">150</text><text text-anchor="end" transform="translate(-7,288.7142857142857)" font-family="sans-serif" font-size="10px" fill="#000" opacity="1">200</text><text text-anchor="end" transform="translate(-7,260.1428571428571)" font-family="sans-serif" font-size="10px" fill="#000" opacity="1">250</text><text text-anchor="end" transform="translate(-7,231.57142857142856)" font-family="sans-serif" font-size="10px" fill="#000" opacity="1">300</text><text text-anchor="end" transform="translate(-7,203)" font-family="sans-serif" font-size="10px" fill="#000" opacity="1">350</text><text text-anchor="end" transform="translate(-7,174.42857142857144)" font-family="sans-serif" font-size="10px" fill="#000" opacity="1">400</text><text text-anchor="end" transform="translate(-7,145.85714285714283)" font-family="sans-serif" font-size="10px" fill="#000" opacity="1">450</text><text text-anchor="end" transform="translate(-7,117.28571428571428)" font-family="sans-serif" font-size="10px" fill="#000" opacity="1">500</text><text text-anchor="end" transform="translate(-7,88.71428571428572)" font-family="sans-serif" font-size="10px" fill="#000" opacity="1">550</text><text text-anchor="end" transform="translate(-7,60.14285714285716)" font-family="sans-serif" font-size="10px" fill="#000" opacity="1">600</text><text text-anchor="end" transform="translate(-7,31.57142857142856)" font-family="sans-serif" font-size="10px" fill="#000" opacity="1">650</text><text text-anchor="end" transform="translate(-7,3)" font-family="sans-serif" font-size="10px" fill="#000" opacity="1">700</text></g><g class="mark-rule role-axis-domain" pointer-events="none"><line transform="translate(0,400)" x2="0" y2="-400" stroke="#888" stroke-width="1" opacity="1"/></g><g class="mark-text role-axis-title" pointer-events="none"><text text-anchor="middle" transform="translate(-27.6845703125,200) rotate(-90) translate(0,-2)" font-family="sans-serif" font-size="11px" font-weight="bold" fill="#000" opacity="1">年間取り崩し額 (万円)</text></g></g><path class="foreground" aria-hidden="true" d="" pointer-events="none" display="none"/></g></g><g class="mark-group role-scope layer_0_pathgroup" role="graphics-object" aria-roledescription="group mark container"><g transform="translate(0,0)"><path class="background" aria-hidden="true" d="M0,0h600v400h-600Z"/><g><g class="mark-area role-mark layer_0_marks" role="graphics-object" aria-roledescription="area mark container"><path aria-label="年齢: 41; 年間取り崩し額 (万円): 478.536350223; spend75p: 485.250710233; 戦略: 定額取り崩し（ベースライン）" role="graphics-symbol" aria-roledescription="area mark" d="M10.909,126.551L21.818,121.554L32.727,115.869L43.636,109.973L54.545,103.983L65.455,98.289L76.364,92.674L87.273,87.156L98.182,81.942L109.091,77.694L120,74.227L130.909,71.607L141.818,70.228L152.727,70.199L163.636,71.813L174.545,74.954L185.455,79.985L196.364,85.611L207.273,91.829L218.182,98.673L229.091,192.564L240,200.052L250.909,206.974L261.818,213.474L272.727,220.261L283.636,226.566L294.545,234.096L305.455,241.372L316.364,249.338L327.273,257.665L338.182,265.969L349.091,274.338L360,282.063L370.909,289.157L381.818,295.314L392.727,300.635L403.636,305.252L414.545,309.705L425.455,313.3L436.364,316.521L447.273,319.12L458.182,321.861L469.091,324.254L480,327.095L490.909,329.805L501.818,332.489L512.727,335.788L523.636,339.823L534.545,343.882L545.455,347.722L556.364,352.022L567.273,356.37L578.182,361.114L589.091,365.542L600,369.958L600,325.472L589.091,321.778L578.182,318.394L567.273,315.136L556.364,311.943L545.455,308.833L534.545,305.736L523.636,302.967L512.727,300.316L501.818,298.391L490.909,296.377L480,294.967L469.091,293.129L458.182,291.418L447.273,289.467L436.364,287.593L425.455,285.488L414.545,283.079L403.636,279.792L392.727,276.086L381.818,271.515L370.909,265.874L360,259.219L349.091,252.088L338.182,244.557L327.273,236.809L316.364,229.099L305.455,221.852L294.545,215.052L283.636,208.689L272.727,202.233L261.818,196.272L250.909,189.987L240,183.764L229.091,177.097L218.182,91.095L207.273,84.375L196.364,77.666L185.455,71.777L174.545,66.934L163.636,63.691L152.727,62.114L141.818,62.175L130.909,63.44L120,66.091L109.091,69.848L98.182,74.788L87.273,79.92L76.364,85.519L65.455,91.557L54.545,97.724L43.636,103.806L32.727,110.019L21.818,116.505L10.909,122.714Z" fill="green" opacity="0.3"/></g></g><path class="foreground" aria-hidden="true" d="" display="none"/></g><g transform="translate(0,0)"><path class="background" aria-hidden="true" d="M0,0h600v400h-600Z"/><g><g class="mark-area role-mark layer_0_marks" role="graphics-object" aria-roledescription="area mark container"><path aria-label="年齢: 41; 年間取り崩し額 (万円): 478.203906665; spend75p: 478.490347629; 戦略: 支出率を目標にする@ダイナミックスペンディング" role="graphics-symbol" aria-roledescription="area mark" d="M10.909,126.741L21.818,130.568L32.727,134.386L43.636,138.132L54.545,141.836L65.455,145.491L76.364,149.083L87.273,152.628L98.182,156.074L109.091,159.428L120,161.679L130.909,164.12L141.818,165.178L152.727,167.976L163.636,171.113L174.545,174.314L185.455,176.948L196.364,178.714L207.273,179.935L218.182,182.059L229.091,261.767L240,262.382L250.909,263.03L261.818,263.806L272.727,264.712L283.636,265.625L294.545,266.471L305.455,267.57L316.364,268.62L327.273,269.309L338.182,269.486L349.091,270.749L360,272.234L370.909,274.243L381.818,275.909L392.727,277.373L403.636,278.631L414.545,280.439L425.455,281.944L436.364,283.694L447.273,285.141L458.182,286.482L469.091,287.573L480,289.629L490.909,290.918L501.818,291.625L512.727,291.778L523.636,292.635L534.545,294.93L545.455,296.372L556.364,297.328L567.273,298.754L578.182,300.625L589.091,302.287L600,304.984L600,171.63L589.091,171.842L578.182,172.626L567.273,173.277L556.364,173.664L545.455,172.918L534.545,173.181L523.636,174.648L512.727,174.59L501.818,176.175L490.909,176.4L480,176.538L469.091,177.002L458.182,178.252L447.273,178.681L436.364,178.74L425.455,179.237L414.545,179.327L403.636,180.587L392.727,181.614L381.818,181.606L370.909,181.979L360,181.643L349.091,182.025L338.182,182.652L327.273,183.738L316.364,184.787L305.455,185.46L294.545,185.97L283.636,186.654L272.727,187.507L261.818,188.312L250.909,190.244L240,190.84L229.091,192.227L218.182,103.324L207.273,105.166L196.364,105.382L185.455,105.79L174.545,106.469L163.636,107.83L152.727,106.096L141.818,107.772L130.909,108.651L120,107.867L109.091,109.299L98.182,111.55L87.273,109.305L76.364,110.936L65.455,113.574L54.545,116.229L43.636,118.844L32.727,121.475L21.818,124.074L10.909,126.577Z" fill="red" opacity="0.3"/></g></g><path class="foreground" aria-hidden="true" d="" display="none"/></g><g transform="translate(0,0)"><path class="background" aria-hidden="true" d="M0,0h600v400h-600Z"/><g><g class="mark-area role-mark layer_0_marks" role="graphics-object" aria-roledescription="area mark container"><path aria-label="年齢: 41; 年間取り崩し額 (万円): 478.203906665; spend75p: 478.490347629; 戦略: 生存確率を目標にする@ダイナミックスペンディング" role="graphics-symbol" aria-roledescription="area mark" d="M10.909,126.741L21.818,127.133L32.727,128.154L43.636,129.804L54.545,131.142L65.455,131.837L76.364,132.14L87.273,132.672L98.182,133.681L109.091,134.286L120,134.339L130.909,137.081L141.818,137.352L152.727,140.415L163.636,144.601L174.545,150.597L185.455,154.584L196.364,161.798L207.273,168.306L218.182,174.349L229.091,257.847L240,264.282L250.909,271.749L261.818,277.493L272.727,282.574L283.636,287.831L294.545,293.494L305.455,298.488L316.364,303.587L327.273,310.578L338.182,317.257L349.091,322.078L360,328.686L370.909,334.695L381.818,338.639L392.727,341.969L403.636,343.523L414.545,345.848L425.455,349.098L436.364,351.207L447.273,352.996L458.182,354.653L469.091,355.47L480,356.928L490.909,358.091L501.818,359.953L512.727,361.311L523.636,363.289L534.545,365.081L545.455,367.884L556.364,370.632L567.273,373.53L578.182,376.424L589.091,379.716L600,382.362L600,209.031L589.091,205.637L578.182,204.299L567.273,202.791L556.364,199.551L545.455,196.488L534.545,194.159L523.636,192.559L512.727,191.096L501.818,187.516L490.909,188.82L480,192.86L469.091,192.479L458.182,191.661L447.273,191.152L436.364,194.138L425.455,195.517L414.545,195.844L403.636,195.981L392.727,192.881L381.818,189.282L370.909,181.483L360,172.057L349.091,166.048L338.182,160.353L327.273,148.913L316.364,143.212L305.455,135.797L294.545,132.574L283.636,125.811L272.727,119.126L261.818,113.648L250.909,110.335L240,103.158L229.091,98.928L218.182,6.524L207.273,4.385L196.364,3.304L185.455,3.164L174.545,2.179L163.636,4.421L152.727,9.947L141.818,15.489L130.909,24.371L120,32.086L109.091,41.832L98.182,52.516L87.273,61.997L76.364,72.545L65.455,82.261L54.545,91.706L43.636,101.022L32.727,110.51L21.818,119.315L10.909,126.577Z" fill="blue" opacity="0.3"/></g></g><path class="foreground" aria-hidden="true" d="" display="none"/></g></g><g class="mark-group role-scope layer_1_pathgroup" role="graphics-object" aria-roledescription="group mark container"><g transform="translate(0,0)"><path class="background" aria-hidden="true" d="M0,0h600v400h-600Z"/><g><g class="mark-line role-mark layer_1_marks" role="graphics-object" aria-roledescription="line mark container"><path aria-label="年齢: 41; spend50p: 481.845245909; group_label: 定額取り崩し（ベースライン）" role="graphics-symbol" aria-roledescription="line mark" d="M10.909,124.66L21.818,118.965L32.727,112.971L43.636,106.849L54.545,100.894L65.455,94.956L76.364,89.076L87.273,83.538L98.182,78.439L109.091,73.921L120,70.222L130.909,67.53L141.818,66.017L152.727,65.907L163.636,67.539L174.545,71.035L185.455,75.803L196.364,81.658L207.273,88.204L218.182,94.941L229.091,184.336L240,191.185L250.909,197.625L261.818,203.909L272.727,210.017L283.636,216.447L294.545,222.978L305.455,229.886L316.364,237.302L327.273,245.25L338.182,253.597L349.091,261.562L360,269.083L370.909,275.796L381.818,281.216L392.727,286.285L403.636,290.405L414.545,293.735L425.455,296.549L436.364,299.055L447.273,301.682L458.182,303.607L469.091,305.7L480,307.844L490.909,309.895L501.818,312.714L512.727,315.369L523.636,318.781L534.545,321.67L545.455,325.033L556.364,328.77L567.273,332.466L578.182,336.531L589.091,340.291L600,344.369" stroke="green" stroke-width="2"/></g></g><path class="foreground" aria-hidden="true" d="" display="none"/></g><g transform="translate(0,0)"><path class="background" aria-hidden="true" d="M0,0h600v400h-600Z"/><g><g class="mark-line role-mark layer_1_marks" role="graphics-object" aria-roledescription="line mark container"><path aria-label="年齢: 41; spend50p: 478.345067292; group_label: 支出率を目標にする@ダイナミックスペンディング" role="graphics-symbol" aria-roledescription="line mark" d="M10.909,126.66L21.818,125.642L32.727,127.89L43.636,127.869L54.545,129.306L65.455,130.807L76.364,130.982L87.273,134.371L98.182,135.534L109.091,136.878L120,138.872L130.909,139.716L141.818,140.917L152.727,141.69L163.636,142.385L174.545,144.368L185.455,143.492L196.364,145.898L207.273,146.015L218.182,148.178L229.091,230.552L240,230.665L250.909,230.197L261.818,230.098L272.727,230.46L283.636,230.898L294.545,230.893L305.455,230.827L316.364,230.561L327.273,230.96L338.182,230.79L349.091,230.848L360,231.512L370.909,232.482L381.818,232.281L392.727,232.801L403.636,233.043L414.545,234.073L425.455,234.222L436.364,234.283L447.273,235.373L458.182,235.624L469.091,236.081L480,236.283L490.909,236.547L501.818,236.635L512.727,237.029L523.636,237.284L534.545,238.887L545.455,239.021L556.364,238.77L567.273,240.287L578.182,241.051L589.091,242.073L600,242.879" stroke="red" stroke-width="2"/></g></g><path class="foreground" aria-hidden="true" d="" display="none"/></g><g transform="translate(0,0)"><path class="background" aria-hidden="true" d="M0,0h600v400h-600Z"/><g><g class="mark-line role-mark layer_1_marks" role="graphics-object" aria-roledescription="line mark container"><path aria-label="年齢: 41; spend50p: 478.345067292; group_label: 生存確率を目標にする@ダイナミックスペンディング" role="graphics-symbol" aria-roledescription="line mark" d="M10.909,126.66L21.818,123.264L32.727,119.212L43.636,115.233L54.545,111.525L65.455,107.845L76.364,103.722L87.273,99.607L98.182,94.995L109.091,90.003L120,84.998L130.909,82.397L141.818,82.066L152.727,80.163L163.636,82.317L174.545,85.419L185.455,89.73L196.364,94.843L207.273,100.248L218.182,104.971L229.091,192.37L240,197.237L250.909,203.937L261.818,208.723L272.727,213.677L283.636,219.166L294.545,222.952L305.455,229.35L316.364,235.249L327.273,242.496L338.182,250.601L349.091,258.328L360,263.741L370.909,268.279L381.818,272.89L392.727,277.435L403.636,281.211L414.545,284.56L425.455,285.133L436.364,286.953L447.273,289.084L458.182,290.308L469.091,291.149L480,292.413L490.909,292.553L501.818,294.217L512.727,295.471L523.636,298.05L534.545,299.74L545.455,301.951L556.364,303.522L567.273,305.816L578.182,309.453L589.091,313.694L600,317.987" stroke="blue" stroke-width="2"/></g></g><path class="foreground" aria-hidden="true" d="" display="none"/></g></g><g class="mark-group role-legend" role="graphics-symbol" aria-roledescription="legend" aria-label="Symbol legend titled '戦略' for fill color and stroke color with 3 values: 支出率を目標にする@ダイナミックスペンディング, 生存確率を目標にする@ダイナミックスペンディング, 定額取り崩し（ベースライン）"><g transform="translate(0,-57)"><path class="background" aria-hidden="true" d="M0,0h470v39h-470Z" pointer-events="none"/><g><g class="mark-group role-legend-entry"><g transform="translate(0,16)"><path class="background" aria-hidden="true" d="M0,0h0v0h0Z" pointer-events="none"/><g><g class="mark-group role-scope" role="graphics-object" aria-roledescription="group mark container"><g transform="translate(0,0)"><path class="background" aria-hidden="true" d="M0,0h146v23h-146Z" pointer-events="none" opacity="1"/><g><g class="mark-symbol role-legend-symbol" pointer-events="none"><path transform="translate(6,6)" d="M5,0A5,5,0,1,1,-5,0A5,5,0,1,1,5,0" fill="red" stroke="red" stroke-width="1.5" opacity="0.3"/></g><g class="mark-text role-legend-label" pointer-events="none"><text text-anchor="start" transform="translate(16,9)" font-family="sans-serif" font-size="10px" fill="#000" opacity="1"><tspan>支出率を目標にする</tspan><tspan x="0" dy="12">ダイナミックスペンディング</tspan></text></g></g><path class="foreground" aria-hidden="true" d="" pointer-events="none" display="none"/></g><g transform="translate(157,0)"><path class="background" aria-hidden="true" d="M0,0h146v23h-146Z" pointer-events="none" opacity="1"/><g><g class="mark-symbol role-legend-symbol" pointer-events="none"><path transform="translate(6,6)" d="M5,0A5,5,0,1,1,-5,0A5,5,0,1,1,5,0" fill="blue" stroke="blue" stroke-width="1.5" opacity="0.3"/></g><g class="mark-text role-legend-label" pointer-events="none"><text text-anchor="start" transform="translate(16,9)" font-family="sans-serif" font-size="10px" fill="#000" opacity="1"><tspan>生存確率を目標にする</tspan><tspan x="0" dy="12">ダイナミックスペンディング</tspan></text></g></g><path class="foreground" aria-hidden="true" d="" pointer-events="none" display="none"/></g><g transform="translate(314,5.25)"><path class="background" aria-hidden="true" d="M0,0h156v12.5h-156Z" pointer-events="none" opacity="1"/><g><g class="mark-symbol role-legend-symbol" pointer-events="none"><path transform="translate(6,6)" d="M5,0A5,5,0,1,1,-5,0A5,5,0,1,1,5,0" fill="green" stroke="green" stroke-width="1.5" opacity="0.3"/></g><g class="mark-text role-legend-label" pointer-events="none"><text text-anchor="start" transform="translate(16,9)" font-family="sans-serif" font-size="10px" fill="#000" opacity="1">定額取り崩し（ベースライン）</text></g></g><path class="foreground" aria-hidden="true" d="" pointer-events="none" display="none"/></g></g></g><path class="foreground" aria-hidden="true" d="" pointer-events="none" display="none"/></g></g><g class="mark-text role-legend-title" pointer-events="none"><text text-anchor="start" transform="translate(0,9)" font-family="sans-serif" font-size="11px" font-weight="bold" fill="#000" opacity="1">戦略</text></g></g><path class="foreground" aria-hidden="true" d="" pointer-events="none" display="none"/></g></g><g class="mark-group role-title"><g transform="translate(300,-74)"><path class="background" aria-hidden="true" d="M0,0h0v0h0Z" pointer-events="none"/><g><g class="mark-text role-title-text" role="graphics-symbol" aria-roledescription="title" aria-label="Title text '実質支出額の推移比較 (初期支出率: 3.0%, 共通生存パスのみ)'" pointer-events="none"><text text-anchor="middle" transform="translate(0,10)" font-family="sans-serif" font-size="13px" font-weight="bold" fill="#000" opacity="1">実質支出額の推移比較 (初期支出率: 3.0%, 共通生存パスのみ)</text></g></g><path class="foreground" aria-hidden="true" d="" pointer-events="none" display="none"/></g></g></g><path class="foreground" aria-hidden="true" d="" display="none"/></g></g></g></svg>