<svg xmlns="http://www.w3.org/2000/svg" xmlns:xlink="http://www.w3.org/1999/xlink" version="1.1" class="marks" width="651" height="516" viewBox="0 0 651 516"><rect width="651" height="516" fill="white"/><g fill="none" stroke-miterlimit="10" transform="translate(44,79)"><g class="mark-group role-frame root" role="graphics-object" aria-roledescription="group mark container"><g transform="translate(0,0)"><path class="background" aria-hidden="true" d="M0.5,0.5h600v400h-600Z" stroke="#ddd"/><g><g class="mark-group role-axis" aria-hidden="true"><g transform="translate(0.5,400.5)"><path class="background" aria-hidden="true" d="M0,0h0v0h0Z" pointer-events="none"/><g><g class="mark-rule role-axis-grid" pointer-events="none"><line transform="translate(0,-400)" x2="0" y2="400" stroke="#ddd" stroke-width="1" opacity="1"/><line transform="translate(55,-400)" x2="0" y2="400" stroke="#ddd" stroke-width="1" opacity="1"/><line transform="translate(109,-400)" x2="0" y2="400" stroke="#ddd" stroke-width="1" opacity="1"/><line transform="translate(164,-400)" x2="0" y2="400" stroke="#ddd" stroke-width="1" opacity="1"/><line transform="translate(218,-400)" x2="0" y2="400" stroke="#ddd" stroke-width="1" opacity="1"/><line transform="translate(273,-400)" x2="0" y2="400" stroke="#ddd" stroke-width="1" opacity="1"/><line transform="translate(327,-400)" x2="0" y2="400" stroke="#ddd" stroke-width="1" opacity="1"/><line transform="translate(382,-400)" x2="0" y2="400" stroke="#ddd" stroke-width="1" opacity="1"/><line transform="translate(436,-400)" x2="0" y2="400" stroke="#ddd" stroke-width="1" opacity="1"/><line transform="translate(491,-400)" x2="0" y2="400" stroke="#ddd" stroke-width="1" opacity="1"/><line transform="translate(545,-400)" x2="0" y2="400" stroke="#ddd" stroke-width="1" opacity="1"/><line transform="translate(600,-400)" x2="0" y2="400" stroke="#ddd" stroke-width="1" opacity="1"/></g></g><path class="foreground" aria-hidden="true" d="" pointer-events="none" display="none"/></g></g><g class="mark-group role-axis" aria-hidden="true"><g transform="translate(0.5,0.5)"><path class="background" aria-hidden="true" d="M0,0h0v0h0Z" pointer-events="none"/><g><g class="mark-rule role-axis-grid" pointer-events="none"><line transform="translate(0,400)" x2="600" y2="0" stroke="#ddd" stroke-width="1" opacity="1"/><line transform="translate(0,371)" x2="600" y2="0" stroke="#ddd" stroke-width="1" opacity="1"/><line transform="translate(0,343)" x2="600" y2="0" stroke="#ddd" stroke-width="1" opacity="1"/><line transform="translate(0,314)" x2="600" y2="0" stroke="#ddd" stroke-width="1" opacity="1"/><line transform="translate(0,286)" x2="600" y2="0" stroke="#ddd" stroke-width="1" opacity="1"/><line transform="translate(0,257)" x2="600" y2="0" stroke="#ddd" stroke-width="1" opacity="1"/><line transform="translate(0,229)" x2="600" y2="0" stroke="#ddd" stroke-width="1" opacity="1"/><line transform="translate(0,200)" x2="600" y2="0" stroke="#ddd" stroke-width="1" opacity="1"/><line transform="translate(0,171)" x2="600" y2="0" stroke="#ddd" stroke-width="1" opacity="1"/><line transform="translate(0,143)" x2="600" y2="0" stroke="#ddd" stroke-width="1" opacity="1"/><line transform="translate(0,114)" x2="600" y2="0" stroke="#ddd" stroke-width="1" opacity="1"/><line transform="translate(0,86)" x2="600" y2="0" stroke="#ddd" stroke-width="1" opacity="1"/><line transform="translate(0,57)" x2="600" y2="0" stroke="#ddd" stroke-width="1" opacity="1"/><line transform="translate(0,29)" x2="600" y2="0" stroke="#ddd" stroke-width="1" opacity="1"/><line transform="translate(0,0)" x2="600" y2="0" stroke="#ddd" stroke-width="1" opacity="1"/></g></g><path class="foreground" aria-hidden="true" d="" pointer-events="none" display="none"/></g></g><g class="mark-group role-axis" role="graphics-symbol" aria-roledescription="axis" aria-label="X-axis titled '年齢' for a linear scale with values from 40 to 95"><g transform="translate(0.5,400.5)"><path class="background" aria-hidden="true" d="M0,0h0v0h0Z" pointer-events="none"/><g><g class="mark-rule role-axis-tick" pointer-events="none"><line transform="translate(0,0)" x2="0" y2="5" stroke="#888" stroke-width="1" opacity="1"/><line transform="translate(55,0)" x2="0" y2="5" stroke="#888" stroke-width="1" opacity="1"/><line transform="translate(109,0)" x2="0" y2="5" stroke="#888" stroke-width="1" opacity="1"/><line transform="translate(164,0)" x2="0" y2="5" stroke="#888" stroke-width="1" opacity="1"/><line transform="translate(218,0)" x2="0" y2="5" stroke="#888" stroke-width="1" opacity="1"/><line transform="translate(273,0)" x2="0" y2="5" stroke="#888" stroke-width="1" opacity="1"/><line transform="translate(327,0)" x2="0" y2="5" stroke="#888" stroke-width="1" opacity="1"/><line transform="translate(382,0)" x2="0" y2="5" stroke="#888" stroke-width="1" opacity="1"/><line transform="translate(436,0)" x2="0" y2="5" stroke="#888" stroke-width="1" opacity="1"/><line transform="translate(491,0)" x2="0" y2="5" stroke="#888" stroke-width="1" opacity="1"/><line transform="translate(545,0)" x2="0" y2="5" stroke="#888" stroke-width="1" opacity="1"/><line transform="translate(600,0)" x2="0" y2="5" stroke="#888" stroke-width="1" opacity="1"/></g><g class="mark-text role-axis-label" pointer-events="none"><text text-anchor="start" transform="translate(0,15)" font-family="sans-serif" font-size="10px" fill="#000" opacity="1">40</text><text text-anchor="middle" transform="translate(54.54545454545455,15)" font-family="sans-serif" font-size="10px" fill="#000" opacity="1">45</text><text text-anchor="middle" transform="translate(109.0909090909091,15)" font-family="sans-serif" font-size="10px" fill="#000" opacity="1">50</text><text text-anchor="middle" transform="translate(163.63636363636363,15)" font-family="sans-serif" font-size="10px" fill="#000" opacity="1">55</text><text text-anchor="middle" transform="translate(218.1818181818182,15)" font-family="sans-serif" font-size="10px" fill="#000" opacity="1">60</text><text text-anchor="middle" transform="translate(272.7272727272727,15)" font-family="sans-serif" font-size="10px" fill="#000" opacity="1">65</text><text text-anchor="middle" transform="translate(327.27272727272725,15)" font-family="sans-serif" font-size="10px" fill="#000" opacity="1">70</text><text text-anchor="middle" transform="translate(381.8181818181818,15)" font-family="sans-serif" font-size="10px" fill="#000" opacity="1">75</text><text text-anchor="middle" transform="translate(436.3636363636364,15)" font-family="sans-serif" font-size="10px" fill="#000" opacity="1">80</text><text text-anchor="middle" transform="translate(490.90909090909093,15)" font-family="sans-serif" font-size="10px" fill="#000" opacity="1">85</text><text text-anchor="middle" transform="translate(545.4545454545454,15)" font-family="sans-serif" font-size="10px" fill="#000" opacity="1">90</text><text text-anchor="end" transform="translate(600,15)" font-family="sans-serif" font-size="10px" fill="#000" opacity="1">95</text></g><g class="mark-rule role-axis-domain" pointer-events="none"><line transform="translate(0,0)" x2="600" y2="0" stroke="#888" stroke-width="1" opacity="1"/></g><g class="mark-text role-axis-title" pointer-events="none"><text text-anchor="middle" transform="translate(300,30)" font-family="sans-serif" font-size="11px" font-weight="bold" fill="#000" opacity="1">年齢</text></g></g><path class="foreground" aria-hidden="true" d="" pointer-events="none" display="none"/></g></g><g class="mark-group role-axis" role="graphics-symbol" aria-roledescription="axis" aria-label="Y-axis titled '年間取り崩し額 (万円)' for a linear scale with values from −50 to 650"><g transform="translate(0.5,0.5)"><path class="background" aria-hidden="true" d="M0,0h0v0h0Z" pointer-events="none"/><g><g class="mark-rule role-axis-tick" pointer-events="none"><line transform="translate(0,400)" x2="-5" y2="0" stroke="#888" stroke-width="1" opacity="1"/><line transform="translate(0,371)" x2="-5" y2="0" stroke="#888" stroke-width="1" opacity="1"/><line transform="translate(0,343)" x2="-5" y2="0" stroke="#888" stroke-width="1" opacity="1"/><line transform="translate(0,314)" x2="-5" y2="0" stroke="#888" stroke-width="1" opacity="1"/><line transform="translate(0,286)" x2="-5" y2="0" stroke="#888" stroke-width="1" opacity="1"/><line transform="translate(0,257)" x2="-5" y2="0" stroke="#888" stroke-width="1" opacity="1"/><line transform="translate(0,229)" x2="-5" y2="0" stroke="#888" stroke-width="1" opacity="1"/><line transform="translate(0,200)" x2="-5" y2="0" stroke="#888" stroke-width="1" opacity="1"/><line transform="translate(0,171)" x2="-5" y2="0" stroke="#888" stroke-width="1" opacity="1"/><line transform="translate(0,143)" x2="-5" y2="0" stroke="#888" stroke-width="1" opacity="1"/><line transform="translate(0,114)" x2="-5" y2="0" stroke="#888" stroke-width="1" opacity="1"/><line transform="translate(0,86)" x2="-5" y2="0" stroke="#888" stroke-width="1" opacity="1"/><line transform="translate(0,57)" x2="-5" y2="0" stroke="#888" stroke-width="1" opacity="1"/><line transform="translate(0,29)" x2="-5" y2="0" stroke="#888" stroke-width="1" opacity="1"/><line transform="translate(0,0)" x2="-5" y2="0" stroke="#888" stroke-width="1" opacity="1"/></g><g class="mark-text role-axis-label" pointer-events="none"><text text-anchor="end" transform="translate(-7,403)" font-family="sans-serif" font-size="10px" fill="#000" opacity="1">−50</text><text text-anchor="end" transform="translate(-7,374.42857142857144)" font-family="sans-serif" font-size="10px" fill="#000" opacity="1">0</text><text text-anchor="end" transform="translate(-7,345.8571428571429)" font-family="sans-serif" font-size="10px" fill="#000" opacity="1">50</text><text text-anchor="end" transform="translate(-7,317.2857142857143)" font-family="sans-serif" font-size="10px" fill="#000" opacity="1">100</text><text text-anchor="end" transform="translate(-7,288.7142857142857)" font-family="sans-serif" font-size="10px" fill="#000" opacity="1">150</text><text text-anchor="end" transform="translate(-7,260.1428571428571)" font-family="sans-serif" font-size="10px" fill="#000" opacity="1">200</text><text text-anchor="end" transform="translate(-7,231.57142857142856)" font-family="sans-serif" font-size="10px" fill="#000" opacity="1">250</text><text text-anchor="end" transform="translate(-7,203)" font-family="sans-serif" font-size="10px" fill="#000" opacity="1">300</text><text text-anchor="end" transform="translate(-7,174.42857142857144)" font-family="sans-serif" font-size="10px" fill="#000" opacity="1">350</text><text text-anchor="end" transform="translate(-7,145.85714285714283)" font-family="sans-serif" font-size="10px" fill="#000" opacity="1">400</text><text text-anchor="end" transform="translate(-7,117.28571428571428)" font-family="sans-serif" font-size="10px" fill="#000" opacity="1">450</text><text text-anchor="end" transform="translate(-7,88.71428571428572)" font-family="sans-serif" font-size="10px" fill="#000" opacity="1">500</text><text text-anchor="end" transform="translate(-7,60.14285714285716)" font-family="sans-serif" font-size="10px" fill="#000" opacity="1">550</text><text text-anchor="end" transform="translate(-7,31.57142857142856)" font-family="sans-serif" font-size="10px" fill="#000" opacity="1">600</text><text text-anchor="end" transform="translate(-7,3)" font-family="sans-serif" font-size="10px" fill="#000" opacity="1">650</text></g><g class="mark-rule role-axis-domain" pointer-events="none"><line transform="translate(0,400)" x2="0" y2="-400" stroke="#888" stroke-width="1" opacity="1"/></g><g class="mark-text role-axis-title" pointer-events="none"><text text-anchor="middle" transform="translate(-27.962890625,200) rotate(-90) translate(0,-2)" font-family="sans-serif" font-size="11px" font-weight="bold" fill="#000" opacity="1">年間取り崩し額 (万円)</text></g></g><path class="foreground" aria-hidden="true" d="" pointer-events="none" display="none"/></g></g><g class="mark-group role-scope layer_0_pathgroup" role="graphics-object" aria-roledescription="group mark container"><g transform="translate(0,0)"><path class="background" aria-hidden="true" d="M0,0h600v400h-600Z"/><g><g class="mark-area role-mark layer_0_marks" role="graphics-object" aria-roledescription="area mark container"><path aria-label="年齢: 41; 年間取り崩し額 (万円): 479.637149036; spend75p: 486.366954392; 戦略: 定額取り崩し（ベースライン）" role="graphics-symbol" aria-roledescription="area mark" d="M10.909,97.35L21.818,92.356L32.727,86.671L43.636,80.775L54.545,74.785L65.455,69.091L76.364,63.477L87.273,57.959L98.182,52.745L109.091,48.498L120,45.053L130.909,42.414L141.818,41.095L152.727,41.067L163.636,42.632L174.545,45.757L185.455,50.876L196.364,56.539L207.273,62.767L218.182,69.648L229.091,165.49L240,172.853L250.909,179.901L261.818,186.785L272.727,193.328L283.636,200.365L294.545,207.586L305.455,215.156L316.364,223.55L327.273,232.207L338.182,240.626L349.091,249.243L360,257.081L370.909,264.272L381.818,270.528L392.727,276.243L403.636,280.606L414.545,284.561L425.455,288.115L436.364,291.498L447.273,294.636L458.182,297.114L469.091,299.776L480,301.995L490.909,304.695L501.818,307.668L512.727,310.931L523.636,315.264L534.545,319.137L545.455,323.722L556.364,328.895L567.273,333.218L578.182,337.642L589.091,342.572L600,346.933L600,299.571L589.091,295.659L578.182,291.773L567.273,288.446L556.364,285.614L545.455,282.314L534.545,279.28L523.636,276.073L512.727,273.844L501.818,271.701L490.909,269.87L480,268.275L469.091,266.169L458.182,264.651L447.273,262.841L436.364,261.106L425.455,258.736L414.545,256.4L403.636,253.342L392.727,249.33L381.818,245.143L370.909,239.266L360,232.488L349.091,225.376L338.182,217.924L327.273,209.858L316.364,202.001L305.455,194.857L294.545,187.974L283.636,181.24L272.727,175.129L261.818,169.066L250.909,162.975L240,156.547L229.091,149.6L218.182,62.043L207.273,55.299L196.364,48.569L185.455,42.689L174.545,37.814L163.636,34.455L152.727,32.902L141.818,33.011L130.909,34.253L120,36.947L109.091,40.634L98.182,45.576L87.273,50.708L76.364,56.307L65.455,62.346L54.545,68.512L43.636,74.595L32.727,80.809L21.818,87.295L10.909,93.505Z" fill="green" opacity="0.3"/></g></g><path class="foreground" aria-hidden="true" d="" display="none"/></g><g transform="translate(0,0)"><path class="background" aria-hidden="true" d="M0,0h600v400h-600Z"/><g><g class="mark-area role-mark layer_0_marks" role="graphics-object" aria-roledescription="area mark container"><path aria-label="年齢: 41; 年間取り崩し額 (万円): 479.304705478; spend75p: 479.606591788; 戦略: 支出率を目標にする@ダイナミックスペンディング" role="graphics-symbol" aria-roledescription="area mark" d="M10.909,97.54L21.818,95.383L32.727,92.968L43.636,85.466L54.545,83.662L65.455,82.114L76.364,80.72L87.273,79.686L98.182,78.395L109.091,76.655L120,75.446L130.909,76.014L141.818,78.847L152.727,82.904L163.636,88.321L174.545,94.969L185.455,98.009L196.364,105.613L207.273,114.425L218.182,121.276L229.091,210.946L240,219.848L250.909,227.388L261.818,234.868L272.727,242.639L283.636,249.814L294.545,255.996L305.455,263.358L316.364,270.816L327.273,278.709L338.182,286.559L349.091,293.749L360,301.229L370.909,307.501L381.818,313.26L392.727,318.043L403.636,322.365L414.545,325.949L425.455,329.536L436.364,332.772L447.273,335.38L458.182,338.002L469.091,340.333L480,342.937L490.909,345.622L501.818,348.138L512.727,351.599L523.636,354.878L534.545,357.671L545.455,361.738L556.364,365.355L567.273,368.54L578.182,371.634L589.091,375.823L600,379.41L600,302.995L589.091,299.589L578.182,296.081L567.273,293.408L556.364,290.194L545.455,287.524L534.545,285.602L523.636,284.026L512.727,282.005L501.818,279.059L490.909,276.995L480,275.488L469.091,274.621L458.182,273.517L447.273,272.095L436.364,270.367L425.455,268.475L414.545,266.7L403.636,264.967L392.727,261.675L381.818,256.284L370.909,251.026L360,243.365L349.091,235.271L338.182,226.304L327.273,217.603L316.364,208.42L305.455,199.644L294.545,191.322L283.636,183.816L272.727,177.896L261.818,169.957L250.909,161.982L240,153.251L229.091,144.801L218.182,46.716L207.273,40.507L196.364,33.307L185.455,29.31L174.545,21.126L163.636,19.659L152.727,16.026L141.818,16.413L130.909,19.71L120,19.656L109.091,26.265L98.182,34.095L87.273,42.323L76.364,44.216L65.455,53.181L54.545,62.249L43.636,71.219L32.727,80.071L21.818,88.794L10.909,97.368Z" fill="red" opacity="0.3"/></g></g><path class="foreground" aria-hidden="true" d="" display="none"/></g><g transform="translate(0,0)"><path class="background" aria-hidden="true" d="M0,0h600v400h-600Z"/><g><g class="mark-area role-mark layer_0_marks" role="graphics-object" aria-roledescription="area mark container"><path aria-label="年齢: 41; 年間取り崩し額 (万円): 472.437869094; spend75p: 472.739755403; 戦略: 生存確率を目標にする@ダイナミックスペンディング" role="graphics-symbol" aria-roledescription="area mark" d="M10.909,101.464L21.818,99.576L32.727,97.779L43.636,96.099L54.545,94.539L65.455,93.105L76.364,91.831L87.273,90.92L98.182,90.459L109.091,90.638L120,91.586L130.909,93.388L141.818,96.177L152.727,100.097L163.636,105.189L174.545,111.491L185.455,115.915L196.364,120.638L207.273,125.452L218.182,128.743L229.091,214.876L240,218.204L250.909,221.688L261.818,225.737L272.727,228.779L283.636,231.694L294.545,235.889L305.455,240.129L316.364,245.643L327.273,251.278L338.182,256.858L349.091,262.707L360,268.963L370.909,274.662L381.818,278.264L392.727,281.613L403.636,284.365L414.545,285.609L425.455,287.081L436.364,287.714L447.273,288.627L458.182,289.403L469.091,290.278L480,290.232L490.909,291.305L501.818,292.735L512.727,294.406L523.636,296.088L534.545,297.951L545.455,300.367L556.364,302.234L567.273,304.865L578.182,308.232L589.091,310.994L600,313.952L600,257.904L589.091,255.895L578.182,253.896L567.273,252.238L556.364,251.274L545.455,249.476L534.545,248.369L523.636,246.615L512.727,246.12L501.818,245.462L490.909,244.933L480,245.162L469.091,245.206L458.182,245.319L447.273,245.895L436.364,245.575L425.455,245.087L414.545,244.146L403.636,242.22L392.727,240.293L381.818,237.066L370.909,233.243L360,228.708L349.091,222.915L338.182,216.385L327.273,210.155L316.364,204.159L305.455,198.544L294.545,193.598L283.636,189.188L272.727,185.471L261.818,181.396L250.909,177.578L240,173.774L229.091,169.033L218.182,74.673L207.273,71.583L196.364,68.143L185.455,64.651L174.545,62.801L163.636,61.408L152.727,62.141L141.818,62.609L130.909,64.056L120,67.185L109.091,71.396L98.182,74.895L87.273,78.844L76.364,83.921L65.455,89.165L54.545,94.161L43.636,95.809L32.727,97.526L21.818,99.35L10.909,101.292Z" fill="blue" opacity="0.3"/></g></g><path class="foreground" aria-hidden="true" d="" display="none"/></g></g><g class="mark-group role-scope layer_1_pathgroup" role="graphics-object" aria-roledescription="group mark container"><g transform="translate(0,0)"><path class="background" aria-hidden="true" d="M0,0h600v400h-600Z"/><g><g class="mark-line role-mark layer_1_marks" role="graphics-object" aria-roledescription="line mark container"><path aria-label="年齢: 41; spend50p: 482.953656325; group_label: 定額取り崩し（ベースライン）" role="graphics-symbol" aria-roledescription="line mark" d="M10.909,95.455L21.818,89.76L32.727,83.767L43.636,77.644L54.545,71.69L65.455,65.752L76.364,59.871L87.273,54.334L98.182,49.237L109.091,44.724L120,41.033L130.909,38.341L141.818,36.886L152.727,36.751L163.636,38.39L174.545,41.988L185.455,46.672L196.364,52.567L207.273,59.07L218.182,65.817L229.091,156.77L240,163.702L250.909,170.706L261.818,176.77L272.727,182.956L283.636,189.395L294.545,195.883L305.455,203.012L316.364,210.595L327.273,218.582L338.182,226.929L349.091,235.289L360,242.97L370.909,249.619L381.818,255.374L392.727,260.565L403.636,264.772L414.545,268.285L425.455,271.302L436.364,273.969L447.273,276.455L458.182,278.474L469.091,280.501L480,282.578L490.909,284.845L501.818,287.17L512.727,289.865L523.636,292.673L534.545,296.04L545.455,299.775L556.364,303.162L567.273,306.928L578.182,310.643L589.091,314.526L600,318.608" stroke="green" stroke-width="2"/></g></g><path class="foreground" aria-hidden="true" d="" display="none"/></g><g transform="translate(0,0)"><path class="background" aria-hidden="true" d="M0,0h600v400h-600Z"/><g><g class="mark-line role-mark layer_1_marks" role="graphics-object" aria-roledescription="line mark container"><path aria-label="年齢: 41; spend50p: 479.453477708; group_label: 支出率を目標にする@ダイナミックスペンディング" role="graphics-symbol" aria-roledescription="line mark" d="M10.909,97.455L21.818,88.987L32.727,82.173L43.636,78.206L54.545,69.882L65.455,67.809L76.364,59.551L87.273,58.134L98.182,57.313L109.091,51.12L120,51.38L130.909,53.189L141.818,52.793L152.727,53.92L163.636,59.593L174.545,62.759L185.455,68.829L196.364,74.846L207.273,81.844L218.182,89.114L229.091,179.89L240,188.216L250.909,196.49L261.818,204.779L272.727,212.109L283.636,219.625L294.545,227.15L305.455,235.213L316.364,243.65L327.273,252.043L338.182,260.084L349.091,268.683L360,276.532L370.909,283.327L381.818,288.853L392.727,293.804L403.636,297.897L414.545,301.711L425.455,304.989L436.364,307.58L447.273,310.65L458.182,312.513L469.091,315.322L480,317.951L490.909,320.507L501.818,323.013L512.727,325.695L523.636,328.58L534.545,331.729L545.455,334.638L556.364,336.914L567.273,339.938L578.182,343.796L589.091,347.168L600,350.312" stroke="red" stroke-width="2"/></g></g><path class="foreground" aria-hidden="true" d="" display="none"/></g><g transform="translate(0,0)"><path class="background" aria-hidden="true" d="M0,0h600v400h-600Z"/><g><g class="mark-line role-mark layer_1_marks" role="graphics-object" aria-roledescription="line mark container"><path aria-label="年齢: 41; spend50p: 472.586641323; group_label: 生存確率を目標にする@ダイナミックスペンディング" role="graphics-symbol" aria-roledescription="line mark" d="M10.909,101.379L21.818,99.462L32.727,97.658L43.636,95.96L54.545,94.389L65.455,92.915L76.364,91.579L87.273,90.581L98.182,87.202L109.091,86.337L120,83.423L130.909,81.25L141.818,80.086L152.727,80.068L163.636,81.399L174.545,83.978L185.455,85.93L196.364,89.581L207.273,93.372L218.182,97.19L229.091,185.289L240,189.861L250.909,193.976L261.818,197.767L272.727,202.031L283.636,206.062L294.545,210.222L305.455,214.991L316.364,220.993L327.273,226.844L338.182,232.69L349.091,239.2L360,245.237L370.909,250.565L381.818,254.46L392.727,257.918L403.636,260.216L414.545,261.929L425.455,263.057L436.364,263.792L447.273,264.655L458.182,264.68L469.091,264.937L480,265.542L490.909,266.399L501.818,267.065L512.727,267.917L523.636,269.177L534.545,270.792L545.455,272.537L556.364,273.884L567.273,275.876L578.182,277.621L589.091,279.603L600,282.128" stroke="blue" stroke-width="2"/></g></g><path class="foreground" aria-hidden="true" d="" display="none"/></g></g><g class="mark-group role-legend" role="graphics-symbol" aria-roledescription="legend" aria-label="Symbol legend titled '戦略' for fill color and stroke color with 3 values: 支出率を目標にする@ダイナミックスペンディング, 生存確率を目標にする@ダイナミックスペンディング, 定額取り崩し（ベースライン）"><g transform="translate(0,-57)"><path class="background" aria-hidden="true" d="M0,0h470v39h-470Z" pointer-events="none"/><g><g class="mark-group role-legend-entry"><g transform="translate(0,16)"><path class="background" aria-hidden="true" d="M0,0h0v0h0Z" pointer-events="none"/><g><g class="mark-group role-scope" role="graphics-object" aria-roledescription="group mark container"><g transform="translate(0,0)"><path class="background" aria-hidden="true" d="M0,0h146v23h-146Z" pointer-events="none" opacity="1"/><g><g class="mark-symbol role-legend-symbol" pointer-events="none"><path transform="translate(6,6)" d="M5,0A5,5,0,1,1,-5,0A5,5,0,1,1,5,0" fill="red" stroke="red" stroke-width="1.5" opacity="0.3"/></g><g class="mark-text role-legend-label" pointer-events="none"><text text-anchor="start" transform="translate(16,9)" font-family="sans-serif" font-size="10px" fill="#000" opacity="1"><tspan>支出率を目標にする</tspan><tspan x="0" dy="12">ダイナミックスペンディング</tspan></text></g></g><path class="foreground" aria-hidden="true" d="" pointer-events="none" display="none"/></g><g transform="translate(157,0)"><path class="background" aria-hidden="true" d="M0,0h146v23h-146Z" pointer-events="none" opacity="1"/><g><g class="mark-symbol role-legend-symbol" pointer-events="none"><path transform="translate(6,6)" d="M5,0A5,5,0,1,1,-5,0A5,5,0,1,1,5,0" fill="blue" stroke="blue" stroke-width="1.5" opacity="0.3"/></g><g class="mark-text role-legend-label" pointer-events="none"><text text-anchor="start" transform="translate(16,9)" font-family="sans-serif" font-size="10px" fill="#000" opacity="1"><tspan>生存確率を目標にする</tspan><tspan x="0" dy="12">ダイナミックスペンディング</tspan></text></g></g><path class="foreground" aria-hidden="true" d="" pointer-events="none" display="none"/></g><g transform="translate(314,5.25)"><path class="background" aria-hidden="true" d="M0,0h156v12.5h-156Z" pointer-events="none" opacity="1"/><g><g class="mark-symbol role-legend-symbol" pointer-events="none"><path transform="translate(6,6)" d="M5,0A5,5,0,1,1,-5,0A5,5,0,1,1,5,0" fill="green" stroke="green" stroke-width="1.5" opacity="0.3"/></g><g class="mark-text role-legend-label" pointer-events="none"><text text-anchor="start" transform="translate(16,9)" font-family="sans-serif" font-size="10px" fill="#000" opacity="1">定額取り崩し（ベースライン）</text></g></g><path class="foreground" aria-hidden="true" d="" pointer-events="none" display="none"/></g></g></g><path class="foreground" aria-hidden="true" d="" pointer-events="none" display="none"/></g></g><g class="mark-text role-legend-title" pointer-events="none"><text text-anchor="start" transform="translate(0,9)" font-family="sans-serif" font-size="11px" font-weight="bold" fill="#000" opacity="1">戦略</text></g></g><path class="foreground" aria-hidden="true" d="" pointer-events="none" display="none"/></g></g><g class="mark-group role-title"><g transform="translate(300,-74)"><path class="background" aria-hidden="true" d="M0,0h0v0h0Z" pointer-events="none"/><g><g class="mark-text role-title-text" role="graphics-symbol" aria-roledescription="title" aria-label="Title text '実質支出額の推移比較 (初期支出率: 4.0%, 共通生存パスのみ)'" pointer-events="none"><text text-anchor="middle" transform="translate(0,10)" font-family="sans-serif" font-size="13px" font-weight="bold" fill="#000" opacity="1">実質支出額の推移比較 (初期支出率: 4.0%, 共通生存パスのみ)</text></g></g><path class="foreground" aria-hidden="true" d="" pointer-events="none" display="none"/></g></g></g><path class="foreground" aria-hidden="true" d="" display="none"/></g></g></g></svg>