<svg xmlns="http://www.w3.org/2000/svg" xmlns:xlink="http://www.w3.org/1999/xlink" version="1.1" class="marks" width="651" height="516" viewBox="0 0 651 516"><rect width="651" height="516" fill="white"/><g fill="none" stroke-miterlimit="10" transform="translate(44,79)"><g class="mark-group role-frame root" role="graphics-object" aria-roledescription="group mark container"><g transform="translate(0,0)"><path class="background" aria-hidden="true" d="M0.5,0.5h600v400h-600Z" stroke="#ddd"/><g><g class="mark-group role-axis" aria-hidden="true"><g transform="translate(0.5,400.5)"><path class="background" aria-hidden="true" d="M0,0h0v0h0Z" pointer-events="none"/><g><g class="mark-rule role-axis-grid" pointer-events="none"><line transform="translate(0,-400)" x2="0" y2="400" stroke="#ddd" stroke-width="1" opacity="1"/><line transform="translate(55,-400)" x2="0" y2="400" stroke="#ddd" stroke-width="1" opacity="1"/><line transform="translate(109,-400)" x2="0" y2="400" stroke="#ddd" stroke-width="1" opacity="1"/><line transform="translate(164,-400)" x2="0" y2="400" stroke="#ddd" stroke-width="1" opacity="1"/><line transform="translate(218,-400)" x2="0" y2="400" stroke="#ddd" stroke-width="1" opacity="1"/><line transform="translate(273,-400)" x2="0" y2="400" stroke="#ddd" stroke-width="1" opacity="1"/><line transform="translate(327,-400)" x2="0" y2="400" stroke="#ddd" stroke-width="1" opacity="1"/><line transform="translate(382,-400)" x2="0" y2="400" stroke="#ddd" stroke-width="1" opacity="1"/><line transform="translate(436,-400)" x2="0" y2="400" stroke="#ddd" stroke-width="1" opacity="1"/><line transform="translate(491,-400)" x2="0" y2="400" stroke="#ddd" stroke-width="1" opacity="1"/><line transform="translate(545,-400)" x2="0" y2="400" stroke="#ddd" stroke-width="1" opacity="1"/><line transform="translate(600,-400)" x2="0" y2="400" stroke="#ddd" stroke-width="1" opacity="1"/></g></g><path class="foreground" aria-hidden="true" d="" pointer-events="none" display="none"/></g></g><g class="mark-group role-axis" aria-hidden="true"><g transform="translate(0.5,0.5)"><path class="background" aria-hidden="true" d="M0,0h0v0h0Z" pointer-events="none"/><g><g class="mark-rule role-axis-grid" pointer-events="none"><line transform="translate(0,400)" x2="600" y2="0" stroke="#ddd" stroke-width="1" opacity="1"/><line transform="translate(0,367)" x2="600" y2="0" stroke="#ddd" stroke-width="1" opacity="1"/><line transform="translate(0,333)" x2="600" y2="0" stroke="#ddd" stroke-width="1" opacity="1"/><line transform="translate(0,300)" x2="600" y2="0" stroke="#ddd" stroke-width="1" opacity="1"/><line transform="translate(0,267)" x2="600" y2="0" stroke="#ddd" stroke-width="1" opacity="1"/><line transform="translate(0,233)" x2="600" y2="0" stroke="#ddd" stroke-width="1" opacity="1"/><line transform="translate(0,200)" x2="600" y2="0" stroke="#ddd" stroke-width="1" opacity="1"/><line transform="translate(0,167)" x2="600" y2="0" stroke="#ddd" stroke-width="1" opacity="1"/><line transform="translate(0,133)" x2="600" y2="0" stroke="#ddd" stroke-width="1" opacity="1"/><line transform="translate(0,100)" x2="600" y2="0" stroke="#ddd" stroke-width="1" opacity="1"/><line transform="translate(0,67)" x2="600" y2="0" stroke="#ddd" stroke-width="1" opacity="1"/><line transform="translate(0,33)" x2="600" y2="0" stroke="#ddd" stroke-width="1" opacity="1"/><line transform="translate(0,0)" x2="600" y2="0" stroke="#ddd" stroke-width="1" opacity="1"/></g></g><path class="foreground" aria-hidden="true" d="" pointer-events="none" display="none"/></g></g><g class="mark-group role-axis" role="graphics-symbol" aria-roledescription="axis" aria-label="X-axis titled '年齢' for a linear scale with values from 40 to 95"><g transform="translate(0.5,400.5)"><path class="background" aria-hidden="true" d="M0,0h0v0h0Z" pointer-events="none"/><g><g class="mark-rule role-axis-tick" pointer-events="none"><line transform="translate(0,0)" x2="0" y2="5" stroke="#888" stroke-width="1" opacity="1"/><line transform="translate(55,0)" x2="0" y2="5" stroke="#888" stroke-width="1" opacity="1"/><line transform="translate(109,0)" x2="0" y2="5" stroke="#888" stroke-width="1" opacity="1"/><line transform="translate(164,0)" x2="0" y2="5" stroke="#888" stroke-width="1" opacity="1"/><line transform="translate(218,0)" x2="0" y2="5" stroke="#888" stroke-width="1" opacity="1"/><line transform="translate(273,0)" x2="0" y2="5" stroke="#888" stroke-width="1" opacity="1"/><line transform="translate(327,0)" x2="0" y2="5" stroke="#888" stroke-width="1" opacity="1"/><line transform="translate(382,0)" x2="0" y2="5" stroke="#888" stroke-width="1" opacity="1"/><line transform="translate(436,0)" x2="0" y2="5" stroke="#888" stroke-width="1" opacity="1"/><line transform="translate(491,0)" x2="0" y2="5" stroke="#888" stroke-width="1" opacity="1"/><line transform="translate(545,0)" x2="0" y2="5" stroke="#888" stroke-width="1" opacity="1"/><line transform="translate(600,0)" x2="0" y2="5" stroke="#888" stroke-width="1" opacity="1"/></g><g class="mark-text role-axis-label" pointer-events="none"><text text-anchor="start" transform="translate(0,15)" font-family="sans-serif" font-size="10px" fill="#000" opacity="1">40</text><text text-anchor="middle" transform="translate(54.54545454545455,15)" font-family="sans-serif" font-size="10px" fill="#000" opacity="1">45</text><text text-anchor="middle" transform="translate(109.0909090909091,15)" font-family="sans-serif" font-size="10px" fill="#000" opacity="1">50</text><text text-anchor="middle" transform="translate(163.63636363636363,15)" font-family="sans-serif" font-size="10px" fill="#000" opacity="1">55</text><text text-anchor="middle" transform="translate(218.1818181818182,15)" font-family="sans-serif" font-size="10px" fill="#000" opacity="1">60</text><text text-anchor="middle" transform="translate(272.7272727272727,15)" font-family="sans-serif" font-size="10px" fill="#000" opacity="1">65</text><text text-anchor="middle" transform="translate(327.27272727272725,15)" font-family="sans-serif" font-size="10px" fill="#000" opacity="1">70</text><text text-anchor="middle" transform="translate(381.8181818181818,15)" font-family="sans-serif" font-size="10px" fill="#000" opacity="1">75</text><text text-anchor="middle" transform="translate(436.3636363636364,15)" font-family="sans-serif" font-size="10px" fill="#000" opacity="1">80</text><text text-anchor="middle" transform="translate(490.90909090909093,15)" font-family="sans-serif" font-size="10px" fill="#000" opacity="1">85</text><text text-anchor="middle" transform="translate(545.4545454545454,15)" font-family="sans-serif" font-size="10px" fill="#000" opacity="1">90</text><text text-anchor="end" transform="translate(600,15)" font-family="sans-serif" font-size="10px" fill="#000" opacity="1">95</text></g><g class="mark-rule role-axis-domain" pointer-events="none"><line transform="translate(0,0)" x2="600" y2="0" stroke="#888" stroke-width="1" opacity="1"/></g><g class="mark-text role-axis-title" pointer-events="none"><text text-anchor="middle" transform="translate(300,30)" font-family="sans-serif" font-size="11px" font-weight="bold" fill="#000" opacity="1">年齢</text></g></g><path class="foreground" aria-hidden="true" d="" pointer-events="none" display="none"/></g></g><g class="mark-group role-axis" role="graphics-symbol" aria-roledescription="axis" aria-label="Y-axis titled '年間取り崩し額 (万円)' for a linear scale with values from 0 to 600"><g transform="translate(0.5,0.5)"><path class="background" aria-hidden="true" d="M0,0h0v0h0Z" pointer-events="none"/><g><g class="mark-rule role-axis-tick" pointer-events="none"><line transform="translate(0,400)" x2="-5" y2="0" stroke="#888" stroke-width="1" opacity="1"/><line transform="translate(0,367)" x2="-5" y2="0" stroke="#888" stroke-width="1" opacity="1"/><line transform="translate(0,333)" x2="-5" y2="0" stroke="#888" stroke-width="1" opacity="1"/><line transform="translate(0,300)" x2="-5" y2="0" stroke="#888" stroke-width="1" opacity="1"/><line transform="translate(0,267)" x2="-5" y2="0" stroke="#888" stroke-width="1" opacity="1"/><line transform="translate(0,233)" x2="-5" y2="0" stroke="#888" stroke-width="1" opacity="1"/><line transform="translate(0,200)" x2="-5" y2="0" stroke="#888" stroke-width="1" opacity="1"/><line transform="translate(0,167)" x2="-5" y2="0" stroke="#888" stroke-width="1" opacity="1"/><line transform="translate(0,133)" x2="-5" y2="0" stroke="#888" stroke-width="1" opacity="1"/><line transform="translate(0,100)" x2="-5" y2="0" stroke="#888" stroke-width="1" opacity="1"/><line transform="translate(0,67)" x2="-5" y2="0" stroke="#888" stroke-width="1" opacity="1"/><line transform="translate(0,33)" x2="-5" y2="0" stroke="#888" stroke-width="1" opacity="1"/><line transform="translate(0,0)" x2="-5" y2="0" stroke="#888" stroke-width="1" opacity="1"/></g><g class="mark-text role-axis-label" pointer-events="none"><text text-anchor="end" transform="translate(-7,403)" font-family="sans-serif" font-size="10px" fill="#000" opacity="1">0</text><text text-anchor="end" transform="translate(-7,369.66666666666663)" font-family="sans-serif" font-size="10px" fill="#000" opacity="1">50</text><text text-anchor="end" transform="translate(-7,336.33333333333337)" font-family="sans-serif" font-size="10px" fill="#000" opacity="1">100</text><text text-anchor="end" transform="translate(-7,303)" font-family="sans-serif" font-size="10px" fill="#000" opacity="1">150</text><text text-anchor="end" transform="translate(-7,269.6666666666667)" font-family="sans-serif" font-size="10px" fill="#000" opacity="1">200</text><text text-anchor="end" transform="translate(-7,236.33333333333331)" font-family="sans-serif" font-size="10px" fill="#000" opacity="1">250</text><text text-anchor="end" transform="translate(-7,203)" font-family="sans-serif" font-size="10px" fill="#000" opacity="1">300</text><text text-anchor="end" transform="translate(-7,169.66666666666666)" font-family="sans-serif" font-size="10px" fill="#000" opacity="1">350</text><text text-anchor="end" transform="translate(-7,136.33333333333334)" font-family="sans-serif" font-size="10px" fill="#000" opacity="1">400</text><text text-anchor="end" transform="translate(-7,103)" font-family="sans-serif" font-size="10px" fill="#000" opacity="1">450</text><text text-anchor="end" transform="translate(-7,69.66666666666666)" font-family="sans-serif" font-size="10px" fill="#000" opacity="1">500</text><text text-anchor="end" transform="translate(-7,36.33333333333335)" font-family="sans-serif" font-size="10px" fill="#000" opacity="1">550</text><text text-anchor="end" transform="translate(-7,3)" font-family="sans-serif" font-size="10px" fill="#000" opacity="1">600</text></g><g class="mark-rule role-axis-domain" pointer-events="none"><line transform="translate(0,400)" x2="0" y2="-400" stroke="#888" stroke-width="1" opacity="1"/></g><g class="mark-text role-axis-title" pointer-events="none"><text text-anchor="middle" transform="translate(-27.6845703125,200) rotate(-90) translate(0,-2)" font-family="sans-serif" font-size="11px" font-weight="bold" fill="#000" opacity="1">年間取り崩し額 (万円)</text></g></g><path class="foreground" aria-hidden="true" d="" pointer-events="none" display="none"/></g></g><g class="mark-group role-scope layer_0_pathgroup" role="graphics-object" aria-roledescription="group mark container"><g transform="translate(0,0)"><path class="background" aria-hidden="true" d="M0,0h600v400h-600Z"/><g><g class="mark-area role-mark layer_0_marks" role="graphics-object" aria-roledescription="area mark container"><path aria-label="年齢: 41; 年間取り崩し額 (万円): 478.536350223; spend75p: 485.250710233; 戦略: 定額取り崩し（ベースライン）" role="graphics-symbol" aria-roledescription="area mark" d="M10.909,80.976L21.818,75.146L32.727,68.514L43.636,61.635L54.545,54.647L65.455,48.003L76.364,41.453L87.273,35.017L98.182,28.957L109.091,23.985L120,19.939L130.909,16.878L141.818,15.306L152.727,15.261L163.636,17.184L174.545,20.9L185.455,26.757L196.364,33.249L207.273,40.651L218.182,48.66L229.091,159.534L240,168.008L250.909,176.147L261.818,184.509L272.727,191.947L283.636,200.062L294.545,208.637L305.455,217.618L316.364,227.472L327.273,237.606L338.182,247.951L349.091,257.87L360,267.454L370.909,276.298L381.818,283.311L392.727,289.598L403.636,295.295L414.545,299.747L425.455,303.503L436.364,307.911L447.273,311.271L458.182,313.737L469.091,318.255L480,321.411L490.909,324.935L501.818,330.106L512.727,333.863L523.636,339.498L534.545,344.062L545.455,349.39L556.364,354.932L567.273,360.508L578.182,367.551L589.091,373.123L600,379.496L600,326.196L589.091,321.678L578.182,316.161L567.273,311.425L556.364,306.689L545.455,302.628L534.545,298.393L523.636,294.768L512.727,291.236L501.818,288.254L490.909,285.187L480,282.388L469.091,280.063L458.182,277.929L447.273,275.81L436.364,273.508L425.455,271.076L414.545,267.666L403.636,263.966L392.727,259.218L381.818,253.538L370.909,246.868L360,238.99L349.091,230.698L338.182,221.729L327.273,212.379L316.364,202.885L305.455,194.665L294.545,186.439L283.636,178.463L272.727,171.439L261.818,164.26L250.909,157.12L240,149.33L229.091,141.49L218.182,39.823L207.273,31.818L196.364,24.155L185.455,17.29L174.545,11.5L163.636,7.693L152.727,5.8L141.818,5.915L130.909,7.382L120,10.552L109.091,14.875L98.182,20.59L87.273,26.57L76.364,33.105L65.455,40.15L54.545,47.344L43.636,54.44L32.727,61.689L21.818,69.256L10.909,76.5Z" fill="green" opacity="0.3"/></g></g><path class="foreground" aria-hidden="true" d="" display="none"/></g><g transform="translate(0,0)"><path class="background" aria-hidden="true" d="M0,0h600v400h-600Z"/><g><g class="mark-area role-mark layer_0_marks" role="graphics-object" aria-roledescription="area mark container"><path aria-label="年齢: 41; 年間取り崩し額 (万円): 498.603906665; spend75p: 498.890347629; 戦略: 支出率を目標にする@ダイナミックスペンディング" role="graphics-symbol" aria-roledescription="area mark" d="M10.909,67.597L21.818,72.333L32.727,76.968L43.636,81.541L54.545,86.067L65.455,90.513L76.364,94.901L87.273,99.218L98.182,103.453L109.091,107.562L120,111.338L130.909,111.576L141.818,113.919L152.727,117.764L163.636,121.702L174.545,125.505L185.455,126.984L196.364,127.499L207.273,130.98L218.182,134.431L229.091,228.359L240,228.395L250.909,228.474L261.818,228.835L272.727,229.602L283.636,230.047L294.545,231.672L305.455,232.978L316.364,234.731L327.273,236.968L338.182,238.237L349.091,240.333L360,242.853L370.909,245.228L381.818,249.011L392.727,251.82L403.636,255.209L414.545,259.011L425.455,262.29L436.364,266.019L447.273,268.832L458.182,272.207L469.091,274.906L480,277.613L490.909,281.729L501.818,284.696L512.727,288.174L523.636,290.264L534.545,294.129L545.455,296.904L556.364,300.286L567.273,302.872L578.182,306.519L589.091,309.478L600,313.161L600,162.811L589.091,163.397L578.182,159.517L567.273,163.068L556.364,162.425L545.455,162.132L534.545,161.973L523.636,157.302L512.727,158.405L501.818,156.765L490.909,154.97L480,154.061L469.091,153.239L458.182,152.956L447.273,153.733L436.364,153.275L425.455,152.308L414.545,152.158L403.636,150.897L392.727,149.715L381.818,149.01L370.909,148.018L360,148.233L349.091,147.74L338.182,147.517L327.273,147.914L316.364,148.541L305.455,147.639L294.545,146.064L283.636,146.219L272.727,146.304L261.818,146.645L250.909,148.015L240,149.298L229.091,150.553L218.182,47.679L207.273,49.696L196.364,48.986L185.455,48.113L174.545,51.027L163.636,47.789L152.727,49.769L141.818,51.352L130.909,48.442L120,51.353L109.091,54.428L98.182,55.77L87.273,53.564L76.364,56.531L65.455,59.671L54.545,62.744L43.636,65.748L32.727,61.626L21.818,64.44L10.909,67.406Z" fill="red" opacity="0.3"/></g></g><path class="foreground" aria-hidden="true" d="" display="none"/></g><g transform="translate(0,0)"><path class="background" aria-hidden="true" d="M0,0h600v400h-600Z"/><g><g class="mark-area role-mark layer_0_marks" role="graphics-object" aria-roledescription="area mark container"><path aria-label="年齢: 41; 年間取り崩し額 (万円): 473.626015742; spend75p: 473.912456705; 戦略: 生存確率を目標にする@ダイナミックスペンディング" role="graphics-symbol" aria-roledescription="area mark" d="M10.909,84.249L21.818,87.651L32.727,91.659L43.636,97.089L54.545,102.83L65.455,108.023L76.364,113.506L87.273,119.2L98.182,124.004L109.091,130.04L120,135.789L130.909,139.639L141.818,144.444L152.727,151.046L163.636,156.671L174.545,162.714L185.455,167.995L196.364,172.341L207.273,178.079L218.182,181.022L229.091,279.344L240,283.942L250.909,289.04L261.818,292.1L272.727,297.385L283.636,300.838L294.545,305.976L305.455,309.695L316.364,315.003L327.273,320.866L338.182,326.877L349.091,331.398L360,336.93L370.909,341.962L381.818,345.289L392.727,348.613L403.636,350.902L414.545,352.681L425.455,356.097L436.364,358.293L447.273,361.052L458.182,360.437L469.091,360.764L480,361.755L490.909,361.749L501.818,361.877L512.727,364.499L523.636,366.187L534.545,369.74L545.455,372.396L556.364,375.302L567.273,377.396L578.182,378.388L589.091,380.673L600,381.044L600,201.273L589.091,200.206L578.182,198.435L567.273,197.349L556.364,196.567L545.455,197.535L534.545,198.267L523.636,195.965L512.727,192.964L501.818,195.9L490.909,196.711L480,201.039L469.091,203.84L458.182,206.83L447.273,208.265L436.364,204.408L425.455,206.764L414.545,208.715L403.636,209.673L392.727,208.653L381.818,205.582L370.909,199.066L360,194.946L349.091,191.528L338.182,185.695L327.273,176.343L316.364,172.604L305.455,166.119L294.545,161.578L283.636,159.041L272.727,155.083L261.818,151.695L250.909,149.577L240,148.439L229.091,144.592L218.182,31.778L207.273,29.862L196.364,23.919L185.455,25.803L174.545,24.986L163.636,26.271L152.727,27.329L141.818,31.806L130.909,34.73L120,39.714L109.091,43.422L98.182,45.898L87.273,49.739L76.364,53.888L65.455,58.446L54.545,63.949L43.636,69.022L32.727,74.312L21.818,79.525L10.909,84.058Z" fill="blue" opacity="0.3"/></g></g><path class="foreground" aria-hidden="true" d="" display="none"/></g></g><g class="mark-group role-scope layer_1_pathgroup" role="graphics-object" aria-roledescription="group mark container"><g transform="translate(0,0)"><path class="background" aria-hidden="true" d="M0,0h600v400h-600Z"/><g><g class="mark-line role-mark layer_1_marks" role="graphics-object" aria-roledescription="line mark container"><path aria-label="年齢: 41; spend50p: 481.845245909; group_label: 定額取り崩し（ベースライン）" role="graphics-symbol" aria-roledescription="line mark" d="M10.909,78.77L21.818,72.125L32.727,65.133L43.636,57.99L54.545,51.044L65.455,44.115L76.364,37.255L87.273,30.799L98.182,24.858L109.091,19.608L120,15.29L130.909,12.135L141.818,10.422L152.727,10.282L163.636,12.217L174.545,16.431L185.455,21.876L196.364,28.726L207.273,36.56L218.182,44.178L229.091,149.69L240,157.744L250.909,165.829L261.818,173.145L272.727,180.205L283.636,187.76L294.545,195.54L305.455,203.895L316.364,212.706L327.273,222.201L338.182,232.007L349.091,241.752L360,250.751L370.909,258.658L381.818,265.319L392.727,271.935L403.636,277.098L414.545,281.07L425.455,285.059L436.364,288.453L447.273,291.304L458.182,293.715L469.091,296.588L480,299.828L490.909,302.687L501.818,306.11L512.727,309.858L523.636,313.67L534.545,317.86L545.455,322.68L556.364,327.246L567.273,332.057L578.182,336.965L589.091,342.056L600,347.222" stroke="green" stroke-width="2"/></g></g><path class="foreground" aria-hidden="true" d="" display="none"/></g><g transform="translate(0,0)"><path class="background" aria-hidden="true" d="M0,0h600v400h-600Z"/><g><g class="mark-line role-mark layer_1_marks" role="graphics-object" aria-roledescription="line mark container"><path aria-label="年齢: 41; spend50p: 498.745067292; group_label: 支出率を目標にする@ダイナミックスペンディング" role="graphics-symbol" aria-roledescription="line mark" d="M10.909,67.503L21.818,72.115L32.727,69.491L43.636,73.89L54.545,78.204L65.455,75.822L76.364,80.127L87.273,84.369L98.182,82.189L109.091,86.353L120,90.308L130.909,88.885L141.818,92.22L152.727,92.808L163.636,93.745L174.545,94.909L185.455,95.505L196.364,96.517L207.273,96.655L218.182,95.115L229.091,190.086L240,191.295L250.909,192.453L261.818,193.765L272.727,195.778L283.636,196.544L294.545,198.029L305.455,200.736L316.364,201.302L327.273,203.226L338.182,204.007L349.091,206.063L360,208.872L370.909,212.12L381.818,213.505L392.727,215.164L403.636,217.312L414.545,219.04L425.455,221.453L436.364,224.819L447.273,227.686L458.182,229.454L469.091,232.907L480,235.198L490.909,238.7L501.818,241.634L512.727,244.135L523.636,246.512L534.545,248.481L545.455,249.557L556.364,252.536L567.273,255.978L578.182,257.972L589.091,260.089L600,262.892" stroke="red" stroke-width="2"/></g></g><path class="foreground" aria-hidden="true" d="" display="none"/></g><g transform="translate(0,0)"><path class="background" aria-hidden="true" d="M0,0h600v400h-600Z"/><g><g class="mark-line role-mark layer_1_marks" role="graphics-object" aria-roledescription="line mark container"><path aria-label="年齢: 41; spend50p: 473.767176369; group_label: 生存確率を目標にする@ダイナミックスペンディング" role="graphics-symbol" aria-roledescription="line mark" d="M10.909,84.155L21.818,83.506L32.727,83.059L43.636,82.657L54.545,83.411L65.455,83.989L76.364,84.381L87.273,85.358L98.182,86.643L109.091,87.461L120,89.12L130.909,91.207L141.818,94.044L152.727,98.533L163.636,102.96L174.545,105.11L185.455,106.697L196.364,111.088L207.273,118.569L218.182,122.229L229.091,225.111L240,229.5L250.909,234.618L261.818,238.293L272.727,239.916L283.636,243.406L294.545,249.142L305.455,252.924L316.364,256.701L327.273,262.1L338.182,268.231L349.091,274.363L360,280.649L370.909,283.823L381.818,290.577L392.727,291.929L403.636,295.019L414.545,297.541L425.455,297.44L436.364,298.676L447.273,300.029L458.182,299.358L469.091,299.043L480,299.722L490.909,300.061L501.818,300.422L512.727,302.681L523.636,299.99L534.545,302.789L545.455,304.095L556.364,303.06L567.273,303.379L578.182,307.007L589.091,310.113L600,310.618" stroke="blue" stroke-width="2"/></g></g><path class="foreground" aria-hidden="true" d="" display="none"/></g></g><g class="mark-group role-legend" role="graphics-symbol" aria-roledescription="legend" aria-label="Symbol legend titled '戦略' for fill color and stroke color with 3 values: 支出率を目標にする@ダイナミックスペンディング, 生存確率を目標にする@ダイナミックスペンディング, 定額取り崩し（ベースライン）"><g transform="translate(0,-57)"><path class="background" aria-hidden="true" d="M0,0h470v39h-470Z" pointer-events="none"/><g><g class="mark-group role-legend-entry"><g transform="translate(0,16)"><path class="background" aria-hidden="true" d="M0,0h0v0h0Z" pointer-events="none"/><g><g class="mark-group role-scope" role="graphics-object" aria-roledescription="group mark container"><g transform="translate(0,0)"><path class="background" aria-hidden="true" d="M0,0h146v23h-146Z" pointer-events="none" opacity="1"/><g><g class="mark-symbol role-legend-symbol" pointer-events="none"><path transform="translate(6,6)" d="M5,0A5,5,0,1,1,-5,0A5,5,0,1,1,5,0" fill="red" stroke="red" stroke-width="1.5" opacity="0.3"/></g><g class="mark-text role-legend-label" pointer-events="none"><text text-anchor="start" transform="translate(16,9)" font-family="sans-serif" font-size="10px" fill="#000" opacity="1"><tspan>支出率を目標にする</tspan><tspan x="0" dy="12">ダイナミックスペンディング</tspan></text></g></g><path class="foreground" aria-hidden="true" d="" pointer-events="none" display="none"/></g><g transform="translate(157,0)"><path class="background" aria-hidden="true" d="M0,0h146v23h-146Z" pointer-events="none" opacity="1"/><g><g class="mark-symbol role-legend-symbol" pointer-events="none"><path transform="translate(6,6)" d="M5,0A5,5,0,1,1,-5,0A5,5,0,1,1,5,0" fill="blue" stroke="blue" stroke-width="1.5" opacity="0.3"/></g><g class="mark-text role-legend-label" pointer-events="none"><text text-anchor="start" transform="translate(16,9)" font-family="sans-serif" font-size="10px" fill="#000" opacity="1"><tspan>生存確率を目標にする</tspan><tspan x="0" dy="12">ダイナミックスペンディング</tspan></text></g></g><path class="foreground" aria-hidden="true" d="" pointer-events="none" display="none"/></g><g transform="translate(314,5.25)"><path class="background" aria-hidden="true" d="M0,0h156v12.5h-156Z" pointer-events="none" opacity="1"/><g><g class="mark-symbol role-legend-symbol" pointer-events="none"><path transform="translate(6,6)" d="M5,0A5,5,0,1,1,-5,0A5,5,0,1,1,5,0" fill="green" stroke="green" stroke-width="1.5" opacity="0.3"/></g><g class="mark-text role-legend-label" pointer-events="none"><text text-anchor="start" transform="translate(16,9)" font-family="sans-serif" font-size="10px" fill="#000" opacity="1">定額取り崩し（ベースライン）</text></g></g><path class="foreground" aria-hidden="true" d="" pointer-events="none" display="none"/></g></g></g><path class="foreground" aria-hidden="true" d="" pointer-events="none" display="none"/></g></g><g class="mark-text role-legend-title" pointer-events="none"><text text-anchor="start" transform="translate(0,9)" font-family="sans-serif" font-size="11px" font-weight="bold" fill="#000" opacity="1">戦略</text></g></g><path class="foreground" aria-hidden="true" d="" pointer-events="none" display="none"/></g></g><g class="mark-group role-title"><g transform="translate(300,-74)"><path class="background" aria-hidden="true" d="M0,0h0v0h0Z" pointer-events="none"/><g><g class="mark-text role-title-text" role="graphics-symbol" aria-roledescription="title" aria-label="Title text '実質支出額の推移比較 (初期支出率: 5.0%, 共通生存パスのみ)'" pointer-events="none"><text text-anchor="middle" transform="translate(0,10)" font-family="sans-serif" font-size="13px" font-weight="bold" fill="#000" opacity="1">実質支出額の推移比較 (初期支出率: 5.0%, 共通生存パスのみ)</text></g></g><path class="foreground" aria-hidden="true" d="" pointer-events="none" display="none"/></g></g></g><path class="foreground" aria-hidden="true" d="" display="none"/></g></g></g></svg>