<svg xmlns="http://www.w3.org/2000/svg" xmlns:xlink="http://www.w3.org/1999/xlink" version="1.1" class="marks" width="651" height="516" viewBox="0 0 651 516"><rect width="651" height="516" fill="white"/><g fill="none" stroke-miterlimit="10" transform="translate(44,79)"><g class="mark-group role-frame root" role="graphics-object" aria-roledescription="group mark container"><g transform="translate(0,0)"><path class="background" aria-hidden="true" d="M0.5,0.5h600v400h-600Z" stroke="#ddd"/><g><g class="mark-group role-axis" aria-hidden="true"><g transform="translate(0.5,400.5)"><path class="background" aria-hidden="true" d="M0,0h0v0h0Z" pointer-events="none"/><g><g class="mark-rule role-axis-grid" pointer-events="none"><line transform="translate(0,-400)" x2="0" y2="400" stroke="#ddd" stroke-width="1" opacity="1"/><line transform="translate(55,-400)" x2="0" y2="400" stroke="#ddd" stroke-width="1" opacity="1"/><line transform="translate(109,-400)" x2="0" y2="400" stroke="#ddd" stroke-width="1" opacity="1"/><line transform="translate(164,-400)" x2="0" y2="400" stroke="#ddd" stroke-width="1" opacity="1"/><line transform="translate(218,-400)" x2="0" y2="400" stroke="#ddd" stroke-width="1" opacity="1"/><line transform="translate(273,-400)" x2="0" y2="400" stroke="#ddd" stroke-width="1" opacity="1"/><line transform="translate(327,-400)" x2="0" y2="400" stroke="#ddd" stroke-width="1" opacity="1"/><line transform="translate(382,-400)" x2="0" y2="400" stroke="#ddd" stroke-width="1" opacity="1"/><line transform="translate(436,-400)" x2="0" y2="400" stroke="#ddd" stroke-width="1" opacity="1"/><line transform="translate(491,-400)" x2="0" y2="400" stroke="#ddd" stroke-width="1" opacity="1"/><line transform="translate(545,-400)" x2="0" y2="400" stroke="#ddd" stroke-width="1" opacity="1"/><line transform="translate(600,-400)" x2="0" y2="400" stroke="#ddd" stroke-width="1" opacity="1"/></g></g><path class="foreground" aria-hidden="true" d="" pointer-events="none" display="none"/></g></g><g class="mark-group role-axis" aria-hidden="true"><g transform="translate(0.5,0.5)"><path class="background" aria-hidden="true" d="M0,0h0v0h0Z" pointer-events="none"/><g><g class="mark-rule role-axis-grid" pointer-events="none"><line transform="translate(0,400)" x2="600" y2="0" stroke="#ddd" stroke-width="1" opacity="1"/><line transform="translate(0,367)" x2="600" y2="0" stroke="#ddd" stroke-width="1" opacity="1"/><line transform="translate(0,333)" x2="600" y2="0" stroke="#ddd" stroke-width="1" opacity="1"/><line transform="translate(0,300)" x2="600" y2="0" stroke="#ddd" stroke-width="1" opacity="1"/><line transform="translate(0,267)" x2="600" y2="0" stroke="#ddd" stroke-width="1" opacity="1"/><line transform="translate(0,233)" x2="600" y2="0" stroke="#ddd" stroke-width="1" opacity="1"/><line transform="translate(0,200)" x2="600" y2="0" stroke="#ddd" stroke-width="1" opacity="1"/><line transform="translate(0,167)" x2="600" y2="0" stroke="#ddd" stroke-width="1" opacity="1"/><line transform="translate(0,133)" x2="600" y2="0" stroke="#ddd" stroke-width="1" opacity="1"/><line transform="translate(0,100)" x2="600" y2="0" stroke="#ddd" stroke-width="1" opacity="1"/><line transform="translate(0,67)" x2="600" y2="0" stroke="#ddd" stroke-width="1" opacity="1"/><line transform="translate(0,33)" x2="600" y2="0" stroke="#ddd" stroke-width="1" opacity="1"/><line transform="translate(0,0)" x2="600" y2="0" stroke="#ddd" stroke-width="1" opacity="1"/></g></g><path class="foreground" aria-hidden="true" d="" pointer-events="none" display="none"/></g></g><g class="mark-group role-axis" role="graphics-symbol" aria-roledescription="axis" aria-label="X-axis titled '年齢' for a linear scale with values from 40 to 95"><g transform="translate(0.5,400.5)"><path class="background" aria-hidden="true" d="M0,0h0v0h0Z" pointer-events="none"/><g><g class="mark-rule role-axis-tick" pointer-events="none"><line transform="translate(0,0)" x2="0" y2="5" stroke="#888" stroke-width="1" opacity="1"/><line transform="translate(55,0)" x2="0" y2="5" stroke="#888" stroke-width="1" opacity="1"/><line transform="translate(109,0)" x2="0" y2="5" stroke="#888" stroke-width="1" opacity="1"/><line transform="translate(164,0)" x2="0" y2="5" stroke="#888" stroke-width="1" opacity="1"/><line transform="translate(218,0)" x2="0" y2="5" stroke="#888" stroke-width="1" opacity="1"/><line transform="translate(273,0)" x2="0" y2="5" stroke="#888" stroke-width="1" opacity="1"/><line transform="translate(327,0)" x2="0" y2="5" stroke="#888" stroke-width="1" opacity="1"/><line transform="translate(382,0)" x2="0" y2="5" stroke="#888" stroke-width="1" opacity="1"/><line transform="translate(436,0)" x2="0" y2="5" stroke="#888" stroke-width="1" opacity="1"/><line transform="translate(491,0)" x2="0" y2="5" stroke="#888" stroke-width="1" opacity="1"/><line transform="translate(545,0)" x2="0" y2="5" stroke="#888" stroke-width="1" opacity="1"/><line transform="translate(600,0)" x2="0" y2="5" stroke="#888" stroke-width="1" opacity="1"/></g><g class="mark-text role-axis-label" pointer-events="none"><text text-anchor="start" transform="translate(0,15)" font-family="sans-serif" font-size="10px" fill="#000" opacity="1">40</text><text text-anchor="middle" transform="translate(54.54545454545455,15)" font-family="sans-serif" font-size="10px" fill="#000" opacity="1">45</text><text text-anchor="middle" transform="translate(109.0909090909091,15)" font-family="sans-serif" font-size="10px" fill="#000" opacity="1">50</text><text text-anchor="middle" transform="translate(163.63636363636363,15)" font-family="sans-serif" font-size="10px" fill="#000" opacity="1">55</text><text text-anchor="middle" transform="translate(218.1818181818182,15)" font-family="sans-serif" font-size="10px" fill="#000" opacity="1">60</text><text text-anchor="middle" transform="translate(272.7272727272727,15)" font-family="sans-serif" font-size="10px" fill="#000" opacity="1">65</text><text text-anchor="middle" transform="translate(327.27272727272725,15)" font-family="sans-serif" font-size="10px" fill="#000" opacity="1">70</text><text text-anchor="middle" transform="translate(381.8181818181818,15)" font-family="sans-serif" font-size="10px" fill="#000" opacity="1">75</text><text text-anchor="middle" transform="translate(436.3636363636364,15)" font-family="sans-serif" font-size="10px" fill="#000" opacity="1">80</text><text text-anchor="middle" transform="translate(490.90909090909093,15)" font-family="sans-serif" font-size="10px" fill="#000" opacity="1">85</text><text text-anchor="middle" transform="translate(545.4545454545454,15)" font-family="sans-serif" font-size="10px" fill="#000" opacity="1">90</text><text text-anchor="end" transform="translate(600,15)" font-family="sans-serif" font-size="10px" fill="#000" opacity="1">95</text></g><g class="mark-rule role-axis-domain" pointer-events="none"><line transform="translate(0,0)" x2="600" y2="0" stroke="#888" stroke-width="1" opacity="1"/></g><g class="mark-text role-axis-title" pointer-events="none"><text text-anchor="middle" transform="translate(300,30)" font-family="sans-serif" font-size="11px" font-weight="bold" fill="#000" opacity="1">年齢</text></g></g><path class="foreground" aria-hidden="true" d="" pointer-events="none" display="none"/></g></g><g class="mark-group role-axis" role="graphics-symbol" aria-roledescription="axis" aria-label="Y-axis titled '年間取り崩し額 (万円)' for a linear scale with values from 0 to 600"><g transform="translate(0.5,0.5)"><path class="background" aria-hidden="true" d="M0,0h0v0h0Z" pointer-events="none"/><g><g class="mark-rule role-axis-tick" pointer-events="none"><line transform="translate(0,400)" x2="-5" y2="0" stroke="#888" stroke-width="1" opacity="1"/><line transform="translate(0,367)" x2="-5" y2="0" stroke="#888" stroke-width="1" opacity="1"/><line transform="translate(0,333)" x2="-5" y2="0" stroke="#888" stroke-width="1" opacity="1"/><line transform="translate(0,300)" x2="-5" y2="0" stroke="#888" stroke-width="1" opacity="1"/><line transform="translate(0,267)" x2="-5" y2="0" stroke="#888" stroke-width="1" opacity="1"/><line transform="translate(0,233)" x2="-5" y2="0" stroke="#888" stroke-width="1" opacity="1"/><line transform="translate(0,200)" x2="-5" y2="0" stroke="#888" stroke-width="1" opacity="1"/><line transform="translate(0,167)" x2="-5" y2="0" stroke="#888" stroke-width="1" opacity="1"/><line transform="translate(0,133)" x2="-5" y2="0" stroke="#888" stroke-width="1" opacity="1"/><line transform="translate(0,100)" x2="-5" y2="0" stroke="#888" stroke-width="1" opacity="1"/><line transform="translate(0,67)" x2="-5" y2="0" stroke="#888" stroke-width="1" opacity="1"/><line transform="translate(0,33)" x2="-5" y2="0" stroke="#888" stroke-width="1" opacity="1"/><line transform="translate(0,0)" x2="-5" y2="0" stroke="#888" stroke-width="1" opacity="1"/></g><g class="mark-text role-axis-label" pointer-events="none"><text text-anchor="end" transform="translate(-7,403)" font-family="sans-serif" font-size="10px" fill="#000" opacity="1">0</text><text text-anchor="end" transform="translate(-7,369.66666666666663)" font-family="sans-serif" font-size="10px" fill="#000" opacity="1">50</text><text text-anchor="end" transform="translate(-7,336.33333333333337)" font-family="sans-serif" font-size="10px" fill="#000" opacity="1">100</text><text text-anchor="end" transform="translate(-7,303)" font-family="sans-serif" font-size="10px" fill="#000" opacity="1">150</text><text text-anchor="end" transform="translate(-7,269.6666666666667)" font-family="sans-serif" font-size="10px" fill="#000" opacity="1">200</text><text text-anchor="end" transform="translate(-7,236.33333333333331)" font-family="sans-serif" font-size="10px" fill="#000" opacity="1">250</text><text text-anchor="end" transform="translate(-7,203)" font-family="sans-serif" font-size="10px" fill="#000" opacity="1">300</text><text text-anchor="end" transform="translate(-7,169.66666666666666)" font-family="sans-serif" font-size="10px" fill="#000" opacity="1">350</text><text text-anchor="end" transform="translate(-7,136.33333333333334)" font-family="sans-serif" font-size="10px" fill="#000" opacity="1">400</text><text text-anchor="end" transform="translate(-7,103)" font-family="sans-serif" font-size="10px" fill="#000" opacity="1">450</text><text text-anchor="end" transform="translate(-7,69.66666666666666)" font-family="sans-serif" font-size="10px" fill="#000" opacity="1">500</text><text text-anchor="end" transform="translate(-7,36.33333333333335)" font-family="sans-serif" font-size="10px" fill="#000" opacity="1">550</text><text text-anchor="end" transform="translate(-7,3)" font-family="sans-serif" font-size="10px" fill="#000" opacity="1">600</text></g><g class="mark-rule role-axis-domain" pointer-events="none"><line transform="translate(0,400)" x2="0" y2="-400" stroke="#888" stroke-width="1" opacity="1"/></g><g class="mark-text role-axis-title" pointer-events="none"><text text-anchor="middle" transform="translate(-27.6845703125,200) rotate(-90) translate(0,-2)" font-family="sans-serif" font-size="11px" font-weight="bold" fill="#000" opacity="1">年間取り崩し額 (万円)</text></g></g><path class="foreground" aria-hidden="true" d="" pointer-events="none" display="none"/></g></g><g class="mark-group role-scope layer_0_pathgroup" role="graphics-object" aria-roledescription="group mark container"><g transform="translate(0,0)"><path class="background" aria-hidden="true" d="M0,0h600v400h-600Z"/><g><g class="mark-area role-mark layer_0_marks" role="graphics-object" aria-roledescription="area mark container"><path aria-label="年齢: 41; 年間取り崩し額 (万円): 478.536350223; spend75p: 485.250710233; 戦略: 定額取り崩し（ベースライン）" role="graphics-symbol" aria-roledescription="area mark" d="M10.909,80.976L21.818,75.146L32.727,68.514L43.636,61.635L54.545,54.647L65.455,48.003L76.364,41.453L87.273,35.017L98.182,28.933L109.091,23.981L120,19.934L130.909,16.87L141.818,15.303L152.727,15.239L163.636,17.128L174.545,20.82L185.455,26.739L196.364,33.199L207.273,40.614L218.182,48.508L229.091,159.039L240,167.632L250.909,175.66L261.818,183.555L272.727,191.243L283.636,199.206L294.545,207.818L305.455,216.795L316.364,226.131L327.273,236.161L338.182,246.303L349.091,256.574L360,265.853L370.909,274.584L381.818,281.555L392.727,287.798L403.636,293.142L414.545,297.829L425.455,301.973L436.364,305.697L447.273,309.317L458.182,312.734L469.091,315.388L480,318.748L490.909,322.453L501.818,326.067L512.727,330.717L523.636,334.96L534.545,340.103L545.455,345.858L556.364,351.23L567.273,357.442L578.182,362.181L589.091,367.983L600,372.746L600,320.178L589.091,316.216L578.182,311.824L567.273,307.813L556.364,303.234L545.455,299.485L534.545,295.867L523.636,292.584L512.727,289.24L501.818,286.547L490.909,283.428L480,280.892L469.091,279.06L458.182,276.589L447.273,274.513L436.364,272.632L425.455,270.2L414.545,266.902L403.636,262.918L392.727,258.137L381.818,252.968L370.909,246.081L360,238.391L349.091,230.054L338.182,221.106L327.273,211.517L316.364,202.191L305.455,194.068L294.545,185.862L283.636,177.999L272.727,170.783L261.818,163.347L250.909,156.34L240,148.795L229.091,140.857L218.182,39.745L207.273,31.739L196.364,24.07L185.455,17.125L174.545,11.418L163.636,7.667L152.727,5.81L141.818,5.929L130.909,7.377L120,10.491L109.091,14.867L98.182,20.585L87.273,26.57L76.364,33.105L65.455,40.15L54.545,47.344L43.636,54.44L32.727,61.689L21.818,69.256L10.909,76.5Z" fill="green" opacity="0.3"/></g></g><path class="foreground" aria-hidden="true" d="" display="none"/></g><g transform="translate(0,0)"><path class="background" aria-hidden="true" d="M0,0h600v400h-600Z"/><g><g class="mark-area role-mark layer_0_marks" role="graphics-object" aria-roledescription="area mark container"><path aria-label="年齢: 41; 年間取り崩し額 (万円): 478.203906665; spend75p: 478.490347629; 戦略: 支出率を目標にする@ダイナミックスペンディング" role="graphics-symbol" aria-roledescription="area mark" d="M10.909,81.197L21.818,85.5L32.727,83.124L43.636,87.34L54.545,91.635L65.455,95.817L76.364,97.746L87.273,98.047L98.182,102.133L109.091,106.259L120,110.31L130.909,114.245L141.818,116.733L152.727,116.733L163.636,120.052L174.545,123.7L185.455,124.681L196.364,125.494L207.273,127.868L218.182,126.653L229.091,224.306L240,227.089L250.909,230.587L261.818,234.521L272.727,238.392L283.636,241.893L294.545,245.963L305.455,249.957L316.364,253.53L327.273,257.265L338.182,260.537L349.091,264.759L360,268.127L370.909,271.949L381.818,276.197L392.727,280.074L403.636,284.344L414.545,288.22L425.455,292.1L436.364,296.544L447.273,300.748L458.182,304.744L469.091,309.401L480,313.419L490.909,317.305L501.818,321.811L512.727,325.856L523.636,329.485L534.545,334.046L545.455,337.855L556.364,342.865L567.273,346.423L578.182,351.305L589.091,355.225L600,359.018L600,248.511L589.091,247.203L578.182,246.47L567.273,245.377L556.364,244.55L545.455,244.019L534.545,242.116L523.636,239.724L512.727,238.294L501.818,236.094L490.909,236.086L480,235.242L469.091,235.061L458.182,231.604L447.273,229.486L436.364,226.695L425.455,223.025L414.545,220.63L403.636,216.941L392.727,212.973L381.818,209.788L370.909,206.006L360,202.116L349.091,198.118L338.182,193.234L327.273,191.452L316.364,188.09L305.455,183.524L294.545,178.3L283.636,174.614L272.727,170.477L261.818,167.111L250.909,163.368L240,159.298L229.091,155.431L218.182,44.518L207.273,47.421L196.364,44.212L185.455,46.013L174.545,49.003L163.636,47.363L152.727,47.774L141.818,50.789L130.909,50.847L120,49.649L109.091,52.823L98.182,56.064L87.273,59.287L76.364,62.505L65.455,65.682L54.545,68.828L43.636,71.92L32.727,74.996L21.818,78.021L10.909,81.006Z" fill="red" opacity="0.3"/></g></g><path class="foreground" aria-hidden="true" d="" display="none"/></g><g transform="translate(0,0)"><path class="background" aria-hidden="true" d="M0,0h600v400h-600Z"/><g><g class="mark-area role-mark layer_0_marks" role="graphics-object" aria-roledescription="area mark container"><path aria-label="年齢: 41; 年間取り崩し額 (万円): 473.626015742; spend75p: 473.912456705; 戦略: 生存確率を目標にする@ダイナミックスペンディング" role="graphics-symbol" aria-roledescription="area mark" d="M10.909,84.249L21.818,87.59L32.727,91.547L43.636,96.715L54.545,102.208L65.455,106.83L76.364,112.728L87.273,116.718L98.182,121.909L109.091,127.303L120,131.177L130.909,135.918L141.818,140.758L152.727,146.114L163.636,151.911L174.545,157.271L185.455,163.484L196.364,169.274L207.273,174.662L218.182,177.836L229.091,276.093L240,281.845L250.909,285.69L261.818,290.627L272.727,295.79L283.636,299.774L294.545,304.906L305.455,310.21L316.364,315.141L327.273,320.517L338.182,325.667L349.091,330.954L360,337.241L370.909,341.816L381.818,346.556L392.727,348.565L403.636,351.272L414.545,352.904L425.455,353.606L436.364,355.496L447.273,358.163L458.182,360.259L469.091,359.4L480,359.216L490.909,360.454L501.818,361.812L512.727,364.08L523.636,366.29L534.545,369.055L545.455,372.498L556.364,375.178L567.273,378.235L578.182,382.163L589.091,384.371L600,387.587L600,221.936L589.091,218.265L578.182,212.879L567.273,210.426L556.364,207.429L545.455,204.77L534.545,201.295L523.636,199.905L512.727,199.716L501.818,198.265L490.909,200.576L480,202.913L469.091,207.054L458.182,206.486L447.273,204.922L436.364,205.344L425.455,208.186L414.545,210.521L403.636,208.105L392.727,200.966L381.818,198.946L370.909,194.661L360,190.767L349.091,186.177L338.182,176.583L327.273,172.391L316.364,167.411L305.455,159.84L294.545,154.933L283.636,149.642L272.727,144.278L261.818,140.949L250.909,139.793L240,135.773L229.091,132.831L218.182,19.504L207.273,19.519L196.364,18.269L185.455,16.599L174.545,15.25L163.636,17.856L152.727,20.313L141.818,24.205L130.909,28.152L120,31.899L109.091,37.25L98.182,41.504L87.273,46.347L76.364,51.49L65.455,57.203L54.545,62.4L43.636,68.312L32.727,73.968L21.818,79.495L10.909,84.058Z" fill="blue" opacity="0.3"/></g></g><path class="foreground" aria-hidden="true" d="" display="none"/></g></g><g class="mark-group role-scope layer_1_pathgroup" role="graphics-object" aria-roledescription="group mark container"><g transform="translate(0,0)"><path class="background" aria-hidden="true" d="M0,0h600v400h-600Z"/><g><g class="mark-line role-mark layer_1_marks" role="graphics-object" aria-roledescription="line mark container"><path aria-label="年齢: 41; spend50p: 481.845245909; group_label: 定額取り崩し（ベースライン）" role="graphics-symbol" aria-roledescription="line mark" d="M10.909,78.77L21.818,72.125L32.727,65.133L43.636,57.99L54.545,51.044L65.455,44.115L76.364,37.255L87.273,30.799L98.182,24.848L109.091,19.601L120,15.272L130.909,12.122L141.818,10.398L152.727,10.292L163.636,12.181L174.545,16.277L185.455,21.92L196.364,28.686L207.273,36.398L218.182,44.161L229.091,149.19L240,157.345L250.909,165.302L261.818,172.586L272.727,179.689L283.636,186.897L294.545,194.659L305.455,202.903L316.364,211.92L327.273,221.257L338.182,231.226L349.091,241.029L360,249.752L370.909,257.354L381.818,264.153L392.727,270.32L403.636,275.231L414.545,279.592L425.455,283.3L436.364,286.626L447.273,289.841L458.182,292.244L469.091,294.811L480,297.84L490.909,300.481L501.818,303.972L512.727,307.193L523.636,310.724L534.545,315.12L545.455,319.543L556.364,323.486L567.273,327.959L578.182,332.428L589.091,336.981L600,341.91" stroke="green" stroke-width="2"/></g></g><path class="foreground" aria-hidden="true" d="" display="none"/></g><g transform="translate(0,0)"><path class="background" aria-hidden="true" d="M0,0h600v400h-600Z"/><g><g class="mark-line role-mark layer_1_marks" role="graphics-object" aria-roledescription="line mark container"><path aria-label="年齢: 41; spend50p: 478.345067292; group_label: 支出率を目標にする@ダイナミックスペンディング" role="graphics-symbol" aria-roledescription="line mark" d="M10.909,81.103L21.818,78.208L32.727,75.466L43.636,79.469L54.545,76.71L65.455,78.218L76.364,78.083L87.273,75.263L98.182,76.118L109.091,76.592L120,75.767L130.909,78.165L141.818,80.022L152.727,79.933L163.636,83.696L174.545,83.291L185.455,86.011L196.364,89.828L207.273,90.744L218.182,91.998L229.091,191.22L240,194.79L250.909,198.499L261.818,202.631L272.727,206.897L283.636,211.29L294.545,215.414L305.455,219.446L316.364,224.062L327.273,228.241L338.182,231.662L349.091,235.336L360,239.345L370.909,243.837L381.818,248.315L392.727,252.545L403.636,256.531L414.545,260.65L425.455,264.738L436.364,268.365L447.273,272.65L458.182,276.534L469.091,281.352L480,285.207L490.909,288.278L501.818,292.494L512.727,296.728L523.636,300.993L534.545,305.25L545.455,308.017L556.364,312.004L567.273,316.481L578.182,320.181L589.091,323.094L600,326.752" stroke="red" stroke-width="2"/></g></g><path class="foreground" aria-hidden="true" d="" display="none"/></g><g transform="translate(0,0)"><path class="background" aria-hidden="true" d="M0,0h600v400h-600Z"/><g><g class="mark-line role-mark layer_1_marks" role="graphics-object" aria-roledescription="line mark container"><path aria-label="年齢: 41; spend50p: 473.767176369; group_label: 生存確率を目標にする@ダイナミックスペンディング" role="graphics-symbol" aria-roledescription="line mark" d="M10.909,84.155L21.818,83.448L32.727,82.851L43.636,82.198L54.545,82.584L65.455,82.758L76.364,82.533L87.273,83.444L98.182,83.651L109.091,83.98L120,84.243L130.909,86.062L141.818,89.498L152.727,91.622L163.636,93.859L174.545,97.791L185.455,101.312L196.364,107.658L207.273,109.81L218.182,115.058L229.091,217.58L240,222.87L250.909,226.873L261.818,232.007L272.727,234.996L283.636,240.065L294.545,241.851L305.455,248.76L316.364,254.256L327.273,259.613L338.182,266.874L349.091,271.921L360,277.124L370.909,282.402L381.818,287.216L392.727,291.194L403.636,292.476L414.545,293.503L425.455,294.609L436.364,295.349L447.273,296.439L458.182,299.692L469.091,300.717L480,300.778L490.909,302.606L501.818,301.417L512.727,304.059L523.636,305.81L534.545,307.261L545.455,309.767L556.364,311.668L567.273,312.151L578.182,312.413L589.091,314.413L600,319.349" stroke="blue" stroke-width="2"/></g></g><path class="foreground" aria-hidden="true" d="" display="none"/></g></g><g class="mark-group role-legend" role="graphics-symbol" aria-roledescription="legend" aria-label="Symbol legend titled '戦略' for fill color and stroke color with 3 values: 支出率を目標にする@ダイナミックスペンディング, 生存確率を目標にする@ダイナミックスペンディング, 定額取り崩し（ベースライン）"><g transform="translate(0,-57)"><path class="background" aria-hidden="true" d="M0,0h470v39h-470Z" pointer-events="none"/><g><g class="mark-group role-legend-entry"><g transform="translate(0,16)"><path class="background" aria-hidden="true" d="M0,0h0v0h0Z" pointer-events="none"/><g><g class="mark-group role-scope" role="graphics-object" aria-roledescription="group mark container"><g transform="translate(0,0)"><path class="background" aria-hidden="true" d="M0,0h146v23h-146Z" pointer-events="none" opacity="1"/><g><g class="mark-symbol role-legend-symbol" pointer-events="none"><path transform="translate(6,6)" d="M5,0A5,5,0,1,1,-5,0A5,5,0,1,1,5,0" fill="red" stroke="red" stroke-width="1.5" opacity="0.3"/></g><g class="mark-text role-legend-label" pointer-events="none"><text text-anchor="start" transform="translate(16,9)" font-family="sans-serif" font-size="10px" fill="#000" opacity="1"><tspan>支出率を目標にする</tspan><tspan x="0" dy="12">ダイナミックスペンディング</tspan></text></g></g><path class="foreground" aria-hidden="true" d="" pointer-events="none" display="none"/></g><g transform="translate(157,0)"><path class="background" aria-hidden="true" d="M0,0h146v23h-146Z" pointer-events="none" opacity="1"/><g><g class="mark-symbol role-legend-symbol" pointer-events="none"><path transform="translate(6,6)" d="M5,0A5,5,0,1,1,-5,0A5,5,0,1,1,5,0" fill="blue" stroke="blue" stroke-width="1.5" opacity="0.3"/></g><g class="mark-text role-legend-label" pointer-events="none"><text text-anchor="start" transform="translate(16,9)" font-family="sans-serif" font-size="10px" fill="#000" opacity="1"><tspan>生存確率を目標にする</tspan><tspan x="0" dy="12">ダイナミックスペンディング</tspan></text></g></g><path class="foreground" aria-hidden="true" d="" pointer-events="none" display="none"/></g><g transform="translate(314,5.25)"><path class="background" aria-hidden="true" d="M0,0h156v12.5h-156Z" pointer-events="none" opacity="1"/><g><g class="mark-symbol role-legend-symbol" pointer-events="none"><path transform="translate(6,6)" d="M5,0A5,5,0,1,1,-5,0A5,5,0,1,1,5,0" fill="green" stroke="green" stroke-width="1.5" opacity="0.3"/></g><g class="mark-text role-legend-label" pointer-events="none"><text text-anchor="start" transform="translate(16,9)" font-family="sans-serif" font-size="10px" fill="#000" opacity="1">定額取り崩し（ベースライン）</text></g></g><path class="foreground" aria-hidden="true" d="" pointer-events="none" display="none"/></g></g></g><path class="foreground" aria-hidden="true" d="" pointer-events="none" display="none"/></g></g><g class="mark-text role-legend-title" pointer-events="none"><text text-anchor="start" transform="translate(0,9)" font-family="sans-serif" font-size="11px" font-weight="bold" fill="#000" opacity="1">戦略</text></g></g><path class="foreground" aria-hidden="true" d="" pointer-events="none" display="none"/></g></g><g class="mark-group role-title"><g transform="translate(300,-74)"><path class="background" aria-hidden="true" d="M0,0h0v0h0Z" pointer-events="none"/><g><g class="mark-text role-title-text" role="graphics-symbol" aria-roledescription="title" aria-label="Title text '実質支出額の推移比較 (初期支出率: 4.5%, 共通生存パスのみ)'" pointer-events="none"><text text-anchor="middle" transform="translate(0,10)" font-family="sans-serif" font-size="13px" font-weight="bold" fill="#000" opacity="1">実質支出額の推移比較 (初期支出率: 4.5%, 共通生存パスのみ)</text></g></g><path class="foreground" aria-hidden="true" d="" pointer-events="none" display="none"/></g></g></g><path class="foreground" aria-hidden="true" d="" display="none"/></g></g></g></svg>