<svg xmlns="http://www.w3.org/2000/svg" xmlns:xlink="http://www.w3.org/1999/xlink" version="1.1" class="marks" width="652" height="408" viewBox="0 0 652 408"><rect width="652" height="408" fill="white"/><g fill="none" stroke-miterlimit="10" transform="translate(44,71)"><g class="mark-group role-frame root" role="graphics-object" aria-roledescription="group mark container"><g transform="translate(0,0)"><path class="background" aria-hidden="true" d="M0.5,0.5h600v300h-600Z" stroke="#ddd"/><g><g class="mark-group role-axis" aria-hidden="true"><g transform="translate(0.5,300.5)"><path class="background" aria-hidden="true" d="M0,0h0v0h0Z" pointer-events="none"/><g><g class="mark-rule role-axis-grid" pointer-events="none"><line transform="translate(0,-300)" x2="0" y2="300" stroke="#ddd" stroke-width="1" opacity="1"/><line transform="translate(34,-300)" x2="0" y2="300" stroke="#ddd" stroke-width="1" opacity="1"/><line transform="translate(69,-300)" x2="0" y2="300" stroke="#ddd" stroke-width="1" opacity="1"/><line transform="translate(103,-300)" x2="0" y2="300" stroke="#ddd" stroke-width="1" opacity="1"/><line transform="translate(137,-300)" x2="0" y2="300" stroke="#ddd" stroke-width="1" opacity="1"/><line transform="translate(171,-300)" x2="0" y2="300" stroke="#ddd" stroke-width="1" opacity="1"/><line transform="translate(206,-300)" x2="0" y2="300" stroke="#ddd" stroke-width="1" opacity="1"/><line transform="translate(240,-300)" x2="0" y2="300" stroke="#ddd" stroke-width="1" opacity="1"/><line transform="translate(274,-300)" x2="0" y2="300" stroke="#ddd" stroke-width="1" opacity="1"/><line transform="translate(309,-300)" x2="0" y2="300" stroke="#ddd" stroke-width="1" opacity="1"/><line transform="translate(343,-300)" x2="0" y2="300" stroke="#ddd" stroke-width="1" opacity="1"/><line transform="translate(377,-300)" x2="0" y2="300" stroke="#ddd" stroke-width="1" opacity="1"/><line transform="translate(411,-300)" x2="0" y2="300" stroke="#ddd" stroke-width="1" opacity="1"/><line transform="translate(446,-300)" x2="0" y2="300" stroke="#ddd" stroke-width="1" opacity="1"/><line transform="translate(480,-300)" x2="0" y2="300" stroke="#ddd" stroke-width="1" opacity="1"/><line transform="translate(514,-300)" x2="0" y2="300" stroke="#ddd" stroke-width="1" opacity="1"/><line transform="translate(549,-300)" x2="0" y2="300" stroke="#ddd" stroke-width="1" opacity="1"/><line transform="translate(583,-300)" x2="0" y2="300" stroke="#ddd" stroke-width="1" opacity="1"/></g></g><path class="foreground" aria-hidden="true" d="" pointer-events="none" display="none"/></g></g><g class="mark-group role-axis" aria-hidden="true"><g transform="translate(0.5,0.5)"><path class="background" aria-hidden="true" d="M0,0h0v0h0Z" pointer-events="none"/><g><g class="mark-rule role-axis-grid" pointer-events="none"><line transform="translate(0,300)" x2="600" y2="0" stroke="#ddd" stroke-width="1" opacity="1"/><line transform="translate(0,270)" x2="600" y2="0" stroke="#ddd" stroke-width="1" opacity="1"/><line transform="translate(0,240)" x2="600" y2="0" stroke="#ddd" stroke-width="1" opacity="1"/><line transform="translate(0,210)" x2="600" y2="0" stroke="#ddd" stroke-width="1" opacity="1"/><line transform="translate(0,180)" x2="600" y2="0" stroke="#ddd" stroke-width="1" opacity="1"/><line transform="translate(0,150)" x2="600" y2="0" stroke="#ddd" stroke-width="1" opacity="1"/><line transform="translate(0,120)" x2="600" y2="0" stroke="#ddd" stroke-width="1" opacity="1"/><line transform="translate(0,90)" x2="600" y2="0" stroke="#ddd" stroke-width="1" opacity="1"/><line transform="translate(0,60)" x2="600" y2="0" stroke="#ddd" stroke-width="1" opacity="1"/><line transform="translate(0,30)" x2="600" y2="0" stroke="#ddd" stroke-width="1" opacity="1"/><line transform="translate(0,0)" x2="600" y2="0" stroke="#ddd" stroke-width="1" opacity="1"/></g></g><path class="foreground" aria-hidden="true" d="" pointer-events="none" display="none"/></g></g><g class="mark-group role-axis" role="graphics-symbol" aria-roledescription="axis" aria-label="X-axis titled '年齢' for a linear scale with values from 60 to 95"><g transform="translate(0.5,300.5)"><path class="background" aria-hidden="true" d="M0,0h0v0h0Z" pointer-events="none"/><g><g class="mark-rule role-axis-tick" pointer-events="none"><line transform="translate(0,0)" x2="0" y2="5" stroke="#888" stroke-width="1" opacity="1"/><line transform="translate(34,0)" x2="0" y2="5" stroke="#888" stroke-width="1" opacity="1"/><line transform="translate(69,0)" x2="0" y2="5" stroke="#888" stroke-width="1" opacity="1"/><line transform="translate(103,0)" x2="0" y2="5" stroke="#888" stroke-width="1" opacity="1"/><line transform="translate(137,0)" x2="0" y2="5" stroke="#888" stroke-width="1" opacity="1"/><line transform="translate(171,0)" x2="0" y2="5" stroke="#888" stroke-width="1" opacity="1"/><line transform="translate(206,0)" x2="0" y2="5" stroke="#888" stroke-width="1" opacity="1"/><line transform="translate(240,0)" x2="0" y2="5" stroke="#888" stroke-width="1" opacity="1"/><line transform="translate(274,0)" x2="0" y2="5" stroke="#888" stroke-width="1" opacity="1"/><line transform="translate(309,0)" x2="0" y2="5" stroke="#888" stroke-width="1" opacity="1"/><line transform="translate(343,0)" x2="0" y2="5" stroke="#888" stroke-width="1" opacity="1"/><line transform="translate(377,0)" x2="0" y2="5" stroke="#888" stroke-width="1" opacity="1"/><line transform="translate(411,0)" x2="0" y2="5" stroke="#888" stroke-width="1" opacity="1"/><line transform="translate(446,0)" x2="0" y2="5" stroke="#888" stroke-width="1" opacity="1"/><line transform="translate(480,0)" x2="0" y2="5" stroke="#888" stroke-width="1" opacity="1"/><line transform="translate(514,0)" x2="0" y2="5" stroke="#888" stroke-width="1" opacity="1"/><line transform="translate(549,0)" x2="0" y2="5" stroke="#888" stroke-width="1" opacity="1"/><line transform="translate(583,0)" x2="0" y2="5" stroke="#888" stroke-width="1" opacity="1"/></g><g class="mark-text role-axis-label" pointer-events="none"><text text-anchor="start" transform="translate(0,15)" font-family="sans-serif" font-size="10px" fill="#000" opacity="1">60</text><text text-anchor="middle" transform="translate(34.285714285714285,15)" font-family="sans-serif" font-size="10px" fill="#000" opacity="1">62</text><text text-anchor="middle" transform="translate(68.57142857142857,15)" font-family="sans-serif" font-size="10px" fill="#000" opacity="1">64</text><text text-anchor="middle" transform="translate(102.85714285714286,15)" font-family="sans-serif" font-size="10px" fill="#000" opacity="1">66</text><text text-anchor="middle" transform="translate(137.14285714285714,15)" font-family="sans-serif" font-size="10px" fill="#000" opacity="1">68</text><text text-anchor="middle" transform="translate(171.42857142857142,15)" font-family="sans-serif" font-size="10px" fill="#000" opacity="1">70</text><text text-anchor="middle" transform="translate(205.71428571428572,15)" font-family="sans-serif" font-size="10px" fill="#000" opacity="1">72</text><text text-anchor="middle" transform="translate(240,15)" font-family="sans-serif" font-size="10px" fill="#000" opacity="1">74</text><text text-anchor="middle" transform="translate(274.2857142857143,15)" font-family="sans-serif" font-size="10px" fill="#000" opacity="1">76</text><text text-anchor="middle" transform="translate(308.57142857142856,15)" font-family="sans-serif" font-size="10px" fill="#000" opacity="1">78</text><text text-anchor="middle" transform="translate(342.85714285714283,15)" font-family="sans-serif" font-size="10px" fill="#000" opacity="1">80</text><text text-anchor="middle" transform="translate(377.1428571428571,15)" font-family="sans-serif" font-size="10px" fill="#000" opacity="1">82</text><text text-anchor="middle" transform="translate(411.42857142857144,15)" font-family="sans-serif" font-size="10px" fill="#000" opacity="1">84</text><text text-anchor="middle" transform="translate(445.7142857142857,15)" font-family="sans-serif" font-size="10px" fill="#000" opacity="1">86</text><text text-anchor="middle" transform="translate(480,15)" font-family="sans-serif" font-size="10px" fill="#000" opacity="1">88</text><text text-anchor="middle" transform="translate(514.2857142857142,15)" font-family="sans-serif" font-size="10px" fill="#000" opacity="1">90</text><text text-anchor="middle" transform="translate(548.5714285714286,15)" font-family="sans-serif" font-size="10px" fill="#000" opacity="1">92</text><text text-anchor="middle" transform="translate(582.8571428571429,15)" font-family="sans-serif" font-size="10px" fill="#000" opacity="1">94</text></g><g class="mark-rule role-axis-domain" pointer-events="none"><line transform="translate(0,0)" x2="600" y2="0" stroke="#888" stroke-width="1" opacity="1"/></g><g class="mark-text role-axis-title" pointer-events="none"><text text-anchor="middle" transform="translate(300,30)" font-family="sans-serif" font-size="11px" font-weight="bold" fill="#000" opacity="1">年齢</text></g></g><path class="foreground" aria-hidden="true" d="" pointer-events="none" display="none"/></g></g><g class="mark-group role-axis" role="graphics-symbol" aria-roledescription="axis" aria-label="Y-axis titled '生存確率 (%)' for a linear scale with values from 80 to 100"><g transform="translate(0.5,0.5)"><path class="background" aria-hidden="true" d="M0,0h0v0h0Z" pointer-events="none"/><g><g class="mark-rule role-axis-tick" pointer-events="none"><line transform="translate(0,300)" x2="-5" y2="0" stroke="#888" stroke-width="1" opacity="1"/><line transform="translate(0,270)" x2="-5" y2="0" stroke="#888" stroke-width="1" opacity="1"/><line transform="translate(0,240)" x2="-5" y2="0" stroke="#888" stroke-width="1" opacity="1"/><line transform="translate(0,210)" x2="-5" y2="0" stroke="#888" stroke-width="1" opacity="1"/><line transform="translate(0,180)" x2="-5" y2="0" stroke="#888" stroke-width="1" opacity="1"/><line transform="translate(0,150)" x2="-5" y2="0" stroke="#888" stroke-width="1" opacity="1"/><line transform="translate(0,120)" x2="-5" y2="0" stroke="#888" stroke-width="1" opacity="1"/><line transform="translate(0,90)" x2="-5" y2="0" stroke="#888" stroke-width="1" opacity="1"/><line transform="translate(0,60)" x2="-5" y2="0" stroke="#888" stroke-width="1" opacity="1"/><line transform="translate(0,30)" x2="-5" y2="0" stroke="#888" stroke-width="1" opacity="1"/><line transform="translate(0,0)" x2="-5" y2="0" stroke="#888" stroke-width="1" opacity="1"/></g><g class="mark-text role-axis-label" pointer-events="none"><text text-anchor="end" transform="translate(-7,303)" font-family="sans-serif" font-size="10px" fill="#000" opacity="1">80</text><text text-anchor="end" transform="translate(-7,273)" font-family="sans-serif" font-size="10px" fill="#000" opacity="1">82</text><text text-anchor="end" transform="translate(-7,243)" font-family="sans-serif" font-size="10px" fill="#000" opacity="1">84</text><text text-anchor="end" transform="translate(-7,213)" font-family="sans-serif" font-size="10px" fill="#000" opacity="1">86</text><text text-anchor="end" transform="translate(-7,183)" font-family="sans-serif" font-size="10px" fill="#000" opacity="1">88</text><text text-anchor="end" transform="translate(-7,153)" font-family="sans-serif" font-size="10px" fill="#000" opacity="1">90</text><text text-anchor="end" transform="translate(-7,123)" font-family="sans-serif" font-size="10px" fill="#000" opacity="1">92</text><text text-anchor="end" transform="translate(-7,93.00000000000001)" font-family="sans-serif" font-size="10px" fill="#000" opacity="1">94</text><text text-anchor="end" transform="translate(-7,62.999999999999986)" font-family="sans-serif" font-size="10px" fill="#000" opacity="1">96</text><text text-anchor="end" transform="translate(-7,32.99999999999999)" font-family="sans-serif" font-size="10px" fill="#000" opacity="1">98</text><text text-anchor="end" transform="translate(-7,3)" font-family="sans-serif" font-size="10px" fill="#000" opacity="1">100</text></g><g class="mark-rule role-axis-domain" pointer-events="none"><line transform="translate(0,300)" x2="0" y2="-300" stroke="#888" stroke-width="1" opacity="1"/></g><g class="mark-text role-axis-title" pointer-events="none"><text text-anchor="middle" transform="translate(-27.6845703125,150) rotate(-90) translate(0,-2)" font-family="sans-serif" font-size="11px" font-weight="bold" fill="#000" opacity="1">生存確率 (%)</text></g></g><path class="foreground" aria-hidden="true" d="" pointer-events="none" display="none"/></g></g><g class="mark-group role-scope layer_0_pathgroup" role="graphics-object" aria-roledescription="group mark container"><g transform="translate(0,0)"><path class="background" aria-hidden="true" d="M0,0h600v300h-600Z"/><g><g class="mark-line role-mark layer_0_marks" role="graphics-object" aria-roledescription="line mark container"><path aria-label="年齢: 60; 生存確率 (%): 100; Strategy: pen70-ds; Age: 60; Survival Probability (%): 100.0" role="graphics-symbol" aria-roledescription="line mark" d="M0,0L17.143,0L34.286,0L51.429,0L68.571,0L85.714,0L102.857,0L120,0L137.143,0L154.286,0L171.429,1.5L188.571,1.5L205.714,4.5L222.857,4.5L240,5.25L257.143,7.5L274.286,9.75L291.429,11.25L308.571,12.75L325.714,17.25L342.857,19.5L360,21L377.143,24L394.286,27L411.429,30L428.571,34.5L445.714,41.25L462.857,42.75L480,45.75L497.143,51L514.286,54.75L531.429,57.75L548.571,57.75L565.714,59.25L582.857,62.25L600,64.5" stroke="#4c78a8" stroke-width="2"/></g></g><path class="foreground" aria-hidden="true" d="" display="none"/></g><g transform="translate(0,0)"><path class="background" aria-hidden="true" d="M0,0h600v300h-600Z"/><g><g class="mark-line role-mark layer_0_marks" role="graphics-object" aria-roledescription="line mark container"><path aria-label="年齢: 60; 生存確率 (%): 100; Strategy: pen70-formula; Age: 60; Survival Probability (%): 100.0" role="graphics-symbol" aria-roledescription="line mark" d="M0,0L17.143,0L34.286,0L51.429,0L68.571,0L85.714,0L102.857,0L120,0L137.143,0L154.286,1.5L171.429,4.5L188.571,5.25L205.714,7.5L222.857,13.5L240,17.25L257.143,25.5L274.286,36.75L291.429,47.25L308.571,57.75L325.714,67.5L342.857,75L360,81L377.143,93.75L394.286,104.25L411.429,111.75L428.571,121.5L445.714,134.25L462.857,153.75L480,165.75L497.143,178.5L514.286,193.5L531.429,210L548.571,223.5L565.714,235.5L582.857,252L600,271.5" stroke="#f58518" stroke-width="2"/></g></g><path class="foreground" aria-hidden="true" d="" display="none"/></g></g><g class="mark-symbol role-mark layer_1_marks" role="graphics-object" aria-roledescription="symbol mark container"><path aria-label="年齢: 60; 生存確率 (%): 100; Strategy: pen70-ds; Age: 60; Survival Probability (%): 100.0" role="graphics-symbol" aria-roledescription="point" transform="translate(0,0)" d="M2.739,0A2.739,2.739,0,1,1,-2.739,0A2.739,2.739,0,1,1,2.739,0" fill="#4c78a8" stroke-width="2" opacity="1"/><path aria-label="年齢: 60; 生存確率 (%): 100; Strategy: pen70-formula; Age: 60; Survival Probability (%): 100.0" role="graphics-symbol" aria-roledescription="point" transform="translate(0,0)" d="M2.739,0A2.739,2.739,0,1,1,-2.739,0A2.739,2.739,0,1,1,2.739,0" fill="#f58518" stroke-width="2" opacity="1"/><path aria-label="年齢: 61; 生存確率 (%): 100; Strategy: pen70-ds; Age: 61; Survival Probability (%): 100.0" role="graphics-symbol" aria-roledescription="point" transform="translate(17.142857142857142,0)" d="M2.739,0A2.739,2.739,0,1,1,-2.739,0A2.739,2.739,0,1,1,2.739,0" fill="#4c78a8" stroke-width="2" opacity="1"/><path aria-label="年齢: 61; 生存確率 (%): 100; Strategy: pen70-formula; Age: 61; Survival Probability (%): 100.0" role="graphics-symbol" aria-roledescription="point" transform="translate(17.142857142857142,0)" d="M2.739,0A2.739,2.739,0,1,1,-2.739,0A2.739,2.739,0,1,1,2.739,0" fill="#f58518" stroke-width="2" opacity="1"/><path aria-label="年齢: 62; 生存確率 (%): 100; Strategy: pen70-ds; Age: 62; Survival Probability (%): 100.0" role="graphics-symbol" aria-roledescription="point" transform="translate(34.285714285714285,0)" d="M2.739,0A2.739,2.739,0,1,1,-2.739,0A2.739,2.739,0,1,1,2.739,0" fill="#4c78a8" stroke-width="2" opacity="1"/><path aria-label="年齢: 62; 生存確率 (%): 100; Strategy: pen70-formula; Age: 62; Survival Probability (%): 100.0" role="graphics-symbol" aria-roledescription="point" transform="translate(34.285714285714285,0)" d="M2.739,0A2.739,2.739,0,1,1,-2.739,0A2.739,2.739,0,1,1,2.739,0" fill="#f58518" stroke-width="2" opacity="1"/><path aria-label="年齢: 63; 生存確率 (%): 100; Strategy: pen70-ds; Age: 63; Survival Probability (%): 100.0" role="graphics-symbol" aria-roledescription="point" transform="translate(51.42857142857143,0)" d="M2.739,0A2.739,2.739,0,1,1,-2.739,0A2.739,2.739,0,1,1,2.739,0" fill="#4c78a8" stroke-width="2" opacity="1"/><path aria-label="年齢: 63; 生存確率 (%): 100; Strategy: pen70-formula; Age: 63; Survival Probability (%): 100.0" role="graphics-symbol" aria-roledescription="point" transform="translate(51.42857142857143,0)" d="M2.739,0A2.739,2.739,0,1,1,-2.739,0A2.739,2.739,0,1,1,2.739,0" fill="#f58518" stroke-width="2" opacity="1"/><path aria-label="年齢: 64; 生存確率 (%): 100; Strategy: pen70-ds; Age: 64; Survival Probability (%): 100.0" role="graphics-symbol" aria-roledescription="point" transform="translate(68.57142857142857,0)" d="M2.739,0A2.739,2.739,0,1,1,-2.739,0A2.739,2.739,0,1,1,2.739,0" fill="#4c78a8" stroke-width="2" opacity="1"/><path aria-label="年齢: 64; 生存確率 (%): 100; Strategy: pen70-formula; Age: 64; Survival Probability (%): 100.0" role="graphics-symbol" aria-roledescription="point" transform="translate(68.57142857142857,0)" d="M2.739,0A2.739,2.739,0,1,1,-2.739,0A2.739,2.739,0,1,1,2.739,0" fill="#f58518" stroke-width="2" opacity="1"/><path aria-label="年齢: 65; 生存確率 (%): 100; Strategy: pen70-ds; Age: 65; Survival Probability (%): 100.0" role="graphics-symbol" aria-roledescription="point" transform="translate(85.71428571428571,0)" d="M2.739,0A2.739,2.739,0,1,1,-2.739,0A2.739,2.739,0,1,1,2.739,0" fill="#4c78a8" stroke-width="2" opacity="1"/><path aria-label="年齢: 65; 生存確率 (%): 100; Strategy: pen70-formula; Age: 65; Survival Probability (%): 100.0" role="graphics-symbol" aria-roledescription="point" transform="translate(85.71428571428571,0)" d="M2.739,0A2.739,2.739,0,1,1,-2.739,0A2.739,2.739,0,1,1,2.739,0" fill="#f58518" stroke-width="2" opacity="1"/><path aria-label="年齢: 66; 生存確率 (%): 100; Strategy: pen70-ds; Age: 66; Survival Probability (%): 100.0" role="graphics-symbol" aria-roledescription="point" transform="translate(102.85714285714286,0)" d="M2.739,0A2.739,2.739,0,1,1,-2.739,0A2.739,2.739,0,1,1,2.739,0" fill="#4c78a8" stroke-width="2" opacity="1"/><path aria-label="年齢: 66; 生存確率 (%): 100; Strategy: pen70-formula; Age: 66; Survival Probability (%): 100.0" role="graphics-symbol" aria-roledescription="point" transform="translate(102.85714285714286,0)" d="M2.739,0A2.739,2.739,0,1,1,-2.739,0A2.739,2.739,0,1,1,2.739,0" fill="#f58518" stroke-width="2" opacity="1"/><path aria-label="年齢: 67; 生存確率 (%): 100; Strategy: pen70-ds; Age: 67; Survival Probability (%): 100.0" role="graphics-symbol" aria-roledescription="point" transform="translate(120,0)" d="M2.739,0A2.739,2.739,0,1,1,-2.739,0A2.739,2.739,0,1,1,2.739,0" fill="#4c78a8" stroke-width="2" opacity="1"/><path aria-label="年齢: 67; 生存確率 (%): 100; Strategy: pen70-formula; Age: 67; Survival Probability (%): 100.0" role="graphics-symbol" aria-roledescription="point" transform="translate(120,0)" d="M2.739,0A2.739,2.739,0,1,1,-2.739,0A2.739,2.739,0,1,1,2.739,0" fill="#f58518" stroke-width="2" opacity="1"/><path aria-label="年齢: 68; 生存確率 (%): 100; Strategy: pen70-ds; Age: 68; Survival Probability (%): 100.0" role="graphics-symbol" aria-roledescription="point" transform="translate(137.14285714285714,0)" d="M2.739,0A2.739,2.739,0,1,1,-2.739,0A2.739,2.739,0,1,1,2.739,0" fill="#4c78a8" stroke-width="2" opacity="1"/><path aria-label="年齢: 68; 生存確率 (%): 100; Strategy: pen70-formula; Age: 68; Survival Probability (%): 100.0" role="graphics-symbol" aria-roledescription="point" transform="translate(137.14285714285714,0)" d="M2.739,0A2.739,2.739,0,1,1,-2.739,0A2.739,2.739,0,1,1,2.739,0" fill="#f58518" stroke-width="2" opacity="1"/><path aria-label="年齢: 69; 生存確率 (%): 100; Strategy: pen70-ds; Age: 69; Survival Probability (%): 100.0" role="graphics-symbol" aria-roledescription="point" transform="translate(154.28571428571428,0)" d="M2.739,0A2.739,2.739,0,1,1,-2.739,0A2.739,2.739,0,1,1,2.739,0" fill="#4c78a8" stroke-width="2" opacity="1"/><path aria-label="年齢: 69; 生存確率 (%): 99.9; Strategy: pen70-formula; Age: 69; Survival Probability (%): 99.9" role="graphics-symbol" aria-roledescription="point" transform="translate(154.28571428571428,1.4999999999999014)" d="M2.739,0A2.739,2.739,0,1,1,-2.739,0A2.739,2.739,0,1,1,2.739,0" fill="#f58518" stroke-width="2" opacity="1"/><path aria-label="年齢: 70; 生存確率 (%): 99.9; Strategy: pen70-ds; Age: 70; Survival Probability (%): 99.9" role="graphics-symbol" aria-roledescription="point" transform="translate(171.42857142857142,1.4999999999999014)" d="M2.739,0A2.739,2.739,0,1,1,-2.739,0A2.739,2.739,0,1,1,2.739,0" fill="#4c78a8" stroke-width="2" opacity="1"/><path aria-label="年齢: 70; 生存確率 (%): 99.7; Strategy: pen70-formula; Age: 70; Survival Probability (%): 99.7" role="graphics-symbol" aria-roledescription="point" transform="translate(171.42857142857142,4.499999999999971)" d="M2.739,0A2.739,2.739,0,1,1,-2.739,0A2.739,2.739,0,1,1,2.739,0" fill="#f58518" stroke-width="2" opacity="1"/><path aria-label="年齢: 71; 生存確率 (%): 99.9; Strategy: pen70-ds; Age: 71; Survival Probability (%): 99.9" role="graphics-symbol" aria-roledescription="point" transform="translate(188.57142857142856,1.4999999999999014)" d="M2.739,0A2.739,2.739,0,1,1,-2.739,0A2.739,2.739,0,1,1,2.739,0" fill="#4c78a8" stroke-width="2" opacity="1"/><path aria-label="年齢: 71; 生存確率 (%): 99.65; Strategy: pen70-formula; Age: 71; Survival Probability (%): 99.7" role="graphics-symbol" aria-roledescription="point" transform="translate(188.57142857142856,5.249999999999922)" d="M2.739,0A2.739,2.739,0,1,1,-2.739,0A2.739,2.739,0,1,1,2.739,0" fill="#f58518" stroke-width="2" opacity="1"/><path aria-label="年齢: 72; 生存確率 (%): 99.7; Strategy: pen70-ds; Age: 72; Survival Probability (%): 99.7" role="graphics-symbol" aria-roledescription="point" transform="translate(205.71428571428572,4.499999999999971)" d="M2.739,0A2.739,2.739,0,1,1,-2.739,0A2.739,2.739,0,1,1,2.739,0" fill="#4c78a8" stroke-width="2" opacity="1"/><path aria-label="年齢: 72; 生存確率 (%): 99.5; Strategy: pen70-formula; Age: 72; Survival Probability (%): 99.5" role="graphics-symbol" aria-roledescription="point" transform="translate(205.71428571428572,7.500000000000007)" d="M2.739,0A2.739,2.739,0,1,1,-2.739,0A2.739,2.739,0,1,1,2.739,0" fill="#f58518" stroke-width="2" opacity="1"/><path aria-label="年齢: 73; 生存確率 (%): 99.7; Strategy: pen70-ds; Age: 73; Survival Probability (%): 99.7" role="graphics-symbol" aria-roledescription="point" transform="translate(222.85714285714286,4.499999999999971)" d="M2.739,0A2.739,2.739,0,1,1,-2.739,0A2.739,2.739,0,1,1,2.739,0" fill="#4c78a8" stroke-width="2" opacity="1"/><path aria-label="年齢: 73; 生存確率 (%): 99.1; Strategy: pen70-formula; Age: 73; Survival Probability (%): 99.1" role="graphics-symbol" aria-roledescription="point" transform="translate(222.85714285714286,13.500000000000078)" d="M2.739,0A2.739,2.739,0,1,1,-2.739,0A2.739,2.739,0,1,1,2.739,0" fill="#f58518" stroke-width="2" opacity="1"/><path aria-label="年齢: 74; 生存確率 (%): 99.65; Strategy: pen70-ds; Age: 74; Survival Probability (%): 99.7" role="graphics-symbol" aria-roledescription="point" transform="translate(240,5.249999999999922)" d="M2.739,0A2.739,2.739,0,1,1,-2.739,0A2.739,2.739,0,1,1,2.739,0" fill="#4c78a8" stroke-width="2" opacity="1"/><path aria-label="年齢: 74; 生存確率 (%): 98.85; Strategy: pen70-formula; Age: 74; Survival Probability (%): 98.9" role="graphics-symbol" aria-roledescription="point" transform="translate(240,17.249999999999865)" d="M2.739,0A2.739,2.739,0,1,1,-2.739,0A2.739,2.739,0,1,1,2.739,0" fill="#f58518" stroke-width="2" opacity="1"/><path aria-label="年齢: 75; 生存確率 (%): 99.5; Strategy: pen70-ds; Age: 75; Survival Probability (%): 99.5" role="graphics-symbol" aria-roledescription="point" transform="translate(257.1428571428571,7.500000000000007)" d="M2.739,0A2.739,2.739,0,1,1,-2.739,0A2.739,2.739,0,1,1,2.739,0" fill="#4c78a8" stroke-width="2" opacity="1"/><path aria-label="年齢: 75; 生存確率 (%): 98.3; Strategy: pen70-formula; Age: 75; Survival Probability (%): 98.3" role="graphics-symbol" aria-roledescription="point" transform="translate(257.1428571428571,25.500000000000057)" d="M2.739,0A2.739,2.739,0,1,1,-2.739,0A2.739,2.739,0,1,1,2.739,0" fill="#f58518" stroke-width="2" opacity="1"/><path aria-label="年齢: 76; 生存確率 (%): 99.35; Strategy: pen70-ds; Age: 76; Survival Probability (%): 99.4" role="graphics-symbol" aria-roledescription="point" transform="translate(274.2857142857143,9.749999999999858)" d="M2.739,0A2.739,2.739,0,1,1,-2.739,0A2.739,2.739,0,1,1,2.739,0" fill="#4c78a8" stroke-width="2" opacity="1"/><path aria-label="年齢: 76; 生存確率 (%): 97.55; Strategy: pen70-formula; Age: 76; Survival Probability (%): 97.5" role="graphics-symbol" aria-roledescription="point" transform="translate(274.2857142857143,36.75000000000005)" d="M2.739,0A2.739,2.739,0,1,1,-2.739,0A2.739,2.739,0,1,1,2.739,0" fill="#f58518" stroke-width="2" opacity="1"/><path aria-label="年齢: 77; 生存確率 (%): 99.25; Strategy: pen70-ds; Age: 77; Survival Probability (%): 99.3" role="graphics-symbol" aria-roledescription="point" transform="translate(291.42857142857144,11.249999999999993)" d="M2.739,0A2.739,2.739,0,1,1,-2.739,0A2.739,2.739,0,1,1,2.739,0" fill="#4c78a8" stroke-width="2" opacity="1"/><path aria-label="年齢: 77; 生存確率 (%): 96.85; Strategy: pen70-formula; Age: 77; Survival Probability (%): 96.9" role="graphics-symbol" aria-roledescription="point" transform="translate(291.42857142857144,47.24999999999986)" d="M2.739,0A2.739,2.739,0,1,1,-2.739,0A2.739,2.739,0,1,1,2.739,0" fill="#f58518" stroke-width="2" opacity="1"/><path aria-label="年齢: 78; 生存確率 (%): 99.15; Strategy: pen70-ds; Age: 78; Survival Probability (%): 99.2" role="graphics-symbol" aria-roledescription="point" transform="translate(308.57142857142856,12.749999999999929)" d="M2.739,0A2.739,2.739,0,1,1,-2.739,0A2.739,2.739,0,1,1,2.739,0" fill="#4c78a8" stroke-width="2" opacity="1"/><path aria-label="年齢: 78; 生存確率 (%): 96.15; Strategy: pen70-formula; Age: 78; Survival Probability (%): 96.2" role="graphics-symbol" aria-roledescription="point" transform="translate(308.57142857142856,57.7499999999999)" d="M2.739,0A2.739,2.739,0,1,1,-2.739,0A2.739,2.739,0,1,1,2.739,0" fill="#f58518" stroke-width="2" opacity="1"/><path aria-label="年齢: 79; 生存確率 (%): 98.85; Strategy: pen70-ds; Age: 79; Survival Probability (%): 98.9" role="graphics-symbol" aria-roledescription="point" transform="translate(325.71428571428567,17.249999999999865)" d="M2.739,0A2.739,2.739,0,1,1,-2.739,0A2.739,2.739,0,1,1,2.739,0" fill="#4c78a8" stroke-width="2" opacity="1"/><path aria-label="年齢: 79; 生存確率 (%): 95.5; Strategy: pen70-formula; Age: 79; Survival Probability (%): 95.5" role="graphics-symbol" aria-roledescription="point" transform="translate(325.71428571428567,67.5)" d="M2.739,0A2.739,2.739,0,1,1,-2.739,0A2.739,2.739,0,1,1,2.739,0" fill="#f58518" stroke-width="2" opacity="1"/><path aria-label="年齢: 80; 生存確率 (%): 98.7; Strategy: pen70-ds; Age: 80; Survival Probability (%): 98.7" role="graphics-symbol" aria-roledescription="point" transform="translate(342.85714285714283,19.49999999999995)" d="M2.739,0A2.739,2.739,0,1,1,-2.739,0A2.739,2.739,0,1,1,2.739,0" fill="#4c78a8" stroke-width="2" opacity="1"/><path aria-label="年齢: 80; 生存確率 (%): 95; Strategy: pen70-formula; Age: 80; Survival Probability (%): 95.0" role="graphics-symbol" aria-roledescription="point" transform="translate(342.85714285714283,75)" d="M2.739,0A2.739,2.739,0,1,1,-2.739,0A2.739,2.739,0,1,1,2.739,0" fill="#f58518" stroke-width="2" opacity="1"/><path aria-label="年齢: 81; 生存確率 (%): 98.6; Strategy: pen70-ds; Age: 81; Survival Probability (%): 98.6" role="graphics-symbol" aria-roledescription="point" transform="translate(360,21.000000000000085)" d="M2.739,0A2.739,2.739,0,1,1,-2.739,0A2.739,2.739,0,1,1,2.739,0" fill="#4c78a8" stroke-width="2" opacity="1"/><path aria-label="年齢: 81; 生存確率 (%): 94.6; Strategy: pen70-formula; Age: 81; Survival Probability (%): 94.6" role="graphics-symbol" aria-roledescription="point" transform="translate(360,81.00000000000007)" d="M2.739,0A2.739,2.739,0,1,1,-2.739,0A2.739,2.739,0,1,1,2.739,0" fill="#f58518" stroke-width="2" opacity="1"/><path aria-label="年齢: 82; 生存確率 (%): 98.4; Strategy: pen70-ds; Age: 82; Survival Probability (%): 98.4" role="graphics-symbol" aria-roledescription="point" transform="translate(377.1428571428571,23.999999999999922)" d="M2.739,0A2.739,2.739,0,1,1,-2.739,0A2.739,2.739,0,1,1,2.739,0" fill="#4c78a8" stroke-width="2" opacity="1"/><path aria-label="年齢: 82; 生存確率 (%): 93.75; Strategy: pen70-formula; Age: 82; Survival Probability (%): 93.8" role="graphics-symbol" aria-roledescription="point" transform="translate(377.1428571428571,93.75)" d="M2.739,0A2.739,2.739,0,1,1,-2.739,0A2.739,2.739,0,1,1,2.739,0" fill="#f58518" stroke-width="2" opacity="1"/><path aria-label="年齢: 83; 生存確率 (%): 98.2; Strategy: pen70-ds; Age: 83; Survival Probability (%): 98.2" role="graphics-symbol" aria-roledescription="point" transform="translate(394.2857142857143,26.999999999999957)" d="M2.739,0A2.739,2.739,0,1,1,-2.739,0A2.739,2.739,0,1,1,2.739,0" fill="#4c78a8" stroke-width="2" opacity="1"/><path aria-label="年齢: 83; 生存確率 (%): 93.05; Strategy: pen70-formula; Age: 83; Survival Probability (%): 93.0" role="graphics-symbol" aria-roledescription="point" transform="translate(394.2857142857143,104.25000000000004)" d="M2.739,0A2.739,2.739,0,1,1,-2.739,0A2.739,2.739,0,1,1,2.739,0" fill="#f58518" stroke-width="2" opacity="1"/><path aria-label="年齢: 84; 生存確率 (%): 98; Strategy: pen70-ds; Age: 84; Survival Probability (%): 98.0" role="graphics-symbol" aria-roledescription="point" transform="translate(411.42857142857144,29.999999999999993)" d="M2.739,0A2.739,2.739,0,1,1,-2.739,0A2.739,2.739,0,1,1,2.739,0" fill="#4c78a8" stroke-width="2" opacity="1"/><path aria-label="年齢: 84; 生存確率 (%): 92.55; Strategy: pen70-formula; Age: 84; Survival Probability (%): 92.5" role="graphics-symbol" aria-roledescription="point" transform="translate(411.42857142857144,111.75000000000004)" d="M2.739,0A2.739,2.739,0,1,1,-2.739,0A2.739,2.739,0,1,1,2.739,0" fill="#f58518" stroke-width="2" opacity="1"/><path aria-label="年齢: 85; 生存確率 (%): 97.7; Strategy: pen70-ds; Age: 85; Survival Probability (%): 97.7" role="graphics-symbol" aria-roledescription="point" transform="translate(428.57142857142856,34.499999999999964)" d="M2.739,0A2.739,2.739,0,1,1,-2.739,0A2.739,2.739,0,1,1,2.739,0" fill="#4c78a8" stroke-width="2" opacity="1"/><path aria-label="年齢: 85; 生存確率 (%): 91.9; Strategy: pen70-formula; Age: 85; Survival Probability (%): 91.9" role="graphics-symbol" aria-roledescription="point" transform="translate(428.57142857142856,121.49999999999991)" d="M2.739,0A2.739,2.739,0,1,1,-2.739,0A2.739,2.739,0,1,1,2.739,0" fill="#f58518" stroke-width="2" opacity="1"/><path aria-label="年齢: 86; 生存確率 (%): 97.25; Strategy: pen70-ds; Age: 86; Survival Probability (%): 97.3" role="graphics-symbol" aria-roledescription="point" transform="translate(445.7142857142857,41.249999999999986)" d="M2.739,0A2.739,2.739,0,1,1,-2.739,0A2.739,2.739,0,1,1,2.739,0" fill="#4c78a8" stroke-width="2" opacity="1"/><path aria-label="年齢: 86; 生存確率 (%): 91.05; Strategy: pen70-formula; Age: 86; Survival Probability (%): 91.0" role="graphics-symbol" aria-roledescription="point" transform="translate(445.7142857142857,134.25000000000003)" d="M2.739,0A2.739,2.739,0,1,1,-2.739,0A2.739,2.739,0,1,1,2.739,0" fill="#f58518" stroke-width="2" opacity="1"/><path aria-label="年齢: 87; 生存確率 (%): 97.15; Strategy: pen70-ds; Age: 87; Survival Probability (%): 97.2" role="graphics-symbol" aria-roledescription="point" transform="translate(462.8571428571429,42.74999999999992)" d="M2.739,0A2.739,2.739,0,1,1,-2.739,0A2.739,2.739,0,1,1,2.739,0" fill="#4c78a8" stroke-width="2" opacity="1"/><path aria-label="年齢: 87; 生存確率 (%): 89.75; Strategy: pen70-formula; Age: 87; Survival Probability (%): 89.8" role="graphics-symbol" aria-roledescription="point" transform="translate(462.8571428571429,153.75)" d="M2.739,0A2.739,2.739,0,1,1,-2.739,0A2.739,2.739,0,1,1,2.739,0" fill="#f58518" stroke-width="2" opacity="1"/><path aria-label="年齢: 88; 生存確率 (%): 96.95; Strategy: pen70-ds; Age: 88; Survival Probability (%): 97.0" role="graphics-symbol" aria-roledescription="point" transform="translate(480,45.74999999999996)" d="M2.739,0A2.739,2.739,0,1,1,-2.739,0A2.739,2.739,0,1,1,2.739,0" fill="#4c78a8" stroke-width="2" opacity="1"/><path aria-label="年齢: 88; 生存確率 (%): 88.95; Strategy: pen70-formula; Age: 88; Survival Probability (%): 88.9" role="graphics-symbol" aria-roledescription="point" transform="translate(480,165.75000000000017)" d="M2.739,0A2.739,2.739,0,1,1,-2.739,0A2.739,2.739,0,1,1,2.739,0" fill="#f58518" stroke-width="2" opacity="1"/><path aria-label="年齢: 89; 生存確率 (%): 96.6; Strategy: pen70-ds; Age: 89; Survival Probability (%): 96.6" role="graphics-symbol" aria-roledescription="point" transform="translate(497.14285714285717,51.00000000000008)" d="M2.739,0A2.739,2.739,0,1,1,-2.739,0A2.739,2.739,0,1,1,2.739,0" fill="#4c78a8" stroke-width="2" opacity="1"/><path aria-label="年齢: 89; 生存確率 (%): 88.1; Strategy: pen70-formula; Age: 89; Survival Probability (%): 88.1" role="graphics-symbol" aria-roledescription="point" transform="translate(497.14285714285717,178.50000000000009)" d="M2.739,0A2.739,2.739,0,1,1,-2.739,0A2.739,2.739,0,1,1,2.739,0" fill="#f58518" stroke-width="2" opacity="1"/><path aria-label="年齢: 90; 生存確率 (%): 96.35; Strategy: pen70-ds; Age: 90; Survival Probability (%): 96.4" role="graphics-symbol" aria-roledescription="point" transform="translate(514.2857142857142,54.749999999999865)" d="M2.739,0A2.739,2.739,0,1,1,-2.739,0A2.739,2.739,0,1,1,2.739,0" fill="#4c78a8" stroke-width="2" opacity="1"/><path aria-label="年齢: 90; 生存確率 (%): 87.1; Strategy: pen70-formula; Age: 90; Survival Probability (%): 87.1" role="graphics-symbol" aria-roledescription="point" transform="translate(514.2857142857142,193.50000000000009)" d="M2.739,0A2.739,2.739,0,1,1,-2.739,0A2.739,2.739,0,1,1,2.739,0" fill="#f58518" stroke-width="2" opacity="1"/><path aria-label="年齢: 91; 生存確率 (%): 96.15; Strategy: pen70-ds; Age: 91; Survival Probability (%): 96.2" role="graphics-symbol" aria-roledescription="point" transform="translate(531.4285714285714,57.7499999999999)" d="M2.739,0A2.739,2.739,0,1,1,-2.739,0A2.739,2.739,0,1,1,2.739,0" fill="#4c78a8" stroke-width="2" opacity="1"/><path aria-label="年齢: 91; 生存確率 (%): 86; Strategy: pen70-formula; Age: 91; Survival Probability (%): 86.0" role="graphics-symbol" aria-roledescription="point" transform="translate(531.4285714285714,210)" d="M2.739,0A2.739,2.739,0,1,1,-2.739,0A2.739,2.739,0,1,1,2.739,0" fill="#f58518" stroke-width="2" opacity="1"/><path aria-label="年齢: 92; 生存確率 (%): 96.15; Strategy: pen70-ds; Age: 92; Survival Probability (%): 96.2" role="graphics-symbol" aria-roledescription="point" transform="translate(548.5714285714286,57.7499999999999)" d="M2.739,0A2.739,2.739,0,1,1,-2.739,0A2.739,2.739,0,1,1,2.739,0" fill="#4c78a8" stroke-width="2" opacity="1"/><path aria-label="年齢: 92; 生存確率 (%): 85.1; Strategy: pen70-formula; Age: 92; Survival Probability (%): 85.1" role="graphics-symbol" aria-roledescription="point" transform="translate(548.5714285714286,223.50000000000009)" d="M2.739,0A2.739,2.739,0,1,1,-2.739,0A2.739,2.739,0,1,1,2.739,0" fill="#f58518" stroke-width="2" opacity="1"/><path aria-label="年齢: 93; 生存確率 (%): 96.05; Strategy: pen70-ds; Age: 93; Survival Probability (%): 96.0" role="graphics-symbol" aria-roledescription="point" transform="translate(565.7142857142857,59.250000000000036)" d="M2.739,0A2.739,2.739,0,1,1,-2.739,0A2.739,2.739,0,1,1,2.739,0" fill="#4c78a8" stroke-width="2" opacity="1"/><path aria-label="年齢: 93; 生存確率 (%): 84.3; Strategy: pen70-formula; Age: 93; Survival Probability (%): 84.3" role="graphics-symbol" aria-roledescription="point" transform="translate(565.7142857142857,235.50000000000006)" d="M2.739,0A2.739,2.739,0,1,1,-2.739,0A2.739,2.739,0,1,1,2.739,0" fill="#f58518" stroke-width="2" opacity="1"/><path aria-label="年齢: 94; 生存確率 (%): 95.85; Strategy: pen70-ds; Age: 94; Survival Probability (%): 95.9" role="graphics-symbol" aria-roledescription="point" transform="translate(582.8571428571429,62.24999999999987)" d="M2.739,0A2.739,2.739,0,1,1,-2.739,0A2.739,2.739,0,1,1,2.739,0" fill="#4c78a8" stroke-width="2" opacity="1"/><path aria-label="年齢: 94; 生存確率 (%): 83.2; Strategy: pen70-formula; Age: 94; Survival Probability (%): 83.2" role="graphics-symbol" aria-roledescription="point" transform="translate(582.8571428571429,251.99999999999994)" d="M2.739,0A2.739,2.739,0,1,1,-2.739,0A2.739,2.739,0,1,1,2.739,0" fill="#f58518" stroke-width="2" opacity="1"/><path aria-label="年齢: 95; 生存確率 (%): 95.7; Strategy: pen70-ds; Age: 95; Survival Probability (%): 95.7" role="graphics-symbol" aria-roledescription="point" transform="translate(600,64.49999999999996)" d="M2.739,0A2.739,2.739,0,1,1,-2.739,0A2.739,2.739,0,1,1,2.739,0" fill="#4c78a8" stroke-width="2" opacity="1"/><path aria-label="年齢: 95; 生存確率 (%): 81.9; Strategy: pen70-formula; Age: 95; Survival Probability (%): 81.9" role="graphics-symbol" aria-roledescription="point" transform="translate(600,271.5000000000001)" d="M2.739,0A2.739,2.739,0,1,1,-2.739,0A2.739,2.739,0,1,1,2.739,0" fill="#f58518" stroke-width="2" opacity="1"/></g><g class="mark-group role-legend" role="graphics-symbol" aria-roledescription="legend" aria-label="Symbol legend titled '戦略' for fill color and stroke color with 2 values: pen70-ds, pen70-formula"><g transform="translate(0,-49)"><path class="background" aria-hidden="true" d="M0,0h150v29h-150Z" pointer-events="none"/><g><g class="mark-group role-legend-entry"><g transform="translate(0,16)"><path class="background" aria-hidden="true" d="M0,0h0v0h0Z" pointer-events="none"/><g><g class="mark-group role-scope" role="graphics-object" aria-roledescription="group mark container"><g transform="translate(0,0.25)"><path class="background" aria-hidden="true" d="M0,0h57.69921875v12.5h-57.69921875Z" pointer-events="none" opacity="1"/><g><g class="mark-symbol role-legend-symbol" pointer-events="none"><path transform="translate(6,6)" d="M5,0A5,5,0,1,1,-5,0A5,5,0,1,1,5,0" fill="#4c78a8" stroke="#4c78a8" stroke-width="1.5" opacity="1"/></g><g class="mark-text role-legend-label" pointer-events="none"><text text-anchor="start" transform="translate(16,9)" font-family="sans-serif" font-size="10px" fill="#000" opacity="1">pen70-ds</text></g></g><path class="foreground" aria-hidden="true" d="" pointer-events="none" display="none"/></g><g transform="translate(69,0.25)"><path class="background" aria-hidden="true" d="M0,0h80.482421875v12.5h-80.482421875Z" pointer-events="none" opacity="1"/><g><g class="mark-symbol role-legend-symbol" pointer-events="none"><path transform="translate(6,6)" d="M5,0A5,5,0,1,1,-5,0A5,5,0,1,1,5,0" fill="#f58518" stroke="#f58518" stroke-width="1.5" opacity="1"/></g><g class="mark-text role-legend-label" pointer-events="none"><text text-anchor="start" transform="translate(16,9)" font-family="sans-serif" font-size="10px" fill="#000" opacity="1">pen70-formula</text></g></g><path class="foreground" aria-hidden="true" d="" pointer-events="none" display="none"/></g></g></g><path class="foreground" aria-hidden="true" d="" pointer-events="none" display="none"/></g></g><g class="mark-text role-legend-title" pointer-events="none"><text text-anchor="start" transform="translate(0,9)" font-family="sans-serif" font-size="11px" font-weight="bold" fill="#000" opacity="1">戦略</text></g></g><path class="foreground" aria-hidden="true" d="" pointer-events="none" display="none"/></g></g><g class="mark-group role-title"><g transform="translate(300,-66)"><path class="background" aria-hidden="true" d="M0,0h0v0h0Z" pointer-events="none"/><g><g class="mark-text role-title-text" role="graphics-symbol" aria-roledescription="title" aria-label="Title text 'DS vs Formula 生存確率 (m=3.0, r=5.0%)'" pointer-events="none"><text text-anchor="middle" transform="translate(0,10)" font-family="sans-serif" font-size="13px" font-weight="bold" fill="#000" opacity="1">DS vs Formula 生存確率 (m=3.0, r=5.0%)</text></g></g><path class="foreground" aria-hidden="true" d="" pointer-events="none" display="none"/></g></g></g><path class="foreground" aria-hidden="true" d="" display="none"/></g></g></g></svg>