<svg xmlns="http://www.w3.org/2000/svg" xmlns:xlink="http://www.w3.org/1999/xlink" version="1.1" class="marks" width="647" height="414" viewBox="0 0 647 414"><rect width="647" height="414" fill="white"/><g fill="none" stroke-miterlimit="10" transform="translate(41,27)"><g class="mark-group role-frame root" role="graphics-object" aria-roledescription="group mark container"><g transform="translate(0,0)"><path class="background" aria-hidden="true" d="M0.5,0.5h600v350h-600Z" stroke="#ddd"/><g><g class="mark-group role-axis" aria-hidden="true"><g transform="translate(0.5,350.5)"><path class="background" aria-hidden="true" d="M0,0h0v0h0Z" pointer-events="none"/><g><g class="mark-rule role-axis-grid" pointer-events="none"><line transform="translate(0,-350)" x2="0" y2="350" stroke="#ddd" stroke-width="1" opacity="1"/><line transform="translate(55,-350)" x2="0" y2="350" stroke="#ddd" stroke-width="1" opacity="1"/><line transform="translate(109,-350)" x2="0" y2="350" stroke="#ddd" stroke-width="1" opacity="1"/><line transform="translate(164,-350)" x2="0" y2="350" stroke="#ddd" stroke-width="1" opacity="1"/><line transform="translate(218,-350)" x2="0" y2="350" stroke="#ddd" stroke-width="1" opacity="1"/><line transform="translate(273,-350)" x2="0" y2="350" stroke="#ddd" stroke-width="1" opacity="1"/><line transform="translate(327,-350)" x2="0" y2="350" stroke="#ddd" stroke-width="1" opacity="1"/><line transform="translate(382,-350)" x2="0" y2="350" stroke="#ddd" stroke-width="1" opacity="1"/><line transform="translate(436,-350)" x2="0" y2="350" stroke="#ddd" stroke-width="1" opacity="1"/><line transform="translate(491,-350)" x2="0" y2="350" stroke="#ddd" stroke-width="1" opacity="1"/><line transform="translate(545,-350)" x2="0" y2="350" stroke="#ddd" stroke-width="1" opacity="1"/><line transform="translate(600,-350)" x2="0" y2="350" stroke="#ddd" stroke-width="1" opacity="1"/></g></g><path class="foreground" aria-hidden="true" d="" pointer-events="none" display="none"/></g></g><g class="mark-group role-axis" aria-hidden="true"><g transform="translate(0.5,0.5)"><path class="background" aria-hidden="true" d="M0,0h0v0h0Z" pointer-events="none"/><g><g class="mark-rule role-axis-grid" pointer-events="none"><line transform="translate(0,350)" x2="600" y2="0" stroke="#ddd" stroke-width="1" opacity="1"/><line transform="translate(0,300)" x2="600" y2="0" stroke="#ddd" stroke-width="1" opacity="1"/><line transform="translate(0,250)" x2="600" y2="0" stroke="#ddd" stroke-width="1" opacity="1"/><line transform="translate(0,200)" x2="600" y2="0" stroke="#ddd" stroke-width="1" opacity="1"/><line transform="translate(0,150)" x2="600" y2="0" stroke="#ddd" stroke-width="1" opacity="1"/><line transform="translate(0,100)" x2="600" y2="0" stroke="#ddd" stroke-width="1" opacity="1"/><line transform="translate(0,50)" x2="600" y2="0" stroke="#ddd" stroke-width="1" opacity="1"/><line transform="translate(0,0)" x2="600" y2="0" stroke="#ddd" stroke-width="1" opacity="1"/></g></g><path class="foreground" aria-hidden="true" d="" pointer-events="none" display="none"/></g></g><g class="mark-group role-axis" role="graphics-symbol" aria-roledescription="axis" aria-label="X-axis titled '支出レベル' for a linear scale with values from 0.8 to 3.0"><g transform="translate(0.5,350.5)"><path class="background" aria-hidden="true" d="M0,0h0v0h0Z" pointer-events="none"/><g><g class="mark-rule role-axis-tick" pointer-events="none"><line transform="translate(0,0)" x2="0" y2="5" stroke="#888" stroke-width="1" opacity="1"/><line transform="translate(55,0)" x2="0" y2="5" stroke="#888" stroke-width="1" opacity="1"/><line transform="translate(109,0)" x2="0" y2="5" stroke="#888" stroke-width="1" opacity="1"/><line transform="translate(164,0)" x2="0" y2="5" stroke="#888" stroke-width="1" opacity="1"/><line transform="translate(218,0)" x2="0" y2="5" stroke="#888" stroke-width="1" opacity="1"/><line transform="translate(273,0)" x2="0" y2="5" stroke="#888" stroke-width="1" opacity="1"/><line transform="translate(327,0)" x2="0" y2="5" stroke="#888" stroke-width="1" opacity="1"/><line transform="translate(382,0)" x2="0" y2="5" stroke="#888" stroke-width="1" opacity="1"/><line transform="translate(436,0)" x2="0" y2="5" stroke="#888" stroke-width="1" opacity="1"/><line transform="translate(491,0)" x2="0" y2="5" stroke="#888" stroke-width="1" opacity="1"/><line transform="translate(545,0)" x2="0" y2="5" stroke="#888" stroke-width="1" opacity="1"/><line transform="translate(600,0)" x2="0" y2="5" stroke="#888" stroke-width="1" opacity="1"/></g><g class="mark-text role-axis-label" pointer-events="none"><text text-anchor="start" transform="translate(0,15)" font-family="sans-serif" font-size="10px" fill="#000" opacity="1">432万(x0.8)</text><text text-anchor="middle" transform="translate(54.54545454545453,15)" font-family="sans-serif" font-size="10px" fill="#000" opacity="0">540万(x1)</text><text text-anchor="middle" transform="translate(109.09090909090907,15)" font-family="sans-serif" font-size="10px" fill="#000" opacity="1">648万(x1.2)</text><text text-anchor="middle" transform="translate(163.6363636363636,15)" font-family="sans-serif" font-size="10px" fill="#000" opacity="0">756万(x1.4)</text><text text-anchor="middle" transform="translate(218.1818181818182,15)" font-family="sans-serif" font-size="10px" fill="#000" opacity="1">864万(x1.6)</text><text text-anchor="middle" transform="translate(272.7272727272727,15)" font-family="sans-serif" font-size="10px" fill="#000" opacity="0">972万(x1.8)</text><text text-anchor="middle" transform="translate(327.27272727272725,15)" font-family="sans-serif" font-size="10px" fill="#000" opacity="1">1080万(x2)</text><text text-anchor="middle" transform="translate(381.8181818181818,15)" font-family="sans-serif" font-size="10px" fill="#000" opacity="0">1188万(x2.2)</text><text text-anchor="middle" transform="translate(436.3636363636363,15)" font-family="sans-serif" font-size="10px" fill="#000" opacity="1">1296万(x2.4)</text><text text-anchor="middle" transform="translate(490.9090909090909,15)" font-family="sans-serif" font-size="10px" fill="#000" opacity="0">1404万(x2.6)</text><text text-anchor="middle" transform="translate(545.4545454545454,15)" font-family="sans-serif" font-size="10px" fill="#000" opacity="1">1512万(x2.8)</text><text text-anchor="end" transform="translate(600,15)" font-family="sans-serif" font-size="10px" fill="#000" opacity="0">1620万(x3)</text></g><g class="mark-rule role-axis-domain" pointer-events="none"><line transform="translate(0,0)" x2="600" y2="0" stroke="#888" stroke-width="1" opacity="1"/></g><g class="mark-text role-axis-title" pointer-events="none"><text text-anchor="middle" transform="translate(300,30)" font-family="sans-serif" font-size="11px" font-weight="bold" fill="#000" opacity="1">支出レベル</text></g></g><path class="foreground" aria-hidden="true" d="" pointer-events="none" display="none"/></g></g><g class="mark-group role-axis" role="graphics-symbol" aria-roledescription="axis" aria-label="Y-axis titled '97%生存達成ルール (%)' for a linear scale with values from 1.0 to 4.5"><g transform="translate(0.5,0.5)"><path class="background" aria-hidden="true" d="M0,0h0v0h0Z" pointer-events="none"/><g><g class="mark-rule role-axis-tick" pointer-events="none"><line transform="translate(0,350)" x2="-5" y2="0" stroke="#888" stroke-width="1" opacity="1"/><line transform="translate(0,300)" x2="-5" y2="0" stroke="#888" stroke-width="1" opacity="1"/><line transform="translate(0,250)" x2="-5" y2="0" stroke="#888" stroke-width="1" opacity="1"/><line transform="translate(0,200)" x2="-5" y2="0" stroke="#888" stroke-width="1" opacity="1"/><line transform="translate(0,150)" x2="-5" y2="0" stroke="#888" stroke-width="1" opacity="1"/><line transform="translate(0,100)" x2="-5" y2="0" stroke="#888" stroke-width="1" opacity="1"/><line transform="translate(0,50)" x2="-5" y2="0" stroke="#888" stroke-width="1" opacity="1"/><line transform="translate(0,0)" x2="-5" y2="0" stroke="#888" stroke-width="1" opacity="1"/></g><g class="mark-text role-axis-label" pointer-events="none"><text text-anchor="end" transform="translate(-7,353)" font-family="sans-serif" font-size="10px" fill="#000" opacity="1">1.0</text><text text-anchor="end" transform="translate(-7,303)" font-family="sans-serif" font-size="10px" fill="#000" opacity="1">1.5</text><text text-anchor="end" transform="translate(-7,253)" font-family="sans-serif" font-size="10px" fill="#000" opacity="1">2.0</text><text text-anchor="end" transform="translate(-7,203)" font-family="sans-serif" font-size="10px" fill="#000" opacity="1">2.5</text><text text-anchor="end" transform="translate(-7,153)" font-family="sans-serif" font-size="10px" fill="#000" opacity="1">3.0</text><text text-anchor="end" transform="translate(-7,103)" font-family="sans-serif" font-size="10px" fill="#000" opacity="1">3.5</text><text text-anchor="end" transform="translate(-7,53.000000000000014)" font-family="sans-serif" font-size="10px" fill="#000" opacity="1">4.0</text><text text-anchor="end" transform="translate(-7,3)" font-family="sans-serif" font-size="10px" fill="#000" opacity="1">4.5</text></g><g class="mark-rule role-axis-domain" pointer-events="none"><line transform="translate(0,350)" x2="0" y2="-350" stroke="#888" stroke-width="1" opacity="1"/></g><g class="mark-text role-axis-title" pointer-events="none"><text text-anchor="middle" transform="translate(-24.9013671875,175) rotate(-90) translate(0,-2)" font-family="sans-serif" font-size="11px" font-weight="bold" fill="#000" opacity="1">97%生存達成ルール (%)</text></g></g><path class="foreground" aria-hidden="true" d="" pointer-events="none" display="none"/></g></g><g class="mark-line role-mark layer_0_marks" role="graphics-object" aria-roledescription="line mark container"><path aria-label="支出レベル: 0.95; 97%生存達成ルール (%): 1.06615537458; multiplier: 0.95; optimal_rule: 1.06615537458" role="graphics-symbol" aria-roledescription="line mark" d="M40.909,343.384L68.182,321.931L95.455,1.731L122.727,11.675L150,20.783L177.273,29.215L204.545,37.071L231.818,44.414L259.091,51.284L286.364,57.712L313.636,63.723L340.909,69.34L368.182,74.585L395.455,79.482L422.727,84.052L450,88.318L477.273,92.303L504.545,96.028L531.818,99.514L559.091,102.779L586.364,105.842" stroke="#4c78a8" stroke-width="2"/></g><g class="mark-symbol role-mark layer_1_marks" role="graphics-object" aria-roledescription="symbol mark container"><path aria-label="支出レベル: 0.95; 97%生存達成ルール (%): 1.06615537458; multiplier: 0.95; optimal_rule: 1.06615537458" role="graphics-symbol" aria-roledescription="point" transform="translate(40.90909090909088,343.38446254247026)" d="M2.739,0A2.739,2.739,0,1,1,-2.739,0A2.739,2.739,0,1,1,2.739,0" fill="#4c78a8" stroke-width="2" opacity="1"/><path aria-label="支出レベル: 1.05; 97%生存達成ルール (%): 1.28069449712; multiplier: 1.05; optimal_rule: 1.28069449712" role="graphics-symbol" aria-roledescription="point" transform="translate(68.18181818181812,321.93055028778724)" d="M2.739,0A2.739,2.739,0,1,1,-2.739,0A2.739,2.739,0,1,1,2.739,0" fill="#4c78a8" stroke-width="2" opacity="1"/><path aria-label="支出レベル: 1.15; 97%生存達成ルール (%): 4.482686438; multiplier: 1.15; optimal_rule: 4.482686438" role="graphics-symbol" aria-roledescription="point" transform="translate(95.4545454545454,1.7313562004114103)" d="M2.739,0A2.739,2.739,0,1,1,-2.739,0A2.739,2.739,0,1,1,2.739,0" fill="#4c78a8" stroke-width="2" opacity="1"/><path aria-label="支出レベル: 1.25; 97%生存達成ルール (%): 4.38324639789; multiplier: 1.25; optimal_rule: 4.38324639789" role="graphics-symbol" aria-roledescription="point" transform="translate(122.7272727272727,11.675360210656722)" d="M2.739,0A2.739,2.739,0,1,1,-2.739,0A2.739,2.739,0,1,1,2.739,0" fill="#4c78a8" stroke-width="2" opacity="1"/><path aria-label="支出レベル: 1.35; 97%生存達成ルール (%): 4.292173817; multiplier: 1.35; optimal_rule: 4.292173817" role="graphics-symbol" aria-roledescription="point" transform="translate(149.99999999999994,20.782618300161825)" d="M2.739,0A2.739,2.739,0,1,1,-2.739,0A2.739,2.739,0,1,1,2.739,0" fill="#4c78a8" stroke-width="2" opacity="1"/><path aria-label="支出レベル: 1.45; 97%生存達成ルール (%): 4.20785195907; multiplier: 1.45; optimal_rule: 4.20785195907" role="graphics-symbol" aria-roledescription="point" transform="translate(177.2727272727272,29.214804093293445)" d="M2.739,0A2.739,2.739,0,1,1,-2.739,0A2.739,2.739,0,1,1,2.739,0" fill="#4c78a8" stroke-width="2" opacity="1"/><path aria-label="支出レベル: 1.55; 97%生存達成ルール (%): 4.12928932236; multiplier: 1.55; optimal_rule: 4.12928932236" role="graphics-symbol" aria-roledescription="point" transform="translate(204.54545454545448,37.07106776363728)" d="M2.739,0A2.739,2.739,0,1,1,-2.739,0A2.739,2.739,0,1,1,2.739,0" fill="#4c78a8" stroke-width="2" opacity="1"/><path aria-label="支出レベル: 1.65; 97%生存達成ルール (%): 4.05586322786; multiplier: 1.65; optimal_rule: 4.05586322786" role="graphics-symbol" aria-roledescription="point" transform="translate(231.81818181818178,44.4136772142647)" d="M2.739,0A2.739,2.739,0,1,1,-2.739,0A2.739,2.739,0,1,1,2.739,0" fill="#4c78a8" stroke-width="2" opacity="1"/><path aria-label="支出レベル: 1.75; 97%生存達成ルール (%): 3.98716034811; multiplier: 1.75; optimal_rule: 3.98716034811" role="graphics-symbol" aria-roledescription="point" transform="translate(259.090909090909,51.28396518916031)" d="M2.739,0A2.739,2.739,0,1,1,-2.739,0A2.739,2.739,0,1,1,2.739,0" fill="#4c78a8" stroke-width="2" opacity="1"/><path aria-label="支出レベル: 1.85; 97%生存達成ルール (%): 3.9228784386; multiplier: 1.85; optimal_rule: 3.9228784386" role="graphics-symbol" aria-roledescription="point" transform="translate(286.36363636363626,57.71215614017992)" d="M2.739,0A2.739,2.739,0,1,1,-2.739,0A2.739,2.739,0,1,1,2.739,0" fill="#4c78a8" stroke-width="2" opacity="1"/><path aria-label="支出レベル: 1.95; 97%生存達成ルール (%): 3.86276783863; multiplier: 1.95; optimal_rule: 3.86276783863" role="graphics-symbol" aria-roledescription="point" transform="translate(313.63636363636357,63.72321613656716)" d="M2.739,0A2.739,2.739,0,1,1,-2.739,0A2.739,2.739,0,1,1,2.739,0" fill="#4c78a8" stroke-width="2" opacity="1"/><path aria-label="支出レベル: 2.05; 97%生存達成ルール (%): 3.80659899633; multiplier: 2.05; optimal_rule: 3.80659899633" role="graphics-symbol" aria-roledescription="point" transform="translate(340.9090909090908,69.34010036677236)" d="M2.739,0A2.739,2.739,0,1,1,-2.739,0A2.739,2.739,0,1,1,2.739,0" fill="#4c78a8" stroke-width="2" opacity="1"/><path aria-label="支出レベル: 2.15; 97%生存達成ルール (%): 3.75414667329; multiplier: 2.15; optimal_rule: 3.75414667329" role="graphics-symbol" aria-roledescription="point" transform="translate(368.181818181818,74.58533267109851)" d="M2.739,0A2.739,2.739,0,1,1,-2.739,0A2.739,2.739,0,1,1,2.739,0" fill="#4c78a8" stroke-width="2" opacity="1"/><path aria-label="支出レベル: 2.25; 97%生存達成ルール (%): 3.70518429795; multiplier: 2.25; optimal_rule: 3.70518429795" role="graphics-symbol" aria-roledescription="point" transform="translate(395.4545454545453,79.48157020455375)" d="M2.739,0A2.739,2.739,0,1,1,-2.739,0A2.739,2.739,0,1,1,2.739,0" fill="#4c78a8" stroke-width="2" opacity="1"/><path aria-label="支出レベル: 2.35; 97%生存達成ルール (%): 3.65948395022; multiplier: 2.35; optimal_rule: 3.65948395022" role="graphics-symbol" aria-roledescription="point" transform="translate(422.7272727272726,84.05160497763947)" d="M2.739,0A2.739,2.739,0,1,1,-2.739,0A2.739,2.739,0,1,1,2.739,0" fill="#4c78a8" stroke-width="2" opacity="1"/><path aria-label="支出レベル: 2.45; 97%生存達成ルール (%): 3.61681898714; multiplier: 2.45; optimal_rule: 3.61681898714" role="graphics-symbol" aria-roledescription="point" transform="translate(449.9999999999999,88.31810128628)" d="M2.739,0A2.739,2.739,0,1,1,-2.739,0A2.739,2.739,0,1,1,2.739,0" fill="#4c78a8" stroke-width="2" opacity="1"/><path aria-label="支出レベル: 2.55; 97%生存達成ルール (%): 3.57696747026; multiplier: 2.55; optimal_rule: 3.57696747026" role="graphics-symbol" aria-roledescription="point" transform="translate(477.2727272727272,92.30325297369468)" d="M2.739,0A2.739,2.739,0,1,1,-2.739,0A2.739,2.739,0,1,1,2.739,0" fill="#4c78a8" stroke-width="2" opacity="1"/><path aria-label="支出レベル: 2.65; 97%生存達成ルール (%): 3.53971538016; multiplier: 2.65; optimal_rule: 3.53971538016" role="graphics-symbol" aria-roledescription="point" transform="translate(504.5454545454544,96.02846198406826)" d="M2.739,0A2.739,2.739,0,1,1,-2.739,0A2.739,2.739,0,1,1,2.739,0" fill="#4c78a8" stroke-width="2" opacity="1"/><path aria-label="支出レベル: 2.75; 97%生存達成ルール (%): 3.50485915283; multiplier: 2.75; optimal_rule: 3.50485915283" role="graphics-symbol" aria-roledescription="point" transform="translate(531.8181818181816,99.51408471701006)" d="M2.739,0A2.739,2.739,0,1,1,-2.739,0A2.739,2.739,0,1,1,2.739,0" fill="#4c78a8" stroke-width="2" opacity="1"/><path aria-label="支出レベル: 2.85; 97%生存達成ルール (%): 3.47220740731; multiplier: 2.85; optimal_rule: 3.47220740731" role="graphics-symbol" aria-roledescription="point" transform="translate(559.090909090909,102.77925926920761)" d="M2.739,0A2.739,2.739,0,1,1,-2.739,0A2.739,2.739,0,1,1,2.739,0" fill="#4c78a8" stroke-width="2" opacity="1"/><path aria-label="支出レベル: 2.95; 97%生存達成ルール (%): 3.44158191401; multiplier: 2.95; optimal_rule: 3.44158191401" role="graphics-symbol" aria-roledescription="point" transform="translate(586.3636363636361,105.84180859936866)" d="M2.739,0A2.739,2.739,0,1,1,-2.739,0A2.739,2.739,0,1,1,2.739,0" fill="#4c78a8" stroke-width="2" opacity="1"/></g><g class="mark-group role-title"><g transform="translate(300,-22)"><path class="background" aria-hidden="true" d="M0,0h0v0h0Z" pointer-events="none"/><g><g class="mark-text role-title-text" role="graphics-symbol" aria-roledescription="title" aria-label="Title text '支出レベルごとの97%生存達成ルール (35年・低倍率は常に97%超)'" pointer-events="none"><text text-anchor="middle" transform="translate(0,10)" font-family="sans-serif" font-size="13px" font-weight="bold" fill="#000" opacity="1">支出レベルごとの97%生存達成ルール (35年・低倍率は常に97%超)</text></g></g><path class="foreground" aria-hidden="true" d="" pointer-events="none" display="none"/></g></g></g><path class="foreground" aria-hidden="true" d="" display="none"/></g></g></g></svg>