<svg xmlns="http://www.w3.org/2000/svg" xmlns:xlink="http://www.w3.org/1999/xlink" version="1.1" class="marks" width="647" height="414" viewBox="0 0 647 414"><rect width="647" height="414" fill="white"/><g fill="none" stroke-miterlimit="10" transform="translate(41,27)"><g class="mark-group role-frame root" role="graphics-object" aria-roledescription="group mark container"><g transform="translate(0,0)"><path class="background" aria-hidden="true" d="M0.5,0.5h600v350h-600Z" stroke="#ddd"/><g><g class="mark-group role-axis" aria-hidden="true"><g transform="translate(0.5,350.5)"><path class="background" aria-hidden="true" d="M0,0h0v0h0Z" pointer-events="none"/><g><g class="mark-rule role-axis-grid" pointer-events="none"><line transform="translate(0,-350)" x2="0" y2="350" stroke="#ddd" stroke-width="1" opacity="1"/><line transform="translate(50,-350)" x2="0" y2="350" stroke="#ddd" stroke-width="1" opacity="1"/><line transform="translate(100,-350)" x2="0" y2="350" stroke="#ddd" stroke-width="1" opacity="1"/><line transform="translate(150,-350)" x2="0" y2="350" stroke="#ddd" stroke-width="1" opacity="1"/><line transform="translate(200,-350)" x2="0" y2="350" stroke="#ddd" stroke-width="1" opacity="1"/><line transform="translate(250,-350)" x2="0" y2="350" stroke="#ddd" stroke-width="1" opacity="1"/><line transform="translate(300,-350)" x2="0" y2="350" stroke="#ddd" stroke-width="1" opacity="1"/><line transform="translate(350,-350)" x2="0" y2="350" stroke="#ddd" stroke-width="1" opacity="1"/><line transform="translate(400,-350)" x2="0" y2="350" stroke="#ddd" stroke-width="1" opacity="1"/><line transform="translate(450,-350)" x2="0" y2="350" stroke="#ddd" stroke-width="1" opacity="1"/><line transform="translate(500,-350)" x2="0" y2="350" stroke="#ddd" stroke-width="1" opacity="1"/><line transform="translate(550,-350)" x2="0" y2="350" stroke="#ddd" stroke-width="1" opacity="1"/><line transform="translate(600,-350)" x2="0" y2="350" stroke="#ddd" stroke-width="1" opacity="1"/></g></g><path class="foreground" aria-hidden="true" d="" pointer-events="none" display="none"/></g></g><g class="mark-group role-axis" aria-hidden="true"><g transform="translate(0.5,0.5)"><path class="background" aria-hidden="true" d="M0,0h0v0h0Z" pointer-events="none"/><g><g class="mark-rule role-axis-grid" pointer-events="none"><line transform="translate(0,350)" x2="600" y2="0" stroke="#ddd" stroke-width="1" opacity="1"/><line transform="translate(0,311)" x2="600" y2="0" stroke="#ddd" stroke-width="1" opacity="1"/><line transform="translate(0,272)" x2="600" y2="0" stroke="#ddd" stroke-width="1" opacity="1"/><line transform="translate(0,233)" x2="600" y2="0" stroke="#ddd" stroke-width="1" opacity="1"/><line transform="translate(0,194)" x2="600" y2="0" stroke="#ddd" stroke-width="1" opacity="1"/><line transform="translate(0,156)" x2="600" y2="0" stroke="#ddd" stroke-width="1" opacity="1"/><line transform="translate(0,117)" x2="600" y2="0" stroke="#ddd" stroke-width="1" opacity="1"/><line transform="translate(0,78)" x2="600" y2="0" stroke="#ddd" stroke-width="1" opacity="1"/><line transform="translate(0,39)" x2="600" y2="0" stroke="#ddd" stroke-width="1" opacity="1"/><line transform="translate(0,0)" x2="600" y2="0" stroke="#ddd" stroke-width="1" opacity="1"/></g></g><path class="foreground" aria-hidden="true" d="" pointer-events="none" display="none"/></g></g><g class="mark-group role-axis" role="graphics-symbol" aria-roledescription="axis" aria-label="X-axis titled '支出レベル' for a linear scale with values from 0.6 to 3.0"><g transform="translate(0.5,350.5)"><path class="background" aria-hidden="true" d="M0,0h0v0h0Z" pointer-events="none"/><g><g class="mark-rule role-axis-tick" pointer-events="none"><line transform="translate(0,0)" x2="0" y2="5" stroke="#888" stroke-width="1" opacity="1"/><line transform="translate(50,0)" x2="0" y2="5" stroke="#888" stroke-width="1" opacity="1"/><line transform="translate(100,0)" x2="0" y2="5" stroke="#888" stroke-width="1" opacity="1"/><line transform="translate(150,0)" x2="0" y2="5" stroke="#888" stroke-width="1" opacity="1"/><line transform="translate(200,0)" x2="0" y2="5" stroke="#888" stroke-width="1" opacity="1"/><line transform="translate(250,0)" x2="0" y2="5" stroke="#888" stroke-width="1" opacity="1"/><line transform="translate(300,0)" x2="0" y2="5" stroke="#888" stroke-width="1" opacity="1"/><line transform="translate(350,0)" x2="0" y2="5" stroke="#888" stroke-width="1" opacity="1"/><line transform="translate(400,0)" x2="0" y2="5" stroke="#888" stroke-width="1" opacity="1"/><line transform="translate(450,0)" x2="0" y2="5" stroke="#888" stroke-width="1" opacity="1"/><line transform="translate(500,0)" x2="0" y2="5" stroke="#888" stroke-width="1" opacity="1"/><line transform="translate(550,0)" x2="0" y2="5" stroke="#888" stroke-width="1" opacity="1"/><line transform="translate(600,0)" x2="0" y2="5" stroke="#888" stroke-width="1" opacity="1"/></g><g class="mark-text role-axis-label" pointer-events="none"><text text-anchor="start" transform="translate(0,15)" font-family="sans-serif" font-size="10px" fill="#000" opacity="1">324万(x0.6)</text><text text-anchor="middle" transform="translate(50.00000000000002,15)" font-family="sans-serif" font-size="10px" fill="#000" opacity="0">432万(x0.8)</text><text text-anchor="middle" transform="translate(100.00000000000001,15)" font-family="sans-serif" font-size="10px" fill="#000" opacity="1">540万(x1)</text><text text-anchor="middle" transform="translate(150,15)" font-family="sans-serif" font-size="10px" fill="#000" opacity="0">648万(x1.2)</text><text text-anchor="middle" transform="translate(200,15)" font-family="sans-serif" font-size="10px" fill="#000" opacity="1">756万(x1.4)</text><text text-anchor="middle" transform="translate(250,15)" font-family="sans-serif" font-size="10px" fill="#000" opacity="0">864万(x1.6)</text><text text-anchor="middle" transform="translate(300.00000000000006,15)" font-family="sans-serif" font-size="10px" fill="#000" opacity="1">972万(x1.8)</text><text text-anchor="middle" transform="translate(350,15)" font-family="sans-serif" font-size="10px" fill="#000" opacity="0">1080万(x2)</text><text text-anchor="middle" transform="translate(400.00000000000006,15)" font-family="sans-serif" font-size="10px" fill="#000" opacity="1">1188万(x2.2)</text><text text-anchor="middle" transform="translate(450,15)" font-family="sans-serif" font-size="10px" fill="#000" opacity="0">1296万(x2.4)</text><text text-anchor="middle" transform="translate(500,15)" font-family="sans-serif" font-size="10px" fill="#000" opacity="1">1404万(x2.6)</text><text text-anchor="middle" transform="translate(550,15)" font-family="sans-serif" font-size="10px" fill="#000" opacity="0">1512万(x2.8)</text><text text-anchor="end" transform="translate(600,15)" font-family="sans-serif" font-size="10px" fill="#000" opacity="1">1620万(x3)</text></g><g class="mark-rule role-axis-domain" pointer-events="none"><line transform="translate(0,0)" x2="600" y2="0" stroke="#888" stroke-width="1" opacity="1"/></g><g class="mark-text role-axis-title" pointer-events="none"><text text-anchor="middle" transform="translate(300,30)" font-family="sans-serif" font-size="11px" font-weight="bold" fill="#000" opacity="1">支出レベル</text></g></g><path class="foreground" aria-hidden="true" d="" pointer-events="none" display="none"/></g></g><g class="mark-group role-axis" role="graphics-symbol" aria-roledescription="axis" aria-label="Y-axis titled '97%生存達成ルール (%)' for a linear scale with values from 2.4 to 4.2"><g transform="translate(0.5,0.5)"><path class="background" aria-hidden="true" d="M0,0h0v0h0Z" pointer-events="none"/><g><g class="mark-rule role-axis-tick" pointer-events="none"><line transform="translate(0,350)" x2="-5" y2="0" stroke="#888" stroke-width="1" opacity="1"/><line transform="translate(0,311)" x2="-5" y2="0" stroke="#888" stroke-width="1" opacity="1"/><line transform="translate(0,272)" x2="-5" y2="0" stroke="#888" stroke-width="1" opacity="1"/><line transform="translate(0,233)" x2="-5" y2="0" stroke="#888" stroke-width="1" opacity="1"/><line transform="translate(0,194)" x2="-5" y2="0" stroke="#888" stroke-width="1" opacity="1"/><line transform="translate(0,156)" x2="-5" y2="0" stroke="#888" stroke-width="1" opacity="1"/><line transform="translate(0,117)" x2="-5" y2="0" stroke="#888" stroke-width="1" opacity="1"/><line transform="translate(0,78)" x2="-5" y2="0" stroke="#888" stroke-width="1" opacity="1"/><line transform="translate(0,39)" x2="-5" y2="0" stroke="#888" stroke-width="1" opacity="1"/><line transform="translate(0,0)" x2="-5" y2="0" stroke="#888" stroke-width="1" opacity="1"/></g><g class="mark-text role-axis-label" pointer-events="none"><text text-anchor="end" transform="translate(-7,353)" font-family="sans-serif" font-size="10px" fill="#000" opacity="1">2.4</text><text text-anchor="end" transform="translate(-7,314.1111111111111)" font-family="sans-serif" font-size="10px" fill="#000" opacity="1">2.6</text><text text-anchor="end" transform="translate(-7,275.2222222222223)" font-family="sans-serif" font-size="10px" fill="#000" opacity="1">2.8</text><text text-anchor="end" transform="translate(-7,236.33333333333337)" font-family="sans-serif" font-size="10px" fill="#000" opacity="1">3.0</text><text text-anchor="end" transform="translate(-7,197.4444444444444)" font-family="sans-serif" font-size="10px" fill="#000" opacity="1">3.2</text><text text-anchor="end" transform="translate(-7,158.5555555555556)" font-family="sans-serif" font-size="10px" fill="#000" opacity="1">3.4</text><text text-anchor="end" transform="translate(-7,119.66666666666669)" font-family="sans-serif" font-size="10px" fill="#000" opacity="1">3.6</text><text text-anchor="end" transform="translate(-7,80.77777777777786)" font-family="sans-serif" font-size="10px" fill="#000" opacity="1">3.8</text><text text-anchor="end" transform="translate(-7,41.88888888888891)" font-family="sans-serif" font-size="10px" fill="#000" opacity="1">4.0</text><text text-anchor="end" transform="translate(-7,3)" font-family="sans-serif" font-size="10px" fill="#000" opacity="1">4.2</text></g><g class="mark-rule role-axis-domain" pointer-events="none"><line transform="translate(0,350)" x2="0" y2="-350" stroke="#888" stroke-width="1" opacity="1"/></g><g class="mark-text role-axis-title" pointer-events="none"><text text-anchor="middle" transform="translate(-24.9013671875,175) rotate(-90) translate(0,-2)" font-family="sans-serif" font-size="11px" font-weight="bold" fill="#000" opacity="1">97%生存達成ルール (%)</text></g></g><path class="foreground" aria-hidden="true" d="" pointer-events="none" display="none"/></g></g><g class="mark-line role-mark layer_0_marks" role="graphics-object" aria-roledescription="line mark container"><path aria-label="支出レベル: 0.75; 97%生存達成ルール (%): 4.15799352908; multiplier: 0.75; optimal_rule: 4.15799352908" role="graphics-symbol" aria-roledescription="line mark" d="M37.5,8.168L62.5,37.809L87.5,59.407L112.5,76.41L137.5,90.771L162.5,103.636L187.5,115.701L212.5,127.401L237.5,139.018L262.5,150.735L287.5,162.674L312.5,174.919L337.5,187.524L362.5,200.526L387.5,213.943L412.5,227.782L437.5,242.035L462.5,256.675L487.5,271.661L512.5,286.926L537.5,302.378L562.5,317.899L587.5,333.343" stroke="#4c78a8" stroke-width="2"/></g><g class="mark-symbol role-mark layer_1_marks" role="graphics-object" aria-roledescription="symbol mark container"><path aria-label="支出レベル: 0.75; 97%生存達成ルール (%): 4.15799352908; multiplier: 0.75; optimal_rule: 4.15799352908" role="graphics-symbol" aria-roledescription="point" transform="translate(37.50000000000001,8.167924901555063)" d="M2.739,0A2.739,2.739,0,1,1,-2.739,0A2.739,2.739,0,1,1,2.739,0" fill="#4c78a8" stroke-width="2" opacity="1"/><path aria-label="支出レベル: 0.85; 97%生存達成ルール (%): 4.00555266926; multiplier: 0.85; optimal_rule: 4.00555266926" role="graphics-symbol" aria-roledescription="point" transform="translate(62.5,37.80920319974514)" d="M2.739,0A2.739,2.739,0,1,1,-2.739,0A2.739,2.739,0,1,1,2.739,0" fill="#4c78a8" stroke-width="2" opacity="1"/><path aria-label="支出レベル: 0.95; 97%生存達成ルール (%): 3.8944804348; multiplier: 0.95; optimal_rule: 3.8944804348" role="graphics-symbol" aria-roledescription="point" transform="translate(87.5,59.406582122290445)" d="M2.739,0A2.739,2.739,0,1,1,-2.739,0A2.739,2.739,0,1,1,2.739,0" fill="#4c78a8" stroke-width="2" opacity="1"/><path aria-label="支出レベル: 1.05; 97%生存達成ルール (%): 3.80703327498; multiplier: 1.05; optimal_rule: 3.80703327498" role="graphics-symbol" aria-roledescription="point" transform="translate(112.49999999999997,76.41019653136884)" d="M2.739,0A2.739,2.739,0,1,1,-2.739,0A2.739,2.739,0,1,1,2.739,0" fill="#4c78a8" stroke-width="2" opacity="1"/><path aria-label="支出レベル: 1.15; 97%生存達成ルール (%): 3.73317672572; multiplier: 1.15; optimal_rule: 3.73317672572" role="graphics-symbol" aria-roledescription="point" transform="translate(137.5,90.7711922207415)" d="M2.739,0A2.739,2.739,0,1,1,-2.739,0A2.739,2.739,0,1,1,2.739,0" fill="#4c78a8" stroke-width="2" opacity="1"/><path aria-label="支出レベル: 1.25; 97%生存達成ルール (%): 3.66701575253; multiplier: 1.25; optimal_rule: 3.66701575253" role="graphics-symbol" aria-roledescription="point" transform="translate(162.50000000000003,103.63582589632789)" d="M2.739,0A2.739,2.739,0,1,1,-2.739,0A2.739,2.739,0,1,1,2.739,0" fill="#4c78a8" stroke-width="2" opacity="1"/><path aria-label="支出レベル: 1.35; 97%生存達成ルール (%): 3.60496857376; multiplier: 1.35; optimal_rule: 3.60496857376" role="graphics-symbol" aria-roledescription="point" transform="translate(187.49999999999997,115.70055510240601)" d="M2.739,0A2.739,2.739,0,1,1,-2.739,0A2.739,2.739,0,1,1,2.739,0" fill="#4c78a8" stroke-width="2" opacity="1"/><path aria-label="支出レベル: 1.45; 97%生存達成ルール (%): 3.54479331968; multiplier: 1.45; optimal_rule: 3.54479331968" role="graphics-symbol" aria-roledescription="point" transform="translate(212.49999999999994,127.40129895014744)" d="M2.739,0A2.739,2.739,0,1,1,-2.739,0A2.739,2.739,0,1,1,2.739,0" fill="#4c78a8" stroke-width="2" opacity="1"/><path aria-label="支出レベル: 1.55; 97%生存達成ルール (%): 3.48504996991; multiplier: 1.55; optimal_rule: 3.48504996991" role="graphics-symbol" aria-roledescription="point" transform="translate(237.49999999999994,139.01806140622017)" d="M2.739,0A2.739,2.739,0,1,1,-2.739,0A2.739,2.739,0,1,1,2.739,0" fill="#4c78a8" stroke-width="2" opacity="1"/><path aria-label="支出レベル: 1.65; 97%生存達成ルール (%): 3.42479303516; multiplier: 1.65; optimal_rule: 3.42479303516" role="graphics-symbol" aria-roledescription="point" transform="translate(262.49999999999994,150.73468760804755)" d="M2.739,0A2.739,2.739,0,1,1,-2.739,0A2.739,2.739,0,1,1,2.739,0" fill="#4c78a8" stroke-width="2" opacity="1"/><path aria-label="支出レベル: 1.75; 97%生存達成ルール (%): 3.36339109948; multiplier: 1.75; optimal_rule: 3.36339109948" role="graphics-symbol" aria-roledescription="point" transform="translate(287.5,162.67395287817922)" d="M2.739,0A2.739,2.739,0,1,1,-2.739,0A2.739,2.739,0,1,1,2.739,0" fill="#4c78a8" stroke-width="2" opacity="1"/><path aria-label="支出レベル: 1.85; 97%生存達成ルール (%): 3.30041870362; multiplier: 1.85; optimal_rule: 3.30041870362" role="graphics-symbol" aria-roledescription="point" transform="translate(312.4999999999999,174.9185854080396)" d="M2.739,0A2.739,2.739,0,1,1,-2.739,0A2.739,2.739,0,1,1,2.739,0" fill="#4c78a8" stroke-width="2" opacity="1"/><path aria-label="支出レベル: 1.95; 97%生存達成ルール (%): 3.23559112133; multiplier: 1.95; optimal_rule: 3.23559112133" role="graphics-symbol" aria-roledescription="point" transform="translate(337.49999999999994,187.52394863001155)" d="M2.739,0A2.739,2.739,0,1,1,-2.739,0A2.739,2.739,0,1,1,2.739,0" fill="#4c78a8" stroke-width="2" opacity="1"/><path aria-label="支出レベル: 2.05; 97%生存達成ルール (%): 3.1687257616; multiplier: 2.05; optimal_rule: 3.1687257616" role="graphics-symbol" aria-roledescription="point" transform="translate(362.5,200.52554635472276)" d="M2.739,0A2.739,2.739,0,1,1,-2.739,0A2.739,2.739,0,1,1,2.739,0" fill="#4c78a8" stroke-width="2" opacity="1"/><path aria-label="支出レベル: 2.15; 97%生存達成ルール (%): 3.09972109736; multiplier: 2.15; optimal_rule: 3.09972109736" role="graphics-symbol" aria-roledescription="point" transform="translate(387.4999999999999,213.94311995686218)" d="M2.739,0A2.739,2.739,0,1,1,-2.739,0A2.739,2.739,0,1,1,2.739,0" fill="#4c78a8" stroke-width="2" opacity="1"/><path aria-label="支出レベル: 2.25; 97%生存達成ルール (%): 3.02854802807; multiplier: 2.25; optimal_rule: 3.02854802807" role="graphics-symbol" aria-roledescription="point" transform="translate(412.4999999999999,227.78232787615912)" d="M2.739,0A2.739,2.739,0,1,1,-2.739,0A2.739,2.739,0,1,1,2.739,0" fill="#4c78a8" stroke-width="2" opacity="1"/><path aria-label="支出レベル: 2.35; 97%生存達成ルール (%): 2.95525081341; multiplier: 2.35; optimal_rule: 2.95525081341" role="graphics-symbol" aria-roledescription="point" transform="translate(437.4999999999999,242.034564059399)" d="M2.739,0A2.739,2.739,0,1,1,-2.739,0A2.739,2.739,0,1,1,2.739,0" fill="#4c78a8" stroke-width="2" opacity="1"/><path aria-label="支出レベル: 2.45; 97%生存達成ルール (%): 2.8799557952; multiplier: 2.45; optimal_rule: 2.8799557952" role="graphics-symbol" aria-roledescription="point" transform="translate(462.49999999999994,256.67526204423535)" d="M2.739,0A2.739,2.739,0,1,1,-2.739,0A2.739,2.739,0,1,1,2.739,0" fill="#4c78a8" stroke-width="2" opacity="1"/><path aria-label="支出レベル: 2.55; 97%生存達成ルール (%): 2.80288624675; multiplier: 2.55; optimal_rule: 2.80288624675" role="graphics-symbol" aria-roledescription="point" transform="translate(487.49999999999994,271.6610075768128)" d="M2.739,0A2.739,2.739,0,1,1,-2.739,0A2.739,2.739,0,1,1,2.739,0" fill="#4c78a8" stroke-width="2" opacity="1"/><path aria-label="支出レベル: 2.65; 97%生存達成ルール (%): 2.7243808042; multiplier: 2.65; optimal_rule: 2.7243808042" role="graphics-symbol" aria-roledescription="point" transform="translate(512.4999999999999,286.92595473883154)" d="M2.739,0A2.739,2.739,0,1,1,-2.739,0A2.739,2.739,0,1,1,2.739,0" fill="#4c78a8" stroke-width="2" opacity="1"/><path aria-label="支出レベル: 2.75; 97%生存達成ルール (%): 2.64491096739; multiplier: 2.75; optimal_rule: 2.64491096739" role="graphics-symbol" aria-roledescription="point" transform="translate(537.4999999999999,302.37842300816453)" d="M2.739,0A2.739,2.739,0,1,1,-2.739,0A2.739,2.739,0,1,1,2.739,0" fill="#4c78a8" stroke-width="2" opacity="1"/><path aria-label="支出レベル: 2.85; 97%生存達成ルール (%): 2.56509040169; multiplier: 2.85; optimal_rule: 2.56509040169" role="graphics-symbol" aria-roledescription="point" transform="translate(562.4999999999999,317.89908856005906)" d="M2.739,0A2.739,2.739,0,1,1,-2.739,0A2.739,2.739,0,1,1,2.739,0" fill="#4c78a8" stroke-width="2" opacity="1"/><path aria-label="支出レベル: 2.95; 97%生存達成ルール (%): 2.48566645203; multiplier: 2.95; optimal_rule: 2.48566645203" role="graphics-symbol" aria-roledescription="point" transform="translate(587.4999999999999,333.3426343274336)" d="M2.739,0A2.739,2.739,0,1,1,-2.739,0A2.739,2.739,0,1,1,2.739,0" fill="#4c78a8" stroke-width="2" opacity="1"/></g><g class="mark-group role-title"><g transform="translate(300,-22)"><path class="background" aria-hidden="true" d="M0,0h0v0h0Z" pointer-events="none"/><g><g class="mark-text role-title-text" role="graphics-symbol" aria-roledescription="title" aria-label="Title text '支出レベルごとの97%生存達成ルール (35年・低倍率は常に97%超)'" pointer-events="none"><text text-anchor="middle" transform="translate(0,10)" font-family="sans-serif" font-size="13px" font-weight="bold" fill="#000" opacity="1">支出レベルごとの97%生存達成ルール (35年・低倍率は常に97%超)</text></g></g><path class="foreground" aria-hidden="true" d="" pointer-events="none" display="none"/></g></g></g><path class="foreground" aria-hidden="true" d="" display="none"/></g></g></g></svg>