<svg xmlns="http://www.w3.org/2000/svg" xmlns:xlink="http://www.w3.org/1999/xlink" version="1.1" class="marks" width="645" height="504" viewBox="0 0 645 504"><rect width="645" height="504" fill="white"/><g fill="none" stroke-miterlimit="10" transform="translate(39,67)"><g class="mark-group role-frame root" role="graphics-object" aria-roledescription="group mark container"><g transform="translate(0,0)"><path class="background" aria-hidden="true" d="M0.5,0.5h600v400h-600Z" stroke="#ddd"/><g><g class="mark-group role-axis" aria-hidden="true"><g transform="translate(0.5,400.5)"><path class="background" aria-hidden="true" d="M0,0h0v0h0Z" pointer-events="none"/><g><g class="mark-rule role-axis-grid" pointer-events="none"><line transform="translate(0,-400)" x2="0" y2="400" stroke="#ddd" stroke-width="1" opacity="1"/><line transform="translate(60,-400)" x2="0" y2="400" stroke="#ddd" stroke-width="1" opacity="1"/><line transform="translate(120,-400)" x2="0" y2="400" stroke="#ddd" stroke-width="1" opacity="1"/><line transform="translate(180,-400)" x2="0" y2="400" stroke="#ddd" stroke-width="1" opacity="1"/><line transform="translate(240,-400)" x2="0" y2="400" stroke="#ddd" stroke-width="1" opacity="1"/><line transform="translate(300,-400)" x2="0" y2="400" stroke="#ddd" stroke-width="1" opacity="1"/><line transform="translate(360,-400)" x2="0" y2="400" stroke="#ddd" stroke-width="1" opacity="1"/><line transform="translate(420,-400)" x2="0" y2="400" stroke="#ddd" stroke-width="1" opacity="1"/><line transform="translate(480,-400)" x2="0" y2="400" stroke="#ddd" stroke-width="1" opacity="1"/><line transform="translate(540,-400)" x2="0" y2="400" stroke="#ddd" stroke-width="1" opacity="1"/><line transform="translate(600,-400)" x2="0" y2="400" stroke="#ddd" stroke-width="1" opacity="1"/></g></g><path class="foreground" aria-hidden="true" d="" pointer-events="none" display="none"/></g></g><g class="mark-group role-axis" aria-hidden="true"><g transform="translate(0.5,0.5)"><path class="background" aria-hidden="true" d="M0,0h0v0h0Z" pointer-events="none"/><g><g class="mark-rule role-axis-grid" pointer-events="none"><line transform="translate(0,400)" x2="600" y2="0" stroke="#ddd" stroke-width="1" opacity="1"/><line transform="translate(0,350)" x2="600" y2="0" stroke="#ddd" stroke-width="1" opacity="1"/><line transform="translate(0,300)" x2="600" y2="0" stroke="#ddd" stroke-width="1" opacity="1"/><line transform="translate(0,250)" x2="600" y2="0" stroke="#ddd" stroke-width="1" opacity="1"/><line transform="translate(0,200)" x2="600" y2="0" stroke="#ddd" stroke-width="1" opacity="1"/><line transform="translate(0,150)" x2="600" y2="0" stroke="#ddd" stroke-width="1" opacity="1"/><line transform="translate(0,100)" x2="600" y2="0" stroke="#ddd" stroke-width="1" opacity="1"/><line transform="translate(0,50)" x2="600" y2="0" stroke="#ddd" stroke-width="1" opacity="1"/><line transform="translate(0,0)" x2="600" y2="0" stroke="#ddd" stroke-width="1" opacity="1"/></g></g><path class="foreground" aria-hidden="true" d="" pointer-events="none" display="none"/></g></g><g class="mark-group role-axis" role="graphics-symbol" aria-roledescription="axis" aria-label="X-axis titled '対数リターン' for a linear scale with values from −0.3 to 0.2"><g transform="translate(0.5,400.5)"><path class="background" aria-hidden="true" d="M0,0h0v0h0Z" pointer-events="none"/><g><g class="mark-rule role-axis-tick" pointer-events="none"><line transform="translate(0,0)" x2="0" y2="5" stroke="#888" stroke-width="1" opacity="1"/><line transform="translate(60,0)" x2="0" y2="5" stroke="#888" stroke-width="1" opacity="1"/><line transform="translate(120,0)" x2="0" y2="5" stroke="#888" stroke-width="1" opacity="1"/><line transform="translate(180,0)" x2="0" y2="5" stroke="#888" stroke-width="1" opacity="1"/><line transform="translate(240,0)" x2="0" y2="5" stroke="#888" stroke-width="1" opacity="1"/><line transform="translate(300,0)" x2="0" y2="5" stroke="#888" stroke-width="1" opacity="1"/><line transform="translate(360,0)" x2="0" y2="5" stroke="#888" stroke-width="1" opacity="1"/><line transform="translate(420,0)" x2="0" y2="5" stroke="#888" stroke-width="1" opacity="1"/><line transform="translate(480,0)" x2="0" y2="5" stroke="#888" stroke-width="1" opacity="1"/><line transform="translate(540,0)" x2="0" y2="5" stroke="#888" stroke-width="1" opacity="1"/><line transform="translate(600,0)" x2="0" y2="5" stroke="#888" stroke-width="1" opacity="1"/></g><g class="mark-text role-axis-label" pointer-events="none"><text text-anchor="start" transform="translate(0,15)" font-family="sans-serif" font-size="10px" fill="#000" opacity="1">−0.30</text><text text-anchor="middle" transform="translate(59.999999999999986,15)" font-family="sans-serif" font-size="10px" fill="#000" opacity="1">−0.25</text><text text-anchor="middle" transform="translate(119.99999999999997,15)" font-family="sans-serif" font-size="10px" fill="#000" opacity="1">−0.20</text><text text-anchor="middle" transform="translate(180,15)" font-family="sans-serif" font-size="10px" fill="#000" opacity="1">−0.15</text><text text-anchor="middle" transform="translate(239.99999999999997,15)" font-family="sans-serif" font-size="10px" fill="#000" opacity="1">−0.10</text><text text-anchor="middle" transform="translate(300,15)" font-family="sans-serif" font-size="10px" fill="#000" opacity="1">−0.05</text><text text-anchor="middle" transform="translate(360,15)" font-family="sans-serif" font-size="10px" fill="#000" opacity="1">0.00</text><text text-anchor="middle" transform="translate(420,15)" font-family="sans-serif" font-size="10px" fill="#000" opacity="1">0.05</text><text text-anchor="middle" transform="translate(480,15)" font-family="sans-serif" font-size="10px" fill="#000" opacity="1">0.10</text><text text-anchor="middle" transform="translate(540,15)" font-family="sans-serif" font-size="10px" fill="#000" opacity="1">0.15</text><text text-anchor="end" transform="translate(600,15)" font-family="sans-serif" font-size="10px" fill="#000" opacity="1">0.20</text></g><g class="mark-rule role-axis-domain" pointer-events="none"><line transform="translate(0,0)" x2="600" y2="0" stroke="#888" stroke-width="1" opacity="1"/></g><g class="mark-text role-axis-title" pointer-events="none"><text text-anchor="middle" transform="translate(300,30)" font-family="sans-serif" font-size="11px" font-weight="bold" fill="#000" opacity="1">対数リターン</text></g></g><path class="foreground" aria-hidden="true" d="" pointer-events="none" display="none"/></g></g><g class="mark-group role-axis" role="graphics-symbol" aria-roledescription="axis" aria-label="Y-axis titled '頻度' for a linear scale with values from 0 to 16"><g transform="translate(0.5,0.5)"><path class="background" aria-hidden="true" d="M0,0h0v0h0Z" pointer-events="none"/><g><g class="mark-rule role-axis-tick" pointer-events="none"><line transform="translate(0,400)" x2="-5" y2="0" stroke="#888" stroke-width="1" opacity="1"/><line transform="translate(0,350)" x2="-5" y2="0" stroke="#888" stroke-width="1" opacity="1"/><line transform="translate(0,300)" x2="-5" y2="0" stroke="#888" stroke-width="1" opacity="1"/><line transform="translate(0,250)" x2="-5" y2="0" stroke="#888" stroke-width="1" opacity="1"/><line transform="translate(0,200)" x2="-5" y2="0" stroke="#888" stroke-width="1" opacity="1"/><line transform="translate(0,150)" x2="-5" y2="0" stroke="#888" stroke-width="1" opacity="1"/><line transform="translate(0,100)" x2="-5" y2="0" stroke="#888" stroke-width="1" opacity="1"/><line transform="translate(0,50)" x2="-5" y2="0" stroke="#888" stroke-width="1" opacity="1"/><line transform="translate(0,0)" x2="-5" y2="0" stroke="#888" stroke-width="1" opacity="1"/></g><g class="mark-text role-axis-label" pointer-events="none"><text text-anchor="end" transform="translate(-7,403)" font-family="sans-serif" font-size="10px" fill="#000" opacity="1">0</text><text text-anchor="end" transform="translate(-7,353)" font-family="sans-serif" font-size="10px" fill="#000" opacity="1">2</text><text text-anchor="end" transform="translate(-7,303)" font-family="sans-serif" font-size="10px" fill="#000" opacity="1">4</text><text text-anchor="end" transform="translate(-7,253)" font-family="sans-serif" font-size="10px" fill="#000" opacity="1">6</text><text text-anchor="end" transform="translate(-7,203)" font-family="sans-serif" font-size="10px" fill="#000" opacity="1">8</text><text text-anchor="end" transform="translate(-7,153)" font-family="sans-serif" font-size="10px" fill="#000" opacity="1">10</text><text text-anchor="end" transform="translate(-7,103)" font-family="sans-serif" font-size="10px" fill="#000" opacity="1">12</text><text text-anchor="end" transform="translate(-7,53)" font-family="sans-serif" font-size="10px" fill="#000" opacity="1">14</text><text text-anchor="end" transform="translate(-7,3)" font-family="sans-serif" font-size="10px" fill="#000" opacity="1">16</text></g><g class="mark-rule role-axis-domain" pointer-events="none"><line transform="translate(0,400)" x2="0" y2="-400" stroke="#888" stroke-width="1" opacity="1"/></g><g class="mark-text role-axis-title" pointer-events="none"><text text-anchor="middle" transform="translate(-22.123046875,200) rotate(-90) translate(0,-2)" font-family="sans-serif" font-size="11px" font-weight="bold" fill="#000" opacity="1">頻度</text></g></g><path class="foreground" aria-hidden="true" d="" pointer-events="none" display="none"/></g></g><g class="mark-rect role-mark layer_0_marks" role="graphics-object" aria-roledescription="rect mark container"><path aria-label="対数リターン: −0.200182667146; 頻度: 0.711881423952" role="graphics-symbol" aria-roledescription="bar" d="M117.28079942463715,382.2029644011919h5v17.797035598808122h-5Z" fill="gray" opacity="0.4"/><path aria-label="対数リターン: −0.193709264729; 頻度: 0" role="graphics-symbol" aria-roledescription="bar" d="M125.04888232578756,400h5v0h-5Z" fill="gray" opacity="0.4"/><path aria-label="対数リターン: −0.187235862311; 頻度: 0" role="graphics-symbol" aria-roledescription="bar" d="M132.81696522693804,400h5v0h-5Z" fill="gray" opacity="0.4"/><path aria-label="対数リターン: −0.180762459893; 頻度: 0" role="graphics-symbol" aria-roledescription="bar" d="M140.58504812808843,400h5v0h-5Z" fill="gray" opacity="0.4"/><path aria-label="対数リターン: −0.174289057476; 頻度: 0" role="graphics-symbol" aria-roledescription="bar" d="M148.35313102923888,400h5v0h-5Z" fill="gray" opacity="0.4"/><path aria-label="対数リターン: −0.167815655058; 頻度: 0" role="graphics-symbol" aria-roledescription="bar" d="M156.12121393038933,400h5v0h-5Z" fill="gray" opacity="0.4"/><path aria-label="対数リターン: −0.16134225264; 頻度: 0" role="graphics-symbol" aria-roledescription="bar" d="M163.88929683153978,400h5v0h-5Z" fill="gray" opacity="0.4"/><path aria-label="対数リターン: −0.154868850223; 頻度: 0" role="graphics-symbol" aria-roledescription="bar" d="M171.6573797326902,400h5v0h-5Z" fill="gray" opacity="0.4"/><path aria-label="対数リターン: −0.148395447805; 頻度: 0" role="graphics-symbol" aria-roledescription="bar" d="M179.42546263384062,400h5v0h-5Z" fill="gray" opacity="0.4"/><path aria-label="対数リターン: −0.141922045388; 頻度: 0.711881423952" role="graphics-symbol" aria-roledescription="bar" d="M187.1935455349911,382.2029644011919h5v17.797035598808122h-5Z" fill="gray" opacity="0.4"/><path aria-label="対数リターン: −0.13544864297; 頻度: 0" role="graphics-symbol" aria-roledescription="bar" d="M194.9616284361415,400h5v0h-5Z" fill="gray" opacity="0.4"/><path aria-label="対数リターン: −0.128975240552; 頻度: 0.711881423952" role="graphics-symbol" aria-roledescription="bar" d="M202.72971133729197,382.2029644011919h5v17.797035598808122h-5Z" fill="gray" opacity="0.4"/><path aria-label="対数リターン: −0.122501838135; 頻度: 0.711881423952" role="graphics-symbol" aria-roledescription="bar" d="M210.4977942384424,382.2029644011919h5v17.797035598808122h-5Z" fill="gray" opacity="0.4"/><path aria-label="対数リターン: −0.116028435717; 頻度: 0" role="graphics-symbol" aria-roledescription="bar" d="M218.26587713959282,400h5v0h-5Z" fill="gray" opacity="0.4"/><path aria-label="対数リターン: −0.109555033299; 頻度: 0.711881423952" role="graphics-symbol" aria-roledescription="bar" d="M226.03396004074327,382.2029644011919h5v17.797035598808122h-5Z" fill="gray" opacity="0.4"/><path aria-label="対数リターン: −0.103081630882; 頻度: 0.711881423952" role="graphics-symbol" aria-roledescription="bar" d="M233.80204294189372,382.2029644011919h5v17.797035598808122h-5Z" fill="gray" opacity="0.4"/><path aria-label="対数リターン: −0.0966082284641; 頻度: 2.13564427186" role="graphics-symbol" aria-roledescription="bar" d="M241.57012584304414,346.6088932035755h5v53.39110679642448h-5Z" fill="gray" opacity="0.4"/><path aria-label="対数リターン: −0.0901348260465; 頻度: 0.711881423952" role="graphics-symbol" aria-roledescription="bar" d="M249.3382087441946,382.2029644011919h5v17.797035598808122h-5Z" fill="gray" opacity="0.4"/><path aria-label="対数リターン: −0.0836614236289; 頻度: 2.13564427186" role="graphics-symbol" aria-roledescription="bar" d="M257.10629164534504,346.60889320357546h5v53.39110679642454h-5Z" fill="gray" opacity="0.4"/><path aria-label="対数リターン: −0.0771880212113; 頻度: 2.84752569581" role="graphics-symbol" aria-roledescription="bar" d="M264.87437454649546,328.81185760476745h5v71.18814239523255h-5Z" fill="gray" opacity="0.4"/><path aria-label="対数リターン: −0.0707146187936; 頻度: 0.711881423952" role="graphics-symbol" aria-roledescription="bar" d="M272.64245744764594,382.2029644011919h5v17.797035598808122h-5Z" fill="gray" opacity="0.4"/><path aria-label="対数リターン: −0.064241216376; 頻度: 1.4237628479" role="graphics-symbol" aria-roledescription="bar" d="M280.4105403487963,364.4059288023837h5v35.5940711976163h-5Z" fill="gray" opacity="0.4"/><path aria-label="対数リターン: −0.0577678139584; 頻度: 0" role="graphics-symbol" aria-roledescription="bar" d="M288.1786232499468,400h5v0h-5Z" fill="gray" opacity="0.4"/><path aria-label="対数リターン: −0.0512944115408; 頻度: 1.4237628479" role="graphics-symbol" aria-roledescription="bar" d="M295.9467061510972,364.4059288023837h5v35.5940711976163h-5Z" fill="gray" opacity="0.4"/><path aria-label="対数リターン: −0.0448210091231; 頻度: 5.69505139162" role="graphics-symbol" aria-roledescription="bar" d="M303.7147890522477,257.6237152095348h5v142.3762847904652h-5Z" fill="gray" opacity="0.4"/><path aria-label="対数リターン: −0.0383476067055; 頻度: 2.13564427186" role="graphics-symbol" aria-roledescription="bar" d="M311.4828719533981,346.6088932035755h5v53.39110679642448h-5Z" fill="gray" opacity="0.4"/><path aria-label="対数リターン: −0.0318742042879; 頻度: 4.98316996767" role="graphics-symbol" aria-roledescription="bar" d="M319.2509548545486,275.4207508083424h5v124.5792491916576h-5Z" fill="gray" opacity="0.4"/><path aria-label="対数リターン: −0.0254008018703; 頻度: 7.83069566348" role="graphics-symbol" aria-roledescription="bar" d="M327.01903775569895,204.2326084131104h5v195.7673915868896h-5Z" fill="gray" opacity="0.4"/><path aria-label="対数リターン: −0.0189273994526; 頻度: 4.98316996767" role="graphics-symbol" aria-roledescription="bar" d="M334.78712065684937,275.420750808343h5v124.57924919165703h-5Z" fill="gray" opacity="0.4"/><path aria-label="対数リターン: −0.012453997035; 頻度: 7.83069566348" role="graphics-symbol" aria-roledescription="bar" d="M342.55520355799985,204.2326084131104h5v195.7673915868896h-5Z" fill="gray" opacity="0.4"/><path aria-label="対数リターン: −0.00598059461737; 頻度: 4.98316996767" role="graphics-symbol" aria-roledescription="bar" d="M350.32328645915027,275.420750808343h5v124.57924919165703h-5Z" fill="gray" opacity="0.4"/><path aria-label="対数リターン: 0.000492807800251; 頻度: 6.40693281557" role="graphics-symbol" aria-roledescription="bar" d="M358.09136936030075,239.82667961072667h5v160.17332038927333h-5Z" fill="gray" opacity="0.4"/><path aria-label="対数リターン: 0.00696621021788; 頻度: 10.6782213593" role="graphics-symbol" aria-roledescription="bar" d="M365.85945226145117,133.0444660178778h5v266.95553398212223h-5Z" fill="gray" opacity="0.4"/><path aria-label="対数リターン: 0.0134396126355; 頻度: 14.237628479" role="graphics-symbol" aria-roledescription="bar" d="M373.62753516260165,44.05928802383703h5v355.94071197616296h-5Z" fill="gray" opacity="0.4"/><path aria-label="対数リターン: 0.0199130150531; 頻度: 13.5257470551" role="graphics-symbol" aria-roledescription="bar" d="M381.395618063752,61.85632362264521h5v338.1436763773548h-5Z" fill="gray" opacity="0.4"/><path aria-label="対数リターン: 0.0263864174708; 頻度: 12.1019842072" role="graphics-symbol" aria-roledescription="bar" d="M389.1637009649025,97.45039482026145h5v302.54960517973853h-5Z" fill="gray" opacity="0.4"/><path aria-label="対数リターン: 0.0328598198884; 頻度: 6.40693281557" role="graphics-symbol" aria-roledescription="bar" d="M396.9317838660529,239.82667961072667h5v160.17332038927333h-5Z" fill="gray" opacity="0.4"/><path aria-label="対数リターン: 0.039333222306; 頻度: 4.98316996767" role="graphics-symbol" aria-roledescription="bar" d="M404.6998667672034,275.4207508083424h5v124.5792491916576h-5Z" fill="gray" opacity="0.4"/><path aria-label="対数リターン: 0.0458066247236; 頻度: 6.40693281557" role="graphics-symbol" aria-roledescription="bar" d="M412.4679496683538,239.82667961072735h5v160.17332038927265h-5Z" fill="gray" opacity="0.4"/><path aria-label="対数リターン: 0.0522800271413; 頻度: 8.54257708743" role="graphics-symbol" aria-roledescription="bar" d="M420.23603256950423,186.4355728143013h5v213.5644271856987h-5Z" fill="gray" opacity="0.4"/><path aria-label="対数リターン: 0.0587534295589; 頻度: 2.84752569581" role="graphics-symbol" aria-roledescription="bar" d="M428.00411547065465,328.8118576047677h5v71.18814239523232h-5Z" fill="gray" opacity="0.4"/><path aria-label="対数リターン: 0.0652268319765; 頻度: 2.13564427186" role="graphics-symbol" aria-roledescription="bar" d="M435.77219837180513,346.60889320357535h5v53.39110679642465h-5Z" fill="gray" opacity="0.4"/><path aria-label="対数リターン: 0.0717002343941; 頻度: 2.13564427186" role="graphics-symbol" aria-roledescription="bar" d="M443.5402812729555,346.60889320357535h5v53.39110679642465h-5Z" fill="gray" opacity="0.4"/><path aria-label="対数リターン: 0.0781736368118; 頻度: 2.84752569581" role="graphics-symbol" aria-roledescription="bar" d="M451.308364174106,328.8118576047677h5v71.18814239523232h-5Z" fill="gray" opacity="0.4"/><path aria-label="対数リターン: 0.0846470392294; 頻度: 0.711881423952" role="graphics-symbol" aria-roledescription="bar" d="M459.07644707525645,382.20296440119176h5v17.797035598808236h-5Z" fill="gray" opacity="0.4"/><path aria-label="対数リターン: 0.091120441647; 頻度: 3.55940711976" role="graphics-symbol" aria-roledescription="bar" d="M466.8445299764069,311.0148220059597h5v88.98517799404033h-5Z" fill="gray" opacity="0.4"/><path aria-label="対数リターン: 0.0975938440646; 頻度: 0.711881423952" role="graphics-symbol" aria-roledescription="bar" d="M474.61261287755724,382.20296440119176h5v17.797035598808236h-5Z" fill="gray" opacity="0.4"/><path aria-label="対数リターン: 0.104067246482; 頻度: 0.711881423952" role="graphics-symbol" aria-roledescription="bar" d="M482.3806957787077,382.20296440119193h5v17.797035598808066h-5Z" fill="gray" opacity="0.4"/><path aria-label="対数リターン: 0.1105406489; 頻度: 0.711881423952" role="graphics-symbol" aria-roledescription="bar" d="M490.1487786798582,382.20296440119176h5v17.797035598808236h-5Z" fill="gray" opacity="0.4"/><path aria-label="対数リターン: 0.117014051318; 頻度: 0.711881423952" role="graphics-symbol" aria-roledescription="bar" d="M497.9168615810086,382.2029644011919h5v17.797035598808122h-5Z" fill="gray" opacity="0.4"/></g><g class="mark-group role-scope layer_1_pathgroup" role="graphics-object" aria-roledescription="group mark container"><g transform="translate(0,0)"><path class="background" aria-hidden="true" d="M0,0h600v400h-600Z"/><g><g class="mark-line role-mark layer_1_marks" role="graphics-object" aria-roledescription="line mark container"><path aria-label="リターン: −0.253419368355; 頻度: 0.00000447399322186; モデル: 正規分布" role="graphics-symbol" aria-roledescription="line mark" d="M55.897,400L56.406,400L56.915,400L57.423,400L57.932,400L58.441,400L58.95,400L59.459,400L59.968,400L60.477,400L60.986,400L61.495,400L62.004,400L62.513,400L63.022,400L63.53,400L64.039,400L64.548,400L65.057,400L65.566,400L66.075,400L66.584,400L67.093,400L67.602,400L68.111,400L68.62,400L69.128,400L69.637,400L70.146,400L70.655,400L71.164,400L71.673,400L72.182,400L72.691,399.999L73.2,399.999L73.709,399.999L74.218,399.999L74.727,399.999L75.235,399.999L75.744,399.999L76.253,399.999L76.762,399.999L77.271,399.999L77.78,399.999L78.289,399.999L78.798,399.999L79.307,399.999L79.816,399.999L80.325,399.999L80.833,399.999L81.342,399.999L81.851,399.999L82.36,399.999L82.869,399.999L83.378,399.999L83.887,399.999L84.396,399.999L84.905,399.999L85.414,399.998L85.923,399.998L86.432,399.998L86.94,399.998L87.449,399.998L87.958,399.998L88.467,399.998L88.976,399.998L89.485,399.998L89.994,399.998L90.503,399.998L91.012,399.998L91.521,399.998L92.03,399.997L92.538,399.997L93.047,399.997L93.556,399.997L94.065,399.997L94.574,399.997L95.083,399.997L95.592,399.997L96.101,399.996L96.61,399.996L97.119,399.996L97.628,399.996L98.137,399.996L98.645,399.996L99.154,399.995L99.663,399.995L100.172,399.995L100.681,399.995L101.19,399.995L101.699,399.994L102.208,399.994L102.717,399.994L103.226,399.994L103.735,399.993L104.243,399.993L104.752,399.993L105.261,399.993L105.77,399.992L106.279,399.992L106.788,399.992L107.297,399.991L107.806,399.991L108.315,399.991L108.824,399.99L109.333,399.99L109.842,399.989L110.35,399.989L110.859,399.988L111.368,399.988L111.877,399.988L112.386,399.987L112.895,399.987L113.404,399.986L113.913,399.985L114.422,399.985L114.931,399.984L115.44,399.984L115.948,399.983L116.457,399.982L116.966,399.982L117.475,399.981L117.984,399.98L118.493,399.98L119.002,399.979L119.511,399.978L120.02,399.977L120.529,399.976L121.038,399.975L121.547,399.974L122.055,399.973L122.564,399.972L123.073,399.971L123.582,399.97L124.091,399.969L124.6,399.968L125.109,399.967L125.618,399.966L126.127,399.964L126.636,399.963L127.145,399.962L127.653,399.96L128.162,399.959L128.671,399.957L129.18,399.956L129.689,399.954L130.198,399.952L130.707,399.951L131.216,399.949L131.725,399.947L132.234,399.945L132.743,399.943L133.252,399.941L133.76,399.939L134.269,399.937L134.778,399.935L135.287,399.932L135.796,399.93L136.305,399.927L136.814,399.925L137.323,399.922L137.832,399.919L138.341,399.916L138.85,399.914L139.358,399.911L139.867,399.907L140.376,399.904L140.885,399.901L141.394,399.897L141.903,399.894L142.412,399.89L142.921,399.886L143.43,399.882L143.939,399.878L144.448,399.874L144.957,399.87L145.465,399.865L145.974,399.861L146.483,399.856L146.992,399.851L147.501,399.846L148.01,399.841L148.519,399.836L149.028,399.83L149.537,399.824L150.046,399.819L150.555,399.812L151.063,399.806L151.572,399.8L152.081,399.793L152.59,399.786L153.099,399.779L153.608,399.772L154.117,399.765L154.626,399.757L155.135,399.749L155.644,399.741L156.153,399.732L156.662,399.724L157.17,399.715L157.679,399.705L158.188,399.696L158.697,399.686L159.206,399.676L159.715,399.666L160.224,399.655L160.733,399.644L161.242,399.633L161.751,399.621L162.26,399.609L162.769,399.597L163.277,399.585L163.786,399.572L164.295,399.558L164.804,399.544L165.313,399.53L165.822,399.516L166.331,399.501L166.84,399.485L167.349,399.469L167.858,399.453L168.367,399.436L168.875,399.419L169.384,399.402L169.893,399.383L170.402,399.365L170.911,399.346L171.42,399.326L171.929,399.306L172.438,399.285L172.947,399.263L173.456,399.242L173.965,399.219L174.474,399.196L174.982,399.172L175.491,399.148L176,399.123L176.509,399.097L177.018,399.07L177.527,399.043L178.036,399.015L178.545,398.987L179.054,398.958L179.563,398.928L180.072,398.897L180.58,398.865L181.089,398.833L181.598,398.799L182.107,398.765L182.616,398.73L183.125,398.694L183.634,398.657L184.143,398.619L184.652,398.581L185.161,398.541L185.67,398.5L186.179,398.459L186.687,398.416L187.196,398.372L187.705,398.327L188.214,398.281L188.723,398.234L189.232,398.185L189.741,398.136L190.25,398.085L190.759,398.033L191.268,397.98L191.777,397.926L192.285,397.87L192.794,397.813L193.303,397.754L193.812,397.695L194.321,397.633L194.83,397.571L195.339,397.507L195.848,397.441L196.357,397.374L196.866,397.305L197.375,397.235L197.884,397.163L198.392,397.089L198.901,397.014L199.41,396.937L199.919,396.858L200.428,396.778L200.937,396.695L201.446,396.611L201.955,396.525L202.464,396.437L202.973,396.347L203.482,396.255L203.99,396.162L204.499,396.066L205.008,395.968L205.517,395.868L206.026,395.765L206.535,395.661L207.044,395.554L207.553,395.445L208.062,395.334L208.571,395.22L209.08,395.104L209.589,394.985L210.097,394.864L210.606,394.741L211.115,394.615L211.624,394.486L212.133,394.355L212.642,394.221L213.151,394.084L213.66,393.945L214.169,393.802L214.678,393.657L215.187,393.509L215.695,393.358L216.204,393.204L216.713,393.047L217.222,392.887L217.731,392.724L218.24,392.557L218.749,392.388L219.258,392.215L219.767,392.039L220.276,391.859L220.785,391.676L221.294,391.49L221.802,391.3L222.311,391.106L222.82,390.909L223.329,390.708L223.838,390.504L224.347,390.295L224.856,390.083L225.365,389.867L225.874,389.648L226.383,389.424L226.892,389.196L227.4,388.964L227.909,388.728L228.418,388.488L228.927,388.244L229.436,387.995L229.945,387.742L230.454,387.485L230.963,387.223L231.472,386.957L231.981,386.687L232.49,386.411L232.999,386.131L233.507,385.847L234.016,385.558L234.525,385.263L235.034,384.965L235.543,384.661L236.052,384.352L236.561,384.038L237.07,383.719L237.579,383.396L238.088,383.067L238.597,382.732L239.105,382.393L239.614,382.048L240.123,381.698L240.632,381.343L241.141,380.982L241.65,380.615L242.159,380.243L242.668,379.866L243.177,379.483L243.686,379.094L244.195,378.699L244.704,378.299L245.212,377.893L245.721,377.48L246.23,377.062L246.739,376.638L247.248,376.208L247.757,375.772L248.266,375.33L248.775,374.882L249.284,374.427L249.793,373.967L250.302,373.5L250.81,373.026L251.319,372.547L251.828,372.061L252.337,371.568L252.846,371.069L253.355,370.564L253.864,370.052L254.373,369.534L254.882,369.009L255.391,368.477L255.9,367.938L256.409,367.393L256.917,366.842L257.426,366.283L257.935,365.718L258.444,365.146L258.953,364.567L259.462,363.981L259.971,363.388L260.48,362.788L260.989,362.182L261.498,361.569L262.007,360.948L262.515,360.321L263.024,359.686L263.533,359.045L264.042,358.397L264.551,357.741L265.06,357.079L265.569,356.409L266.078,355.733L266.587,355.049L267.096,354.359L267.605,353.661L268.114,352.956L268.622,352.245L269.131,351.526L269.64,350.8L270.149,350.067L270.658,349.327L271.167,348.58L271.676,347.826L272.185,347.065L272.694,346.298L273.203,345.523L273.712,344.741L274.22,343.952L274.729,343.157L275.238,342.354L275.747,341.545L276.256,340.729L276.765,339.906L277.274,339.076L277.783,338.24L278.292,337.396L278.801,336.547L279.31,335.69L279.819,334.828L280.327,333.958L280.836,333.082L281.345,332.2L281.854,331.311L282.363,330.417L282.872,329.515L283.381,328.608L283.89,327.694L284.399,326.775L284.908,325.849L285.417,324.918L285.925,323.98L286.434,323.037L286.943,322.088L287.452,321.134L287.961,320.174L288.47,319.208L288.979,318.237L289.488,317.261L289.997,316.279L290.506,315.292L291.015,314.301L291.524,313.304L292.032,312.302L292.541,311.296L293.05,310.285L293.559,309.269L294.068,308.249L294.577,307.225L295.086,306.196L295.595,305.164L296.104,304.127L296.613,303.086L297.122,302.042L297.63,300.994L298.139,299.942L298.648,298.887L299.157,297.829L299.666,296.767L300.175,295.703L300.684,294.635L301.193,293.565L301.702,292.492L302.211,291.417L302.72,290.339L303.229,289.26L303.737,288.178L304.246,287.094L304.755,286.009L305.264,284.921L305.773,283.833L306.282,282.743L306.791,281.652L307.3,280.56L307.809,279.467L308.318,278.374L308.827,277.28L309.335,276.185L309.844,275.091L310.353,273.996L310.862,272.902L311.371,271.808L311.88,270.715L312.389,269.622L312.898,268.53L313.407,267.439L313.916,266.349L314.425,265.261L314.934,264.174L315.442,263.089L315.951,262.006L316.46,260.925L316.969,259.846L317.478,258.77L317.987,257.696L318.496,256.625L319.005,255.557L319.514,254.493L320.023,253.432L320.532,252.374L321.04,251.32L321.549,250.271L322.058,249.225L322.567,248.184L323.076,247.147L323.585,246.115L324.094,245.088L324.603,244.066L325.112,243.049L325.621,242.038L326.13,241.032L326.639,240.033L327.147,239.039L327.656,238.052L328.165,237.071L328.674,236.096L329.183,235.129L329.692,234.169L330.201,233.215L330.71,232.27L331.219,231.331L331.728,230.401L332.237,229.478L332.745,228.564L333.254,227.658L333.763,226.76L334.272,225.871L334.781,224.991L335.29,224.121L335.799,223.259L336.308,222.406L336.817,221.564L337.326,220.731L337.835,219.908L338.344,219.095L338.852,218.292L339.361,217.5L339.87,216.718L340.379,215.947L340.888,215.188L341.397,214.439L341.906,213.701L342.415,212.975L342.924,212.261L343.433,211.558L343.942,210.867L344.45,210.188L344.959,209.521L345.468,208.867L345.977,208.225L346.486,207.596L346.995,206.979L347.504,206.375L348.013,205.785L348.522,205.207L349.031,204.643L349.54,204.092L350.049,203.555L350.557,203.031L351.066,202.521L351.575,202.025L352.084,201.543L352.593,201.075L353.102,200.621L353.611,200.182L354.12,199.757L354.629,199.346L355.138,198.95L355.647,198.569L356.155,198.202L356.664,197.85L357.173,197.514L357.682,197.192L358.191,196.885L358.7,196.593L359.209,196.317L359.718,196.056L360.227,195.81L360.736,195.58L361.245,195.365L361.754,195.165L362.262,194.982L362.771,194.813L363.28,194.661L363.789,194.524L364.298,194.402L364.807,194.296L365.316,194.207L365.825,194.132L366.334,194.074L366.843,194.031L367.352,194.005L367.86,193.994L368.369,193.999L368.878,194.019L369.387,194.056L369.896,194.108L370.405,194.176L370.914,194.26L371.423,194.359L371.932,194.474L372.441,194.605L372.95,194.752L373.459,194.914L373.967,195.092L374.476,195.285L374.985,195.494L375.494,195.719L376.003,195.958L376.512,196.214L377.021,196.484L377.53,196.77L378.039,197.07L378.548,197.386L379.057,197.717L379.565,198.063L380.074,198.424L380.583,198.8L381.092,199.19L381.601,199.595L382.11,200.014L382.619,200.448L383.128,200.896L383.637,201.359L384.146,201.836L384.655,202.326L385.164,202.831L385.672,203.349L386.181,203.881L386.69,204.427L387.199,204.986L387.708,205.558L388.217,206.144L388.726,206.742L389.235,207.354L389.744,207.978L390.253,208.615L390.762,209.265L391.27,209.927L391.779,210.601L392.288,211.287L392.797,211.985L393.306,212.695L393.815,213.417L394.324,214.15L394.833,214.894L395.342,215.65L395.851,216.417L396.36,217.194L396.869,217.982L397.377,218.781L397.886,219.59L398.395,220.409L398.904,221.238L399.413,222.077L399.922,222.926L400.431,223.784L400.94,224.651L401.449,225.527L401.958,226.413L402.467,227.307L402.975,228.21L403.484,229.121L403.993,230.04L404.502,230.968L405.011,231.903L405.52,232.846L406.029,233.796L406.538,234.754L407.047,235.719L407.556,236.69L408.065,237.669L408.574,238.653L409.082,239.645L409.591,240.642L410.1,241.645L410.609,242.654L411.118,243.669L411.627,244.689L412.136,245.714L412.645,246.744L413.154,247.779L413.663,248.819L414.172,249.863L414.68,250.911L415.189,251.963L415.698,253.019L416.207,254.079L416.716,255.142L417.225,256.209L417.734,257.278L418.243,258.351L418.752,259.426L419.261,260.504L419.77,261.584L420.279,262.667L420.787,263.751L421.296,264.837L421.805,265.925L422.314,267.014L422.823,268.105L423.332,269.196L423.841,270.289L424.35,271.382L424.859,272.476L425.368,273.57L425.877,274.664L426.385,275.759L426.894,276.853L427.403,277.947L427.912,279.041L428.421,280.134L428.93,281.227L429.439,282.318L429.948,283.408L430.457,284.497L430.966,285.585L431.475,286.671L431.984,287.756L432.492,288.838L433.001,289.919L433.51,290.997L434.019,292.074L434.528,293.147L435.037,294.219L435.546,295.287L436.055,296.353L436.564,297.415L437.073,298.475L437.582,299.531L438.09,300.584L438.599,301.634L439.108,302.68L439.617,303.722L440.126,304.76L440.635,305.794L441.144,306.825L441.653,307.851L442.162,308.872L442.671,309.89L443.18,310.903L443.689,311.911L444.197,312.914L444.706,313.913L445.215,314.907L445.724,315.895L446.233,316.879L446.742,317.857L447.251,318.83L447.76,319.798L448.269,320.76L448.778,321.717L449.287,322.668L449.795,323.614L450.304,324.553L450.813,325.487L451.322,326.415L451.831,327.337L452.34,328.253L452.849,329.162L453.358,330.066L453.867,330.963L454.376,331.855L454.885,332.739L455.394,333.618L455.902,334.49L456.411,335.355L456.92,336.214L457.429,337.066L457.938,337.912L458.447,338.751L458.956,339.583L459.465,340.409L459.974,341.227L460.483,342.039L460.992,342.845L461.5,343.643L462.009,344.434L462.518,345.219L463.027,345.996L463.536,346.767L464.045,347.531L464.554,348.287L465.063,349.037L465.572,349.78L466.081,350.515L466.59,351.244L467.099,351.965L467.607,352.68L468.116,353.387L468.625,354.088L469.134,354.781L469.643,355.467L470.152,356.147L470.661,356.819L471.17,357.484L471.679,358.142L472.188,358.793L472.697,359.437L473.205,360.074L473.714,360.704L474.223,361.328L474.732,361.944L475.241,362.553L475.75,363.155L476.259,363.751L476.768,364.339L477.277,364.921L477.786,365.495L478.295,366.063L478.804,366.625L479.312,367.179L479.821,367.727L480.33,368.268L480.839,368.802L481.348,369.33L481.857,369.851L482.366,370.365L482.875,370.873L483.384,371.375L483.893,371.87L484.402,372.358L484.91,372.84L485.419,373.316L485.928,373.785L486.437,374.249L486.946,374.706L487.455,375.156L487.964,375.601L488.473,376.039L488.982,376.472L489.491,376.898L490,377.318L490.509,377.733L491.017,378.141L491.526,378.544L492.035,378.941L492.544,379.332L493.053,379.717L493.562,380.097L494.071,380.471L494.58,380.84L495.089,381.203L495.598,381.56L496.107,381.912L496.615,382.259L497.124,382.601L497.633,382.937L498.142,383.268L498.651,383.594L499.16,383.915L499.669,384.23L500.178,384.541L500.687,384.847L501.196,385.148L501.705,385.443L502.214,385.735L502.722,386.021L503.231,386.303L503.74,386.58L504.249,386.852L504.758,387.12L505.267,387.384L505.776,387.643L506.285,387.897L506.794,388.147L507.303,388.393L507.812,388.635L508.32,388.873L508.829,389.106L509.338,389.336L509.847,389.561L510.356,389.782L510.865,390L511.374,390.213L511.883,390.423L512.392,390.629L512.901,390.831L513.41,391.03L513.919,391.225L514.427,391.416L514.936,391.604L515.445,391.788L515.954,391.969L516.463,392.147L516.972,392.321L517.481,392.492L517.99,392.659L518.499,392.824L519.008,392.985L519.517,393.143L520.025,393.298L520.534,393.451L521.043,393.6L521.552,393.746L522.061,393.889L522.57,394.03L523.079,394.168L523.588,394.303L524.097,394.435L524.606,394.565L525.115,394.692L525.624,394.816L526.132,394.938L526.641,395.058L527.15,395.175L527.659,395.29L528.168,395.402L528.677,395.512L529.186,395.619L529.695,395.725L530.204,395.828L530.713,395.929L531.222,396.028L531.73,396.124L532.239,396.219L532.748,396.312L533.257,396.402L533.766,396.491L534.275,396.578L534.784,396.663L535.293,396.746L535.802,396.827L536.311,396.906L536.82,396.984L537.329,397.06L537.837,397.134L538.346,397.207L538.855,397.278L539.364,397.347L539.873,397.415L540.382,397.481L540.891,397.546L541.4,397.609L541.909,397.671L542.418,397.731L542.927,397.79L543.435,397.848L543.944,397.904L544.453,397.959L544.962,398.013L545.471,398.065L545.98,398.116L546.489,398.166L546.998,398.215L547.507,398.263L548.016,398.309L548.525,398.355L549.034,398.399L549.542,398.442L550.051,398.484L550.56,398.525L551.069,398.565L551.578,398.604L552.087,398.643L552.596,398.68L553.105,398.716L553.614,398.752L554.123,398.786L554.632,398.82L555.14,398.852L555.649,398.884L556.158,398.916L556.667,398.946L557.176,398.976L557.685,399.004L558.194,399.033L558.703,399.06L559.212,399.087L559.721,399.113L560.23,399.138L560.739,399.163L561.247,399.187L561.756,399.21L562.265,399.233L562.774,399.255L563.283,399.277L563.792,399.298L564.301,399.318" stroke="red" stroke-width="2" stroke-dasharray="5,5"/></g></g><path class="foreground" aria-hidden="true" d="" display="none"/></g><g transform="translate(0,0)"><path class="background" aria-hidden="true" d="M0,0h600v400h-600Z"/><g><g class="mark-line role-mark layer_1_marks" role="graphics-object" aria-roledescription="line mark container"><path aria-label="リターン: −0.253419368355; 頻度: 0.0193363884884; モデル: 最適フィット (johnsonsu)" role="graphics-symbol" aria-roledescription="line mark" d="M55.897,399.517L56.406,399.512L56.915,399.508L57.423,399.504L57.932,399.5L58.441,399.495L58.95,399.491L59.459,399.486L59.968,399.482L60.477,399.477L60.986,399.473L61.495,399.468L62.004,399.463L62.513,399.459L63.022,399.454L63.53,399.449L64.039,399.444L64.548,399.439L65.057,399.434L65.566,399.429L66.075,399.424L66.584,399.419L67.093,399.414L67.602,399.409L68.111,399.404L68.62,399.398L69.128,399.393L69.637,399.388L70.146,399.382L70.655,399.377L71.164,399.371L71.673,399.366L72.182,399.36L72.691,399.354L73.2,399.349L73.709,399.343L74.218,399.337L74.727,399.331L75.235,399.325L75.744,399.319L76.253,399.313L76.762,399.307L77.271,399.3L77.78,399.294L78.289,399.288L78.798,399.281L79.307,399.275L79.816,399.268L80.325,399.262L80.833,399.255L81.342,399.248L81.851,399.241L82.36,399.235L82.869,399.228L83.378,399.221L83.887,399.214L84.396,399.206L84.905,399.199L85.414,399.192L85.923,399.185L86.432,399.177L86.94,399.17L87.449,399.162L87.958,399.154L88.467,399.147L88.976,399.139L89.485,399.131L89.994,399.123L90.503,399.115L91.012,399.107L91.521,399.099L92.03,399.09L92.538,399.082L93.047,399.074L93.556,399.065L94.065,399.057L94.574,399.048L95.083,399.039L95.592,399.03L96.101,399.021L96.61,399.012L97.119,399.003L97.628,398.994L98.137,398.984L98.645,398.975L99.154,398.965L99.663,398.956L100.172,398.946L100.681,398.936L101.19,398.926L101.699,398.916L102.208,398.906L102.717,398.896L103.226,398.886L103.735,398.875L104.243,398.865L104.752,398.854L105.261,398.843L105.77,398.832L106.279,398.821L106.788,398.81L107.297,398.799L107.806,398.788L108.315,398.776L108.824,398.765L109.333,398.753L109.842,398.741L110.35,398.73L110.859,398.718L111.368,398.705L111.877,398.693L112.386,398.681L112.895,398.668L113.404,398.656L113.913,398.643L114.422,398.63L114.931,398.617L115.44,398.604L115.948,398.59L116.457,398.577L116.966,398.563L117.475,398.549L117.984,398.536L118.493,398.522L119.002,398.507L119.511,398.493L120.02,398.479L120.529,398.464L121.038,398.449L121.547,398.434L122.055,398.419L122.564,398.404L123.073,398.388L123.582,398.373L124.091,398.357L124.6,398.341L125.109,398.325L125.618,398.309L126.127,398.293L126.636,398.276L127.145,398.259L127.653,398.242L128.162,398.225L128.671,398.208L129.18,398.19L129.689,398.173L130.198,398.155L130.707,398.137L131.216,398.119L131.725,398.1L132.234,398.082L132.743,398.063L133.252,398.044L133.76,398.025L134.269,398.005L134.778,397.986L135.287,397.966L135.796,397.946L136.305,397.926L136.814,397.905L137.323,397.884L137.832,397.863L138.341,397.842L138.85,397.821L139.358,397.799L139.867,397.778L140.376,397.755L140.885,397.733L141.394,397.711L141.903,397.688L142.412,397.665L142.921,397.642L143.43,397.618L143.939,397.594L144.448,397.57L144.957,397.546L145.465,397.521L145.974,397.497L146.483,397.471L146.992,397.446L147.501,397.42L148.01,397.394L148.519,397.368L149.028,397.342L149.537,397.315L150.046,397.288L150.555,397.261L151.063,397.233L151.572,397.205L152.081,397.177L152.59,397.148L153.099,397.119L153.608,397.09L154.117,397.06L154.626,397.03L155.135,397L155.644,396.97L156.153,396.939L156.662,396.908L157.17,396.876L157.679,396.844L158.188,396.812L158.697,396.779L159.206,396.746L159.715,396.713L160.224,396.679L160.733,396.645L161.242,396.611L161.751,396.576L162.26,396.541L162.769,396.505L163.277,396.469L163.786,396.433L164.295,396.396L164.804,396.359L165.313,396.321L165.822,396.283L166.331,396.245L166.84,396.206L167.349,396.166L167.858,396.126L168.367,396.086L168.875,396.046L169.384,396.004L169.893,395.963L170.402,395.921L170.911,395.878L171.42,395.835L171.929,395.792L172.438,395.748L172.947,395.703L173.456,395.658L173.965,395.612L174.474,395.566L174.982,395.52L175.491,395.473L176,395.425L176.509,395.377L177.018,395.328L177.527,395.279L178.036,395.229L178.545,395.179L179.054,395.128L179.563,395.076L180.072,395.024L180.58,394.971L181.089,394.918L181.598,394.864L182.107,394.81L182.616,394.754L183.125,394.699L183.634,394.642L184.143,394.585L184.652,394.527L185.161,394.469L185.67,394.41L186.179,394.35L186.687,394.29L187.196,394.228L187.705,394.166L188.214,394.104L188.723,394.041L189.232,393.977L189.741,393.912L190.25,393.846L190.759,393.78L191.268,393.713L191.777,393.645L192.285,393.577L192.794,393.507L193.303,393.437L193.812,393.366L194.321,393.294L194.83,393.221L195.339,393.148L195.848,393.073L196.357,392.998L196.866,392.922L197.375,392.845L197.884,392.767L198.392,392.688L198.901,392.608L199.41,392.528L199.919,392.446L200.428,392.363L200.937,392.28L201.446,392.195L201.955,392.11L202.464,392.023L202.973,391.936L203.482,391.847L203.99,391.757L204.499,391.667L205.008,391.575L205.517,391.482L206.026,391.388L206.535,391.293L207.044,391.197L207.553,391.1L208.062,391.001L208.571,390.902L209.08,390.801L209.589,390.699L210.097,390.595L210.606,390.491L211.115,390.385L211.624,390.278L212.133,390.17L212.642,390.061L213.151,389.95L213.66,389.838L214.169,389.724L214.678,389.61L215.187,389.493L215.695,389.376L216.204,389.257L216.713,389.137L217.222,389.015L217.731,388.891L218.24,388.767L218.749,388.641L219.258,388.513L219.767,388.384L220.276,388.253L220.785,388.12L221.294,387.986L221.802,387.851L222.311,387.714L222.82,387.575L223.329,387.434L223.838,387.292L224.347,387.148L224.856,387.002L225.365,386.855L225.874,386.706L226.383,386.555L226.892,386.402L227.4,386.247L227.909,386.091L228.418,385.933L228.927,385.772L229.436,385.61L229.945,385.446L230.454,385.28L230.963,385.112L231.472,384.941L231.981,384.769L232.49,384.595L232.999,384.418L233.507,384.24L234.016,384.059L234.525,383.876L235.034,383.691L235.543,383.503L236.052,383.314L236.561,383.122L237.07,382.928L237.579,382.731L238.088,382.532L238.597,382.33L239.105,382.127L239.614,381.92L240.123,381.711L240.632,381.5L241.141,381.286L241.65,381.069L242.159,380.85L242.668,380.628L243.177,380.404L243.686,380.176L244.195,379.946L244.704,379.714L245.212,379.478L245.721,379.239L246.23,378.998L246.739,378.754L247.248,378.506L247.757,378.256L248.266,378.003L248.775,377.746L249.284,377.487L249.793,377.224L250.302,376.958L250.81,376.689L251.319,376.416L251.828,376.141L252.337,375.862L252.846,375.579L253.355,375.293L253.864,375.004L254.373,374.711L254.882,374.415L255.391,374.115L255.9,373.811L256.409,373.504L256.917,373.192L257.426,372.878L257.935,372.559L258.444,372.236L258.953,371.91L259.462,371.58L259.971,371.245L260.48,370.907L260.989,370.564L261.498,370.218L262.007,369.867L262.515,369.512L263.024,369.152L263.533,368.789L264.042,368.421L264.551,368.048L265.06,367.671L265.569,367.29L266.078,366.903L266.587,366.513L267.096,366.117L267.605,365.717L268.114,365.312L268.622,364.902L269.131,364.487L269.64,364.067L270.149,363.643L270.658,363.213L271.167,362.778L271.676,362.338L272.185,361.892L272.694,361.441L273.203,360.985L273.712,360.524L274.22,360.057L274.729,359.584L275.238,359.106L275.747,358.622L276.256,358.133L276.765,357.637L277.274,357.136L277.783,356.629L278.292,356.116L278.801,355.597L279.31,355.072L279.819,354.541L280.327,354.003L280.836,353.459L281.345,352.909L281.854,352.353L282.363,351.79L282.872,351.22L283.381,350.644L283.89,350.061L284.399,349.472L284.908,348.876L285.417,348.273L285.925,347.662L286.434,347.045L286.943,346.421L287.452,345.79L287.961,345.152L288.47,344.506L288.979,343.853L289.488,343.193L289.997,342.525L290.506,341.85L291.015,341.167L291.524,340.476L292.032,339.778L292.541,339.072L293.05,338.358L293.559,337.636L294.068,336.906L294.577,336.169L295.086,335.423L295.595,334.669L296.104,333.906L296.613,333.136L297.122,332.357L297.63,331.57L298.139,330.774L298.648,329.97L299.157,329.157L299.666,328.335L300.175,327.505L300.684,326.666L301.193,325.818L301.702,324.961L302.211,324.096L302.72,323.221L303.229,322.337L303.737,321.445L304.246,320.543L304.755,319.632L305.264,318.711L305.773,317.782L306.282,316.843L306.791,315.895L307.3,314.937L307.809,313.97L308.318,312.993L308.827,312.007L309.335,311.011L309.844,310.006L310.353,308.991L310.862,307.967L311.371,306.933L311.88,305.889L312.389,304.835L312.898,303.772L313.407,302.699L313.916,301.616L314.425,300.523L314.934,299.421L315.442,298.309L315.951,297.187L316.46,296.055L316.969,294.914L317.478,293.763L317.987,292.602L318.496,291.431L319.005,290.25L319.514,289.06L320.023,287.861L320.532,286.651L321.04,285.432L321.549,284.204L322.058,282.966L322.567,281.718L323.076,280.462L323.585,279.196L324.094,277.92L324.603,276.636L325.112,275.342L325.621,274.039L326.13,272.727L326.639,271.407L327.147,270.078L327.656,268.74L328.165,267.393L328.674,266.039L329.183,264.675L329.692,263.304L330.201,261.925L330.71,260.538L331.219,259.143L331.728,257.74L332.237,256.331L332.745,254.914L333.254,253.49L333.763,252.059L334.272,250.621L334.781,249.177L335.29,247.727L335.799,246.271L336.308,244.809L336.817,243.342L337.326,241.869L337.835,240.391L338.344,238.909L338.852,237.422L339.361,235.931L339.87,234.436L340.379,232.938L340.888,231.436L341.397,229.931L341.906,228.424L342.415,226.914L342.924,225.403L343.433,223.89L343.942,222.376L344.45,220.861L344.959,219.346L345.468,217.831L345.977,216.316L346.486,214.802L346.995,213.29L347.504,211.779L348.013,210.27L348.522,208.765L349.031,207.262L349.54,205.763L350.049,204.268L350.557,202.778L351.066,201.293L351.575,199.814L352.084,198.34L352.593,196.874L353.102,195.415L353.611,193.965L354.12,192.522L354.629,191.089L355.138,189.665L355.647,188.252L356.155,186.849L356.664,185.458L357.173,184.08L357.682,182.714L358.191,181.361L358.7,180.023L359.209,178.699L359.718,177.391L360.227,176.098L360.736,174.823L361.245,173.564L361.754,172.324L362.262,171.103L362.771,169.901L363.28,168.719L363.789,167.559L364.298,166.419L364.807,165.302L365.316,164.208L365.825,163.137L366.334,162.091L366.843,161.07L367.352,160.074L367.86,159.105L368.369,158.163L368.878,157.249L369.387,156.363L369.896,155.506L370.405,154.679L370.914,153.882L371.423,153.116L371.932,152.383L372.441,151.681L372.95,151.012L373.459,150.377L373.967,149.776L374.476,149.21L374.985,148.679L375.494,148.184L376.003,147.725L376.512,147.303L377.021,146.918L377.53,146.572L378.039,146.263L378.548,145.994L379.057,145.763L379.565,145.573L380.074,145.422L380.583,145.311L381.092,145.242L381.601,145.213L382.11,145.225L382.619,145.279L383.128,145.375L383.637,145.513L384.146,145.693L384.655,145.915L385.164,146.179L385.672,146.486L386.181,146.836L386.69,147.228L387.199,147.663L387.708,148.141L388.217,148.661L388.726,149.223L389.235,149.828L389.744,150.475L390.253,151.164L390.762,151.895L391.27,152.667L391.779,153.48L392.288,154.335L392.797,155.23L393.306,156.166L393.815,157.141L394.324,158.156L394.833,159.209L395.342,160.302L395.851,161.432L396.36,162.6L396.869,163.804L397.377,165.045L397.886,166.322L398.395,167.633L398.904,168.979L399.413,170.359L399.922,171.771L400.431,173.216L400.94,174.692L401.449,176.199L401.958,177.736L402.467,179.302L402.975,180.896L403.484,182.518L403.993,184.166L404.502,185.839L405.011,187.537L405.52,189.26L406.029,191.005L406.538,192.772L407.047,194.56L407.556,196.368L408.065,198.195L408.574,200.041L409.082,201.903L409.591,203.782L410.1,205.677L410.609,207.586L411.118,209.508L411.627,211.442L412.136,213.389L412.645,215.345L413.154,217.311L413.663,219.286L414.172,221.269L414.68,223.258L415.189,225.254L415.698,227.254L416.207,229.258L416.716,231.266L417.225,233.276L417.734,235.287L418.243,237.299L418.752,239.311L419.261,241.321L419.77,243.33L420.279,245.336L420.787,247.339L421.296,249.337L421.805,251.331L422.314,253.319L422.823,255.301L423.332,257.275L423.841,259.242L424.35,261.201L424.859,263.151L425.368,265.091L425.877,267.022L426.385,268.941L426.894,270.849L427.403,272.746L427.912,274.63L428.421,276.502L428.93,278.36L429.439,280.205L429.948,282.036L430.457,283.852L430.966,285.653L431.475,287.439L431.984,289.21L432.492,290.965L433.001,292.703L433.51,294.426L434.019,296.131L434.528,297.819L435.037,299.491L435.546,301.144L436.055,302.78L436.564,304.399L437.073,305.999L437.582,307.581L438.09,309.145L438.599,310.691L439.108,312.218L439.617,313.726L440.126,315.216L440.635,316.687L441.144,318.139L441.653,319.573L442.162,320.988L442.671,322.384L443.18,323.761L443.689,325.119L444.197,326.458L444.706,327.779L445.215,329.081L445.724,330.364L446.233,331.629L446.742,332.875L447.251,334.103L447.76,335.312L448.269,336.503L448.778,337.676L449.287,338.831L449.795,339.968L450.304,341.087L450.813,342.189L451.322,343.273L451.831,344.34L452.34,345.389L452.849,346.421L453.358,347.436L453.867,348.435L454.376,349.417L454.885,350.382L455.394,351.331L455.902,352.264L456.411,353.181L456.92,354.083L457.429,354.968L457.938,355.839L458.447,356.694L458.956,357.534L459.465,358.359L459.974,359.17L460.483,359.966L460.992,360.748L461.5,361.515L462.009,362.269L462.518,363.009L463.027,363.736L463.536,364.449L464.045,365.149L464.554,365.837L465.063,366.511L465.572,367.173L466.081,367.822L466.59,368.46L467.099,369.085L467.607,369.699L468.116,370.3L468.625,370.891L469.134,371.47L469.643,372.038L470.152,372.596L470.661,373.142L471.17,373.678L471.679,374.204L472.188,374.719L472.697,375.224L473.205,375.72L473.714,376.206L474.223,376.682L474.732,377.149L475.241,377.607L475.75,378.056L476.259,378.496L476.768,378.928L477.277,379.35L477.786,379.765L478.295,380.171L478.804,380.569L479.312,380.959L479.821,381.342L480.33,381.716L480.839,382.083L481.348,382.443L481.857,382.796L482.366,383.142L482.875,383.48L483.384,383.812L483.893,384.137L484.402,384.455L484.91,384.768L485.419,385.073L485.928,385.373L486.437,385.666L486.946,385.954L487.455,386.236L487.964,386.512L488.473,386.782L488.982,387.047L489.491,387.306L490,387.561L490.509,387.81L491.017,388.054L491.526,388.293L492.035,388.527L492.544,388.756L493.053,388.981L493.562,389.201L494.071,389.416L494.58,389.627L495.089,389.834L495.598,390.037L496.107,390.235L496.615,390.429L497.124,390.62L497.633,390.806L498.142,390.989L498.651,391.168L499.16,391.343L499.669,391.515L500.178,391.683L500.687,391.848L501.196,392.009L501.705,392.167L502.214,392.322L502.722,392.473L503.231,392.622L503.74,392.767L504.249,392.91L504.758,393.05L505.267,393.186L505.776,393.32L506.285,393.451L506.794,393.58L507.303,393.706L507.812,393.829L508.32,393.95L508.829,394.068L509.338,394.184L509.847,394.298L510.356,394.409L510.865,394.518L511.374,394.625L511.883,394.729L512.392,394.832L512.901,394.932L513.41,395.03L513.919,395.127L514.427,395.221L514.936,395.314L515.445,395.404L515.954,395.493L516.463,395.58L516.972,395.665L517.481,395.748L517.99,395.83L518.499,395.91L519.008,395.989L519.517,396.066L520.025,396.141L520.534,396.215L521.043,396.287L521.552,396.358L522.061,396.428L522.57,396.496L523.079,396.562L523.588,396.628L524.097,396.692L524.606,396.755L525.115,396.816L525.624,396.876L526.132,396.935L526.641,396.993L527.15,397.05L527.659,397.106L528.168,397.16L528.677,397.213L529.186,397.266L529.695,397.317L530.204,397.367L530.713,397.417L531.222,397.465L531.73,397.512L532.239,397.559L532.748,397.604L533.257,397.649L533.766,397.693L534.275,397.735L534.784,397.777L535.293,397.819L535.802,397.859L536.311,397.899L536.82,397.937L537.329,397.975L537.837,398.013L538.346,398.049L538.855,398.085L539.364,398.12L539.873,398.155L540.382,398.188L540.891,398.222L541.4,398.254L541.909,398.286L542.418,398.317L542.927,398.348L543.435,398.378L543.944,398.407L544.453,398.436L544.962,398.465L545.471,398.492L545.98,398.52L546.489,398.546L546.998,398.572L547.507,398.598L548.016,398.623L548.525,398.648L549.034,398.672L549.542,398.696L550.051,398.719L550.56,398.742L551.069,398.765L551.578,398.787L552.087,398.808L552.596,398.83L553.105,398.85L553.614,398.871L554.123,398.891L554.632,398.91L555.14,398.93L555.649,398.949L556.158,398.967L556.667,398.985L557.176,399.003L557.685,399.021L558.194,399.038L558.703,399.055L559.212,399.071L559.721,399.087L560.23,399.103L560.739,399.119L561.247,399.134L561.756,399.149L562.265,399.164L562.774,399.179L563.283,399.193L563.792,399.207L564.301,399.221" stroke="blue" stroke-width="2" stroke-dasharray="1,0"/></g></g><path class="foreground" aria-hidden="true" d="" display="none"/></g></g><g class="mark-group role-legend" role="graphics-symbol" aria-roledescription="legend" aria-label="Symbol legend titled 'モデル' for stroke color with 2 values: 正規分布, 最適フィット (johnsonsu)"><g transform="translate(0,-45)"><path class="background" aria-hidden="true" d="M0,0h199v27h-199Z" pointer-events="none"/><g><g class="mark-group role-legend-entry"><g transform="translate(0,16)"><path class="background" aria-hidden="true" d="M0,0h0v0h0Z" pointer-events="none"/><g><g class="mark-group role-scope" role="graphics-object" aria-roledescription="group mark container"><g transform="translate(0,0)"><path class="background" aria-hidden="true" d="M0,0h56v11h-56Z" pointer-events="none" opacity="1"/><g><g class="mark-symbol role-legend-symbol" pointer-events="none"><path transform="translate(6,6)" d="M-5,0L5,0" stroke="red" stroke-width="1.5" opacity="1"/></g><g class="mark-text role-legend-label" pointer-events="none"><text text-anchor="start" transform="translate(16,9)" font-family="sans-serif" font-size="10px" fill="#000" opacity="1">正規分布</text></g></g><path class="foreground" aria-hidden="true" d="" pointer-events="none" display="none"/></g><g transform="translate(67,0)"><path class="background" aria-hidden="true" d="M0,0h131.029296875v11h-131.029296875Z" pointer-events="none" opacity="1"/><g><g class="mark-symbol role-legend-symbol" pointer-events="none"><path transform="translate(6,6)" d="M-5,0L5,0" stroke="blue" stroke-width="1.5" opacity="1"/></g><g class="mark-text role-legend-label" pointer-events="none"><text text-anchor="start" transform="translate(16,9)" font-family="sans-serif" font-size="10px" fill="#000" opacity="1">最適フィット (johnsonsu)</text></g></g><path class="foreground" aria-hidden="true" d="" pointer-events="none" display="none"/></g></g></g><path class="foreground" aria-hidden="true" d="" pointer-events="none" display="none"/></g></g><g class="mark-text role-legend-title" pointer-events="none"><text text-anchor="start" transform="translate(0,9)" font-family="sans-serif" font-size="11px" font-weight="bold" fill="#000" opacity="1">モデル</text></g></g><path class="foreground" aria-hidden="true" d="" pointer-events="none" display="none"/></g></g><g class="mark-group role-title"><g transform="translate(300,-62)"><path class="background" aria-hidden="true" d="M0,0h0v0h0Z" pointer-events="none"/><g><g class="mark-text role-title-text" role="graphics-symbol" aria-roledescription="title" aria-label="Title text 'ACWI 月次 対数リターン'" pointer-events="none"><text text-anchor="middle" transform="translate(0,10)" font-family="sans-serif" font-size="13px" font-weight="bold" fill="#000" opacity="1">ACWI 月次 対数リターン</text></g></g><path class="foreground" aria-hidden="true" d="" pointer-events="none" display="none"/></g></g></g><path class="foreground" aria-hidden="true" d="" display="none"/></g></g></g></svg>