<svg xmlns="http://www.w3.org/2000/svg" xmlns:xlink="http://www.w3.org/1999/xlink" version="1.1" class="marks" width="645" height="504" viewBox="0 0 645 504"><rect width="645" height="504" fill="white"/><g fill="none" stroke-miterlimit="10" transform="translate(39,67)"><g class="mark-group role-frame root" role="graphics-object" aria-roledescription="group mark container"><g transform="translate(0,0)"><path class="background" aria-hidden="true" d="M0.5,0.5h600v400h-600Z" stroke="#ddd"/><g><g class="mark-group role-axis" aria-hidden="true"><g transform="translate(0.5,400.5)"><path class="background" aria-hidden="true" d="M0,0h0v0h0Z" pointer-events="none"/><g><g class="mark-rule role-axis-grid" pointer-events="none"><line transform="translate(0,-400)" x2="0" y2="400" stroke="#ddd" stroke-width="1" opacity="1"/><line transform="translate(60,-400)" x2="0" y2="400" stroke="#ddd" stroke-width="1" opacity="1"/><line transform="translate(120,-400)" x2="0" y2="400" stroke="#ddd" stroke-width="1" opacity="1"/><line transform="translate(180,-400)" x2="0" y2="400" stroke="#ddd" stroke-width="1" opacity="1"/><line transform="translate(240,-400)" x2="0" y2="400" stroke="#ddd" stroke-width="1" opacity="1"/><line transform="translate(300,-400)" x2="0" y2="400" stroke="#ddd" stroke-width="1" opacity="1"/><line transform="translate(360,-400)" x2="0" y2="400" stroke="#ddd" stroke-width="1" opacity="1"/><line transform="translate(420,-400)" x2="0" y2="400" stroke="#ddd" stroke-width="1" opacity="1"/><line transform="translate(480,-400)" x2="0" y2="400" stroke="#ddd" stroke-width="1" opacity="1"/><line transform="translate(540,-400)" x2="0" y2="400" stroke="#ddd" stroke-width="1" opacity="1"/><line transform="translate(600,-400)" x2="0" y2="400" stroke="#ddd" stroke-width="1" opacity="1"/></g></g><path class="foreground" aria-hidden="true" d="" pointer-events="none" display="none"/></g></g><g class="mark-group role-axis" aria-hidden="true"><g transform="translate(0.5,0.5)"><path class="background" aria-hidden="true" d="M0,0h0v0h0Z" pointer-events="none"/><g><g class="mark-rule role-axis-grid" pointer-events="none"><line transform="translate(0,400)" x2="600" y2="0" stroke="#ddd" stroke-width="1" opacity="1"/><line transform="translate(0,350)" x2="600" y2="0" stroke="#ddd" stroke-width="1" opacity="1"/><line transform="translate(0,300)" x2="600" y2="0" stroke="#ddd" stroke-width="1" opacity="1"/><line transform="translate(0,250)" x2="600" y2="0" stroke="#ddd" stroke-width="1" opacity="1"/><line transform="translate(0,200)" x2="600" y2="0" stroke="#ddd" stroke-width="1" opacity="1"/><line transform="translate(0,150)" x2="600" y2="0" stroke="#ddd" stroke-width="1" opacity="1"/><line transform="translate(0,100)" x2="600" y2="0" stroke="#ddd" stroke-width="1" opacity="1"/><line transform="translate(0,50)" x2="600" y2="0" stroke="#ddd" stroke-width="1" opacity="1"/><line transform="translate(0,0)" x2="600" y2="0" stroke="#ddd" stroke-width="1" opacity="1"/></g></g><path class="foreground" aria-hidden="true" d="" pointer-events="none" display="none"/></g></g><g class="mark-group role-axis" role="graphics-symbol" aria-roledescription="axis" aria-label="X-axis titled '対数リターン' for a linear scale with values from −0.3 to 0.2"><g transform="translate(0.5,400.5)"><path class="background" aria-hidden="true" d="M0,0h0v0h0Z" pointer-events="none"/><g><g class="mark-rule role-axis-tick" pointer-events="none"><line transform="translate(0,0)" x2="0" y2="5" stroke="#888" stroke-width="1" opacity="1"/><line transform="translate(60,0)" x2="0" y2="5" stroke="#888" stroke-width="1" opacity="1"/><line transform="translate(120,0)" x2="0" y2="5" stroke="#888" stroke-width="1" opacity="1"/><line transform="translate(180,0)" x2="0" y2="5" stroke="#888" stroke-width="1" opacity="1"/><line transform="translate(240,0)" x2="0" y2="5" stroke="#888" stroke-width="1" opacity="1"/><line transform="translate(300,0)" x2="0" y2="5" stroke="#888" stroke-width="1" opacity="1"/><line transform="translate(360,0)" x2="0" y2="5" stroke="#888" stroke-width="1" opacity="1"/><line transform="translate(420,0)" x2="0" y2="5" stroke="#888" stroke-width="1" opacity="1"/><line transform="translate(480,0)" x2="0" y2="5" stroke="#888" stroke-width="1" opacity="1"/><line transform="translate(540,0)" x2="0" y2="5" stroke="#888" stroke-width="1" opacity="1"/><line transform="translate(600,0)" x2="0" y2="5" stroke="#888" stroke-width="1" opacity="1"/></g><g class="mark-text role-axis-label" pointer-events="none"><text text-anchor="start" transform="translate(0,15)" font-family="sans-serif" font-size="10px" fill="#000" opacity="1">−0.30</text><text text-anchor="middle" transform="translate(59.999999999999986,15)" font-family="sans-serif" font-size="10px" fill="#000" opacity="1">−0.25</text><text text-anchor="middle" transform="translate(119.99999999999997,15)" font-family="sans-serif" font-size="10px" fill="#000" opacity="1">−0.20</text><text text-anchor="middle" transform="translate(180,15)" font-family="sans-serif" font-size="10px" fill="#000" opacity="1">−0.15</text><text text-anchor="middle" transform="translate(239.99999999999997,15)" font-family="sans-serif" font-size="10px" fill="#000" opacity="1">−0.10</text><text text-anchor="middle" transform="translate(300,15)" font-family="sans-serif" font-size="10px" fill="#000" opacity="1">−0.05</text><text text-anchor="middle" transform="translate(360,15)" font-family="sans-serif" font-size="10px" fill="#000" opacity="1">0.00</text><text text-anchor="middle" transform="translate(420,15)" font-family="sans-serif" font-size="10px" fill="#000" opacity="1">0.05</text><text text-anchor="middle" transform="translate(480,15)" font-family="sans-serif" font-size="10px" fill="#000" opacity="1">0.10</text><text text-anchor="middle" transform="translate(540,15)" font-family="sans-serif" font-size="10px" fill="#000" opacity="1">0.15</text><text text-anchor="end" transform="translate(600,15)" font-family="sans-serif" font-size="10px" fill="#000" opacity="1">0.20</text></g><g class="mark-rule role-axis-domain" pointer-events="none"><line transform="translate(0,0)" x2="600" y2="0" stroke="#888" stroke-width="1" opacity="1"/></g><g class="mark-text role-axis-title" pointer-events="none"><text text-anchor="middle" transform="translate(300,30)" font-family="sans-serif" font-size="11px" font-weight="bold" fill="#000" opacity="1">対数リターン</text></g></g><path class="foreground" aria-hidden="true" d="" pointer-events="none" display="none"/></g></g><g class="mark-group role-axis" role="graphics-symbol" aria-roledescription="axis" aria-label="Y-axis titled '頻度' for a linear scale with values from 0 to 16"><g transform="translate(0.5,0.5)"><path class="background" aria-hidden="true" d="M0,0h0v0h0Z" pointer-events="none"/><g><g class="mark-rule role-axis-tick" pointer-events="none"><line transform="translate(0,400)" x2="-5" y2="0" stroke="#888" stroke-width="1" opacity="1"/><line transform="translate(0,350)" x2="-5" y2="0" stroke="#888" stroke-width="1" opacity="1"/><line transform="translate(0,300)" x2="-5" y2="0" stroke="#888" stroke-width="1" opacity="1"/><line transform="translate(0,250)" x2="-5" y2="0" stroke="#888" stroke-width="1" opacity="1"/><line transform="translate(0,200)" x2="-5" y2="0" stroke="#888" stroke-width="1" opacity="1"/><line transform="translate(0,150)" x2="-5" y2="0" stroke="#888" stroke-width="1" opacity="1"/><line transform="translate(0,100)" x2="-5" y2="0" stroke="#888" stroke-width="1" opacity="1"/><line transform="translate(0,50)" x2="-5" y2="0" stroke="#888" stroke-width="1" opacity="1"/><line transform="translate(0,0)" x2="-5" y2="0" stroke="#888" stroke-width="1" opacity="1"/></g><g class="mark-text role-axis-label" pointer-events="none"><text text-anchor="end" transform="translate(-7,403)" font-family="sans-serif" font-size="10px" fill="#000" opacity="1">0</text><text text-anchor="end" transform="translate(-7,353)" font-family="sans-serif" font-size="10px" fill="#000" opacity="1">2</text><text text-anchor="end" transform="translate(-7,303)" font-family="sans-serif" font-size="10px" fill="#000" opacity="1">4</text><text text-anchor="end" transform="translate(-7,253)" font-family="sans-serif" font-size="10px" fill="#000" opacity="1">6</text><text text-anchor="end" transform="translate(-7,203)" font-family="sans-serif" font-size="10px" fill="#000" opacity="1">8</text><text text-anchor="end" transform="translate(-7,153)" font-family="sans-serif" font-size="10px" fill="#000" opacity="1">10</text><text text-anchor="end" transform="translate(-7,103)" font-family="sans-serif" font-size="10px" fill="#000" opacity="1">12</text><text text-anchor="end" transform="translate(-7,53)" font-family="sans-serif" font-size="10px" fill="#000" opacity="1">14</text><text text-anchor="end" transform="translate(-7,3)" font-family="sans-serif" font-size="10px" fill="#000" opacity="1">16</text></g><g class="mark-rule role-axis-domain" pointer-events="none"><line transform="translate(0,400)" x2="0" y2="-400" stroke="#888" stroke-width="1" opacity="1"/></g><g class="mark-text role-axis-title" pointer-events="none"><text text-anchor="middle" transform="translate(-22.123046875,200) rotate(-90) translate(0,-2)" font-family="sans-serif" font-size="11px" font-weight="bold" fill="#000" opacity="1">頻度</text></g></g><path class="foreground" aria-hidden="true" d="" pointer-events="none" display="none"/></g></g><g class="mark-rect role-mark layer_0_marks" role="graphics-object" aria-roledescription="rect mark container"><path aria-label="対数リターン: −0.20018265014; 頻度: 0.715176647801" role="graphics-symbol" aria-roledescription="bar" d="M117.28081983173706,382.1205838049683h5v17.879416195031695h-5Z" fill="gray" opacity="0.4"/><path aria-label="対数リターン: −0.193709242984; 頻度: 0" role="graphics-symbol" aria-roledescription="bar" d="M125.04890841885117,400h5v0h-5Z" fill="gray" opacity="0.4"/><path aria-label="対数リターン: −0.187235835828; 頻度: 0" role="graphics-symbol" aria-roledescription="bar" d="M132.81699700596528,400h5v0h-5Z" fill="gray" opacity="0.4"/><path aria-label="対数リターン: −0.180762428672; 頻度: 0" role="graphics-symbol" aria-roledescription="bar" d="M140.5850855930794,400h5v0h-5Z" fill="gray" opacity="0.4"/><path aria-label="対数リターン: −0.174289021517; 頻度: 0" role="graphics-symbol" aria-roledescription="bar" d="M148.35317418019352,400h5v0h-5Z" fill="gray" opacity="0.4"/><path aria-label="対数リターン: −0.167815614361; 頻度: 0" role="graphics-symbol" aria-roledescription="bar" d="M156.12126276730763,400h5v0h-5Z" fill="gray" opacity="0.4"/><path aria-label="対数リターン: −0.161342207205; 頻度: 0" role="graphics-symbol" aria-roledescription="bar" d="M163.88935135442173,400h5v0h-5Z" fill="gray" opacity="0.4"/><path aria-label="対数リターン: −0.154868800049; 頻度: 0" role="graphics-symbol" aria-roledescription="bar" d="M171.65743994153584,400h5v0h-5Z" fill="gray" opacity="0.4"/><path aria-label="対数リターン: −0.148395392893; 頻度: 0" role="graphics-symbol" aria-roledescription="bar" d="M179.42552852864995,400h5v0h-5Z" fill="gray" opacity="0.4"/><path aria-label="対数リターン: −0.141921985737; 頻度: 0.715176647801" role="graphics-symbol" aria-roledescription="bar" d="M187.1936171157641,382.1205838049683h5v17.879416195031695h-5Z" fill="gray" opacity="0.4"/><path aria-label="対数リターン: −0.135448578581; 頻度: 0" role="graphics-symbol" aria-roledescription="bar" d="M194.96170570287822,400h5v0h-5Z" fill="gray" opacity="0.4"/><path aria-label="対数リターン: −0.128975171425; 頻度: 0.715176647801" role="graphics-symbol" aria-roledescription="bar" d="M202.72979428999233,382.1205838049683h5v17.879416195031695h-5Z" fill="gray" opacity="0.4"/><path aria-label="対数リターン: −0.122501764269; 頻度: 0.715176647801" role="graphics-symbol" aria-roledescription="bar" d="M210.49788287710643,382.1205838049683h5v17.879416195031695h-5Z" fill="gray" opacity="0.4"/><path aria-label="対数リターン: −0.116028357113; 頻度: 0" role="graphics-symbol" aria-roledescription="bar" d="M218.26597146422054,400h5v0h-5Z" fill="gray" opacity="0.4"/><path aria-label="対数リターン: −0.109554949957; 頻度: 0.715176647801" role="graphics-symbol" aria-roledescription="bar" d="M226.03406005133465,382.12058380496836h5v17.879416195031638h-5Z" fill="gray" opacity="0.4"/><path aria-label="対数リターン: −0.103081542801; 頻度: 0.715176647801" role="graphics-symbol" aria-roledescription="bar" d="M233.80214863844878,382.1205838049683h5v17.879416195031695h-5Z" fill="gray" opacity="0.4"/><path aria-label="対数リターン: −0.0966081356454; 頻度: 2.1455299434" role="graphics-symbol" aria-roledescription="bar" d="M241.5702372255629,346.36175141490486h5v53.63824858509514h-5Z" fill="gray" opacity="0.4"/><path aria-label="対数リターン: −0.0901347284894; 頻度: 0.715176647801" role="graphics-symbol" aria-roledescription="bar" d="M249.338325812677,382.12058380496836h5v17.879416195031638h-5Z" fill="gray" opacity="0.4"/><path aria-label="対数リターン: −0.0836613213335; 頻度: 2.1455299434" role="graphics-symbol" aria-roledescription="bar" d="M257.1064143997911,346.36175141490486h5v53.63824858509514h-5Z" fill="gray" opacity="0.4"/><path aria-label="対数リターン: −0.0771879141776; 頻度: 3.57588323901" role="graphics-symbol" aria-roledescription="bar" d="M264.8745029869052,310.6029190248415h5v89.39708097515847h-5Z" fill="gray" opacity="0.4"/><path aria-label="対数リターン: −0.0707145070217; 頻度: 0.715176647801" role="graphics-symbol" aria-roledescription="bar" d="M272.6425915740193,382.1205838049683h5v17.879416195031695h-5Z" fill="gray" opacity="0.4"/><path aria-label="対数リターン: −0.0642410998657; 頻度: 0.715176647801" role="graphics-symbol" aria-roledescription="bar" d="M280.4106801611334,382.1205838049683h5v17.879416195031695h-5Z" fill="gray" opacity="0.4"/><path aria-label="対数リターン: −0.0577676927098; 頻度: 0" role="graphics-symbol" aria-roledescription="bar" d="M288.17876874824753,400h5v0h-5Z" fill="gray" opacity="0.4"/><path aria-label="対数リターン: −0.0512942855539; 頻度: 1.4303532956" role="graphics-symbol" aria-roledescription="bar" d="M295.9468573353617,364.2411676099366h5v35.75883239006339h-5Z" fill="gray" opacity="0.4"/><path aria-label="対数リターン: −0.0448208783979; 頻度: 5.72141318241" role="graphics-symbol" aria-roledescription="bar" d="M303.71494592247575,256.9646704397464h5v143.03532956025361h-5Z" fill="gray" opacity="0.4"/><path aria-label="対数リターン: −0.038347471242; 頻度: 2.1455299434" role="graphics-symbol" aria-roledescription="bar" d="M311.4830345095899,346.36175141490486h5v53.63824858509514h-5Z" fill="gray" opacity="0.4"/><path aria-label="対数リターン: −0.0318740640861; 頻度: 5.00623653461" role="graphics-symbol" aria-roledescription="bar" d="M319.25112309670396,274.8440866347781h5v125.15591336522192h-5Z" fill="gray" opacity="0.4"/><path aria-label="対数リターン: −0.0254006569302; 頻度: 7.86694312581" role="graphics-symbol" aria-roledescription="bar" d="M327.0192116838181,203.32642185465133h5v196.67357814534867h-5Z" fill="gray" opacity="0.4"/><path aria-label="対数リターン: −0.0189272497742; 頻度: 5.00623653461" role="graphics-symbol" aria-roledescription="bar" d="M334.78730027093223,274.84408663477865h5v125.15591336522135h-5Z" fill="gray" opacity="0.4"/><path aria-label="対数リターン: −0.0124538426183; 頻度: 7.86694312581" role="graphics-symbol" aria-roledescription="bar" d="M342.55538885804634,203.32642185465133h5v196.67357814534867h-5Z" fill="gray" opacity="0.4"/><path aria-label="対数リターン: −0.00598043546237; 頻度: 5.00623653461" role="graphics-symbol" aria-roledescription="bar" d="M350.32347744516045,274.8440866347781h5v125.15591336522192h-5Z" fill="gray" opacity="0.4"/><path aria-label="対数リターン: 0.000492971693562; 頻度: 6.43658983021" role="graphics-symbol" aria-roledescription="bar" d="M358.09156603227456,239.08525424471475h5v160.91474575528525h-5Z" fill="gray" opacity="0.4"/><path aria-label="対数リターン: 0.00696637884949; 頻度: 10.727649717" role="graphics-symbol" aria-roledescription="bar" d="M365.85965461938866,131.80875707452455h5v268.1912429254754h-5Z" fill="gray" opacity="0.4"/><path aria-label="対数リターン: 0.0134397860054; 頻度: 14.303532956" role="graphics-symbol" aria-roledescription="bar" d="M373.62774320650277,42.41167609936603h5v357.58832390063395h-5Z" fill="gray" opacity="0.4"/><path aria-label="対数リターン: 0.0199131931613; 頻度: 13.5883563082" role="graphics-symbol" aria-roledescription="bar" d="M381.3958317936169,60.29109229439773h5v339.70890770560226h-5Z" fill="gray" opacity="0.4"/><path aria-label="対数リターン: 0.0263866003173; 頻度: 12.1580030126" role="graphics-symbol" aria-roledescription="bar" d="M389.163920380731,96.04992468446238h5v303.9500753155376h-5Z" fill="gray" opacity="0.4"/><path aria-label="対数リターン: 0.0328600074732; 頻度: 6.43658983021" role="graphics-symbol" aria-roledescription="bar" d="M396.9320089678452,239.08525424471475h5v160.91474575528525h-5Z" fill="gray" opacity="0.4"/><path aria-label="対数リターン: 0.0393334146291; 頻度: 5.00623653461" role="graphics-symbol" aria-roledescription="bar" d="M404.70009755495926,274.8440866347781h5v125.15591336522192h-5Z" fill="gray" opacity="0.4"/><path aria-label="対数リターン: 0.0458068217851; 頻度: 6.43658983021" role="graphics-symbol" aria-roledescription="bar" d="M412.4681861420734,239.08525424471475h5v160.91474575528525h-5Z" fill="gray" opacity="0.4"/><path aria-label="対数リターン: 0.052280228941; 頻度: 8.58211977362" role="graphics-symbol" aria-roledescription="bar" d="M420.23627472918747,185.44700565961963h5v214.55299434038037h-5Z" fill="gray" opacity="0.4"/><path aria-label="対数リターン: 0.0587536360969; 頻度: 2.86070659121" role="graphics-symbol" aria-roledescription="bar" d="M428.00436331630164,328.48233521987316h5v71.51766478012684h-5Z" fill="gray" opacity="0.4"/><path aria-label="対数リターン: 0.0652270432528; 頻度: 1.4303532956" role="graphics-symbol" aria-roledescription="bar" d="M435.7724519034157,364.2411676099366h5v35.75883239006339h-5Z" fill="gray" opacity="0.4"/><path aria-label="対数リターン: 0.0717004504088; 頻度: 2.1455299434" role="graphics-symbol" aria-roledescription="bar" d="M443.54054049052985,346.36175141490486h5v53.63824858509514h-5Z" fill="gray" opacity="0.4"/><path aria-label="対数リターン: 0.0781738575647; 頻度: 2.86070659121" role="graphics-symbol" aria-roledescription="bar" d="M451.3086290776439,328.48233521987316h5v71.51766478012684h-5Z" fill="gray" opacity="0.4"/><path aria-label="対数リターン: 0.0846472647206; 頻度: 0.715176647801" role="graphics-symbol" aria-roledescription="bar" d="M459.07671766475806,382.1205838049685h5v17.879416195031524h-5Z" fill="gray" opacity="0.4"/><path aria-label="対数リターン: 0.0911206718766; 頻度: 3.57588323901" role="graphics-symbol" aria-roledescription="bar" d="M466.8448062518722,310.6029190248415h5v89.39708097515847h-5Z" fill="gray" opacity="0.4"/><path aria-label="対数リターン: 0.0975940790325; 頻度: 0.715176647801" role="graphics-symbol" aria-roledescription="bar" d="M474.6128948389863,382.1205838049683h5v17.879416195031695h-5Z" fill="gray" opacity="0.4"/><path aria-label="対数リターン: 0.104067486188; 頻度: 0.715176647801" role="graphics-symbol" aria-roledescription="bar" d="M482.38098342610044,382.1205838049683h5v17.879416195031695h-5Z" fill="gray" opacity="0.4"/><path aria-label="対数リターン: 0.110540893344; 頻度: 0.715176647801" role="graphics-symbol" aria-roledescription="bar" d="M490.1490720132145,382.1205838049683h5v17.879416195031695h-5Z" fill="gray" opacity="0.4"/><path aria-label="対数リターン: 0.1170143005; 頻度: 0.715176647801" role="graphics-symbol" aria-roledescription="bar" d="M497.91716060032866,382.1205838049683h5v17.879416195031695h-5Z" fill="gray" opacity="0.4"/></g><g class="mark-group role-scope layer_1_pathgroup" role="graphics-object" aria-roledescription="group mark container"><g transform="translate(0,0)"><path class="background" aria-hidden="true" d="M0,0h600v400h-600Z"/><g><g class="mark-line role-mark layer_1_marks" role="graphics-object" aria-roledescription="line mark container"><path aria-label="リターン: −0.253419353718; 頻度: 0.00000472377212363; モデル: 正規分布" role="graphics-symbol" aria-roledescription="line mark" d="M55.897,400L56.406,400L56.915,400L57.424,400L57.932,400L58.441,400L58.95,400L59.459,400L59.968,400L60.477,400L60.986,400L61.495,400L62.004,400L62.513,400L63.022,400L63.53,400L64.039,400L64.548,400L65.057,400L65.566,400L66.075,400L66.584,400L67.093,400L67.602,400L68.111,400L68.62,400L69.129,400L69.637,400L70.146,400L70.655,400L71.164,400L71.673,400L72.182,399.999L72.691,399.999L73.2,399.999L73.709,399.999L74.218,399.999L74.727,399.999L75.235,399.999L75.744,399.999L76.253,399.999L76.762,399.999L77.271,399.999L77.78,399.999L78.289,399.999L78.798,399.999L79.307,399.999L79.816,399.999L80.325,399.999L80.834,399.999L81.342,399.999L81.851,399.999L82.36,399.999L82.869,399.999L83.378,399.999L83.887,399.999L84.396,399.999L84.905,399.998L85.414,399.998L85.923,399.998L86.432,399.998L86.94,399.998L87.449,399.998L87.958,399.998L88.467,399.998L88.976,399.998L89.485,399.998L89.994,399.998L90.503,399.998L91.012,399.997L91.521,399.997L92.03,399.997L92.539,399.997L93.047,399.997L93.556,399.997L94.065,399.997L94.574,399.997L95.083,399.997L95.592,399.996L96.101,399.996L96.61,399.996L97.119,399.996L97.628,399.996L98.137,399.996L98.645,399.995L99.154,399.995L99.663,399.995L100.172,399.995L100.681,399.995L101.19,399.994L101.699,399.994L102.208,399.994L102.717,399.994L103.226,399.993L103.735,399.993L104.244,399.993L104.752,399.992L105.261,399.992L105.77,399.992L106.279,399.992L106.788,399.991L107.297,399.991L107.806,399.99L108.315,399.99L108.824,399.99L109.333,399.989L109.842,399.989L110.351,399.988L110.859,399.988L111.368,399.988L111.877,399.987L112.386,399.987L112.895,399.986L113.404,399.985L113.913,399.985L114.422,399.984L114.931,399.984L115.44,399.983L115.949,399.982L116.457,399.982L116.966,399.981L117.475,399.98L117.984,399.98L118.493,399.979L119.002,399.978L119.511,399.977L120.02,399.976L120.529,399.975L121.038,399.974L121.547,399.973L122.056,399.972L122.564,399.971L123.073,399.97L123.582,399.969L124.091,399.968L124.6,399.967L125.109,399.966L125.618,399.964L126.127,399.963L126.636,399.962L127.145,399.96L127.654,399.959L128.162,399.957L128.671,399.956L129.18,399.954L129.689,399.952L130.198,399.951L130.707,399.949L131.216,399.947L131.725,399.945L132.234,399.943L132.743,399.941L133.252,399.939L133.761,399.937L134.269,399.934L134.778,399.932L135.287,399.93L135.796,399.927L136.305,399.925L136.814,399.922L137.323,399.919L137.832,399.916L138.341,399.913L138.85,399.91L139.359,399.907L139.867,399.904L140.376,399.901L140.885,399.897L141.394,399.894L141.903,399.89L142.412,399.886L142.921,399.882L143.43,399.878L143.939,399.874L144.448,399.87L144.957,399.865L145.466,399.861L145.974,399.856L146.483,399.851L146.992,399.846L147.501,399.841L148.01,399.835L148.519,399.83L149.028,399.824L149.537,399.818L150.046,399.812L150.555,399.806L151.064,399.8L151.572,399.793L152.081,399.786L152.59,399.779L153.099,399.772L153.608,399.764L154.117,399.757L154.626,399.749L155.135,399.74L155.644,399.732L156.153,399.723L156.662,399.714L157.171,399.705L157.679,399.696L158.188,399.686L158.697,399.676L159.206,399.666L159.715,399.655L160.224,399.644L160.733,399.633L161.242,399.621L161.751,399.609L162.26,399.597L162.769,399.584L163.277,399.571L163.786,399.558L164.295,399.544L164.804,399.53L165.313,399.515L165.822,399.5L166.331,399.485L166.84,399.469L167.349,399.453L167.858,399.436L168.367,399.419L168.876,399.401L169.384,399.383L169.893,399.364L170.402,399.345L170.911,399.326L171.42,399.305L171.929,399.284L172.438,399.263L172.947,399.241L173.456,399.219L173.965,399.195L174.474,399.172L174.982,399.147L175.491,399.122L176,399.097L176.509,399.07L177.018,399.043L177.527,399.015L178.036,398.987L178.545,398.957L179.054,398.927L179.563,398.896L180.072,398.865L180.581,398.832L181.089,398.799L181.598,398.765L182.107,398.73L182.616,398.694L183.125,398.657L183.634,398.619L184.143,398.581L184.652,398.541L185.161,398.5L185.67,398.459L186.179,398.416L186.688,398.372L187.196,398.327L187.705,398.281L188.214,398.234L188.723,398.186L189.232,398.136L189.741,398.086L190.25,398.034L190.759,397.981L191.268,397.926L191.777,397.87L192.286,397.813L192.794,397.755L193.303,397.695L193.812,397.634L194.321,397.571L194.83,397.507L195.339,397.442L195.848,397.375L196.357,397.306L196.866,397.236L197.375,397.164L197.884,397.09L198.393,397.015L198.901,396.938L199.41,396.859L199.919,396.779L200.428,396.697L200.937,396.613L201.446,396.527L201.955,396.439L202.464,396.349L202.973,396.257L203.482,396.164L203.991,396.068L204.499,395.97L205.008,395.87L205.517,395.768L206.026,395.663L206.535,395.557L207.044,395.448L207.553,395.337L208.062,395.223L208.571,395.107L209.08,394.989L209.589,394.868L210.098,394.745L210.606,394.619L211.115,394.49L211.624,394.359L212.133,394.225L212.642,394.089L213.151,393.949L213.66,393.807L214.169,393.662L214.678,393.515L215.187,393.364L215.696,393.21L216.204,393.053L216.713,392.893L217.222,392.73L217.731,392.564L218.24,392.395L218.749,392.222L219.258,392.046L219.767,391.867L220.276,391.684L220.785,391.498L221.294,391.308L221.803,391.115L222.311,390.918L222.82,390.718L223.329,390.513L223.838,390.306L224.347,390.094L224.856,389.878L225.365,389.659L225.874,389.435L226.383,389.208L226.892,388.976L227.401,388.741L227.909,388.501L228.418,388.257L228.927,388.009L229.436,387.757L229.945,387.5L230.454,387.238L230.963,386.973L231.472,386.702L231.981,386.428L232.49,386.148L232.999,385.864L233.508,385.575L234.016,385.282L234.525,384.983L235.034,384.68L235.543,384.372L236.052,384.059L236.561,383.74L237.07,383.417L237.579,383.089L238.088,382.755L238.597,382.416L239.106,382.072L239.614,381.723L240.123,381.368L240.632,381.008L241.141,380.642L241.65,380.27L242.159,379.894L242.668,379.511L243.177,379.123L243.686,378.729L244.195,378.329L244.704,377.924L245.213,377.512L245.721,377.095L246.23,376.672L246.739,376.243L247.248,375.807L247.757,375.366L248.266,374.919L248.775,374.465L249.284,374.005L249.793,373.539L250.302,373.067L250.811,372.588L251.319,372.103L251.828,371.611L252.337,371.113L252.846,370.609L253.355,370.098L253.864,369.58L254.373,369.056L254.882,368.525L255.391,367.988L255.9,367.444L256.409,366.893L256.918,366.336L257.426,365.771L257.935,365.2L258.444,364.622L258.953,364.038L259.462,363.446L259.971,362.848L260.48,362.242L260.989,361.63L261.498,361.011L262.007,360.384L262.516,359.751L263.025,359.111L263.533,358.464L264.042,357.81L264.551,357.149L265.06,356.48L265.569,355.805L266.078,355.123L266.587,354.434L267.096,353.737L267.605,353.034L268.114,352.324L268.623,351.606L269.131,350.882L269.64,350.15L270.149,349.411L270.658,348.666L271.167,347.913L271.676,347.154L272.185,346.387L272.694,345.614L273.203,344.834L273.712,344.046L274.221,343.252L274.73,342.451L275.238,341.643L275.747,340.829L276.256,340.007L276.765,339.179L277.274,338.344L277.783,337.502L278.292,336.654L278.801,335.799L279.31,334.938L279.819,334.07L280.328,333.196L280.836,332.315L281.345,331.428L281.854,330.535L282.363,329.635L282.872,328.73L283.381,327.818L283.89,326.9L284.399,325.976L284.908,325.046L285.417,324.11L285.926,323.168L286.435,322.221L286.943,321.268L287.452,320.31L287.961,319.346L288.47,318.376L288.979,317.402L289.488,316.422L289.997,315.437L290.506,314.446L291.015,313.451L291.524,312.451L292.033,311.447L292.541,310.437L293.05,309.423L293.559,308.405L294.068,307.382L294.577,306.355L295.086,305.324L295.595,304.289L296.104,303.25L296.613,302.207L297.122,301.16L297.631,300.11L298.14,299.057L298.648,298L299.157,296.94L299.666,295.877L300.175,294.811L300.684,293.743L301.193,292.671L301.702,291.598L302.211,290.521L302.72,289.443L303.229,288.363L303.738,287.28L304.246,286.196L304.755,285.111L305.264,284.024L305.773,282.935L306.282,281.845L306.791,280.755L307.3,279.663L307.809,278.571L308.318,277.479L308.827,276.386L309.336,275.292L309.845,274.199L310.353,273.106L310.862,272.013L311.371,270.921L311.88,269.829L312.389,268.738L312.898,267.648L313.407,266.56L313.916,265.473L314.425,264.387L314.934,263.303L315.443,262.221L315.951,261.141L316.46,260.063L316.969,258.987L317.478,257.915L317.987,256.845L318.496,255.778L319.005,254.714L319.514,253.654L320.023,252.597L320.532,251.544L321.041,250.495L321.55,249.45L322.058,248.409L322.567,247.373L323.076,246.341L323.585,245.315L324.094,244.293L324.603,243.277L325.112,242.266L325.621,241.261L326.13,240.261L326.639,239.268L327.148,238.281L327.657,237.3L328.165,236.326L328.674,235.359L329.183,234.399L329.692,233.446L330.201,232.5L330.71,231.562L331.219,230.631L331.728,229.708L332.237,228.794L332.746,227.888L333.255,226.99L333.763,226.101L334.272,225.22L334.781,224.349L335.29,223.487L335.799,222.634L336.308,221.791L336.817,220.958L337.326,220.134L337.835,219.321L338.344,218.517L338.853,217.724L339.362,216.942L339.87,216.17L340.379,215.41L340.888,214.66L341.397,213.922L341.906,213.195L342.415,212.479L342.924,211.775L343.433,211.083L343.942,210.403L344.451,209.735L344.96,209.08L345.468,208.437L345.977,207.806L346.486,207.188L346.995,206.583L347.504,205.991L348.013,205.412L348.522,204.846L349.031,204.294L349.54,203.755L350.049,203.229L350.558,202.718L351.067,202.22L351.575,201.736L352.084,201.266L352.593,200.811L353.102,200.369L353.611,199.942L354.12,199.53L354.629,199.132L355.138,198.748L355.647,198.38L356.156,198.026L356.665,197.687L357.173,197.363L357.682,197.054L358.191,196.76L358.7,196.481L359.209,196.218L359.718,195.97L360.227,195.737L360.736,195.519L361.245,195.317L361.754,195.131L362.263,194.96L362.772,194.805L363.28,194.665L363.789,194.541L364.298,194.433L364.807,194.34L365.316,194.263L365.825,194.202L366.334,194.157L366.843,194.127L367.352,194.113L367.861,194.115L368.37,194.133L368.878,194.166L369.387,194.215L369.896,194.28L370.405,194.361L370.914,194.458L371.423,194.57L371.932,194.698L372.441,194.841L372.95,195L373.459,195.175L373.968,195.365L374.477,195.571L374.985,195.792L375.494,196.028L376.003,196.28L376.512,196.547L377.021,196.83L377.53,197.127L378.039,197.44L378.548,197.768L379.057,198.11L379.566,198.468L380.075,198.84L380.583,199.227L381.092,199.628L381.601,200.044L382.11,200.475L382.619,200.92L383.128,201.379L383.637,201.852L384.146,202.339L384.655,202.84L385.164,203.355L385.673,203.884L386.182,204.426L386.69,204.982L387.199,205.551L387.708,206.133L388.217,206.728L388.726,207.336L389.235,207.957L389.744,208.591L390.253,209.237L390.762,209.896L391.271,210.567L391.78,211.25L392.288,211.944L392.797,212.651L393.306,213.369L393.815,214.099L394.324,214.84L394.833,215.593L395.342,216.356L395.851,217.13L396.36,217.915L396.869,218.711L397.378,219.517L397.887,220.333L398.395,221.159L398.904,221.994L399.413,222.84L399.922,223.695L400.431,224.559L400.94,225.433L401.449,226.315L401.958,227.206L402.467,228.106L402.976,229.015L403.485,229.931L403.994,230.856L404.502,231.788L405.011,232.728L405.52,233.676L406.029,234.631L406.538,235.593L407.047,236.562L407.556,237.537L408.065,238.519L408.574,239.508L409.083,240.503L409.592,241.504L410.1,242.51L410.609,243.522L411.118,244.54L411.627,245.563L412.136,246.59L412.645,247.623L413.154,248.66L413.663,249.702L414.172,250.748L414.681,251.798L415.19,252.852L415.699,253.91L416.207,254.971L416.716,256.036L417.225,257.103L417.734,258.174L418.243,259.247L418.752,260.323L419.261,261.402L419.77,262.482L420.279,263.565L420.788,264.649L421.297,265.736L421.805,266.823L422.314,267.912L422.823,269.002L423.332,270.093L423.841,271.185L424.35,272.278L424.859,273.371L425.368,274.464L425.877,275.557L426.386,276.65L426.895,277.743L427.404,278.836L427.912,279.928L428.421,281.019L428.93,282.109L429.439,283.199L429.948,284.287L430.457,285.374L430.966,286.459L431.475,287.543L431.984,288.625L432.493,289.704L433.002,290.782L433.51,291.858L434.019,292.931L434.528,294.002L435.037,295.07L435.546,296.135L436.055,297.197L436.564,298.256L437.073,299.312L437.582,300.365L438.091,301.414L438.6,302.46L439.109,303.502L439.617,304.54L440.126,305.574L440.635,306.604L441.144,307.63L441.653,308.652L442.162,309.669L442.671,310.682L443.18,311.69L443.689,312.694L444.198,313.693L444.707,314.687L445.215,315.676L445.724,316.659L446.233,317.638L446.742,318.611L447.251,319.58L447.76,320.542L448.269,321.499L448.778,322.451L449.287,323.397L449.796,324.337L450.305,325.271L450.814,326.2L451.322,327.122L451.831,328.039L452.34,328.949L452.849,329.854L453.358,330.752L453.867,331.644L454.376,332.529L454.885,333.408L455.394,334.281L455.903,335.147L456.412,336.007L456.92,336.86L457.429,337.707L457.938,338.547L458.447,339.38L458.956,340.207L459.465,341.026L459.974,341.839L460.483,342.646L460.992,343.445L461.501,344.237L462.01,345.023L462.519,345.802L463.027,346.574L463.536,347.338L464.045,348.096L464.554,348.847L465.063,349.591L465.572,350.328L466.081,351.058L466.59,351.78L467.099,352.496L467.608,353.205L468.117,353.907L468.625,354.601L469.134,355.289L469.643,355.969L470.152,356.643L470.661,357.309L471.17,357.969L471.679,358.621L472.188,359.267L472.697,359.905L473.206,360.537L473.715,361.161L474.224,361.779L474.732,362.389L475.241,362.993L475.75,363.59L476.259,364.18L476.768,364.763L477.277,365.339L477.786,365.909L478.295,366.471L478.804,367.027L479.313,367.576L479.822,368.119L480.331,368.654L480.839,369.184L481.348,369.706L481.857,370.222L482.366,370.731L482.875,371.234L483.384,371.731L483.893,372.221L484.402,372.704L484.911,373.181L485.42,373.652L485.929,374.117L486.437,374.575L486.946,375.027L487.455,375.473L487.964,375.913L488.473,376.347L488.982,376.775L489.491,377.197L490,377.613L490.509,378.023L491.018,378.427L491.527,378.825L492.036,379.217L492.544,379.604L493.053,379.985L493.562,380.361L494.071,380.731L494.58,381.095L495.089,381.454L495.598,381.808L496.107,382.156L496.616,382.499L497.125,382.836L497.634,383.169L498.142,383.496L498.651,383.818L499.16,384.135L499.669,384.447L500.178,384.754L500.687,385.056L501.196,385.353L501.705,385.646L502.214,385.933L502.723,386.216L503.232,386.495L503.741,386.768L504.249,387.037L504.758,387.302L505.267,387.562L505.776,387.818L506.285,388.07L506.794,388.317L507.303,388.56L507.812,388.798L508.321,389.033L508.83,389.263L509.339,389.49L509.847,389.712L510.356,389.931L510.865,390.145L511.374,390.356L511.883,390.563L512.392,390.767L512.901,390.966L513.41,391.162L513.919,391.354L514.428,391.543L514.937,391.729L515.446,391.911L515.954,392.089L516.463,392.264L516.972,392.436L517.481,392.605L517.99,392.77L518.499,392.932L519.008,393.091L519.517,393.247L520.026,393.401L520.535,393.551L521.044,393.698L521.552,393.842L522.061,393.983L522.57,394.122L523.079,394.258L523.588,394.391L524.097,394.522L524.606,394.649L525.115,394.775L525.624,394.897L526.133,395.018L526.642,395.135L527.151,395.251L527.659,395.364L528.168,395.474L528.677,395.583L529.186,395.689L529.695,395.793L530.204,395.894L530.713,395.994L531.222,396.091L531.731,396.187L532.24,396.28L532.749,396.371L533.257,396.46L533.766,396.548L534.275,396.633L534.784,396.717L535.293,396.799L535.802,396.879L536.311,396.957L536.82,397.033L537.329,397.108L537.838,397.181L538.347,397.253L538.856,397.323L539.364,397.391L539.873,397.458L540.382,397.523L540.891,397.587L541.4,397.649L541.909,397.71L542.418,397.769L542.927,397.827L543.436,397.884L543.945,397.939L544.454,397.994L544.962,398.046L545.471,398.098L545.98,398.148L546.489,398.197L546.998,398.245L547.507,398.292L548.016,398.338L548.525,398.383L549.034,398.426L549.543,398.469L550.052,398.51L550.561,398.551L551.069,398.59L551.578,398.629L552.087,398.666L552.596,398.703L553.105,398.738L553.614,398.773L554.123,398.807L554.632,398.84L555.141,398.873L555.65,398.904L556.159,398.935L556.668,398.965L557.176,398.994L557.685,399.022L558.194,399.05L558.703,399.077L559.212,399.103L559.721,399.128L560.23,399.153L560.739,399.178L561.248,399.201L561.757,399.224L562.266,399.247L562.774,399.268L563.283,399.29L563.792,399.31L564.301,399.33" stroke="red" stroke-width="2" stroke-dasharray="5,5"/></g></g><path class="foreground" aria-hidden="true" d="" display="none"/></g><g transform="translate(0,0)"><path class="background" aria-hidden="true" d="M0,0h600v400h-600Z"/><g><g class="mark-line role-mark layer_1_marks" role="graphics-object" aria-roledescription="line mark container"><path aria-label="リターン: −0.253419353718; 頻度: 0.0210064936669; モデル: 最適フィット (johnsonsu)" role="graphics-symbol" aria-roledescription="line mark" d="M55.897,399.475L56.406,399.47L56.915,399.466L57.424,399.461L57.932,399.457L58.441,399.452L58.95,399.448L59.459,399.443L59.968,399.438L60.477,399.433L60.986,399.429L61.495,399.424L62.004,399.419L62.513,399.414L63.022,399.409L63.53,399.404L64.039,399.399L64.548,399.393L65.057,399.388L65.566,399.383L66.075,399.378L66.584,399.372L67.093,399.367L67.602,399.362L68.111,399.356L68.62,399.351L69.129,399.345L69.637,399.339L70.146,399.334L70.655,399.328L71.164,399.322L71.673,399.316L72.182,399.31L72.691,399.304L73.2,399.298L73.709,399.292L74.218,399.286L74.727,399.28L75.235,399.273L75.744,399.267L76.253,399.261L76.762,399.254L77.271,399.248L77.78,399.241L78.289,399.235L78.798,399.228L79.307,399.221L79.816,399.214L80.325,399.207L80.834,399.2L81.342,399.193L81.851,399.186L82.36,399.179L82.869,399.172L83.378,399.165L83.887,399.157L84.396,399.15L84.905,399.142L85.414,399.135L85.923,399.127L86.432,399.119L86.94,399.111L87.449,399.104L87.958,399.096L88.467,399.088L88.976,399.079L89.485,399.071L89.994,399.063L90.503,399.055L91.012,399.046L91.521,399.038L92.03,399.029L92.539,399.02L93.047,399.012L93.556,399.003L94.065,398.994L94.574,398.985L95.083,398.976L95.592,398.966L96.101,398.957L96.61,398.948L97.119,398.938L97.628,398.929L98.137,398.919L98.645,398.909L99.154,398.899L99.663,398.889L100.172,398.879L100.681,398.869L101.19,398.859L101.699,398.848L102.208,398.838L102.717,398.827L103.226,398.817L103.735,398.806L104.244,398.795L104.752,398.784L105.261,398.773L105.77,398.762L106.279,398.75L106.788,398.739L107.297,398.727L107.806,398.716L108.315,398.704L108.824,398.692L109.333,398.68L109.842,398.668L110.351,398.656L110.859,398.643L111.368,398.631L111.877,398.618L112.386,398.605L112.895,398.592L113.404,398.579L113.913,398.566L114.422,398.553L114.931,398.539L115.44,398.526L115.949,398.512L116.457,398.498L116.966,398.484L117.475,398.47L117.984,398.456L118.493,398.441L119.002,398.427L119.511,398.412L120.02,398.397L120.529,398.382L121.038,398.367L121.547,398.352L122.056,398.336L122.564,398.321L123.073,398.305L123.582,398.289L124.091,398.273L124.6,398.256L125.109,398.24L125.618,398.223L126.127,398.207L126.636,398.19L127.145,398.172L127.654,398.155L128.162,398.138L128.671,398.12L129.18,398.102L129.689,398.084L130.198,398.066L130.707,398.047L131.216,398.029L131.725,398.01L132.234,397.991L132.743,397.972L133.252,397.952L133.761,397.932L134.269,397.913L134.778,397.893L135.287,397.872L135.796,397.852L136.305,397.831L136.814,397.81L137.323,397.789L137.832,397.768L138.341,397.746L138.85,397.725L139.359,397.703L139.867,397.68L140.376,397.658L140.885,397.635L141.394,397.612L141.903,397.589L142.412,397.565L142.921,397.542L143.43,397.518L143.939,397.494L144.448,397.469L144.957,397.444L145.466,397.419L145.974,397.394L146.483,397.369L146.992,397.343L147.501,397.317L148.01,397.291L148.519,397.264L149.028,397.237L149.537,397.21L150.046,397.182L150.555,397.155L151.064,397.126L151.572,397.098L152.081,397.069L152.59,397.04L153.099,397.011L153.608,396.981L154.117,396.951L154.626,396.921L155.135,396.891L155.644,396.86L156.153,396.828L156.662,396.797L157.171,396.765L157.679,396.733L158.188,396.7L158.697,396.667L159.206,396.634L159.715,396.6L160.224,396.566L160.733,396.531L161.242,396.496L161.751,396.461L162.26,396.426L162.769,396.39L163.277,396.353L163.786,396.316L164.295,396.279L164.804,396.242L165.313,396.204L165.822,396.165L166.331,396.126L166.84,396.087L167.349,396.047L167.858,396.007L168.367,395.967L168.876,395.926L169.384,395.884L169.893,395.842L170.402,395.8L170.911,395.757L171.42,395.713L171.929,395.67L172.438,395.625L172.947,395.58L173.456,395.535L173.965,395.489L174.474,395.443L174.982,395.396L175.491,395.349L176,395.301L176.509,395.252L177.018,395.203L177.527,395.154L178.036,395.104L178.545,395.053L179.054,395.002L179.563,394.95L180.072,394.897L180.581,394.844L181.089,394.791L181.598,394.737L182.107,394.682L182.616,394.626L183.125,394.57L183.634,394.514L184.143,394.456L184.652,394.398L185.161,394.34L185.67,394.281L186.179,394.221L186.688,394.16L187.196,394.099L187.705,394.037L188.214,393.974L188.723,393.91L189.232,393.846L189.741,393.781L190.25,393.716L190.759,393.649L191.268,393.582L191.777,393.514L192.286,393.446L192.794,393.376L193.303,393.306L193.812,393.235L194.321,393.163L194.83,393.09L195.339,393.016L195.848,392.942L196.357,392.867L196.866,392.791L197.375,392.714L197.884,392.636L198.393,392.557L198.901,392.477L199.41,392.396L199.919,392.315L200.428,392.232L200.937,392.149L201.446,392.064L201.955,391.979L202.464,391.892L202.973,391.805L203.482,391.717L203.991,391.627L204.499,391.537L205.008,391.445L205.517,391.352L206.026,391.259L206.535,391.164L207.044,391.068L207.553,390.971L208.062,390.873L208.571,390.773L209.08,390.673L209.589,390.571L210.098,390.468L210.606,390.364L211.115,390.259L211.624,390.152L212.133,390.044L212.642,389.935L213.151,389.825L213.66,389.713L214.169,389.6L214.678,389.486L215.187,389.37L215.696,389.253L216.204,389.135L216.713,389.015L217.222,388.894L217.731,388.771L218.24,388.647L218.749,388.521L219.258,388.394L219.767,388.266L220.276,388.136L220.785,388.004L221.294,387.871L221.803,387.736L222.311,387.6L222.82,387.461L223.329,387.322L223.838,387.18L224.347,387.037L224.856,386.893L225.365,386.746L225.874,386.598L226.383,386.448L226.892,386.296L227.401,386.142L227.909,385.987L228.418,385.83L228.927,385.67L229.436,385.509L229.945,385.346L230.454,385.181L230.963,385.014L231.472,384.845L231.981,384.674L232.49,384.501L232.999,384.326L233.508,384.149L234.016,383.969L234.525,383.788L235.034,383.604L235.543,383.418L236.052,383.23L236.561,383.04L237.07,382.847L237.579,382.652L238.088,382.454L238.597,382.254L239.106,382.052L239.614,381.847L240.123,381.64L240.632,381.431L241.141,381.218L241.65,381.004L242.159,380.786L242.668,380.566L243.177,380.344L243.686,380.118L244.195,379.89L244.704,379.659L245.213,379.426L245.721,379.189L246.23,378.95L246.739,378.708L247.248,378.463L247.757,378.214L248.266,377.963L248.775,377.709L249.284,377.452L249.793,377.191L250.302,376.928L250.811,376.661L251.319,376.391L251.828,376.118L252.337,375.841L252.846,375.561L253.355,375.278L253.864,374.991L254.373,374.701L254.882,374.407L255.391,374.11L255.9,373.809L256.409,373.504L256.918,373.196L257.426,372.884L257.935,372.568L258.444,372.248L258.953,371.925L259.462,371.597L259.971,371.266L260.48,370.931L260.989,370.591L261.498,370.248L262.007,369.9L262.516,369.548L263.025,369.192L263.533,368.831L264.042,368.466L264.551,368.097L265.06,367.723L265.569,367.345L266.078,366.962L266.587,366.575L267.096,366.183L267.605,365.786L268.114,365.384L268.623,364.978L269.131,364.566L269.64,364.15L270.149,363.729L270.658,363.303L271.167,362.871L271.676,362.435L272.185,361.993L272.694,361.546L273.203,361.093L273.712,360.635L274.221,360.172L274.73,359.703L275.238,359.228L275.747,358.748L276.256,358.262L276.765,357.771L277.274,357.273L277.783,356.77L278.292,356.261L278.801,355.745L279.31,355.224L279.819,354.696L280.328,354.163L280.836,353.622L281.345,353.076L281.854,352.523L282.363,351.964L282.872,351.398L283.381,350.825L283.89,350.246L284.399,349.66L284.908,349.067L285.417,348.468L285.926,347.861L286.435,347.248L286.943,346.627L287.452,345.999L287.961,345.364L288.47,344.721L288.979,344.072L289.488,343.414L289.997,342.75L290.506,342.078L291.015,341.398L291.524,340.71L292.033,340.015L292.541,339.311L293.05,338.6L293.559,337.881L294.068,337.154L294.577,336.418L295.086,335.675L295.595,334.923L296.104,334.163L296.613,333.395L297.122,332.618L297.631,331.832L298.14,331.038L298.648,330.235L299.157,329.424L299.666,328.604L300.175,327.774L300.684,326.936L301.193,326.09L301.702,325.234L302.211,324.368L302.72,323.494L303.229,322.611L303.738,321.718L304.246,320.816L304.755,319.905L305.264,318.984L305.773,318.053L306.282,317.114L306.791,316.164L307.3,315.205L307.809,314.236L308.318,313.258L308.827,312.269L309.336,311.271L309.845,310.264L310.353,309.246L310.862,308.218L311.371,307.18L311.88,306.133L312.389,305.075L312.898,304.007L313.407,302.93L313.916,301.842L314.425,300.744L314.934,299.636L315.443,298.518L315.951,297.39L316.46,296.251L316.969,295.103L317.478,293.944L317.987,292.776L318.496,291.597L319.005,290.408L319.514,289.209L320.023,288L320.532,286.78L321.041,285.551L321.55,284.312L322.058,283.063L322.567,281.804L323.076,280.535L323.585,279.257L324.094,277.968L324.603,276.67L325.112,275.363L325.621,274.046L326.13,272.719L326.639,271.383L327.148,270.038L327.657,268.684L328.165,267.32L328.674,265.948L329.183,264.567L329.692,263.177L330.201,261.779L330.71,260.372L331.219,258.957L331.728,257.534L332.237,256.103L332.746,254.664L333.255,253.217L333.763,251.764L334.272,250.303L334.781,248.835L335.29,247.36L335.799,245.878L336.308,244.391L336.817,242.897L337.326,241.397L337.835,239.892L338.344,238.382L338.853,236.866L339.362,235.346L339.87,233.822L340.379,232.293L340.888,230.76L341.397,229.225L341.906,227.686L342.415,226.144L342.924,224.6L343.433,223.053L343.942,221.506L344.451,219.957L344.96,218.407L345.468,216.856L345.977,215.306L346.486,213.757L346.995,212.208L347.504,210.66L348.013,209.115L348.522,207.572L349.031,206.031L349.54,204.495L350.049,202.962L350.558,201.433L351.067,199.91L351.575,198.392L352.084,196.88L352.593,195.374L353.102,193.877L353.611,192.386L354.12,190.905L354.629,189.432L355.138,187.97L355.647,186.517L356.156,185.076L356.665,183.647L357.173,182.229L357.682,180.825L358.191,179.434L358.7,178.058L359.209,176.697L359.718,175.352L360.227,174.023L360.736,172.712L361.245,171.418L361.754,170.144L362.263,168.888L362.772,167.653L363.28,166.439L363.789,165.246L364.298,164.076L364.807,162.929L365.316,161.805L365.825,160.707L366.334,159.633L366.843,158.586L367.352,157.566L367.861,156.573L368.37,155.609L368.878,154.674L369.387,153.768L369.896,152.893L370.405,152.049L370.914,151.238L371.423,150.458L371.932,149.713L372.441,149.001L372.95,148.323L373.459,147.681L373.968,147.075L374.477,146.506L374.985,145.973L375.494,145.479L376.003,145.022L376.512,144.605L377.021,144.227L377.53,143.889L378.039,143.591L378.548,143.334L379.057,143.118L379.566,142.944L380.075,142.813L380.583,142.723L381.092,142.677L381.601,142.674L382.11,142.714L382.619,142.798L383.128,142.925L383.637,143.097L384.146,143.314L384.655,143.574L385.164,143.879L385.673,144.229L386.182,144.624L386.69,145.063L387.199,145.547L387.708,146.075L388.217,146.648L388.726,147.265L389.235,147.927L389.744,148.632L390.253,149.382L390.762,150.175L391.271,151.011L391.78,151.89L392.288,152.811L392.797,153.775L393.306,154.78L393.815,155.827L394.324,156.914L394.833,158.041L395.342,159.208L395.851,160.415L396.36,161.659L396.869,162.942L397.378,164.261L397.887,165.617L398.395,167.009L398.904,168.435L399.413,169.896L399.922,171.39L400.431,172.916L400.94,174.475L401.449,176.063L401.958,177.682L402.467,179.33L402.976,181.006L403.485,182.709L403.994,184.438L404.502,186.192L405.011,187.971L405.52,189.773L406.029,191.597L406.538,193.442L407.047,195.307L407.556,197.192L408.065,199.095L408.574,201.015L409.083,202.951L409.592,204.902L410.1,206.867L410.609,208.845L411.118,210.835L411.627,212.837L412.136,214.848L412.645,216.868L413.154,218.896L413.663,220.931L414.172,222.973L414.681,225.019L415.19,227.069L415.699,229.123L416.207,231.179L416.716,233.236L417.225,235.293L417.734,237.351L418.243,239.406L418.752,241.46L419.261,243.511L419.77,245.558L420.279,247.6L420.788,249.637L421.297,251.667L421.805,253.691L422.314,255.708L422.823,257.716L423.332,259.715L423.841,261.705L424.35,263.684L424.859,265.653L425.368,267.61L425.877,269.555L426.386,271.488L426.895,273.408L427.404,275.314L427.912,277.206L428.421,279.084L428.93,280.948L429.439,282.795L429.948,284.628L430.457,286.444L430.966,288.244L431.475,290.027L431.984,291.793L432.493,293.542L433.002,295.274L433.51,296.987L434.019,298.683L434.528,300.36L435.037,302.019L435.546,303.66L436.055,305.281L436.564,306.884L437.073,308.468L437.582,310.033L438.091,311.578L438.6,313.105L439.109,314.612L439.617,316.099L440.126,317.567L440.635,319.016L441.144,320.445L441.653,321.855L442.162,323.246L442.671,324.617L443.18,325.968L443.689,327.301L444.198,328.614L444.707,329.908L445.215,331.183L445.724,332.438L446.233,333.675L446.742,334.893L447.251,336.093L447.76,337.274L448.269,338.436L448.778,339.58L449.287,340.706L449.796,341.814L450.305,342.904L450.814,343.976L451.322,345.03L451.831,346.068L452.34,347.088L452.849,348.091L453.358,349.077L453.867,350.046L454.376,350.999L454.885,351.935L455.394,352.855L455.903,353.76L456.412,354.648L456.92,355.521L457.429,356.378L457.938,357.221L458.447,358.048L458.956,358.86L459.465,359.658L459.974,360.442L460.483,361.211L460.992,361.966L461.501,362.708L462.01,363.435L462.519,364.15L463.027,364.851L463.536,365.539L464.045,366.214L464.554,366.877L465.063,367.527L465.572,368.165L466.081,368.791L466.59,369.405L467.099,370.008L467.608,370.599L468.117,371.178L468.625,371.747L469.134,372.305L469.643,372.852L470.152,373.388L470.661,373.914L471.17,374.43L471.679,374.936L472.188,375.432L472.697,375.918L473.206,376.395L473.715,376.862L474.224,377.32L474.732,377.769L475.241,378.21L475.75,378.642L476.259,379.065L476.768,379.48L477.277,379.886L477.786,380.285L478.295,380.676L478.804,381.058L479.313,381.434L479.822,381.801L480.331,382.162L480.839,382.515L481.348,382.861L481.857,383.201L482.366,383.533L482.875,383.859L483.384,384.178L483.893,384.491L484.402,384.797L484.911,385.098L485.42,385.392L485.929,385.681L486.437,385.963L486.946,386.24L487.455,386.511L487.964,386.777L488.473,387.038L488.982,387.293L489.491,387.543L490,387.788L490.509,388.028L491.018,388.263L491.527,388.494L492.036,388.719L492.544,388.941L493.053,389.157L493.562,389.37L494.071,389.578L494.58,389.781L495.089,389.981L495.598,390.177L496.107,390.368L496.616,390.556L497.125,390.74L497.634,390.921L498.142,391.097L498.651,391.27L499.16,391.44L499.669,391.606L500.178,391.769L500.687,391.928L501.196,392.084L501.705,392.238L502.214,392.388L502.723,392.535L503.232,392.679L503.741,392.82L504.249,392.958L504.758,393.093L505.267,393.226L505.776,393.356L506.285,393.484L506.794,393.609L507.303,393.731L507.812,393.851L508.321,393.968L508.83,394.083L509.339,394.196L509.847,394.307L510.356,394.415L510.865,394.521L511.374,394.625L511.883,394.727L512.392,394.827L512.901,394.925L513.41,395.021L513.919,395.115L514.428,395.207L514.937,395.298L515.446,395.386L515.954,395.473L516.463,395.558L516.972,395.641L517.481,395.723L517.99,395.803L518.499,395.882L519.008,395.959L519.517,396.034L520.026,396.108L520.535,396.18L521.044,396.251L521.552,396.321L522.061,396.389L522.57,396.456L523.079,396.522L523.588,396.586L524.097,396.649L524.606,396.711L525.115,396.772L525.624,396.831L526.133,396.889L526.642,396.946L527.151,397.002L527.659,397.057L528.168,397.111L528.677,397.164L529.186,397.216L529.695,397.266L530.204,397.316L530.713,397.365L531.222,397.413L531.731,397.46L532.24,397.506L532.749,397.551L533.257,397.595L533.766,397.638L534.275,397.681L534.784,397.723L535.293,397.764L535.802,397.804L536.311,397.843L536.82,397.882L537.329,397.92L537.838,397.957L538.347,397.993L538.856,398.029L539.364,398.064L539.873,398.099L540.382,398.132L540.891,398.165L541.4,398.198L541.909,398.23L542.418,398.261L542.927,398.292L543.436,398.322L543.945,398.351L544.454,398.38L544.962,398.409L545.471,398.437L545.98,398.464L546.489,398.491L546.998,398.517L547.507,398.543L548.016,398.568L548.525,398.593L549.034,398.618L549.543,398.642L550.052,398.665L550.561,398.688L551.069,398.711L551.578,398.733L552.087,398.755L552.596,398.776L553.105,398.797L553.614,398.818L554.123,398.838L554.632,398.858L555.141,398.878L555.65,398.897L556.159,398.916L556.668,398.934L557.176,398.952L557.685,398.97L558.194,398.988L558.703,399.005L559.212,399.022L559.721,399.038L560.23,399.054L560.739,399.07L561.248,399.086L561.757,399.101L562.266,399.116L562.774,399.131L563.283,399.146L563.792,399.16L564.301,399.174" stroke="blue" stroke-width="2" stroke-dasharray="1,0"/></g></g><path class="foreground" aria-hidden="true" d="" display="none"/></g></g><g class="mark-group role-legend" role="graphics-symbol" aria-roledescription="legend" aria-label="Symbol legend titled 'モデル' for stroke color with 2 values: 正規分布, 最適フィット (johnsonsu)"><g transform="translate(0,-45)"><path class="background" aria-hidden="true" d="M0,0h199v27h-199Z" pointer-events="none"/><g><g class="mark-group role-legend-entry"><g transform="translate(0,16)"><path class="background" aria-hidden="true" d="M0,0h0v0h0Z" pointer-events="none"/><g><g class="mark-group role-scope" role="graphics-object" aria-roledescription="group mark container"><g transform="translate(0,0)"><path class="background" aria-hidden="true" d="M0,0h56v11h-56Z" pointer-events="none" opacity="1"/><g><g class="mark-symbol role-legend-symbol" pointer-events="none"><path transform="translate(6,6)" d="M-5,0L5,0" stroke="red" stroke-width="1.5" opacity="1"/></g><g class="mark-text role-legend-label" pointer-events="none"><text text-anchor="start" transform="translate(16,9)" font-family="sans-serif" font-size="10px" fill="#000" opacity="1">正規分布</text></g></g><path class="foreground" aria-hidden="true" d="" pointer-events="none" display="none"/></g><g transform="translate(67,0)"><path class="background" aria-hidden="true" d="M0,0h131.029296875v11h-131.029296875Z" pointer-events="none" opacity="1"/><g><g class="mark-symbol role-legend-symbol" pointer-events="none"><path transform="translate(6,6)" d="M-5,0L5,0" stroke="blue" stroke-width="1.5" opacity="1"/></g><g class="mark-text role-legend-label" pointer-events="none"><text text-anchor="start" transform="translate(16,9)" font-family="sans-serif" font-size="10px" fill="#000" opacity="1">最適フィット (johnsonsu)</text></g></g><path class="foreground" aria-hidden="true" d="" pointer-events="none" display="none"/></g></g></g><path class="foreground" aria-hidden="true" d="" pointer-events="none" display="none"/></g></g><g class="mark-text role-legend-title" pointer-events="none"><text text-anchor="start" transform="translate(0,9)" font-family="sans-serif" font-size="11px" font-weight="bold" fill="#000" opacity="1">モデル</text></g></g><path class="foreground" aria-hidden="true" d="" pointer-events="none" display="none"/></g></g><g class="mark-group role-title"><g transform="translate(300,-62)"><path class="background" aria-hidden="true" d="M0,0h0v0h0Z" pointer-events="none"/><g><g class="mark-text role-title-text" role="graphics-symbol" aria-roledescription="title" aria-label="Title text 'ACWI 月次 対数リターン'" pointer-events="none"><text text-anchor="middle" transform="translate(0,10)" font-family="sans-serif" font-size="13px" font-weight="bold" fill="#000" opacity="1">ACWI 月次 対数リターン</text></g></g><path class="foreground" aria-hidden="true" d="" pointer-events="none" display="none"/></g></g></g><path class="foreground" aria-hidden="true" d="" display="none"/></g></g></g></svg>