<svg xmlns="http://www.w3.org/2000/svg" xmlns:xlink="http://www.w3.org/1999/xlink" version="1.1" class="marks" width="650" height="356" viewBox="0 0 650 356"><rect width="650" height="356" fill="white"/><g fill="none" stroke-miterlimit="10" transform="translate(44,69)"><g class="mark-group role-frame root" role="graphics-object" aria-roledescription="group mark container"><g transform="translate(0,0)"><path class="background" aria-hidden="true" d="M0.5,0.5h600v250h-600Z" stroke="#ddd"/><g><g class="mark-group role-axis" aria-hidden="true"><g transform="translate(0.5,250.5)"><path class="background" aria-hidden="true" d="M0,0h0v0h0Z" pointer-events="none"/><g><g class="mark-rule role-axis-grid" pointer-events="none"><line transform="translate(0,-250)" x2="0" y2="250" stroke="#ddd" stroke-width="1" opacity="1"/><line transform="translate(60,-250)" x2="0" y2="250" stroke="#ddd" stroke-width="1" opacity="1"/><line transform="translate(120,-250)" x2="0" y2="250" stroke="#ddd" stroke-width="1" opacity="1"/><line transform="translate(180,-250)" x2="0" y2="250" stroke="#ddd" stroke-width="1" opacity="1"/><line transform="translate(240,-250)" x2="0" y2="250" stroke="#ddd" stroke-width="1" opacity="1"/><line transform="translate(300,-250)" x2="0" y2="250" stroke="#ddd" stroke-width="1" opacity="1"/><line transform="translate(360,-250)" x2="0" y2="250" stroke="#ddd" stroke-width="1" opacity="1"/><line transform="translate(420,-250)" x2="0" y2="250" stroke="#ddd" stroke-width="1" opacity="1"/><line transform="translate(480,-250)" x2="0" y2="250" stroke="#ddd" stroke-width="1" opacity="1"/><line transform="translate(540,-250)" x2="0" y2="250" stroke="#ddd" stroke-width="1" opacity="1"/><line transform="translate(600,-250)" x2="0" y2="250" stroke="#ddd" stroke-width="1" opacity="1"/></g></g><path class="foreground" aria-hidden="true" d="" pointer-events="none" display="none"/></g></g><g class="mark-group role-axis" aria-hidden="true"><g transform="translate(0.5,0.5)"><path class="background" aria-hidden="true" d="M0,0h0v0h0Z" pointer-events="none"/><g><g class="mark-rule role-axis-grid" pointer-events="none"><line transform="translate(0,250)" x2="600" y2="0" stroke="#ddd" stroke-width="1" opacity="1"/><line transform="translate(0,200)" x2="600" y2="0" stroke="#ddd" stroke-width="1" opacity="1"/><line transform="translate(0,150)" x2="600" y2="0" stroke="#ddd" stroke-width="1" opacity="1"/><line transform="translate(0,100)" x2="600" y2="0" stroke="#ddd" stroke-width="1" opacity="1"/><line transform="translate(0,50)" x2="600" y2="0" stroke="#ddd" stroke-width="1" opacity="1"/><line transform="translate(0,0)" x2="600" y2="0" stroke="#ddd" stroke-width="1" opacity="1"/></g></g><path class="foreground" aria-hidden="true" d="" pointer-events="none" display="none"/></g></g><g class="mark-group role-axis" role="graphics-symbol" aria-roledescription="axis" aria-label="X-axis titled '経過年数 (年)' for a linear scale with values from 0 to 50"><g transform="translate(0.5,250.5)"><path class="background" aria-hidden="true" d="M0,0h0v0h0Z" pointer-events="none"/><g><g class="mark-rule role-axis-tick" pointer-events="none"><line transform="translate(0,0)" x2="0" y2="5" stroke="#888" stroke-width="1" opacity="1"/><line transform="translate(60,0)" x2="0" y2="5" stroke="#888" stroke-width="1" opacity="1"/><line transform="translate(120,0)" x2="0" y2="5" stroke="#888" stroke-width="1" opacity="1"/><line transform="translate(180,0)" x2="0" y2="5" stroke="#888" stroke-width="1" opacity="1"/><line transform="translate(240,0)" x2="0" y2="5" stroke="#888" stroke-width="1" opacity="1"/><line transform="translate(300,0)" x2="0" y2="5" stroke="#888" stroke-width="1" opacity="1"/><line transform="translate(360,0)" x2="0" y2="5" stroke="#888" stroke-width="1" opacity="1"/><line transform="translate(420,0)" x2="0" y2="5" stroke="#888" stroke-width="1" opacity="1"/><line transform="translate(480,0)" x2="0" y2="5" stroke="#888" stroke-width="1" opacity="1"/><line transform="translate(540,0)" x2="0" y2="5" stroke="#888" stroke-width="1" opacity="1"/><line transform="translate(600,0)" x2="0" y2="5" stroke="#888" stroke-width="1" opacity="1"/></g><g class="mark-text role-axis-label" pointer-events="none"><text text-anchor="start" transform="translate(0,15)" font-family="sans-serif" font-size="10px" fill="#000" opacity="1">0</text><text text-anchor="middle" transform="translate(60,15)" font-family="sans-serif" font-size="10px" fill="#000" opacity="1">5</text><text text-anchor="middle" transform="translate(120,15)" font-family="sans-serif" font-size="10px" fill="#000" opacity="1">10</text><text text-anchor="middle" transform="translate(180,15)" font-family="sans-serif" font-size="10px" fill="#000" opacity="1">15</text><text text-anchor="middle" transform="translate(240,15)" font-family="sans-serif" font-size="10px" fill="#000" opacity="1">20</text><text text-anchor="middle" transform="translate(300,15)" font-family="sans-serif" font-size="10px" fill="#000" opacity="1">25</text><text text-anchor="middle" transform="translate(360,15)" font-family="sans-serif" font-size="10px" fill="#000" opacity="1">30</text><text text-anchor="middle" transform="translate(420,15)" font-family="sans-serif" font-size="10px" fill="#000" opacity="1">35</text><text text-anchor="middle" transform="translate(480,15)" font-family="sans-serif" font-size="10px" fill="#000" opacity="1">40</text><text text-anchor="middle" transform="translate(540,15)" font-family="sans-serif" font-size="10px" fill="#000" opacity="1">45</text><text text-anchor="end" transform="translate(600,15)" font-family="sans-serif" font-size="10px" fill="#000" opacity="1">50</text></g><g class="mark-rule role-axis-domain" pointer-events="none"><line transform="translate(0,0)" x2="600" y2="0" stroke="#888" stroke-width="1" opacity="1"/></g><g class="mark-text role-axis-title" pointer-events="none"><text text-anchor="middle" transform="translate(300,30)" font-family="sans-serif" font-size="11px" font-weight="bold" fill="#000" opacity="1">経過年数 (年)</text></g></g><path class="foreground" aria-hidden="true" d="" pointer-events="none" display="none"/></g></g><g class="mark-group role-axis" role="graphics-symbol" aria-roledescription="axis" aria-label="Y-axis titled '生存確率 (%)' for a linear scale with values from 0 to 100"><g transform="translate(0.5,0.5)"><path class="background" aria-hidden="true" d="M0,0h0v0h0Z" pointer-events="none"/><g><g class="mark-rule role-axis-tick" pointer-events="none"><line transform="translate(0,250)" x2="-5" y2="0" stroke="#888" stroke-width="1" opacity="1"/><line transform="translate(0,200)" x2="-5" y2="0" stroke="#888" stroke-width="1" opacity="1"/><line transform="translate(0,150)" x2="-5" y2="0" stroke="#888" stroke-width="1" opacity="1"/><line transform="translate(0,100)" x2="-5" y2="0" stroke="#888" stroke-width="1" opacity="1"/><line transform="translate(0,50)" x2="-5" y2="0" stroke="#888" stroke-width="1" opacity="1"/><line transform="translate(0,0)" x2="-5" y2="0" stroke="#888" stroke-width="1" opacity="1"/></g><g class="mark-text role-axis-label" pointer-events="none"><text text-anchor="end" transform="translate(-7,253)" font-family="sans-serif" font-size="10px" fill="#000" opacity="1">0</text><text text-anchor="end" transform="translate(-7,203)" font-family="sans-serif" font-size="10px" fill="#000" opacity="1">20</text><text text-anchor="end" transform="translate(-7,153)" font-family="sans-serif" font-size="10px" fill="#000" opacity="1">40</text><text text-anchor="end" transform="translate(-7,103)" font-family="sans-serif" font-size="10px" fill="#000" opacity="1">60</text><text text-anchor="end" transform="translate(-7,52.999999999999986)" font-family="sans-serif" font-size="10px" fill="#000" opacity="1">80</text><text text-anchor="end" transform="translate(-7,3)" font-family="sans-serif" font-size="10px" fill="#000" opacity="1">100</text></g><g class="mark-rule role-axis-domain" pointer-events="none"><line transform="translate(0,250)" x2="0" y2="-250" stroke="#888" stroke-width="1" opacity="1"/></g><g class="mark-text role-axis-title" pointer-events="none"><text text-anchor="middle" transform="translate(-27.6845703125,125) rotate(-90) translate(0,-2)" font-family="sans-serif" font-size="11px" font-weight="bold" fill="#000" opacity="1">生存確率 (%)</text></g></g><path class="foreground" aria-hidden="true" d="" pointer-events="none" display="none"/></g></g><g class="mark-group role-scope layer_0_pathgroup" role="graphics-object" aria-roledescription="group mark container"><g transform="translate(0,0)"><path class="background" aria-hidden="true" d="M0,0h600v250h-600Z"/><g><g class="mark-line role-mark layer_0_marks" clip-path="url(#clip3)" role="graphics-object" aria-roledescription="line mark container"><path aria-label="経過年数 (年): 0; 生存確率 (%): 100; Strategy: ACWI-1: 対数正規分布 (為替あり); Year: 0; Survival Probability (%): 100.0" role="graphics-symbol" aria-roledescription="line mark" d="M0,0L12,0L24,0L36,0L48,0L60,0L72,0L84,0L96,0L108,0.3L120,0.8L132,1.55L144,2.75L156,5.55L168,8.95L180,12.95L192,17.55L204,22.9L216,27.75L228,33.05L240,38.65L252,43.85L264,49.55L276,54.55L288,59.65L300,64.85L312,70.3L324,75.35L336,80.3L348,85.45L360,89.6L372,94.1L384,98L396,102L408,105.45L420,108.55L432,111.15L444,114.65L456,117.4L468,119.9L480,122.25L492,124.6L504,126.25L516,128.45L528,130.65L540,132.25L552,133.95L564,135.25L576,137.15L588,138.4L600,139.55" stroke="#4c78a8" stroke-width="2"/></g></g><path class="foreground" aria-hidden="true" d="" display="none"/></g><g transform="translate(0,0)"><path class="background" aria-hidden="true" d="M0,0h600v250h-600Z"/><g><g class="mark-line role-mark layer_0_marks" clip-path="url(#clip4)" role="graphics-object" aria-roledescription="line mark container"><path aria-label="経過年数 (年): 0; 生存確率 (%): 100; Strategy: ACWI-2: Johnson SU分布 (為替あり); Year: 0; Survival Probability (%): 100.0" role="graphics-symbol" aria-roledescription="line mark" d="M0,0L12,0L24,0L36,0L48,0L60,0L72,0L84,0.05L96,0.1L108,0.45L120,1.2L132,2.75L144,4.3L156,7.4L168,10.45L180,14.9L192,19.3L204,23.7L216,28.65L228,34.05L240,38.8L252,45.35L264,51.05L276,57.5L288,63.55L300,67.95L312,73.05L324,77.7L336,83.55L348,87.9L360,92.55L372,96.25L384,100.6L396,104.55L408,108.1L420,110.95L432,113.8L444,116.9L456,118.8L468,121.25L480,123.55L492,126.1L504,128.25L516,130.65L528,132.55L540,133.75L552,135.6L564,137.6L576,139.1L588,140.8L600,142.4" stroke="#f58518" stroke-width="2"/></g></g><path class="foreground" aria-hidden="true" d="" display="none"/></g></g><g class="mark-symbol role-mark layer_1_marks" clip-path="url(#clip5)" role="graphics-object" aria-roledescription="symbol mark container"><path aria-label="経過年数 (年): 0; 生存確率 (%): 100; Strategy: ACWI-1: 対数正規分布 (為替あり); Year: 0; Survival Probability (%): 100.0" role="graphics-symbol" aria-roledescription="point" transform="translate(0,0)" d="M2.739,0A2.739,2.739,0,1,1,-2.739,0A2.739,2.739,0,1,1,2.739,0" fill="#4c78a8" stroke-width="2" opacity="1"/><path aria-label="経過年数 (年): 1; 生存確率 (%): 100; Strategy: ACWI-1: 対数正規分布 (為替あり); Year: 1; Survival Probability (%): 100.0" role="graphics-symbol" aria-roledescription="point" transform="translate(12,0)" d="M2.739,0A2.739,2.739,0,1,1,-2.739,0A2.739,2.739,0,1,1,2.739,0" fill="#4c78a8" stroke-width="2" opacity="1"/><path aria-label="経過年数 (年): 2; 生存確率 (%): 100; Strategy: ACWI-1: 対数正規分布 (為替あり); Year: 2; Survival Probability (%): 100.0" role="graphics-symbol" aria-roledescription="point" transform="translate(24,0)" d="M2.739,0A2.739,2.739,0,1,1,-2.739,0A2.739,2.739,0,1,1,2.739,0" fill="#4c78a8" stroke-width="2" opacity="1"/><path aria-label="経過年数 (年): 3; 生存確率 (%): 100; Strategy: ACWI-1: 対数正規分布 (為替あり); Year: 3; Survival Probability (%): 100.0" role="graphics-symbol" aria-roledescription="point" transform="translate(36,0)" d="M2.739,0A2.739,2.739,0,1,1,-2.739,0A2.739,2.739,0,1,1,2.739,0" fill="#4c78a8" stroke-width="2" opacity="1"/><path aria-label="経過年数 (年): 4; 生存確率 (%): 100; Strategy: ACWI-1: 対数正規分布 (為替あり); Year: 4; Survival Probability (%): 100.0" role="graphics-symbol" aria-roledescription="point" transform="translate(48,0)" d="M2.739,0A2.739,2.739,0,1,1,-2.739,0A2.739,2.739,0,1,1,2.739,0" fill="#4c78a8" stroke-width="2" opacity="1"/><path aria-label="経過年数 (年): 5; 生存確率 (%): 100; Strategy: ACWI-1: 対数正規分布 (為替あり); Year: 5; Survival Probability (%): 100.0" role="graphics-symbol" aria-roledescription="point" transform="translate(60,0)" d="M2.739,0A2.739,2.739,0,1,1,-2.739,0A2.739,2.739,0,1,1,2.739,0" fill="#4c78a8" stroke-width="2" opacity="1"/><path aria-label="経過年数 (年): 6; 生存確率 (%): 100; Strategy: ACWI-1: 対数正規分布 (為替あり); Year: 6; Survival Probability (%): 100.0" role="graphics-symbol" aria-roledescription="point" transform="translate(72,0)" d="M2.739,0A2.739,2.739,0,1,1,-2.739,0A2.739,2.739,0,1,1,2.739,0" fill="#4c78a8" stroke-width="2" opacity="1"/><path aria-label="経過年数 (年): 7; 生存確率 (%): 100; Strategy: ACWI-1: 対数正規分布 (為替あり); Year: 7; Survival Probability (%): 100.0" role="graphics-symbol" aria-roledescription="point" transform="translate(84.00000000000001,0)" d="M2.739,0A2.739,2.739,0,1,1,-2.739,0A2.739,2.739,0,1,1,2.739,0" fill="#4c78a8" stroke-width="2" opacity="1"/><path aria-label="経過年数 (年): 8; 生存確率 (%): 100; Strategy: ACWI-1: 対数正規分布 (為替あり); Year: 8; Survival Probability (%): 100.0" role="graphics-symbol" aria-roledescription="point" transform="translate(96,0)" d="M2.739,0A2.739,2.739,0,1,1,-2.739,0A2.739,2.739,0,1,1,2.739,0" fill="#4c78a8" stroke-width="2" opacity="1"/><path aria-label="経過年数 (年): 9; 生存確率 (%): 99.88; Strategy: ACWI-1: 対数正規分布 (為替あり); Year: 9; Survival Probability (%): 99.9" role="graphics-symbol" aria-roledescription="point" transform="translate(108,0.30000000000002247)" d="M2.739,0A2.739,2.739,0,1,1,-2.739,0A2.739,2.739,0,1,1,2.739,0" fill="#4c78a8" stroke-width="2" opacity="1"/><path aria-label="経過年数 (年): 10; 生存確率 (%): 99.68; Strategy: ACWI-1: 対数正規分布 (為替あり); Year: 10; Survival Probability (%): 99.7" role="graphics-symbol" aria-roledescription="point" transform="translate(120,0.7999999999999952)" d="M2.739,0A2.739,2.739,0,1,1,-2.739,0A2.739,2.739,0,1,1,2.739,0" fill="#4c78a8" stroke-width="2" opacity="1"/><path aria-label="経過年数 (年): 11; 生存確率 (%): 99.38; Strategy: ACWI-1: 対数正規分布 (為替あり); Year: 11; Survival Probability (%): 99.4" role="graphics-symbol" aria-roledescription="point" transform="translate(132,1.5500000000000236)" d="M2.739,0A2.739,2.739,0,1,1,-2.739,0A2.739,2.739,0,1,1,2.739,0" fill="#4c78a8" stroke-width="2" opacity="1"/><path aria-label="経過年数 (年): 12; 生存確率 (%): 98.9; Strategy: ACWI-1: 対数正規分布 (為替あり); Year: 12; Survival Probability (%): 98.9" role="graphics-symbol" aria-roledescription="point" transform="translate(144,2.7499999999999747)" d="M2.739,0A2.739,2.739,0,1,1,-2.739,0A2.739,2.739,0,1,1,2.739,0" fill="#4c78a8" stroke-width="2" opacity="1"/><path aria-label="経過年数 (年): 13; 生存確率 (%): 97.78; Strategy: ACWI-1: 対数正規分布 (為替あり); Year: 13; Survival Probability (%): 97.8" role="graphics-symbol" aria-roledescription="point" transform="translate(156,5.549999999999999)" d="M2.739,0A2.739,2.739,0,1,1,-2.739,0A2.739,2.739,0,1,1,2.739,0" fill="#4c78a8" stroke-width="2" opacity="1"/><path aria-label="経過年数 (年): 14; 生存確率 (%): 96.42; Strategy: ACWI-1: 対数正規分布 (為替あり); Year: 14; Survival Probability (%): 96.4" role="graphics-symbol" aria-roledescription="point" transform="translate(168.00000000000003,8.950000000000042)" d="M2.739,0A2.739,2.739,0,1,1,-2.739,0A2.739,2.739,0,1,1,2.739,0" fill="#4c78a8" stroke-width="2" opacity="1"/><path aria-label="経過年数 (年): 15; 生存確率 (%): 94.82; Strategy: ACWI-1: 対数正規分布 (為替あり); Year: 15; Survival Probability (%): 94.8" role="graphics-symbol" aria-roledescription="point" transform="translate(180,12.949999999999989)" d="M2.739,0A2.739,2.739,0,1,1,-2.739,0A2.739,2.739,0,1,1,2.739,0" fill="#4c78a8" stroke-width="2" opacity="1"/><path aria-label="経過年数 (年): 16; 生存確率 (%): 92.98; Strategy: ACWI-1: 対数正規分布 (為替あり); Year: 16; Survival Probability (%): 93.0" role="graphics-symbol" aria-roledescription="point" transform="translate(192,17.550000000000036)" d="M2.739,0A2.739,2.739,0,1,1,-2.739,0A2.739,2.739,0,1,1,2.739,0" fill="#4c78a8" stroke-width="2" opacity="1"/><path aria-label="経過年数 (年): 17; 生存確率 (%): 90.84; Strategy: ACWI-1: 対数正規分布 (為替あり); Year: 17; Survival Probability (%): 90.8" role="graphics-symbol" aria-roledescription="point" transform="translate(204.00000000000003,22.900000000000002)" d="M2.739,0A2.739,2.739,0,1,1,-2.739,0A2.739,2.739,0,1,1,2.739,0" fill="#4c78a8" stroke-width="2" opacity="1"/><path aria-label="経過年数 (年): 18; 生存確率 (%): 88.9; Strategy: ACWI-1: 対数正規分布 (為替あり); Year: 18; Survival Probability (%): 88.9" role="graphics-symbol" aria-roledescription="point" transform="translate(216,27.749999999999996)" d="M2.739,0A2.739,2.739,0,1,1,-2.739,0A2.739,2.739,0,1,1,2.739,0" fill="#4c78a8" stroke-width="2" opacity="1"/><path aria-label="経過年数 (年): 19; 生存確率 (%): 86.78; Strategy: ACWI-1: 対数正規分布 (為替あり); Year: 19; Survival Probability (%): 86.8" role="graphics-symbol" aria-roledescription="point" transform="translate(228,33.05)" d="M2.739,0A2.739,2.739,0,1,1,-2.739,0A2.739,2.739,0,1,1,2.739,0" fill="#4c78a8" stroke-width="2" opacity="1"/><path aria-label="経過年数 (年): 20; 生存確率 (%): 84.54; Strategy: ACWI-1: 対数正規分布 (為替あり); Year: 20; Survival Probability (%): 84.5" role="graphics-symbol" aria-roledescription="point" transform="translate(240,38.64999999999999)" d="M2.739,0A2.739,2.739,0,1,1,-2.739,0A2.739,2.739,0,1,1,2.739,0" fill="#4c78a8" stroke-width="2" opacity="1"/><path aria-label="経過年数 (年): 21; 生存確率 (%): 82.46; Strategy: ACWI-1: 対数正規分布 (為替あり); Year: 21; Survival Probability (%): 82.5" role="graphics-symbol" aria-roledescription="point" transform="translate(252,43.85000000000003)" d="M2.739,0A2.739,2.739,0,1,1,-2.739,0A2.739,2.739,0,1,1,2.739,0" fill="#4c78a8" stroke-width="2" opacity="1"/><path aria-label="経過年数 (年): 22; 生存確率 (%): 80.18; Strategy: ACWI-1: 対数正規分布 (為替あり); Year: 22; Survival Probability (%): 80.2" role="graphics-symbol" aria-roledescription="point" transform="translate(264,49.55000000000001)" d="M2.739,0A2.739,2.739,0,1,1,-2.739,0A2.739,2.739,0,1,1,2.739,0" fill="#4c78a8" stroke-width="2" opacity="1"/><path aria-label="経過年数 (年): 23; 生存確率 (%): 78.18; Strategy: ACWI-1: 対数正規分布 (為替あり); Year: 23; Survival Probability (%): 78.2" role="graphics-symbol" aria-roledescription="point" transform="translate(276,54.54999999999999)" d="M2.739,0A2.739,2.739,0,1,1,-2.739,0A2.739,2.739,0,1,1,2.739,0" fill="#4c78a8" stroke-width="2" opacity="1"/><path aria-label="経過年数 (年): 24; 生存確率 (%): 76.14; Strategy: ACWI-1: 対数正規分布 (為替あり); Year: 24; Survival Probability (%): 76.1" role="graphics-symbol" aria-roledescription="point" transform="translate(288,59.650000000000006)" d="M2.739,0A2.739,2.739,0,1,1,-2.739,0A2.739,2.739,0,1,1,2.739,0" fill="#4c78a8" stroke-width="2" opacity="1"/><path aria-label="経過年数 (年): 25; 生存確率 (%): 74.06; Strategy: ACWI-1: 対数正規分布 (為替あり); Year: 25; Survival Probability (%): 74.1" role="graphics-symbol" aria-roledescription="point" transform="translate(300,64.85)" d="M2.739,0A2.739,2.739,0,1,1,-2.739,0A2.739,2.739,0,1,1,2.739,0" fill="#4c78a8" stroke-width="2" opacity="1"/><path aria-label="経過年数 (年): 26; 生存確率 (%): 71.88; Strategy: ACWI-1: 対数正規分布 (為替あり); Year: 26; Survival Probability (%): 71.9" role="graphics-symbol" aria-roledescription="point" transform="translate(312,70.3)" d="M2.739,0A2.739,2.739,0,1,1,-2.739,0A2.739,2.739,0,1,1,2.739,0" fill="#4c78a8" stroke-width="2" opacity="1"/><path aria-label="経過年数 (年): 27; 生存確率 (%): 69.86; Strategy: ACWI-1: 対数正規分布 (為替あり); Year: 27; Survival Probability (%): 69.9" role="graphics-symbol" aria-roledescription="point" transform="translate(324,75.35)" d="M2.739,0A2.739,2.739,0,1,1,-2.739,0A2.739,2.739,0,1,1,2.739,0" fill="#4c78a8" stroke-width="2" opacity="1"/><path aria-label="経過年数 (年): 28; 生存確率 (%): 67.88; Strategy: ACWI-1: 対数正規分布 (為替あり); Year: 28; Survival Probability (%): 67.9" role="graphics-symbol" aria-roledescription="point" transform="translate(336.00000000000006,80.30000000000001)" d="M2.739,0A2.739,2.739,0,1,1,-2.739,0A2.739,2.739,0,1,1,2.739,0" fill="#4c78a8" stroke-width="2" opacity="1"/><path aria-label="経過年数 (年): 29; 生存確率 (%): 65.82; Strategy: ACWI-1: 対数正規分布 (為替あり); Year: 29; Survival Probability (%): 65.8" role="graphics-symbol" aria-roledescription="point" transform="translate(348,85.44999999999997)" d="M2.739,0A2.739,2.739,0,1,1,-2.739,0A2.739,2.739,0,1,1,2.739,0" fill="#4c78a8" stroke-width="2" opacity="1"/><path aria-label="経過年数 (年): 30; 生存確率 (%): 64.16; Strategy: ACWI-1: 対数正規分布 (為替あり); Year: 30; Survival Probability (%): 64.2" role="graphics-symbol" aria-roledescription="point" transform="translate(360,89.60000000000001)" d="M2.739,0A2.739,2.739,0,1,1,-2.739,0A2.739,2.739,0,1,1,2.739,0" fill="#4c78a8" stroke-width="2" opacity="1"/><path aria-label="経過年数 (年): 31; 生存確率 (%): 62.36; Strategy: ACWI-1: 対数正規分布 (為替あり); Year: 31; Survival Probability (%): 62.4" role="graphics-symbol" aria-roledescription="point" transform="translate(372,94.1)" d="M2.739,0A2.739,2.739,0,1,1,-2.739,0A2.739,2.739,0,1,1,2.739,0" fill="#4c78a8" stroke-width="2" opacity="1"/><path aria-label="経過年数 (年): 32; 生存確率 (%): 60.8; Strategy: ACWI-1: 対数正規分布 (為替あり); Year: 32; Survival Probability (%): 60.8" role="graphics-symbol" aria-roledescription="point" transform="translate(384,98)" d="M2.739,0A2.739,2.739,0,1,1,-2.739,0A2.739,2.739,0,1,1,2.739,0" fill="#4c78a8" stroke-width="2" opacity="1"/><path aria-label="経過年数 (年): 33; 生存確率 (%): 59.2; Strategy: ACWI-1: 対数正規分布 (為替あり); Year: 33; Survival Probability (%): 59.2" role="graphics-symbol" aria-roledescription="point" transform="translate(396,102.00000000000001)" d="M2.739,0A2.739,2.739,0,1,1,-2.739,0A2.739,2.739,0,1,1,2.739,0" fill="#4c78a8" stroke-width="2" opacity="1"/><path aria-label="経過年数 (年): 34; 生存確率 (%): 57.82; Strategy: ACWI-1: 対数正規分布 (為替あり); Year: 34; Survival Probability (%): 57.8" role="graphics-symbol" aria-roledescription="point" transform="translate(408.00000000000006,105.44999999999999)" d="M2.739,0A2.739,2.739,0,1,1,-2.739,0A2.739,2.739,0,1,1,2.739,0" fill="#4c78a8" stroke-width="2" opacity="1"/><path aria-label="経過年数 (年): 35; 生存確率 (%): 56.58; Strategy: ACWI-1: 対数正規分布 (為替あり); Year: 35; Survival Probability (%): 56.6" role="graphics-symbol" aria-roledescription="point" transform="translate(420,108.55000000000001)" d="M2.739,0A2.739,2.739,0,1,1,-2.739,0A2.739,2.739,0,1,1,2.739,0" fill="#4c78a8" stroke-width="2" opacity="1"/><path aria-label="経過年数 (年): 36; 生存確率 (%): 55.54; Strategy: ACWI-1: 対数正規分布 (為替あり); Year: 36; Survival Probability (%): 55.5" role="graphics-symbol" aria-roledescription="point" transform="translate(432,111.15)" d="M2.739,0A2.739,2.739,0,1,1,-2.739,0A2.739,2.739,0,1,1,2.739,0" fill="#4c78a8" stroke-width="2" opacity="1"/><path aria-label="経過年数 (年): 37; 生存確率 (%): 54.14; Strategy: ACWI-1: 対数正規分布 (為替あり); Year: 37; Survival Probability (%): 54.1" role="graphics-symbol" aria-roledescription="point" transform="translate(444,114.65)" d="M2.739,0A2.739,2.739,0,1,1,-2.739,0A2.739,2.739,0,1,1,2.739,0" fill="#4c78a8" stroke-width="2" opacity="1"/><path aria-label="経過年数 (年): 38; 生存確率 (%): 53.04; Strategy: ACWI-1: 対数正規分布 (為替あり); Year: 38; Survival Probability (%): 53.0" role="graphics-symbol" aria-roledescription="point" transform="translate(456,117.4)" d="M2.739,0A2.739,2.739,0,1,1,-2.739,0A2.739,2.739,0,1,1,2.739,0" fill="#4c78a8" stroke-width="2" opacity="1"/><path aria-label="経過年数 (年): 39; 生存確率 (%): 52.04; Strategy: ACWI-1: 対数正規分布 (為替あり); Year: 39; Survival Probability (%): 52.0" role="graphics-symbol" aria-roledescription="point" transform="translate(468,119.9)" d="M2.739,0A2.739,2.739,0,1,1,-2.739,0A2.739,2.739,0,1,1,2.739,0" fill="#4c78a8" stroke-width="2" opacity="1"/><path aria-label="経過年数 (年): 40; 生存確率 (%): 51.1; Strategy: ACWI-1: 対数正規分布 (為替あり); Year: 40; Survival Probability (%): 51.1" role="graphics-symbol" aria-roledescription="point" transform="translate(480,122.25)" d="M2.739,0A2.739,2.739,0,1,1,-2.739,0A2.739,2.739,0,1,1,2.739,0" fill="#4c78a8" stroke-width="2" opacity="1"/><path aria-label="経過年数 (年): 41; 生存確率 (%): 50.16; Strategy: ACWI-1: 対数正規分布 (為替あり); Year: 41; Survival Probability (%): 50.2" role="graphics-symbol" aria-roledescription="point" transform="translate(491.99999999999994,124.6)" d="M2.739,0A2.739,2.739,0,1,1,-2.739,0A2.739,2.739,0,1,1,2.739,0" fill="#4c78a8" stroke-width="2" opacity="1"/><path aria-label="経過年数 (年): 42; 生存確率 (%): 49.5; Strategy: ACWI-1: 対数正規分布 (為替あり); Year: 42; Survival Probability (%): 49.5" role="graphics-symbol" aria-roledescription="point" transform="translate(504,126.25)" d="M2.739,0A2.739,2.739,0,1,1,-2.739,0A2.739,2.739,0,1,1,2.739,0" fill="#4c78a8" stroke-width="2" opacity="1"/><path aria-label="経過年数 (年): 43; 生存確率 (%): 48.62; Strategy: ACWI-1: 対数正規分布 (為替あり); Year: 43; Survival Probability (%): 48.6" role="graphics-symbol" aria-roledescription="point" transform="translate(516,128.45000000000002)" d="M2.739,0A2.739,2.739,0,1,1,-2.739,0A2.739,2.739,0,1,1,2.739,0" fill="#4c78a8" stroke-width="2" opacity="1"/><path aria-label="経過年数 (年): 44; 生存確率 (%): 47.74; Strategy: ACWI-1: 対数正規分布 (為替あり); Year: 44; Survival Probability (%): 47.7" role="graphics-symbol" aria-roledescription="point" transform="translate(528,130.64999999999998)" d="M2.739,0A2.739,2.739,0,1,1,-2.739,0A2.739,2.739,0,1,1,2.739,0" fill="#4c78a8" stroke-width="2" opacity="1"/><path aria-label="経過年数 (年): 45; 生存確率 (%): 47.1; Strategy: ACWI-1: 対数正規分布 (為替あり); Year: 45; Survival Probability (%): 47.1" role="graphics-symbol" aria-roledescription="point" transform="translate(540,132.25000000000003)" d="M2.739,0A2.739,2.739,0,1,1,-2.739,0A2.739,2.739,0,1,1,2.739,0" fill="#4c78a8" stroke-width="2" opacity="1"/><path aria-label="経過年数 (年): 46; 生存確率 (%): 46.42; Strategy: ACWI-1: 対数正規分布 (為替あり); Year: 46; Survival Probability (%): 46.4" role="graphics-symbol" aria-roledescription="point" transform="translate(552,133.95000000000002)" d="M2.739,0A2.739,2.739,0,1,1,-2.739,0A2.739,2.739,0,1,1,2.739,0" fill="#4c78a8" stroke-width="2" opacity="1"/><path aria-label="経過年数 (年): 47; 生存確率 (%): 45.9; Strategy: ACWI-1: 対数正規分布 (為替あり); Year: 47; Survival Probability (%): 45.9" role="graphics-symbol" aria-roledescription="point" transform="translate(564,135.25)" d="M2.739,0A2.739,2.739,0,1,1,-2.739,0A2.739,2.739,0,1,1,2.739,0" fill="#4c78a8" stroke-width="2" opacity="1"/><path aria-label="経過年数 (年): 48; 生存確率 (%): 45.14; Strategy: ACWI-1: 対数正規分布 (為替あり); Year: 48; Survival Probability (%): 45.1" role="graphics-symbol" aria-roledescription="point" transform="translate(576,137.15)" d="M2.739,0A2.739,2.739,0,1,1,-2.739,0A2.739,2.739,0,1,1,2.739,0" fill="#4c78a8" stroke-width="2" opacity="1"/><path aria-label="経過年数 (年): 49; 生存確率 (%): 44.64; Strategy: ACWI-1: 対数正規分布 (為替あり); Year: 49; Survival Probability (%): 44.6" role="graphics-symbol" aria-roledescription="point" transform="translate(588,138.4)" d="M2.739,0A2.739,2.739,0,1,1,-2.739,0A2.739,2.739,0,1,1,2.739,0" fill="#4c78a8" stroke-width="2" opacity="1"/><path aria-label="経過年数 (年): 50; 生存確率 (%): 44.18; Strategy: ACWI-1: 対数正規分布 (為替あり); Year: 50; Survival Probability (%): 44.2" role="graphics-symbol" aria-roledescription="point" transform="translate(600,139.55)" d="M2.739,0A2.739,2.739,0,1,1,-2.739,0A2.739,2.739,0,1,1,2.739,0" fill="#4c78a8" stroke-width="2" opacity="1"/><path aria-label="経過年数 (年): 0; 生存確率 (%): 100; Strategy: ACWI-2: Johnson SU分布 (為替あり); Year: 0; Survival Probability (%): 100.0" role="graphics-symbol" aria-roledescription="point" transform="translate(0,0)" d="M2.739,0A2.739,2.739,0,1,1,-2.739,0A2.739,2.739,0,1,1,2.739,0" fill="#f58518" stroke-width="2" opacity="1"/><path aria-label="経過年数 (年): 1; 生存確率 (%): 100; Strategy: ACWI-2: Johnson SU分布 (為替あり); Year: 1; Survival Probability (%): 100.0" role="graphics-symbol" aria-roledescription="point" transform="translate(12,0)" d="M2.739,0A2.739,2.739,0,1,1,-2.739,0A2.739,2.739,0,1,1,2.739,0" fill="#f58518" stroke-width="2" opacity="1"/><path aria-label="経過年数 (年): 2; 生存確率 (%): 100; Strategy: ACWI-2: Johnson SU分布 (為替あり); Year: 2; Survival Probability (%): 100.0" role="graphics-symbol" aria-roledescription="point" transform="translate(24,0)" d="M2.739,0A2.739,2.739,0,1,1,-2.739,0A2.739,2.739,0,1,1,2.739,0" fill="#f58518" stroke-width="2" opacity="1"/><path aria-label="経過年数 (年): 3; 生存確率 (%): 100; Strategy: ACWI-2: Johnson SU分布 (為替あり); Year: 3; Survival Probability (%): 100.0" role="graphics-symbol" aria-roledescription="point" transform="translate(36,0)" d="M2.739,0A2.739,2.739,0,1,1,-2.739,0A2.739,2.739,0,1,1,2.739,0" fill="#f58518" stroke-width="2" opacity="1"/><path aria-label="経過年数 (年): 4; 生存確率 (%): 100; Strategy: ACWI-2: Johnson SU分布 (為替あり); Year: 4; Survival Probability (%): 100.0" role="graphics-symbol" aria-roledescription="point" transform="translate(48,0)" d="M2.739,0A2.739,2.739,0,1,1,-2.739,0A2.739,2.739,0,1,1,2.739,0" fill="#f58518" stroke-width="2" opacity="1"/><path aria-label="経過年数 (年): 5; 生存確率 (%): 100; Strategy: ACWI-2: Johnson SU分布 (為替あり); Year: 5; Survival Probability (%): 100.0" role="graphics-symbol" aria-roledescription="point" transform="translate(60,0)" d="M2.739,0A2.739,2.739,0,1,1,-2.739,0A2.739,2.739,0,1,1,2.739,0" fill="#f58518" stroke-width="2" opacity="1"/><path aria-label="経過年数 (年): 6; 生存確率 (%): 100; Strategy: ACWI-2: Johnson SU分布 (為替あり); Year: 6; Survival Probability (%): 100.0" role="graphics-symbol" aria-roledescription="point" transform="translate(72,0)" d="M2.739,0A2.739,2.739,0,1,1,-2.739,0A2.739,2.739,0,1,1,2.739,0" fill="#f58518" stroke-width="2" opacity="1"/><path aria-label="経過年数 (年): 7; 生存確率 (%): 99.98; Strategy: ACWI-2: Johnson SU分布 (為替あり); Year: 7; Survival Probability (%): 100.0" role="graphics-symbol" aria-roledescription="point" transform="translate(84.00000000000001,0.04999999999999449)" d="M2.739,0A2.739,2.739,0,1,1,-2.739,0A2.739,2.739,0,1,1,2.739,0" fill="#f58518" stroke-width="2" opacity="1"/><path aria-label="経過年数 (年): 8; 生存確率 (%): 99.96; Strategy: ACWI-2: Johnson SU分布 (為替あり); Year: 8; Survival Probability (%): 100.0" role="graphics-symbol" aria-roledescription="point" transform="translate(96,0.09999999999998899)" d="M2.739,0A2.739,2.739,0,1,1,-2.739,0A2.739,2.739,0,1,1,2.739,0" fill="#f58518" stroke-width="2" opacity="1"/><path aria-label="経過年数 (年): 9; 生存確率 (%): 99.82; Strategy: ACWI-2: Johnson SU分布 (為替あり); Year: 9; Survival Probability (%): 99.8" role="graphics-symbol" aria-roledescription="point" transform="translate(108,0.45000000000000595)" d="M2.739,0A2.739,2.739,0,1,1,-2.739,0A2.739,2.739,0,1,1,2.739,0" fill="#f58518" stroke-width="2" opacity="1"/><path aria-label="経過年数 (年): 10; 生存確率 (%): 99.52; Strategy: ACWI-2: Johnson SU分布 (為替あり); Year: 10; Survival Probability (%): 99.5" role="graphics-symbol" aria-roledescription="point" transform="translate(120,1.2000000000000066)" d="M2.739,0A2.739,2.739,0,1,1,-2.739,0A2.739,2.739,0,1,1,2.739,0" fill="#f58518" stroke-width="2" opacity="1"/><path aria-label="経過年数 (年): 11; 生存確率 (%): 98.9; Strategy: ACWI-2: Johnson SU分布 (為替あり); Year: 11; Survival Probability (%): 98.9" role="graphics-symbol" aria-roledescription="point" transform="translate(132,2.7499999999999747)" d="M2.739,0A2.739,2.739,0,1,1,-2.739,0A2.739,2.739,0,1,1,2.739,0" fill="#f58518" stroke-width="2" opacity="1"/><path aria-label="経過年数 (年): 12; 生存確率 (%): 98.28; Strategy: ACWI-2: Johnson SU分布 (為替あり); Year: 12; Survival Probability (%): 98.3" role="graphics-symbol" aria-roledescription="point" transform="translate(144,4.299999999999998)" d="M2.739,0A2.739,2.739,0,1,1,-2.739,0A2.739,2.739,0,1,1,2.739,0" fill="#f58518" stroke-width="2" opacity="1"/><path aria-label="経過年数 (年): 13; 生存確率 (%): 97.04; Strategy: ACWI-2: Johnson SU分布 (為替あり); Year: 13; Survival Probability (%): 97.0" role="graphics-symbol" aria-roledescription="point" transform="translate(156,7.39999999999999)" d="M2.739,0A2.739,2.739,0,1,1,-2.739,0A2.739,2.739,0,1,1,2.739,0" fill="#f58518" stroke-width="2" opacity="1"/><path aria-label="経過年数 (年): 14; 生存確率 (%): 95.82; Strategy: ACWI-2: Johnson SU分布 (為替あり); Year: 14; Survival Probability (%): 95.8" role="graphics-symbol" aria-roledescription="point" transform="translate(168.00000000000003,10.449999999999987)" d="M2.739,0A2.739,2.739,0,1,1,-2.739,0A2.739,2.739,0,1,1,2.739,0" fill="#f58518" stroke-width="2" opacity="1"/><path aria-label="経過年数 (年): 15; 生存確率 (%): 94.04; Strategy: ACWI-2: Johnson SU分布 (為替あり); Year: 15; Survival Probability (%): 94.0" role="graphics-symbol" aria-roledescription="point" transform="translate(180,14.899999999999997)" d="M2.739,0A2.739,2.739,0,1,1,-2.739,0A2.739,2.739,0,1,1,2.739,0" fill="#f58518" stroke-width="2" opacity="1"/><path aria-label="経過年数 (年): 16; 生存確率 (%): 92.28; Strategy: ACWI-2: Johnson SU分布 (為替あり); Year: 16; Survival Probability (%): 92.3" role="graphics-symbol" aria-roledescription="point" transform="translate(192,19.299999999999983)" d="M2.739,0A2.739,2.739,0,1,1,-2.739,0A2.739,2.739,0,1,1,2.739,0" fill="#f58518" stroke-width="2" opacity="1"/><path aria-label="経過年数 (年): 17; 生存確率 (%): 90.52; Strategy: ACWI-2: Johnson SU分布 (為替あり); Year: 17; Survival Probability (%): 90.5" role="graphics-symbol" aria-roledescription="point" transform="translate(204.00000000000003,23.7)" d="M2.739,0A2.739,2.739,0,1,1,-2.739,0A2.739,2.739,0,1,1,2.739,0" fill="#f58518" stroke-width="2" opacity="1"/><path aria-label="経過年数 (年): 18; 生存確率 (%): 88.54; Strategy: ACWI-2: Johnson SU分布 (為替あり); Year: 18; Survival Probability (%): 88.5" role="graphics-symbol" aria-roledescription="point" transform="translate(216,28.65000000000001)" d="M2.739,0A2.739,2.739,0,1,1,-2.739,0A2.739,2.739,0,1,1,2.739,0" fill="#f58518" stroke-width="2" opacity="1"/><path aria-label="経過年数 (年): 19; 生存確率 (%): 86.38; Strategy: ACWI-2: Johnson SU分布 (為替あり); Year: 19; Survival Probability (%): 86.4" role="graphics-symbol" aria-roledescription="point" transform="translate(228,34.050000000000026)" d="M2.739,0A2.739,2.739,0,1,1,-2.739,0A2.739,2.739,0,1,1,2.739,0" fill="#f58518" stroke-width="2" opacity="1"/><path aria-label="経過年数 (年): 20; 生存確率 (%): 84.48; Strategy: ACWI-2: Johnson SU分布 (為替あり); Year: 20; Survival Probability (%): 84.5" role="graphics-symbol" aria-roledescription="point" transform="translate(240,38.800000000000004)" d="M2.739,0A2.739,2.739,0,1,1,-2.739,0A2.739,2.739,0,1,1,2.739,0" fill="#f58518" stroke-width="2" opacity="1"/><path aria-label="経過年数 (年): 21; 生存確率 (%): 81.86; Strategy: ACWI-2: Johnson SU分布 (為替あり); Year: 21; Survival Probability (%): 81.9" role="graphics-symbol" aria-roledescription="point" transform="translate(252,45.35)" d="M2.739,0A2.739,2.739,0,1,1,-2.739,0A2.739,2.739,0,1,1,2.739,0" fill="#f58518" stroke-width="2" opacity="1"/><path aria-label="経過年数 (年): 22; 生存確率 (%): 79.58; Strategy: ACWI-2: Johnson SU分布 (為替あり); Year: 22; Survival Probability (%): 79.6" role="graphics-symbol" aria-roledescription="point" transform="translate(264,51.05000000000001)" d="M2.739,0A2.739,2.739,0,1,1,-2.739,0A2.739,2.739,0,1,1,2.739,0" fill="#f58518" stroke-width="2" opacity="1"/><path aria-label="経過年数 (年): 23; 生存確率 (%): 77; Strategy: ACWI-2: Johnson SU分布 (為替あり); Year: 23; Survival Probability (%): 77.0" role="graphics-symbol" aria-roledescription="point" transform="translate(276,57.49999999999999)" d="M2.739,0A2.739,2.739,0,1,1,-2.739,0A2.739,2.739,0,1,1,2.739,0" fill="#f58518" stroke-width="2" opacity="1"/><path aria-label="経過年数 (年): 24; 生存確率 (%): 74.58; Strategy: ACWI-2: Johnson SU分布 (為替あり); Year: 24; Survival Probability (%): 74.6" role="graphics-symbol" aria-roledescription="point" transform="translate(288,63.55)" d="M2.739,0A2.739,2.739,0,1,1,-2.739,0A2.739,2.739,0,1,1,2.739,0" fill="#f58518" stroke-width="2" opacity="1"/><path aria-label="経過年数 (年): 25; 生存確率 (%): 72.82; Strategy: ACWI-2: Johnson SU分布 (為替あり); Year: 25; Survival Probability (%): 72.8" role="graphics-symbol" aria-roledescription="point" transform="translate(300,67.95000000000002)" d="M2.739,0A2.739,2.739,0,1,1,-2.739,0A2.739,2.739,0,1,1,2.739,0" fill="#f58518" stroke-width="2" opacity="1"/><path aria-label="経過年数 (年): 26; 生存確率 (%): 70.78; Strategy: ACWI-2: Johnson SU分布 (為替あり); Year: 26; Survival Probability (%): 70.8" role="graphics-symbol" aria-roledescription="point" transform="translate(312,73.05)" d="M2.739,0A2.739,2.739,0,1,1,-2.739,0A2.739,2.739,0,1,1,2.739,0" fill="#f58518" stroke-width="2" opacity="1"/><path aria-label="経過年数 (年): 27; 生存確率 (%): 68.92; Strategy: ACWI-2: Johnson SU分布 (為替あり); Year: 27; Survival Probability (%): 68.9" role="graphics-symbol" aria-roledescription="point" transform="translate(324,77.69999999999999)" d="M2.739,0A2.739,2.739,0,1,1,-2.739,0A2.739,2.739,0,1,1,2.739,0" fill="#f58518" stroke-width="2" opacity="1"/><path aria-label="経過年数 (年): 28; 生存確率 (%): 66.58; Strategy: ACWI-2: Johnson SU分布 (為替あり); Year: 28; Survival Probability (%): 66.6" role="graphics-symbol" aria-roledescription="point" transform="translate(336.00000000000006,83.55000000000001)" d="M2.739,0A2.739,2.739,0,1,1,-2.739,0A2.739,2.739,0,1,1,2.739,0" fill="#f58518" stroke-width="2" opacity="1"/><path aria-label="経過年数 (年): 29; 生存確率 (%): 64.84; Strategy: ACWI-2: Johnson SU分布 (為替あり); Year: 29; Survival Probability (%): 64.8" role="graphics-symbol" aria-roledescription="point" transform="translate(348,87.89999999999998)" d="M2.739,0A2.739,2.739,0,1,1,-2.739,0A2.739,2.739,0,1,1,2.739,0" fill="#f58518" stroke-width="2" opacity="1"/><path aria-label="経過年数 (年): 30; 生存確率 (%): 62.98; Strategy: ACWI-2: Johnson SU分布 (為替あり); Year: 30; Survival Probability (%): 63.0" role="graphics-symbol" aria-roledescription="point" transform="translate(360,92.55)" d="M2.739,0A2.739,2.739,0,1,1,-2.739,0A2.739,2.739,0,1,1,2.739,0" fill="#f58518" stroke-width="2" opacity="1"/><path aria-label="経過年数 (年): 31; 生存確率 (%): 61.5; Strategy: ACWI-2: Johnson SU分布 (為替あり); Year: 31; Survival Probability (%): 61.5" role="graphics-symbol" aria-roledescription="point" transform="translate(372,96.25)" d="M2.739,0A2.739,2.739,0,1,1,-2.739,0A2.739,2.739,0,1,1,2.739,0" fill="#f58518" stroke-width="2" opacity="1"/><path aria-label="経過年数 (年): 32; 生存確率 (%): 59.76; Strategy: ACWI-2: Johnson SU分布 (為替あり); Year: 32; Survival Probability (%): 59.8" role="graphics-symbol" aria-roledescription="point" transform="translate(384,100.6)" d="M2.739,0A2.739,2.739,0,1,1,-2.739,0A2.739,2.739,0,1,1,2.739,0" fill="#f58518" stroke-width="2" opacity="1"/><path aria-label="経過年数 (年): 33; 生存確率 (%): 58.18; Strategy: ACWI-2: Johnson SU分布 (為替あり); Year: 33; Survival Probability (%): 58.2" role="graphics-symbol" aria-roledescription="point" transform="translate(396,104.55)" d="M2.739,0A2.739,2.739,0,1,1,-2.739,0A2.739,2.739,0,1,1,2.739,0" fill="#f58518" stroke-width="2" opacity="1"/><path aria-label="経過年数 (年): 34; 生存確率 (%): 56.76; Strategy: ACWI-2: Johnson SU分布 (為替あり); Year: 34; Survival Probability (%): 56.8" role="graphics-symbol" aria-roledescription="point" transform="translate(408.00000000000006,108.10000000000001)" d="M2.739,0A2.739,2.739,0,1,1,-2.739,0A2.739,2.739,0,1,1,2.739,0" fill="#f58518" stroke-width="2" opacity="1"/><path aria-label="経過年数 (年): 35; 生存確率 (%): 55.62; Strategy: ACWI-2: Johnson SU分布 (為替あり); Year: 35; Survival Probability (%): 55.6" role="graphics-symbol" aria-roledescription="point" transform="translate(420,110.94999999999999)" d="M2.739,0A2.739,2.739,0,1,1,-2.739,0A2.739,2.739,0,1,1,2.739,0" fill="#f58518" stroke-width="2" opacity="1"/><path aria-label="経過年数 (年): 36; 生存確率 (%): 54.48; Strategy: ACWI-2: Johnson SU分布 (為替あり); Year: 36; Survival Probability (%): 54.5" role="graphics-symbol" aria-roledescription="point" transform="translate(432,113.80000000000001)" d="M2.739,0A2.739,2.739,0,1,1,-2.739,0A2.739,2.739,0,1,1,2.739,0" fill="#f58518" stroke-width="2" opacity="1"/><path aria-label="経過年数 (年): 37; 生存確率 (%): 53.24; Strategy: ACWI-2: Johnson SU分布 (為替あり); Year: 37; Survival Probability (%): 53.2" role="graphics-symbol" aria-roledescription="point" transform="translate(444,116.9)" d="M2.739,0A2.739,2.739,0,1,1,-2.739,0A2.739,2.739,0,1,1,2.739,0" fill="#f58518" stroke-width="2" opacity="1"/><path aria-label="経過年数 (年): 38; 生存確率 (%): 52.48; Strategy: ACWI-2: Johnson SU分布 (為替あり); Year: 38; Survival Probability (%): 52.5" role="graphics-symbol" aria-roledescription="point" transform="translate(456,118.79999999999998)" d="M2.739,0A2.739,2.739,0,1,1,-2.739,0A2.739,2.739,0,1,1,2.739,0" fill="#f58518" stroke-width="2" opacity="1"/><path aria-label="経過年数 (年): 39; 生存確率 (%): 51.5; Strategy: ACWI-2: Johnson SU分布 (為替あり); Year: 39; Survival Probability (%): 51.5" role="graphics-symbol" aria-roledescription="point" transform="translate(468,121.25)" d="M2.739,0A2.739,2.739,0,1,1,-2.739,0A2.739,2.739,0,1,1,2.739,0" fill="#f58518" stroke-width="2" opacity="1"/><path aria-label="経過年数 (年): 40; 生存確率 (%): 50.58; Strategy: ACWI-2: Johnson SU分布 (為替あり); Year: 40; Survival Probability (%): 50.6" role="graphics-symbol" aria-roledescription="point" transform="translate(480,123.55)" d="M2.739,0A2.739,2.739,0,1,1,-2.739,0A2.739,2.739,0,1,1,2.739,0" fill="#f58518" stroke-width="2" opacity="1"/><path aria-label="経過年数 (年): 41; 生存確率 (%): 49.56; Strategy: ACWI-2: Johnson SU分布 (為替あり); Year: 41; Survival Probability (%): 49.6" role="graphics-symbol" aria-roledescription="point" transform="translate(491.99999999999994,126.10000000000002)" d="M2.739,0A2.739,2.739,0,1,1,-2.739,0A2.739,2.739,0,1,1,2.739,0" fill="#f58518" stroke-width="2" opacity="1"/><path aria-label="経過年数 (年): 42; 生存確率 (%): 48.7; Strategy: ACWI-2: Johnson SU分布 (為替あり); Year: 42; Survival Probability (%): 48.7" role="graphics-symbol" aria-roledescription="point" transform="translate(504,128.25000000000003)" d="M2.739,0A2.739,2.739,0,1,1,-2.739,0A2.739,2.739,0,1,1,2.739,0" fill="#f58518" stroke-width="2" opacity="1"/><path aria-label="経過年数 (年): 43; 生存確率 (%): 47.74; Strategy: ACWI-2: Johnson SU分布 (為替あり); Year: 43; Survival Probability (%): 47.7" role="graphics-symbol" aria-roledescription="point" transform="translate(516,130.64999999999998)" d="M2.739,0A2.739,2.739,0,1,1,-2.739,0A2.739,2.739,0,1,1,2.739,0" fill="#f58518" stroke-width="2" opacity="1"/><path aria-label="経過年数 (年): 44; 生存確率 (%): 46.98; Strategy: ACWI-2: Johnson SU分布 (為替あり); Year: 44; Survival Probability (%): 47.0" role="graphics-symbol" aria-roledescription="point" transform="translate(528,132.55)" d="M2.739,0A2.739,2.739,0,1,1,-2.739,0A2.739,2.739,0,1,1,2.739,0" fill="#f58518" stroke-width="2" opacity="1"/><path aria-label="経過年数 (年): 45; 生存確率 (%): 46.5; Strategy: ACWI-2: Johnson SU分布 (為替あり); Year: 45; Survival Probability (%): 46.5" role="graphics-symbol" aria-roledescription="point" transform="translate(540,133.74999999999997)" d="M2.739,0A2.739,2.739,0,1,1,-2.739,0A2.739,2.739,0,1,1,2.739,0" fill="#f58518" stroke-width="2" opacity="1"/><path aria-label="経過年数 (年): 46; 生存確率 (%): 45.76; Strategy: ACWI-2: Johnson SU分布 (為替あり); Year: 46; Survival Probability (%): 45.8" role="graphics-symbol" aria-roledescription="point" transform="translate(552,135.6)" d="M2.739,0A2.739,2.739,0,1,1,-2.739,0A2.739,2.739,0,1,1,2.739,0" fill="#f58518" stroke-width="2" opacity="1"/><path aria-label="経過年数 (年): 47; 生存確率 (%): 44.96; Strategy: ACWI-2: Johnson SU分布 (為替あり); Year: 47; Survival Probability (%): 45.0" role="graphics-symbol" aria-roledescription="point" transform="translate(564,137.6)" d="M2.739,0A2.739,2.739,0,1,1,-2.739,0A2.739,2.739,0,1,1,2.739,0" fill="#f58518" stroke-width="2" opacity="1"/><path aria-label="経過年数 (年): 48; 生存確率 (%): 44.36; Strategy: ACWI-2: Johnson SU分布 (為替あり); Year: 48; Survival Probability (%): 44.4" role="graphics-symbol" aria-roledescription="point" transform="translate(576,139.1)" d="M2.739,0A2.739,2.739,0,1,1,-2.739,0A2.739,2.739,0,1,1,2.739,0" fill="#f58518" stroke-width="2" opacity="1"/><path aria-label="経過年数 (年): 49; 生存確率 (%): 43.68; Strategy: ACWI-2: Johnson SU分布 (為替あり); Year: 49; Survival Probability (%): 43.7" role="graphics-symbol" aria-roledescription="point" transform="translate(588,140.79999999999998)" d="M2.739,0A2.739,2.739,0,1,1,-2.739,0A2.739,2.739,0,1,1,2.739,0" fill="#f58518" stroke-width="2" opacity="1"/><path aria-label="経過年数 (年): 50; 生存確率 (%): 43.04; Strategy: ACWI-2: Johnson SU分布 (為替あり); Year: 50; Survival Probability (%): 43.0" role="graphics-symbol" aria-roledescription="point" transform="translate(600,142.4)" d="M2.739,0A2.739,2.739,0,1,1,-2.739,0A2.739,2.739,0,1,1,2.739,0" fill="#f58518" stroke-width="2" opacity="1"/></g><g class="mark-group role-legend" role="graphics-symbol" aria-roledescription="legend" aria-label="Symbol legend titled '戦略' for fill color and stroke color with 2 values: ACWI-1: 対数正規分布 (為替あり), ACWI-2: Johnson SU分布 (為替あり)"><g transform="translate(0,-47)"><path class="background" aria-hidden="true" d="M0,0h353v29h-353Z" pointer-events="none"/><g><g class="mark-group role-legend-entry"><g transform="translate(0,16)"><path class="background" aria-hidden="true" d="M0,0h0v0h0Z" pointer-events="none"/><g><g class="mark-group role-scope" role="graphics-object" aria-roledescription="group mark container"><g transform="translate(0,0.25)"><path class="background" aria-hidden="true" d="M0,0h165.9951171875v12.5h-165.9951171875Z" pointer-events="none" opacity="1"/><g><g class="mark-symbol role-legend-symbol" pointer-events="none"><path transform="translate(6,6)" d="M5,0A5,5,0,1,1,-5,0A5,5,0,1,1,5,0" fill="#4c78a8" stroke="#4c78a8" stroke-width="1.5" opacity="1"/></g><g class="mark-text role-legend-label" pointer-events="none"><text text-anchor="start" transform="translate(16,9)" font-family="sans-serif" font-size="10px" fill="#000" opacity="1">ACWI-1: 対数正規分布 (為替あり)</text></g></g><path class="foreground" aria-hidden="true" d="" pointer-events="none" display="none"/></g><g transform="translate(177,0.25)"><path class="background" aria-hidden="true" d="M0,0h176v12.5h-176Z" pointer-events="none" opacity="1"/><g><g class="mark-symbol role-legend-symbol" pointer-events="none"><path transform="translate(6,6)" d="M5,0A5,5,0,1,1,-5,0A5,5,0,1,1,5,0" fill="#f58518" stroke="#f58518" stroke-width="1.5" opacity="1"/></g><g class="mark-text role-legend-label" pointer-events="none"><text text-anchor="start" transform="translate(16,9)" font-family="sans-serif" font-size="10px" fill="#000" opacity="1">ACWI-2: Johnson SU分布 (為替…</text></g></g><path class="foreground" aria-hidden="true" d="" pointer-events="none" display="none"/></g></g></g><path class="foreground" aria-hidden="true" d="" pointer-events="none" display="none"/></g></g><g class="mark-text role-legend-title" pointer-events="none"><text text-anchor="start" transform="translate(0,9)" font-family="sans-serif" font-size="11px" font-weight="bold" fill="#000" opacity="1">戦略</text></g></g><path class="foreground" aria-hidden="true" d="" pointer-events="none" display="none"/></g></g><g class="mark-group role-title"><g transform="translate(300,-64)"><path class="background" aria-hidden="true" d="M0,0h0v0h0Z" pointer-events="none"/><g><g class="mark-text role-title-text" role="graphics-symbol" aria-roledescription="title" aria-label="Title text '経過年数と生存確率の推移'" pointer-events="none"><text text-anchor="middle" transform="translate(0,10)" font-family="sans-serif" font-size="13px" font-weight="bold" fill="#000" opacity="1">経過年数と生存確率の推移</text></g></g><path class="foreground" aria-hidden="true" d="" pointer-events="none" display="none"/></g></g></g><path class="foreground" aria-hidden="true" d="" display="none"/></g></g></g><defs><clipPath id="clip3"><rect x="0" y="0" width="600" height="250"/></clipPath><clipPath id="clip4"><rect x="0" y="0" width="600" height="250"/></clipPath><clipPath id="clip5"><rect x="0" y="0" width="600" height="250"/></clipPath></defs></svg>