<svg xmlns="http://www.w3.org/2000/svg" xmlns:xlink="http://www.w3.org/1999/xlink" version="1.1" class="marks" width="650" height="356" viewBox="0 0 650 356"><rect width="650" height="356" fill="white"/><g fill="none" stroke-miterlimit="10" transform="translate(44,69)"><g class="mark-group role-frame root" role="graphics-object" aria-roledescription="group mark container"><g transform="translate(0,0)"><path class="background" aria-hidden="true" d="M0.5,0.5h600v250h-600Z" stroke="#ddd"/><g><g class="mark-group role-axis" aria-hidden="true"><g transform="translate(0.5,250.5)"><path class="background" aria-hidden="true" d="M0,0h0v0h0Z" pointer-events="none"/><g><g class="mark-rule role-axis-grid" pointer-events="none"><line transform="translate(0,-250)" x2="0" y2="250" stroke="#ddd" stroke-width="1" opacity="1"/><line transform="translate(60,-250)" x2="0" y2="250" stroke="#ddd" stroke-width="1" opacity="1"/><line transform="translate(120,-250)" x2="0" y2="250" stroke="#ddd" stroke-width="1" opacity="1"/><line transform="translate(180,-250)" x2="0" y2="250" stroke="#ddd" stroke-width="1" opacity="1"/><line transform="translate(240,-250)" x2="0" y2="250" stroke="#ddd" stroke-width="1" opacity="1"/><line transform="translate(300,-250)" x2="0" y2="250" stroke="#ddd" stroke-width="1" opacity="1"/><line transform="translate(360,-250)" x2="0" y2="250" stroke="#ddd" stroke-width="1" opacity="1"/><line transform="translate(420,-250)" x2="0" y2="250" stroke="#ddd" stroke-width="1" opacity="1"/><line transform="translate(480,-250)" x2="0" y2="250" stroke="#ddd" stroke-width="1" opacity="1"/><line transform="translate(540,-250)" x2="0" y2="250" stroke="#ddd" stroke-width="1" opacity="1"/><line transform="translate(600,-250)" x2="0" y2="250" stroke="#ddd" stroke-width="1" opacity="1"/></g></g><path class="foreground" aria-hidden="true" d="" pointer-events="none" display="none"/></g></g><g class="mark-group role-axis" aria-hidden="true"><g transform="translate(0.5,0.5)"><path class="background" aria-hidden="true" d="M0,0h0v0h0Z" pointer-events="none"/><g><g class="mark-rule role-axis-grid" pointer-events="none"><line transform="translate(0,250)" x2="600" y2="0" stroke="#ddd" stroke-width="1" opacity="1"/><line transform="translate(0,200)" x2="600" y2="0" stroke="#ddd" stroke-width="1" opacity="1"/><line transform="translate(0,150)" x2="600" y2="0" stroke="#ddd" stroke-width="1" opacity="1"/><line transform="translate(0,100)" x2="600" y2="0" stroke="#ddd" stroke-width="1" opacity="1"/><line transform="translate(0,50)" x2="600" y2="0" stroke="#ddd" stroke-width="1" opacity="1"/><line transform="translate(0,0)" x2="600" y2="0" stroke="#ddd" stroke-width="1" opacity="1"/></g></g><path class="foreground" aria-hidden="true" d="" pointer-events="none" display="none"/></g></g><g class="mark-group role-axis" role="graphics-symbol" aria-roledescription="axis" aria-label="X-axis titled '経過年数 (年)' for a linear scale with values from 0 to 50"><g transform="translate(0.5,250.5)"><path class="background" aria-hidden="true" d="M0,0h0v0h0Z" pointer-events="none"/><g><g class="mark-rule role-axis-tick" pointer-events="none"><line transform="translate(0,0)" x2="0" y2="5" stroke="#888" stroke-width="1" opacity="1"/><line transform="translate(60,0)" x2="0" y2="5" stroke="#888" stroke-width="1" opacity="1"/><line transform="translate(120,0)" x2="0" y2="5" stroke="#888" stroke-width="1" opacity="1"/><line transform="translate(180,0)" x2="0" y2="5" stroke="#888" stroke-width="1" opacity="1"/><line transform="translate(240,0)" x2="0" y2="5" stroke="#888" stroke-width="1" opacity="1"/><line transform="translate(300,0)" x2="0" y2="5" stroke="#888" stroke-width="1" opacity="1"/><line transform="translate(360,0)" x2="0" y2="5" stroke="#888" stroke-width="1" opacity="1"/><line transform="translate(420,0)" x2="0" y2="5" stroke="#888" stroke-width="1" opacity="1"/><line transform="translate(480,0)" x2="0" y2="5" stroke="#888" stroke-width="1" opacity="1"/><line transform="translate(540,0)" x2="0" y2="5" stroke="#888" stroke-width="1" opacity="1"/><line transform="translate(600,0)" x2="0" y2="5" stroke="#888" stroke-width="1" opacity="1"/></g><g class="mark-text role-axis-label" pointer-events="none"><text text-anchor="start" transform="translate(0,15)" font-family="sans-serif" font-size="10px" fill="#000" opacity="1">0</text><text text-anchor="middle" transform="translate(60,15)" font-family="sans-serif" font-size="10px" fill="#000" opacity="1">5</text><text text-anchor="middle" transform="translate(120,15)" font-family="sans-serif" font-size="10px" fill="#000" opacity="1">10</text><text text-anchor="middle" transform="translate(180,15)" font-family="sans-serif" font-size="10px" fill="#000" opacity="1">15</text><text text-anchor="middle" transform="translate(240,15)" font-family="sans-serif" font-size="10px" fill="#000" opacity="1">20</text><text text-anchor="middle" transform="translate(300,15)" font-family="sans-serif" font-size="10px" fill="#000" opacity="1">25</text><text text-anchor="middle" transform="translate(360,15)" font-family="sans-serif" font-size="10px" fill="#000" opacity="1">30</text><text text-anchor="middle" transform="translate(420,15)" font-family="sans-serif" font-size="10px" fill="#000" opacity="1">35</text><text text-anchor="middle" transform="translate(480,15)" font-family="sans-serif" font-size="10px" fill="#000" opacity="1">40</text><text text-anchor="middle" transform="translate(540,15)" font-family="sans-serif" font-size="10px" fill="#000" opacity="1">45</text><text text-anchor="end" transform="translate(600,15)" font-family="sans-serif" font-size="10px" fill="#000" opacity="1">50</text></g><g class="mark-rule role-axis-domain" pointer-events="none"><line transform="translate(0,0)" x2="600" y2="0" stroke="#888" stroke-width="1" opacity="1"/></g><g class="mark-text role-axis-title" pointer-events="none"><text text-anchor="middle" transform="translate(300,30)" font-family="sans-serif" font-size="11px" font-weight="bold" fill="#000" opacity="1">経過年数 (年)</text></g></g><path class="foreground" aria-hidden="true" d="" pointer-events="none" display="none"/></g></g><g class="mark-group role-axis" role="graphics-symbol" aria-roledescription="axis" aria-label="Y-axis titled '生存確率 (%)' for a linear scale with values from 0 to 100"><g transform="translate(0.5,0.5)"><path class="background" aria-hidden="true" d="M0,0h0v0h0Z" pointer-events="none"/><g><g class="mark-rule role-axis-tick" pointer-events="none"><line transform="translate(0,250)" x2="-5" y2="0" stroke="#888" stroke-width="1" opacity="1"/><line transform="translate(0,200)" x2="-5" y2="0" stroke="#888" stroke-width="1" opacity="1"/><line transform="translate(0,150)" x2="-5" y2="0" stroke="#888" stroke-width="1" opacity="1"/><line transform="translate(0,100)" x2="-5" y2="0" stroke="#888" stroke-width="1" opacity="1"/><line transform="translate(0,50)" x2="-5" y2="0" stroke="#888" stroke-width="1" opacity="1"/><line transform="translate(0,0)" x2="-5" y2="0" stroke="#888" stroke-width="1" opacity="1"/></g><g class="mark-text role-axis-label" pointer-events="none"><text text-anchor="end" transform="translate(-7,253)" font-family="sans-serif" font-size="10px" fill="#000" opacity="1">0</text><text text-anchor="end" transform="translate(-7,203)" font-family="sans-serif" font-size="10px" fill="#000" opacity="1">20</text><text text-anchor="end" transform="translate(-7,153)" font-family="sans-serif" font-size="10px" fill="#000" opacity="1">40</text><text text-anchor="end" transform="translate(-7,103)" font-family="sans-serif" font-size="10px" fill="#000" opacity="1">60</text><text text-anchor="end" transform="translate(-7,52.999999999999986)" font-family="sans-serif" font-size="10px" fill="#000" opacity="1">80</text><text text-anchor="end" transform="translate(-7,3)" font-family="sans-serif" font-size="10px" fill="#000" opacity="1">100</text></g><g class="mark-rule role-axis-domain" pointer-events="none"><line transform="translate(0,250)" x2="0" y2="-250" stroke="#888" stroke-width="1" opacity="1"/></g><g class="mark-text role-axis-title" pointer-events="none"><text text-anchor="middle" transform="translate(-27.6845703125,125) rotate(-90) translate(0,-2)" font-family="sans-serif" font-size="11px" font-weight="bold" fill="#000" opacity="1">生存確率 (%)</text></g></g><path class="foreground" aria-hidden="true" d="" pointer-events="none" display="none"/></g></g><g class="mark-group role-scope layer_0_pathgroup" role="graphics-object" aria-roledescription="group mark container"><g transform="translate(0,0)"><path class="background" aria-hidden="true" d="M0,0h600v250h-600Z"/><g><g class="mark-line role-mark layer_0_marks" clip-path="url(#clip3)" role="graphics-object" aria-roledescription="line mark container"><path aria-label="経過年数 (年): 0; 生存確率 (%): 100; Strategy: ACWI-1: 対数正規分布; Year: 0; Survival Probability (%): 100.0" role="graphics-symbol" aria-roledescription="line mark" d="M0,0L12,0L24,0L36,0L48,0L60,0L72,0L84,0L96,0L108,0.05L120,0.05L132,0.3L144,0.65L156,1.35L168,2.9L180,4.6L192,6.35L204,8.75L216,11.95L228,15.85L240,20.55L252,24.9L264,30.35L276,35.55L288,40.7L300,45.55L312,49.95L324,54.2L336,58.55L348,64L360,67.65L372,71.15L384,74.7L396,77.7L408,81.4L420,84.8L432,88.75L444,91.9L456,94.4L468,97.35L480,99.75L492,102.7L504,104.65L516,106.5L528,108.7L540,111L552,112.45L564,114.05L576,115.9L588,117.15L600,119" stroke="#4c78a8" stroke-width="2"/></g></g><path class="foreground" aria-hidden="true" d="" display="none"/></g><g transform="translate(0,0)"><path class="background" aria-hidden="true" d="M0,0h600v250h-600Z"/><g><g class="mark-line role-mark layer_0_marks" clip-path="url(#clip4)" role="graphics-object" aria-roledescription="line mark container"><path aria-label="経過年数 (年): 0; 生存確率 (%): 100; Strategy: ACWI-2: Johnson SU分布; Year: 0; Survival Probability (%): 100.0" role="graphics-symbol" aria-roledescription="line mark" d="M0,0L12,0L24,0L36,0L48,0L60,0L72,0L84,0L96,0.05L108,0.1L120,0.2L132,0.5L144,1.5L156,2.6L168,4.7L180,7.15L192,9.75L204,12.95L216,16.7L228,20.75L240,25.15L252,29.55L264,34.25L276,38.75L288,43.85L300,49.25L312,54.55L324,58.65L336,63.15L348,67.6L360,72.1L372,76.3L384,80.2L396,83.25L408,87.55L420,91.3L432,94.25L444,97L456,99.35L468,102.2L480,105.3L492,107.9L504,110.3L516,113L528,115.35L540,117L552,118.6L564,120.6L576,122.45L588,123.65L600,125.45" stroke="#f58518" stroke-width="2"/></g></g><path class="foreground" aria-hidden="true" d="" display="none"/></g></g><g class="mark-symbol role-mark layer_1_marks" clip-path="url(#clip5)" role="graphics-object" aria-roledescription="symbol mark container"><path aria-label="経過年数 (年): 0; 生存確率 (%): 100; Strategy: ACWI-1: 対数正規分布; Year: 0; Survival Probability (%): 100.0" role="graphics-symbol" aria-roledescription="point" transform="translate(0,0)" d="M2.739,0A2.739,2.739,0,1,1,-2.739,0A2.739,2.739,0,1,1,2.739,0" fill="#4c78a8" stroke-width="2" opacity="1"/><path aria-label="経過年数 (年): 1; 生存確率 (%): 100; Strategy: ACWI-1: 対数正規分布; Year: 1; Survival Probability (%): 100.0" role="graphics-symbol" aria-roledescription="point" transform="translate(12,0)" d="M2.739,0A2.739,2.739,0,1,1,-2.739,0A2.739,2.739,0,1,1,2.739,0" fill="#4c78a8" stroke-width="2" opacity="1"/><path aria-label="経過年数 (年): 2; 生存確率 (%): 100; Strategy: ACWI-1: 対数正規分布; Year: 2; Survival Probability (%): 100.0" role="graphics-symbol" aria-roledescription="point" transform="translate(24,0)" d="M2.739,0A2.739,2.739,0,1,1,-2.739,0A2.739,2.739,0,1,1,2.739,0" fill="#4c78a8" stroke-width="2" opacity="1"/><path aria-label="経過年数 (年): 3; 生存確率 (%): 100; Strategy: ACWI-1: 対数正規分布; Year: 3; Survival Probability (%): 100.0" role="graphics-symbol" aria-roledescription="point" transform="translate(36,0)" d="M2.739,0A2.739,2.739,0,1,1,-2.739,0A2.739,2.739,0,1,1,2.739,0" fill="#4c78a8" stroke-width="2" opacity="1"/><path aria-label="経過年数 (年): 4; 生存確率 (%): 100; Strategy: ACWI-1: 対数正規分布; Year: 4; Survival Probability (%): 100.0" role="graphics-symbol" aria-roledescription="point" transform="translate(48,0)" d="M2.739,0A2.739,2.739,0,1,1,-2.739,0A2.739,2.739,0,1,1,2.739,0" fill="#4c78a8" stroke-width="2" opacity="1"/><path aria-label="経過年数 (年): 5; 生存確率 (%): 100; Strategy: ACWI-1: 対数正規分布; Year: 5; Survival Probability (%): 100.0" role="graphics-symbol" aria-roledescription="point" transform="translate(60,0)" d="M2.739,0A2.739,2.739,0,1,1,-2.739,0A2.739,2.739,0,1,1,2.739,0" fill="#4c78a8" stroke-width="2" opacity="1"/><path aria-label="経過年数 (年): 6; 生存確率 (%): 100; Strategy: ACWI-1: 対数正規分布; Year: 6; Survival Probability (%): 100.0" role="graphics-symbol" aria-roledescription="point" transform="translate(72,0)" d="M2.739,0A2.739,2.739,0,1,1,-2.739,0A2.739,2.739,0,1,1,2.739,0" fill="#4c78a8" stroke-width="2" opacity="1"/><path aria-label="経過年数 (年): 7; 生存確率 (%): 100; Strategy: ACWI-1: 対数正規分布; Year: 7; Survival Probability (%): 100.0" role="graphics-symbol" aria-roledescription="point" transform="translate(84.00000000000001,0)" d="M2.739,0A2.739,2.739,0,1,1,-2.739,0A2.739,2.739,0,1,1,2.739,0" fill="#4c78a8" stroke-width="2" opacity="1"/><path aria-label="経過年数 (年): 8; 生存確率 (%): 100; Strategy: ACWI-1: 対数正規分布; Year: 8; Survival Probability (%): 100.0" role="graphics-symbol" aria-roledescription="point" transform="translate(96,0)" d="M2.739,0A2.739,2.739,0,1,1,-2.739,0A2.739,2.739,0,1,1,2.739,0" fill="#4c78a8" stroke-width="2" opacity="1"/><path aria-label="経過年数 (年): 9; 生存確率 (%): 99.98; Strategy: ACWI-1: 対数正規分布; Year: 9; Survival Probability (%): 100.0" role="graphics-symbol" aria-roledescription="point" transform="translate(108,0.04999999999999449)" d="M2.739,0A2.739,2.739,0,1,1,-2.739,0A2.739,2.739,0,1,1,2.739,0" fill="#4c78a8" stroke-width="2" opacity="1"/><path aria-label="経過年数 (年): 10; 生存確率 (%): 99.98; Strategy: ACWI-1: 対数正規分布; Year: 10; Survival Probability (%): 100.0" role="graphics-symbol" aria-roledescription="point" transform="translate(120,0.04999999999999449)" d="M2.739,0A2.739,2.739,0,1,1,-2.739,0A2.739,2.739,0,1,1,2.739,0" fill="#4c78a8" stroke-width="2" opacity="1"/><path aria-label="経過年数 (年): 11; 生存確率 (%): 99.88; Strategy: ACWI-1: 対数正規分布; Year: 11; Survival Probability (%): 99.9" role="graphics-symbol" aria-roledescription="point" transform="translate(132,0.30000000000002247)" d="M2.739,0A2.739,2.739,0,1,1,-2.739,0A2.739,2.739,0,1,1,2.739,0" fill="#4c78a8" stroke-width="2" opacity="1"/><path aria-label="経過年数 (年): 12; 生存確率 (%): 99.74; Strategy: ACWI-1: 対数正規分布; Year: 12; Survival Probability (%): 99.7" role="graphics-symbol" aria-roledescription="point" transform="translate(144,0.6500000000000117)" d="M2.739,0A2.739,2.739,0,1,1,-2.739,0A2.739,2.739,0,1,1,2.739,0" fill="#4c78a8" stroke-width="2" opacity="1"/><path aria-label="経過年数 (年): 13; 生存確率 (%): 99.46; Strategy: ACWI-1: 対数正規分布; Year: 13; Survival Probability (%): 99.5" role="graphics-symbol" aria-roledescription="point" transform="translate(156,1.34999999999999)" d="M2.739,0A2.739,2.739,0,1,1,-2.739,0A2.739,2.739,0,1,1,2.739,0" fill="#4c78a8" stroke-width="2" opacity="1"/><path aria-label="経過年数 (年): 14; 生存確率 (%): 98.84; Strategy: ACWI-1: 対数正規分布; Year: 14; Survival Probability (%): 98.8" role="graphics-symbol" aria-roledescription="point" transform="translate(168.00000000000003,2.9000000000000137)" d="M2.739,0A2.739,2.739,0,1,1,-2.739,0A2.739,2.739,0,1,1,2.739,0" fill="#4c78a8" stroke-width="2" opacity="1"/><path aria-label="経過年数 (年): 15; 生存確率 (%): 98.16; Strategy: ACWI-1: 対数正規分布; Year: 15; Survival Probability (%): 98.2" role="graphics-symbol" aria-roledescription="point" transform="translate(180,4.600000000000021)" d="M2.739,0A2.739,2.739,0,1,1,-2.739,0A2.739,2.739,0,1,1,2.739,0" fill="#4c78a8" stroke-width="2" opacity="1"/><path aria-label="経過年数 (年): 16; 生存確率 (%): 97.46; Strategy: ACWI-1: 対数正規分布; Year: 16; Survival Probability (%): 97.5" role="graphics-symbol" aria-roledescription="point" transform="translate(192,6.349999999999967)" d="M2.739,0A2.739,2.739,0,1,1,-2.739,0A2.739,2.739,0,1,1,2.739,0" fill="#4c78a8" stroke-width="2" opacity="1"/><path aria-label="経過年数 (年): 17; 生存確率 (%): 96.5; Strategy: ACWI-1: 対数正規分布; Year: 17; Survival Probability (%): 96.5" role="graphics-symbol" aria-roledescription="point" transform="translate(204.00000000000003,8.750000000000007)" d="M2.739,0A2.739,2.739,0,1,1,-2.739,0A2.739,2.739,0,1,1,2.739,0" fill="#4c78a8" stroke-width="2" opacity="1"/><path aria-label="経過年数 (年): 18; 生存確率 (%): 95.22; Strategy: ACWI-1: 対数正規分布; Year: 18; Survival Probability (%): 95.2" role="graphics-symbol" aria-roledescription="point" transform="translate(216,11.950000000000017)" d="M2.739,0A2.739,2.739,0,1,1,-2.739,0A2.739,2.739,0,1,1,2.739,0" fill="#4c78a8" stroke-width="2" opacity="1"/><path aria-label="経過年数 (年): 19; 生存確率 (%): 93.66; Strategy: ACWI-1: 対数正規分布; Year: 19; Survival Probability (%): 93.7" role="graphics-symbol" aria-roledescription="point" transform="translate(228,15.850000000000003)" d="M2.739,0A2.739,2.739,0,1,1,-2.739,0A2.739,2.739,0,1,1,2.739,0" fill="#4c78a8" stroke-width="2" opacity="1"/><path aria-label="経過年数 (年): 20; 生存確率 (%): 91.78; Strategy: ACWI-1: 対数正規分布; Year: 20; Survival Probability (%): 91.8" role="graphics-symbol" aria-roledescription="point" transform="translate(240,20.549999999999986)" d="M2.739,0A2.739,2.739,0,1,1,-2.739,0A2.739,2.739,0,1,1,2.739,0" fill="#4c78a8" stroke-width="2" opacity="1"/><path aria-label="経過年数 (年): 21; 生存確率 (%): 90.04; Strategy: ACWI-1: 対数正規分布; Year: 21; Survival Probability (%): 90.0" role="graphics-symbol" aria-roledescription="point" transform="translate(252,24.900000000000034)" d="M2.739,0A2.739,2.739,0,1,1,-2.739,0A2.739,2.739,0,1,1,2.739,0" fill="#4c78a8" stroke-width="2" opacity="1"/><path aria-label="経過年数 (年): 22; 生存確率 (%): 87.86; Strategy: ACWI-1: 対数正規分布; Year: 22; Survival Probability (%): 87.9" role="graphics-symbol" aria-roledescription="point" transform="translate(264,30.349999999999987)" d="M2.739,0A2.739,2.739,0,1,1,-2.739,0A2.739,2.739,0,1,1,2.739,0" fill="#4c78a8" stroke-width="2" opacity="1"/><path aria-label="経過年数 (年): 23; 生存確率 (%): 85.78; Strategy: ACWI-1: 対数正規分布; Year: 23; Survival Probability (%): 85.8" role="graphics-symbol" aria-roledescription="point" transform="translate(276,35.55)" d="M2.739,0A2.739,2.739,0,1,1,-2.739,0A2.739,2.739,0,1,1,2.739,0" fill="#4c78a8" stroke-width="2" opacity="1"/><path aria-label="経過年数 (年): 24; 生存確率 (%): 83.72; Strategy: ACWI-1: 対数正規分布; Year: 24; Survival Probability (%): 83.7" role="graphics-symbol" aria-roledescription="point" transform="translate(288,40.70000000000002)" d="M2.739,0A2.739,2.739,0,1,1,-2.739,0A2.739,2.739,0,1,1,2.739,0" fill="#4c78a8" stroke-width="2" opacity="1"/><path aria-label="経過年数 (年): 25; 生存確率 (%): 81.78; Strategy: ACWI-1: 対数正規分布; Year: 25; Survival Probability (%): 81.8" role="graphics-symbol" aria-roledescription="point" transform="translate(300,45.550000000000004)" d="M2.739,0A2.739,2.739,0,1,1,-2.739,0A2.739,2.739,0,1,1,2.739,0" fill="#4c78a8" stroke-width="2" opacity="1"/><path aria-label="経過年数 (年): 26; 生存確率 (%): 80.02; Strategy: ACWI-1: 対数正規分布; Year: 26; Survival Probability (%): 80.0" role="graphics-symbol" aria-roledescription="point" transform="translate(312,49.950000000000024)" d="M2.739,0A2.739,2.739,0,1,1,-2.739,0A2.739,2.739,0,1,1,2.739,0" fill="#4c78a8" stroke-width="2" opacity="1"/><path aria-label="経過年数 (年): 27; 生存確率 (%): 78.32; Strategy: ACWI-1: 対数正規分布; Year: 27; Survival Probability (%): 78.3" role="graphics-symbol" aria-roledescription="point" transform="translate(324,54.19999999999997)" d="M2.739,0A2.739,2.739,0,1,1,-2.739,0A2.739,2.739,0,1,1,2.739,0" fill="#4c78a8" stroke-width="2" opacity="1"/><path aria-label="経過年数 (年): 28; 生存確率 (%): 76.58; Strategy: ACWI-1: 対数正規分布; Year: 28; Survival Probability (%): 76.6" role="graphics-symbol" aria-roledescription="point" transform="translate(336.00000000000006,58.54999999999999)" d="M2.739,0A2.739,2.739,0,1,1,-2.739,0A2.739,2.739,0,1,1,2.739,0" fill="#4c78a8" stroke-width="2" opacity="1"/><path aria-label="経過年数 (年): 29; 生存確率 (%): 74.4; Strategy: ACWI-1: 対数正規分布; Year: 29; Survival Probability (%): 74.4" role="graphics-symbol" aria-roledescription="point" transform="translate(348,63.99999999999997)" d="M2.739,0A2.739,2.739,0,1,1,-2.739,0A2.739,2.739,0,1,1,2.739,0" fill="#4c78a8" stroke-width="2" opacity="1"/><path aria-label="経過年数 (年): 30; 生存確率 (%): 72.94; Strategy: ACWI-1: 対数正規分布; Year: 30; Survival Probability (%): 72.9" role="graphics-symbol" aria-roledescription="point" transform="translate(360,67.65000000000002)" d="M2.739,0A2.739,2.739,0,1,1,-2.739,0A2.739,2.739,0,1,1,2.739,0" fill="#4c78a8" stroke-width="2" opacity="1"/><path aria-label="経過年数 (年): 31; 生存確率 (%): 71.54; Strategy: ACWI-1: 対数正規分布; Year: 31; Survival Probability (%): 71.5" role="graphics-symbol" aria-roledescription="point" transform="translate(372,71.14999999999999)" d="M2.739,0A2.739,2.739,0,1,1,-2.739,0A2.739,2.739,0,1,1,2.739,0" fill="#4c78a8" stroke-width="2" opacity="1"/><path aria-label="経過年数 (年): 32; 生存確率 (%): 70.12; Strategy: ACWI-1: 対数正規分布; Year: 32; Survival Probability (%): 70.1" role="graphics-symbol" aria-roledescription="point" transform="translate(384,74.69999999999999)" d="M2.739,0A2.739,2.739,0,1,1,-2.739,0A2.739,2.739,0,1,1,2.739,0" fill="#4c78a8" stroke-width="2" opacity="1"/><path aria-label="経過年数 (年): 33; 生存確率 (%): 68.92; Strategy: ACWI-1: 対数正規分布; Year: 33; Survival Probability (%): 68.9" role="graphics-symbol" aria-roledescription="point" transform="translate(396,77.69999999999999)" d="M2.739,0A2.739,2.739,0,1,1,-2.739,0A2.739,2.739,0,1,1,2.739,0" fill="#4c78a8" stroke-width="2" opacity="1"/><path aria-label="経過年数 (年): 34; 生存確率 (%): 67.44; Strategy: ACWI-1: 対数正規分布; Year: 34; Survival Probability (%): 67.4" role="graphics-symbol" aria-roledescription="point" transform="translate(408.00000000000006,81.4)" d="M2.739,0A2.739,2.739,0,1,1,-2.739,0A2.739,2.739,0,1,1,2.739,0" fill="#4c78a8" stroke-width="2" opacity="1"/><path aria-label="経過年数 (年): 35; 生存確率 (%): 66.08; Strategy: ACWI-1: 対数正規分布; Year: 35; Survival Probability (%): 66.1" role="graphics-symbol" aria-roledescription="point" transform="translate(420,84.79999999999995)" d="M2.739,0A2.739,2.739,0,1,1,-2.739,0A2.739,2.739,0,1,1,2.739,0" fill="#4c78a8" stroke-width="2" opacity="1"/><path aria-label="経過年数 (年): 36; 生存確率 (%): 64.5; Strategy: ACWI-1: 対数正規分布; Year: 36; Survival Probability (%): 64.5" role="graphics-symbol" aria-roledescription="point" transform="translate(432,88.75)" d="M2.739,0A2.739,2.739,0,1,1,-2.739,0A2.739,2.739,0,1,1,2.739,0" fill="#4c78a8" stroke-width="2" opacity="1"/><path aria-label="経過年数 (年): 37; 生存確率 (%): 63.24; Strategy: ACWI-1: 対数正規分布; Year: 37; Survival Probability (%): 63.2" role="graphics-symbol" aria-roledescription="point" transform="translate(444,91.9)" d="M2.739,0A2.739,2.739,0,1,1,-2.739,0A2.739,2.739,0,1,1,2.739,0" fill="#4c78a8" stroke-width="2" opacity="1"/><path aria-label="経過年数 (年): 38; 生存確率 (%): 62.24; Strategy: ACWI-1: 対数正規分布; Year: 38; Survival Probability (%): 62.2" role="graphics-symbol" aria-roledescription="point" transform="translate(456,94.4)" d="M2.739,0A2.739,2.739,0,1,1,-2.739,0A2.739,2.739,0,1,1,2.739,0" fill="#4c78a8" stroke-width="2" opacity="1"/><path aria-label="経過年数 (年): 39; 生存確率 (%): 61.06; Strategy: ACWI-1: 対数正規分布; Year: 39; Survival Probability (%): 61.1" role="graphics-symbol" aria-roledescription="point" transform="translate(468,97.35)" d="M2.739,0A2.739,2.739,0,1,1,-2.739,0A2.739,2.739,0,1,1,2.739,0" fill="#4c78a8" stroke-width="2" opacity="1"/><path aria-label="経過年数 (年): 40; 生存確率 (%): 60.1; Strategy: ACWI-1: 対数正規分布; Year: 40; Survival Probability (%): 60.1" role="graphics-symbol" aria-roledescription="point" transform="translate(480,99.75)" d="M2.739,0A2.739,2.739,0,1,1,-2.739,0A2.739,2.739,0,1,1,2.739,0" fill="#4c78a8" stroke-width="2" opacity="1"/><path aria-label="経過年数 (年): 41; 生存確率 (%): 58.92; Strategy: ACWI-1: 対数正規分布; Year: 41; Survival Probability (%): 58.9" role="graphics-symbol" aria-roledescription="point" transform="translate(491.99999999999994,102.70000000000002)" d="M2.739,0A2.739,2.739,0,1,1,-2.739,0A2.739,2.739,0,1,1,2.739,0" fill="#4c78a8" stroke-width="2" opacity="1"/><path aria-label="経過年数 (年): 42; 生存確率 (%): 58.14; Strategy: ACWI-1: 対数正規分布; Year: 42; Survival Probability (%): 58.1" role="graphics-symbol" aria-roledescription="point" transform="translate(504,104.64999999999999)" d="M2.739,0A2.739,2.739,0,1,1,-2.739,0A2.739,2.739,0,1,1,2.739,0" fill="#4c78a8" stroke-width="2" opacity="1"/><path aria-label="経過年数 (年): 43; 生存確率 (%): 57.4; Strategy: ACWI-1: 対数正規分布; Year: 43; Survival Probability (%): 57.4" role="graphics-symbol" aria-roledescription="point" transform="translate(516,106.50000000000001)" d="M2.739,0A2.739,2.739,0,1,1,-2.739,0A2.739,2.739,0,1,1,2.739,0" fill="#4c78a8" stroke-width="2" opacity="1"/><path aria-label="経過年数 (年): 44; 生存確率 (%): 56.52; Strategy: ACWI-1: 対数正規分布; Year: 44; Survival Probability (%): 56.5" role="graphics-symbol" aria-roledescription="point" transform="translate(528,108.69999999999999)" d="M2.739,0A2.739,2.739,0,1,1,-2.739,0A2.739,2.739,0,1,1,2.739,0" fill="#4c78a8" stroke-width="2" opacity="1"/><path aria-label="経過年数 (年): 45; 生存確率 (%): 55.6; Strategy: ACWI-1: 対数正規分布; Year: 45; Survival Probability (%): 55.6" role="graphics-symbol" aria-roledescription="point" transform="translate(540,110.99999999999999)" d="M2.739,0A2.739,2.739,0,1,1,-2.739,0A2.739,2.739,0,1,1,2.739,0" fill="#4c78a8" stroke-width="2" opacity="1"/><path aria-label="経過年数 (年): 46; 生存確率 (%): 55.02; Strategy: ACWI-1: 対数正規分布; Year: 46; Survival Probability (%): 55.0" role="graphics-symbol" aria-roledescription="point" transform="translate(552,112.44999999999999)" d="M2.739,0A2.739,2.739,0,1,1,-2.739,0A2.739,2.739,0,1,1,2.739,0" fill="#4c78a8" stroke-width="2" opacity="1"/><path aria-label="経過年数 (年): 47; 生存確率 (%): 54.38; Strategy: ACWI-1: 対数正規分布; Year: 47; Survival Probability (%): 54.4" role="graphics-symbol" aria-roledescription="point" transform="translate(564,114.05000000000001)" d="M2.739,0A2.739,2.739,0,1,1,-2.739,0A2.739,2.739,0,1,1,2.739,0" fill="#4c78a8" stroke-width="2" opacity="1"/><path aria-label="経過年数 (年): 48; 生存確率 (%): 53.64; Strategy: ACWI-1: 対数正規分布; Year: 48; Survival Probability (%): 53.6" role="graphics-symbol" aria-roledescription="point" transform="translate(576,115.9)" d="M2.739,0A2.739,2.739,0,1,1,-2.739,0A2.739,2.739,0,1,1,2.739,0" fill="#4c78a8" stroke-width="2" opacity="1"/><path aria-label="経過年数 (年): 49; 生存確率 (%): 53.14; Strategy: ACWI-1: 対数正規分布; Year: 49; Survival Probability (%): 53.1" role="graphics-symbol" aria-roledescription="point" transform="translate(588,117.15)" d="M2.739,0A2.739,2.739,0,1,1,-2.739,0A2.739,2.739,0,1,1,2.739,0" fill="#4c78a8" stroke-width="2" opacity="1"/><path aria-label="経過年数 (年): 50; 生存確率 (%): 52.4; Strategy: ACWI-1: 対数正規分布; Year: 50; Survival Probability (%): 52.4" role="graphics-symbol" aria-roledescription="point" transform="translate(600,119)" d="M2.739,0A2.739,2.739,0,1,1,-2.739,0A2.739,2.739,0,1,1,2.739,0" fill="#4c78a8" stroke-width="2" opacity="1"/><path aria-label="経過年数 (年): 0; 生存確率 (%): 100; Strategy: ACWI-2: Johnson SU分布; Year: 0; Survival Probability (%): 100.0" role="graphics-symbol" aria-roledescription="point" transform="translate(0,0)" d="M2.739,0A2.739,2.739,0,1,1,-2.739,0A2.739,2.739,0,1,1,2.739,0" fill="#f58518" stroke-width="2" opacity="1"/><path aria-label="経過年数 (年): 1; 生存確率 (%): 100; Strategy: ACWI-2: Johnson SU分布; Year: 1; Survival Probability (%): 100.0" role="graphics-symbol" aria-roledescription="point" transform="translate(12,0)" d="M2.739,0A2.739,2.739,0,1,1,-2.739,0A2.739,2.739,0,1,1,2.739,0" fill="#f58518" stroke-width="2" opacity="1"/><path aria-label="経過年数 (年): 2; 生存確率 (%): 100; Strategy: ACWI-2: Johnson SU分布; Year: 2; Survival Probability (%): 100.0" role="graphics-symbol" aria-roledescription="point" transform="translate(24,0)" d="M2.739,0A2.739,2.739,0,1,1,-2.739,0A2.739,2.739,0,1,1,2.739,0" fill="#f58518" stroke-width="2" opacity="1"/><path aria-label="経過年数 (年): 3; 生存確率 (%): 100; Strategy: ACWI-2: Johnson SU分布; Year: 3; Survival Probability (%): 100.0" role="graphics-symbol" aria-roledescription="point" transform="translate(36,0)" d="M2.739,0A2.739,2.739,0,1,1,-2.739,0A2.739,2.739,0,1,1,2.739,0" fill="#f58518" stroke-width="2" opacity="1"/><path aria-label="経過年数 (年): 4; 生存確率 (%): 100; Strategy: ACWI-2: Johnson SU分布; Year: 4; Survival Probability (%): 100.0" role="graphics-symbol" aria-roledescription="point" transform="translate(48,0)" d="M2.739,0A2.739,2.739,0,1,1,-2.739,0A2.739,2.739,0,1,1,2.739,0" fill="#f58518" stroke-width="2" opacity="1"/><path aria-label="経過年数 (年): 5; 生存確率 (%): 100; Strategy: ACWI-2: Johnson SU分布; Year: 5; Survival Probability (%): 100.0" role="graphics-symbol" aria-roledescription="point" transform="translate(60,0)" d="M2.739,0A2.739,2.739,0,1,1,-2.739,0A2.739,2.739,0,1,1,2.739,0" fill="#f58518" stroke-width="2" opacity="1"/><path aria-label="経過年数 (年): 6; 生存確率 (%): 100; Strategy: ACWI-2: Johnson SU分布; Year: 6; Survival Probability (%): 100.0" role="graphics-symbol" aria-roledescription="point" transform="translate(72,0)" d="M2.739,0A2.739,2.739,0,1,1,-2.739,0A2.739,2.739,0,1,1,2.739,0" fill="#f58518" stroke-width="2" opacity="1"/><path aria-label="経過年数 (年): 7; 生存確率 (%): 100; Strategy: ACWI-2: Johnson SU分布; Year: 7; Survival Probability (%): 100.0" role="graphics-symbol" aria-roledescription="point" transform="translate(84.00000000000001,0)" d="M2.739,0A2.739,2.739,0,1,1,-2.739,0A2.739,2.739,0,1,1,2.739,0" fill="#f58518" stroke-width="2" opacity="1"/><path aria-label="経過年数 (年): 8; 生存確率 (%): 99.98; Strategy: ACWI-2: Johnson SU分布; Year: 8; Survival Probability (%): 100.0" role="graphics-symbol" aria-roledescription="point" transform="translate(96,0.04999999999999449)" d="M2.739,0A2.739,2.739,0,1,1,-2.739,0A2.739,2.739,0,1,1,2.739,0" fill="#f58518" stroke-width="2" opacity="1"/><path aria-label="経過年数 (年): 9; 生存確率 (%): 99.96; Strategy: ACWI-2: Johnson SU分布; Year: 9; Survival Probability (%): 100.0" role="graphics-symbol" aria-roledescription="point" transform="translate(108,0.09999999999998899)" d="M2.739,0A2.739,2.739,0,1,1,-2.739,0A2.739,2.739,0,1,1,2.739,0" fill="#f58518" stroke-width="2" opacity="1"/><path aria-label="経過年数 (年): 10; 生存確率 (%): 99.92; Strategy: ACWI-2: Johnson SU分布; Year: 10; Survival Probability (%): 99.9" role="graphics-symbol" aria-roledescription="point" transform="translate(120,0.20000000000000573)" d="M2.739,0A2.739,2.739,0,1,1,-2.739,0A2.739,2.739,0,1,1,2.739,0" fill="#f58518" stroke-width="2" opacity="1"/><path aria-label="経過年数 (年): 11; 生存確率 (%): 99.8; Strategy: ACWI-2: Johnson SU分布; Year: 11; Survival Probability (%): 99.8" role="graphics-symbol" aria-roledescription="point" transform="translate(132,0.5000000000000004)" d="M2.739,0A2.739,2.739,0,1,1,-2.739,0A2.739,2.739,0,1,1,2.739,0" fill="#f58518" stroke-width="2" opacity="1"/><path aria-label="経過年数 (年): 12; 生存確率 (%): 99.4; Strategy: ACWI-2: Johnson SU分布; Year: 12; Survival Probability (%): 99.4" role="graphics-symbol" aria-roledescription="point" transform="translate(144,1.4999999999999736)" d="M2.739,0A2.739,2.739,0,1,1,-2.739,0A2.739,2.739,0,1,1,2.739,0" fill="#f58518" stroke-width="2" opacity="1"/><path aria-label="経過年数 (年): 13; 生存確率 (%): 98.96; Strategy: ACWI-2: Johnson SU分布; Year: 13; Survival Probability (%): 99.0" role="graphics-symbol" aria-roledescription="point" transform="translate(156,2.599999999999991)" d="M2.739,0A2.739,2.739,0,1,1,-2.739,0A2.739,2.739,0,1,1,2.739,0" fill="#f58518" stroke-width="2" opacity="1"/><path aria-label="経過年数 (年): 14; 生存確率 (%): 98.12; Strategy: ACWI-2: Johnson SU分布; Year: 14; Survival Probability (%): 98.1" role="graphics-symbol" aria-roledescription="point" transform="translate(168.00000000000003,4.7000000000000375)" d="M2.739,0A2.739,2.739,0,1,1,-2.739,0A2.739,2.739,0,1,1,2.739,0" fill="#f58518" stroke-width="2" opacity="1"/><path aria-label="経過年数 (年): 15; 生存確率 (%): 97.14; Strategy: ACWI-2: Johnson SU分布; Year: 15; Survival Probability (%): 97.1" role="graphics-symbol" aria-roledescription="point" transform="translate(180,7.14999999999999)" d="M2.739,0A2.739,2.739,0,1,1,-2.739,0A2.739,2.739,0,1,1,2.739,0" fill="#f58518" stroke-width="2" opacity="1"/><path aria-label="経過年数 (年): 16; 生存確率 (%): 96.1; Strategy: ACWI-2: Johnson SU分布; Year: 16; Survival Probability (%): 96.1" role="graphics-symbol" aria-roledescription="point" transform="translate(192,9.750000000000009)" d="M2.739,0A2.739,2.739,0,1,1,-2.739,0A2.739,2.739,0,1,1,2.739,0" fill="#f58518" stroke-width="2" opacity="1"/><path aria-label="経過年数 (年): 17; 生存確率 (%): 94.82; Strategy: ACWI-2: Johnson SU分布; Year: 17; Survival Probability (%): 94.8" role="graphics-symbol" aria-roledescription="point" transform="translate(204.00000000000003,12.949999999999989)" d="M2.739,0A2.739,2.739,0,1,1,-2.739,0A2.739,2.739,0,1,1,2.739,0" fill="#f58518" stroke-width="2" opacity="1"/><path aria-label="経過年数 (年): 18; 生存確率 (%): 93.32; Strategy: ACWI-2: Johnson SU分布; Year: 18; Survival Probability (%): 93.3" role="graphics-symbol" aria-roledescription="point" transform="translate(216,16.699999999999992)" d="M2.739,0A2.739,2.739,0,1,1,-2.739,0A2.739,2.739,0,1,1,2.739,0" fill="#f58518" stroke-width="2" opacity="1"/><path aria-label="経過年数 (年): 19; 生存確率 (%): 91.7; Strategy: ACWI-2: Johnson SU分布; Year: 19; Survival Probability (%): 91.7" role="graphics-symbol" aria-roledescription="point" transform="translate(228,20.74999999999999)" d="M2.739,0A2.739,2.739,0,1,1,-2.739,0A2.739,2.739,0,1,1,2.739,0" fill="#f58518" stroke-width="2" opacity="1"/><path aria-label="経過年数 (年): 20; 生存確率 (%): 89.94; Strategy: ACWI-2: Johnson SU分布; Year: 20; Survival Probability (%): 89.9" role="graphics-symbol" aria-roledescription="point" transform="translate(240,25.150000000000006)" d="M2.739,0A2.739,2.739,0,1,1,-2.739,0A2.739,2.739,0,1,1,2.739,0" fill="#f58518" stroke-width="2" opacity="1"/><path aria-label="経過年数 (年): 21; 生存確率 (%): 88.18; Strategy: ACWI-2: Johnson SU分布; Year: 21; Survival Probability (%): 88.2" role="graphics-symbol" aria-roledescription="point" transform="translate(252,29.549999999999994)" d="M2.739,0A2.739,2.739,0,1,1,-2.739,0A2.739,2.739,0,1,1,2.739,0" fill="#f58518" stroke-width="2" opacity="1"/><path aria-label="経過年数 (年): 22; 生存確率 (%): 86.3; Strategy: ACWI-2: Johnson SU分布; Year: 22; Survival Probability (%): 86.3" role="graphics-symbol" aria-roledescription="point" transform="translate(264,34.25)" d="M2.739,0A2.739,2.739,0,1,1,-2.739,0A2.739,2.739,0,1,1,2.739,0" fill="#f58518" stroke-width="2" opacity="1"/><path aria-label="経過年数 (年): 23; 生存確率 (%): 84.5; Strategy: ACWI-2: Johnson SU分布; Year: 23; Survival Probability (%): 84.5" role="graphics-symbol" aria-roledescription="point" transform="translate(276,38.75000000000001)" d="M2.739,0A2.739,2.739,0,1,1,-2.739,0A2.739,2.739,0,1,1,2.739,0" fill="#f58518" stroke-width="2" opacity="1"/><path aria-label="経過年数 (年): 24; 生存確率 (%): 82.46; Strategy: ACWI-2: Johnson SU分布; Year: 24; Survival Probability (%): 82.5" role="graphics-symbol" aria-roledescription="point" transform="translate(288,43.85000000000003)" d="M2.739,0A2.739,2.739,0,1,1,-2.739,0A2.739,2.739,0,1,1,2.739,0" fill="#f58518" stroke-width="2" opacity="1"/><path aria-label="経過年数 (年): 25; 生存確率 (%): 80.3; Strategy: ACWI-2: Johnson SU分布; Year: 25; Survival Probability (%): 80.3" role="graphics-symbol" aria-roledescription="point" transform="translate(300,49.24999999999996)" d="M2.739,0A2.739,2.739,0,1,1,-2.739,0A2.739,2.739,0,1,1,2.739,0" fill="#f58518" stroke-width="2" opacity="1"/><path aria-label="経過年数 (年): 26; 生存確率 (%): 78.18; Strategy: ACWI-2: Johnson SU分布; Year: 26; Survival Probability (%): 78.2" role="graphics-symbol" aria-roledescription="point" transform="translate(312,54.54999999999999)" d="M2.739,0A2.739,2.739,0,1,1,-2.739,0A2.739,2.739,0,1,1,2.739,0" fill="#f58518" stroke-width="2" opacity="1"/><path aria-label="経過年数 (年): 27; 生存確率 (%): 76.54; Strategy: ACWI-2: Johnson SU分布; Year: 27; Survival Probability (%): 76.5" role="graphics-symbol" aria-roledescription="point" transform="translate(324,58.650000000000006)" d="M2.739,0A2.739,2.739,0,1,1,-2.739,0A2.739,2.739,0,1,1,2.739,0" fill="#f58518" stroke-width="2" opacity="1"/><path aria-label="経過年数 (年): 28; 生存確率 (%): 74.74; Strategy: ACWI-2: Johnson SU分布; Year: 28; Survival Probability (%): 74.7" role="graphics-symbol" aria-roledescription="point" transform="translate(336.00000000000006,63.15000000000001)" d="M2.739,0A2.739,2.739,0,1,1,-2.739,0A2.739,2.739,0,1,1,2.739,0" fill="#f58518" stroke-width="2" opacity="1"/><path aria-label="経過年数 (年): 29; 生存確率 (%): 72.96; Strategy: ACWI-2: Johnson SU分布; Year: 29; Survival Probability (%): 73.0" role="graphics-symbol" aria-roledescription="point" transform="translate(348,67.6)" d="M2.739,0A2.739,2.739,0,1,1,-2.739,0A2.739,2.739,0,1,1,2.739,0" fill="#f58518" stroke-width="2" opacity="1"/><path aria-label="経過年数 (年): 30; 生存確率 (%): 71.16; Strategy: ACWI-2: Johnson SU分布; Year: 30; Survival Probability (%): 71.2" role="graphics-symbol" aria-roledescription="point" transform="translate(360,72.1)" d="M2.739,0A2.739,2.739,0,1,1,-2.739,0A2.739,2.739,0,1,1,2.739,0" fill="#f58518" stroke-width="2" opacity="1"/><path aria-label="経過年数 (年): 31; 生存確率 (%): 69.48; Strategy: ACWI-2: Johnson SU分布; Year: 31; Survival Probability (%): 69.5" role="graphics-symbol" aria-roledescription="point" transform="translate(372,76.29999999999998)" d="M2.739,0A2.739,2.739,0,1,1,-2.739,0A2.739,2.739,0,1,1,2.739,0" fill="#f58518" stroke-width="2" opacity="1"/><path aria-label="経過年数 (年): 32; 生存確率 (%): 67.92; Strategy: ACWI-2: Johnson SU分布; Year: 32; Survival Probability (%): 67.9" role="graphics-symbol" aria-roledescription="point" transform="translate(384,80.19999999999999)" d="M2.739,0A2.739,2.739,0,1,1,-2.739,0A2.739,2.739,0,1,1,2.739,0" fill="#f58518" stroke-width="2" opacity="1"/><path aria-label="経過年数 (年): 33; 生存確率 (%): 66.7; Strategy: ACWI-2: Johnson SU分布; Year: 33; Survival Probability (%): 66.7" role="graphics-symbol" aria-roledescription="point" transform="translate(396,83.24999999999999)" d="M2.739,0A2.739,2.739,0,1,1,-2.739,0A2.739,2.739,0,1,1,2.739,0" fill="#f58518" stroke-width="2" opacity="1"/><path aria-label="経過年数 (年): 34; 生存確率 (%): 64.98; Strategy: ACWI-2: Johnson SU分布; Year: 34; Survival Probability (%): 65.0" role="graphics-symbol" aria-roledescription="point" transform="translate(408.00000000000006,87.54999999999998)" d="M2.739,0A2.739,2.739,0,1,1,-2.739,0A2.739,2.739,0,1,1,2.739,0" fill="#f58518" stroke-width="2" opacity="1"/><path aria-label="経過年数 (年): 35; 生存確率 (%): 63.48; Strategy: ACWI-2: Johnson SU分布; Year: 35; Survival Probability (%): 63.5" role="graphics-symbol" aria-roledescription="point" transform="translate(420,91.3)" d="M2.739,0A2.739,2.739,0,1,1,-2.739,0A2.739,2.739,0,1,1,2.739,0" fill="#f58518" stroke-width="2" opacity="1"/><path aria-label="経過年数 (年): 36; 生存確率 (%): 62.3; Strategy: ACWI-2: Johnson SU分布; Year: 36; Survival Probability (%): 62.3" role="graphics-symbol" aria-roledescription="point" transform="translate(432,94.25)" d="M2.739,0A2.739,2.739,0,1,1,-2.739,0A2.739,2.739,0,1,1,2.739,0" fill="#f58518" stroke-width="2" opacity="1"/><path aria-label="経過年数 (年): 37; 生存確率 (%): 61.2; Strategy: ACWI-2: Johnson SU分布; Year: 37; Survival Probability (%): 61.2" role="graphics-symbol" aria-roledescription="point" transform="translate(444,97)" d="M2.739,0A2.739,2.739,0,1,1,-2.739,0A2.739,2.739,0,1,1,2.739,0" fill="#f58518" stroke-width="2" opacity="1"/><path aria-label="経過年数 (年): 38; 生存確率 (%): 60.26; Strategy: ACWI-2: Johnson SU分布; Year: 38; Survival Probability (%): 60.3" role="graphics-symbol" aria-roledescription="point" transform="translate(456,99.35)" d="M2.739,0A2.739,2.739,0,1,1,-2.739,0A2.739,2.739,0,1,1,2.739,0" fill="#f58518" stroke-width="2" opacity="1"/><path aria-label="経過年数 (年): 39; 生存確率 (%): 59.12; Strategy: ACWI-2: Johnson SU分布; Year: 39; Survival Probability (%): 59.1" role="graphics-symbol" aria-roledescription="point" transform="translate(468,102.20000000000002)" d="M2.739,0A2.739,2.739,0,1,1,-2.739,0A2.739,2.739,0,1,1,2.739,0" fill="#f58518" stroke-width="2" opacity="1"/><path aria-label="経過年数 (年): 40; 生存確率 (%): 57.88; Strategy: ACWI-2: Johnson SU分布; Year: 40; Survival Probability (%): 57.9" role="graphics-symbol" aria-roledescription="point" transform="translate(480,105.30000000000001)" d="M2.739,0A2.739,2.739,0,1,1,-2.739,0A2.739,2.739,0,1,1,2.739,0" fill="#f58518" stroke-width="2" opacity="1"/><path aria-label="経過年数 (年): 41; 生存確率 (%): 56.84; Strategy: ACWI-2: Johnson SU分布; Year: 41; Survival Probability (%): 56.8" role="graphics-symbol" aria-roledescription="point" transform="translate(491.99999999999994,107.89999999999999)" d="M2.739,0A2.739,2.739,0,1,1,-2.739,0A2.739,2.739,0,1,1,2.739,0" fill="#f58518" stroke-width="2" opacity="1"/><path aria-label="経過年数 (年): 42; 生存確率 (%): 55.88; Strategy: ACWI-2: Johnson SU分布; Year: 42; Survival Probability (%): 55.9" role="graphics-symbol" aria-roledescription="point" transform="translate(504,110.30000000000001)" d="M2.739,0A2.739,2.739,0,1,1,-2.739,0A2.739,2.739,0,1,1,2.739,0" fill="#f58518" stroke-width="2" opacity="1"/><path aria-label="経過年数 (年): 43; 生存確率 (%): 54.8; Strategy: ACWI-2: Johnson SU分布; Year: 43; Survival Probability (%): 54.8" role="graphics-symbol" aria-roledescription="point" transform="translate(516,112.99999999999999)" d="M2.739,0A2.739,2.739,0,1,1,-2.739,0A2.739,2.739,0,1,1,2.739,0" fill="#f58518" stroke-width="2" opacity="1"/><path aria-label="経過年数 (年): 44; 生存確率 (%): 53.86; Strategy: ACWI-2: Johnson SU分布; Year: 44; Survival Probability (%): 53.9" role="graphics-symbol" aria-roledescription="point" transform="translate(528,115.35000000000001)" d="M2.739,0A2.739,2.739,0,1,1,-2.739,0A2.739,2.739,0,1,1,2.739,0" fill="#f58518" stroke-width="2" opacity="1"/><path aria-label="経過年数 (年): 45; 生存確率 (%): 53.2; Strategy: ACWI-2: Johnson SU分布; Year: 45; Survival Probability (%): 53.2" role="graphics-symbol" aria-roledescription="point" transform="translate(540,117)" d="M2.739,0A2.739,2.739,0,1,1,-2.739,0A2.739,2.739,0,1,1,2.739,0" fill="#f58518" stroke-width="2" opacity="1"/><path aria-label="経過年数 (年): 46; 生存確率 (%): 52.56; Strategy: ACWI-2: Johnson SU分布; Year: 46; Survival Probability (%): 52.6" role="graphics-symbol" aria-roledescription="point" transform="translate(552,118.60000000000001)" d="M2.739,0A2.739,2.739,0,1,1,-2.739,0A2.739,2.739,0,1,1,2.739,0" fill="#f58518" stroke-width="2" opacity="1"/><path aria-label="経過年数 (年): 47; 生存確率 (%): 51.76; Strategy: ACWI-2: Johnson SU分布; Year: 47; Survival Probability (%): 51.8" role="graphics-symbol" aria-roledescription="point" transform="translate(564,120.60000000000001)" d="M2.739,0A2.739,2.739,0,1,1,-2.739,0A2.739,2.739,0,1,1,2.739,0" fill="#f58518" stroke-width="2" opacity="1"/><path aria-label="経過年数 (年): 48; 生存確率 (%): 51.02; Strategy: ACWI-2: Johnson SU分布; Year: 48; Survival Probability (%): 51.0" role="graphics-symbol" aria-roledescription="point" transform="translate(576,122.45)" d="M2.739,0A2.739,2.739,0,1,1,-2.739,0A2.739,2.739,0,1,1,2.739,0" fill="#f58518" stroke-width="2" opacity="1"/><path aria-label="経過年数 (年): 49; 生存確率 (%): 50.54; Strategy: ACWI-2: Johnson SU分布; Year: 49; Survival Probability (%): 50.5" role="graphics-symbol" aria-roledescription="point" transform="translate(588,123.65)" d="M2.739,0A2.739,2.739,0,1,1,-2.739,0A2.739,2.739,0,1,1,2.739,0" fill="#f58518" stroke-width="2" opacity="1"/><path aria-label="経過年数 (年): 50; 生存確率 (%): 49.82; Strategy: ACWI-2: Johnson SU分布; Year: 50; Survival Probability (%): 49.8" role="graphics-symbol" aria-roledescription="point" transform="translate(600,125.45)" d="M2.739,0A2.739,2.739,0,1,1,-2.739,0A2.739,2.739,0,1,1,2.739,0" fill="#f58518" stroke-width="2" opacity="1"/></g><g class="mark-group role-legend" role="graphics-symbol" aria-roledescription="legend" aria-label="Symbol legend titled '戦略' for fill color and stroke color with 2 values: ACWI-1: 対数正規分布, ACWI-2: Johnson SU分布"><g transform="translate(0,-47)"><path class="background" aria-hidden="true" d="M0,0h260v29h-260Z" pointer-events="none"/><g><g class="mark-group role-legend-entry"><g transform="translate(0,16)"><path class="background" aria-hidden="true" d="M0,0h0v0h0Z" pointer-events="none"/><g><g class="mark-group role-scope" role="graphics-object" aria-roledescription="group mark container"><g transform="translate(0,0.25)"><path class="background" aria-hidden="true" d="M0,0h116.556640625v12.5h-116.556640625Z" pointer-events="none" opacity="1"/><g><g class="mark-symbol role-legend-symbol" pointer-events="none"><path transform="translate(6,6)" d="M5,0A5,5,0,1,1,-5,0A5,5,0,1,1,5,0" fill="#4c78a8" stroke="#4c78a8" stroke-width="1.5" opacity="1"/></g><g class="mark-text role-legend-label" pointer-events="none"><text text-anchor="start" transform="translate(16,9)" font-family="sans-serif" font-size="10px" fill="#000" opacity="1">ACWI-1: 対数正規分布</text></g></g><path class="foreground" aria-hidden="true" d="" pointer-events="none" display="none"/></g><g transform="translate(128,0.25)"><path class="background" aria-hidden="true" d="M0,0h131.0341796875v12.5h-131.0341796875Z" pointer-events="none" opacity="1"/><g><g class="mark-symbol role-legend-symbol" pointer-events="none"><path transform="translate(6,6)" d="M5,0A5,5,0,1,1,-5,0A5,5,0,1,1,5,0" fill="#f58518" stroke="#f58518" stroke-width="1.5" opacity="1"/></g><g class="mark-text role-legend-label" pointer-events="none"><text text-anchor="start" transform="translate(16,9)" font-family="sans-serif" font-size="10px" fill="#000" opacity="1">ACWI-2: Johnson SU分布</text></g></g><path class="foreground" aria-hidden="true" d="" pointer-events="none" display="none"/></g></g></g><path class="foreground" aria-hidden="true" d="" pointer-events="none" display="none"/></g></g><g class="mark-text role-legend-title" pointer-events="none"><text text-anchor="start" transform="translate(0,9)" font-family="sans-serif" font-size="11px" font-weight="bold" fill="#000" opacity="1">戦略</text></g></g><path class="foreground" aria-hidden="true" d="" pointer-events="none" display="none"/></g></g><g class="mark-group role-title"><g transform="translate(300,-64)"><path class="background" aria-hidden="true" d="M0,0h0v0h0Z" pointer-events="none"/><g><g class="mark-text role-title-text" role="graphics-symbol" aria-roledescription="title" aria-label="Title text '経過年数と生存確率の推移'" pointer-events="none"><text text-anchor="middle" transform="translate(0,10)" font-family="sans-serif" font-size="13px" font-weight="bold" fill="#000" opacity="1">経過年数と生存確率の推移</text></g></g><path class="foreground" aria-hidden="true" d="" pointer-events="none" display="none"/></g></g></g><path class="foreground" aria-hidden="true" d="" display="none"/></g></g></g><defs><clipPath id="clip3"><rect x="0" y="0" width="600" height="250"/></clipPath><clipPath id="clip4"><rect x="0" y="0" width="600" height="250"/></clipPath><clipPath id="clip5"><rect x="0" y="0" width="600" height="250"/></clipPath></defs></svg>