<svg xmlns="http://www.w3.org/2000/svg" xmlns:xlink="http://www.w3.org/1999/xlink" version="1.1" class="marks" width="650" height="356" viewBox="0 0 650 356"><rect width="650" height="356" fill="white"/><g fill="none" stroke-miterlimit="10" transform="translate(44,69)"><g class="mark-group role-frame root" role="graphics-object" aria-roledescription="group mark container"><g transform="translate(0,0)"><path class="background" aria-hidden="true" d="M0.5,0.5h600v250h-600Z" stroke="#ddd"/><g><g class="mark-group role-axis" aria-hidden="true"><g transform="translate(0.5,250.5)"><path class="background" aria-hidden="true" d="M0,0h0v0h0Z" pointer-events="none"/><g><g class="mark-rule role-axis-grid" pointer-events="none"><line transform="translate(0,-250)" x2="0" y2="250" stroke="#ddd" stroke-width="1" opacity="1"/><line transform="translate(60,-250)" x2="0" y2="250" stroke="#ddd" stroke-width="1" opacity="1"/><line transform="translate(120,-250)" x2="0" y2="250" stroke="#ddd" stroke-width="1" opacity="1"/><line transform="translate(180,-250)" x2="0" y2="250" stroke="#ddd" stroke-width="1" opacity="1"/><line transform="translate(240,-250)" x2="0" y2="250" stroke="#ddd" stroke-width="1" opacity="1"/><line transform="translate(300,-250)" x2="0" y2="250" stroke="#ddd" stroke-width="1" opacity="1"/><line transform="translate(360,-250)" x2="0" y2="250" stroke="#ddd" stroke-width="1" opacity="1"/><line transform="translate(420,-250)" x2="0" y2="250" stroke="#ddd" stroke-width="1" opacity="1"/><line transform="translate(480,-250)" x2="0" y2="250" stroke="#ddd" stroke-width="1" opacity="1"/><line transform="translate(540,-250)" x2="0" y2="250" stroke="#ddd" stroke-width="1" opacity="1"/><line transform="translate(600,-250)" x2="0" y2="250" stroke="#ddd" stroke-width="1" opacity="1"/></g></g><path class="foreground" aria-hidden="true" d="" pointer-events="none" display="none"/></g></g><g class="mark-group role-axis" aria-hidden="true"><g transform="translate(0.5,0.5)"><path class="background" aria-hidden="true" d="M0,0h0v0h0Z" pointer-events="none"/><g><g class="mark-rule role-axis-grid" pointer-events="none"><line transform="translate(0,250)" x2="600" y2="0" stroke="#ddd" stroke-width="1" opacity="1"/><line transform="translate(0,200)" x2="600" y2="0" stroke="#ddd" stroke-width="1" opacity="1"/><line transform="translate(0,150)" x2="600" y2="0" stroke="#ddd" stroke-width="1" opacity="1"/><line transform="translate(0,100)" x2="600" y2="0" stroke="#ddd" stroke-width="1" opacity="1"/><line transform="translate(0,50)" x2="600" y2="0" stroke="#ddd" stroke-width="1" opacity="1"/><line transform="translate(0,0)" x2="600" y2="0" stroke="#ddd" stroke-width="1" opacity="1"/></g></g><path class="foreground" aria-hidden="true" d="" pointer-events="none" display="none"/></g></g><g class="mark-group role-axis" role="graphics-symbol" aria-roledescription="axis" aria-label="X-axis titled '経過年数 (年)' for a linear scale with values from 0 to 50"><g transform="translate(0.5,250.5)"><path class="background" aria-hidden="true" d="M0,0h0v0h0Z" pointer-events="none"/><g><g class="mark-rule role-axis-tick" pointer-events="none"><line transform="translate(0,0)" x2="0" y2="5" stroke="#888" stroke-width="1" opacity="1"/><line transform="translate(60,0)" x2="0" y2="5" stroke="#888" stroke-width="1" opacity="1"/><line transform="translate(120,0)" x2="0" y2="5" stroke="#888" stroke-width="1" opacity="1"/><line transform="translate(180,0)" x2="0" y2="5" stroke="#888" stroke-width="1" opacity="1"/><line transform="translate(240,0)" x2="0" y2="5" stroke="#888" stroke-width="1" opacity="1"/><line transform="translate(300,0)" x2="0" y2="5" stroke="#888" stroke-width="1" opacity="1"/><line transform="translate(360,0)" x2="0" y2="5" stroke="#888" stroke-width="1" opacity="1"/><line transform="translate(420,0)" x2="0" y2="5" stroke="#888" stroke-width="1" opacity="1"/><line transform="translate(480,0)" x2="0" y2="5" stroke="#888" stroke-width="1" opacity="1"/><line transform="translate(540,0)" x2="0" y2="5" stroke="#888" stroke-width="1" opacity="1"/><line transform="translate(600,0)" x2="0" y2="5" stroke="#888" stroke-width="1" opacity="1"/></g><g class="mark-text role-axis-label" pointer-events="none"><text text-anchor="start" transform="translate(0,15)" font-family="sans-serif" font-size="10px" fill="#000" opacity="1">0</text><text text-anchor="middle" transform="translate(60,15)" font-family="sans-serif" font-size="10px" fill="#000" opacity="1">5</text><text text-anchor="middle" transform="translate(120,15)" font-family="sans-serif" font-size="10px" fill="#000" opacity="1">10</text><text text-anchor="middle" transform="translate(180,15)" font-family="sans-serif" font-size="10px" fill="#000" opacity="1">15</text><text text-anchor="middle" transform="translate(240,15)" font-family="sans-serif" font-size="10px" fill="#000" opacity="1">20</text><text text-anchor="middle" transform="translate(300,15)" font-family="sans-serif" font-size="10px" fill="#000" opacity="1">25</text><text text-anchor="middle" transform="translate(360,15)" font-family="sans-serif" font-size="10px" fill="#000" opacity="1">30</text><text text-anchor="middle" transform="translate(420,15)" font-family="sans-serif" font-size="10px" fill="#000" opacity="1">35</text><text text-anchor="middle" transform="translate(480,15)" font-family="sans-serif" font-size="10px" fill="#000" opacity="1">40</text><text text-anchor="middle" transform="translate(540,15)" font-family="sans-serif" font-size="10px" fill="#000" opacity="1">45</text><text text-anchor="end" transform="translate(600,15)" font-family="sans-serif" font-size="10px" fill="#000" opacity="1">50</text></g><g class="mark-rule role-axis-domain" pointer-events="none"><line transform="translate(0,0)" x2="600" y2="0" stroke="#888" stroke-width="1" opacity="1"/></g><g class="mark-text role-axis-title" pointer-events="none"><text text-anchor="middle" transform="translate(300,30)" font-family="sans-serif" font-size="11px" font-weight="bold" fill="#000" opacity="1">経過年数 (年)</text></g></g><path class="foreground" aria-hidden="true" d="" pointer-events="none" display="none"/></g></g><g class="mark-group role-axis" role="graphics-symbol" aria-roledescription="axis" aria-label="Y-axis titled '生存確率 (%)' for a linear scale with values from 0 to 100"><g transform="translate(0.5,0.5)"><path class="background" aria-hidden="true" d="M0,0h0v0h0Z" pointer-events="none"/><g><g class="mark-rule role-axis-tick" pointer-events="none"><line transform="translate(0,250)" x2="-5" y2="0" stroke="#888" stroke-width="1" opacity="1"/><line transform="translate(0,200)" x2="-5" y2="0" stroke="#888" stroke-width="1" opacity="1"/><line transform="translate(0,150)" x2="-5" y2="0" stroke="#888" stroke-width="1" opacity="1"/><line transform="translate(0,100)" x2="-5" y2="0" stroke="#888" stroke-width="1" opacity="1"/><line transform="translate(0,50)" x2="-5" y2="0" stroke="#888" stroke-width="1" opacity="1"/><line transform="translate(0,0)" x2="-5" y2="0" stroke="#888" stroke-width="1" opacity="1"/></g><g class="mark-text role-axis-label" pointer-events="none"><text text-anchor="end" transform="translate(-7,253)" font-family="sans-serif" font-size="10px" fill="#000" opacity="1">0</text><text text-anchor="end" transform="translate(-7,203)" font-family="sans-serif" font-size="10px" fill="#000" opacity="1">20</text><text text-anchor="end" transform="translate(-7,153)" font-family="sans-serif" font-size="10px" fill="#000" opacity="1">40</text><text text-anchor="end" transform="translate(-7,103)" font-family="sans-serif" font-size="10px" fill="#000" opacity="1">60</text><text text-anchor="end" transform="translate(-7,52.999999999999986)" font-family="sans-serif" font-size="10px" fill="#000" opacity="1">80</text><text text-anchor="end" transform="translate(-7,3)" font-family="sans-serif" font-size="10px" fill="#000" opacity="1">100</text></g><g class="mark-rule role-axis-domain" pointer-events="none"><line transform="translate(0,250)" x2="0" y2="-250" stroke="#888" stroke-width="1" opacity="1"/></g><g class="mark-text role-axis-title" pointer-events="none"><text text-anchor="middle" transform="translate(-27.6845703125,125) rotate(-90) translate(0,-2)" font-family="sans-serif" font-size="11px" font-weight="bold" fill="#000" opacity="1">生存確率 (%)</text></g></g><path class="foreground" aria-hidden="true" d="" pointer-events="none" display="none"/></g></g><g class="mark-group role-scope layer_0_pathgroup" role="graphics-object" aria-roledescription="group mark container"><g transform="translate(0,0)"><path class="background" aria-hidden="true" d="M0,0h600v250h-600Z"/><g><g class="mark-line role-mark layer_0_marks" clip-path="url(#clip3)" role="graphics-object" aria-roledescription="line mark container"><path aria-label="経過年数 (年): 0; 生存確率 (%): 100; Strategy: ACWI-1: 対数正規分布 (為替あり); Year: 0; Survival Probability (%): 100.0" role="graphics-symbol" aria-roledescription="line mark" d="M0,0L12,0L24,0L36,0L48,0L60,0L72,0L84,0L96,0.05L108,0.05L120,0.3L132,0.6L144,1.65L156,2.75L168,4.25L180,6.05L192,8.6L204,12.1L216,14.3L228,17.95L240,21.3L252,25.1L264,28.85L276,32.25L288,35.95L300,40.1L312,43.8L324,47.45L336,51.05L348,54.4L360,57.35L372,60.25L384,63.4L396,66.75L408,69.1L420,71.75L432,73.85L444,75.9L456,78.4L468,80.4L480,82.15L492,84.05L504,86L516,87.6L528,89.2L540,90.3L552,91.05L564,92.25L576,93.3L588,94.4L600,95.15" stroke="#4c78a8" stroke-width="2"/></g></g><path class="foreground" aria-hidden="true" d="" display="none"/></g><g transform="translate(0,0)"><path class="background" aria-hidden="true" d="M0,0h600v250h-600Z"/><g><g class="mark-line role-mark layer_0_marks" clip-path="url(#clip4)" role="graphics-object" aria-roledescription="line mark container"><path aria-label="経過年数 (年): 0; 生存確率 (%): 100; Strategy: ACWI-2: Johnson SU分布 (為替あり); Year: 0; Survival Probability (%): 100.0" role="graphics-symbol" aria-roledescription="line mark" d="M0,0L12,0L24,0L36,0L48,0L60,0L72,0L84,0L96,0L108,0.1L120,0.35L132,1.05L144,2L156,3.15L168,4.8L180,7.25L192,9.9L204,12.8L216,16.05L228,19L240,22.1L252,25.5L264,28.95L276,32.35L288,35.6L300,39.65L312,43.4L324,46.6L336,50.65L348,54.4L360,57.45L372,60.55L384,63.35L396,65.8L408,68.3L420,70.65L432,73.05L444,75.1L456,77.4L468,79.5L480,81.45L492,83.2L504,84.55L516,85.3L528,86.75L540,88.2L552,89.8L564,91.1L576,92.45L588,93.65L600,94.5" stroke="#f58518" stroke-width="2"/></g></g><path class="foreground" aria-hidden="true" d="" display="none"/></g></g><g class="mark-symbol role-mark layer_1_marks" clip-path="url(#clip5)" role="graphics-object" aria-roledescription="symbol mark container"><path aria-label="経過年数 (年): 0; 生存確率 (%): 100; Strategy: ACWI-1: 対数正規分布 (為替あり); Year: 0; Survival Probability (%): 100.0" role="graphics-symbol" aria-roledescription="point" transform="translate(0,0)" d="M2.739,0A2.739,2.739,0,1,1,-2.739,0A2.739,2.739,0,1,1,2.739,0" fill="#4c78a8" stroke-width="2" opacity="1"/><path aria-label="経過年数 (年): 1; 生存確率 (%): 100; Strategy: ACWI-1: 対数正規分布 (為替あり); Year: 1; Survival Probability (%): 100.0" role="graphics-symbol" aria-roledescription="point" transform="translate(12,0)" d="M2.739,0A2.739,2.739,0,1,1,-2.739,0A2.739,2.739,0,1,1,2.739,0" fill="#4c78a8" stroke-width="2" opacity="1"/><path aria-label="経過年数 (年): 2; 生存確率 (%): 100; Strategy: ACWI-1: 対数正規分布 (為替あり); Year: 2; Survival Probability (%): 100.0" role="graphics-symbol" aria-roledescription="point" transform="translate(24,0)" d="M2.739,0A2.739,2.739,0,1,1,-2.739,0A2.739,2.739,0,1,1,2.739,0" fill="#4c78a8" stroke-width="2" opacity="1"/><path aria-label="経過年数 (年): 3; 生存確率 (%): 100; Strategy: ACWI-1: 対数正規分布 (為替あり); Year: 3; Survival Probability (%): 100.0" role="graphics-symbol" aria-roledescription="point" transform="translate(36,0)" d="M2.739,0A2.739,2.739,0,1,1,-2.739,0A2.739,2.739,0,1,1,2.739,0" fill="#4c78a8" stroke-width="2" opacity="1"/><path aria-label="経過年数 (年): 4; 生存確率 (%): 100; Strategy: ACWI-1: 対数正規分布 (為替あり); Year: 4; Survival Probability (%): 100.0" role="graphics-symbol" aria-roledescription="point" transform="translate(48,0)" d="M2.739,0A2.739,2.739,0,1,1,-2.739,0A2.739,2.739,0,1,1,2.739,0" fill="#4c78a8" stroke-width="2" opacity="1"/><path aria-label="経過年数 (年): 5; 生存確率 (%): 100; Strategy: ACWI-1: 対数正規分布 (為替あり); Year: 5; Survival Probability (%): 100.0" role="graphics-symbol" aria-roledescription="point" transform="translate(60,0)" d="M2.739,0A2.739,2.739,0,1,1,-2.739,0A2.739,2.739,0,1,1,2.739,0" fill="#4c78a8" stroke-width="2" opacity="1"/><path aria-label="経過年数 (年): 6; 生存確率 (%): 100; Strategy: ACWI-1: 対数正規分布 (為替あり); Year: 6; Survival Probability (%): 100.0" role="graphics-symbol" aria-roledescription="point" transform="translate(72,0)" d="M2.739,0A2.739,2.739,0,1,1,-2.739,0A2.739,2.739,0,1,1,2.739,0" fill="#4c78a8" stroke-width="2" opacity="1"/><path aria-label="経過年数 (年): 7; 生存確率 (%): 100; Strategy: ACWI-1: 対数正規分布 (為替あり); Year: 7; Survival Probability (%): 100.0" role="graphics-symbol" aria-roledescription="point" transform="translate(84.00000000000001,0)" d="M2.739,0A2.739,2.739,0,1,1,-2.739,0A2.739,2.739,0,1,1,2.739,0" fill="#4c78a8" stroke-width="2" opacity="1"/><path aria-label="経過年数 (年): 8; 生存確率 (%): 99.98; Strategy: ACWI-1: 対数正規分布 (為替あり); Year: 8; Survival Probability (%): 100.0" role="graphics-symbol" aria-roledescription="point" transform="translate(96,0.04999999999999449)" d="M2.739,0A2.739,2.739,0,1,1,-2.739,0A2.739,2.739,0,1,1,2.739,0" fill="#4c78a8" stroke-width="2" opacity="1"/><path aria-label="経過年数 (年): 9; 生存確率 (%): 99.98; Strategy: ACWI-1: 対数正規分布 (為替あり); Year: 9; Survival Probability (%): 100.0" role="graphics-symbol" aria-roledescription="point" transform="translate(108,0.04999999999999449)" d="M2.739,0A2.739,2.739,0,1,1,-2.739,0A2.739,2.739,0,1,1,2.739,0" fill="#4c78a8" stroke-width="2" opacity="1"/><path aria-label="経過年数 (年): 10; 生存確率 (%): 99.88; Strategy: ACWI-1: 対数正規分布 (為替あり); Year: 10; Survival Probability (%): 99.9" role="graphics-symbol" aria-roledescription="point" transform="translate(120,0.30000000000002247)" d="M2.739,0A2.739,2.739,0,1,1,-2.739,0A2.739,2.739,0,1,1,2.739,0" fill="#4c78a8" stroke-width="2" opacity="1"/><path aria-label="経過年数 (年): 11; 生存確率 (%): 99.76; Strategy: ACWI-1: 対数正規分布 (為替あり); Year: 11; Survival Probability (%): 99.8" role="graphics-symbol" aria-roledescription="point" transform="translate(132,0.5999999999999894)" d="M2.739,0A2.739,2.739,0,1,1,-2.739,0A2.739,2.739,0,1,1,2.739,0" fill="#4c78a8" stroke-width="2" opacity="1"/><path aria-label="経過年数 (年): 12; 生存確率 (%): 99.34; Strategy: ACWI-1: 対数正規分布 (為替あり); Year: 12; Survival Probability (%): 99.3" role="graphics-symbol" aria-roledescription="point" transform="translate(144,1.6500000000000403)" d="M2.739,0A2.739,2.739,0,1,1,-2.739,0A2.739,2.739,0,1,1,2.739,0" fill="#4c78a8" stroke-width="2" opacity="1"/><path aria-label="経過年数 (年): 13; 生存確率 (%): 98.9; Strategy: ACWI-1: 対数正規分布 (為替あり); Year: 13; Survival Probability (%): 98.9" role="graphics-symbol" aria-roledescription="point" transform="translate(156,2.7499999999999747)" d="M2.739,0A2.739,2.739,0,1,1,-2.739,0A2.739,2.739,0,1,1,2.739,0" fill="#4c78a8" stroke-width="2" opacity="1"/><path aria-label="経過年数 (年): 14; 生存確率 (%): 98.3; Strategy: ACWI-1: 対数正規分布 (為替あり); Year: 14; Survival Probability (%): 98.3" role="graphics-symbol" aria-roledescription="point" transform="translate(168.00000000000003,4.2500000000000036)" d="M2.739,0A2.739,2.739,0,1,1,-2.739,0A2.739,2.739,0,1,1,2.739,0" fill="#4c78a8" stroke-width="2" opacity="1"/><path aria-label="経過年数 (年): 15; 生存確率 (%): 97.58; Strategy: ACWI-1: 対数正規分布 (為替あり); Year: 15; Survival Probability (%): 97.6" role="graphics-symbol" aria-roledescription="point" transform="translate(180,6.05)" d="M2.739,0A2.739,2.739,0,1,1,-2.739,0A2.739,2.739,0,1,1,2.739,0" fill="#4c78a8" stroke-width="2" opacity="1"/><path aria-label="経過年数 (年): 16; 生存確率 (%): 96.56; Strategy: ACWI-1: 対数正規分布 (為替あり); Year: 16; Survival Probability (%): 96.6" role="graphics-symbol" aria-roledescription="point" transform="translate(192,8.599999999999996)" d="M2.739,0A2.739,2.739,0,1,1,-2.739,0A2.739,2.739,0,1,1,2.739,0" fill="#4c78a8" stroke-width="2" opacity="1"/><path aria-label="経過年数 (年): 17; 生存確率 (%): 95.16; Strategy: ACWI-1: 対数正規分布 (為替あり); Year: 17; Survival Probability (%): 95.2" role="graphics-symbol" aria-roledescription="point" transform="translate(204.00000000000003,12.1)" d="M2.739,0A2.739,2.739,0,1,1,-2.739,0A2.739,2.739,0,1,1,2.739,0" fill="#4c78a8" stroke-width="2" opacity="1"/><path aria-label="経過年数 (年): 18; 生存確率 (%): 94.28; Strategy: ACWI-1: 対数正規分布 (為替あり); Year: 18; Survival Probability (%): 94.3" role="graphics-symbol" aria-roledescription="point" transform="translate(216,14.300000000000008)" d="M2.739,0A2.739,2.739,0,1,1,-2.739,0A2.739,2.739,0,1,1,2.739,0" fill="#4c78a8" stroke-width="2" opacity="1"/><path aria-label="経過年数 (年): 19; 生存確率 (%): 92.82; Strategy: ACWI-1: 対数正規分布 (為替あり); Year: 19; Survival Probability (%): 92.8" role="graphics-symbol" aria-roledescription="point" transform="translate(228,17.949999999999992)" d="M2.739,0A2.739,2.739,0,1,1,-2.739,0A2.739,2.739,0,1,1,2.739,0" fill="#4c78a8" stroke-width="2" opacity="1"/><path aria-label="経過年数 (年): 20; 生存確率 (%): 91.48; Strategy: ACWI-1: 対数正規分布 (為替あり); Year: 20; Survival Probability (%): 91.5" role="graphics-symbol" aria-roledescription="point" transform="translate(240,21.300000000000015)" d="M2.739,0A2.739,2.739,0,1,1,-2.739,0A2.739,2.739,0,1,1,2.739,0" fill="#4c78a8" stroke-width="2" opacity="1"/><path aria-label="経過年数 (年): 21; 生存確率 (%): 89.96; Strategy: ACWI-1: 対数正規分布 (為替あり); Year: 21; Survival Probability (%): 90.0" role="graphics-symbol" aria-roledescription="point" transform="translate(252,25.100000000000012)" d="M2.739,0A2.739,2.739,0,1,1,-2.739,0A2.739,2.739,0,1,1,2.739,0" fill="#4c78a8" stroke-width="2" opacity="1"/><path aria-label="経過年数 (年): 22; 生存確率 (%): 88.46; Strategy: ACWI-1: 対数正規分布 (為替あり); Year: 22; Survival Probability (%): 88.5" role="graphics-symbol" aria-roledescription="point" transform="translate(264,28.849999999999987)" d="M2.739,0A2.739,2.739,0,1,1,-2.739,0A2.739,2.739,0,1,1,2.739,0" fill="#4c78a8" stroke-width="2" opacity="1"/><path aria-label="経過年数 (年): 23; 生存確率 (%): 87.1; Strategy: ACWI-1: 対数正規分布 (為替あり); Year: 23; Survival Probability (%): 87.1" role="graphics-symbol" aria-roledescription="point" transform="translate(276,32.25)" d="M2.739,0A2.739,2.739,0,1,1,-2.739,0A2.739,2.739,0,1,1,2.739,0" fill="#4c78a8" stroke-width="2" opacity="1"/><path aria-label="経過年数 (年): 24; 生存確率 (%): 85.62; Strategy: ACWI-1: 対数正規分布 (為替あり); Year: 24; Survival Probability (%): 85.6" role="graphics-symbol" aria-roledescription="point" transform="translate(288,35.95000000000004)" d="M2.739,0A2.739,2.739,0,1,1,-2.739,0A2.739,2.739,0,1,1,2.739,0" fill="#4c78a8" stroke-width="2" opacity="1"/><path aria-label="経過年数 (年): 25; 生存確率 (%): 83.96; Strategy: ACWI-1: 対数正規分布 (為替あり); Year: 25; Survival Probability (%): 84.0" role="graphics-symbol" aria-roledescription="point" transform="translate(300,40.099999999999966)" d="M2.739,0A2.739,2.739,0,1,1,-2.739,0A2.739,2.739,0,1,1,2.739,0" fill="#4c78a8" stroke-width="2" opacity="1"/><path aria-label="経過年数 (年): 26; 生存確率 (%): 82.48; Strategy: ACWI-1: 対数正規分布 (為替あり); Year: 26; Survival Probability (%): 82.5" role="graphics-symbol" aria-roledescription="point" transform="translate(312,43.799999999999976)" d="M2.739,0A2.739,2.739,0,1,1,-2.739,0A2.739,2.739,0,1,1,2.739,0" fill="#4c78a8" stroke-width="2" opacity="1"/><path aria-label="経過年数 (年): 27; 生存確率 (%): 81.02; Strategy: ACWI-1: 対数正規分布 (為替あり); Year: 27; Survival Probability (%): 81.0" role="graphics-symbol" aria-roledescription="point" transform="translate(324,47.44999999999997)" d="M2.739,0A2.739,2.739,0,1,1,-2.739,0A2.739,2.739,0,1,1,2.739,0" fill="#4c78a8" stroke-width="2" opacity="1"/><path aria-label="経過年数 (年): 28; 生存確率 (%): 79.58; Strategy: ACWI-1: 対数正規分布 (為替あり); Year: 28; Survival Probability (%): 79.6" role="graphics-symbol" aria-roledescription="point" transform="translate(336.00000000000006,51.05000000000001)" d="M2.739,0A2.739,2.739,0,1,1,-2.739,0A2.739,2.739,0,1,1,2.739,0" fill="#4c78a8" stroke-width="2" opacity="1"/><path aria-label="経過年数 (年): 29; 生存確率 (%): 78.24; Strategy: ACWI-1: 対数正規分布 (為替あり); Year: 29; Survival Probability (%): 78.2" role="graphics-symbol" aria-roledescription="point" transform="translate(348,54.400000000000006)" d="M2.739,0A2.739,2.739,0,1,1,-2.739,0A2.739,2.739,0,1,1,2.739,0" fill="#4c78a8" stroke-width="2" opacity="1"/><path aria-label="経過年数 (年): 30; 生存確率 (%): 77.06; Strategy: ACWI-1: 対数正規分布 (為替あり); Year: 30; Survival Probability (%): 77.1" role="graphics-symbol" aria-roledescription="point" transform="translate(360,57.34999999999999)" d="M2.739,0A2.739,2.739,0,1,1,-2.739,0A2.739,2.739,0,1,1,2.739,0" fill="#4c78a8" stroke-width="2" opacity="1"/><path aria-label="経過年数 (年): 31; 生存確率 (%): 75.9; Strategy: ACWI-1: 対数正規分布 (為替あり); Year: 31; Survival Probability (%): 75.9" role="graphics-symbol" aria-roledescription="point" transform="translate(372,60.25)" d="M2.739,0A2.739,2.739,0,1,1,-2.739,0A2.739,2.739,0,1,1,2.739,0" fill="#4c78a8" stroke-width="2" opacity="1"/><path aria-label="経過年数 (年): 32; 生存確率 (%): 74.64; Strategy: ACWI-1: 対数正規分布 (為替あり); Year: 32; Survival Probability (%): 74.6" role="graphics-symbol" aria-roledescription="point" transform="translate(384,63.40000000000001)" d="M2.739,0A2.739,2.739,0,1,1,-2.739,0A2.739,2.739,0,1,1,2.739,0" fill="#4c78a8" stroke-width="2" opacity="1"/><path aria-label="経過年数 (年): 33; 生存確率 (%): 73.3; Strategy: ACWI-1: 対数正規分布 (為替あり); Year: 33; Survival Probability (%): 73.3" role="graphics-symbol" aria-roledescription="point" transform="translate(396,66.75)" d="M2.739,0A2.739,2.739,0,1,1,-2.739,0A2.739,2.739,0,1,1,2.739,0" fill="#4c78a8" stroke-width="2" opacity="1"/><path aria-label="経過年数 (年): 34; 生存確率 (%): 72.36; Strategy: ACWI-1: 対数正規分布 (為替あり); Year: 34; Survival Probability (%): 72.4" role="graphics-symbol" aria-roledescription="point" transform="translate(408.00000000000006,69.1)" d="M2.739,0A2.739,2.739,0,1,1,-2.739,0A2.739,2.739,0,1,1,2.739,0" fill="#4c78a8" stroke-width="2" opacity="1"/><path aria-label="経過年数 (年): 35; 生存確率 (%): 71.3; Strategy: ACWI-1: 対数正規分布 (為替あり); Year: 35; Survival Probability (%): 71.3" role="graphics-symbol" aria-roledescription="point" transform="translate(420,71.75000000000001)" d="M2.739,0A2.739,2.739,0,1,1,-2.739,0A2.739,2.739,0,1,1,2.739,0" fill="#4c78a8" stroke-width="2" opacity="1"/><path aria-label="経過年数 (年): 36; 生存確率 (%): 70.46; Strategy: ACWI-1: 対数正規分布 (為替あり); Year: 36; Survival Probability (%): 70.5" role="graphics-symbol" aria-roledescription="point" transform="translate(432,73.85000000000002)" d="M2.739,0A2.739,2.739,0,1,1,-2.739,0A2.739,2.739,0,1,1,2.739,0" fill="#4c78a8" stroke-width="2" opacity="1"/><path aria-label="経過年数 (年): 37; 生存確率 (%): 69.64; Strategy: ACWI-1: 対数正規分布 (為替あり); Year: 37; Survival Probability (%): 69.6" role="graphics-symbol" aria-roledescription="point" transform="translate(444,75.89999999999999)" d="M2.739,0A2.739,2.739,0,1,1,-2.739,0A2.739,2.739,0,1,1,2.739,0" fill="#4c78a8" stroke-width="2" opacity="1"/><path aria-label="経過年数 (年): 38; 生存確率 (%): 68.64; Strategy: ACWI-1: 対数正規分布 (為替あり); Year: 38; Survival Probability (%): 68.6" role="graphics-symbol" aria-roledescription="point" transform="translate(456,78.39999999999999)" d="M2.739,0A2.739,2.739,0,1,1,-2.739,0A2.739,2.739,0,1,1,2.739,0" fill="#4c78a8" stroke-width="2" opacity="1"/><path aria-label="経過年数 (年): 39; 生存確率 (%): 67.84; Strategy: ACWI-1: 対数正規分布 (為替あり); Year: 39; Survival Probability (%): 67.8" role="graphics-symbol" aria-roledescription="point" transform="translate(468,80.4)" d="M2.739,0A2.739,2.739,0,1,1,-2.739,0A2.739,2.739,0,1,1,2.739,0" fill="#4c78a8" stroke-width="2" opacity="1"/><path aria-label="経過年数 (年): 40; 生存確率 (%): 67.14; Strategy: ACWI-1: 対数正規分布 (為替あり); Year: 40; Survival Probability (%): 67.1" role="graphics-symbol" aria-roledescription="point" transform="translate(480,82.15)" d="M2.739,0A2.739,2.739,0,1,1,-2.739,0A2.739,2.739,0,1,1,2.739,0" fill="#4c78a8" stroke-width="2" opacity="1"/><path aria-label="経過年数 (年): 41; 生存確率 (%): 66.38; Strategy: ACWI-1: 対数正規分布 (為替あり); Year: 41; Survival Probability (%): 66.4" role="graphics-symbol" aria-roledescription="point" transform="translate(491.99999999999994,84.05000000000001)" d="M2.739,0A2.739,2.739,0,1,1,-2.739,0A2.739,2.739,0,1,1,2.739,0" fill="#4c78a8" stroke-width="2" opacity="1"/><path aria-label="経過年数 (年): 42; 生存確率 (%): 65.6; Strategy: ACWI-1: 対数正規分布 (為替あり); Year: 42; Survival Probability (%): 65.6" role="graphics-symbol" aria-roledescription="point" transform="translate(504,85.99999999999997)" d="M2.739,0A2.739,2.739,0,1,1,-2.739,0A2.739,2.739,0,1,1,2.739,0" fill="#4c78a8" stroke-width="2" opacity="1"/><path aria-label="経過年数 (年): 43; 生存確率 (%): 64.96; Strategy: ACWI-1: 対数正規分布 (為替あり); Year: 43; Survival Probability (%): 65.0" role="graphics-symbol" aria-roledescription="point" transform="translate(516,87.60000000000001)" d="M2.739,0A2.739,2.739,0,1,1,-2.739,0A2.739,2.739,0,1,1,2.739,0" fill="#4c78a8" stroke-width="2" opacity="1"/><path aria-label="経過年数 (年): 44; 生存確率 (%): 64.32; Strategy: ACWI-1: 対数正規分布 (為替あり); Year: 44; Survival Probability (%): 64.3" role="graphics-symbol" aria-roledescription="point" transform="translate(528,89.20000000000003)" d="M2.739,0A2.739,2.739,0,1,1,-2.739,0A2.739,2.739,0,1,1,2.739,0" fill="#4c78a8" stroke-width="2" opacity="1"/><path aria-label="経過年数 (年): 45; 生存確率 (%): 63.88; Strategy: ACWI-1: 対数正規分布 (為替あり); Year: 45; Survival Probability (%): 63.9" role="graphics-symbol" aria-roledescription="point" transform="translate(540,90.3)" d="M2.739,0A2.739,2.739,0,1,1,-2.739,0A2.739,2.739,0,1,1,2.739,0" fill="#4c78a8" stroke-width="2" opacity="1"/><path aria-label="経過年数 (年): 46; 生存確率 (%): 63.58; Strategy: ACWI-1: 対数正規分布 (為替あり); Year: 46; Survival Probability (%): 63.6" role="graphics-symbol" aria-roledescription="point" transform="translate(552,91.05)" d="M2.739,0A2.739,2.739,0,1,1,-2.739,0A2.739,2.739,0,1,1,2.739,0" fill="#4c78a8" stroke-width="2" opacity="1"/><path aria-label="経過年数 (年): 47; 生存確率 (%): 63.1; Strategy: ACWI-1: 対数正規分布 (為替あり); Year: 47; Survival Probability (%): 63.1" role="graphics-symbol" aria-roledescription="point" transform="translate(564,92.25)" d="M2.739,0A2.739,2.739,0,1,1,-2.739,0A2.739,2.739,0,1,1,2.739,0" fill="#4c78a8" stroke-width="2" opacity="1"/><path aria-label="経過年数 (年): 48; 生存確率 (%): 62.68; Strategy: ACWI-1: 対数正規分布 (為替あり); Year: 48; Survival Probability (%): 62.7" role="graphics-symbol" aria-roledescription="point" transform="translate(576,93.3)" d="M2.739,0A2.739,2.739,0,1,1,-2.739,0A2.739,2.739,0,1,1,2.739,0" fill="#4c78a8" stroke-width="2" opacity="1"/><path aria-label="経過年数 (年): 49; 生存確率 (%): 62.24; Strategy: ACWI-1: 対数正規分布 (為替あり); Year: 49; Survival Probability (%): 62.2" role="graphics-symbol" aria-roledescription="point" transform="translate(588,94.4)" d="M2.739,0A2.739,2.739,0,1,1,-2.739,0A2.739,2.739,0,1,1,2.739,0" fill="#4c78a8" stroke-width="2" opacity="1"/><path aria-label="経過年数 (年): 50; 生存確率 (%): 61.94; Strategy: ACWI-1: 対数正規分布 (為替あり); Year: 50; Survival Probability (%): 61.9" role="graphics-symbol" aria-roledescription="point" transform="translate(600,95.15)" d="M2.739,0A2.739,2.739,0,1,1,-2.739,0A2.739,2.739,0,1,1,2.739,0" fill="#4c78a8" stroke-width="2" opacity="1"/><path aria-label="経過年数 (年): 0; 生存確率 (%): 100; Strategy: ACWI-2: Johnson SU分布 (為替あり); Year: 0; Survival Probability (%): 100.0" role="graphics-symbol" aria-roledescription="point" transform="translate(0,0)" d="M2.739,0A2.739,2.739,0,1,1,-2.739,0A2.739,2.739,0,1,1,2.739,0" fill="#f58518" stroke-width="2" opacity="1"/><path aria-label="経過年数 (年): 1; 生存確率 (%): 100; Strategy: ACWI-2: Johnson SU分布 (為替あり); Year: 1; Survival Probability (%): 100.0" role="graphics-symbol" aria-roledescription="point" transform="translate(12,0)" d="M2.739,0A2.739,2.739,0,1,1,-2.739,0A2.739,2.739,0,1,1,2.739,0" fill="#f58518" stroke-width="2" opacity="1"/><path aria-label="経過年数 (年): 2; 生存確率 (%): 100; Strategy: ACWI-2: Johnson SU分布 (為替あり); Year: 2; Survival Probability (%): 100.0" role="graphics-symbol" aria-roledescription="point" transform="translate(24,0)" d="M2.739,0A2.739,2.739,0,1,1,-2.739,0A2.739,2.739,0,1,1,2.739,0" fill="#f58518" stroke-width="2" opacity="1"/><path aria-label="経過年数 (年): 3; 生存確率 (%): 100; Strategy: ACWI-2: Johnson SU分布 (為替あり); Year: 3; Survival Probability (%): 100.0" role="graphics-symbol" aria-roledescription="point" transform="translate(36,0)" d="M2.739,0A2.739,2.739,0,1,1,-2.739,0A2.739,2.739,0,1,1,2.739,0" fill="#f58518" stroke-width="2" opacity="1"/><path aria-label="経過年数 (年): 4; 生存確率 (%): 100; Strategy: ACWI-2: Johnson SU分布 (為替あり); Year: 4; Survival Probability (%): 100.0" role="graphics-symbol" aria-roledescription="point" transform="translate(48,0)" d="M2.739,0A2.739,2.739,0,1,1,-2.739,0A2.739,2.739,0,1,1,2.739,0" fill="#f58518" stroke-width="2" opacity="1"/><path aria-label="経過年数 (年): 5; 生存確率 (%): 100; Strategy: ACWI-2: Johnson SU分布 (為替あり); Year: 5; Survival Probability (%): 100.0" role="graphics-symbol" aria-roledescription="point" transform="translate(60,0)" d="M2.739,0A2.739,2.739,0,1,1,-2.739,0A2.739,2.739,0,1,1,2.739,0" fill="#f58518" stroke-width="2" opacity="1"/><path aria-label="経過年数 (年): 6; 生存確率 (%): 100; Strategy: ACWI-2: Johnson SU分布 (為替あり); Year: 6; Survival Probability (%): 100.0" role="graphics-symbol" aria-roledescription="point" transform="translate(72,0)" d="M2.739,0A2.739,2.739,0,1,1,-2.739,0A2.739,2.739,0,1,1,2.739,0" fill="#f58518" stroke-width="2" opacity="1"/><path aria-label="経過年数 (年): 7; 生存確率 (%): 100; Strategy: ACWI-2: Johnson SU分布 (為替あり); Year: 7; Survival Probability (%): 100.0" role="graphics-symbol" aria-roledescription="point" transform="translate(84.00000000000001,0)" d="M2.739,0A2.739,2.739,0,1,1,-2.739,0A2.739,2.739,0,1,1,2.739,0" fill="#f58518" stroke-width="2" opacity="1"/><path aria-label="経過年数 (年): 8; 生存確率 (%): 100; Strategy: ACWI-2: Johnson SU分布 (為替あり); Year: 8; Survival Probability (%): 100.0" role="graphics-symbol" aria-roledescription="point" transform="translate(96,0)" d="M2.739,0A2.739,2.739,0,1,1,-2.739,0A2.739,2.739,0,1,1,2.739,0" fill="#f58518" stroke-width="2" opacity="1"/><path aria-label="経過年数 (年): 9; 生存確率 (%): 99.96; Strategy: ACWI-2: Johnson SU分布 (為替あり); Year: 9; Survival Probability (%): 100.0" role="graphics-symbol" aria-roledescription="point" transform="translate(108,0.09999999999998899)" d="M2.739,0A2.739,2.739,0,1,1,-2.739,0A2.739,2.739,0,1,1,2.739,0" fill="#f58518" stroke-width="2" opacity="1"/><path aria-label="経過年数 (年): 10; 生存確率 (%): 99.86; Strategy: ACWI-2: Johnson SU分布 (為替あり); Year: 10; Survival Probability (%): 99.9" role="graphics-symbol" aria-roledescription="point" transform="translate(120,0.3499999999999892)" d="M2.739,0A2.739,2.739,0,1,1,-2.739,0A2.739,2.739,0,1,1,2.739,0" fill="#f58518" stroke-width="2" opacity="1"/><path aria-label="経過年数 (年): 11; 生存確率 (%): 99.58; Strategy: ACWI-2: Johnson SU分布 (為替あり); Year: 11; Survival Probability (%): 99.6" role="graphics-symbol" aria-roledescription="point" transform="translate(132,1.0499999999999954)" d="M2.739,0A2.739,2.739,0,1,1,-2.739,0A2.739,2.739,0,1,1,2.739,0" fill="#f58518" stroke-width="2" opacity="1"/><path aria-label="経過年数 (年): 12; 生存確率 (%): 99.2; Strategy: ACWI-2: Johnson SU分布 (為替あり); Year: 12; Survival Probability (%): 99.2" role="graphics-symbol" aria-roledescription="point" transform="translate(144,2.0000000000000018)" d="M2.739,0A2.739,2.739,0,1,1,-2.739,0A2.739,2.739,0,1,1,2.739,0" fill="#f58518" stroke-width="2" opacity="1"/><path aria-label="経過年数 (年): 13; 生存確率 (%): 98.74; Strategy: ACWI-2: Johnson SU分布 (為替あり); Year: 13; Survival Probability (%): 98.7" role="graphics-symbol" aria-roledescription="point" transform="translate(156,3.149999999999986)" d="M2.739,0A2.739,2.739,0,1,1,-2.739,0A2.739,2.739,0,1,1,2.739,0" fill="#f58518" stroke-width="2" opacity="1"/><path aria-label="経過年数 (年): 14; 生存確率 (%): 98.08; Strategy: ACWI-2: Johnson SU分布 (為替あり); Year: 14; Survival Probability (%): 98.1" role="graphics-symbol" aria-roledescription="point" transform="translate(168.00000000000003,4.799999999999999)" d="M2.739,0A2.739,2.739,0,1,1,-2.739,0A2.739,2.739,0,1,1,2.739,0" fill="#f58518" stroke-width="2" opacity="1"/><path aria-label="経過年数 (年): 15; 生存確率 (%): 97.1; Strategy: ACWI-2: Johnson SU分布 (為替あり); Year: 15; Survival Probability (%): 97.1" role="graphics-symbol" aria-roledescription="point" transform="translate(180,7.250000000000006)" d="M2.739,0A2.739,2.739,0,1,1,-2.739,0A2.739,2.739,0,1,1,2.739,0" fill="#f58518" stroke-width="2" opacity="1"/><path aria-label="経過年数 (年): 16; 生存確率 (%): 96.04; Strategy: ACWI-2: Johnson SU分布 (為替あり); Year: 16; Survival Probability (%): 96.0" role="graphics-symbol" aria-roledescription="point" transform="translate(192,9.899999999999991)" d="M2.739,0A2.739,2.739,0,1,1,-2.739,0A2.739,2.739,0,1,1,2.739,0" fill="#f58518" stroke-width="2" opacity="1"/><path aria-label="経過年数 (年): 17; 生存確率 (%): 94.88; Strategy: ACWI-2: Johnson SU分布 (為替あり); Year: 17; Survival Probability (%): 94.9" role="graphics-symbol" aria-roledescription="point" transform="translate(204.00000000000003,12.800000000000006)" d="M2.739,0A2.739,2.739,0,1,1,-2.739,0A2.739,2.739,0,1,1,2.739,0" fill="#f58518" stroke-width="2" opacity="1"/><path aria-label="経過年数 (年): 18; 生存確率 (%): 93.58; Strategy: ACWI-2: Johnson SU分布 (為替あり); Year: 18; Survival Probability (%): 93.6" role="graphics-symbol" aria-roledescription="point" transform="translate(216,16.050000000000008)" d="M2.739,0A2.739,2.739,0,1,1,-2.739,0A2.739,2.739,0,1,1,2.739,0" fill="#f58518" stroke-width="2" opacity="1"/><path aria-label="経過年数 (年): 19; 生存確率 (%): 92.4; Strategy: ACWI-2: Johnson SU分布 (為替あり); Year: 19; Survival Probability (%): 92.4" role="graphics-symbol" aria-roledescription="point" transform="translate(228,18.99999999999999)" d="M2.739,0A2.739,2.739,0,1,1,-2.739,0A2.739,2.739,0,1,1,2.739,0" fill="#f58518" stroke-width="2" opacity="1"/><path aria-label="経過年数 (年): 20; 生存確率 (%): 91.16; Strategy: ACWI-2: Johnson SU分布 (為替あり); Year: 20; Survival Probability (%): 91.2" role="graphics-symbol" aria-roledescription="point" transform="translate(240,22.10000000000001)" d="M2.739,0A2.739,2.739,0,1,1,-2.739,0A2.739,2.739,0,1,1,2.739,0" fill="#f58518" stroke-width="2" opacity="1"/><path aria-label="経過年数 (年): 21; 生存確率 (%): 89.8; Strategy: ACWI-2: Johnson SU分布 (為替あり); Year: 21; Survival Probability (%): 89.8" role="graphics-symbol" aria-roledescription="point" transform="translate(252,25.499999999999996)" d="M2.739,0A2.739,2.739,0,1,1,-2.739,0A2.739,2.739,0,1,1,2.739,0" fill="#f58518" stroke-width="2" opacity="1"/><path aria-label="経過年数 (年): 22; 生存確率 (%): 88.42; Strategy: ACWI-2: Johnson SU分布 (為替あり); Year: 22; Survival Probability (%): 88.4" role="graphics-symbol" aria-roledescription="point" transform="translate(264,28.950000000000003)" d="M2.739,0A2.739,2.739,0,1,1,-2.739,0A2.739,2.739,0,1,1,2.739,0" fill="#f58518" stroke-width="2" opacity="1"/><path aria-label="経過年数 (年): 23; 生存確率 (%): 87.06; Strategy: ACWI-2: Johnson SU分布 (為替あり); Year: 23; Survival Probability (%): 87.1" role="graphics-symbol" aria-roledescription="point" transform="translate(276,32.34999999999999)" d="M2.739,0A2.739,2.739,0,1,1,-2.739,0A2.739,2.739,0,1,1,2.739,0" fill="#f58518" stroke-width="2" opacity="1"/><path aria-label="経過年数 (年): 24; 生存確率 (%): 85.76; Strategy: ACWI-2: Johnson SU分布 (為替あり); Year: 24; Survival Probability (%): 85.8" role="graphics-symbol" aria-roledescription="point" transform="translate(288,35.599999999999994)" d="M2.739,0A2.739,2.739,0,1,1,-2.739,0A2.739,2.739,0,1,1,2.739,0" fill="#f58518" stroke-width="2" opacity="1"/><path aria-label="経過年数 (年): 25; 生存確率 (%): 84.14; Strategy: ACWI-2: Johnson SU分布 (為替あり); Year: 25; Survival Probability (%): 84.1" role="graphics-symbol" aria-roledescription="point" transform="translate(300,39.64999999999999)" d="M2.739,0A2.739,2.739,0,1,1,-2.739,0A2.739,2.739,0,1,1,2.739,0" fill="#f58518" stroke-width="2" opacity="1"/><path aria-label="経過年数 (年): 26; 生存確率 (%): 82.64; Strategy: ACWI-2: Johnson SU分布 (為替あり); Year: 26; Survival Probability (%): 82.6" role="graphics-symbol" aria-roledescription="point" transform="translate(312,43.39999999999999)" d="M2.739,0A2.739,2.739,0,1,1,-2.739,0A2.739,2.739,0,1,1,2.739,0" fill="#f58518" stroke-width="2" opacity="1"/><path aria-label="経過年数 (年): 27; 生存確率 (%): 81.36; Strategy: ACWI-2: Johnson SU分布 (為替あり); Year: 27; Survival Probability (%): 81.4" role="graphics-symbol" aria-roledescription="point" transform="translate(324,46.6)" d="M2.739,0A2.739,2.739,0,1,1,-2.739,0A2.739,2.739,0,1,1,2.739,0" fill="#f58518" stroke-width="2" opacity="1"/><path aria-label="経過年数 (年): 28; 生存確率 (%): 79.74; Strategy: ACWI-2: Johnson SU分布 (為替あり); Year: 28; Survival Probability (%): 79.7" role="graphics-symbol" aria-roledescription="point" transform="translate(336.00000000000006,50.65)" d="M2.739,0A2.739,2.739,0,1,1,-2.739,0A2.739,2.739,0,1,1,2.739,0" fill="#f58518" stroke-width="2" opacity="1"/><path aria-label="経過年数 (年): 29; 生存確率 (%): 78.24; Strategy: ACWI-2: Johnson SU分布 (為替あり); Year: 29; Survival Probability (%): 78.2" role="graphics-symbol" aria-roledescription="point" transform="translate(348,54.400000000000006)" d="M2.739,0A2.739,2.739,0,1,1,-2.739,0A2.739,2.739,0,1,1,2.739,0" fill="#f58518" stroke-width="2" opacity="1"/><path aria-label="経過年数 (年): 30; 生存確率 (%): 77.02; Strategy: ACWI-2: Johnson SU分布 (為替あり); Year: 30; Survival Probability (%): 77.0" role="graphics-symbol" aria-roledescription="point" transform="translate(360,57.45)" d="M2.739,0A2.739,2.739,0,1,1,-2.739,0A2.739,2.739,0,1,1,2.739,0" fill="#f58518" stroke-width="2" opacity="1"/><path aria-label="経過年数 (年): 31; 生存確率 (%): 75.78; Strategy: ACWI-2: Johnson SU分布 (為替あり); Year: 31; Survival Probability (%): 75.8" role="graphics-symbol" aria-roledescription="point" transform="translate(372,60.54999999999999)" d="M2.739,0A2.739,2.739,0,1,1,-2.739,0A2.739,2.739,0,1,1,2.739,0" fill="#f58518" stroke-width="2" opacity="1"/><path aria-label="経過年数 (年): 32; 生存確率 (%): 74.66; Strategy: ACWI-2: Johnson SU分布 (為替あり); Year: 32; Survival Probability (%): 74.7" role="graphics-symbol" aria-roledescription="point" transform="translate(384,63.34999999999996)" d="M2.739,0A2.739,2.739,0,1,1,-2.739,0A2.739,2.739,0,1,1,2.739,0" fill="#f58518" stroke-width="2" opacity="1"/><path aria-label="経過年数 (年): 33; 生存確率 (%): 73.68; Strategy: ACWI-2: Johnson SU分布 (為替あり); Year: 33; Survival Probability (%): 73.7" role="graphics-symbol" aria-roledescription="point" transform="translate(396,65.79999999999997)" d="M2.739,0A2.739,2.739,0,1,1,-2.739,0A2.739,2.739,0,1,1,2.739,0" fill="#f58518" stroke-width="2" opacity="1"/><path aria-label="経過年数 (年): 34; 生存確率 (%): 72.68; Strategy: ACWI-2: Johnson SU分布 (為替あり); Year: 34; Survival Probability (%): 72.7" role="graphics-symbol" aria-roledescription="point" transform="translate(408.00000000000006,68.29999999999997)" d="M2.739,0A2.739,2.739,0,1,1,-2.739,0A2.739,2.739,0,1,1,2.739,0" fill="#f58518" stroke-width="2" opacity="1"/><path aria-label="経過年数 (年): 35; 生存確率 (%): 71.74; Strategy: ACWI-2: Johnson SU分布 (為替あり); Year: 35; Survival Probability (%): 71.7" role="graphics-symbol" aria-roledescription="point" transform="translate(420,70.64999999999999)" d="M2.739,0A2.739,2.739,0,1,1,-2.739,0A2.739,2.739,0,1,1,2.739,0" fill="#f58518" stroke-width="2" opacity="1"/><path aria-label="経過年数 (年): 36; 生存確率 (%): 70.78; Strategy: ACWI-2: Johnson SU分布 (為替あり); Year: 36; Survival Probability (%): 70.8" role="graphics-symbol" aria-roledescription="point" transform="translate(432,73.05)" d="M2.739,0A2.739,2.739,0,1,1,-2.739,0A2.739,2.739,0,1,1,2.739,0" fill="#f58518" stroke-width="2" opacity="1"/><path aria-label="経過年数 (年): 37; 生存確率 (%): 69.96; Strategy: ACWI-2: Johnson SU分布 (為替あり); Year: 37; Survival Probability (%): 70.0" role="graphics-symbol" aria-roledescription="point" transform="translate(444,75.10000000000002)" d="M2.739,0A2.739,2.739,0,1,1,-2.739,0A2.739,2.739,0,1,1,2.739,0" fill="#f58518" stroke-width="2" opacity="1"/><path aria-label="経過年数 (年): 38; 生存確率 (%): 69.04; Strategy: ACWI-2: Johnson SU分布 (為替あり); Year: 38; Survival Probability (%): 69.0" role="graphics-symbol" aria-roledescription="point" transform="translate(456,77.39999999999999)" d="M2.739,0A2.739,2.739,0,1,1,-2.739,0A2.739,2.739,0,1,1,2.739,0" fill="#f58518" stroke-width="2" opacity="1"/><path aria-label="経過年数 (年): 39; 生存確率 (%): 68.2; Strategy: ACWI-2: Johnson SU分布 (為替あり); Year: 39; Survival Probability (%): 68.2" role="graphics-symbol" aria-roledescription="point" transform="translate(468,79.49999999999999)" d="M2.739,0A2.739,2.739,0,1,1,-2.739,0A2.739,2.739,0,1,1,2.739,0" fill="#f58518" stroke-width="2" opacity="1"/><path aria-label="経過年数 (年): 40; 生存確率 (%): 67.42; Strategy: ACWI-2: Johnson SU分布 (為替あり); Year: 40; Survival Probability (%): 67.4" role="graphics-symbol" aria-roledescription="point" transform="translate(480,81.44999999999999)" d="M2.739,0A2.739,2.739,0,1,1,-2.739,0A2.739,2.739,0,1,1,2.739,0" fill="#f58518" stroke-width="2" opacity="1"/><path aria-label="経過年数 (年): 41; 生存確率 (%): 66.72; Strategy: ACWI-2: Johnson SU分布 (為替あり); Year: 41; Survival Probability (%): 66.7" role="graphics-symbol" aria-roledescription="point" transform="translate(491.99999999999994,83.2)" d="M2.739,0A2.739,2.739,0,1,1,-2.739,0A2.739,2.739,0,1,1,2.739,0" fill="#f58518" stroke-width="2" opacity="1"/><path aria-label="経過年数 (年): 42; 生存確率 (%): 66.18; Strategy: ACWI-2: Johnson SU分布 (為替あり); Year: 42; Survival Probability (%): 66.2" role="graphics-symbol" aria-roledescription="point" transform="translate(504,84.54999999999998)" d="M2.739,0A2.739,2.739,0,1,1,-2.739,0A2.739,2.739,0,1,1,2.739,0" fill="#f58518" stroke-width="2" opacity="1"/><path aria-label="経過年数 (年): 43; 生存確率 (%): 65.88; Strategy: ACWI-2: Johnson SU分布 (為替あり); Year: 43; Survival Probability (%): 65.9" role="graphics-symbol" aria-roledescription="point" transform="translate(516,85.29999999999998)" d="M2.739,0A2.739,2.739,0,1,1,-2.739,0A2.739,2.739,0,1,1,2.739,0" fill="#f58518" stroke-width="2" opacity="1"/><path aria-label="経過年数 (年): 44; 生存確率 (%): 65.3; Strategy: ACWI-2: Johnson SU分布 (為替あり); Year: 44; Survival Probability (%): 65.3" role="graphics-symbol" aria-roledescription="point" transform="translate(528,86.75)" d="M2.739,0A2.739,2.739,0,1,1,-2.739,0A2.739,2.739,0,1,1,2.739,0" fill="#f58518" stroke-width="2" opacity="1"/><path aria-label="経過年数 (年): 45; 生存確率 (%): 64.72; Strategy: ACWI-2: Johnson SU分布 (為替あり); Year: 45; Survival Probability (%): 64.7" role="graphics-symbol" aria-roledescription="point" transform="translate(540,88.2)" d="M2.739,0A2.739,2.739,0,1,1,-2.739,0A2.739,2.739,0,1,1,2.739,0" fill="#f58518" stroke-width="2" opacity="1"/><path aria-label="経過年数 (年): 46; 生存確率 (%): 64.08; Strategy: ACWI-2: Johnson SU分布 (為替あり); Year: 46; Survival Probability (%): 64.1" role="graphics-symbol" aria-roledescription="point" transform="translate(552,89.8)" d="M2.739,0A2.739,2.739,0,1,1,-2.739,0A2.739,2.739,0,1,1,2.739,0" fill="#f58518" stroke-width="2" opacity="1"/><path aria-label="経過年数 (年): 47; 生存確率 (%): 63.56; Strategy: ACWI-2: Johnson SU分布 (為替あり); Year: 47; Survival Probability (%): 63.6" role="graphics-symbol" aria-roledescription="point" transform="translate(564,91.09999999999998)" d="M2.739,0A2.739,2.739,0,1,1,-2.739,0A2.739,2.739,0,1,1,2.739,0" fill="#f58518" stroke-width="2" opacity="1"/><path aria-label="経過年数 (年): 48; 生存確率 (%): 63.02; Strategy: ACWI-2: Johnson SU分布 (為替あり); Year: 48; Survival Probability (%): 63.0" role="graphics-symbol" aria-roledescription="point" transform="translate(576,92.45)" d="M2.739,0A2.739,2.739,0,1,1,-2.739,0A2.739,2.739,0,1,1,2.739,0" fill="#f58518" stroke-width="2" opacity="1"/><path aria-label="経過年数 (年): 49; 生存確率 (%): 62.54; Strategy: ACWI-2: Johnson SU分布 (為替あり); Year: 49; Survival Probability (%): 62.5" role="graphics-symbol" aria-roledescription="point" transform="translate(588,93.65)" d="M2.739,0A2.739,2.739,0,1,1,-2.739,0A2.739,2.739,0,1,1,2.739,0" fill="#f58518" stroke-width="2" opacity="1"/><path aria-label="経過年数 (年): 50; 生存確率 (%): 62.2; Strategy: ACWI-2: Johnson SU分布 (為替あり); Year: 50; Survival Probability (%): 62.2" role="graphics-symbol" aria-roledescription="point" transform="translate(600,94.5)" d="M2.739,0A2.739,2.739,0,1,1,-2.739,0A2.739,2.739,0,1,1,2.739,0" fill="#f58518" stroke-width="2" opacity="1"/></g><g class="mark-group role-legend" role="graphics-symbol" aria-roledescription="legend" aria-label="Symbol legend titled '戦略' for fill color and stroke color with 2 values: ACWI-1: 対数正規分布 (為替あり), ACWI-2: Johnson SU分布 (為替あり)"><g transform="translate(0,-47)"><path class="background" aria-hidden="true" d="M0,0h353v29h-353Z" pointer-events="none"/><g><g class="mark-group role-legend-entry"><g transform="translate(0,16)"><path class="background" aria-hidden="true" d="M0,0h0v0h0Z" pointer-events="none"/><g><g class="mark-group role-scope" role="graphics-object" aria-roledescription="group mark container"><g transform="translate(0,0.25)"><path class="background" aria-hidden="true" d="M0,0h165.9951171875v12.5h-165.9951171875Z" pointer-events="none" opacity="1"/><g><g class="mark-symbol role-legend-symbol" pointer-events="none"><path transform="translate(6,6)" d="M5,0A5,5,0,1,1,-5,0A5,5,0,1,1,5,0" fill="#4c78a8" stroke="#4c78a8" stroke-width="1.5" opacity="1"/></g><g class="mark-text role-legend-label" pointer-events="none"><text text-anchor="start" transform="translate(16,9)" font-family="sans-serif" font-size="10px" fill="#000" opacity="1">ACWI-1: 対数正規分布 (為替あり)</text></g></g><path class="foreground" aria-hidden="true" d="" pointer-events="none" display="none"/></g><g transform="translate(177,0.25)"><path class="background" aria-hidden="true" d="M0,0h176v12.5h-176Z" pointer-events="none" opacity="1"/><g><g class="mark-symbol role-legend-symbol" pointer-events="none"><path transform="translate(6,6)" d="M5,0A5,5,0,1,1,-5,0A5,5,0,1,1,5,0" fill="#f58518" stroke="#f58518" stroke-width="1.5" opacity="1"/></g><g class="mark-text role-legend-label" pointer-events="none"><text text-anchor="start" transform="translate(16,9)" font-family="sans-serif" font-size="10px" fill="#000" opacity="1">ACWI-2: Johnson SU分布 (為替…</text></g></g><path class="foreground" aria-hidden="true" d="" pointer-events="none" display="none"/></g></g></g><path class="foreground" aria-hidden="true" d="" pointer-events="none" display="none"/></g></g><g class="mark-text role-legend-title" pointer-events="none"><text text-anchor="start" transform="translate(0,9)" font-family="sans-serif" font-size="11px" font-weight="bold" fill="#000" opacity="1">戦略</text></g></g><path class="foreground" aria-hidden="true" d="" pointer-events="none" display="none"/></g></g><g class="mark-group role-title"><g transform="translate(300,-64)"><path class="background" aria-hidden="true" d="M0,0h0v0h0Z" pointer-events="none"/><g><g class="mark-text role-title-text" role="graphics-symbol" aria-roledescription="title" aria-label="Title text '経過年数と生存確率の推移'" pointer-events="none"><text text-anchor="middle" transform="translate(0,10)" font-family="sans-serif" font-size="13px" font-weight="bold" fill="#000" opacity="1">経過年数と生存確率の推移</text></g></g><path class="foreground" aria-hidden="true" d="" pointer-events="none" display="none"/></g></g></g><path class="foreground" aria-hidden="true" d="" display="none"/></g></g></g><defs><clipPath id="clip3"><rect x="0" y="0" width="600" height="250"/></clipPath><clipPath id="clip4"><rect x="0" y="0" width="600" height="250"/></clipPath><clipPath id="clip5"><rect x="0" y="0" width="600" height="250"/></clipPath></defs></svg>