<svg xmlns="http://www.w3.org/2000/svg" xmlns:xlink="http://www.w3.org/1999/xlink" version="1.1" class="marks" width="650" height="356" viewBox="0 0 650 356"><rect width="650" height="356" fill="white"/><g fill="none" stroke-miterlimit="10" transform="translate(44,69)"><g class="mark-group role-frame root" role="graphics-object" aria-roledescription="group mark container"><g transform="translate(0,0)"><path class="background" aria-hidden="true" d="M0.5,0.5h600v250h-600Z" stroke="#ddd"/><g><g class="mark-group role-axis" aria-hidden="true"><g transform="translate(0.5,250.5)"><path class="background" aria-hidden="true" d="M0,0h0v0h0Z" pointer-events="none"/><g><g class="mark-rule role-axis-grid" pointer-events="none"><line transform="translate(0,-250)" x2="0" y2="250" stroke="#ddd" stroke-width="1" opacity="1"/><line transform="translate(60,-250)" x2="0" y2="250" stroke="#ddd" stroke-width="1" opacity="1"/><line transform="translate(120,-250)" x2="0" y2="250" stroke="#ddd" stroke-width="1" opacity="1"/><line transform="translate(180,-250)" x2="0" y2="250" stroke="#ddd" stroke-width="1" opacity="1"/><line transform="translate(240,-250)" x2="0" y2="250" stroke="#ddd" stroke-width="1" opacity="1"/><line transform="translate(300,-250)" x2="0" y2="250" stroke="#ddd" stroke-width="1" opacity="1"/><line transform="translate(360,-250)" x2="0" y2="250" stroke="#ddd" stroke-width="1" opacity="1"/><line transform="translate(420,-250)" x2="0" y2="250" stroke="#ddd" stroke-width="1" opacity="1"/><line transform="translate(480,-250)" x2="0" y2="250" stroke="#ddd" stroke-width="1" opacity="1"/><line transform="translate(540,-250)" x2="0" y2="250" stroke="#ddd" stroke-width="1" opacity="1"/><line transform="translate(600,-250)" x2="0" y2="250" stroke="#ddd" stroke-width="1" opacity="1"/></g></g><path class="foreground" aria-hidden="true" d="" pointer-events="none" display="none"/></g></g><g class="mark-group role-axis" aria-hidden="true"><g transform="translate(0.5,0.5)"><path class="background" aria-hidden="true" d="M0,0h0v0h0Z" pointer-events="none"/><g><g class="mark-rule role-axis-grid" pointer-events="none"><line transform="translate(0,250)" x2="600" y2="0" stroke="#ddd" stroke-width="1" opacity="1"/><line transform="translate(0,200)" x2="600" y2="0" stroke="#ddd" stroke-width="1" opacity="1"/><line transform="translate(0,150)" x2="600" y2="0" stroke="#ddd" stroke-width="1" opacity="1"/><line transform="translate(0,100)" x2="600" y2="0" stroke="#ddd" stroke-width="1" opacity="1"/><line transform="translate(0,50)" x2="600" y2="0" stroke="#ddd" stroke-width="1" opacity="1"/><line transform="translate(0,0)" x2="600" y2="0" stroke="#ddd" stroke-width="1" opacity="1"/></g></g><path class="foreground" aria-hidden="true" d="" pointer-events="none" display="none"/></g></g><g class="mark-group role-axis" role="graphics-symbol" aria-roledescription="axis" aria-label="X-axis titled '経過年数 (年)' for a linear scale with values from 0 to 50"><g transform="translate(0.5,250.5)"><path class="background" aria-hidden="true" d="M0,0h0v0h0Z" pointer-events="none"/><g><g class="mark-rule role-axis-tick" pointer-events="none"><line transform="translate(0,0)" x2="0" y2="5" stroke="#888" stroke-width="1" opacity="1"/><line transform="translate(60,0)" x2="0" y2="5" stroke="#888" stroke-width="1" opacity="1"/><line transform="translate(120,0)" x2="0" y2="5" stroke="#888" stroke-width="1" opacity="1"/><line transform="translate(180,0)" x2="0" y2="5" stroke="#888" stroke-width="1" opacity="1"/><line transform="translate(240,0)" x2="0" y2="5" stroke="#888" stroke-width="1" opacity="1"/><line transform="translate(300,0)" x2="0" y2="5" stroke="#888" stroke-width="1" opacity="1"/><line transform="translate(360,0)" x2="0" y2="5" stroke="#888" stroke-width="1" opacity="1"/><line transform="translate(420,0)" x2="0" y2="5" stroke="#888" stroke-width="1" opacity="1"/><line transform="translate(480,0)" x2="0" y2="5" stroke="#888" stroke-width="1" opacity="1"/><line transform="translate(540,0)" x2="0" y2="5" stroke="#888" stroke-width="1" opacity="1"/><line transform="translate(600,0)" x2="0" y2="5" stroke="#888" stroke-width="1" opacity="1"/></g><g class="mark-text role-axis-label" pointer-events="none"><text text-anchor="start" transform="translate(0,15)" font-family="sans-serif" font-size="10px" fill="#000" opacity="1">0</text><text text-anchor="middle" transform="translate(60,15)" font-family="sans-serif" font-size="10px" fill="#000" opacity="1">5</text><text text-anchor="middle" transform="translate(120,15)" font-family="sans-serif" font-size="10px" fill="#000" opacity="1">10</text><text text-anchor="middle" transform="translate(180,15)" font-family="sans-serif" font-size="10px" fill="#000" opacity="1">15</text><text text-anchor="middle" transform="translate(240,15)" font-family="sans-serif" font-size="10px" fill="#000" opacity="1">20</text><text text-anchor="middle" transform="translate(300,15)" font-family="sans-serif" font-size="10px" fill="#000" opacity="1">25</text><text text-anchor="middle" transform="translate(360,15)" font-family="sans-serif" font-size="10px" fill="#000" opacity="1">30</text><text text-anchor="middle" transform="translate(420,15)" font-family="sans-serif" font-size="10px" fill="#000" opacity="1">35</text><text text-anchor="middle" transform="translate(480,15)" font-family="sans-serif" font-size="10px" fill="#000" opacity="1">40</text><text text-anchor="middle" transform="translate(540,15)" font-family="sans-serif" font-size="10px" fill="#000" opacity="1">45</text><text text-anchor="end" transform="translate(600,15)" font-family="sans-serif" font-size="10px" fill="#000" opacity="1">50</text></g><g class="mark-rule role-axis-domain" pointer-events="none"><line transform="translate(0,0)" x2="600" y2="0" stroke="#888" stroke-width="1" opacity="1"/></g><g class="mark-text role-axis-title" pointer-events="none"><text text-anchor="middle" transform="translate(300,30)" font-family="sans-serif" font-size="11px" font-weight="bold" fill="#000" opacity="1">経過年数 (年)</text></g></g><path class="foreground" aria-hidden="true" d="" pointer-events="none" display="none"/></g></g><g class="mark-group role-axis" role="graphics-symbol" aria-roledescription="axis" aria-label="Y-axis titled '生存確率 (%)' for a linear scale with values from 0 to 100"><g transform="translate(0.5,0.5)"><path class="background" aria-hidden="true" d="M0,0h0v0h0Z" pointer-events="none"/><g><g class="mark-rule role-axis-tick" pointer-events="none"><line transform="translate(0,250)" x2="-5" y2="0" stroke="#888" stroke-width="1" opacity="1"/><line transform="translate(0,200)" x2="-5" y2="0" stroke="#888" stroke-width="1" opacity="1"/><line transform="translate(0,150)" x2="-5" y2="0" stroke="#888" stroke-width="1" opacity="1"/><line transform="translate(0,100)" x2="-5" y2="0" stroke="#888" stroke-width="1" opacity="1"/><line transform="translate(0,50)" x2="-5" y2="0" stroke="#888" stroke-width="1" opacity="1"/><line transform="translate(0,0)" x2="-5" y2="0" stroke="#888" stroke-width="1" opacity="1"/></g><g class="mark-text role-axis-label" pointer-events="none"><text text-anchor="end" transform="translate(-7,253)" font-family="sans-serif" font-size="10px" fill="#000" opacity="1">0</text><text text-anchor="end" transform="translate(-7,203)" font-family="sans-serif" font-size="10px" fill="#000" opacity="1">20</text><text text-anchor="end" transform="translate(-7,153)" font-family="sans-serif" font-size="10px" fill="#000" opacity="1">40</text><text text-anchor="end" transform="translate(-7,103)" font-family="sans-serif" font-size="10px" fill="#000" opacity="1">60</text><text text-anchor="end" transform="translate(-7,52.999999999999986)" font-family="sans-serif" font-size="10px" fill="#000" opacity="1">80</text><text text-anchor="end" transform="translate(-7,3)" font-family="sans-serif" font-size="10px" fill="#000" opacity="1">100</text></g><g class="mark-rule role-axis-domain" pointer-events="none"><line transform="translate(0,250)" x2="0" y2="-250" stroke="#888" stroke-width="1" opacity="1"/></g><g class="mark-text role-axis-title" pointer-events="none"><text text-anchor="middle" transform="translate(-27.6845703125,125) rotate(-90) translate(0,-2)" font-family="sans-serif" font-size="11px" font-weight="bold" fill="#000" opacity="1">生存確率 (%)</text></g></g><path class="foreground" aria-hidden="true" d="" pointer-events="none" display="none"/></g></g><g class="mark-group role-scope layer_0_pathgroup" role="graphics-object" aria-roledescription="group mark container"><g transform="translate(0,0)"><path class="background" aria-hidden="true" d="M0,0h600v250h-600Z"/><g><g class="mark-line role-mark layer_0_marks" clip-path="url(#clip3)" role="graphics-object" aria-roledescription="line mark container"><path aria-label="経過年数 (年): 0; 生存確率 (%): 100; Strategy: ACWI-1: 対数正規分布 (為替あり); Year: 0; Survival Probability (%): 100.0" role="graphics-symbol" aria-roledescription="line mark" d="M0,0L12,0L24,0L36,0L48,0L60,0L72,0L84,0L96,0.05L108,0.1L120,0.4L132,0.65L144,1.9L156,3L168,4.8L180,6.8L192,9.3L204,12.85L216,15.6L228,19.6L240,23.35L252,27.5L264,31.2L276,34.85L288,39.5L300,43.45L312,47.3L324,51.35L336,55.2L348,58.5L360,61.75L372,65.6L384,68.5L396,71.45L408,73.95L420,76.3L432,79.3L444,81.9L456,83.3L468,86.3L480,88.15L492,90.05L504,91.5L516,92.7L528,93.85L540,95.2L552,96L564,97.2L576,98.65L588,99.45L600,100.4" stroke="#4c78a8" stroke-width="2"/></g></g><path class="foreground" aria-hidden="true" d="" display="none"/></g><g transform="translate(0,0)"><path class="background" aria-hidden="true" d="M0,0h600v250h-600Z"/><g><g class="mark-line role-mark layer_0_marks" clip-path="url(#clip4)" role="graphics-object" aria-roledescription="line mark container"><path aria-label="経過年数 (年): 0; 生存確率 (%): 100; Strategy: ACWI-2: Johnson SU分布 (為替あり); Year: 0; Survival Probability (%): 100.0" role="graphics-symbol" aria-roledescription="line mark" d="M0,0L12,0L24,0L36,0L48,0L60,0L72,0L84,0L96,0L108,0.1L120,0.35L132,1.2L144,2.15L156,3.45L168,5.3L180,7.7L192,10.4L204,13.65L216,17.2L228,20.5L240,23.95L252,27.55L264,30.95L276,34.8L288,39.25L300,43.05L312,46.95L324,51.35L336,54.95L348,58.65L360,61.95L372,65.2L384,67.95L396,70.35L408,73L420,75.9L432,78.75L444,81.05L456,83.1L468,85.3L480,86.5L492,87.95L504,89.4L516,91.2L528,93.35L540,95L552,96.55L564,97.4L576,98.35L588,99.2L600,100.35" stroke="#f58518" stroke-width="2"/></g></g><path class="foreground" aria-hidden="true" d="" display="none"/></g></g><g class="mark-symbol role-mark layer_1_marks" clip-path="url(#clip5)" role="graphics-object" aria-roledescription="symbol mark container"><path aria-label="経過年数 (年): 0; 生存確率 (%): 100; Strategy: ACWI-1: 対数正規分布 (為替あり); Year: 0; Survival Probability (%): 100.0" role="graphics-symbol" aria-roledescription="point" transform="translate(0,0)" d="M2.739,0A2.739,2.739,0,1,1,-2.739,0A2.739,2.739,0,1,1,2.739,0" fill="#4c78a8" stroke-width="2" opacity="1"/><path aria-label="経過年数 (年): 1; 生存確率 (%): 100; Strategy: ACWI-1: 対数正規分布 (為替あり); Year: 1; Survival Probability (%): 100.0" role="graphics-symbol" aria-roledescription="point" transform="translate(12,0)" d="M2.739,0A2.739,2.739,0,1,1,-2.739,0A2.739,2.739,0,1,1,2.739,0" fill="#4c78a8" stroke-width="2" opacity="1"/><path aria-label="経過年数 (年): 2; 生存確率 (%): 100; Strategy: ACWI-1: 対数正規分布 (為替あり); Year: 2; Survival Probability (%): 100.0" role="graphics-symbol" aria-roledescription="point" transform="translate(24,0)" d="M2.739,0A2.739,2.739,0,1,1,-2.739,0A2.739,2.739,0,1,1,2.739,0" fill="#4c78a8" stroke-width="2" opacity="1"/><path aria-label="経過年数 (年): 3; 生存確率 (%): 100; Strategy: ACWI-1: 対数正規分布 (為替あり); Year: 3; Survival Probability (%): 100.0" role="graphics-symbol" aria-roledescription="point" transform="translate(36,0)" d="M2.739,0A2.739,2.739,0,1,1,-2.739,0A2.739,2.739,0,1,1,2.739,0" fill="#4c78a8" stroke-width="2" opacity="1"/><path aria-label="経過年数 (年): 4; 生存確率 (%): 100; Strategy: ACWI-1: 対数正規分布 (為替あり); Year: 4; Survival Probability (%): 100.0" role="graphics-symbol" aria-roledescription="point" transform="translate(48,0)" d="M2.739,0A2.739,2.739,0,1,1,-2.739,0A2.739,2.739,0,1,1,2.739,0" fill="#4c78a8" stroke-width="2" opacity="1"/><path aria-label="経過年数 (年): 5; 生存確率 (%): 100; Strategy: ACWI-1: 対数正規分布 (為替あり); Year: 5; Survival Probability (%): 100.0" role="graphics-symbol" aria-roledescription="point" transform="translate(60,0)" d="M2.739,0A2.739,2.739,0,1,1,-2.739,0A2.739,2.739,0,1,1,2.739,0" fill="#4c78a8" stroke-width="2" opacity="1"/><path aria-label="経過年数 (年): 6; 生存確率 (%): 100; Strategy: ACWI-1: 対数正規分布 (為替あり); Year: 6; Survival Probability (%): 100.0" role="graphics-symbol" aria-roledescription="point" transform="translate(72,0)" d="M2.739,0A2.739,2.739,0,1,1,-2.739,0A2.739,2.739,0,1,1,2.739,0" fill="#4c78a8" stroke-width="2" opacity="1"/><path aria-label="経過年数 (年): 7; 生存確率 (%): 100; Strategy: ACWI-1: 対数正規分布 (為替あり); Year: 7; Survival Probability (%): 100.0" role="graphics-symbol" aria-roledescription="point" transform="translate(84.00000000000001,0)" d="M2.739,0A2.739,2.739,0,1,1,-2.739,0A2.739,2.739,0,1,1,2.739,0" fill="#4c78a8" stroke-width="2" opacity="1"/><path aria-label="経過年数 (年): 8; 生存確率 (%): 99.98; Strategy: ACWI-1: 対数正規分布 (為替あり); Year: 8; Survival Probability (%): 100.0" role="graphics-symbol" aria-roledescription="point" transform="translate(96,0.04999999999999449)" d="M2.739,0A2.739,2.739,0,1,1,-2.739,0A2.739,2.739,0,1,1,2.739,0" fill="#4c78a8" stroke-width="2" opacity="1"/><path aria-label="経過年数 (年): 9; 生存確率 (%): 99.96; Strategy: ACWI-1: 対数正規分布 (為替あり); Year: 9; Survival Probability (%): 100.0" role="graphics-symbol" aria-roledescription="point" transform="translate(108,0.09999999999998899)" d="M2.739,0A2.739,2.739,0,1,1,-2.739,0A2.739,2.739,0,1,1,2.739,0" fill="#4c78a8" stroke-width="2" opacity="1"/><path aria-label="経過年数 (年): 10; 生存確率 (%): 99.84; Strategy: ACWI-1: 対数正規分布 (為替あり); Year: 10; Survival Probability (%): 99.8" role="graphics-symbol" aria-roledescription="point" transform="translate(120,0.4000000000000392)" d="M2.739,0A2.739,2.739,0,1,1,-2.739,0A2.739,2.739,0,1,1,2.739,0" fill="#4c78a8" stroke-width="2" opacity="1"/><path aria-label="経過年数 (年): 11; 生存確率 (%): 99.74; Strategy: ACWI-1: 対数正規分布 (為替あり); Year: 11; Survival Probability (%): 99.7" role="graphics-symbol" aria-roledescription="point" transform="translate(132,0.6500000000000117)" d="M2.739,0A2.739,2.739,0,1,1,-2.739,0A2.739,2.739,0,1,1,2.739,0" fill="#4c78a8" stroke-width="2" opacity="1"/><path aria-label="経過年数 (年): 12; 生存確率 (%): 99.24; Strategy: ACWI-1: 対数正規分布 (為替あり); Year: 12; Survival Probability (%): 99.2" role="graphics-symbol" aria-roledescription="point" transform="translate(144,1.9000000000000128)" d="M2.739,0A2.739,2.739,0,1,1,-2.739,0A2.739,2.739,0,1,1,2.739,0" fill="#4c78a8" stroke-width="2" opacity="1"/><path aria-label="経過年数 (年): 13; 生存確率 (%): 98.8; Strategy: ACWI-1: 対数正規分布 (為替あり); Year: 13; Survival Probability (%): 98.8" role="graphics-symbol" aria-roledescription="point" transform="translate(156,3.0000000000000027)" d="M2.739,0A2.739,2.739,0,1,1,-2.739,0A2.739,2.739,0,1,1,2.739,0" fill="#4c78a8" stroke-width="2" opacity="1"/><path aria-label="経過年数 (年): 14; 生存確率 (%): 98.08; Strategy: ACWI-1: 対数正規分布 (為替あり); Year: 14; Survival Probability (%): 98.1" role="graphics-symbol" aria-roledescription="point" transform="translate(168.00000000000003,4.799999999999999)" d="M2.739,0A2.739,2.739,0,1,1,-2.739,0A2.739,2.739,0,1,1,2.739,0" fill="#4c78a8" stroke-width="2" opacity="1"/><path aria-label="経過年数 (年): 15; 生存確率 (%): 97.28; Strategy: ACWI-1: 対数正規分布 (為替あり); Year: 15; Survival Probability (%): 97.3" role="graphics-symbol" aria-roledescription="point" transform="translate(180,6.800000000000001)" d="M2.739,0A2.739,2.739,0,1,1,-2.739,0A2.739,2.739,0,1,1,2.739,0" fill="#4c78a8" stroke-width="2" opacity="1"/><path aria-label="経過年数 (年): 16; 生存確率 (%): 96.28; Strategy: ACWI-1: 対数正規分布 (為替あり); Year: 16; Survival Probability (%): 96.3" role="graphics-symbol" aria-roledescription="point" transform="translate(192,9.300000000000002)" d="M2.739,0A2.739,2.739,0,1,1,-2.739,0A2.739,2.739,0,1,1,2.739,0" fill="#4c78a8" stroke-width="2" opacity="1"/><path aria-label="経過年数 (年): 17; 生存確率 (%): 94.86; Strategy: ACWI-1: 対数正規分布 (為替あり); Year: 17; Survival Probability (%): 94.9" role="graphics-symbol" aria-roledescription="point" transform="translate(204.00000000000003,12.85)" d="M2.739,0A2.739,2.739,0,1,1,-2.739,0A2.739,2.739,0,1,1,2.739,0" fill="#4c78a8" stroke-width="2" opacity="1"/><path aria-label="経過年数 (年): 18; 生存確率 (%): 93.76; Strategy: ACWI-1: 対数正規分布 (為替あり); Year: 18; Survival Probability (%): 93.8" role="graphics-symbol" aria-roledescription="point" transform="translate(216,15.599999999999975)" d="M2.739,0A2.739,2.739,0,1,1,-2.739,0A2.739,2.739,0,1,1,2.739,0" fill="#4c78a8" stroke-width="2" opacity="1"/><path aria-label="経過年数 (年): 19; 生存確率 (%): 92.16; Strategy: ACWI-1: 対数正規分布 (為替あり); Year: 19; Survival Probability (%): 92.2" role="graphics-symbol" aria-roledescription="point" transform="translate(228,19.600000000000005)" d="M2.739,0A2.739,2.739,0,1,1,-2.739,0A2.739,2.739,0,1,1,2.739,0" fill="#4c78a8" stroke-width="2" opacity="1"/><path aria-label="経過年数 (年): 20; 生存確率 (%): 90.66; Strategy: ACWI-1: 対数正規分布 (為替あり); Year: 20; Survival Probability (%): 90.7" role="graphics-symbol" aria-roledescription="point" transform="translate(240,23.35000000000001)" d="M2.739,0A2.739,2.739,0,1,1,-2.739,0A2.739,2.739,0,1,1,2.739,0" fill="#4c78a8" stroke-width="2" opacity="1"/><path aria-label="経過年数 (年): 21; 生存確率 (%): 89; Strategy: ACWI-1: 対数正規分布 (為替あり); Year: 21; Survival Probability (%): 89.0" role="graphics-symbol" aria-roledescription="point" transform="translate(252,27.499999999999996)" d="M2.739,0A2.739,2.739,0,1,1,-2.739,0A2.739,2.739,0,1,1,2.739,0" fill="#4c78a8" stroke-width="2" opacity="1"/><path aria-label="経過年数 (年): 22; 生存確率 (%): 87.52; Strategy: ACWI-1: 対数正規分布 (為替あり); Year: 22; Survival Probability (%): 87.5" role="graphics-symbol" aria-roledescription="point" transform="translate(264,31.200000000000006)" d="M2.739,0A2.739,2.739,0,1,1,-2.739,0A2.739,2.739,0,1,1,2.739,0" fill="#4c78a8" stroke-width="2" opacity="1"/><path aria-label="経過年数 (年): 23; 生存確率 (%): 86.06; Strategy: ACWI-1: 対数正規分布 (為替あり); Year: 23; Survival Probability (%): 86.1" role="graphics-symbol" aria-roledescription="point" transform="translate(276,34.849999999999994)" d="M2.739,0A2.739,2.739,0,1,1,-2.739,0A2.739,2.739,0,1,1,2.739,0" fill="#4c78a8" stroke-width="2" opacity="1"/><path aria-label="経過年数 (年): 24; 生存確率 (%): 84.2; Strategy: ACWI-1: 対数正規分布 (為替あり); Year: 24; Survival Probability (%): 84.2" role="graphics-symbol" aria-roledescription="point" transform="translate(288,39.49999999999998)" d="M2.739,0A2.739,2.739,0,1,1,-2.739,0A2.739,2.739,0,1,1,2.739,0" fill="#4c78a8" stroke-width="2" opacity="1"/><path aria-label="経過年数 (年): 25; 生存確率 (%): 82.62; Strategy: ACWI-1: 対数正規分布 (為替あり); Year: 25; Survival Probability (%): 82.6" role="graphics-symbol" aria-roledescription="point" transform="translate(300,43.44999999999999)" d="M2.739,0A2.739,2.739,0,1,1,-2.739,0A2.739,2.739,0,1,1,2.739,0" fill="#4c78a8" stroke-width="2" opacity="1"/><path aria-label="経過年数 (年): 26; 生存確率 (%): 81.08; Strategy: ACWI-1: 対数正規分布 (為替あり); Year: 26; Survival Probability (%): 81.1" role="graphics-symbol" aria-roledescription="point" transform="translate(312,47.30000000000001)" d="M2.739,0A2.739,2.739,0,1,1,-2.739,0A2.739,2.739,0,1,1,2.739,0" fill="#4c78a8" stroke-width="2" opacity="1"/><path aria-label="経過年数 (年): 27; 生存確率 (%): 79.46; Strategy: ACWI-1: 対数正規分布 (為替あり); Year: 27; Survival Probability (%): 79.5" role="graphics-symbol" aria-roledescription="point" transform="translate(324,51.35000000000001)" d="M2.739,0A2.739,2.739,0,1,1,-2.739,0A2.739,2.739,0,1,1,2.739,0" fill="#4c78a8" stroke-width="2" opacity="1"/><path aria-label="経過年数 (年): 28; 生存確率 (%): 77.92; Strategy: ACWI-1: 対数正規分布 (為替あり); Year: 28; Survival Probability (%): 77.9" role="graphics-symbol" aria-roledescription="point" transform="translate(336.00000000000006,55.199999999999996)" d="M2.739,0A2.739,2.739,0,1,1,-2.739,0A2.739,2.739,0,1,1,2.739,0" fill="#4c78a8" stroke-width="2" opacity="1"/><path aria-label="経過年数 (年): 29; 生存確率 (%): 76.6; Strategy: ACWI-1: 対数正規分布 (為替あり); Year: 29; Survival Probability (%): 76.6" role="graphics-symbol" aria-roledescription="point" transform="translate(348,58.50000000000002)" d="M2.739,0A2.739,2.739,0,1,1,-2.739,0A2.739,2.739,0,1,1,2.739,0" fill="#4c78a8" stroke-width="2" opacity="1"/><path aria-label="経過年数 (年): 30; 生存確率 (%): 75.3; Strategy: ACWI-1: 対数正規分布 (為替あり); Year: 30; Survival Probability (%): 75.3" role="graphics-symbol" aria-roledescription="point" transform="translate(360,61.75)" d="M2.739,0A2.739,2.739,0,1,1,-2.739,0A2.739,2.739,0,1,1,2.739,0" fill="#4c78a8" stroke-width="2" opacity="1"/><path aria-label="経過年数 (年): 31; 生存確率 (%): 73.76; Strategy: ACWI-1: 対数正規分布 (為替あり); Year: 31; Survival Probability (%): 73.8" role="graphics-symbol" aria-roledescription="point" transform="translate(372,65.6)" d="M2.739,0A2.739,2.739,0,1,1,-2.739,0A2.739,2.739,0,1,1,2.739,0" fill="#4c78a8" stroke-width="2" opacity="1"/><path aria-label="経過年数 (年): 32; 生存確率 (%): 72.6; Strategy: ACWI-1: 対数正規分布 (為替あり); Year: 32; Survival Probability (%): 72.6" role="graphics-symbol" aria-roledescription="point" transform="translate(384,68.5)" d="M2.739,0A2.739,2.739,0,1,1,-2.739,0A2.739,2.739,0,1,1,2.739,0" fill="#4c78a8" stroke-width="2" opacity="1"/><path aria-label="経過年数 (年): 33; 生存確率 (%): 71.42; Strategy: ACWI-1: 対数正規分布 (為替あり); Year: 33; Survival Probability (%): 71.4" role="graphics-symbol" aria-roledescription="point" transform="translate(396,71.45000000000005)" d="M2.739,0A2.739,2.739,0,1,1,-2.739,0A2.739,2.739,0,1,1,2.739,0" fill="#4c78a8" stroke-width="2" opacity="1"/><path aria-label="経過年数 (年): 34; 生存確率 (%): 70.42; Strategy: ACWI-1: 対数正規分布 (為替あり); Year: 34; Survival Probability (%): 70.4" role="graphics-symbol" aria-roledescription="point" transform="translate(408.00000000000006,73.94999999999999)" d="M2.739,0A2.739,2.739,0,1,1,-2.739,0A2.739,2.739,0,1,1,2.739,0" fill="#4c78a8" stroke-width="2" opacity="1"/><path aria-label="経過年数 (年): 35; 生存確率 (%): 69.48; Strategy: ACWI-1: 対数正規分布 (為替あり); Year: 35; Survival Probability (%): 69.5" role="graphics-symbol" aria-roledescription="point" transform="translate(420,76.29999999999998)" d="M2.739,0A2.739,2.739,0,1,1,-2.739,0A2.739,2.739,0,1,1,2.739,0" fill="#4c78a8" stroke-width="2" opacity="1"/><path aria-label="経過年数 (年): 36; 生存確率 (%): 68.28; Strategy: ACWI-1: 対数正規分布 (為替あり); Year: 36; Survival Probability (%): 68.3" role="graphics-symbol" aria-roledescription="point" transform="translate(432,79.30000000000001)" d="M2.739,0A2.739,2.739,0,1,1,-2.739,0A2.739,2.739,0,1,1,2.739,0" fill="#4c78a8" stroke-width="2" opacity="1"/><path aria-label="経過年数 (年): 37; 生存確率 (%): 67.24; Strategy: ACWI-1: 対数正規分布 (為替あり); Year: 37; Survival Probability (%): 67.2" role="graphics-symbol" aria-roledescription="point" transform="translate(444,81.9)" d="M2.739,0A2.739,2.739,0,1,1,-2.739,0A2.739,2.739,0,1,1,2.739,0" fill="#4c78a8" stroke-width="2" opacity="1"/><path aria-label="経過年数 (年): 38; 生存確率 (%): 66.68; Strategy: ACWI-1: 対数正規分布 (為替あり); Year: 38; Survival Probability (%): 66.7" role="graphics-symbol" aria-roledescription="point" transform="translate(456,83.30000000000001)" d="M2.739,0A2.739,2.739,0,1,1,-2.739,0A2.739,2.739,0,1,1,2.739,0" fill="#4c78a8" stroke-width="2" opacity="1"/><path aria-label="経過年数 (年): 39; 生存確率 (%): 65.48; Strategy: ACWI-1: 対数正規分布 (為替あり); Year: 39; Survival Probability (%): 65.5" role="graphics-symbol" aria-roledescription="point" transform="translate(468,86.29999999999998)" d="M2.739,0A2.739,2.739,0,1,1,-2.739,0A2.739,2.739,0,1,1,2.739,0" fill="#4c78a8" stroke-width="2" opacity="1"/><path aria-label="経過年数 (年): 40; 生存確率 (%): 64.74; Strategy: ACWI-1: 対数正規分布 (為替あり); Year: 40; Survival Probability (%): 64.7" role="graphics-symbol" aria-roledescription="point" transform="translate(480,88.15)" d="M2.739,0A2.739,2.739,0,1,1,-2.739,0A2.739,2.739,0,1,1,2.739,0" fill="#4c78a8" stroke-width="2" opacity="1"/><path aria-label="経過年数 (年): 41; 生存確率 (%): 63.98; Strategy: ACWI-1: 対数正規分布 (為替あり); Year: 41; Survival Probability (%): 64.0" role="graphics-symbol" aria-roledescription="point" transform="translate(491.99999999999994,90.05)" d="M2.739,0A2.739,2.739,0,1,1,-2.739,0A2.739,2.739,0,1,1,2.739,0" fill="#4c78a8" stroke-width="2" opacity="1"/><path aria-label="経過年数 (年): 42; 生存確率 (%): 63.4; Strategy: ACWI-1: 対数正規分布 (為替あり); Year: 42; Survival Probability (%): 63.4" role="graphics-symbol" aria-roledescription="point" transform="translate(504,91.5)" d="M2.739,0A2.739,2.739,0,1,1,-2.739,0A2.739,2.739,0,1,1,2.739,0" fill="#4c78a8" stroke-width="2" opacity="1"/><path aria-label="経過年数 (年): 43; 生存確率 (%): 62.92; Strategy: ACWI-1: 対数正規分布 (為替あり); Year: 43; Survival Probability (%): 62.9" role="graphics-symbol" aria-roledescription="point" transform="translate(516,92.7)" d="M2.739,0A2.739,2.739,0,1,1,-2.739,0A2.739,2.739,0,1,1,2.739,0" fill="#4c78a8" stroke-width="2" opacity="1"/><path aria-label="経過年数 (年): 44; 生存確率 (%): 62.46; Strategy: ACWI-1: 対数正規分布 (為替あり); Year: 44; Survival Probability (%): 62.5" role="graphics-symbol" aria-roledescription="point" transform="translate(528,93.85)" d="M2.739,0A2.739,2.739,0,1,1,-2.739,0A2.739,2.739,0,1,1,2.739,0" fill="#4c78a8" stroke-width="2" opacity="1"/><path aria-label="経過年数 (年): 45; 生存確率 (%): 61.92; Strategy: ACWI-1: 対数正規分布 (為替あり); Year: 45; Survival Probability (%): 61.9" role="graphics-symbol" aria-roledescription="point" transform="translate(540,95.2)" d="M2.739,0A2.739,2.739,0,1,1,-2.739,0A2.739,2.739,0,1,1,2.739,0" fill="#4c78a8" stroke-width="2" opacity="1"/><path aria-label="経過年数 (年): 46; 生存確率 (%): 61.6; Strategy: ACWI-1: 対数正規分布 (為替あり); Year: 46; Survival Probability (%): 61.6" role="graphics-symbol" aria-roledescription="point" transform="translate(552,96)" d="M2.739,0A2.739,2.739,0,1,1,-2.739,0A2.739,2.739,0,1,1,2.739,0" fill="#4c78a8" stroke-width="2" opacity="1"/><path aria-label="経過年数 (年): 47; 生存確率 (%): 61.12; Strategy: ACWI-1: 対数正規分布 (為替あり); Year: 47; Survival Probability (%): 61.1" role="graphics-symbol" aria-roledescription="point" transform="translate(564,97.2)" d="M2.739,0A2.739,2.739,0,1,1,-2.739,0A2.739,2.739,0,1,1,2.739,0" fill="#4c78a8" stroke-width="2" opacity="1"/><path aria-label="経過年数 (年): 48; 生存確率 (%): 60.54; Strategy: ACWI-1: 対数正規分布 (為替あり); Year: 48; Survival Probability (%): 60.5" role="graphics-symbol" aria-roledescription="point" transform="translate(576,98.64999999999999)" d="M2.739,0A2.739,2.739,0,1,1,-2.739,0A2.739,2.739,0,1,1,2.739,0" fill="#4c78a8" stroke-width="2" opacity="1"/><path aria-label="経過年数 (年): 49; 生存確率 (%): 60.22; Strategy: ACWI-1: 対数正規分布 (為替あり); Year: 49; Survival Probability (%): 60.2" role="graphics-symbol" aria-roledescription="point" transform="translate(588,99.45000000000002)" d="M2.739,0A2.739,2.739,0,1,1,-2.739,0A2.739,2.739,0,1,1,2.739,0" fill="#4c78a8" stroke-width="2" opacity="1"/><path aria-label="経過年数 (年): 50; 生存確率 (%): 59.84; Strategy: ACWI-1: 対数正規分布 (為替あり); Year: 50; Survival Probability (%): 59.8" role="graphics-symbol" aria-roledescription="point" transform="translate(600,100.39999999999999)" d="M2.739,0A2.739,2.739,0,1,1,-2.739,0A2.739,2.739,0,1,1,2.739,0" fill="#4c78a8" stroke-width="2" opacity="1"/><path aria-label="経過年数 (年): 0; 生存確率 (%): 100; Strategy: ACWI-2: Johnson SU分布 (為替あり); Year: 0; Survival Probability (%): 100.0" role="graphics-symbol" aria-roledescription="point" transform="translate(0,0)" d="M2.739,0A2.739,2.739,0,1,1,-2.739,0A2.739,2.739,0,1,1,2.739,0" fill="#f58518" stroke-width="2" opacity="1"/><path aria-label="経過年数 (年): 1; 生存確率 (%): 100; Strategy: ACWI-2: Johnson SU分布 (為替あり); Year: 1; Survival Probability (%): 100.0" role="graphics-symbol" aria-roledescription="point" transform="translate(12,0)" d="M2.739,0A2.739,2.739,0,1,1,-2.739,0A2.739,2.739,0,1,1,2.739,0" fill="#f58518" stroke-width="2" opacity="1"/><path aria-label="経過年数 (年): 2; 生存確率 (%): 100; Strategy: ACWI-2: Johnson SU分布 (為替あり); Year: 2; Survival Probability (%): 100.0" role="graphics-symbol" aria-roledescription="point" transform="translate(24,0)" d="M2.739,0A2.739,2.739,0,1,1,-2.739,0A2.739,2.739,0,1,1,2.739,0" fill="#f58518" stroke-width="2" opacity="1"/><path aria-label="経過年数 (年): 3; 生存確率 (%): 100; Strategy: ACWI-2: Johnson SU分布 (為替あり); Year: 3; Survival Probability (%): 100.0" role="graphics-symbol" aria-roledescription="point" transform="translate(36,0)" d="M2.739,0A2.739,2.739,0,1,1,-2.739,0A2.739,2.739,0,1,1,2.739,0" fill="#f58518" stroke-width="2" opacity="1"/><path aria-label="経過年数 (年): 4; 生存確率 (%): 100; Strategy: ACWI-2: Johnson SU分布 (為替あり); Year: 4; Survival Probability (%): 100.0" role="graphics-symbol" aria-roledescription="point" transform="translate(48,0)" d="M2.739,0A2.739,2.739,0,1,1,-2.739,0A2.739,2.739,0,1,1,2.739,0" fill="#f58518" stroke-width="2" opacity="1"/><path aria-label="経過年数 (年): 5; 生存確率 (%): 100; Strategy: ACWI-2: Johnson SU分布 (為替あり); Year: 5; Survival Probability (%): 100.0" role="graphics-symbol" aria-roledescription="point" transform="translate(60,0)" d="M2.739,0A2.739,2.739,0,1,1,-2.739,0A2.739,2.739,0,1,1,2.739,0" fill="#f58518" stroke-width="2" opacity="1"/><path aria-label="経過年数 (年): 6; 生存確率 (%): 100; Strategy: ACWI-2: Johnson SU分布 (為替あり); Year: 6; Survival Probability (%): 100.0" role="graphics-symbol" aria-roledescription="point" transform="translate(72,0)" d="M2.739,0A2.739,2.739,0,1,1,-2.739,0A2.739,2.739,0,1,1,2.739,0" fill="#f58518" stroke-width="2" opacity="1"/><path aria-label="経過年数 (年): 7; 生存確率 (%): 100; Strategy: ACWI-2: Johnson SU分布 (為替あり); Year: 7; Survival Probability (%): 100.0" role="graphics-symbol" aria-roledescription="point" transform="translate(84.00000000000001,0)" d="M2.739,0A2.739,2.739,0,1,1,-2.739,0A2.739,2.739,0,1,1,2.739,0" fill="#f58518" stroke-width="2" opacity="1"/><path aria-label="経過年数 (年): 8; 生存確率 (%): 100; Strategy: ACWI-2: Johnson SU分布 (為替あり); Year: 8; Survival Probability (%): 100.0" role="graphics-symbol" aria-roledescription="point" transform="translate(96,0)" d="M2.739,0A2.739,2.739,0,1,1,-2.739,0A2.739,2.739,0,1,1,2.739,0" fill="#f58518" stroke-width="2" opacity="1"/><path aria-label="経過年数 (年): 9; 生存確率 (%): 99.96; Strategy: ACWI-2: Johnson SU分布 (為替あり); Year: 9; Survival Probability (%): 100.0" role="graphics-symbol" aria-roledescription="point" transform="translate(108,0.09999999999998899)" d="M2.739,0A2.739,2.739,0,1,1,-2.739,0A2.739,2.739,0,1,1,2.739,0" fill="#f58518" stroke-width="2" opacity="1"/><path aria-label="経過年数 (年): 10; 生存確率 (%): 99.86; Strategy: ACWI-2: Johnson SU分布 (為替あり); Year: 10; Survival Probability (%): 99.9" role="graphics-symbol" aria-roledescription="point" transform="translate(120,0.3499999999999892)" d="M2.739,0A2.739,2.739,0,1,1,-2.739,0A2.739,2.739,0,1,1,2.739,0" fill="#f58518" stroke-width="2" opacity="1"/><path aria-label="経過年数 (年): 11; 生存確率 (%): 99.52; Strategy: ACWI-2: Johnson SU分布 (為替あり); Year: 11; Survival Probability (%): 99.5" role="graphics-symbol" aria-roledescription="point" transform="translate(132,1.2000000000000066)" d="M2.739,0A2.739,2.739,0,1,1,-2.739,0A2.739,2.739,0,1,1,2.739,0" fill="#f58518" stroke-width="2" opacity="1"/><path aria-label="経過年数 (年): 12; 生存確率 (%): 99.14; Strategy: ACWI-2: Johnson SU分布 (為替あり); Year: 12; Survival Probability (%): 99.1" role="graphics-symbol" aria-roledescription="point" transform="translate(144,2.1499999999999853)" d="M2.739,0A2.739,2.739,0,1,1,-2.739,0A2.739,2.739,0,1,1,2.739,0" fill="#f58518" stroke-width="2" opacity="1"/><path aria-label="経過年数 (年): 13; 生存確率 (%): 98.62; Strategy: ACWI-2: Johnson SU分布 (為替あり); Year: 13; Survival Probability (%): 98.6" role="graphics-symbol" aria-roledescription="point" transform="translate(156,3.4500000000000366)" d="M2.739,0A2.739,2.739,0,1,1,-2.739,0A2.739,2.739,0,1,1,2.739,0" fill="#f58518" stroke-width="2" opacity="1"/><path aria-label="経過年数 (年): 14; 生存確率 (%): 97.88; Strategy: ACWI-2: Johnson SU分布 (為替あり); Year: 14; Survival Probability (%): 97.9" role="graphics-symbol" aria-roledescription="point" transform="translate(168.00000000000003,5.299999999999999)" d="M2.739,0A2.739,2.739,0,1,1,-2.739,0A2.739,2.739,0,1,1,2.739,0" fill="#f58518" stroke-width="2" opacity="1"/><path aria-label="経過年数 (年): 15; 生存確率 (%): 96.92; Strategy: ACWI-2: Johnson SU分布 (為替あり); Year: 15; Survival Probability (%): 96.9" role="graphics-symbol" aria-roledescription="point" transform="translate(180,7.699999999999985)" d="M2.739,0A2.739,2.739,0,1,1,-2.739,0A2.739,2.739,0,1,1,2.739,0" fill="#f58518" stroke-width="2" opacity="1"/><path aria-label="経過年数 (年): 16; 生存確率 (%): 95.84; Strategy: ACWI-2: Johnson SU分布 (為替あり); Year: 16; Survival Probability (%): 95.8" role="graphics-symbol" aria-roledescription="point" transform="translate(192,10.399999999999993)" d="M2.739,0A2.739,2.739,0,1,1,-2.739,0A2.739,2.739,0,1,1,2.739,0" fill="#f58518" stroke-width="2" opacity="1"/><path aria-label="経過年数 (年): 17; 生存確率 (%): 94.54; Strategy: ACWI-2: Johnson SU分布 (為替あり); Year: 17; Survival Probability (%): 94.5" role="graphics-symbol" aria-roledescription="point" transform="translate(204.00000000000003,13.649999999999995)" d="M2.739,0A2.739,2.739,0,1,1,-2.739,0A2.739,2.739,0,1,1,2.739,0" fill="#f58518" stroke-width="2" opacity="1"/><path aria-label="経過年数 (年): 18; 生存確率 (%): 93.12; Strategy: ACWI-2: Johnson SU分布 (為替あり); Year: 18; Survival Probability (%): 93.1" role="graphics-symbol" aria-roledescription="point" transform="translate(216,17.199999999999992)" d="M2.739,0A2.739,2.739,0,1,1,-2.739,0A2.739,2.739,0,1,1,2.739,0" fill="#f58518" stroke-width="2" opacity="1"/><path aria-label="経過年数 (年): 19; 生存確率 (%): 91.8; Strategy: ACWI-2: Johnson SU分布 (為替あり); Year: 19; Survival Probability (%): 91.8" role="graphics-symbol" aria-roledescription="point" transform="translate(228,20.500000000000018)" d="M2.739,0A2.739,2.739,0,1,1,-2.739,0A2.739,2.739,0,1,1,2.739,0" fill="#f58518" stroke-width="2" opacity="1"/><path aria-label="経過年数 (年): 20; 生存確率 (%): 90.42; Strategy: ACWI-2: Johnson SU分布 (為替あり); Year: 20; Survival Probability (%): 90.4" role="graphics-symbol" aria-roledescription="point" transform="translate(240,23.95)" d="M2.739,0A2.739,2.739,0,1,1,-2.739,0A2.739,2.739,0,1,1,2.739,0" fill="#f58518" stroke-width="2" opacity="1"/><path aria-label="経過年数 (年): 21; 生存確率 (%): 88.98; Strategy: ACWI-2: Johnson SU分布 (為替あり); Year: 21; Survival Probability (%): 89.0" role="graphics-symbol" aria-roledescription="point" transform="translate(252,27.54999999999999)" d="M2.739,0A2.739,2.739,0,1,1,-2.739,0A2.739,2.739,0,1,1,2.739,0" fill="#f58518" stroke-width="2" opacity="1"/><path aria-label="経過年数 (年): 22; 生存確率 (%): 87.62; Strategy: ACWI-2: Johnson SU分布 (為替あり); Year: 22; Survival Probability (%): 87.6" role="graphics-symbol" aria-roledescription="point" transform="translate(264,30.949999999999978)" d="M2.739,0A2.739,2.739,0,1,1,-2.739,0A2.739,2.739,0,1,1,2.739,0" fill="#f58518" stroke-width="2" opacity="1"/><path aria-label="経過年数 (年): 23; 生存確率 (%): 86.08; Strategy: ACWI-2: Johnson SU分布 (為替あり); Year: 23; Survival Probability (%): 86.1" role="graphics-symbol" aria-roledescription="point" transform="translate(276,34.8)" d="M2.739,0A2.739,2.739,0,1,1,-2.739,0A2.739,2.739,0,1,1,2.739,0" fill="#f58518" stroke-width="2" opacity="1"/><path aria-label="経過年数 (年): 24; 生存確率 (%): 84.3; Strategy: ACWI-2: Johnson SU分布 (為替あり); Year: 24; Survival Probability (%): 84.3" role="graphics-symbol" aria-roledescription="point" transform="translate(288,39.25000000000001)" d="M2.739,0A2.739,2.739,0,1,1,-2.739,0A2.739,2.739,0,1,1,2.739,0" fill="#f58518" stroke-width="2" opacity="1"/><path aria-label="経過年数 (年): 25; 生存確率 (%): 82.78; Strategy: ACWI-2: Johnson SU分布 (為替あり); Year: 25; Survival Probability (%): 82.8" role="graphics-symbol" aria-roledescription="point" transform="translate(300,43.050000000000004)" d="M2.739,0A2.739,2.739,0,1,1,-2.739,0A2.739,2.739,0,1,1,2.739,0" fill="#f58518" stroke-width="2" opacity="1"/><path aria-label="経過年数 (年): 26; 生存確率 (%): 81.22; Strategy: ACWI-2: Johnson SU分布 (為替あり); Year: 26; Survival Probability (%): 81.2" role="graphics-symbol" aria-roledescription="point" transform="translate(312,46.94999999999999)" d="M2.739,0A2.739,2.739,0,1,1,-2.739,0A2.739,2.739,0,1,1,2.739,0" fill="#f58518" stroke-width="2" opacity="1"/><path aria-label="経過年数 (年): 27; 生存確率 (%): 79.46; Strategy: ACWI-2: Johnson SU分布 (為替あり); Year: 27; Survival Probability (%): 79.5" role="graphics-symbol" aria-roledescription="point" transform="translate(324,51.35000000000001)" d="M2.739,0A2.739,2.739,0,1,1,-2.739,0A2.739,2.739,0,1,1,2.739,0" fill="#f58518" stroke-width="2" opacity="1"/><path aria-label="経過年数 (年): 28; 生存確率 (%): 78.02; Strategy: ACWI-2: Johnson SU分布 (為替あり); Year: 28; Survival Probability (%): 78.0" role="graphics-symbol" aria-roledescription="point" transform="translate(336.00000000000006,54.949999999999996)" d="M2.739,0A2.739,2.739,0,1,1,-2.739,0A2.739,2.739,0,1,1,2.739,0" fill="#f58518" stroke-width="2" opacity="1"/><path aria-label="経過年数 (年): 29; 生存確率 (%): 76.54; Strategy: ACWI-2: Johnson SU分布 (為替あり); Year: 29; Survival Probability (%): 76.5" role="graphics-symbol" aria-roledescription="point" transform="translate(348,58.650000000000006)" d="M2.739,0A2.739,2.739,0,1,1,-2.739,0A2.739,2.739,0,1,1,2.739,0" fill="#f58518" stroke-width="2" opacity="1"/><path aria-label="経過年数 (年): 30; 生存確率 (%): 75.22; Strategy: ACWI-2: Johnson SU分布 (為替あり); Year: 30; Survival Probability (%): 75.2" role="graphics-symbol" aria-roledescription="point" transform="translate(360,61.95)" d="M2.739,0A2.739,2.739,0,1,1,-2.739,0A2.739,2.739,0,1,1,2.739,0" fill="#f58518" stroke-width="2" opacity="1"/><path aria-label="経過年数 (年): 31; 生存確率 (%): 73.92; Strategy: ACWI-2: Johnson SU分布 (為替あり); Year: 31; Survival Probability (%): 73.9" role="graphics-symbol" aria-roledescription="point" transform="translate(372,65.2)" d="M2.739,0A2.739,2.739,0,1,1,-2.739,0A2.739,2.739,0,1,1,2.739,0" fill="#f58518" stroke-width="2" opacity="1"/><path aria-label="経過年数 (年): 32; 生存確率 (%): 72.82; Strategy: ACWI-2: Johnson SU分布 (為替あり); Year: 32; Survival Probability (%): 72.8" role="graphics-symbol" aria-roledescription="point" transform="translate(384,67.95000000000002)" d="M2.739,0A2.739,2.739,0,1,1,-2.739,0A2.739,2.739,0,1,1,2.739,0" fill="#f58518" stroke-width="2" opacity="1"/><path aria-label="経過年数 (年): 33; 生存確率 (%): 71.86; Strategy: ACWI-2: Johnson SU分布 (為替あり); Year: 33; Survival Probability (%): 71.9" role="graphics-symbol" aria-roledescription="point" transform="translate(396,70.35)" d="M2.739,0A2.739,2.739,0,1,1,-2.739,0A2.739,2.739,0,1,1,2.739,0" fill="#f58518" stroke-width="2" opacity="1"/><path aria-label="経過年数 (年): 34; 生存確率 (%): 70.8; Strategy: ACWI-2: Johnson SU分布 (為替あり); Year: 34; Survival Probability (%): 70.8" role="graphics-symbol" aria-roledescription="point" transform="translate(408.00000000000006,73.00000000000001)" d="M2.739,0A2.739,2.739,0,1,1,-2.739,0A2.739,2.739,0,1,1,2.739,0" fill="#f58518" stroke-width="2" opacity="1"/><path aria-label="経過年数 (年): 35; 生存確率 (%): 69.64; Strategy: ACWI-2: Johnson SU分布 (為替あり); Year: 35; Survival Probability (%): 69.6" role="graphics-symbol" aria-roledescription="point" transform="translate(420,75.89999999999999)" d="M2.739,0A2.739,2.739,0,1,1,-2.739,0A2.739,2.739,0,1,1,2.739,0" fill="#f58518" stroke-width="2" opacity="1"/><path aria-label="経過年数 (年): 36; 生存確率 (%): 68.5; Strategy: ACWI-2: Johnson SU分布 (為替あり); Year: 36; Survival Probability (%): 68.5" role="graphics-symbol" aria-roledescription="point" transform="translate(432,78.74999999999999)" d="M2.739,0A2.739,2.739,0,1,1,-2.739,0A2.739,2.739,0,1,1,2.739,0" fill="#f58518" stroke-width="2" opacity="1"/><path aria-label="経過年数 (年): 37; 生存確率 (%): 67.58; Strategy: ACWI-2: Johnson SU分布 (為替あり); Year: 37; Survival Probability (%): 67.6" role="graphics-symbol" aria-roledescription="point" transform="translate(444,81.05000000000001)" d="M2.739,0A2.739,2.739,0,1,1,-2.739,0A2.739,2.739,0,1,1,2.739,0" fill="#f58518" stroke-width="2" opacity="1"/><path aria-label="経過年数 (年): 38; 生存確率 (%): 66.76; Strategy: ACWI-2: Johnson SU分布 (為替あり); Year: 38; Survival Probability (%): 66.8" role="graphics-symbol" aria-roledescription="point" transform="translate(456,83.10000000000004)" d="M2.739,0A2.739,2.739,0,1,1,-2.739,0A2.739,2.739,0,1,1,2.739,0" fill="#f58518" stroke-width="2" opacity="1"/><path aria-label="経過年数 (年): 39; 生存確率 (%): 65.88; Strategy: ACWI-2: Johnson SU分布 (為替あり); Year: 39; Survival Probability (%): 65.9" role="graphics-symbol" aria-roledescription="point" transform="translate(468,85.29999999999998)" d="M2.739,0A2.739,2.739,0,1,1,-2.739,0A2.739,2.739,0,1,1,2.739,0" fill="#f58518" stroke-width="2" opacity="1"/><path aria-label="経過年数 (年): 40; 生存確率 (%): 65.4; Strategy: ACWI-2: Johnson SU分布 (為替あり); Year: 40; Survival Probability (%): 65.4" role="graphics-symbol" aria-roledescription="point" transform="translate(480,86.5)" d="M2.739,0A2.739,2.739,0,1,1,-2.739,0A2.739,2.739,0,1,1,2.739,0" fill="#f58518" stroke-width="2" opacity="1"/><path aria-label="経過年数 (年): 41; 生存確率 (%): 64.82; Strategy: ACWI-2: Johnson SU分布 (為替あり); Year: 41; Survival Probability (%): 64.8" role="graphics-symbol" aria-roledescription="point" transform="translate(491.99999999999994,87.95000000000003)" d="M2.739,0A2.739,2.739,0,1,1,-2.739,0A2.739,2.739,0,1,1,2.739,0" fill="#f58518" stroke-width="2" opacity="1"/><path aria-label="経過年数 (年): 42; 生存確率 (%): 64.24; Strategy: ACWI-2: Johnson SU分布 (為替あり); Year: 42; Survival Probability (%): 64.2" role="graphics-symbol" aria-roledescription="point" transform="translate(504,89.4)" d="M2.739,0A2.739,2.739,0,1,1,-2.739,0A2.739,2.739,0,1,1,2.739,0" fill="#f58518" stroke-width="2" opacity="1"/><path aria-label="経過年数 (年): 43; 生存確率 (%): 63.52; Strategy: ACWI-2: Johnson SU分布 (為替あり); Year: 43; Survival Probability (%): 63.5" role="graphics-symbol" aria-roledescription="point" transform="translate(516,91.2)" d="M2.739,0A2.739,2.739,0,1,1,-2.739,0A2.739,2.739,0,1,1,2.739,0" fill="#f58518" stroke-width="2" opacity="1"/><path aria-label="経過年数 (年): 44; 生存確率 (%): 62.66; Strategy: ACWI-2: Johnson SU分布 (為替あり); Year: 44; Survival Probability (%): 62.7" role="graphics-symbol" aria-roledescription="point" transform="translate(528,93.35)" d="M2.739,0A2.739,2.739,0,1,1,-2.739,0A2.739,2.739,0,1,1,2.739,0" fill="#f58518" stroke-width="2" opacity="1"/><path aria-label="経過年数 (年): 45; 生存確率 (%): 62; Strategy: ACWI-2: Johnson SU分布 (為替あり); Year: 45; Survival Probability (%): 62.0" role="graphics-symbol" aria-roledescription="point" transform="translate(540,95)" d="M2.739,0A2.739,2.739,0,1,1,-2.739,0A2.739,2.739,0,1,1,2.739,0" fill="#f58518" stroke-width="2" opacity="1"/><path aria-label="経過年数 (年): 46; 生存確率 (%): 61.38; Strategy: ACWI-2: Johnson SU分布 (為替あり); Year: 46; Survival Probability (%): 61.4" role="graphics-symbol" aria-roledescription="point" transform="translate(552,96.55)" d="M2.739,0A2.739,2.739,0,1,1,-2.739,0A2.739,2.739,0,1,1,2.739,0" fill="#f58518" stroke-width="2" opacity="1"/><path aria-label="経過年数 (年): 47; 生存確率 (%): 61.04; Strategy: ACWI-2: Johnson SU分布 (為替あり); Year: 47; Survival Probability (%): 61.0" role="graphics-symbol" aria-roledescription="point" transform="translate(564,97.39999999999999)" d="M2.739,0A2.739,2.739,0,1,1,-2.739,0A2.739,2.739,0,1,1,2.739,0" fill="#f58518" stroke-width="2" opacity="1"/><path aria-label="経過年数 (年): 48; 生存確率 (%): 60.66; Strategy: ACWI-2: Johnson SU分布 (為替あり); Year: 48; Survival Probability (%): 60.7" role="graphics-symbol" aria-roledescription="point" transform="translate(576,98.35)" d="M2.739,0A2.739,2.739,0,1,1,-2.739,0A2.739,2.739,0,1,1,2.739,0" fill="#f58518" stroke-width="2" opacity="1"/><path aria-label="経過年数 (年): 49; 生存確率 (%): 60.32; Strategy: ACWI-2: Johnson SU分布 (為替あり); Year: 49; Survival Probability (%): 60.3" role="graphics-symbol" aria-roledescription="point" transform="translate(588,99.20000000000002)" d="M2.739,0A2.739,2.739,0,1,1,-2.739,0A2.739,2.739,0,1,1,2.739,0" fill="#f58518" stroke-width="2" opacity="1"/><path aria-label="経過年数 (年): 50; 生存確率 (%): 59.86; Strategy: ACWI-2: Johnson SU分布 (為替あり); Year: 50; Survival Probability (%): 59.9" role="graphics-symbol" aria-roledescription="point" transform="translate(600,100.35)" d="M2.739,0A2.739,2.739,0,1,1,-2.739,0A2.739,2.739,0,1,1,2.739,0" fill="#f58518" stroke-width="2" opacity="1"/></g><g class="mark-group role-legend" role="graphics-symbol" aria-roledescription="legend" aria-label="Symbol legend titled '戦略' for fill color and stroke color with 2 values: ACWI-1: 対数正規分布 (為替あり), ACWI-2: Johnson SU分布 (為替あり)"><g transform="translate(0,-47)"><path class="background" aria-hidden="true" d="M0,0h353v29h-353Z" pointer-events="none"/><g><g class="mark-group role-legend-entry"><g transform="translate(0,16)"><path class="background" aria-hidden="true" d="M0,0h0v0h0Z" pointer-events="none"/><g><g class="mark-group role-scope" role="graphics-object" aria-roledescription="group mark container"><g transform="translate(0,0.25)"><path class="background" aria-hidden="true" d="M0,0h165.9951171875v12.5h-165.9951171875Z" pointer-events="none" opacity="1"/><g><g class="mark-symbol role-legend-symbol" pointer-events="none"><path transform="translate(6,6)" d="M5,0A5,5,0,1,1,-5,0A5,5,0,1,1,5,0" fill="#4c78a8" stroke="#4c78a8" stroke-width="1.5" opacity="1"/></g><g class="mark-text role-legend-label" pointer-events="none"><text text-anchor="start" transform="translate(16,9)" font-family="sans-serif" font-size="10px" fill="#000" opacity="1">ACWI-1: 対数正規分布 (為替あり)</text></g></g><path class="foreground" aria-hidden="true" d="" pointer-events="none" display="none"/></g><g transform="translate(177,0.25)"><path class="background" aria-hidden="true" d="M0,0h176v12.5h-176Z" pointer-events="none" opacity="1"/><g><g class="mark-symbol role-legend-symbol" pointer-events="none"><path transform="translate(6,6)" d="M5,0A5,5,0,1,1,-5,0A5,5,0,1,1,5,0" fill="#f58518" stroke="#f58518" stroke-width="1.5" opacity="1"/></g><g class="mark-text role-legend-label" pointer-events="none"><text text-anchor="start" transform="translate(16,9)" font-family="sans-serif" font-size="10px" fill="#000" opacity="1">ACWI-2: Johnson SU分布 (為替…</text></g></g><path class="foreground" aria-hidden="true" d="" pointer-events="none" display="none"/></g></g></g><path class="foreground" aria-hidden="true" d="" pointer-events="none" display="none"/></g></g><g class="mark-text role-legend-title" pointer-events="none"><text text-anchor="start" transform="translate(0,9)" font-family="sans-serif" font-size="11px" font-weight="bold" fill="#000" opacity="1">戦略</text></g></g><path class="foreground" aria-hidden="true" d="" pointer-events="none" display="none"/></g></g><g class="mark-group role-title"><g transform="translate(300,-64)"><path class="background" aria-hidden="true" d="M0,0h0v0h0Z" pointer-events="none"/><g><g class="mark-text role-title-text" role="graphics-symbol" aria-roledescription="title" aria-label="Title text '経過年数と生存確率の推移'" pointer-events="none"><text text-anchor="middle" transform="translate(0,10)" font-family="sans-serif" font-size="13px" font-weight="bold" fill="#000" opacity="1">経過年数と生存確率の推移</text></g></g><path class="foreground" aria-hidden="true" d="" pointer-events="none" display="none"/></g></g></g><path class="foreground" aria-hidden="true" d="" display="none"/></g></g></g><defs><clipPath id="clip3"><rect x="0" y="0" width="600" height="250"/></clipPath><clipPath id="clip4"><rect x="0" y="0" width="600" height="250"/></clipPath><clipPath id="clip5"><rect x="0" y="0" width="600" height="250"/></clipPath></defs></svg>