<svg xmlns="http://www.w3.org/2000/svg" xmlns:xlink="http://www.w3.org/1999/xlink" version="1.1" class="marks" width="650" height="356" viewBox="0 0 650 356"><rect width="650" height="356" fill="white"/><g fill="none" stroke-miterlimit="10" transform="translate(44,69)"><g class="mark-group role-frame root" role="graphics-object" aria-roledescription="group mark container"><g transform="translate(0,0)"><path class="background" aria-hidden="true" d="M0.5,0.5h600v250h-600Z" stroke="#ddd"/><g><g class="mark-group role-axis" aria-hidden="true"><g transform="translate(0.5,250.5)"><path class="background" aria-hidden="true" d="M0,0h0v0h0Z" pointer-events="none"/><g><g class="mark-rule role-axis-grid" pointer-events="none"><line transform="translate(0,-250)" x2="0" y2="250" stroke="#ddd" stroke-width="1" opacity="1"/><line transform="translate(60,-250)" x2="0" y2="250" stroke="#ddd" stroke-width="1" opacity="1"/><line transform="translate(120,-250)" x2="0" y2="250" stroke="#ddd" stroke-width="1" opacity="1"/><line transform="translate(180,-250)" x2="0" y2="250" stroke="#ddd" stroke-width="1" opacity="1"/><line transform="translate(240,-250)" x2="0" y2="250" stroke="#ddd" stroke-width="1" opacity="1"/><line transform="translate(300,-250)" x2="0" y2="250" stroke="#ddd" stroke-width="1" opacity="1"/><line transform="translate(360,-250)" x2="0" y2="250" stroke="#ddd" stroke-width="1" opacity="1"/><line transform="translate(420,-250)" x2="0" y2="250" stroke="#ddd" stroke-width="1" opacity="1"/><line transform="translate(480,-250)" x2="0" y2="250" stroke="#ddd" stroke-width="1" opacity="1"/><line transform="translate(540,-250)" x2="0" y2="250" stroke="#ddd" stroke-width="1" opacity="1"/><line transform="translate(600,-250)" x2="0" y2="250" stroke="#ddd" stroke-width="1" opacity="1"/></g></g><path class="foreground" aria-hidden="true" d="" pointer-events="none" display="none"/></g></g><g class="mark-group role-axis" aria-hidden="true"><g transform="translate(0.5,0.5)"><path class="background" aria-hidden="true" d="M0,0h0v0h0Z" pointer-events="none"/><g><g class="mark-rule role-axis-grid" pointer-events="none"><line transform="translate(0,250)" x2="600" y2="0" stroke="#ddd" stroke-width="1" opacity="1"/><line transform="translate(0,219)" x2="600" y2="0" stroke="#ddd" stroke-width="1" opacity="1"/><line transform="translate(0,188)" x2="600" y2="0" stroke="#ddd" stroke-width="1" opacity="1"/><line transform="translate(0,156)" x2="600" y2="0" stroke="#ddd" stroke-width="1" opacity="1"/><line transform="translate(0,125)" x2="600" y2="0" stroke="#ddd" stroke-width="1" opacity="1"/><line transform="translate(0,94)" x2="600" y2="0" stroke="#ddd" stroke-width="1" opacity="1"/><line transform="translate(0,63)" x2="600" y2="0" stroke="#ddd" stroke-width="1" opacity="1"/><line transform="translate(0,31)" x2="600" y2="0" stroke="#ddd" stroke-width="1" opacity="1"/><line transform="translate(0,0)" x2="600" y2="0" stroke="#ddd" stroke-width="1" opacity="1"/></g></g><path class="foreground" aria-hidden="true" d="" pointer-events="none" display="none"/></g></g><g class="mark-group role-axis" role="graphics-symbol" aria-roledescription="axis" aria-label="X-axis titled '経過年数 (年)' for a linear scale with values from 0 to 50"><g transform="translate(0.5,250.5)"><path class="background" aria-hidden="true" d="M0,0h0v0h0Z" pointer-events="none"/><g><g class="mark-rule role-axis-tick" pointer-events="none"><line transform="translate(0,0)" x2="0" y2="5" stroke="#888" stroke-width="1" opacity="1"/><line transform="translate(60,0)" x2="0" y2="5" stroke="#888" stroke-width="1" opacity="1"/><line transform="translate(120,0)" x2="0" y2="5" stroke="#888" stroke-width="1" opacity="1"/><line transform="translate(180,0)" x2="0" y2="5" stroke="#888" stroke-width="1" opacity="1"/><line transform="translate(240,0)" x2="0" y2="5" stroke="#888" stroke-width="1" opacity="1"/><line transform="translate(300,0)" x2="0" y2="5" stroke="#888" stroke-width="1" opacity="1"/><line transform="translate(360,0)" x2="0" y2="5" stroke="#888" stroke-width="1" opacity="1"/><line transform="translate(420,0)" x2="0" y2="5" stroke="#888" stroke-width="1" opacity="1"/><line transform="translate(480,0)" x2="0" y2="5" stroke="#888" stroke-width="1" opacity="1"/><line transform="translate(540,0)" x2="0" y2="5" stroke="#888" stroke-width="1" opacity="1"/><line transform="translate(600,0)" x2="0" y2="5" stroke="#888" stroke-width="1" opacity="1"/></g><g class="mark-text role-axis-label" pointer-events="none"><text text-anchor="start" transform="translate(0,15)" font-family="sans-serif" font-size="10px" fill="#000" opacity="1">0</text><text text-anchor="middle" transform="translate(60,15)" font-family="sans-serif" font-size="10px" fill="#000" opacity="1">5</text><text text-anchor="middle" transform="translate(120,15)" font-family="sans-serif" font-size="10px" fill="#000" opacity="1">10</text><text text-anchor="middle" transform="translate(180,15)" font-family="sans-serif" font-size="10px" fill="#000" opacity="1">15</text><text text-anchor="middle" transform="translate(240,15)" font-family="sans-serif" font-size="10px" fill="#000" opacity="1">20</text><text text-anchor="middle" transform="translate(300,15)" font-family="sans-serif" font-size="10px" fill="#000" opacity="1">25</text><text text-anchor="middle" transform="translate(360,15)" font-family="sans-serif" font-size="10px" fill="#000" opacity="1">30</text><text text-anchor="middle" transform="translate(420,15)" font-family="sans-serif" font-size="10px" fill="#000" opacity="1">35</text><text text-anchor="middle" transform="translate(480,15)" font-family="sans-serif" font-size="10px" fill="#000" opacity="1">40</text><text text-anchor="middle" transform="translate(540,15)" font-family="sans-serif" font-size="10px" fill="#000" opacity="1">45</text><text text-anchor="end" transform="translate(600,15)" font-family="sans-serif" font-size="10px" fill="#000" opacity="1">50</text></g><g class="mark-rule role-axis-domain" pointer-events="none"><line transform="translate(0,0)" x2="600" y2="0" stroke="#888" stroke-width="1" opacity="1"/></g><g class="mark-text role-axis-title" pointer-events="none"><text text-anchor="middle" transform="translate(300,30)" font-family="sans-serif" font-size="11px" font-weight="bold" fill="#000" opacity="1">経過年数 (年)</text></g></g><path class="foreground" aria-hidden="true" d="" pointer-events="none" display="none"/></g></g><g class="mark-group role-axis" role="graphics-symbol" aria-roledescription="axis" aria-label="Y-axis titled '生存確率 (%)' for a linear scale with values from 60 to 100"><g transform="translate(0.5,0.5)"><path class="background" aria-hidden="true" d="M0,0h0v0h0Z" pointer-events="none"/><g><g class="mark-rule role-axis-tick" pointer-events="none"><line transform="translate(0,250)" x2="-5" y2="0" stroke="#888" stroke-width="1" opacity="1"/><line transform="translate(0,219)" x2="-5" y2="0" stroke="#888" stroke-width="1" opacity="1"/><line transform="translate(0,188)" x2="-5" y2="0" stroke="#888" stroke-width="1" opacity="1"/><line transform="translate(0,156)" x2="-5" y2="0" stroke="#888" stroke-width="1" opacity="1"/><line transform="translate(0,125)" x2="-5" y2="0" stroke="#888" stroke-width="1" opacity="1"/><line transform="translate(0,94)" x2="-5" y2="0" stroke="#888" stroke-width="1" opacity="1"/><line transform="translate(0,63)" x2="-5" y2="0" stroke="#888" stroke-width="1" opacity="1"/><line transform="translate(0,31)" x2="-5" y2="0" stroke="#888" stroke-width="1" opacity="1"/><line transform="translate(0,0)" x2="-5" y2="0" stroke="#888" stroke-width="1" opacity="1"/></g><g class="mark-text role-axis-label" pointer-events="none"><text text-anchor="end" transform="translate(-7,253)" font-family="sans-serif" font-size="10px" fill="#000" opacity="1">60</text><text text-anchor="end" transform="translate(-7,221.75)" font-family="sans-serif" font-size="10px" fill="#000" opacity="1">65</text><text text-anchor="end" transform="translate(-7,190.5)" font-family="sans-serif" font-size="10px" fill="#000" opacity="1">70</text><text text-anchor="end" transform="translate(-7,159.25)" font-family="sans-serif" font-size="10px" fill="#000" opacity="1">75</text><text text-anchor="end" transform="translate(-7,128)" font-family="sans-serif" font-size="10px" fill="#000" opacity="1">80</text><text text-anchor="end" transform="translate(-7,96.75)" font-family="sans-serif" font-size="10px" fill="#000" opacity="1">85</text><text text-anchor="end" transform="translate(-7,65.5)" font-family="sans-serif" font-size="10px" fill="#000" opacity="1">90</text><text text-anchor="end" transform="translate(-7,34.25)" font-family="sans-serif" font-size="10px" fill="#000" opacity="1">95</text><text text-anchor="end" transform="translate(-7,3)" font-family="sans-serif" font-size="10px" fill="#000" opacity="1">100</text></g><g class="mark-rule role-axis-domain" pointer-events="none"><line transform="translate(0,250)" x2="0" y2="-250" stroke="#888" stroke-width="1" opacity="1"/></g><g class="mark-text role-axis-title" pointer-events="none"><text text-anchor="middle" transform="translate(-27.6845703125,125) rotate(-90) translate(0,-2)" font-family="sans-serif" font-size="11px" font-weight="bold" fill="#000" opacity="1">生存確率 (%)</text></g></g><path class="foreground" aria-hidden="true" d="" pointer-events="none" display="none"/></g></g><g class="mark-group role-scope layer_0_pathgroup" role="graphics-object" aria-roledescription="group mark container"><g transform="translate(0,0)"><path class="background" aria-hidden="true" d="M0,0h600v250h-600Z"/><g><g class="mark-line role-mark layer_0_marks" clip-path="url(#clip3)" role="graphics-object" aria-roledescription="line mark container"><path aria-label="経過年数 (年): 0; 生存確率 (%): 100; Strategy: ACWI-1: 対数正規分布 (為替あり); Year: 0; Survival Probability (%): 100.0" role="graphics-symbol" aria-roledescription="line mark" d="M0,0L12,0L24,0L36,0L48,0L60,0L72,0L84,0L96,0.125L108,0.125L120,0.75L132,1.5L144,4.125L156,6.625L168,10.625L180,15L192,21.375L204,30L216,35.75L228,44.375L240,52.875L252,62.125L264,71.625L276,80.125L288,89.625L300,100L312,108.75L324,117.75L336,127L348,135.25L360,142.625L372,150.125L384,157.5L396,165.875L408,172.5L420,178L432,183.875L444,188.625L456,194.375L468,200L480,204.625L492,209.375L504,214.125L516,218.125L528,221.75L540,224.75L552,227.125L564,229L576,232.5L588,234.875L600,237" stroke="#4c78a8" stroke-width="2"/></g></g><path class="foreground" aria-hidden="true" d="" display="none"/></g><g transform="translate(0,0)"><path class="background" aria-hidden="true" d="M0,0h600v250h-600Z"/><g><g class="mark-line role-mark layer_0_marks" clip-path="url(#clip4)" role="graphics-object" aria-roledescription="line mark container"><path aria-label="経過年数 (年): 0; 生存確率 (%): 100; Strategy: ACWI-2: Johnson SU分布 (為替あり); Year: 0; Survival Probability (%): 100.0" role="graphics-symbol" aria-roledescription="line mark" d="M0,0L12,0L24,0L36,0L48,0L60,0L72,0L84,0L96,0L108,0.25L120,0.875L132,2.625L144,5L156,7.875L168,11.875L180,18.125L192,24.75L204,31.75L216,40L228,47.375L240,55.125L252,63.5L264,72L276,80.75L288,88.375L300,98.25L312,107.875L324,115.625L336,125.75L348,135.5L360,143.25L372,150.75L384,157.625L396,163.375L408,169.125L420,175.75L432,181L444,186.875L456,192.375L468,198.125L480,202.5L492,206.625L504,210.25L516,212.625L528,216.25L540,219.125L552,223.375L564,226.625L576,230.375L588,233.25L600,234.75" stroke="#f58518" stroke-width="2"/></g></g><path class="foreground" aria-hidden="true" d="" display="none"/></g></g><g class="mark-symbol role-mark layer_1_marks" clip-path="url(#clip5)" role="graphics-object" aria-roledescription="symbol mark container"><path aria-label="経過年数 (年): 0; 生存確率 (%): 100; Strategy: ACWI-1: 対数正規分布 (為替あり); Year: 0; Survival Probability (%): 100.0" role="graphics-symbol" aria-roledescription="point" transform="translate(0,0)" d="M2.739,0A2.739,2.739,0,1,1,-2.739,0A2.739,2.739,0,1,1,2.739,0" fill="#4c78a8" stroke-width="2" opacity="1"/><path aria-label="経過年数 (年): 1; 生存確率 (%): 100; Strategy: ACWI-1: 対数正規分布 (為替あり); Year: 1; Survival Probability (%): 100.0" role="graphics-symbol" aria-roledescription="point" transform="translate(12,0)" d="M2.739,0A2.739,2.739,0,1,1,-2.739,0A2.739,2.739,0,1,1,2.739,0" fill="#4c78a8" stroke-width="2" opacity="1"/><path aria-label="経過年数 (年): 2; 生存確率 (%): 100; Strategy: ACWI-1: 対数正規分布 (為替あり); Year: 2; Survival Probability (%): 100.0" role="graphics-symbol" aria-roledescription="point" transform="translate(24,0)" d="M2.739,0A2.739,2.739,0,1,1,-2.739,0A2.739,2.739,0,1,1,2.739,0" fill="#4c78a8" stroke-width="2" opacity="1"/><path aria-label="経過年数 (年): 3; 生存確率 (%): 100; Strategy: ACWI-1: 対数正規分布 (為替あり); Year: 3; Survival Probability (%): 100.0" role="graphics-symbol" aria-roledescription="point" transform="translate(36,0)" d="M2.739,0A2.739,2.739,0,1,1,-2.739,0A2.739,2.739,0,1,1,2.739,0" fill="#4c78a8" stroke-width="2" opacity="1"/><path aria-label="経過年数 (年): 4; 生存確率 (%): 100; Strategy: ACWI-1: 対数正規分布 (為替あり); Year: 4; Survival Probability (%): 100.0" role="graphics-symbol" aria-roledescription="point" transform="translate(48,0)" d="M2.739,0A2.739,2.739,0,1,1,-2.739,0A2.739,2.739,0,1,1,2.739,0" fill="#4c78a8" stroke-width="2" opacity="1"/><path aria-label="経過年数 (年): 5; 生存確率 (%): 100; Strategy: ACWI-1: 対数正規分布 (為替あり); Year: 5; Survival Probability (%): 100.0" role="graphics-symbol" aria-roledescription="point" transform="translate(60,0)" d="M2.739,0A2.739,2.739,0,1,1,-2.739,0A2.739,2.739,0,1,1,2.739,0" fill="#4c78a8" stroke-width="2" opacity="1"/><path aria-label="経過年数 (年): 6; 生存確率 (%): 100; Strategy: ACWI-1: 対数正規分布 (為替あり); Year: 6; Survival Probability (%): 100.0" role="graphics-symbol" aria-roledescription="point" transform="translate(72,0)" d="M2.739,0A2.739,2.739,0,1,1,-2.739,0A2.739,2.739,0,1,1,2.739,0" fill="#4c78a8" stroke-width="2" opacity="1"/><path aria-label="経過年数 (年): 7; 生存確率 (%): 100; Strategy: ACWI-1: 対数正規分布 (為替あり); Year: 7; Survival Probability (%): 100.0" role="graphics-symbol" aria-roledescription="point" transform="translate(84.00000000000001,0)" d="M2.739,0A2.739,2.739,0,1,1,-2.739,0A2.739,2.739,0,1,1,2.739,0" fill="#4c78a8" stroke-width="2" opacity="1"/><path aria-label="経過年数 (年): 8; 生存確率 (%): 99.98; Strategy: ACWI-1: 対数正規分布 (為替あり); Year: 8; Survival Probability (%): 100.0" role="graphics-symbol" aria-roledescription="point" transform="translate(96,0.12499999999998623)" d="M2.739,0A2.739,2.739,0,1,1,-2.739,0A2.739,2.739,0,1,1,2.739,0" fill="#4c78a8" stroke-width="2" opacity="1"/><path aria-label="経過年数 (年): 9; 生存確率 (%): 99.98; Strategy: ACWI-1: 対数正規分布 (為替あり); Year: 9; Survival Probability (%): 100.0" role="graphics-symbol" aria-roledescription="point" transform="translate(108,0.12499999999998623)" d="M2.739,0A2.739,2.739,0,1,1,-2.739,0A2.739,2.739,0,1,1,2.739,0" fill="#4c78a8" stroke-width="2" opacity="1"/><path aria-label="経過年数 (年): 10; 生存確率 (%): 99.88; Strategy: ACWI-1: 対数正規分布 (為替あり); Year: 10; Survival Probability (%): 99.9" role="graphics-symbol" aria-roledescription="point" transform="translate(120,0.7500000000000284)" d="M2.739,0A2.739,2.739,0,1,1,-2.739,0A2.739,2.739,0,1,1,2.739,0" fill="#4c78a8" stroke-width="2" opacity="1"/><path aria-label="経過年数 (年): 11; 生存確率 (%): 99.76; Strategy: ACWI-1: 対数正規分布 (為替あり); Year: 11; Survival Probability (%): 99.8" role="graphics-symbol" aria-roledescription="point" transform="translate(132,1.4999999999999736)" d="M2.739,0A2.739,2.739,0,1,1,-2.739,0A2.739,2.739,0,1,1,2.739,0" fill="#4c78a8" stroke-width="2" opacity="1"/><path aria-label="経過年数 (年): 12; 生存確率 (%): 99.34; Strategy: ACWI-1: 対数正規分布 (為替あり); Year: 12; Survival Probability (%): 99.3" role="graphics-symbol" aria-roledescription="point" transform="translate(144,4.125000000000073)" d="M2.739,0A2.739,2.739,0,1,1,-2.739,0A2.739,2.739,0,1,1,2.739,0" fill="#4c78a8" stroke-width="2" opacity="1"/><path aria-label="経過年数 (年): 13; 生存確率 (%): 98.94; Strategy: ACWI-1: 対数正規分布 (為替あり); Year: 13; Survival Probability (%): 98.9" role="graphics-symbol" aria-roledescription="point" transform="translate(156,6.6250000000000195)" d="M2.739,0A2.739,2.739,0,1,1,-2.739,0A2.739,2.739,0,1,1,2.739,0" fill="#4c78a8" stroke-width="2" opacity="1"/><path aria-label="経過年数 (年): 14; 生存確率 (%): 98.3; Strategy: ACWI-1: 対数正規分布 (為替あり); Year: 14; Survival Probability (%): 98.3" role="graphics-symbol" aria-roledescription="point" transform="translate(168.00000000000003,10.625000000000023)" d="M2.739,0A2.739,2.739,0,1,1,-2.739,0A2.739,2.739,0,1,1,2.739,0" fill="#4c78a8" stroke-width="2" opacity="1"/><path aria-label="経過年数 (年): 15; 生存確率 (%): 97.6; Strategy: ACWI-1: 対数正規分布 (為替あり); Year: 15; Survival Probability (%): 97.6" role="graphics-symbol" aria-roledescription="point" transform="translate(180,15.00000000000004)" d="M2.739,0A2.739,2.739,0,1,1,-2.739,0A2.739,2.739,0,1,1,2.739,0" fill="#4c78a8" stroke-width="2" opacity="1"/><path aria-label="経過年数 (年): 16; 生存確率 (%): 96.58; Strategy: ACWI-1: 対数正規分布 (為替あり); Year: 16; Survival Probability (%): 96.6" role="graphics-symbol" aria-roledescription="point" transform="translate(192,21.375000000000004)" d="M2.739,0A2.739,2.739,0,1,1,-2.739,0A2.739,2.739,0,1,1,2.739,0" fill="#4c78a8" stroke-width="2" opacity="1"/><path aria-label="経過年数 (年): 17; 生存確率 (%): 95.2; Strategy: ACWI-1: 対数正規分布 (為替あり); Year: 17; Survival Probability (%): 95.2" role="graphics-symbol" aria-roledescription="point" transform="translate(204.00000000000003,30.00000000000008)" d="M2.739,0A2.739,2.739,0,1,1,-2.739,0A2.739,2.739,0,1,1,2.739,0" fill="#4c78a8" stroke-width="2" opacity="1"/><path aria-label="経過年数 (年): 18; 生存確率 (%): 94.28; Strategy: ACWI-1: 対数正規分布 (為替あり); Year: 18; Survival Probability (%): 94.3" role="graphics-symbol" aria-roledescription="point" transform="translate(216,35.75000000000001)" d="M2.739,0A2.739,2.739,0,1,1,-2.739,0A2.739,2.739,0,1,1,2.739,0" fill="#4c78a8" stroke-width="2" opacity="1"/><path aria-label="経過年数 (年): 19; 生存確率 (%): 92.9; Strategy: ACWI-1: 対数正規分布 (為替あり); Year: 19; Survival Probability (%): 92.9" role="graphics-symbol" aria-roledescription="point" transform="translate(228,44.37499999999997)" d="M2.739,0A2.739,2.739,0,1,1,-2.739,0A2.739,2.739,0,1,1,2.739,0" fill="#4c78a8" stroke-width="2" opacity="1"/><path aria-label="経過年数 (年): 20; 生存確率 (%): 91.54; Strategy: ACWI-1: 対数正規分布 (為替あり); Year: 20; Survival Probability (%): 91.5" role="graphics-symbol" aria-roledescription="point" transform="translate(240,52.875000000000064)" d="M2.739,0A2.739,2.739,0,1,1,-2.739,0A2.739,2.739,0,1,1,2.739,0" fill="#4c78a8" stroke-width="2" opacity="1"/><path aria-label="経過年数 (年): 21; 生存確率 (%): 90.06; Strategy: ACWI-1: 対数正規分布 (為替あり); Year: 21; Survival Probability (%): 90.1" role="graphics-symbol" aria-roledescription="point" transform="translate(252,62.124999999999986)" d="M2.739,0A2.739,2.739,0,1,1,-2.739,0A2.739,2.739,0,1,1,2.739,0" fill="#4c78a8" stroke-width="2" opacity="1"/><path aria-label="経過年数 (年): 22; 生存確率 (%): 88.54; Strategy: ACWI-1: 対数正規分布 (為替あり); Year: 22; Survival Probability (%): 88.5" role="graphics-symbol" aria-roledescription="point" transform="translate(264,71.62500000000006)" d="M2.739,0A2.739,2.739,0,1,1,-2.739,0A2.739,2.739,0,1,1,2.739,0" fill="#4c78a8" stroke-width="2" opacity="1"/><path aria-label="経過年数 (年): 23; 生存確率 (%): 87.18; Strategy: ACWI-1: 対数正規分布 (為替あり); Year: 23; Survival Probability (%): 87.2" role="graphics-symbol" aria-roledescription="point" transform="translate(276,80.12499999999994)" d="M2.739,0A2.739,2.739,0,1,1,-2.739,0A2.739,2.739,0,1,1,2.739,0" fill="#4c78a8" stroke-width="2" opacity="1"/><path aria-label="経過年数 (年): 24; 生存確率 (%): 85.66; Strategy: ACWI-1: 対数正規分布 (為替あり); Year: 24; Survival Probability (%): 85.7" role="graphics-symbol" aria-roledescription="point" transform="translate(288,89.62500000000001)" d="M2.739,0A2.739,2.739,0,1,1,-2.739,0A2.739,2.739,0,1,1,2.739,0" fill="#4c78a8" stroke-width="2" opacity="1"/><path aria-label="経過年数 (年): 25; 生存確率 (%): 84; Strategy: ACWI-1: 対数正規分布 (為替あり); Year: 25; Survival Probability (%): 84.0" role="graphics-symbol" aria-roledescription="point" transform="translate(300,100)" d="M2.739,0A2.739,2.739,0,1,1,-2.739,0A2.739,2.739,0,1,1,2.739,0" fill="#4c78a8" stroke-width="2" opacity="1"/><path aria-label="経過年数 (年): 26; 生存確率 (%): 82.6; Strategy: ACWI-1: 対数正規分布 (為替あり); Year: 26; Survival Probability (%): 82.6" role="graphics-symbol" aria-roledescription="point" transform="translate(312,108.75000000000004)" d="M2.739,0A2.739,2.739,0,1,1,-2.739,0A2.739,2.739,0,1,1,2.739,0" fill="#4c78a8" stroke-width="2" opacity="1"/><path aria-label="経過年数 (年): 27; 生存確率 (%): 81.16; Strategy: ACWI-1: 対数正規分布 (為替あり); Year: 27; Survival Probability (%): 81.2" role="graphics-symbol" aria-roledescription="point" transform="translate(324,117.75000000000003)" d="M2.739,0A2.739,2.739,0,1,1,-2.739,0A2.739,2.739,0,1,1,2.739,0" fill="#4c78a8" stroke-width="2" opacity="1"/><path aria-label="経過年数 (年): 28; 生存確率 (%): 79.68; Strategy: ACWI-1: 対数正規分布 (為替あり); Year: 28; Survival Probability (%): 79.7" role="graphics-symbol" aria-roledescription="point" transform="translate(336.00000000000006,127.00000000000006)" d="M2.739,0A2.739,2.739,0,1,1,-2.739,0A2.739,2.739,0,1,1,2.739,0" fill="#4c78a8" stroke-width="2" opacity="1"/><path aria-label="経過年数 (年): 29; 生存確率 (%): 78.36; Strategy: ACWI-1: 対数正規分布 (為替あり); Year: 29; Survival Probability (%): 78.4" role="graphics-symbol" aria-roledescription="point" transform="translate(348,135.25)" d="M2.739,0A2.739,2.739,0,1,1,-2.739,0A2.739,2.739,0,1,1,2.739,0" fill="#4c78a8" stroke-width="2" opacity="1"/><path aria-label="経過年数 (年): 30; 生存確率 (%): 77.18; Strategy: ACWI-1: 対数正規分布 (為替あり); Year: 30; Survival Probability (%): 77.2" role="graphics-symbol" aria-roledescription="point" transform="translate(360,142.62499999999994)" d="M2.739,0A2.739,2.739,0,1,1,-2.739,0A2.739,2.739,0,1,1,2.739,0" fill="#4c78a8" stroke-width="2" opacity="1"/><path aria-label="経過年数 (年): 31; 生存確率 (%): 75.98; Strategy: ACWI-1: 対数正規分布 (為替あり); Year: 31; Survival Probability (%): 76.0" role="graphics-symbol" aria-roledescription="point" transform="translate(372,150.12499999999997)" d="M2.739,0A2.739,2.739,0,1,1,-2.739,0A2.739,2.739,0,1,1,2.739,0" fill="#4c78a8" stroke-width="2" opacity="1"/><path aria-label="経過年数 (年): 32; 生存確率 (%): 74.8; Strategy: ACWI-1: 対数正規分布 (為替あり); Year: 32; Survival Probability (%): 74.8" role="graphics-symbol" aria-roledescription="point" transform="translate(384,157.50000000000003)" d="M2.739,0A2.739,2.739,0,1,1,-2.739,0A2.739,2.739,0,1,1,2.739,0" fill="#4c78a8" stroke-width="2" opacity="1"/><path aria-label="経過年数 (年): 33; 生存確率 (%): 73.46; Strategy: ACWI-1: 対数正規分布 (為替あり); Year: 33; Survival Probability (%): 73.5" role="graphics-symbol" aria-roledescription="point" transform="translate(396,165.87499999999994)" d="M2.739,0A2.739,2.739,0,1,1,-2.739,0A2.739,2.739,0,1,1,2.739,0" fill="#4c78a8" stroke-width="2" opacity="1"/><path aria-label="経過年数 (年): 34; 生存確率 (%): 72.4; Strategy: ACWI-1: 対数正規分布 (為替あり); Year: 34; Survival Probability (%): 72.4" role="graphics-symbol" aria-roledescription="point" transform="translate(408.00000000000006,172.50000000000003)" d="M2.739,0A2.739,2.739,0,1,1,-2.739,0A2.739,2.739,0,1,1,2.739,0" fill="#4c78a8" stroke-width="2" opacity="1"/><path aria-label="経過年数 (年): 35; 生存確率 (%): 71.52; Strategy: ACWI-1: 対数正規分布 (為替あり); Year: 35; Survival Probability (%): 71.5" role="graphics-symbol" aria-roledescription="point" transform="translate(420,178.00000000000003)" d="M2.739,0A2.739,2.739,0,1,1,-2.739,0A2.739,2.739,0,1,1,2.739,0" fill="#4c78a8" stroke-width="2" opacity="1"/><path aria-label="経過年数 (年): 36; 生存確率 (%): 70.58; Strategy: ACWI-1: 対数正規分布 (為替あり); Year: 36; Survival Probability (%): 70.6" role="graphics-symbol" aria-roledescription="point" transform="translate(432,183.875)" d="M2.739,0A2.739,2.739,0,1,1,-2.739,0A2.739,2.739,0,1,1,2.739,0" fill="#4c78a8" stroke-width="2" opacity="1"/><path aria-label="経過年数 (年): 37; 生存確率 (%): 69.82; Strategy: ACWI-1: 対数正規分布 (為替あり); Year: 37; Survival Probability (%): 69.8" role="graphics-symbol" aria-roledescription="point" transform="translate(444,188.62499999999997)" d="M2.739,0A2.739,2.739,0,1,1,-2.739,0A2.739,2.739,0,1,1,2.739,0" fill="#4c78a8" stroke-width="2" opacity="1"/><path aria-label="経過年数 (年): 38; 生存確率 (%): 68.9; Strategy: ACWI-1: 対数正規分布 (為替あり); Year: 38; Survival Probability (%): 68.9" role="graphics-symbol" aria-roledescription="point" transform="translate(456,194.37500000000006)" d="M2.739,0A2.739,2.739,0,1,1,-2.739,0A2.739,2.739,0,1,1,2.739,0" fill="#4c78a8" stroke-width="2" opacity="1"/><path aria-label="経過年数 (年): 39; 生存確率 (%): 68; Strategy: ACWI-1: 対数正規分布 (為替あり); Year: 39; Survival Probability (%): 68.0" role="graphics-symbol" aria-roledescription="point" transform="translate(468,200)" d="M2.739,0A2.739,2.739,0,1,1,-2.739,0A2.739,2.739,0,1,1,2.739,0" fill="#4c78a8" stroke-width="2" opacity="1"/><path aria-label="経過年数 (年): 40; 生存確率 (%): 67.26; Strategy: ACWI-1: 対数正規分布 (為替あり); Year: 40; Survival Probability (%): 67.3" role="graphics-symbol" aria-roledescription="point" transform="translate(480,204.62500000000006)" d="M2.739,0A2.739,2.739,0,1,1,-2.739,0A2.739,2.739,0,1,1,2.739,0" fill="#4c78a8" stroke-width="2" opacity="1"/><path aria-label="経過年数 (年): 41; 生存確率 (%): 66.5; Strategy: ACWI-1: 対数正規分布 (為替あり); Year: 41; Survival Probability (%): 66.5" role="graphics-symbol" aria-roledescription="point" transform="translate(491.99999999999994,209.375)" d="M2.739,0A2.739,2.739,0,1,1,-2.739,0A2.739,2.739,0,1,1,2.739,0" fill="#4c78a8" stroke-width="2" opacity="1"/><path aria-label="経過年数 (年): 42; 生存確率 (%): 65.74; Strategy: ACWI-1: 対数正規分布 (為替あり); Year: 42; Survival Probability (%): 65.7" role="graphics-symbol" aria-roledescription="point" transform="translate(504,214.12500000000003)" d="M2.739,0A2.739,2.739,0,1,1,-2.739,0A2.739,2.739,0,1,1,2.739,0" fill="#4c78a8" stroke-width="2" opacity="1"/><path aria-label="経過年数 (年): 43; 生存確率 (%): 65.1; Strategy: ACWI-1: 対数正規分布 (為替あり); Year: 43; Survival Probability (%): 65.1" role="graphics-symbol" aria-roledescription="point" transform="translate(516,218.12499999999997)" d="M2.739,0A2.739,2.739,0,1,1,-2.739,0A2.739,2.739,0,1,1,2.739,0" fill="#4c78a8" stroke-width="2" opacity="1"/><path aria-label="経過年数 (年): 44; 生存確率 (%): 64.52; Strategy: ACWI-1: 対数正規分布 (為替あり); Year: 44; Survival Probability (%): 64.5" role="graphics-symbol" aria-roledescription="point" transform="translate(528,221.75000000000003)" d="M2.739,0A2.739,2.739,0,1,1,-2.739,0A2.739,2.739,0,1,1,2.739,0" fill="#4c78a8" stroke-width="2" opacity="1"/><path aria-label="経過年数 (年): 45; 生存確率 (%): 64.04; Strategy: ACWI-1: 対数正規分布 (為替あり); Year: 45; Survival Probability (%): 64.0" role="graphics-symbol" aria-roledescription="point" transform="translate(540,224.75000000000006)" d="M2.739,0A2.739,2.739,0,1,1,-2.739,0A2.739,2.739,0,1,1,2.739,0" fill="#4c78a8" stroke-width="2" opacity="1"/><path aria-label="経過年数 (年): 46; 生存確率 (%): 63.66; Strategy: ACWI-1: 対数正規分布 (為替あり); Year: 46; Survival Probability (%): 63.7" role="graphics-symbol" aria-roledescription="point" transform="translate(552,227.12499999999997)" d="M2.739,0A2.739,2.739,0,1,1,-2.739,0A2.739,2.739,0,1,1,2.739,0" fill="#4c78a8" stroke-width="2" opacity="1"/><path aria-label="経過年数 (年): 47; 生存確率 (%): 63.36; Strategy: ACWI-1: 対数正規分布 (為替あり); Year: 47; Survival Probability (%): 63.4" role="graphics-symbol" aria-roledescription="point" transform="translate(564,228.99999999999994)" d="M2.739,0A2.739,2.739,0,1,1,-2.739,0A2.739,2.739,0,1,1,2.739,0" fill="#4c78a8" stroke-width="2" opacity="1"/><path aria-label="経過年数 (年): 48; 生存確率 (%): 62.8; Strategy: ACWI-1: 対数正規分布 (為替あり); Year: 48; Survival Probability (%): 62.8" role="graphics-symbol" aria-roledescription="point" transform="translate(576,232.5)" d="M2.739,0A2.739,2.739,0,1,1,-2.739,0A2.739,2.739,0,1,1,2.739,0" fill="#4c78a8" stroke-width="2" opacity="1"/><path aria-label="経過年数 (年): 49; 生存確率 (%): 62.42; Strategy: ACWI-1: 対数正規分布 (為替あり); Year: 49; Survival Probability (%): 62.4" role="graphics-symbol" aria-roledescription="point" transform="translate(588,234.87500000000003)" d="M2.739,0A2.739,2.739,0,1,1,-2.739,0A2.739,2.739,0,1,1,2.739,0" fill="#4c78a8" stroke-width="2" opacity="1"/><path aria-label="経過年数 (年): 50; 生存確率 (%): 62.08; Strategy: ACWI-1: 対数正規分布 (為替あり); Year: 50; Survival Probability (%): 62.1" role="graphics-symbol" aria-roledescription="point" transform="translate(600,237.00000000000003)" d="M2.739,0A2.739,2.739,0,1,1,-2.739,0A2.739,2.739,0,1,1,2.739,0" fill="#4c78a8" stroke-width="2" opacity="1"/><path aria-label="経過年数 (年): 0; 生存確率 (%): 100; Strategy: ACWI-2: Johnson SU分布 (為替あり); Year: 0; Survival Probability (%): 100.0" role="graphics-symbol" aria-roledescription="point" transform="translate(0,0)" d="M2.739,0A2.739,2.739,0,1,1,-2.739,0A2.739,2.739,0,1,1,2.739,0" fill="#f58518" stroke-width="2" opacity="1"/><path aria-label="経過年数 (年): 1; 生存確率 (%): 100; Strategy: ACWI-2: Johnson SU分布 (為替あり); Year: 1; Survival Probability (%): 100.0" role="graphics-symbol" aria-roledescription="point" transform="translate(12,0)" d="M2.739,0A2.739,2.739,0,1,1,-2.739,0A2.739,2.739,0,1,1,2.739,0" fill="#f58518" stroke-width="2" opacity="1"/><path aria-label="経過年数 (年): 2; 生存確率 (%): 100; Strategy: ACWI-2: Johnson SU分布 (為替あり); Year: 2; Survival Probability (%): 100.0" role="graphics-symbol" aria-roledescription="point" transform="translate(24,0)" d="M2.739,0A2.739,2.739,0,1,1,-2.739,0A2.739,2.739,0,1,1,2.739,0" fill="#f58518" stroke-width="2" opacity="1"/><path aria-label="経過年数 (年): 3; 生存確率 (%): 100; Strategy: ACWI-2: Johnson SU分布 (為替あり); Year: 3; Survival Probability (%): 100.0" role="graphics-symbol" aria-roledescription="point" transform="translate(36,0)" d="M2.739,0A2.739,2.739,0,1,1,-2.739,0A2.739,2.739,0,1,1,2.739,0" fill="#f58518" stroke-width="2" opacity="1"/><path aria-label="経過年数 (年): 4; 生存確率 (%): 100; Strategy: ACWI-2: Johnson SU分布 (為替あり); Year: 4; Survival Probability (%): 100.0" role="graphics-symbol" aria-roledescription="point" transform="translate(48,0)" d="M2.739,0A2.739,2.739,0,1,1,-2.739,0A2.739,2.739,0,1,1,2.739,0" fill="#f58518" stroke-width="2" opacity="1"/><path aria-label="経過年数 (年): 5; 生存確率 (%): 100; Strategy: ACWI-2: Johnson SU分布 (為替あり); Year: 5; Survival Probability (%): 100.0" role="graphics-symbol" aria-roledescription="point" transform="translate(60,0)" d="M2.739,0A2.739,2.739,0,1,1,-2.739,0A2.739,2.739,0,1,1,2.739,0" fill="#f58518" stroke-width="2" opacity="1"/><path aria-label="経過年数 (年): 6; 生存確率 (%): 100; Strategy: ACWI-2: Johnson SU分布 (為替あり); Year: 6; Survival Probability (%): 100.0" role="graphics-symbol" aria-roledescription="point" transform="translate(72,0)" d="M2.739,0A2.739,2.739,0,1,1,-2.739,0A2.739,2.739,0,1,1,2.739,0" fill="#f58518" stroke-width="2" opacity="1"/><path aria-label="経過年数 (年): 7; 生存確率 (%): 100; Strategy: ACWI-2: Johnson SU分布 (為替あり); Year: 7; Survival Probability (%): 100.0" role="graphics-symbol" aria-roledescription="point" transform="translate(84.00000000000001,0)" d="M2.739,0A2.739,2.739,0,1,1,-2.739,0A2.739,2.739,0,1,1,2.739,0" fill="#f58518" stroke-width="2" opacity="1"/><path aria-label="経過年数 (年): 8; 生存確率 (%): 100; Strategy: ACWI-2: Johnson SU分布 (為替あり); Year: 8; Survival Probability (%): 100.0" role="graphics-symbol" aria-roledescription="point" transform="translate(96,0)" d="M2.739,0A2.739,2.739,0,1,1,-2.739,0A2.739,2.739,0,1,1,2.739,0" fill="#f58518" stroke-width="2" opacity="1"/><path aria-label="経過年数 (年): 9; 生存確率 (%): 99.96; Strategy: ACWI-2: Johnson SU分布 (為替あり); Year: 9; Survival Probability (%): 100.0" role="graphics-symbol" aria-roledescription="point" transform="translate(108,0.2499999999999447)" d="M2.739,0A2.739,2.739,0,1,1,-2.739,0A2.739,2.739,0,1,1,2.739,0" fill="#f58518" stroke-width="2" opacity="1"/><path aria-label="経過年数 (年): 10; 生存確率 (%): 99.86; Strategy: ACWI-2: Johnson SU分布 (為替あり); Year: 10; Survival Probability (%): 99.9" role="graphics-symbol" aria-roledescription="point" transform="translate(120,0.8750000000000147)" d="M2.739,0A2.739,2.739,0,1,1,-2.739,0A2.739,2.739,0,1,1,2.739,0" fill="#f58518" stroke-width="2" opacity="1"/><path aria-label="経過年数 (年): 11; 生存確率 (%): 99.58; Strategy: ACWI-2: Johnson SU分布 (為替あり); Year: 11; Survival Probability (%): 99.6" role="graphics-symbol" aria-roledescription="point" transform="translate(132,2.625000000000016)" d="M2.739,0A2.739,2.739,0,1,1,-2.739,0A2.739,2.739,0,1,1,2.739,0" fill="#f58518" stroke-width="2" opacity="1"/><path aria-label="経過年数 (年): 12; 生存確率 (%): 99.2; Strategy: ACWI-2: Johnson SU分布 (為替あり); Year: 12; Survival Probability (%): 99.2" role="graphics-symbol" aria-roledescription="point" transform="translate(144,4.999999999999977)" d="M2.739,0A2.739,2.739,0,1,1,-2.739,0A2.739,2.739,0,1,1,2.739,0" fill="#f58518" stroke-width="2" opacity="1"/><path aria-label="経過年数 (年): 13; 生存確率 (%): 98.74; Strategy: ACWI-2: Johnson SU分布 (為替あり); Year: 13; Survival Probability (%): 98.7" role="graphics-symbol" aria-roledescription="point" transform="translate(156,7.874999999999938)" d="M2.739,0A2.739,2.739,0,1,1,-2.739,0A2.739,2.739,0,1,1,2.739,0" fill="#f58518" stroke-width="2" opacity="1"/><path aria-label="経過年数 (年): 14; 生存確率 (%): 98.1; Strategy: ACWI-2: Johnson SU分布 (為替あり); Year: 14; Survival Probability (%): 98.1" role="graphics-symbol" aria-roledescription="point" transform="translate(168.00000000000003,11.875000000000025)" d="M2.739,0A2.739,2.739,0,1,1,-2.739,0A2.739,2.739,0,1,1,2.739,0" fill="#f58518" stroke-width="2" opacity="1"/><path aria-label="経過年数 (年): 15; 生存確率 (%): 97.1; Strategy: ACWI-2: Johnson SU分布 (為替あり); Year: 15; Survival Probability (%): 97.1" role="graphics-symbol" aria-roledescription="point" transform="translate(180,18.12500000000003)" d="M2.739,0A2.739,2.739,0,1,1,-2.739,0A2.739,2.739,0,1,1,2.739,0" fill="#f58518" stroke-width="2" opacity="1"/><path aria-label="経過年数 (年): 16; 生存確率 (%): 96.04; Strategy: ACWI-2: Johnson SU分布 (為替あり); Year: 16; Survival Probability (%): 96.0" role="graphics-symbol" aria-roledescription="point" transform="translate(192,24.749999999999968)" d="M2.739,0A2.739,2.739,0,1,1,-2.739,0A2.739,2.739,0,1,1,2.739,0" fill="#f58518" stroke-width="2" opacity="1"/><path aria-label="経過年数 (年): 17; 生存確率 (%): 94.92; Strategy: ACWI-2: Johnson SU分布 (為替あり); Year: 17; Survival Probability (%): 94.9" role="graphics-symbol" aria-roledescription="point" transform="translate(204.00000000000003,31.75)" d="M2.739,0A2.739,2.739,0,1,1,-2.739,0A2.739,2.739,0,1,1,2.739,0" fill="#f58518" stroke-width="2" opacity="1"/><path aria-label="経過年数 (年): 18; 生存確率 (%): 93.6; Strategy: ACWI-2: Johnson SU分布 (為替あり); Year: 18; Survival Probability (%): 93.6" role="graphics-symbol" aria-roledescription="point" transform="translate(216,39.99999999999995)" d="M2.739,0A2.739,2.739,0,1,1,-2.739,0A2.739,2.739,0,1,1,2.739,0" fill="#f58518" stroke-width="2" opacity="1"/><path aria-label="経過年数 (年): 19; 生存確率 (%): 92.42; Strategy: ACWI-2: Johnson SU分布 (為替あり); Year: 19; Survival Probability (%): 92.4" role="graphics-symbol" aria-roledescription="point" transform="translate(228,47.375)" d="M2.739,0A2.739,2.739,0,1,1,-2.739,0A2.739,2.739,0,1,1,2.739,0" fill="#f58518" stroke-width="2" opacity="1"/><path aria-label="経過年数 (年): 20; 生存確率 (%): 91.18; Strategy: ACWI-2: Johnson SU分布 (為替あり); Year: 20; Survival Probability (%): 91.2" role="graphics-symbol" aria-roledescription="point" transform="translate(240,55.12499999999995)" d="M2.739,0A2.739,2.739,0,1,1,-2.739,0A2.739,2.739,0,1,1,2.739,0" fill="#f58518" stroke-width="2" opacity="1"/><path aria-label="経過年数 (年): 21; 生存確率 (%): 89.84; Strategy: ACWI-2: Johnson SU分布 (為替あり); Year: 21; Survival Probability (%): 89.8" role="graphics-symbol" aria-roledescription="point" transform="translate(252,63.49999999999997)" d="M2.739,0A2.739,2.739,0,1,1,-2.739,0A2.739,2.739,0,1,1,2.739,0" fill="#f58518" stroke-width="2" opacity="1"/><path aria-label="経過年数 (年): 22; 生存確率 (%): 88.48; Strategy: ACWI-2: Johnson SU分布 (為替あり); Year: 22; Survival Probability (%): 88.5" role="graphics-symbol" aria-roledescription="point" transform="translate(264,71.99999999999999)" d="M2.739,0A2.739,2.739,0,1,1,-2.739,0A2.739,2.739,0,1,1,2.739,0" fill="#f58518" stroke-width="2" opacity="1"/><path aria-label="経過年数 (年): 23; 生存確率 (%): 87.08; Strategy: ACWI-2: Johnson SU分布 (為替あり); Year: 23; Survival Probability (%): 87.1" role="graphics-symbol" aria-roledescription="point" transform="translate(276,80.75000000000001)" d="M2.739,0A2.739,2.739,0,1,1,-2.739,0A2.739,2.739,0,1,1,2.739,0" fill="#f58518" stroke-width="2" opacity="1"/><path aria-label="経過年数 (年): 24; 生存確率 (%): 85.86; Strategy: ACWI-2: Johnson SU分布 (為替あり); Year: 24; Survival Probability (%): 85.9" role="graphics-symbol" aria-roledescription="point" transform="translate(288,88.37500000000001)" d="M2.739,0A2.739,2.739,0,1,1,-2.739,0A2.739,2.739,0,1,1,2.739,0" fill="#f58518" stroke-width="2" opacity="1"/><path aria-label="経過年数 (年): 25; 生存確率 (%): 84.28; Strategy: ACWI-2: Johnson SU分布 (為替あり); Year: 25; Survival Probability (%): 84.3" role="graphics-symbol" aria-roledescription="point" transform="translate(300,98.25)" d="M2.739,0A2.739,2.739,0,1,1,-2.739,0A2.739,2.739,0,1,1,2.739,0" fill="#f58518" stroke-width="2" opacity="1"/><path aria-label="経過年数 (年): 26; 生存確率 (%): 82.74; Strategy: ACWI-2: Johnson SU分布 (為替あり); Year: 26; Survival Probability (%): 82.7" role="graphics-symbol" aria-roledescription="point" transform="translate(312,107.87499999999994)" d="M2.739,0A2.739,2.739,0,1,1,-2.739,0A2.739,2.739,0,1,1,2.739,0" fill="#f58518" stroke-width="2" opacity="1"/><path aria-label="経過年数 (年): 27; 生存確率 (%): 81.5; Strategy: ACWI-2: Johnson SU分布 (為替あり); Year: 27; Survival Probability (%): 81.5" role="graphics-symbol" aria-roledescription="point" transform="translate(324,115.625)" d="M2.739,0A2.739,2.739,0,1,1,-2.739,0A2.739,2.739,0,1,1,2.739,0" fill="#f58518" stroke-width="2" opacity="1"/><path aria-label="経過年数 (年): 28; 生存確率 (%): 79.88; Strategy: ACWI-2: Johnson SU分布 (為替あり); Year: 28; Survival Probability (%): 79.9" role="graphics-symbol" aria-roledescription="point" transform="translate(336.00000000000006,125.75000000000003)" d="M2.739,0A2.739,2.739,0,1,1,-2.739,0A2.739,2.739,0,1,1,2.739,0" fill="#f58518" stroke-width="2" opacity="1"/><path aria-label="経過年数 (年): 29; 生存確率 (%): 78.32; Strategy: ACWI-2: Johnson SU分布 (為替あり); Year: 29; Survival Probability (%): 78.3" role="graphics-symbol" aria-roledescription="point" transform="translate(348,135.49999999999994)" d="M2.739,0A2.739,2.739,0,1,1,-2.739,0A2.739,2.739,0,1,1,2.739,0" fill="#f58518" stroke-width="2" opacity="1"/><path aria-label="経過年数 (年): 30; 生存確率 (%): 77.08; Strategy: ACWI-2: Johnson SU分布 (為替あり); Year: 30; Survival Probability (%): 77.1" role="graphics-symbol" aria-roledescription="point" transform="translate(360,143.25000000000003)" d="M2.739,0A2.739,2.739,0,1,1,-2.739,0A2.739,2.739,0,1,1,2.739,0" fill="#f58518" stroke-width="2" opacity="1"/><path aria-label="経過年数 (年): 31; 生存確率 (%): 75.88; Strategy: ACWI-2: Johnson SU分布 (為替あり); Year: 31; Survival Probability (%): 75.9" role="graphics-symbol" aria-roledescription="point" transform="translate(372,150.74999999999994)" d="M2.739,0A2.739,2.739,0,1,1,-2.739,0A2.739,2.739,0,1,1,2.739,0" fill="#f58518" stroke-width="2" opacity="1"/><path aria-label="経過年数 (年): 32; 生存確率 (%): 74.78; Strategy: ACWI-2: Johnson SU分布 (為替あり); Year: 32; Survival Probability (%): 74.8" role="graphics-symbol" aria-roledescription="point" transform="translate(384,157.625)" d="M2.739,0A2.739,2.739,0,1,1,-2.739,0A2.739,2.739,0,1,1,2.739,0" fill="#f58518" stroke-width="2" opacity="1"/><path aria-label="経過年数 (年): 33; 生存確率 (%): 73.86; Strategy: ACWI-2: Johnson SU分布 (為替あり); Year: 33; Survival Probability (%): 73.9" role="graphics-symbol" aria-roledescription="point" transform="translate(396,163.375)" d="M2.739,0A2.739,2.739,0,1,1,-2.739,0A2.739,2.739,0,1,1,2.739,0" fill="#f58518" stroke-width="2" opacity="1"/><path aria-label="経過年数 (年): 34; 生存確率 (%): 72.94; Strategy: ACWI-2: Johnson SU分布 (為替あり); Year: 34; Survival Probability (%): 72.9" role="graphics-symbol" aria-roledescription="point" transform="translate(408.00000000000006,169.12500000000003)" d="M2.739,0A2.739,2.739,0,1,1,-2.739,0A2.739,2.739,0,1,1,2.739,0" fill="#f58518" stroke-width="2" opacity="1"/><path aria-label="経過年数 (年): 35; 生存確率 (%): 71.88; Strategy: ACWI-2: Johnson SU分布 (為替あり); Year: 35; Survival Probability (%): 71.9" role="graphics-symbol" aria-roledescription="point" transform="translate(420,175.75000000000003)" d="M2.739,0A2.739,2.739,0,1,1,-2.739,0A2.739,2.739,0,1,1,2.739,0" fill="#f58518" stroke-width="2" opacity="1"/><path aria-label="経過年数 (年): 36; 生存確率 (%): 71.04; Strategy: ACWI-2: Johnson SU分布 (為替あり); Year: 36; Survival Probability (%): 71.0" role="graphics-symbol" aria-roledescription="point" transform="translate(432,180.99999999999997)" d="M2.739,0A2.739,2.739,0,1,1,-2.739,0A2.739,2.739,0,1,1,2.739,0" fill="#f58518" stroke-width="2" opacity="1"/><path aria-label="経過年数 (年): 37; 生存確率 (%): 70.1; Strategy: ACWI-2: Johnson SU分布 (為替あり); Year: 37; Survival Probability (%): 70.1" role="graphics-symbol" aria-roledescription="point" transform="translate(444,186.87500000000003)" d="M2.739,0A2.739,2.739,0,1,1,-2.739,0A2.739,2.739,0,1,1,2.739,0" fill="#f58518" stroke-width="2" opacity="1"/><path aria-label="経過年数 (年): 38; 生存確率 (%): 69.22; Strategy: ACWI-2: Johnson SU分布 (為替あり); Year: 38; Survival Probability (%): 69.2" role="graphics-symbol" aria-roledescription="point" transform="translate(456,192.37500000000003)" d="M2.739,0A2.739,2.739,0,1,1,-2.739,0A2.739,2.739,0,1,1,2.739,0" fill="#f58518" stroke-width="2" opacity="1"/><path aria-label="経過年数 (年): 39; 生存確率 (%): 68.3; Strategy: ACWI-2: Johnson SU分布 (為替あり); Year: 39; Survival Probability (%): 68.3" role="graphics-symbol" aria-roledescription="point" transform="translate(468,198.12499999999994)" d="M2.739,0A2.739,2.739,0,1,1,-2.739,0A2.739,2.739,0,1,1,2.739,0" fill="#f58518" stroke-width="2" opacity="1"/><path aria-label="経過年数 (年): 40; 生存確率 (%): 67.6; Strategy: ACWI-2: Johnson SU分布 (為替あり); Year: 40; Survival Probability (%): 67.6" role="graphics-symbol" aria-roledescription="point" transform="translate(480,202.49999999999997)" d="M2.739,0A2.739,2.739,0,1,1,-2.739,0A2.739,2.739,0,1,1,2.739,0" fill="#f58518" stroke-width="2" opacity="1"/><path aria-label="経過年数 (年): 41; 生存確率 (%): 66.94; Strategy: ACWI-2: Johnson SU分布 (為替あり); Year: 41; Survival Probability (%): 66.9" role="graphics-symbol" aria-roledescription="point" transform="translate(491.99999999999994,206.625)" d="M2.739,0A2.739,2.739,0,1,1,-2.739,0A2.739,2.739,0,1,1,2.739,0" fill="#f58518" stroke-width="2" opacity="1"/><path aria-label="経過年数 (年): 42; 生存確率 (%): 66.36; Strategy: ACWI-2: Johnson SU分布 (為替あり); Year: 42; Survival Probability (%): 66.4" role="graphics-symbol" aria-roledescription="point" transform="translate(504,210.25)" d="M2.739,0A2.739,2.739,0,1,1,-2.739,0A2.739,2.739,0,1,1,2.739,0" fill="#f58518" stroke-width="2" opacity="1"/><path aria-label="経過年数 (年): 43; 生存確率 (%): 65.98; Strategy: ACWI-2: Johnson SU分布 (為替あり); Year: 43; Survival Probability (%): 66.0" role="graphics-symbol" aria-roledescription="point" transform="translate(516,212.62499999999997)" d="M2.739,0A2.739,2.739,0,1,1,-2.739,0A2.739,2.739,0,1,1,2.739,0" fill="#f58518" stroke-width="2" opacity="1"/><path aria-label="経過年数 (年): 44; 生存確率 (%): 65.4; Strategy: ACWI-2: Johnson SU分布 (為替あり); Year: 44; Survival Probability (%): 65.4" role="graphics-symbol" aria-roledescription="point" transform="translate(528,216.24999999999997)" d="M2.739,0A2.739,2.739,0,1,1,-2.739,0A2.739,2.739,0,1,1,2.739,0" fill="#f58518" stroke-width="2" opacity="1"/><path aria-label="経過年数 (年): 45; 生存確率 (%): 64.94; Strategy: ACWI-2: Johnson SU分布 (為替あり); Year: 45; Survival Probability (%): 64.9" role="graphics-symbol" aria-roledescription="point" transform="translate(540,219.125)" d="M2.739,0A2.739,2.739,0,1,1,-2.739,0A2.739,2.739,0,1,1,2.739,0" fill="#f58518" stroke-width="2" opacity="1"/><path aria-label="経過年数 (年): 46; 生存確率 (%): 64.26; Strategy: ACWI-2: Johnson SU分布 (為替あり); Year: 46; Survival Probability (%): 64.3" role="graphics-symbol" aria-roledescription="point" transform="translate(552,223.37500000000006)" d="M2.739,0A2.739,2.739,0,1,1,-2.739,0A2.739,2.739,0,1,1,2.739,0" fill="#f58518" stroke-width="2" opacity="1"/><path aria-label="経過年数 (年): 47; 生存確率 (%): 63.74; Strategy: ACWI-2: Johnson SU分布 (為替あり); Year: 47; Survival Probability (%): 63.7" role="graphics-symbol" aria-roledescription="point" transform="translate(564,226.62500000000003)" d="M2.739,0A2.739,2.739,0,1,1,-2.739,0A2.739,2.739,0,1,1,2.739,0" fill="#f58518" stroke-width="2" opacity="1"/><path aria-label="経過年数 (年): 48; 生存確率 (%): 63.14; Strategy: ACWI-2: Johnson SU分布 (為替あり); Year: 48; Survival Probability (%): 63.1" role="graphics-symbol" aria-roledescription="point" transform="translate(576,230.37500000000006)" d="M2.739,0A2.739,2.739,0,1,1,-2.739,0A2.739,2.739,0,1,1,2.739,0" fill="#f58518" stroke-width="2" opacity="1"/><path aria-label="経過年数 (年): 49; 生存確率 (%): 62.68; Strategy: ACWI-2: Johnson SU分布 (為替あり); Year: 49; Survival Probability (%): 62.7" role="graphics-symbol" aria-roledescription="point" transform="translate(588,233.25)" d="M2.739,0A2.739,2.739,0,1,1,-2.739,0A2.739,2.739,0,1,1,2.739,0" fill="#f58518" stroke-width="2" opacity="1"/><path aria-label="経過年数 (年): 50; 生存確率 (%): 62.44; Strategy: ACWI-2: Johnson SU分布 (為替あり); Year: 50; Survival Probability (%): 62.4" role="graphics-symbol" aria-roledescription="point" transform="translate(600,234.75)" d="M2.739,0A2.739,2.739,0,1,1,-2.739,0A2.739,2.739,0,1,1,2.739,0" fill="#f58518" stroke-width="2" opacity="1"/></g><g class="mark-group role-legend" role="graphics-symbol" aria-roledescription="legend" aria-label="Symbol legend titled '戦略' for fill color and stroke color with 2 values: ACWI-1: 対数正規分布 (為替あり), ACWI-2: Johnson SU分布 (為替あり)"><g transform="translate(0,-47)"><path class="background" aria-hidden="true" d="M0,0h353v29h-353Z" pointer-events="none"/><g><g class="mark-group role-legend-entry"><g transform="translate(0,16)"><path class="background" aria-hidden="true" d="M0,0h0v0h0Z" pointer-events="none"/><g><g class="mark-group role-scope" role="graphics-object" aria-roledescription="group mark container"><g transform="translate(0,0.25)"><path class="background" aria-hidden="true" d="M0,0h165.9951171875v12.5h-165.9951171875Z" pointer-events="none" opacity="1"/><g><g class="mark-symbol role-legend-symbol" pointer-events="none"><path transform="translate(6,6)" d="M5,0A5,5,0,1,1,-5,0A5,5,0,1,1,5,0" fill="#4c78a8" stroke="#4c78a8" stroke-width="1.5" opacity="1"/></g><g class="mark-text role-legend-label" pointer-events="none"><text text-anchor="start" transform="translate(16,9)" font-family="sans-serif" font-size="10px" fill="#000" opacity="1">ACWI-1: 対数正規分布 (為替あり)</text></g></g><path class="foreground" aria-hidden="true" d="" pointer-events="none" display="none"/></g><g transform="translate(177,0.25)"><path class="background" aria-hidden="true" d="M0,0h176v12.5h-176Z" pointer-events="none" opacity="1"/><g><g class="mark-symbol role-legend-symbol" pointer-events="none"><path transform="translate(6,6)" d="M5,0A5,5,0,1,1,-5,0A5,5,0,1,1,5,0" fill="#f58518" stroke="#f58518" stroke-width="1.5" opacity="1"/></g><g class="mark-text role-legend-label" pointer-events="none"><text text-anchor="start" transform="translate(16,9)" font-family="sans-serif" font-size="10px" fill="#000" opacity="1">ACWI-2: Johnson SU分布 (為替…</text></g></g><path class="foreground" aria-hidden="true" d="" pointer-events="none" display="none"/></g></g></g><path class="foreground" aria-hidden="true" d="" pointer-events="none" display="none"/></g></g><g class="mark-text role-legend-title" pointer-events="none"><text text-anchor="start" transform="translate(0,9)" font-family="sans-serif" font-size="11px" font-weight="bold" fill="#000" opacity="1">戦略</text></g></g><path class="foreground" aria-hidden="true" d="" pointer-events="none" display="none"/></g></g><g class="mark-group role-title"><g transform="translate(300,-64)"><path class="background" aria-hidden="true" d="M0,0h0v0h0Z" pointer-events="none"/><g><g class="mark-text role-title-text" role="graphics-symbol" aria-roledescription="title" aria-label="Title text '経過年数と生存確率の推移（生存確率 60%以下は描画を省略）'" pointer-events="none"><text text-anchor="middle" transform="translate(0,10)" font-family="sans-serif" font-size="13px" font-weight="bold" fill="#000" opacity="1">経過年数と生存確率の推移（生存確率 60%以下は描画を省略）</text></g></g><path class="foreground" aria-hidden="true" d="" pointer-events="none" display="none"/></g></g></g><path class="foreground" aria-hidden="true" d="" display="none"/></g></g></g><defs><clipPath id="clip3"><rect x="0" y="0" width="600" height="250"/></clipPath><clipPath id="clip4"><rect x="0" y="0" width="600" height="250"/></clipPath><clipPath id="clip5"><rect x="0" y="0" width="600" height="250"/></clipPath></defs></svg>