<svg xmlns="http://www.w3.org/2000/svg" xmlns:xlink="http://www.w3.org/1999/xlink" version="1.1" class="marks" width="645" height="504" viewBox="0 0 645 504"><rect width="645" height="504" fill="white"/><g fill="none" stroke-miterlimit="10" transform="translate(39,67)"><g class="mark-group role-frame root" role="graphics-object" aria-roledescription="group mark container"><g transform="translate(0,0)"><path class="background" aria-hidden="true" d="M0.5,0.5h600v400h-600Z" stroke="#ddd"/><g><g class="mark-group role-axis" aria-hidden="true"><g transform="translate(0.5,400.5)"><path class="background" aria-hidden="true" d="M0,0h0v0h0Z" pointer-events="none"/><g><g class="mark-rule role-axis-grid" pointer-events="none"><line transform="translate(13,-400)" x2="0" y2="400" stroke="#ddd" stroke-width="1" opacity="1"/><line transform="translate(40,-400)" x2="0" y2="400" stroke="#ddd" stroke-width="1" opacity="1"/><line transform="translate(67,-400)" x2="0" y2="400" stroke="#ddd" stroke-width="1" opacity="1"/><line transform="translate(93,-400)" x2="0" y2="400" stroke="#ddd" stroke-width="1" opacity="1"/><line transform="translate(120,-400)" x2="0" y2="400" stroke="#ddd" stroke-width="1" opacity="1"/><line transform="translate(147,-400)" x2="0" y2="400" stroke="#ddd" stroke-width="1" opacity="1"/><line transform="translate(173,-400)" x2="0" y2="400" stroke="#ddd" stroke-width="1" opacity="1"/><line transform="translate(200,-400)" x2="0" y2="400" stroke="#ddd" stroke-width="1" opacity="1"/><line transform="translate(227,-400)" x2="0" y2="400" stroke="#ddd" stroke-width="1" opacity="1"/><line transform="translate(253,-400)" x2="0" y2="400" stroke="#ddd" stroke-width="1" opacity="1"/><line transform="translate(280,-400)" x2="0" y2="400" stroke="#ddd" stroke-width="1" opacity="1"/><line transform="translate(307,-400)" x2="0" y2="400" stroke="#ddd" stroke-width="1" opacity="1"/><line transform="translate(333,-400)" x2="0" y2="400" stroke="#ddd" stroke-width="1" opacity="1"/><line transform="translate(360,-400)" x2="0" y2="400" stroke="#ddd" stroke-width="1" opacity="1"/><line transform="translate(387,-400)" x2="0" y2="400" stroke="#ddd" stroke-width="1" opacity="1"/><line transform="translate(413,-400)" x2="0" y2="400" stroke="#ddd" stroke-width="1" opacity="1"/><line transform="translate(440,-400)" x2="0" y2="400" stroke="#ddd" stroke-width="1" opacity="1"/><line transform="translate(467,-400)" x2="0" y2="400" stroke="#ddd" stroke-width="1" opacity="1"/><line transform="translate(493,-400)" x2="0" y2="400" stroke="#ddd" stroke-width="1" opacity="1"/><line transform="translate(520,-400)" x2="0" y2="400" stroke="#ddd" stroke-width="1" opacity="1"/><line transform="translate(547,-400)" x2="0" y2="400" stroke="#ddd" stroke-width="1" opacity="1"/><line transform="translate(573,-400)" x2="0" y2="400" stroke="#ddd" stroke-width="1" opacity="1"/><line transform="translate(600,-400)" x2="0" y2="400" stroke="#ddd" stroke-width="1" opacity="1"/></g></g><path class="foreground" aria-hidden="true" d="" pointer-events="none" display="none"/></g></g><g class="mark-group role-axis" aria-hidden="true"><g transform="translate(0.5,0.5)"><path class="background" aria-hidden="true" d="M0,0h0v0h0Z" pointer-events="none"/><g><g class="mark-rule role-axis-grid" pointer-events="none"><line transform="translate(0,400)" x2="600" y2="0" stroke="#ddd" stroke-width="1" opacity="1"/><line transform="translate(0,350)" x2="600" y2="0" stroke="#ddd" stroke-width="1" opacity="1"/><line transform="translate(0,300)" x2="600" y2="0" stroke="#ddd" stroke-width="1" opacity="1"/><line transform="translate(0,250)" x2="600" y2="0" stroke="#ddd" stroke-width="1" opacity="1"/><line transform="translate(0,200)" x2="600" y2="0" stroke="#ddd" stroke-width="1" opacity="1"/><line transform="translate(0,150)" x2="600" y2="0" stroke="#ddd" stroke-width="1" opacity="1"/><line transform="translate(0,100)" x2="600" y2="0" stroke="#ddd" stroke-width="1" opacity="1"/><line transform="translate(0,50)" x2="600" y2="0" stroke="#ddd" stroke-width="1" opacity="1"/><line transform="translate(0,0)" x2="600" y2="0" stroke="#ddd" stroke-width="1" opacity="1"/></g></g><path class="foreground" aria-hidden="true" d="" pointer-events="none" display="none"/></g></g><g class="mark-group role-axis" role="graphics-symbol" aria-roledescription="axis" aria-label="X-axis titled '対数リターン' for a linear scale with values from −0.3 to 0.2"><g transform="translate(0.5,400.5)"><path class="background" aria-hidden="true" d="M0,0h0v0h0Z" pointer-events="none"/><g><g class="mark-rule role-axis-tick" pointer-events="none"><line transform="translate(13,0)" x2="0" y2="5" stroke="#888" stroke-width="1" opacity="1"/><line transform="translate(40,0)" x2="0" y2="5" stroke="#888" stroke-width="1" opacity="1"/><line transform="translate(67,0)" x2="0" y2="5" stroke="#888" stroke-width="1" opacity="1"/><line transform="translate(93,0)" x2="0" y2="5" stroke="#888" stroke-width="1" opacity="1"/><line transform="translate(120,0)" x2="0" y2="5" stroke="#888" stroke-width="1" opacity="1"/><line transform="translate(147,0)" x2="0" y2="5" stroke="#888" stroke-width="1" opacity="1"/><line transform="translate(173,0)" x2="0" y2="5" stroke="#888" stroke-width="1" opacity="1"/><line transform="translate(200,0)" x2="0" y2="5" stroke="#888" stroke-width="1" opacity="1"/><line transform="translate(227,0)" x2="0" y2="5" stroke="#888" stroke-width="1" opacity="1"/><line transform="translate(253,0)" x2="0" y2="5" stroke="#888" stroke-width="1" opacity="1"/><line transform="translate(280,0)" x2="0" y2="5" stroke="#888" stroke-width="1" opacity="1"/><line transform="translate(307,0)" x2="0" y2="5" stroke="#888" stroke-width="1" opacity="1"/><line transform="translate(333,0)" x2="0" y2="5" stroke="#888" stroke-width="1" opacity="1"/><line transform="translate(360,0)" x2="0" y2="5" stroke="#888" stroke-width="1" opacity="1"/><line transform="translate(387,0)" x2="0" y2="5" stroke="#888" stroke-width="1" opacity="1"/><line transform="translate(413,0)" x2="0" y2="5" stroke="#888" stroke-width="1" opacity="1"/><line transform="translate(440,0)" x2="0" y2="5" stroke="#888" stroke-width="1" opacity="1"/><line transform="translate(467,0)" x2="0" y2="5" stroke="#888" stroke-width="1" opacity="1"/><line transform="translate(493,0)" x2="0" y2="5" stroke="#888" stroke-width="1" opacity="1"/><line transform="translate(520,0)" x2="0" y2="5" stroke="#888" stroke-width="1" opacity="1"/><line transform="translate(547,0)" x2="0" y2="5" stroke="#888" stroke-width="1" opacity="1"/><line transform="translate(573,0)" x2="0" y2="5" stroke="#888" stroke-width="1" opacity="1"/><line transform="translate(600,0)" x2="0" y2="5" stroke="#888" stroke-width="1" opacity="1"/></g><g class="mark-text role-axis-label" pointer-events="none"><text text-anchor="middle" transform="translate(13.333333333333345,15)" font-family="sans-serif" font-size="10px" fill="#000" opacity="1">−0.24</text><text text-anchor="middle" transform="translate(40,15)" font-family="sans-serif" font-size="10px" fill="#000" opacity="0">−0.22</text><text text-anchor="middle" transform="translate(66.66666666666664,15)" font-family="sans-serif" font-size="10px" fill="#000" opacity="1">−0.20</text><text text-anchor="middle" transform="translate(93.33333333333333,15)" font-family="sans-serif" font-size="10px" fill="#000" opacity="0">−0.18</text><text text-anchor="middle" transform="translate(119.99999999999999,15)" font-family="sans-serif" font-size="10px" fill="#000" opacity="1">−0.16</text><text text-anchor="middle" transform="translate(146.66666666666666,15)" font-family="sans-serif" font-size="10px" fill="#000" opacity="0">−0.14</text><text text-anchor="middle" transform="translate(173.33333333333334,15)" font-family="sans-serif" font-size="10px" fill="#000" opacity="1">−0.12</text><text text-anchor="middle" transform="translate(200,15)" font-family="sans-serif" font-size="10px" fill="#000" opacity="0">−0.10</text><text text-anchor="middle" transform="translate(226.66666666666663,15)" font-family="sans-serif" font-size="10px" fill="#000" opacity="1">−0.08</text><text text-anchor="middle" transform="translate(253.33333333333334,15)" font-family="sans-serif" font-size="10px" fill="#000" opacity="0">−0.06</text><text text-anchor="middle" transform="translate(279.99999999999994,15)" font-family="sans-serif" font-size="10px" fill="#000" opacity="1">−0.04</text><text text-anchor="middle" transform="translate(306.66666666666663,15)" font-family="sans-serif" font-size="10px" fill="#000" opacity="0">−0.02</text><text text-anchor="middle" transform="translate(333.33333333333337,15)" font-family="sans-serif" font-size="10px" fill="#000" opacity="1">0.00</text><text text-anchor="middle" transform="translate(360,15)" font-family="sans-serif" font-size="10px" fill="#000" opacity="0">0.02</text><text text-anchor="middle" transform="translate(386.66666666666663,15)" font-family="sans-serif" font-size="10px" fill="#000" opacity="1">0.04</text><text text-anchor="middle" transform="translate(413.3333333333333,15)" font-family="sans-serif" font-size="10px" fill="#000" opacity="0">0.06</text><text text-anchor="middle" transform="translate(440.00000000000006,15)" font-family="sans-serif" font-size="10px" fill="#000" opacity="1">0.08</text><text text-anchor="middle" transform="translate(466.66666666666663,15)" font-family="sans-serif" font-size="10px" fill="#000" opacity="0">0.10</text><text text-anchor="middle" transform="translate(493.3333333333333,15)" font-family="sans-serif" font-size="10px" fill="#000" opacity="1">0.12</text><text text-anchor="middle" transform="translate(520,15)" font-family="sans-serif" font-size="10px" fill="#000" opacity="0">0.14</text><text text-anchor="middle" transform="translate(546.6666666666667,15)" font-family="sans-serif" font-size="10px" fill="#000" opacity="1">0.16</text><text text-anchor="middle" transform="translate(573.3333333333333,15)" font-family="sans-serif" font-size="10px" fill="#000" opacity="0">0.18</text><text text-anchor="end" transform="translate(600,15)" font-family="sans-serif" font-size="10px" fill="#000" opacity="1">0.20</text></g><g class="mark-rule role-axis-domain" pointer-events="none"><line transform="translate(0,0)" x2="600" y2="0" stroke="#888" stroke-width="1" opacity="1"/></g><g class="mark-text role-axis-title" pointer-events="none"><text text-anchor="middle" transform="translate(300,30)" font-family="sans-serif" font-size="11px" font-weight="bold" fill="#000" opacity="1">対数リターン</text></g></g><path class="foreground" aria-hidden="true" d="" pointer-events="none" display="none"/></g></g><g class="mark-group role-axis" role="graphics-symbol" aria-roledescription="axis" aria-label="Y-axis titled '頻度' for a linear scale with values from 0 to 16"><g transform="translate(0.5,0.5)"><path class="background" aria-hidden="true" d="M0,0h0v0h0Z" pointer-events="none"/><g><g class="mark-rule role-axis-tick" pointer-events="none"><line transform="translate(0,400)" x2="-5" y2="0" stroke="#888" stroke-width="1" opacity="1"/><line transform="translate(0,350)" x2="-5" y2="0" stroke="#888" stroke-width="1" opacity="1"/><line transform="translate(0,300)" x2="-5" y2="0" stroke="#888" stroke-width="1" opacity="1"/><line transform="translate(0,250)" x2="-5" y2="0" stroke="#888" stroke-width="1" opacity="1"/><line transform="translate(0,200)" x2="-5" y2="0" stroke="#888" stroke-width="1" opacity="1"/><line transform="translate(0,150)" x2="-5" y2="0" stroke="#888" stroke-width="1" opacity="1"/><line transform="translate(0,100)" x2="-5" y2="0" stroke="#888" stroke-width="1" opacity="1"/><line transform="translate(0,50)" x2="-5" y2="0" stroke="#888" stroke-width="1" opacity="1"/><line transform="translate(0,0)" x2="-5" y2="0" stroke="#888" stroke-width="1" opacity="1"/></g><g class="mark-text role-axis-label" pointer-events="none"><text text-anchor="end" transform="translate(-7,403)" font-family="sans-serif" font-size="10px" fill="#000" opacity="1">0</text><text text-anchor="end" transform="translate(-7,353)" font-family="sans-serif" font-size="10px" fill="#000" opacity="1">2</text><text text-anchor="end" transform="translate(-7,303)" font-family="sans-serif" font-size="10px" fill="#000" opacity="1">4</text><text text-anchor="end" transform="translate(-7,253)" font-family="sans-serif" font-size="10px" fill="#000" opacity="1">6</text><text text-anchor="end" transform="translate(-7,203)" font-family="sans-serif" font-size="10px" fill="#000" opacity="1">8</text><text text-anchor="end" transform="translate(-7,153)" font-family="sans-serif" font-size="10px" fill="#000" opacity="1">10</text><text text-anchor="end" transform="translate(-7,103)" font-family="sans-serif" font-size="10px" fill="#000" opacity="1">12</text><text text-anchor="end" transform="translate(-7,53)" font-family="sans-serif" font-size="10px" fill="#000" opacity="1">14</text><text text-anchor="end" transform="translate(-7,3)" font-family="sans-serif" font-size="10px" fill="#000" opacity="1">16</text></g><g class="mark-rule role-axis-domain" pointer-events="none"><line transform="translate(0,400)" x2="0" y2="-400" stroke="#888" stroke-width="1" opacity="1"/></g><g class="mark-text role-axis-title" pointer-events="none"><text text-anchor="middle" transform="translate(-22.123046875,200) rotate(-90) translate(0,-2)" font-family="sans-serif" font-size="11px" font-weight="bold" fill="#000" opacity="1">頻度</text></g></g><path class="foreground" aria-hidden="true" d="" pointer-events="none" display="none"/></g></g><g class="mark-rect role-mark layer_0_marks" role="graphics-object" aria-roledescription="rect mark container"><path aria-label="対数リターン: −0.180818602656; 頻度: 0.441434286588" role="graphics-symbol" aria-roledescription="bar" d="M89.74186312471365,388.9641428352984h5v11.03585716470161h-5Z" fill="gray" opacity="0.4"/><path aria-label="対数リターン: −0.174728971369; 頻度: 0" role="graphics-symbol" aria-roledescription="bar" d="M97.86137150813403,400h5v0h-5Z" fill="gray" opacity="0.4"/><path aria-label="対数リターン: −0.168639340081; 頻度: 0" role="graphics-symbol" aria-roledescription="bar" d="M105.9808798915545,400h5v0h-5Z" fill="gray" opacity="0.4"/><path aria-label="対数リターン: −0.162549708794; 頻度: 0" role="graphics-symbol" aria-roledescription="bar" d="M114.10038827497495,400h5v0h-5Z" fill="gray" opacity="0.4"/><path aria-label="対数リターン: −0.156460077506; 頻度: 0.441434286588" role="graphics-symbol" aria-roledescription="bar" d="M122.21989665839533,388.9641428352984h5v11.03585716470161h-5Z" fill="gray" opacity="0.4"/><path aria-label="対数リターン: −0.150370446219; 頻度: 0" role="graphics-symbol" aria-roledescription="bar" d="M130.33940504181578,400h5v0h-5Z" fill="gray" opacity="0.4"/><path aria-label="対数リターン: −0.144280814931; 頻度: 0" role="graphics-symbol" aria-roledescription="bar" d="M138.45891342523618,400h5v0h-5Z" fill="gray" opacity="0.4"/><path aria-label="対数リターン: −0.138191183644; 頻度: 0" role="graphics-symbol" aria-roledescription="bar" d="M146.57842180865663,400h5v0h-5Z" fill="gray" opacity="0.4"/><path aria-label="対数リターン: −0.132101552356; 頻度: 0.441434286588" role="graphics-symbol" aria-roledescription="bar" d="M154.69793019207702,388.9641428352984h5v11.03585716470161h-5Z" fill="gray" opacity="0.4"/><path aria-label="対数リターン: −0.126011921068; 頻度: 0" role="graphics-symbol" aria-roledescription="bar" d="M162.81743857549748,400h5v0h-5Z" fill="gray" opacity="0.4"/><path aria-label="対数リターン: −0.119922289781; 頻度: 0" role="graphics-symbol" aria-roledescription="bar" d="M170.9369469589179,400h5v0h-5Z" fill="gray" opacity="0.4"/><path aria-label="対数リターン: −0.113832658493; 頻度: 0.882868573176" role="graphics-symbol" aria-roledescription="bar" d="M179.05645534233832,377.92828567059684h5v22.071714329403164h-5Z" fill="gray" opacity="0.4"/><path aria-label="対数リターン: −0.107743027206; 頻度: 0" role="graphics-symbol" aria-roledescription="bar" d="M187.17596372575878,400h5v0h-5Z" fill="gray" opacity="0.4"/><path aria-label="対数リターン: −0.101653395918; 頻度: 0" role="graphics-symbol" aria-roledescription="bar" d="M195.29547210917917,400h5v0h-5Z" fill="gray" opacity="0.4"/><path aria-label="対数リターン: −0.0955637646306; 頻度: 1.76573714635" role="graphics-symbol" aria-roledescription="bar" d="M203.41498049259965,355.8565713411936h5v44.143428658806386h-5Z" fill="gray" opacity="0.4"/><path aria-label="対数リターン: −0.089474133343; 頻度: 1.32430285976" role="graphics-symbol" aria-roledescription="bar" d="M211.53448887602008,366.89242850589517h5v33.10757149410483h-5Z" fill="gray" opacity="0.4"/><path aria-label="対数リターン: −0.0833845020554; 頻度: 2.64860571953" role="graphics-symbol" aria-roledescription="bar" d="M219.65399725944047,333.78485701179034h5v66.21514298820966h-5Z" fill="gray" opacity="0.4"/><path aria-label="対数リターン: −0.0772948707679; 頻度: 0.441434286588" role="graphics-symbol" aria-roledescription="bar" d="M227.7735056428609,388.96414283529845h5v11.035857164701554h-5Z" fill="gray" opacity="0.4"/><path aria-label="対数リターン: −0.0712052394803; 頻度: 1.32430285976" role="graphics-symbol" aria-roledescription="bar" d="M235.89301402628132,366.89242850589517h5v33.10757149410483h-5Z" fill="gray" opacity="0.4"/><path aria-label="対数リターン: −0.0651156081927; 頻度: 2.20717143294" role="graphics-symbol" aria-roledescription="bar" d="M244.01252240970177,344.82071417649195h5v55.17928582350805h-5Z" fill="gray" opacity="0.4"/><path aria-label="対数リターン: −0.0590259769052; 頻度: 2.64860571953" role="graphics-symbol" aria-roledescription="bar" d="M252.13203079312217,333.78485701179034h5v66.21514298820966h-5Z" fill="gray" opacity="0.4"/><path aria-label="対数リターン: −0.0529363456176; 頻度: 2.64860571953" role="graphics-symbol" aria-roledescription="bar" d="M260.2515391765426,333.78485701179034h5v66.21514298820966h-5Z" fill="gray" opacity="0.4"/><path aria-label="対数リターン: −0.04684671433; 頻度: 1.76573714635" role="graphics-symbol" aria-roledescription="bar" d="M268.3710475599631,355.8565713411937h5v44.14342865880627h-5Z" fill="gray" opacity="0.4"/><path aria-label="対数リターン: −0.0407570830425; 頻度: 2.20717143294" role="graphics-symbol" aria-roledescription="bar" d="M276.49055594338347,344.82071417649195h5v55.17928582350805h-5Z" fill="gray" opacity="0.4"/><path aria-label="対数リターン: −0.0346674517549; 頻度: 3.09004000612" role="graphics-symbol" aria-roledescription="bar" d="M284.6100643268039,322.7489998470887h5v77.25100015291127h-5Z" fill="gray" opacity="0.4"/><path aria-label="対数リターン: −0.0285778204673; 頻度: 4.85577715247" role="graphics-symbol" aria-roledescription="bar" d="M292.7295727102243,278.6055711882822h5v121.39442881171777h-5Z" fill="gray" opacity="0.4"/><path aria-label="対数リターン: −0.0224881891798; 頻度: 5.73864572564" role="graphics-symbol" aria-roledescription="bar" d="M300.84908109364477,256.533856858879h5v143.466143141121h-5Z" fill="gray" opacity="0.4"/><path aria-label="対数リターン: −0.0163985578922; 頻度: 9.71155430494" role="graphics-symbol" aria-roledescription="bar" d="M308.96858947706517,157.21114237656448h5v242.78885762343552h-5Z" fill="gray" opacity="0.4"/><path aria-label="対数リターン: −0.0103089266046; 頻度: 4.41434286588" role="graphics-symbol" aria-roledescription="bar" d="M317.0880978604856,289.64142835298435h5v110.35857164701565h-5Z" fill="gray" opacity="0.4"/><path aria-label="対数リターン: −0.00421929531707; 頻度: 4.85577715247" role="graphics-symbol" aria-roledescription="bar" d="M325.20760624390607,278.6055711882822h5v121.39442881171777h-5Z" fill="gray" opacity="0.4"/><path aria-label="対数リターン: 0.00187033597049; 頻度: 10.5944228781" role="graphics-symbol" aria-roledescription="bar" d="M333.32711462732647,135.13942804716126h5v264.86057195283877h-5Z" fill="gray" opacity="0.4"/><path aria-label="対数リターン: 0.00795996725806; 頻度: 11.0358571647" role="graphics-symbol" aria-roledescription="bar" d="M341.4466230107469,124.10357088245969h5v275.8964291175403h-5Z" fill="gray" opacity="0.4"/><path aria-label="対数リターン: 0.0140495985456; 頻度: 11.0358571647" role="graphics-symbol" aria-roledescription="bar" d="M349.5661313941673,124.10357088245969h5v275.8964291175403h-5Z" fill="gray" opacity="0.4"/><path aria-label="対数リターン: 0.0201392298332; 頻度: 14.5673314574" role="graphics-symbol" aria-roledescription="bar" d="M357.68563977758777,35.81671356484675h5v364.18328643515326h-5Z" fill="gray" opacity="0.4"/><path aria-label="対数リターン: 0.0262288611208; 頻度: 9.27012001835" role="graphics-symbol" aria-roledescription="bar" d="M365.80514816100816,168.2469995412661h5v231.7530004587339h-5Z" fill="gray" opacity="0.4"/><path aria-label="対数リターン: 0.0323184924083; 頻度: 8.82868573176" role="graphics-symbol" aria-roledescription="bar" d="M373.9246565444286,179.28285670596873h5v220.71714329403127h-5Z" fill="gray" opacity="0.4"/><path aria-label="対数リターン: 0.0384081236959; 頻度: 12.3601600245" role="graphics-symbol" aria-roledescription="bar" d="M382.04416492784907,90.9959993883548h5v309.0040006116452h-5Z" fill="gray" opacity="0.4"/><path aria-label="対数リターン: 0.0444977549835; 頻度: 5.29721143906" role="graphics-symbol" aria-roledescription="bar" d="M390.16367331126946,267.5697140235807h5v132.43028597641933h-5Z" fill="gray" opacity="0.4"/><path aria-label="対数リターン: 0.050587386271; 頻度: 4.85577715247" role="graphics-symbol" aria-roledescription="bar" d="M398.2831816946899,278.6055711882822h5v121.39442881171777h-5Z" fill="gray" opacity="0.4"/><path aria-label="対数リターン: 0.0566770175586; 頻度: 7.504382872" role="graphics-symbol" aria-roledescription="bar" d="M406.4026900781103,212.39042820007253h5v187.60957179992747h-5Z" fill="gray" opacity="0.4"/><path aria-label="対数リターン: 0.0627666488461; 頻度: 3.97290857929" role="graphics-symbol" aria-roledescription="bar" d="M414.52219846153076,300.6772855176855h5v99.3227144823145h-5Z" fill="gray" opacity="0.4"/><path aria-label="対数リターン: 0.0688562801337; 頻度: 2.20717143294" role="graphics-symbol" aria-roledescription="bar" d="M422.6417068449511,344.82071417649195h5v55.17928582350805h-5Z" fill="gray" opacity="0.4"/><path aria-label="対数リターン: 0.0749459114213; 頻度: 3.09004000612" role="graphics-symbol" aria-roledescription="bar" d="M430.76121522837155,322.748999847089h5v77.25100015291099h-5Z" fill="gray" opacity="0.4"/><path aria-label="対数リターン: 0.0810355427088; 頻度: 1.76573714635" role="graphics-symbol" aria-roledescription="bar" d="M438.88072361179206,355.85657134119333h5v44.14342865880667h-5Z" fill="gray" opacity="0.4"/><path aria-label="対数リターン: 0.0871251739964; 頻度: 1.76573714635" role="graphics-symbol" aria-roledescription="bar" d="M447.0002319952124,355.8565713411937h5v44.14342865880627h-5Z" fill="gray" opacity="0.4"/><path aria-label="対数リターン: 0.093214805284; 頻度: 0.882868573176" role="graphics-symbol" aria-roledescription="bar" d="M455.1197403786329,377.9282856705969h5v22.071714329403108h-5Z" fill="gray" opacity="0.4"/><path aria-label="対数リターン: 0.0993044365715; 頻度: 0" role="graphics-symbol" aria-roledescription="bar" d="M463.2392487620533,400h5v0h-5Z" fill="gray" opacity="0.4"/><path aria-label="対数リターン: 0.105394067859; 頻度: 0.882868573176" role="graphics-symbol" aria-roledescription="bar" d="M471.35875714547376,377.9282856705969h5v22.071714329403108h-5Z" fill="gray" opacity="0.4"/><path aria-label="対数リターン: 0.111483699147; 頻度: 0" role="graphics-symbol" aria-roledescription="bar" d="M479.4782655288942,400h5v0h-5Z" fill="gray" opacity="0.4"/><path aria-label="対数リターン: 0.117573330434; 頻度: 0.441434286588" role="graphics-symbol" aria-roledescription="bar" d="M487.5977739123146,388.96414283529845h5v11.035857164701554h-5Z" fill="gray" opacity="0.4"/></g><g class="mark-group role-scope layer_1_pathgroup" role="graphics-object" aria-roledescription="group mark container"><g transform="translate(0,0)"><path class="background" aria-hidden="true" d="M0,0h600v400h-600Z"/><g><g class="mark-line role-mark layer_1_marks" role="graphics-object" aria-roledescription="line mark container"><path aria-label="リターン: −0.2338634183; 頻度: 0.00000189851625382; モデル: 正規分布" role="graphics-symbol" aria-roledescription="line mark" d="M21.515,400L22.055,400L22.595,400L23.135,400L23.675,400L24.215,400L24.755,400L25.294,400L25.834,400L26.374,400L26.914,400L27.454,400L27.994,400L28.533,400L29.073,400L29.613,400L30.153,400L30.693,400L31.233,400L31.773,400L32.312,400L32.852,400L33.392,400L33.932,400L34.472,400L35.012,400L35.552,400L36.091,400L36.631,400L37.171,400L37.711,400L38.251,400L38.791,400L39.33,400L39.87,400L40.41,400L40.95,400L41.49,400L42.03,400L42.57,400L43.109,400L43.649,400L44.189,400L44.729,400L45.269,400L45.809,400L46.348,400L46.888,400L47.428,399.999L47.968,399.999L48.508,399.999L49.048,399.999L49.588,399.999L50.127,399.999L50.667,399.999L51.207,399.999L51.747,399.999L52.287,399.999L52.827,399.999L53.367,399.999L53.906,399.999L54.446,399.999L54.986,399.999L55.526,399.999L56.066,399.999L56.606,399.999L57.145,399.999L57.685,399.999L58.225,399.999L58.765,399.999L59.305,399.999L59.845,399.999L60.385,399.998L60.924,399.998L61.464,399.998L62.004,399.998L62.544,399.998L63.084,399.998L63.624,399.998L64.163,399.998L64.703,399.998L65.243,399.998L65.783,399.998L66.323,399.997L66.863,399.997L67.403,399.997L67.942,399.997L68.482,399.997L69.022,399.997L69.562,399.997L70.102,399.997L70.642,399.996L71.182,399.996L71.721,399.996L72.261,399.996L72.801,399.996L73.341,399.996L73.881,399.995L74.421,399.995L74.96,399.995L75.5,399.995L76.04,399.995L76.58,399.994L77.12,399.994L77.66,399.994L78.2,399.994L78.739,399.993L79.279,399.993L79.819,399.993L80.359,399.992L80.899,399.992L81.439,399.992L81.978,399.991L82.518,399.991L83.058,399.991L83.598,399.99L84.138,399.99L84.678,399.989L85.218,399.989L85.757,399.988L86.297,399.988L86.837,399.987L87.377,399.987L87.917,399.986L88.457,399.986L88.997,399.985L89.536,399.984L90.076,399.984L90.616,399.983L91.156,399.983L91.696,399.982L92.236,399.981L92.775,399.98L93.315,399.979L93.855,399.979L94.395,399.978L94.935,399.977L95.475,399.976L96.015,399.975L96.554,399.974L97.094,399.973L97.634,399.972L98.174,399.971L98.714,399.969L99.254,399.968L99.793,399.967L100.333,399.966L100.873,399.964L101.413,399.963L101.953,399.961L102.493,399.96L103.033,399.958L103.572,399.957L104.112,399.955L104.652,399.953L105.192,399.952L105.732,399.95L106.272,399.948L106.812,399.946L107.351,399.944L107.891,399.941L108.431,399.939L108.971,399.937L109.511,399.934L110.051,399.932L110.59,399.929L111.13,399.927L111.67,399.924L112.21,399.921L112.75,399.918L113.29,399.915L113.83,399.912L114.369,399.909L114.909,399.905L115.449,399.902L115.989,399.898L116.529,399.894L117.069,399.89L117.608,399.886L118.148,399.882L118.688,399.878L119.228,399.873L119.768,399.869L120.308,399.864L120.848,399.859L121.387,399.854L121.927,399.849L122.467,399.843L123.007,399.838L123.547,399.832L124.087,399.826L124.627,399.82L125.166,399.813L125.706,399.807L126.246,399.8L126.786,399.793L127.326,399.785L127.866,399.778L128.405,399.77L128.945,399.762L129.485,399.754L130.025,399.745L130.565,399.736L131.105,399.727L131.645,399.718L132.184,399.708L132.724,399.698L133.264,399.688L133.804,399.677L134.344,399.666L134.884,399.655L135.423,399.643L135.963,399.631L136.503,399.618L137.043,399.606L137.583,399.592L138.123,399.579L138.663,399.565L139.202,399.55L139.742,399.535L140.282,399.52L140.822,399.504L141.362,399.488L141.902,399.471L142.442,399.454L142.981,399.436L143.521,399.418L144.061,399.399L144.601,399.379L145.141,399.359L145.681,399.339L146.22,399.317L146.76,399.295L147.3,399.273L147.84,399.25L148.38,399.226L148.92,399.201L149.46,399.176L149.999,399.15L150.539,399.124L151.079,399.096L151.619,399.068L152.159,399.039L152.699,399.009L153.239,398.979L153.778,398.947L154.318,398.915L154.858,398.881L155.398,398.847L155.938,398.812L156.478,398.776L157.017,398.739L157.557,398.7L158.097,398.661L158.637,398.621L159.177,398.58L159.717,398.537L160.257,398.494L160.796,398.449L161.336,398.403L161.876,398.356L162.416,398.307L162.956,398.258L163.496,398.207L164.035,398.154L164.575,398.101L165.115,398.045L165.655,397.989L166.195,397.931L166.735,397.871L167.275,397.81L167.814,397.748L168.354,397.684L168.894,397.618L169.434,397.551L169.974,397.482L170.514,397.411L171.054,397.338L171.593,397.264L172.133,397.187L172.673,397.109L173.213,397.029L173.753,396.947L174.293,396.863L174.832,396.777L175.372,396.689L175.912,396.599L176.452,396.507L176.992,396.412L177.532,396.315L178.072,396.216L178.611,396.115L179.151,396.011L179.691,395.905L180.231,395.796L180.771,395.685L181.311,395.571L181.85,395.454L182.39,395.335L182.93,395.214L183.47,395.089L184.01,394.962L184.55,394.832L185.09,394.698L185.629,394.562L186.169,394.423L186.709,394.281L187.249,394.136L187.789,393.987L188.329,393.836L188.869,393.681L189.408,393.522L189.948,393.361L190.488,393.196L191.028,393.027L191.568,392.855L192.108,392.679L192.647,392.499L193.187,392.316L193.727,392.129L194.267,391.938L194.807,391.743L195.347,391.544L195.887,391.341L196.426,391.134L196.966,390.923L197.506,390.708L198.046,390.488L198.586,390.264L199.126,390.035L199.665,389.802L200.205,389.565L200.745,389.323L201.285,389.076L201.825,388.824L202.365,388.568L202.905,388.306L203.444,388.04L203.984,387.769L204.524,387.492L205.064,387.211L205.604,386.924L206.144,386.632L206.684,386.335L207.223,386.032L207.763,385.724L208.303,385.41L208.843,385.09L209.383,384.765L209.923,384.434L210.462,384.098L211.002,383.755L211.542,383.407L212.082,383.052L212.622,382.691L213.162,382.324L213.702,381.951L214.241,381.572L214.781,381.186L215.321,380.794L215.861,380.395L216.401,379.99L216.941,379.578L217.48,379.16L218.02,378.735L218.56,378.302L219.1,377.863L219.64,377.417L220.18,376.965L220.72,376.505L221.259,376.037L221.799,375.563L222.339,375.081L222.879,374.592L223.419,374.096L223.959,373.592L224.499,373.081L225.038,372.562L225.578,372.036L226.118,371.502L226.658,370.96L227.198,370.411L227.738,369.853L228.277,369.288L228.817,368.715L229.357,368.134L229.897,367.545L230.437,366.948L230.977,366.343L231.517,365.729L232.056,365.108L232.596,364.478L233.136,363.84L233.676,363.193L234.216,362.538L234.756,361.875L235.295,361.204L235.835,360.524L236.375,359.835L236.915,359.138L237.455,358.433L237.995,357.719L238.535,356.996L239.074,356.265L239.614,355.525L240.154,354.777L240.694,354.019L241.234,353.254L241.774,352.479L242.314,351.696L242.853,350.904L243.393,350.103L243.933,349.294L244.473,348.476L245.013,347.649L245.553,346.813L246.092,345.969L246.632,345.116L247.172,344.255L247.712,343.385L248.252,342.506L248.792,341.618L249.332,340.722L249.871,339.817L250.411,338.904L250.951,337.982L251.491,337.051L252.031,336.112L252.571,335.165L253.11,334.209L253.65,333.245L254.19,332.273L254.73,331.292L255.27,330.303L255.81,329.306L256.35,328.3L256.889,327.287L257.429,326.266L257.969,325.236L258.509,324.199L259.049,323.154L259.589,322.101L260.129,321.041L260.668,319.973L261.208,318.897L261.748,317.815L262.288,316.724L262.828,315.627L263.368,314.522L263.907,313.411L264.447,312.292L264.987,311.167L265.527,310.034L266.067,308.896L266.607,307.75L267.147,306.599L267.686,305.441L268.226,304.277L268.766,303.106L269.306,301.93L269.846,300.749L270.386,299.561L270.925,298.368L271.465,297.17L272.005,295.966L272.545,294.758L273.085,293.544L273.625,292.326L274.165,291.103L274.704,289.876L275.244,288.644L275.784,287.408L276.324,286.168L276.864,284.925L277.404,283.678L277.944,282.427L278.483,281.173L279.023,279.916L279.563,278.656L280.103,277.394L280.643,276.128L281.183,274.861L281.722,273.591L282.262,272.32L282.802,271.047L283.342,269.772L283.882,268.496L284.422,267.218L284.962,265.94L285.501,264.661L286.041,263.382L286.581,262.102L287.121,260.822L287.661,259.543L288.201,258.263L288.74,256.985L289.28,255.707L289.82,254.43L290.36,253.155L290.9,251.881L291.44,250.608L291.98,249.338L292.519,248.07L293.059,246.805L293.599,245.542L294.139,244.282L294.679,243.025L295.219,241.772L295.759,240.522L296.298,239.276L296.838,238.034L297.378,236.797L297.918,235.564L298.458,234.336L298.998,233.114L299.537,231.897L300.077,230.685L300.617,229.479L301.157,228.279L301.697,227.086L302.237,225.899L302.777,224.72L303.316,223.547L303.856,222.382L304.396,221.224L304.936,220.074L305.476,218.932L306.016,217.799L306.556,216.674L307.095,215.558L307.635,214.452L308.175,213.354L308.715,212.266L309.255,211.188L309.795,210.12L310.334,209.063L310.874,208.016L311.414,206.979L311.954,205.954L312.494,204.94L313.034,203.938L313.574,202.947L314.113,201.968L314.653,201.002L315.193,200.047L315.733,199.106L316.273,198.177L316.813,197.261L317.352,196.359L317.892,195.47L318.432,194.595L318.972,193.734L319.512,192.887L320.052,192.054L320.592,191.236L321.131,190.432L321.671,189.644L322.211,188.87L322.751,188.112L323.291,187.37L323.831,186.643L324.371,185.932L324.91,185.237L325.45,184.558L325.99,183.895L326.53,183.249L327.07,182.62L327.61,182.007L328.149,181.412L328.689,180.834L329.229,180.273L329.769,179.729L330.309,179.203L330.849,178.695L331.389,178.204L331.928,177.732L332.468,177.277L333.008,176.841L333.548,176.423L334.088,176.024L334.628,175.642L335.167,175.28L335.707,174.936L336.247,174.611L336.787,174.305L337.327,174.018L337.867,173.75L338.407,173.501L338.946,173.271L339.486,173.06L340.026,172.869L340.566,172.697L341.106,172.544L341.646,172.41L342.186,172.296L342.725,172.202L343.265,172.127L343.805,172.071L344.345,172.035L344.885,172.019L345.425,172.022L345.964,172.044L346.504,172.086L347.044,172.148L347.584,172.229L348.124,172.33L348.664,172.45L349.204,172.589L349.743,172.748L350.283,172.926L350.823,173.123L351.363,173.34L351.903,173.576L352.443,173.831L352.982,174.105L353.522,174.398L354.062,174.71L354.602,175.041L355.142,175.39L355.682,175.759L356.222,176.146L356.761,176.551L357.301,176.974L357.841,177.416L358.381,177.876L358.921,178.355L359.461,178.851L360.001,179.364L360.54,179.896L361.08,180.445L361.62,181.011L362.16,181.595L362.7,182.196L363.24,182.813L363.779,183.448L364.319,184.099L364.859,184.767L365.399,185.45L365.939,186.15L366.479,186.867L367.019,187.598L367.558,188.346L368.098,189.109L368.638,189.887L369.178,190.68L369.718,191.488L370.258,192.311L370.797,193.148L371.337,194L371.877,194.865L372.417,195.745L372.957,196.638L373.497,197.544L374.037,198.464L374.576,199.397L375.116,200.342L375.656,201.3L376.196,202.271L376.736,203.253L377.276,204.247L377.816,205.254L378.355,206.271L378.895,207.3L379.435,208.339L379.975,209.39L380.515,210.451L381.055,211.522L381.594,212.603L382.134,213.694L382.674,214.794L383.214,215.904L383.754,217.022L384.294,218.15L384.834,219.286L385.373,220.43L385.913,221.582L386.453,222.742L386.993,223.91L387.533,225.085L388.073,226.267L388.612,227.456L389.152,228.651L389.692,229.853L390.232,231.06L390.772,232.274L391.312,233.493L391.852,234.717L392.391,235.946L392.931,237.18L393.471,238.419L394.011,239.662L394.551,240.909L395.091,242.16L395.631,243.414L396.17,244.672L396.71,245.933L397.25,247.197L397.79,248.463L398.33,249.732L398.87,251.003L399.409,252.276L399.949,253.55L400.489,254.826L401.029,256.103L401.569,257.381L402.109,258.66L402.649,259.94L403.188,261.219L403.728,262.499L404.268,263.779L404.808,265.058L405.348,266.337L405.888,267.615L406.427,268.892L406.967,270.167L407.507,271.442L408.047,272.715L408.587,273.986L409.127,275.254L409.667,276.521L410.206,277.786L410.746,279.047L411.286,280.306L411.826,281.562L412.366,282.815L412.906,284.065L413.446,285.311L413.985,286.553L414.525,287.792L415.065,289.026L415.605,290.257L416.145,291.483L416.685,292.704L417.224,293.921L417.764,295.133L418.304,296.34L418.844,297.542L419.384,298.739L419.924,299.93L420.464,301.116L421.003,302.296L421.543,303.47L422.083,304.638L422.623,305.801L423.163,306.957L423.703,308.106L424.242,309.25L424.782,310.386L425.322,311.517L425.862,312.64L426.402,313.756L426.942,314.866L427.482,315.968L428.021,317.063L428.561,318.151L429.101,319.232L429.641,320.305L430.181,321.371L430.721,322.429L431.261,323.479L431.8,324.522L432.34,325.556L432.88,326.583L433.42,327.602L433.96,328.613L434.5,329.616L435.039,330.61L435.579,331.597L436.119,332.575L436.659,333.545L437.199,334.507L437.739,335.46L438.279,336.405L438.818,337.341L439.358,338.269L439.898,339.188L440.438,340.099L440.978,341.001L441.518,341.894L442.058,342.779L442.597,343.655L443.137,344.523L443.677,345.382L444.217,346.232L444.757,347.074L445.297,347.906L445.836,348.73L446.376,349.546L446.916,350.353L447.456,351.15L447.996,351.94L448.536,352.72L449.076,353.492L449.615,354.255L450.155,355.01L450.695,355.756L451.235,356.493L451.775,357.221L452.315,357.941L452.854,358.653L453.394,359.356L453.934,360.05L454.474,360.736L455.014,361.413L455.554,362.082L456.094,362.743L456.633,363.395L457.173,364.038L457.713,364.674L458.253,365.301L458.793,365.92L459.333,366.531L459.873,367.134L460.412,367.729L460.952,368.315L461.492,368.894L462.032,369.464L462.572,370.027L463.112,370.582L463.651,371.129L464.191,371.668L464.731,372.2L465.271,372.724L465.811,373.241L466.351,373.749L466.891,374.251L467.43,374.745L467.97,375.232L468.51,375.711L469.05,376.183L469.59,376.648L470.13,377.106L470.669,377.557L471.209,378L471.749,378.437L472.289,378.867L472.829,379.29L473.369,379.707L473.909,380.117L474.448,380.52L474.988,380.916L475.528,381.307L476.068,381.69L476.608,382.068L477.148,382.439L477.688,382.804L478.227,383.163L478.767,383.515L479.307,383.862L479.847,384.203L480.387,384.538L480.927,384.867L481.466,385.19L482.006,385.508L482.546,385.82L483.086,386.127L483.626,386.428L484.166,386.723L484.706,387.014L485.245,387.299L485.785,387.579L486.325,387.853L486.865,388.123L487.405,388.388L487.945,388.648L488.484,388.903L489.024,389.153L489.564,389.398L490.104,389.639L490.644,389.875L491.184,390.107L491.724,390.334L492.263,390.557L492.803,390.775L493.343,390.989L493.883,391.199L494.423,391.405L494.963,391.606L495.503,391.804L496.042,391.998L496.582,392.187L497.122,392.373L497.662,392.555L498.202,392.734L498.742,392.909L499.281,393.08L499.821,393.247L500.361,393.411L500.901,393.572L501.441,393.729L501.981,393.883L502.521,394.034L503.06,394.181L503.6,394.326L504.14,394.467L504.68,394.605L505.22,394.74L505.76,394.872L506.299,395.002L506.839,395.128L507.379,395.252L507.919,395.373L508.459,395.491L508.999,395.606L509.539,395.719L510.078,395.83L510.618,395.938L511.158,396.043L511.698,396.146L512.238,396.247L512.778,396.345L513.318,396.442L513.857,396.535L514.397,396.627L514.937,396.717L515.477,396.804L516.017,396.89L516.557,396.973L517.096,397.054L517.636,397.134L518.176,397.211L518.716,397.287L519.256,397.361L519.796,397.433L520.336,397.503L520.875,397.572L521.415,397.639L521.955,397.704L522.495,397.768L523.035,397.83L523.575,397.89L524.114,397.949L524.654,398.007L525.194,398.063L525.734,398.117L526.274,398.171L526.814,398.223L527.354,398.273L527.893,398.322L528.433,398.371L528.973,398.417L529.513,398.463L530.053,398.507L530.593,398.551L531.133,398.593L531.672,398.634L532.212,398.674L532.752,398.712L533.292,398.75L533.832,398.787L534.372,398.823L534.911,398.858L535.451,398.892L535.991,398.925L536.531,398.957L537.071,398.988L537.611,399.019L538.151,399.048L538.69,399.077L539.23,399.105L539.77,399.132L540.31,399.158L540.85,399.184L541.39,399.209L541.929,399.233L542.469,399.257L543.009,399.28L543.549,399.302L544.089,399.324L544.629,399.345L545.169,399.365L545.708,399.385L546.248,399.405L546.788,399.423L547.328,399.442L547.868,399.459L548.408,399.476L548.948,399.493L549.487,399.509L550.027,399.525L550.567,399.54L551.107,399.555L551.647,399.569L552.187,399.583L552.726,399.597L553.266,399.61L553.806,399.622L554.346,399.635L554.886,399.647L555.426,399.658L555.966,399.669L556.505,399.68L557.045,399.691L557.585,399.701L558.125,399.711L558.665,399.721L559.205,399.73L559.744,399.739L560.284,399.748L560.824,399.756" stroke="red" stroke-width="2" stroke-dasharray="5,5"/></g></g><path class="foreground" aria-hidden="true" d="" display="none"/></g><g transform="translate(0,0)"><path class="background" aria-hidden="true" d="M0,0h600v400h-600Z"/><g><g class="mark-line role-mark layer_1_marks" role="graphics-object" aria-roledescription="line mark container"><path aria-label="リターン: −0.2338634183; 頻度: 0.0142302799504; モデル: 最適フィット (genlogistic)" role="graphics-symbol" aria-roledescription="line mark" d="M21.515,399.644L22.055,399.64L22.595,399.636L23.135,399.632L23.675,399.628L24.215,399.623L24.755,399.619L25.294,399.615L25.834,399.61L26.374,399.606L26.914,399.601L27.454,399.596L27.994,399.592L28.533,399.587L29.073,399.582L29.613,399.577L30.153,399.573L30.693,399.568L31.233,399.563L31.773,399.558L32.312,399.553L32.852,399.547L33.392,399.542L33.932,399.537L34.472,399.532L35.012,399.526L35.552,399.521L36.091,399.515L36.631,399.51L37.171,399.504L37.711,399.498L38.251,399.492L38.791,399.487L39.33,399.481L39.87,399.475L40.41,399.469L40.95,399.462L41.49,399.456L42.03,399.45L42.57,399.444L43.109,399.437L43.649,399.431L44.189,399.424L44.729,399.418L45.269,399.411L45.809,399.404L46.348,399.397L46.888,399.39L47.428,399.383L47.968,399.376L48.508,399.369L49.048,399.362L49.588,399.354L50.127,399.347L50.667,399.339L51.207,399.332L51.747,399.324L52.287,399.316L52.827,399.308L53.367,399.3L53.906,399.292L54.446,399.284L54.986,399.276L55.526,399.267L56.066,399.259L56.606,399.25L57.145,399.242L57.685,399.233L58.225,399.224L58.765,399.215L59.305,399.206L59.845,399.197L60.385,399.188L60.924,399.178L61.464,399.169L62.004,399.159L62.544,399.15L63.084,399.14L63.624,399.13L64.163,399.12L64.703,399.11L65.243,399.099L65.783,399.089L66.323,399.079L66.863,399.068L67.403,399.057L67.942,399.046L68.482,399.035L69.022,399.024L69.562,399.013L70.102,399.002L70.642,398.99L71.182,398.978L71.721,398.967L72.261,398.955L72.801,398.943L73.341,398.93L73.881,398.918L74.421,398.906L74.96,398.893L75.5,398.88L76.04,398.867L76.58,398.854L77.12,398.841L77.66,398.828L78.2,398.814L78.739,398.801L79.279,398.787L79.819,398.773L80.359,398.759L80.899,398.744L81.439,398.73L81.978,398.715L82.518,398.7L83.058,398.685L83.598,398.67L84.138,398.655L84.678,398.639L85.218,398.624L85.757,398.608L86.297,398.592L86.837,398.575L87.377,398.559L87.917,398.542L88.457,398.526L88.997,398.509L89.536,398.491L90.076,398.474L90.616,398.456L91.156,398.439L91.696,398.421L92.236,398.402L92.775,398.384L93.315,398.365L93.855,398.346L94.395,398.327L94.935,398.308L95.475,398.289L96.015,398.269L96.554,398.249L97.094,398.229L97.634,398.208L98.174,398.188L98.714,398.167L99.254,398.146L99.793,398.124L100.333,398.103L100.873,398.081L101.413,398.058L101.953,398.036L102.493,398.013L103.033,397.991L103.572,397.967L104.112,397.944L104.652,397.92L105.192,397.896L105.732,397.872L106.272,397.847L106.812,397.823L107.351,397.798L107.891,397.772L108.431,397.746L108.971,397.72L109.511,397.694L110.051,397.668L110.59,397.641L111.13,397.613L111.67,397.586L112.21,397.558L112.75,397.53L113.29,397.501L113.83,397.473L114.369,397.443L114.909,397.414L115.449,397.384L115.989,397.354L116.529,397.324L117.069,397.293L117.608,397.261L118.148,397.23L118.688,397.198L119.228,397.166L119.768,397.133L120.308,397.1L120.848,397.066L121.387,397.033L121.927,396.998L122.467,396.964L123.007,396.929L123.547,396.893L124.087,396.857L124.627,396.821L125.166,396.785L125.706,396.748L126.246,396.71L126.786,396.672L127.326,396.634L127.866,396.595L128.405,396.556L128.945,396.516L129.485,396.476L130.025,396.435L130.565,396.394L131.105,396.352L131.645,396.31L132.184,396.268L132.724,396.225L133.264,396.181L133.804,396.137L134.344,396.093L134.884,396.048L135.423,396.002L135.963,395.956L136.503,395.909L137.043,395.862L137.583,395.814L138.123,395.766L138.663,395.717L139.202,395.668L139.742,395.618L140.282,395.567L140.822,395.516L141.362,395.465L141.902,395.412L142.442,395.359L142.981,395.306L143.521,395.252L144.061,395.197L144.601,395.142L145.141,395.086L145.681,395.029L146.22,394.972L146.76,394.914L147.3,394.855L147.84,394.796L148.38,394.736L148.92,394.675L149.46,394.613L149.999,394.551L150.539,394.489L151.079,394.425L151.619,394.361L152.159,394.296L152.699,394.23L153.239,394.163L153.778,394.096L154.318,394.028L154.858,393.959L155.398,393.889L155.938,393.819L156.478,393.748L157.017,393.676L157.557,393.603L158.097,393.529L158.637,393.454L159.177,393.379L159.717,393.303L160.257,393.225L160.796,393.147L161.336,393.068L161.876,392.988L162.416,392.907L162.956,392.826L163.496,392.743L164.035,392.659L164.575,392.575L165.115,392.489L165.655,392.402L166.195,392.315L166.735,392.226L167.275,392.137L167.814,392.046L168.354,391.954L168.894,391.861L169.434,391.768L169.974,391.673L170.514,391.577L171.054,391.48L171.593,391.381L172.133,391.282L172.673,391.182L173.213,391.08L173.753,390.977L174.293,390.873L174.832,390.768L175.372,390.661L175.912,390.554L176.452,390.445L176.992,390.335L177.532,390.223L178.072,390.11L178.611,389.996L179.151,389.881L179.691,389.765L180.231,389.647L180.771,389.527L181.311,389.406L181.85,389.284L182.39,389.161L182.93,389.036L183.47,388.909L184.01,388.782L184.55,388.652L185.09,388.522L185.629,388.389L186.169,388.255L186.709,388.12L187.249,387.983L187.789,387.845L188.329,387.705L188.869,387.563L189.408,387.419L189.948,387.274L190.488,387.128L191.028,386.979L191.568,386.829L192.108,386.678L192.647,386.524L193.187,386.369L193.727,386.212L194.267,386.053L194.807,385.892L195.347,385.73L195.887,385.565L196.426,385.399L196.966,385.231L197.506,385.06L198.046,384.888L198.586,384.714L199.126,384.538L199.665,384.36L200.205,384.18L200.745,383.997L201.285,383.813L201.825,383.627L202.365,383.438L202.905,383.247L203.444,383.054L203.984,382.859L204.524,382.662L205.064,382.462L205.604,382.26L206.144,382.056L206.684,381.849L207.223,381.64L207.763,381.428L208.303,381.215L208.843,380.998L209.383,380.779L209.923,380.558L210.462,380.334L211.002,380.108L211.542,379.879L212.082,379.647L212.622,379.413L213.162,379.176L213.702,378.936L214.241,378.694L214.781,378.448L215.321,378.2L215.861,377.95L216.401,377.696L216.941,377.439L217.48,377.179L218.02,376.917L218.56,376.651L219.1,376.383L219.64,376.111L220.18,375.836L220.72,375.558L221.259,375.277L221.799,374.993L222.339,374.705L222.879,374.414L223.419,374.12L223.959,373.822L224.499,373.521L225.038,373.217L225.578,372.909L226.118,372.597L226.658,372.282L227.198,371.964L227.738,371.641L228.277,371.316L228.817,370.986L229.357,370.653L229.897,370.315L230.437,369.974L230.977,369.629L231.517,369.281L232.056,368.928L232.596,368.571L233.136,368.21L233.676,367.845L234.216,367.476L234.756,367.103L235.295,366.725L235.835,366.343L236.375,365.957L236.915,365.566L237.455,365.171L237.995,364.772L238.535,364.368L239.074,363.959L239.614,363.546L240.154,363.128L240.694,362.705L241.234,362.278L241.774,361.846L242.314,361.409L242.853,360.966L243.393,360.519L243.933,360.067L244.473,359.61L245.013,359.148L245.553,358.68L246.092,358.207L246.632,357.729L247.172,357.246L247.712,356.757L248.252,356.262L248.792,355.762L249.332,355.257L249.871,354.745L250.411,354.228L250.951,353.705L251.491,353.177L252.031,352.642L252.571,352.102L253.11,351.555L253.65,351.003L254.19,350.444L254.73,349.879L255.27,349.307L255.81,348.73L256.35,348.146L256.889,347.555L257.429,346.958L257.969,346.354L258.509,345.744L259.049,345.127L259.589,344.503L260.129,343.872L260.668,343.235L261.208,342.59L261.748,341.938L262.288,341.279L262.828,340.613L263.368,339.94L263.907,339.259L264.447,338.571L264.987,337.875L265.527,337.172L266.067,336.461L266.607,335.742L267.147,335.016L267.686,334.282L268.226,333.539L268.766,332.789L269.306,332.031L269.846,331.265L270.386,330.49L270.925,329.707L271.465,328.916L272.005,328.117L272.545,327.309L273.085,326.492L273.625,325.667L274.165,324.833L274.704,323.99L275.244,323.138L275.784,322.277L276.324,321.408L276.864,320.529L277.404,319.641L277.944,318.744L278.483,317.838L279.023,316.922L279.563,315.997L280.103,315.063L280.643,314.119L281.183,313.165L281.722,312.201L282.262,311.228L282.802,310.245L283.342,309.252L283.882,308.25L284.422,307.237L284.962,306.214L285.501,305.181L286.041,304.137L286.581,303.084L287.121,302.02L287.661,300.946L288.201,299.862L288.74,298.767L289.28,297.661L289.82,296.545L290.36,295.418L290.9,294.281L291.44,293.133L291.98,291.974L292.519,290.805L293.059,289.624L293.599,288.433L294.139,287.231L294.679,286.018L295.219,284.794L295.759,283.56L296.298,282.314L296.838,281.057L297.378,279.79L297.918,278.511L298.458,277.221L298.998,275.921L299.537,274.609L300.077,273.286L300.617,271.953L301.157,270.608L301.697,269.253L302.237,267.887L302.777,266.509L303.316,265.121L303.856,263.723L304.396,262.313L304.936,260.893L305.476,259.462L306.016,258.021L306.556,256.569L307.095,255.107L307.635,253.634L308.175,252.151L308.715,250.658L309.255,249.155L309.795,247.642L310.334,246.12L310.874,244.587L311.414,243.046L311.954,241.494L312.494,239.934L313.034,238.365L313.574,236.786L314.113,235.2L314.653,233.604L315.193,232.001L315.733,230.389L316.273,228.77L316.813,227.143L317.352,225.508L317.892,223.867L318.432,222.219L318.972,220.564L319.512,218.903L320.052,217.236L320.592,215.564L321.131,213.887L321.671,212.204L322.211,210.517L322.751,208.826L323.291,207.131L323.831,205.433L324.371,203.732L324.91,202.029L325.45,200.324L325.99,198.617L326.53,196.909L327.07,195.2L327.61,193.491L328.149,191.783L328.689,190.076L329.229,188.371L329.769,186.667L330.309,184.967L330.849,183.269L331.389,181.576L331.928,179.888L332.468,178.205L333.008,176.527L333.548,174.857L334.088,173.194L334.628,171.538L335.167,169.892L335.707,168.256L336.247,166.63L336.787,165.015L337.327,163.412L337.867,161.821L338.407,160.245L338.946,158.683L339.486,157.136L340.026,155.606L340.566,154.092L341.106,152.597L341.646,151.121L342.186,149.664L342.725,148.228L343.265,146.815L343.805,145.423L344.345,144.056L344.885,142.713L345.425,141.395L345.964,140.105L346.504,138.842L347.044,137.607L347.584,136.402L348.124,135.228L348.664,134.085L349.204,132.975L349.743,131.898L350.283,130.856L350.823,129.849L351.363,128.879L351.903,127.946L352.443,127.052L352.982,126.198L353.522,125.383L354.062,124.61L354.602,123.88L355.142,123.192L355.682,122.548L356.222,121.949L356.761,121.396L357.301,120.89L357.841,120.43L358.381,120.019L358.921,119.657L359.461,119.344L360.001,119.081L360.54,118.869L361.08,118.709L361.62,118.601L362.16,118.546L362.7,118.543L363.24,118.594L363.779,118.7L364.319,118.859L364.859,119.074L365.399,119.343L365.939,119.668L366.479,120.048L367.019,120.484L367.558,120.976L368.098,121.524L368.638,122.127L369.178,122.787L369.718,123.502L370.258,124.272L370.797,125.098L371.337,125.98L371.877,126.916L372.417,127.906L372.957,128.951L373.497,130.05L374.037,131.201L374.576,132.406L375.116,133.662L375.656,134.97L376.196,136.328L376.736,137.736L377.276,139.194L377.816,140.699L378.355,142.253L378.895,143.852L379.435,145.497L379.975,147.187L380.515,148.92L381.055,150.696L381.594,152.513L382.134,154.37L382.674,156.266L383.214,158.199L383.754,160.169L384.294,162.175L384.834,164.214L385.373,166.286L385.913,168.389L386.453,170.522L386.993,172.684L387.533,174.872L388.073,177.087L388.612,179.326L389.152,181.588L389.692,183.872L390.232,186.176L390.772,188.498L391.312,190.838L391.852,193.194L392.391,195.565L392.931,197.948L393.471,200.344L394.011,202.749L394.551,205.164L395.091,207.587L395.631,210.016L396.17,212.449L396.71,214.887L397.25,217.327L397.79,219.769L398.33,222.21L398.87,224.65L399.409,227.088L399.949,229.522L400.489,231.952L401.029,234.376L401.569,236.793L402.109,239.202L402.649,241.602L403.188,243.993L403.728,246.372L404.268,248.74L404.808,251.096L405.348,253.438L405.888,255.766L406.427,258.078L406.967,260.375L407.507,262.656L408.047,264.919L408.587,267.164L409.127,269.391L409.667,271.599L410.206,273.788L410.746,275.956L411.286,278.103L411.826,280.23L412.366,282.334L412.906,284.417L413.446,286.478L413.985,288.516L414.525,290.531L415.065,292.522L415.605,294.491L416.145,296.435L416.685,298.355L417.224,300.251L417.764,302.123L418.304,303.97L418.844,305.793L419.384,307.591L419.924,309.364L420.464,311.112L421.003,312.836L421.543,314.534L422.083,316.208L422.623,317.857L423.163,319.481L423.703,321.08L424.242,322.654L424.782,324.204L425.322,325.729L425.862,327.23L426.402,328.706L426.942,330.158L427.482,331.586L428.021,332.991L428.561,334.371L429.101,335.728L429.641,337.062L430.181,338.373L430.721,339.661L431.261,340.925L431.8,342.168L432.34,343.388L432.88,344.586L433.42,345.762L433.96,346.917L434.5,348.051L435.039,349.163L435.579,350.254L436.119,351.325L436.659,352.376L437.199,353.406L437.739,354.417L438.279,355.408L438.818,356.38L439.358,357.333L439.898,358.268L440.438,359.184L440.978,360.081L441.518,360.961L442.058,361.823L442.597,362.668L443.137,363.496L443.677,364.307L444.217,365.102L444.757,365.88L445.297,366.642L445.836,367.389L446.376,368.12L446.916,368.836L447.456,369.537L447.996,370.223L448.536,370.895L449.076,371.552L449.615,372.196L450.155,372.826L450.695,373.443L451.235,374.046L451.775,374.637L452.315,375.215L452.854,375.78L453.394,376.334L453.934,376.875L454.474,377.405L455.014,377.923L455.554,378.429L456.094,378.925L456.633,379.41L457.173,379.884L457.713,380.348L458.253,380.801L458.793,381.245L459.333,381.678L459.873,382.102L460.412,382.517L460.952,382.922L461.492,383.318L462.032,383.706L462.572,384.084L463.112,384.455L463.651,384.817L464.191,385.17L464.731,385.516L465.271,385.854L465.811,386.184L466.351,386.507L466.891,386.823L467.43,387.131L467.97,387.432L468.51,387.727L469.05,388.014L469.59,388.296L470.13,388.57L470.669,388.839L471.209,389.101L471.749,389.357L472.289,389.608L472.829,389.852L473.369,390.091L473.909,390.325L474.448,390.553L474.988,390.775L475.528,390.993L476.068,391.206L476.608,391.413L477.148,391.616L477.688,391.814L478.227,392.008L478.767,392.197L479.307,392.382L479.847,392.562L480.387,392.738L480.927,392.91L481.466,393.078L482.006,393.242L482.546,393.403L483.086,393.559L483.626,393.712L484.166,393.861L484.706,394.007L485.245,394.149L485.785,394.288L486.325,394.424L486.865,394.557L487.405,394.686L487.945,394.812L488.484,394.936L489.024,395.056L489.564,395.174L490.104,395.289L490.644,395.401L491.184,395.511L491.724,395.618L492.263,395.722L492.803,395.824L493.343,395.924L493.883,396.021L494.423,396.116L494.963,396.208L495.503,396.299L496.042,396.387L496.582,396.474L497.122,396.558L497.662,396.64L498.202,396.72L498.742,396.798L499.281,396.875L499.821,396.95L500.361,397.023L500.901,397.094L501.441,397.163L501.981,397.231L502.521,397.297L503.06,397.362L503.6,397.425L504.14,397.487L504.68,397.547L505.22,397.605L505.76,397.663L506.299,397.719L506.839,397.773L507.379,397.827L507.919,397.879L508.459,397.929L508.999,397.979L509.539,398.027L510.078,398.075L510.618,398.121L511.158,398.166L511.698,398.21L512.238,398.253L512.778,398.294L513.318,398.335L513.857,398.375L514.397,398.414L514.937,398.452L515.477,398.489L516.017,398.525L516.557,398.561L517.096,398.595L517.636,398.629L518.176,398.662L518.716,398.694L519.256,398.725L519.796,398.756L520.336,398.786L520.875,398.815L521.415,398.843L521.955,398.871L522.495,398.898L523.035,398.925L523.575,398.95L524.114,398.976L524.654,399L525.194,399.024L525.734,399.048L526.274,399.07L526.814,399.093L527.354,399.114L527.893,399.136L528.433,399.156L528.973,399.177L529.513,399.196L530.053,399.216L530.593,399.235L531.133,399.253L531.672,399.271L532.212,399.288L532.752,399.306L533.292,399.322L533.832,399.338L534.372,399.354L534.911,399.37L535.451,399.385L535.991,399.4L536.531,399.414L537.071,399.428L537.611,399.442L538.151,399.455L538.69,399.468L539.23,399.481L539.77,399.494L540.31,399.506L540.85,399.518L541.39,399.529L541.929,399.541L542.469,399.552L543.009,399.562L543.549,399.573L544.089,399.583L544.629,399.593L545.169,399.603L545.708,399.613L546.248,399.622L546.788,399.631L547.328,399.64L547.868,399.648L548.408,399.657L548.948,399.665L549.487,399.673L550.027,399.681L550.567,399.689L551.107,399.696L551.647,399.703L552.187,399.711L552.726,399.718L553.266,399.724L553.806,399.731L554.346,399.737L554.886,399.744L555.426,399.75L555.966,399.756L556.505,399.762L557.045,399.768L557.585,399.773L558.125,399.779L558.665,399.784L559.205,399.789L559.744,399.794L560.284,399.799L560.824,399.804" stroke="blue" stroke-width="2" stroke-dasharray="1,0"/></g></g><path class="foreground" aria-hidden="true" d="" display="none"/></g></g><g class="mark-group role-legend" role="graphics-symbol" aria-roledescription="legend" aria-label="Symbol legend titled 'モデル' for stroke color with 2 values: 正規分布, 最適フィット (genlogistic)"><g transform="translate(0,-45)"><path class="background" aria-hidden="true" d="M0,0h200v27h-200Z" pointer-events="none"/><g><g class="mark-group role-legend-entry"><g transform="translate(0,16)"><path class="background" aria-hidden="true" d="M0,0h0v0h0Z" pointer-events="none"/><g><g class="mark-group role-scope" role="graphics-object" aria-roledescription="group mark container"><g transform="translate(0,0)"><path class="background" aria-hidden="true" d="M0,0h56v11h-56Z" pointer-events="none" opacity="1"/><g><g class="mark-symbol role-legend-symbol" pointer-events="none"><path transform="translate(6,6)" d="M-5,0L5,0" stroke="red" stroke-width="1.5" opacity="1"/></g><g class="mark-text role-legend-label" pointer-events="none"><text text-anchor="start" transform="translate(16,9)" font-family="sans-serif" font-size="10px" fill="#000" opacity="1">正規分布</text></g></g><path class="foreground" aria-hidden="true" d="" pointer-events="none" display="none"/></g><g transform="translate(67,0)"><path class="background" aria-hidden="true" d="M0,0h132.689453125v11h-132.689453125Z" pointer-events="none" opacity="1"/><g><g class="mark-symbol role-legend-symbol" pointer-events="none"><path transform="translate(6,6)" d="M-5,0L5,0" stroke="blue" stroke-width="1.5" opacity="1"/></g><g class="mark-text role-legend-label" pointer-events="none"><text text-anchor="start" transform="translate(16,9)" font-family="sans-serif" font-size="10px" fill="#000" opacity="1">最適フィット (genlogistic)</text></g></g><path class="foreground" aria-hidden="true" d="" pointer-events="none" display="none"/></g></g></g><path class="foreground" aria-hidden="true" d="" pointer-events="none" display="none"/></g></g><g class="mark-text role-legend-title" pointer-events="none"><text text-anchor="start" transform="translate(0,9)" font-family="sans-serif" font-size="11px" font-weight="bold" fill="#000" opacity="1">モデル</text></g></g><path class="foreground" aria-hidden="true" d="" pointer-events="none" display="none"/></g></g><g class="mark-group role-title"><g transform="translate(300,-62)"><path class="background" aria-hidden="true" d="M0,0h0v0h0Z" pointer-events="none"/><g><g class="mark-text role-title-text" role="graphics-symbol" aria-roledescription="title" aria-label="Title text 'S&amp;P500 月次 対数リターン (1995-2025)'" pointer-events="none"><text text-anchor="middle" transform="translate(0,10)" font-family="sans-serif" font-size="13px" font-weight="bold" fill="#000" opacity="1">S&amp;P500 月次 対数リターン (1995-2025)</text></g></g><path class="foreground" aria-hidden="true" d="" pointer-events="none" display="none"/></g></g></g><path class="foreground" aria-hidden="true" d="" display="none"/></g></g></g></svg>