<svg xmlns="http://www.w3.org/2000/svg" xmlns:xlink="http://www.w3.org/1999/xlink" version="1.1" class="marks" width="645" height="504" viewBox="0 0 645 504"><rect width="645" height="504" fill="white"/><g fill="none" stroke-miterlimit="10" transform="translate(39,67)"><g class="mark-group role-frame root" role="graphics-object" aria-roledescription="group mark container"><g transform="translate(0,0)"><path class="background" aria-hidden="true" d="M0.5,0.5h600v400h-600Z" stroke="#ddd"/><g><g class="mark-group role-axis" aria-hidden="true"><g transform="translate(0.5,400.5)"><path class="background" aria-hidden="true" d="M0,0h0v0h0Z" pointer-events="none"/><g><g class="mark-rule role-axis-grid" pointer-events="none"><line transform="translate(0,-400)" x2="0" y2="400" stroke="#ddd" stroke-width="1" opacity="1"/><line transform="translate(33,-400)" x2="0" y2="400" stroke="#ddd" stroke-width="1" opacity="1"/><line transform="translate(67,-400)" x2="0" y2="400" stroke="#ddd" stroke-width="1" opacity="1"/><line transform="translate(100,-400)" x2="0" y2="400" stroke="#ddd" stroke-width="1" opacity="1"/><line transform="translate(133,-400)" x2="0" y2="400" stroke="#ddd" stroke-width="1" opacity="1"/><line transform="translate(167,-400)" x2="0" y2="400" stroke="#ddd" stroke-width="1" opacity="1"/><line transform="translate(200,-400)" x2="0" y2="400" stroke="#ddd" stroke-width="1" opacity="1"/><line transform="translate(233,-400)" x2="0" y2="400" stroke="#ddd" stroke-width="1" opacity="1"/><line transform="translate(267,-400)" x2="0" y2="400" stroke="#ddd" stroke-width="1" opacity="1"/><line transform="translate(300,-400)" x2="0" y2="400" stroke="#ddd" stroke-width="1" opacity="1"/><line transform="translate(333,-400)" x2="0" y2="400" stroke="#ddd" stroke-width="1" opacity="1"/><line transform="translate(367,-400)" x2="0" y2="400" stroke="#ddd" stroke-width="1" opacity="1"/><line transform="translate(400,-400)" x2="0" y2="400" stroke="#ddd" stroke-width="1" opacity="1"/><line transform="translate(433,-400)" x2="0" y2="400" stroke="#ddd" stroke-width="1" opacity="1"/><line transform="translate(467,-400)" x2="0" y2="400" stroke="#ddd" stroke-width="1" opacity="1"/><line transform="translate(500,-400)" x2="0" y2="400" stroke="#ddd" stroke-width="1" opacity="1"/><line transform="translate(533,-400)" x2="0" y2="400" stroke="#ddd" stroke-width="1" opacity="1"/><line transform="translate(567,-400)" x2="0" y2="400" stroke="#ddd" stroke-width="1" opacity="1"/><line transform="translate(600,-400)" x2="0" y2="400" stroke="#ddd" stroke-width="1" opacity="1"/></g></g><path class="foreground" aria-hidden="true" d="" pointer-events="none" display="none"/></g></g><g class="mark-group role-axis" aria-hidden="true"><g transform="translate(0.5,0.5)"><path class="background" aria-hidden="true" d="M0,0h0v0h0Z" pointer-events="none"/><g><g class="mark-rule role-axis-grid" pointer-events="none"><line transform="translate(0,400)" x2="600" y2="0" stroke="#ddd" stroke-width="1" opacity="1"/><line transform="translate(0,369)" x2="600" y2="0" stroke="#ddd" stroke-width="1" opacity="1"/><line transform="translate(0,338)" x2="600" y2="0" stroke="#ddd" stroke-width="1" opacity="1"/><line transform="translate(0,308)" x2="600" y2="0" stroke="#ddd" stroke-width="1" opacity="1"/><line transform="translate(0,277)" x2="600" y2="0" stroke="#ddd" stroke-width="1" opacity="1"/><line transform="translate(0,246)" x2="600" y2="0" stroke="#ddd" stroke-width="1" opacity="1"/><line transform="translate(0,215)" x2="600" y2="0" stroke="#ddd" stroke-width="1" opacity="1"/><line transform="translate(0,185)" x2="600" y2="0" stroke="#ddd" stroke-width="1" opacity="1"/><line transform="translate(0,154)" x2="600" y2="0" stroke="#ddd" stroke-width="1" opacity="1"/><line transform="translate(0,123)" x2="600" y2="0" stroke="#ddd" stroke-width="1" opacity="1"/><line transform="translate(0,92)" x2="600" y2="0" stroke="#ddd" stroke-width="1" opacity="1"/><line transform="translate(0,62)" x2="600" y2="0" stroke="#ddd" stroke-width="1" opacity="1"/><line transform="translate(0,31)" x2="600" y2="0" stroke="#ddd" stroke-width="1" opacity="1"/><line transform="translate(0,0)" x2="600" y2="0" stroke="#ddd" stroke-width="1" opacity="1"/></g></g><path class="foreground" aria-hidden="true" d="" pointer-events="none" display="none"/></g></g><g class="mark-group role-axis" role="graphics-symbol" aria-roledescription="axis" aria-label="X-axis titled '対数リターン' for a linear scale with values from −0.4 to 0.5"><g transform="translate(0.5,400.5)"><path class="background" aria-hidden="true" d="M0,0h0v0h0Z" pointer-events="none"/><g><g class="mark-rule role-axis-tick" pointer-events="none"><line transform="translate(0,0)" x2="0" y2="5" stroke="#888" stroke-width="1" opacity="1"/><line transform="translate(33,0)" x2="0" y2="5" stroke="#888" stroke-width="1" opacity="1"/><line transform="translate(67,0)" x2="0" y2="5" stroke="#888" stroke-width="1" opacity="1"/><line transform="translate(100,0)" x2="0" y2="5" stroke="#888" stroke-width="1" opacity="1"/><line transform="translate(133,0)" x2="0" y2="5" stroke="#888" stroke-width="1" opacity="1"/><line transform="translate(167,0)" x2="0" y2="5" stroke="#888" stroke-width="1" opacity="1"/><line transform="translate(200,0)" x2="0" y2="5" stroke="#888" stroke-width="1" opacity="1"/><line transform="translate(233,0)" x2="0" y2="5" stroke="#888" stroke-width="1" opacity="1"/><line transform="translate(267,0)" x2="0" y2="5" stroke="#888" stroke-width="1" opacity="1"/><line transform="translate(300,0)" x2="0" y2="5" stroke="#888" stroke-width="1" opacity="1"/><line transform="translate(333,0)" x2="0" y2="5" stroke="#888" stroke-width="1" opacity="1"/><line transform="translate(367,0)" x2="0" y2="5" stroke="#888" stroke-width="1" opacity="1"/><line transform="translate(400,0)" x2="0" y2="5" stroke="#888" stroke-width="1" opacity="1"/><line transform="translate(433,0)" x2="0" y2="5" stroke="#888" stroke-width="1" opacity="1"/><line transform="translate(467,0)" x2="0" y2="5" stroke="#888" stroke-width="1" opacity="1"/><line transform="translate(500,0)" x2="0" y2="5" stroke="#888" stroke-width="1" opacity="1"/><line transform="translate(533,0)" x2="0" y2="5" stroke="#888" stroke-width="1" opacity="1"/><line transform="translate(567,0)" x2="0" y2="5" stroke="#888" stroke-width="1" opacity="1"/><line transform="translate(600,0)" x2="0" y2="5" stroke="#888" stroke-width="1" opacity="1"/></g><g class="mark-text role-axis-label" pointer-events="none"><text text-anchor="start" transform="translate(0,15)" font-family="sans-serif" font-size="10px" fill="#000" opacity="1">−0.40</text><text text-anchor="middle" transform="translate(33.333333333333364,15)" font-family="sans-serif" font-size="10px" fill="#000" opacity="0">−0.35</text><text text-anchor="middle" transform="translate(66.66666666666669,15)" font-family="sans-serif" font-size="10px" fill="#000" opacity="1">−0.30</text><text text-anchor="middle" transform="translate(100.00000000000001,15)" font-family="sans-serif" font-size="10px" fill="#000" opacity="0">−0.25</text><text text-anchor="middle" transform="translate(133.33333333333334,15)" font-family="sans-serif" font-size="10px" fill="#000" opacity="1">−0.20</text><text text-anchor="middle" transform="translate(166.66666666666669,15)" font-family="sans-serif" font-size="10px" fill="#000" opacity="0">−0.15</text><text text-anchor="middle" transform="translate(200.00000000000003,15)" font-family="sans-serif" font-size="10px" fill="#000" opacity="1">−0.10</text><text text-anchor="middle" transform="translate(233.33333333333334,15)" font-family="sans-serif" font-size="10px" fill="#000" opacity="0">−0.05</text><text text-anchor="middle" transform="translate(266.6666666666667,15)" font-family="sans-serif" font-size="10px" fill="#000" opacity="1">0.00</text><text text-anchor="middle" transform="translate(300,15)" font-family="sans-serif" font-size="10px" fill="#000" opacity="0">0.05</text><text text-anchor="middle" transform="translate(333.33333333333337,15)" font-family="sans-serif" font-size="10px" fill="#000" opacity="1">0.10</text><text text-anchor="middle" transform="translate(366.6666666666667,15)" font-family="sans-serif" font-size="10px" fill="#000" opacity="0">0.15</text><text text-anchor="middle" transform="translate(400.00000000000006,15)" font-family="sans-serif" font-size="10px" fill="#000" opacity="1">0.20</text><text text-anchor="middle" transform="translate(433.3333333333333,15)" font-family="sans-serif" font-size="10px" fill="#000" opacity="0">0.25</text><text text-anchor="middle" transform="translate(466.66666666666663,15)" font-family="sans-serif" font-size="10px" fill="#000" opacity="1">0.30</text><text text-anchor="middle" transform="translate(499.99999999999994,15)" font-family="sans-serif" font-size="10px" fill="#000" opacity="0">0.35</text><text text-anchor="middle" transform="translate(533.3333333333334,15)" font-family="sans-serif" font-size="10px" fill="#000" opacity="1">0.40</text><text text-anchor="middle" transform="translate(566.6666666666667,15)" font-family="sans-serif" font-size="10px" fill="#000" opacity="0">0.45</text><text text-anchor="end" transform="translate(600,15)" font-family="sans-serif" font-size="10px" fill="#000" opacity="1">0.50</text></g><g class="mark-rule role-axis-domain" pointer-events="none"><line transform="translate(0,0)" x2="600" y2="0" stroke="#888" stroke-width="1" opacity="1"/></g><g class="mark-text role-axis-title" pointer-events="none"><text text-anchor="middle" transform="translate(300,30)" font-family="sans-serif" font-size="11px" font-weight="bold" fill="#000" opacity="1">対数リターン</text></g></g><path class="foreground" aria-hidden="true" d="" pointer-events="none" display="none"/></g></g><g class="mark-group role-axis" role="graphics-symbol" aria-roledescription="axis" aria-label="Y-axis titled '頻度' for a linear scale with values from 0 to 13"><g transform="translate(0.5,0.5)"><path class="background" aria-hidden="true" d="M0,0h0v0h0Z" pointer-events="none"/><g><g class="mark-rule role-axis-tick" pointer-events="none"><line transform="translate(0,400)" x2="-5" y2="0" stroke="#888" stroke-width="1" opacity="1"/><line transform="translate(0,369)" x2="-5" y2="0" stroke="#888" stroke-width="1" opacity="1"/><line transform="translate(0,338)" x2="-5" y2="0" stroke="#888" stroke-width="1" opacity="1"/><line transform="translate(0,308)" x2="-5" y2="0" stroke="#888" stroke-width="1" opacity="1"/><line transform="translate(0,277)" x2="-5" y2="0" stroke="#888" stroke-width="1" opacity="1"/><line transform="translate(0,246)" x2="-5" y2="0" stroke="#888" stroke-width="1" opacity="1"/><line transform="translate(0,215)" x2="-5" y2="0" stroke="#888" stroke-width="1" opacity="1"/><line transform="translate(0,185)" x2="-5" y2="0" stroke="#888" stroke-width="1" opacity="1"/><line transform="translate(0,154)" x2="-5" y2="0" stroke="#888" stroke-width="1" opacity="1"/><line transform="translate(0,123)" x2="-5" y2="0" stroke="#888" stroke-width="1" opacity="1"/><line transform="translate(0,92)" x2="-5" y2="0" stroke="#888" stroke-width="1" opacity="1"/><line transform="translate(0,62)" x2="-5" y2="0" stroke="#888" stroke-width="1" opacity="1"/><line transform="translate(0,31)" x2="-5" y2="0" stroke="#888" stroke-width="1" opacity="1"/><line transform="translate(0,0)" x2="-5" y2="0" stroke="#888" stroke-width="1" opacity="1"/></g><g class="mark-text role-axis-label" pointer-events="none"><text text-anchor="end" transform="translate(-7,403)" font-family="sans-serif" font-size="10px" fill="#000" opacity="1">0</text><text text-anchor="end" transform="translate(-7,372.2307692307692)" font-family="sans-serif" font-size="10px" fill="#000" opacity="1">1</text><text text-anchor="end" transform="translate(-7,341.46153846153845)" font-family="sans-serif" font-size="10px" fill="#000" opacity="1">2</text><text text-anchor="end" transform="translate(-7,310.6923076923077)" font-family="sans-serif" font-size="10px" fill="#000" opacity="1">3</text><text text-anchor="end" transform="translate(-7,279.9230769230769)" font-family="sans-serif" font-size="10px" fill="#000" opacity="1">4</text><text text-anchor="end" transform="translate(-7,249.15384615384616)" font-family="sans-serif" font-size="10px" fill="#000" opacity="1">5</text><text text-anchor="end" transform="translate(-7,218.3846153846154)" font-family="sans-serif" font-size="10px" fill="#000" opacity="1">6</text><text text-anchor="end" transform="translate(-7,187.6153846153846)" font-family="sans-serif" font-size="10px" fill="#000" opacity="1">7</text><text text-anchor="end" transform="translate(-7,156.84615384615384)" font-family="sans-serif" font-size="10px" fill="#000" opacity="1">8</text><text text-anchor="end" transform="translate(-7,126.07692307692308)" font-family="sans-serif" font-size="10px" fill="#000" opacity="1">9</text><text text-anchor="end" transform="translate(-7,95.30769230769229)" font-family="sans-serif" font-size="10px" fill="#000" opacity="1">10</text><text text-anchor="end" transform="translate(-7,64.53846153846155)" font-family="sans-serif" font-size="10px" fill="#000" opacity="1">11</text><text text-anchor="end" transform="translate(-7,33.769230769230745)" font-family="sans-serif" font-size="10px" fill="#000" opacity="1">12</text><text text-anchor="end" transform="translate(-7,3)" font-family="sans-serif" font-size="10px" fill="#000" opacity="1">13</text></g><g class="mark-rule role-axis-domain" pointer-events="none"><line transform="translate(0,400)" x2="0" y2="-400" stroke="#888" stroke-width="1" opacity="1"/></g><g class="mark-text role-axis-title" pointer-events="none"><text text-anchor="middle" transform="translate(-22.123046875,200) rotate(-90) translate(0,-2)" font-family="sans-serif" font-size="11px" font-weight="bold" fill="#000" opacity="1">頻度</text></g></g><path class="foreground" aria-hidden="true" d="" pointer-events="none" display="none"/></g></g><g class="mark-rect role-mark layer_0_marks" role="graphics-object" aria-roledescription="rect mark container"><path aria-label="対数リターン: −0.296506576325; 頻度: 0.0373925830258" role="graphics-symbol" aria-roledescription="bar" d="M66.49561578351542,398.849458983822h5v1.1505410161780105h-5Z" fill="gray" opacity="0.4"/><path aria-label="対数リターン: −0.282143917087; 頻度: 0" role="graphics-symbol" aria-roledescription="bar" d="M76.0707219422962,400h5v0h-5Z" fill="gray" opacity="0.4"/><path aria-label="対数リターン: −0.267781257848; 頻度: 0.0373925830258" role="graphics-symbol" aria-roledescription="bar" d="M85.64582810107687,398.849458983822h5v1.1505410161780105h-5Z" fill="gray" opacity="0.4"/><path aria-label="対数リターン: −0.25341859861; 頻度: 0" role="graphics-symbol" aria-roledescription="bar" d="M95.22093425985763,400h5v0h-5Z" fill="gray" opacity="0.4"/><path aria-label="対数リターン: −0.239055939372; 頻度: 0" role="graphics-symbol" aria-roledescription="bar" d="M104.79604041863833,400h5v0h-5Z" fill="gray" opacity="0.4"/><path aria-label="対数リターン: −0.224693280134; 頻度: 0" role="graphics-symbol" aria-roledescription="bar" d="M114.37114657741905,400h5v0h-5Z" fill="gray" opacity="0.4"/><path aria-label="対数リターン: −0.210330620896; 頻度: 0" role="graphics-symbol" aria-roledescription="bar" d="M123.94625273619978,400h5v0h-5Z" fill="gray" opacity="0.4"/><path aria-label="対数リターン: −0.195967961658; 頻度: 0.0373925830258" role="graphics-symbol" aria-roledescription="bar" d="M133.5213588949805,398.849458983822h5v1.1505410161780105h-5Z" fill="gray" opacity="0.4"/><path aria-label="対数リターン: −0.181605302419; 頻度: 0.0373925830258" role="graphics-symbol" aria-roledescription="bar" d="M143.09646505376122,398.849458983822h5v1.1505410161780105h-5Z" fill="gray" opacity="0.4"/><path aria-label="対数リターン: −0.167242643181; 頻度: 0" role="graphics-symbol" aria-roledescription="bar" d="M152.67157121254195,400h5v0h-5Z" fill="gray" opacity="0.4"/><path aria-label="対数リターン: −0.152879983943; 頻度: 0.186962915129" role="graphics-symbol" aria-roledescription="bar" d="M162.24667737132265,394.24729491911h5v5.752705080889996h-5Z" fill="gray" opacity="0.4"/><path aria-label="対数リターン: −0.138517324705; 頻度: 0.224355498155" role="graphics-symbol" aria-roledescription="bar" d="M171.82178353010343,393.096753902932h5v6.903246097068006h-5Z" fill="gray" opacity="0.4"/><path aria-label="対数リターン: −0.124154665467; 頻度: 0.299140664206" role="graphics-symbol" aria-roledescription="bar" d="M181.3968896888841,390.795671870576h5v9.204328129424027h-5Z" fill="gray" opacity="0.4"/><path aria-label="対数リターン: −0.109792006229; 頻度: 0.26174808118" role="graphics-symbol" aria-roledescription="bar" d="M190.97199584766486,391.946212886754h5v8.053787113246017h-5Z" fill="gray" opacity="0.4"/><path aria-label="対数リターン: −0.0954293469903; 頻度: 0.486103579335" role="graphics-symbol" aria-roledescription="bar" d="M200.54710200644556,385.0429667896859h5v14.95703321031408h-5Z" fill="gray" opacity="0.4"/><path aria-label="対数リターン: −0.0810666877522; 頻度: 0.785244243541" role="graphics-symbol" aria-roledescription="bar" d="M210.12220816522625,375.83863866026195h5v24.16136133973805h-5Z" fill="gray" opacity="0.4"/><path aria-label="対数リターン: −0.066704028514; 頻度: 1.19656265683" role="graphics-symbol" aria-roledescription="bar" d="M219.697314324007,363.1826874823039h5v36.81731251769611h-5Z" fill="gray" opacity="0.4"/><path aria-label="対数リターン: −0.0523413692758; 頻度: 2.28094756457" role="graphics-symbol" aria-roledescription="bar" d="M229.2724204827877,329.8169980131418h5v70.18300198685819h-5Z" fill="gray" opacity="0.4"/><path aria-label="対数リターン: −0.0379787100376; 頻度: 3.40272505535" role="graphics-symbol" aria-roledescription="bar" d="M238.84752664156844,295.3007675278014h5v104.69923247219862h-5Z" fill="gray" opacity="0.4"/><path aria-label="対数リターン: −0.0236160507995; 頻度: 6.46891686346" role="graphics-symbol" aria-roledescription="bar" d="M248.42263280034916,200.95640420120563h5v199.04359579879437h-5Z" fill="gray" opacity="0.4"/><path aria-label="対数リターン: −0.00925339156131; 頻度: 8.78725701106" role="graphics-symbol" aria-roledescription="bar" d="M257.99773895912983,129.62286119816943h5v270.3771388018306h-5Z" fill="gray" opacity="0.4"/><path aria-label="対数リターン: 0.00510926767687; 頻度: 11.629093321" role="graphics-symbol" aria-roledescription="bar" d="M267.5728451179106,42.18174396864134h5v357.81825603135866h-5Z" fill="gray" opacity="0.4"/><path aria-label="対数リターン: 0.019471926915; 頻度: 12.2647672325" role="graphics-symbol" aria-roledescription="bar" d="M277.1479512766913,22.62254669361523h5v377.3774533063848h-5Z" fill="gray" opacity="0.4"/><path aria-label="対数リターン: 0.0338345861532; 頻度: 9.87164191881" role="graphics-symbol" aria-roledescription="bar" d="M286.72305743547207,96.25717172900741h5v303.7428282709926h-5Z" fill="gray" opacity="0.4"/><path aria-label="対数リターン: 0.0481972453914; 頻度: 5.27235420664" role="graphics-symbol" aria-roledescription="bar" d="M296.29816359425274,237.77371671890108h5v162.22628328109892h-5Z" fill="gray" opacity="0.4"/><path aria-label="対数リターン: 0.0625599046296; 頻度: 3.55229538745" role="graphics-symbol" aria-roledescription="bar" d="M305.87326975303347,290.6986034630898h5v109.3013965369102h-5Z" fill="gray" opacity="0.4"/><path aria-label="対数リターン: 0.0769225638677; 頻度: 1.38352557195" role="graphics-symbol" aria-roledescription="bar" d="M315.4483759118142,357.4299824014139h5v42.570017598586105h-5Z" fill="gray" opacity="0.4"/><path aria-label="対数リターン: 0.0912852231059; 頻度: 0.560888745387" role="graphics-symbol" aria-roledescription="bar" d="M325.0234820705949,382.74188475732996h5v17.258115242670044h-5Z" fill="gray" opacity="0.4"/><path aria-label="対数リターン: 0.105647882344; 頻度: 0.336533247232" role="graphics-symbol" aria-roledescription="bar" d="M334.5985882293757,389.64513085439796h5v10.354869145602038h-5Z" fill="gray" opacity="0.4"/><path aria-label="対数リターン: 0.120010541582; 頻度: 0.0747851660516" role="graphics-symbol" aria-roledescription="bar" d="M344.1736943881564,397.698917967644h5v2.301082032356021h-5Z" fill="gray" opacity="0.4"/><path aria-label="対数リターン: 0.13437320082; 頻度: 0" role="graphics-symbol" aria-roledescription="bar" d="M353.74880054693705,400h5v0h-5Z" fill="gray" opacity="0.4"/><path aria-label="対数リターン: 0.148735860059; 頻度: 0" role="graphics-symbol" aria-roledescription="bar" d="M363.3239067057179,400h5v0h-5Z" fill="gray" opacity="0.4"/><path aria-label="対数リターン: 0.163098519297; 頻度: 0.0373925830258" role="graphics-symbol" aria-roledescription="bar" d="M372.89901286449856,398.849458983822h5v1.1505410161780105h-5Z" fill="gray" opacity="0.4"/><path aria-label="対数リターン: 0.177461178535; 頻度: 0" role="graphics-symbol" aria-roledescription="bar" d="M382.4741190232793,400h5v0h-5Z" fill="gray" opacity="0.4"/><path aria-label="対数リターン: 0.191823837773; 頻度: 0.0373925830258" role="graphics-symbol" aria-roledescription="bar" d="M392.04922518205996,398.849458983822h5v1.1505410161780105h-5Z" fill="gray" opacity="0.4"/><path aria-label="対数リターン: 0.206186497011; 頻度: 0" role="graphics-symbol" aria-roledescription="bar" d="M401.6243313408408,400h5v0h-5Z" fill="gray" opacity="0.4"/><path aria-label="対数リターン: 0.220549156249; 頻度: 0" role="graphics-symbol" aria-roledescription="bar" d="M411.19943749962147,400h5v0h-5Z" fill="gray" opacity="0.4"/><path aria-label="対数リターン: 0.234911815488; 頻度: 0" role="graphics-symbol" aria-roledescription="bar" d="M420.77454365840214,400h5v0h-5Z" fill="gray" opacity="0.4"/><path aria-label="対数リターン: 0.249274474726; 頻度: 0" role="graphics-symbol" aria-roledescription="bar" d="M430.34964981718286,400h5v0h-5Z" fill="gray" opacity="0.4"/><path aria-label="対数リターン: 0.263637133964; 頻度: 0.0373925830258" role="graphics-symbol" aria-roledescription="bar" d="M439.92475597596365,398.849458983822h5v1.1505410161780105h-5Z" fill="gray" opacity="0.4"/><path aria-label="対数リターン: 0.277999793202; 頻度: 0" role="graphics-symbol" aria-roledescription="bar" d="M449.4998621347443,400h5v0h-5Z" fill="gray" opacity="0.4"/><path aria-label="対数リターン: 0.29236245244; 頻度: 0" role="graphics-symbol" aria-roledescription="bar" d="M459.07496829352505,400h5v0h-5Z" fill="gray" opacity="0.4"/><path aria-label="対数リターン: 0.306725111678; 頻度: 0" role="graphics-symbol" aria-roledescription="bar" d="M468.6500744523057,400h5v0h-5Z" fill="gray" opacity="0.4"/><path aria-label="対数リターン: 0.321087770917; 頻度: 0" role="graphics-symbol" aria-roledescription="bar" d="M478.22518061108644,400h5v0h-5Z" fill="gray" opacity="0.4"/><path aria-label="対数リターン: 0.335450430155; 頻度: 0" role="graphics-symbol" aria-roledescription="bar" d="M487.8002867698672,400h5v0h-5Z" fill="gray" opacity="0.4"/><path aria-label="対数リターン: 0.349813089393; 頻度: 0" role="graphics-symbol" aria-roledescription="bar" d="M497.37539292864795,400h5v0h-5Z" fill="gray" opacity="0.4"/><path aria-label="対数リターン: 0.364175748631; 頻度: 0" role="graphics-symbol" aria-roledescription="bar" d="M506.9504990874286,400h5v0h-5Z" fill="gray" opacity="0.4"/><path aria-label="対数リターン: 0.378538407869; 頻度: 0" role="graphics-symbol" aria-roledescription="bar" d="M516.5256052462094,400h5v0h-5Z" fill="gray" opacity="0.4"/><path aria-label="対数リターン: 0.392901067107; 頻度: 0" role="graphics-symbol" aria-roledescription="bar" d="M526.1007114049901,400h5v0h-5Z" fill="gray" opacity="0.4"/><path aria-label="対数リターン: 0.407263726346; 頻度: 0.0373925830258" role="graphics-symbol" aria-roledescription="bar" d="M535.6758175637708,398.849458983822h5v1.1505410161780105h-5Z" fill="gray" opacity="0.4"/></g><g class="mark-group role-scope layer_1_pathgroup" role="graphics-object" aria-roledescription="group mark container"><g transform="translate(0,0)"><path class="background" aria-hidden="true" d="M0,0h600v400h-600Z"/><g><g class="mark-line role-mark layer_1_marks" role="graphics-object" aria-roledescription="line mark container"><path aria-label="リターン: −0.353687905944; 頻度: 6.54746538225e-16; モデル: 正規分布" role="graphics-symbol" aria-roledescription="line mark" d="M30.875,400L31.421,400L31.967,400L32.513,400L33.059,400L33.605,400L34.151,400L34.697,400L35.242,400L35.788,400L36.334,400L36.88,400L37.426,400L37.972,400L38.518,400L39.064,400L39.61,400L40.156,400L40.702,400L41.248,400L41.794,400L42.34,400L42.886,400L43.432,400L43.978,400L44.524,400L45.07,400L45.616,400L46.162,400L46.708,400L47.254,400L47.8,400L48.346,400L48.892,400L49.438,400L49.984,400L50.53,400L51.076,400L51.622,400L52.167,400L52.713,400L53.259,400L53.805,400L54.351,400L54.897,400L55.443,400L55.989,400L56.535,400L57.081,400L57.627,400L58.173,400L58.719,400L59.265,400L59.811,400L60.357,400L60.903,400L61.449,400L61.995,400L62.541,400L63.087,400L63.633,400L64.179,400L64.725,400L65.271,400L65.817,400L66.363,400L66.909,400L67.455,400L68.001,400L68.547,400L69.092,400L69.638,400L70.184,400L70.73,400L71.276,400L71.822,400L72.368,400L72.914,400L73.46,400L74.006,400L74.552,400L75.098,400L75.644,400L76.19,400L76.736,400L77.282,400L77.828,400L78.374,400L78.92,400L79.466,400L80.012,400L80.558,400L81.104,400L81.65,400L82.196,400L82.742,400L83.288,400L83.834,400L84.38,400L84.926,400L85.472,400L86.017,400L86.563,400L87.109,400L87.655,400L88.201,400L88.747,400L89.293,400L89.839,400L90.385,400L90.931,400L91.477,400L92.023,400L92.569,400L93.115,400L93.661,400L94.207,400L94.753,400L95.299,400L95.845,400L96.391,400L96.937,400L97.483,400L98.029,400L98.575,400L99.121,400L99.667,400L100.213,400L100.759,400L101.305,400L101.851,400L102.397,400L102.942,400L103.488,400L104.034,400L104.58,400L105.126,400L105.672,400L106.218,400L106.764,400L107.31,400L107.856,400L108.402,400L108.948,400L109.494,400L110.04,400L110.586,400L111.132,400L111.678,400L112.224,400L112.77,400L113.316,400L113.862,400L114.408,400L114.954,400L115.5,400L116.046,400L116.592,400L117.138,400L117.684,400L118.23,400L118.776,400L119.322,400L119.868,400L120.413,400L120.959,400L121.505,400L122.051,400L122.597,400L123.143,400L123.689,400L124.235,400L124.781,400L125.327,400L125.873,400L126.419,400L126.965,400L127.511,400L128.057,399.999L128.603,399.999L129.149,399.999L129.695,399.999L130.241,399.999L130.787,399.999L131.333,399.999L131.879,399.999L132.425,399.999L132.971,399.999L133.517,399.999L134.063,399.998L134.609,399.998L135.155,399.998L135.701,399.998L136.247,399.998L136.793,399.998L137.338,399.997L137.884,399.997L138.43,399.997L138.976,399.996L139.522,399.996L140.068,399.996L140.614,399.995L141.16,399.995L141.706,399.994L142.252,399.994L142.798,399.993L143.344,399.992L143.89,399.992L144.436,399.991L144.982,399.99L145.528,399.989L146.074,399.988L146.62,399.987L147.166,399.986L147.712,399.985L148.258,399.983L148.804,399.982L149.35,399.98L149.896,399.978L150.442,399.976L150.988,399.974L151.534,399.972L152.08,399.97L152.626,399.967L153.172,399.964L153.718,399.961L154.263,399.958L154.809,399.954L155.355,399.95L155.901,399.946L156.447,399.941L156.993,399.937L157.539,399.931L158.085,399.926L158.631,399.919L159.177,399.913L159.723,399.906L160.269,399.898L160.815,399.89L161.361,399.881L161.907,399.871L162.453,399.861L162.999,399.85L163.545,399.838L164.091,399.825L164.637,399.812L165.183,399.797L165.729,399.781L166.275,399.765L166.821,399.747L167.367,399.727L167.913,399.707L168.459,399.685L169.005,399.661L169.551,399.636L170.097,399.609L170.643,399.58L171.188,399.549L171.734,399.517L172.28,399.482L172.826,399.444L173.372,399.405L173.918,399.362L174.464,399.317L175.01,399.269L175.556,399.218L176.102,399.164L176.648,399.106L177.194,399.045L177.74,398.98L178.286,398.91L178.832,398.837L179.378,398.759L179.924,398.676L180.47,398.589L181.016,398.496L181.562,398.398L182.108,398.293L182.654,398.183L183.2,398.067L183.746,397.943L184.292,397.813L184.838,397.675L185.384,397.53L185.93,397.377L186.476,397.215L187.022,397.044L187.568,396.864L188.113,396.674L188.659,396.474L189.205,396.264L189.751,396.042L190.297,395.809L190.843,395.564L191.389,395.306L191.935,395.036L192.481,394.751L193.027,394.453L193.573,394.14L194.119,393.811L194.665,393.467L195.211,393.106L195.757,392.728L196.303,392.332L196.849,391.918L197.395,391.484L197.941,391.031L198.487,390.557L199.033,390.062L199.579,389.545L200.125,389.006L200.671,388.443L201.217,387.855L201.763,387.243L202.309,386.605L202.855,385.941L203.401,385.249L203.947,384.529L204.493,383.78L205.039,383.002L205.584,382.193L206.13,381.352L206.676,380.48L207.222,379.574L207.768,378.635L208.314,377.66L208.86,376.651L209.406,375.605L209.952,374.522L210.498,373.401L211.044,372.241L211.59,371.042L212.136,369.803L212.682,368.523L213.228,367.201L213.774,365.836L214.32,364.429L214.866,362.977L215.412,361.481L215.958,359.94L216.504,358.353L217.05,356.72L217.596,355.041L218.142,353.314L218.688,351.539L219.234,349.715L219.78,347.844L220.326,345.923L220.872,343.953L221.418,341.933L221.964,339.864L222.509,337.744L223.055,335.575L223.601,333.356L224.147,331.086L224.693,328.767L225.239,326.398L225.785,323.978L226.331,321.51L226.877,318.992L227.423,316.426L227.969,313.811L228.515,311.149L229.061,308.439L229.607,305.683L230.153,302.881L230.699,300.034L231.245,297.142L231.791,294.208L232.337,291.232L232.883,288.215L233.429,285.158L233.975,282.062L234.521,278.93L235.067,275.762L235.613,272.559L236.159,269.325L236.705,266.059L237.251,262.764L237.797,259.442L238.343,256.095L238.889,252.725L239.434,249.333L239.98,245.922L240.526,242.494L241.072,239.052L241.618,235.597L242.164,232.132L242.71,228.66L243.256,225.183L243.802,221.703L244.348,218.224L244.894,214.748L245.44,211.278L245.986,207.817L246.532,204.366L247.078,200.93L247.624,197.512L248.17,194.113L248.716,190.737L249.262,187.388L249.808,184.067L250.354,180.779L250.9,177.525L251.446,174.31L251.992,171.136L252.538,168.006L253.084,164.923L253.63,161.891L254.176,158.911L254.722,155.988L255.268,153.124L255.814,150.322L256.359,147.584L256.905,144.915L257.451,142.315L257.997,139.789L258.543,137.339L259.089,134.966L259.635,132.675L260.181,130.468L260.727,128.346L261.273,126.312L261.819,124.368L262.365,122.517L262.911,120.76L263.457,119.1L264.003,117.538L264.549,116.075L265.095,114.715L265.641,113.458L266.187,112.305L266.733,111.258L267.279,110.319L267.825,109.487L268.371,108.765L268.917,108.152L269.463,107.65L270.009,107.26L270.555,106.981L271.101,106.814L271.647,106.759L272.193,106.816L272.739,106.986L273.284,107.267L273.83,107.66L274.376,108.165L274.922,108.78L275.468,109.504L276.014,110.338L276.56,111.28L277.106,112.33L277.652,113.485L278.198,114.744L278.744,116.107L279.29,117.571L279.836,119.135L280.382,120.798L280.928,122.557L281.474,124.41L282.02,126.356L282.566,128.392L283.112,130.516L283.658,132.725L284.204,135.018L284.75,137.392L285.296,139.844L285.842,142.372L286.388,144.973L286.934,147.644L287.48,150.383L288.026,153.187L288.572,156.053L289.118,158.977L289.664,161.958L290.21,164.991L290.755,168.075L291.301,171.206L291.847,174.381L292.393,177.597L292.939,180.852L293.485,184.141L294.031,187.462L294.577,190.812L295.123,194.188L295.669,197.587L296.215,201.007L296.761,204.443L297.307,207.894L297.853,211.355L298.399,214.826L298.945,218.302L299.491,221.781L300.037,225.26L300.583,228.737L301.129,232.209L301.675,235.674L302.221,239.128L302.767,242.57L303.313,245.998L303.859,249.409L304.405,252.8L304.951,256.17L305.497,259.517L306.043,262.838L306.589,266.132L307.135,269.397L307.68,272.631L308.226,275.832L308.772,279L309.318,282.132L309.864,285.226L310.41,288.282L310.956,291.299L311.502,294.274L312.048,297.207L312.594,300.097L313.14,302.943L313.686,305.744L314.232,308.5L314.778,311.208L315.324,313.87L315.87,316.483L316.416,319.049L316.962,321.565L317.508,324.033L318.054,326.451L318.6,328.819L319.146,331.137L319.692,333.406L320.238,335.624L320.784,337.792L321.33,339.91L321.876,341.979L322.422,343.997L322.968,345.966L323.514,347.886L324.06,349.756L324.605,351.579L325.151,353.352L325.697,355.079L326.243,356.757L326.789,358.389L327.335,359.975L327.881,361.515L328.427,363.01L328.973,364.46L329.519,365.867L330.065,367.231L330.611,368.552L331.157,369.831L331.703,371.069L332.249,372.268L332.795,373.426L333.341,374.546L333.887,375.629L334.433,376.674L334.979,377.683L335.525,378.656L336.071,379.595L336.617,380.5L337.163,381.371L337.709,382.211L338.255,383.02L338.801,383.797L339.347,384.546L339.893,385.265L340.439,385.956L340.985,386.62L341.53,387.257L342.076,387.869L342.622,388.455L343.168,389.018L343.714,389.557L344.26,390.073L344.806,390.568L345.352,391.041L345.898,391.494L346.444,391.927L346.99,392.341L347.536,392.736L348.082,393.114L348.628,393.475L349.174,393.819L349.72,394.147L350.266,394.46L350.812,394.758L351.358,395.042L351.904,395.312L352.45,395.57L352.996,395.814L353.542,396.047L354.088,396.268L354.634,396.479L355.18,396.678L355.726,396.868L356.272,397.048L356.818,397.218L357.364,397.38L357.91,397.533L358.455,397.679L359.001,397.816L359.547,397.946L360.093,398.069L360.639,398.186L361.185,398.296L361.731,398.4L362.277,398.498L362.823,398.591L363.369,398.678L363.915,398.761L364.461,398.839L365.007,398.912L365.553,398.981L366.099,399.046L366.645,399.108L367.191,399.165L367.737,399.219L368.283,399.27L368.829,399.318L369.375,399.363L369.921,399.406L370.467,399.445L371.013,399.483L371.559,399.517L372.105,399.55L372.651,399.581L373.197,399.61L373.743,399.636L374.289,399.662L374.835,399.685L375.381,399.707L375.926,399.728L376.472,399.747L377.018,399.765L377.564,399.782L378.11,399.797L378.656,399.812L379.202,399.826L379.748,399.838L380.294,399.85L380.84,399.861L381.386,399.871L381.932,399.881L382.478,399.89L383.024,399.898L383.57,399.906L384.116,399.913L384.662,399.92L385.208,399.926L385.754,399.931L386.3,399.937L386.846,399.942L387.392,399.946L387.938,399.95L388.484,399.954L389.03,399.958L389.576,399.961L390.122,399.964L390.668,399.967L391.214,399.97L391.76,399.972L392.306,399.974L392.851,399.977L393.397,399.978L393.943,399.98L394.489,399.982L395.035,399.983L395.581,399.985L396.127,399.986L396.673,399.987L397.219,399.988L397.765,399.989L398.311,399.99L398.857,399.991L399.403,399.992L399.949,399.992L400.495,399.993L401.041,399.994L401.587,399.994L402.133,399.995L402.679,399.995L403.225,399.996L403.771,399.996L404.317,399.996L404.863,399.997L405.409,399.997L405.955,399.997L406.501,399.998L407.047,399.998L407.593,399.998L408.139,399.998L408.685,399.998L409.231,399.998L409.776,399.999L410.322,399.999L410.868,399.999L411.414,399.999L411.96,399.999L412.506,399.999L413.052,399.999L413.598,399.999L414.144,399.999L414.69,399.999L415.236,399.999L415.782,400L416.328,400L416.874,400L417.42,400L417.966,400L418.512,400L419.058,400L419.604,400L420.15,400L420.696,400L421.242,400L421.788,400L422.334,400L422.88,400L423.426,400L423.972,400L424.518,400L425.064,400L425.61,400L426.156,400L426.701,400L427.247,400L427.793,400L428.339,400L428.885,400L429.431,400L429.977,400L430.523,400L431.069,400L431.615,400L432.161,400L432.707,400L433.253,400L433.799,400L434.345,400L434.891,400L435.437,400L435.983,400L436.529,400L437.075,400L437.621,400L438.167,400L438.713,400L439.259,400L439.805,400L440.351,400L440.897,400L441.443,400L441.989,400L442.535,400L443.081,400L443.626,400L444.172,400L444.718,400L445.264,400L445.81,400L446.356,400L446.902,400L447.448,400L447.994,400L448.54,400L449.086,400L449.632,400L450.178,400L450.724,400L451.27,400L451.816,400L452.362,400L452.908,400L453.454,400L454,400L454.546,400L455.092,400L455.638,400L456.184,400L456.73,400L457.276,400L457.822,400L458.368,400L458.914,400L459.46,400L460.006,400L460.552,400L461.097,400L461.643,400L462.189,400L462.735,400L463.281,400L463.827,400L464.373,400L464.919,400L465.465,400L466.011,400L466.557,400L467.103,400L467.649,400L468.195,400L468.741,400L469.287,400L469.833,400L470.379,400L470.925,400L471.471,400L472.017,400L472.563,400L473.109,400L473.655,400L474.201,400L474.747,400L475.293,400L475.839,400L476.385,400L476.931,400L477.477,400L478.022,400L478.568,400L479.114,400L479.66,400L480.206,400L480.752,400L481.298,400L481.844,400L482.39,400L482.936,400L483.482,400L484.028,400L484.574,400L485.12,400L485.666,400L486.212,400L486.758,400L487.304,400L487.85,400L488.396,400L488.942,400L489.488,400L490.034,400L490.58,400L491.126,400L491.672,400L492.218,400L492.764,400L493.31,400L493.856,400L494.402,400L494.947,400L495.493,400L496.039,400L496.585,400L497.131,400L497.677,400L498.223,400L498.769,400L499.315,400L499.861,400L500.407,400L500.953,400L501.499,400L502.045,400L502.591,400L503.137,400L503.683,400L504.229,400L504.775,400L505.321,400L505.867,400L506.413,400L506.959,400L507.505,400L508.051,400L508.597,400L509.143,400L509.689,400L510.235,400L510.781,400L511.327,400L511.872,400L512.418,400L512.964,400L513.51,400L514.056,400L514.602,400L515.148,400L515.694,400L516.24,400L516.786,400L517.332,400L517.878,400L518.424,400L518.97,400L519.516,400L520.062,400L520.608,400L521.154,400L521.7,400L522.246,400L522.792,400L523.338,400L523.884,400L524.43,400L524.976,400L525.522,400L526.068,400L526.614,400L527.16,400L527.706,400L528.252,400L528.797,400L529.343,400L529.889,400L530.435,400L530.981,400L531.527,400L532.073,400L532.619,400L533.165,400L533.711,400L534.257,400L534.803,400L535.349,400L535.895,400L536.441,400L536.987,400L537.533,400L538.079,400L538.625,400L539.171,400L539.717,400L540.263,400L540.809,400L541.355,400L541.901,400L542.447,400L542.993,400L543.539,400L544.085,400L544.631,400L545.177,400L545.722,400L546.268,400L546.814,400L547.36,400L547.906,400L548.452,400L548.998,400L549.544,400L550.09,400L550.636,400L551.182,400L551.728,400L552.274,400L552.82,400L553.366,400L553.912,400L554.458,400L555.004,400L555.55,400L556.096,400L556.642,400L557.188,400L557.734,400L558.28,400L558.826,400L559.372,400L559.918,400L560.464,400L561.01,400L561.556,400L562.102,400L562.648,400L563.193,400L563.739,400L564.285,400L564.831,400L565.377,400L565.923,400L566.469,400L567.015,400L567.561,400L568.107,400L568.653,400L569.199,400L569.745,400L570.291,400L570.837,400L571.383,400L571.929,400L572.475,400L573.021,400L573.567,400L574.113,400L574.659,400L575.205,400L575.751,400L576.297,400" stroke="red" stroke-width="2" stroke-dasharray="5,5"/></g></g><path class="foreground" aria-hidden="true" d="" display="none"/></g><g transform="translate(0,0)"><path class="background" aria-hidden="true" d="M0,0h600v400h-600Z"/><g><g class="mark-line role-mark layer_1_marks" role="graphics-object" aria-roledescription="line mark container"><path aria-label="リターン: −0.353687905944; 頻度: 0.0000660876218246; モデル: 最適フィット (genlogistic)" role="graphics-symbol" aria-roledescription="line mark" d="M30.875,399.998L31.421,399.998L31.967,399.998L32.513,399.998L33.059,399.998L33.605,399.998L34.151,399.998L34.697,399.998L35.242,399.997L35.788,399.997L36.334,399.997L36.88,399.997L37.426,399.997L37.972,399.997L38.518,399.997L39.064,399.997L39.61,399.997L40.156,399.997L40.702,399.997L41.248,399.997L41.794,399.996L42.34,399.996L42.886,399.996L43.432,399.996L43.978,399.996L44.524,399.996L45.07,399.996L45.616,399.996L46.162,399.995L46.708,399.995L47.254,399.995L47.8,399.995L48.346,399.995L48.892,399.995L49.438,399.995L49.984,399.994L50.53,399.994L51.076,399.994L51.622,399.994L52.167,399.994L52.713,399.994L53.259,399.993L53.805,399.993L54.351,399.993L54.897,399.993L55.443,399.993L55.989,399.992L56.535,399.992L57.081,399.992L57.627,399.992L58.173,399.992L58.719,399.991L59.265,399.991L59.811,399.991L60.357,399.99L60.903,399.99L61.449,399.99L61.995,399.99L62.541,399.989L63.087,399.989L63.633,399.989L64.179,399.988L64.725,399.988L65.271,399.988L65.817,399.987L66.363,399.987L66.909,399.987L67.455,399.986L68.001,399.986L68.547,399.985L69.092,399.985L69.638,399.985L70.184,399.984L70.73,399.984L71.276,399.983L71.822,399.983L72.368,399.982L72.914,399.982L73.46,399.981L74.006,399.981L74.552,399.98L75.098,399.979L75.644,399.979L76.19,399.978L76.736,399.978L77.282,399.977L77.828,399.976L78.374,399.976L78.92,399.975L79.466,399.974L80.012,399.973L80.558,399.973L81.104,399.972L81.65,399.971L82.196,399.97L82.742,399.969L83.288,399.968L83.834,399.968L84.38,399.967L84.926,399.966L85.472,399.965L86.017,399.964L86.563,399.963L87.109,399.961L87.655,399.96L88.201,399.959L88.747,399.958L89.293,399.957L89.839,399.956L90.385,399.954L90.931,399.953L91.477,399.952L92.023,399.95L92.569,399.949L93.115,399.947L93.661,399.946L94.207,399.944L94.753,399.943L95.299,399.941L95.845,399.939L96.391,399.937L96.937,399.936L97.483,399.934L98.029,399.932L98.575,399.93L99.121,399.928L99.667,399.926L100.213,399.923L100.759,399.921L101.305,399.919L101.851,399.917L102.397,399.914L102.942,399.912L103.488,399.909L104.034,399.907L104.58,399.904L105.126,399.901L105.672,399.898L106.218,399.895L106.764,399.892L107.31,399.889L107.856,399.886L108.402,399.883L108.948,399.879L109.494,399.876L110.04,399.872L110.586,399.868L111.132,399.865L111.678,399.861L112.224,399.857L112.77,399.852L113.316,399.848L113.862,399.844L114.408,399.839L114.954,399.835L115.5,399.83L116.046,399.825L116.592,399.82L117.138,399.815L117.684,399.809L118.23,399.804L118.776,399.798L119.322,399.792L119.868,399.786L120.413,399.78L120.959,399.773L121.505,399.767L122.051,399.76L122.597,399.753L123.143,399.746L123.689,399.739L124.235,399.731L124.781,399.723L125.327,399.715L125.873,399.707L126.419,399.699L126.965,399.69L127.511,399.681L128.057,399.672L128.603,399.662L129.149,399.652L129.695,399.642L130.241,399.632L130.787,399.621L131.333,399.61L131.879,399.599L132.425,399.587L132.971,399.575L133.517,399.563L134.063,399.55L134.609,399.537L135.155,399.524L135.701,399.51L136.247,399.496L136.793,399.481L137.338,399.466L137.884,399.451L138.43,399.435L138.976,399.419L139.522,399.402L140.068,399.384L140.614,399.367L141.16,399.348L141.706,399.329L142.252,399.31L142.798,399.29L143.344,399.269L143.89,399.248L144.436,399.226L144.982,399.204L145.528,399.181L146.074,399.157L146.62,399.133L147.166,399.108L147.712,399.082L148.258,399.055L148.804,399.028L149.35,399L149.896,398.971L150.442,398.941L150.988,398.91L151.534,398.879L152.08,398.846L152.626,398.813L153.172,398.778L153.718,398.743L154.263,398.706L154.809,398.669L155.355,398.63L155.901,398.591L156.447,398.55L156.993,398.508L157.539,398.465L158.085,398.42L158.631,398.374L159.177,398.327L159.723,398.279L160.269,398.229L160.815,398.178L161.361,398.125L161.907,398.07L162.453,398.015L162.999,397.957L163.545,397.898L164.091,397.837L164.637,397.774L165.183,397.71L165.729,397.643L166.275,397.575L166.821,397.505L167.367,397.433L167.913,397.358L168.459,397.282L169.005,397.203L169.551,397.122L170.097,397.039L170.643,396.953L171.188,396.864L171.734,396.774L172.28,396.68L172.826,396.584L173.372,396.485L173.918,396.383L174.464,396.278L175.01,396.171L175.556,396.06L176.102,395.946L176.648,395.828L177.194,395.707L177.74,395.583L178.286,395.455L178.832,395.323L179.378,395.188L179.924,395.048L180.47,394.905L181.016,394.757L181.562,394.606L182.108,394.449L182.654,394.289L183.2,394.123L183.746,393.953L184.292,393.778L184.838,393.598L185.384,393.412L185.93,393.221L186.476,393.025L187.022,392.823L187.568,392.615L188.113,392.401L188.659,392.181L189.205,391.955L189.751,391.722L190.297,391.482L190.843,391.236L191.389,390.982L191.935,390.721L192.481,390.452L193.027,390.176L193.573,389.892L194.119,389.599L194.665,389.298L195.211,388.988L195.757,388.67L196.303,388.342L196.849,388.005L197.395,387.658L197.941,387.301L198.487,386.933L199.033,386.555L199.579,386.166L200.125,385.766L200.671,385.355L201.217,384.931L201.763,384.496L202.309,384.047L202.855,383.586L203.401,383.112L203.947,382.624L204.493,382.122L205.039,381.605L205.584,381.074L206.13,380.527L206.676,379.965L207.222,379.387L207.768,378.792L208.314,378.18L208.86,377.55L209.406,376.902L209.952,376.236L210.498,375.551L211.044,374.846L211.59,374.121L212.136,373.375L212.682,372.608L213.228,371.819L213.774,371.008L214.32,370.173L214.866,369.315L215.412,368.433L215.958,367.525L216.504,366.591L217.05,365.632L217.596,364.645L218.142,363.63L218.688,362.586L219.234,361.513L219.78,360.41L220.326,359.276L220.872,358.11L221.418,356.911L221.964,355.678L222.509,354.412L223.055,353.109L223.601,351.771L224.147,350.396L224.693,348.982L225.239,347.529L225.785,346.036L226.331,344.502L226.877,342.926L227.423,341.307L227.969,339.643L228.515,337.934L229.061,336.179L229.607,334.377L230.153,332.525L230.699,330.624L231.245,328.672L231.791,326.669L232.337,324.611L232.883,322.5L233.429,320.333L233.975,318.11L234.521,315.828L235.067,313.488L235.613,311.087L236.159,308.625L236.705,306.1L237.251,303.512L237.797,300.859L238.343,298.139L238.889,295.353L239.434,292.499L239.98,289.576L240.526,286.582L241.072,283.518L241.618,280.381L242.164,277.172L242.71,273.889L243.256,270.532L243.802,267.1L244.348,263.592L244.894,260.009L245.44,256.349L245.986,252.613L246.532,248.799L247.078,244.909L247.624,240.943L248.17,236.9L248.716,232.782L249.262,228.588L249.808,224.321L250.354,219.98L250.9,215.567L251.446,211.083L251.992,206.531L252.538,201.913L253.084,197.23L253.63,192.485L254.176,187.682L254.722,182.823L255.268,177.912L255.814,172.953L256.359,167.95L256.905,162.908L257.451,157.833L257.997,152.729L258.543,147.602L259.089,142.46L259.635,137.308L260.181,132.153L260.727,127.005L261.273,121.87L261.819,116.758L262.365,111.677L262.911,106.636L263.457,101.647L264.003,96.718L264.549,91.861L265.095,87.087L265.641,82.406L266.187,77.832L266.733,73.375L267.279,69.048L267.825,64.863L268.371,60.833L268.917,56.97L269.463,53.287L270.009,49.796L270.555,46.51L271.101,43.441L271.647,40.601L272.193,38.001L272.739,35.653L273.284,33.566L273.83,31.753L274.376,30.221L274.922,28.979L275.468,28.035L276.014,27.396L276.56,27.068L277.106,27.056L277.652,27.364L278.198,27.994L278.744,28.949L279.29,30.227L279.836,31.83L280.382,33.753L280.928,35.995L281.474,38.55L282.02,41.413L282.566,44.577L283.112,48.034L283.658,51.774L284.204,55.787L284.75,60.062L285.296,64.588L285.842,69.351L286.388,74.337L286.934,79.533L287.48,84.923L288.026,90.493L288.572,96.227L289.118,102.109L289.664,108.123L290.21,114.254L290.755,120.485L291.301,126.8L291.847,133.185L292.393,139.624L292.939,146.102L293.485,152.605L294.031,159.118L294.577,165.628L295.123,172.123L295.669,178.591L296.215,185.019L296.761,191.398L297.307,197.716L297.853,203.965L298.399,210.136L298.945,216.221L299.491,222.212L300.037,228.104L300.583,233.89L301.129,239.565L301.675,245.124L302.221,250.564L302.767,255.882L303.313,261.074L303.859,266.138L304.405,271.073L304.951,275.877L305.497,280.55L306.043,285.091L306.589,289.501L307.135,293.779L307.68,297.928L308.226,301.946L308.772,305.837L309.318,309.6L309.864,313.24L310.41,316.756L310.956,320.151L311.502,323.429L312.048,326.59L312.594,329.637L313.14,332.574L313.686,335.403L314.232,338.126L314.778,340.746L315.324,343.267L315.87,345.691L316.416,348.02L316.962,350.258L317.508,352.408L318.054,354.472L318.6,356.453L319.146,358.354L319.692,360.178L320.238,361.926L320.784,363.603L321.33,365.21L321.876,366.75L322.422,368.225L322.968,369.638L323.514,370.991L324.06,372.287L324.605,373.527L325.151,374.714L325.697,375.85L326.243,376.936L326.789,377.976L327.335,378.97L327.881,379.921L328.427,380.83L328.973,381.699L329.519,382.529L330.065,383.323L330.611,384.082L331.157,384.807L331.703,385.5L332.249,386.162L332.795,386.794L333.341,387.398L333.887,387.975L334.433,388.526L334.979,389.052L335.525,389.555L336.071,390.034L336.617,390.492L337.163,390.929L337.709,391.347L338.255,391.745L338.801,392.126L339.347,392.488L339.893,392.835L340.439,393.165L340.985,393.481L341.53,393.782L342.076,394.069L342.622,394.343L343.168,394.605L343.714,394.855L344.26,395.093L344.806,395.32L345.352,395.537L345.898,395.743L346.444,395.941L346.99,396.129L347.536,396.308L348.082,396.479L348.628,396.643L349.174,396.798L349.72,396.947L350.266,397.089L350.812,397.224L351.358,397.353L351.904,397.476L352.45,397.593L352.996,397.705L353.542,397.811L354.088,397.913L354.634,398.01L355.18,398.103L355.726,398.191L356.272,398.275L356.818,398.355L357.364,398.432L357.91,398.505L358.455,398.574L359.001,398.641L359.547,398.704L360.093,398.764L360.639,398.822L361.185,398.876L361.731,398.929L362.277,398.979L362.823,399.026L363.369,399.071L363.915,399.115L364.461,399.156L365.007,399.195L365.553,399.233L366.099,399.268L366.645,399.303L367.191,399.335L367.737,399.366L368.283,399.395L368.829,399.424L369.375,399.45L369.921,399.476L370.467,399.5L371.013,399.524L371.559,399.546L372.105,399.567L372.651,399.587L373.197,399.607L373.743,399.625L374.289,399.642L374.835,399.659L375.381,399.675L375.926,399.69L376.472,399.704L377.018,399.718L377.564,399.731L378.11,399.744L378.656,399.756L379.202,399.767L379.748,399.778L380.294,399.788L380.84,399.798L381.386,399.808L381.932,399.817L382.478,399.825L383.024,399.833L383.57,399.841L384.116,399.848L384.662,399.856L385.208,399.862L385.754,399.869L386.3,399.875L386.846,399.881L387.392,399.886L387.938,399.892L388.484,399.897L389.03,399.901L389.576,399.906L390.122,399.91L390.668,399.915L391.214,399.919L391.76,399.922L392.306,399.926L392.851,399.929L393.397,399.933L393.943,399.936L394.489,399.939L395.035,399.942L395.581,399.944L396.127,399.947L396.673,399.949L397.219,399.952L397.765,399.954L398.311,399.956L398.857,399.958L399.403,399.96L399.949,399.962L400.495,399.964L401.041,399.966L401.587,399.967L402.133,399.969L402.679,399.97L403.225,399.971L403.771,399.973L404.317,399.974L404.863,399.975L405.409,399.976L405.955,399.978L406.501,399.979L407.047,399.98L407.593,399.981L408.139,399.981L408.685,399.982L409.231,399.983L409.776,399.984L410.322,399.985L410.868,399.985L411.414,399.986L411.96,399.987L412.506,399.987L413.052,399.988L413.598,399.988L414.144,399.989L414.69,399.99L415.236,399.99L415.782,399.99L416.328,399.991L416.874,399.991L417.42,399.992L417.966,399.992L418.512,399.993L419.058,399.993L419.604,399.993L420.15,399.994L420.696,399.994L421.242,399.994L421.788,399.994L422.334,399.995L422.88,399.995L423.426,399.995L423.972,399.995L424.518,399.996L425.064,399.996L425.61,399.996L426.156,399.996L426.701,399.996L427.247,399.997L427.793,399.997L428.339,399.997L428.885,399.997L429.431,399.997L429.977,399.997L430.523,399.997L431.069,399.998L431.615,399.998L432.161,399.998L432.707,399.998L433.253,399.998L433.799,399.998L434.345,399.998L434.891,399.998L435.437,399.998L435.983,399.998L436.529,399.998L437.075,399.999L437.621,399.999L438.167,399.999L438.713,399.999L439.259,399.999L439.805,399.999L440.351,399.999L440.897,399.999L441.443,399.999L441.989,399.999L442.535,399.999L443.081,399.999L443.626,399.999L444.172,399.999L444.718,399.999L445.264,399.999L445.81,399.999L446.356,399.999L446.902,399.999L447.448,399.999L447.994,399.999L448.54,399.999L449.086,399.999L449.632,400L450.178,400L450.724,400L451.27,400L451.816,400L452.362,400L452.908,400L453.454,400L454,400L454.546,400L455.092,400L455.638,400L456.184,400L456.73,400L457.276,400L457.822,400L458.368,400L458.914,400L459.46,400L460.006,400L460.552,400L461.097,400L461.643,400L462.189,400L462.735,400L463.281,400L463.827,400L464.373,400L464.919,400L465.465,400L466.011,400L466.557,400L467.103,400L467.649,400L468.195,400L468.741,400L469.287,400L469.833,400L470.379,400L470.925,400L471.471,400L472.017,400L472.563,400L473.109,400L473.655,400L474.201,400L474.747,400L475.293,400L475.839,400L476.385,400L476.931,400L477.477,400L478.022,400L478.568,400L479.114,400L479.66,400L480.206,400L480.752,400L481.298,400L481.844,400L482.39,400L482.936,400L483.482,400L484.028,400L484.574,400L485.12,400L485.666,400L486.212,400L486.758,400L487.304,400L487.85,400L488.396,400L488.942,400L489.488,400L490.034,400L490.58,400L491.126,400L491.672,400L492.218,400L492.764,400L493.31,400L493.856,400L494.402,400L494.947,400L495.493,400L496.039,400L496.585,400L497.131,400L497.677,400L498.223,400L498.769,400L499.315,400L499.861,400L500.407,400L500.953,400L501.499,400L502.045,400L502.591,400L503.137,400L503.683,400L504.229,400L504.775,400L505.321,400L505.867,400L506.413,400L506.959,400L507.505,400L508.051,400L508.597,400L509.143,400L509.689,400L510.235,400L510.781,400L511.327,400L511.872,400L512.418,400L512.964,400L513.51,400L514.056,400L514.602,400L515.148,400L515.694,400L516.24,400L516.786,400L517.332,400L517.878,400L518.424,400L518.97,400L519.516,400L520.062,400L520.608,400L521.154,400L521.7,400L522.246,400L522.792,400L523.338,400L523.884,400L524.43,400L524.976,400L525.522,400L526.068,400L526.614,400L527.16,400L527.706,400L528.252,400L528.797,400L529.343,400L529.889,400L530.435,400L530.981,400L531.527,400L532.073,400L532.619,400L533.165,400L533.711,400L534.257,400L534.803,400L535.349,400L535.895,400L536.441,400L536.987,400L537.533,400L538.079,400L538.625,400L539.171,400L539.717,400L540.263,400L540.809,400L541.355,400L541.901,400L542.447,400L542.993,400L543.539,400L544.085,400L544.631,400L545.177,400L545.722,400L546.268,400L546.814,400L547.36,400L547.906,400L548.452,400L548.998,400L549.544,400L550.09,400L550.636,400L551.182,400L551.728,400L552.274,400L552.82,400L553.366,400L553.912,400L554.458,400L555.004,400L555.55,400L556.096,400L556.642,400L557.188,400L557.734,400L558.28,400L558.826,400L559.372,400L559.918,400L560.464,400L561.01,400L561.556,400L562.102,400L562.648,400L563.193,400L563.739,400L564.285,400L564.831,400L565.377,400L565.923,400L566.469,400L567.015,400L567.561,400L568.107,400L568.653,400L569.199,400L569.745,400L570.291,400L570.837,400L571.383,400L571.929,400L572.475,400L573.021,400L573.567,400L574.113,400L574.659,400L575.205,400L575.751,400L576.297,400" stroke="blue" stroke-width="2" stroke-dasharray="1,0"/></g></g><path class="foreground" aria-hidden="true" d="" display="none"/></g></g><g class="mark-group role-legend" role="graphics-symbol" aria-roledescription="legend" aria-label="Symbol legend titled 'モデル' for stroke color with 2 values: 正規分布, 最適フィット (genlogistic)"><g transform="translate(0,-45)"><path class="background" aria-hidden="true" d="M0,0h200v27h-200Z" pointer-events="none"/><g><g class="mark-group role-legend-entry"><g transform="translate(0,16)"><path class="background" aria-hidden="true" d="M0,0h0v0h0Z" pointer-events="none"/><g><g class="mark-group role-scope" role="graphics-object" aria-roledescription="group mark container"><g transform="translate(0,0)"><path class="background" aria-hidden="true" d="M0,0h56v11h-56Z" pointer-events="none" opacity="1"/><g><g class="mark-symbol role-legend-symbol" pointer-events="none"><path transform="translate(6,6)" d="M-5,0L5,0" stroke="red" stroke-width="1.5" opacity="1"/></g><g class="mark-text role-legend-label" pointer-events="none"><text text-anchor="start" transform="translate(16,9)" font-family="sans-serif" font-size="10px" fill="#000" opacity="1">正規分布</text></g></g><path class="foreground" aria-hidden="true" d="" pointer-events="none" display="none"/></g><g transform="translate(67,0)"><path class="background" aria-hidden="true" d="M0,0h132.689453125v11h-132.689453125Z" pointer-events="none" opacity="1"/><g><g class="mark-symbol role-legend-symbol" pointer-events="none"><path transform="translate(6,6)" d="M-5,0L5,0" stroke="blue" stroke-width="1.5" opacity="1"/></g><g class="mark-text role-legend-label" pointer-events="none"><text text-anchor="start" transform="translate(16,9)" font-family="sans-serif" font-size="10px" fill="#000" opacity="1">最適フィット (genlogistic)</text></g></g><path class="foreground" aria-hidden="true" d="" pointer-events="none" display="none"/></g></g></g><path class="foreground" aria-hidden="true" d="" pointer-events="none" display="none"/></g></g><g class="mark-text role-legend-title" pointer-events="none"><text text-anchor="start" transform="translate(0,9)" font-family="sans-serif" font-size="11px" font-weight="bold" fill="#000" opacity="1">モデル</text></g></g><path class="foreground" aria-hidden="true" d="" pointer-events="none" display="none"/></g></g><g class="mark-group role-title"><g transform="translate(300,-62)"><path class="background" aria-hidden="true" d="M0,0h0v0h0Z" pointer-events="none"/><g><g class="mark-text role-title-text" role="graphics-symbol" aria-roledescription="title" aria-label="Title text 'S&amp;P500 月次 対数リターン (全期間)'" pointer-events="none"><text text-anchor="middle" transform="translate(0,10)" font-family="sans-serif" font-size="13px" font-weight="bold" fill="#000" opacity="1">S&amp;P500 月次 対数リターン (全期間)</text></g></g><path class="foreground" aria-hidden="true" d="" pointer-events="none" display="none"/></g></g></g><path class="foreground" aria-hidden="true" d="" display="none"/></g></g></g></svg>