<svg xmlns="http://www.w3.org/2000/svg" xmlns:xlink="http://www.w3.org/1999/xlink" version="1.1" class="marks" width="644" height="504" viewBox="0 0 644 504"><rect width="644" height="504" fill="white"/><g fill="none" stroke-miterlimit="10" transform="translate(39,67)"><g class="mark-group role-frame root" role="graphics-object" aria-roledescription="group mark container"><g transform="translate(0,0)"><path class="background" aria-hidden="true" d="M0.5,0.5h600v400h-600Z" stroke="#ddd"/><g><g class="mark-group role-axis" aria-hidden="true"><g transform="translate(0.5,400.5)"><path class="background" aria-hidden="true" d="M0,0h0v0h0Z" pointer-events="none"/><g><g class="mark-rule role-axis-grid" pointer-events="none"><line transform="translate(15,-400)" x2="0" y2="400" stroke="#ddd" stroke-width="1" opacity="1"/><line transform="translate(45,-400)" x2="0" y2="400" stroke="#ddd" stroke-width="1" opacity="1"/><line transform="translate(75,-400)" x2="0" y2="400" stroke="#ddd" stroke-width="1" opacity="1"/><line transform="translate(105,-400)" x2="0" y2="400" stroke="#ddd" stroke-width="1" opacity="1"/><line transform="translate(135,-400)" x2="0" y2="400" stroke="#ddd" stroke-width="1" opacity="1"/><line transform="translate(165,-400)" x2="0" y2="400" stroke="#ddd" stroke-width="1" opacity="1"/><line transform="translate(195,-400)" x2="0" y2="400" stroke="#ddd" stroke-width="1" opacity="1"/><line transform="translate(225,-400)" x2="0" y2="400" stroke="#ddd" stroke-width="1" opacity="1"/><line transform="translate(255,-400)" x2="0" y2="400" stroke="#ddd" stroke-width="1" opacity="1"/><line transform="translate(285,-400)" x2="0" y2="400" stroke="#ddd" stroke-width="1" opacity="1"/><line transform="translate(315,-400)" x2="0" y2="400" stroke="#ddd" stroke-width="1" opacity="1"/><line transform="translate(345,-400)" x2="0" y2="400" stroke="#ddd" stroke-width="1" opacity="1"/><line transform="translate(375,-400)" x2="0" y2="400" stroke="#ddd" stroke-width="1" opacity="1"/><line transform="translate(405,-400)" x2="0" y2="400" stroke="#ddd" stroke-width="1" opacity="1"/><line transform="translate(435,-400)" x2="0" y2="400" stroke="#ddd" stroke-width="1" opacity="1"/><line transform="translate(465,-400)" x2="0" y2="400" stroke="#ddd" stroke-width="1" opacity="1"/><line transform="translate(495,-400)" x2="0" y2="400" stroke="#ddd" stroke-width="1" opacity="1"/><line transform="translate(525,-400)" x2="0" y2="400" stroke="#ddd" stroke-width="1" opacity="1"/><line transform="translate(555,-400)" x2="0" y2="400" stroke="#ddd" stroke-width="1" opacity="1"/><line transform="translate(585,-400)" x2="0" y2="400" stroke="#ddd" stroke-width="1" opacity="1"/></g></g><path class="foreground" aria-hidden="true" d="" pointer-events="none" display="none"/></g></g><g class="mark-group role-axis" aria-hidden="true"><g transform="translate(0.5,0.5)"><path class="background" aria-hidden="true" d="M0,0h0v0h0Z" pointer-events="none"/><g><g class="mark-rule role-axis-grid" pointer-events="none"><line transform="translate(0,400)" x2="600" y2="0" stroke="#ddd" stroke-width="1" opacity="1"/><line transform="translate(0,367)" x2="600" y2="0" stroke="#ddd" stroke-width="1" opacity="1"/><line transform="translate(0,333)" x2="600" y2="0" stroke="#ddd" stroke-width="1" opacity="1"/><line transform="translate(0,300)" x2="600" y2="0" stroke="#ddd" stroke-width="1" opacity="1"/><line transform="translate(0,267)" x2="600" y2="0" stroke="#ddd" stroke-width="1" opacity="1"/><line transform="translate(0,233)" x2="600" y2="0" stroke="#ddd" stroke-width="1" opacity="1"/><line transform="translate(0,200)" x2="600" y2="0" stroke="#ddd" stroke-width="1" opacity="1"/><line transform="translate(0,167)" x2="600" y2="0" stroke="#ddd" stroke-width="1" opacity="1"/><line transform="translate(0,133)" x2="600" y2="0" stroke="#ddd" stroke-width="1" opacity="1"/><line transform="translate(0,100)" x2="600" y2="0" stroke="#ddd" stroke-width="1" opacity="1"/><line transform="translate(0,67)" x2="600" y2="0" stroke="#ddd" stroke-width="1" opacity="1"/><line transform="translate(0,33)" x2="600" y2="0" stroke="#ddd" stroke-width="1" opacity="1"/><line transform="translate(0,0)" x2="600" y2="0" stroke="#ddd" stroke-width="1" opacity="1"/></g></g><path class="foreground" aria-hidden="true" d="" pointer-events="none" display="none"/></g></g><g class="mark-group role-axis" role="graphics-symbol" aria-roledescription="axis" aria-label="X-axis titled 'リターン' for a linear scale with values from −0.1 to 0.3"><g transform="translate(0.5,400.5)"><path class="background" aria-hidden="true" d="M0,0h0v0h0Z" pointer-events="none"/><g><g class="mark-rule role-axis-tick" pointer-events="none"><line transform="translate(15,0)" x2="0" y2="5" stroke="#888" stroke-width="1" opacity="1"/><line transform="translate(45,0)" x2="0" y2="5" stroke="#888" stroke-width="1" opacity="1"/><line transform="translate(75,0)" x2="0" y2="5" stroke="#888" stroke-width="1" opacity="1"/><line transform="translate(105,0)" x2="0" y2="5" stroke="#888" stroke-width="1" opacity="1"/><line transform="translate(135,0)" x2="0" y2="5" stroke="#888" stroke-width="1" opacity="1"/><line transform="translate(165,0)" x2="0" y2="5" stroke="#888" stroke-width="1" opacity="1"/><line transform="translate(195,0)" x2="0" y2="5" stroke="#888" stroke-width="1" opacity="1"/><line transform="translate(225,0)" x2="0" y2="5" stroke="#888" stroke-width="1" opacity="1"/><line transform="translate(255,0)" x2="0" y2="5" stroke="#888" stroke-width="1" opacity="1"/><line transform="translate(285,0)" x2="0" y2="5" stroke="#888" stroke-width="1" opacity="1"/><line transform="translate(315,0)" x2="0" y2="5" stroke="#888" stroke-width="1" opacity="1"/><line transform="translate(345,0)" x2="0" y2="5" stroke="#888" stroke-width="1" opacity="1"/><line transform="translate(375,0)" x2="0" y2="5" stroke="#888" stroke-width="1" opacity="1"/><line transform="translate(405,0)" x2="0" y2="5" stroke="#888" stroke-width="1" opacity="1"/><line transform="translate(435,0)" x2="0" y2="5" stroke="#888" stroke-width="1" opacity="1"/><line transform="translate(465,0)" x2="0" y2="5" stroke="#888" stroke-width="1" opacity="1"/><line transform="translate(495,0)" x2="0" y2="5" stroke="#888" stroke-width="1" opacity="1"/><line transform="translate(525,0)" x2="0" y2="5" stroke="#888" stroke-width="1" opacity="1"/><line transform="translate(555,0)" x2="0" y2="5" stroke="#888" stroke-width="1" opacity="1"/><line transform="translate(585,0)" x2="0" y2="5" stroke="#888" stroke-width="1" opacity="1"/></g><g class="mark-text role-axis-label" pointer-events="none"><text text-anchor="middle" transform="translate(14.999999999999972,15)" font-family="sans-serif" font-size="10px" fill="#000" opacity="1">−0.14</text><text text-anchor="middle" transform="translate(45,15)" font-family="sans-serif" font-size="10px" fill="#000" opacity="1">−0.12</text><text text-anchor="middle" transform="translate(74.99999999999999,15)" font-family="sans-serif" font-size="10px" fill="#000" opacity="1">−0.10</text><text text-anchor="middle" transform="translate(104.99999999999997,15)" font-family="sans-serif" font-size="10px" fill="#000" opacity="1">−0.08</text><text text-anchor="middle" transform="translate(135,15)" font-family="sans-serif" font-size="10px" fill="#000" opacity="1">−0.06</text><text text-anchor="middle" transform="translate(164.99999999999997,15)" font-family="sans-serif" font-size="10px" fill="#000" opacity="1">−0.04</text><text text-anchor="middle" transform="translate(195,15)" font-family="sans-serif" font-size="10px" fill="#000" opacity="1">−0.02</text><text text-anchor="middle" transform="translate(224.99999999999997,15)" font-family="sans-serif" font-size="10px" fill="#000" opacity="1">0.00</text><text text-anchor="middle" transform="translate(254.99999999999997,15)" font-family="sans-serif" font-size="10px" fill="#000" opacity="1">0.02</text><text text-anchor="middle" transform="translate(285,15)" font-family="sans-serif" font-size="10px" fill="#000" opacity="1">0.04</text><text text-anchor="middle" transform="translate(314.99999999999994,15)" font-family="sans-serif" font-size="10px" fill="#000" opacity="1">0.06</text><text text-anchor="middle" transform="translate(345,15)" font-family="sans-serif" font-size="10px" fill="#000" opacity="1">0.08</text><text text-anchor="middle" transform="translate(375,15)" font-family="sans-serif" font-size="10px" fill="#000" opacity="1">0.10</text><text text-anchor="middle" transform="translate(405,15)" font-family="sans-serif" font-size="10px" fill="#000" opacity="1">0.12</text><text text-anchor="middle" transform="translate(435.00000000000006,15)" font-family="sans-serif" font-size="10px" fill="#000" opacity="1">0.14</text><text text-anchor="middle" transform="translate(464.99999999999994,15)" font-family="sans-serif" font-size="10px" fill="#000" opacity="1">0.16</text><text text-anchor="middle" transform="translate(494.9999999999999,15)" font-family="sans-serif" font-size="10px" fill="#000" opacity="1">0.18</text><text text-anchor="middle" transform="translate(524.9999999999999,15)" font-family="sans-serif" font-size="10px" fill="#000" opacity="1">0.20</text><text text-anchor="middle" transform="translate(555,15)" font-family="sans-serif" font-size="10px" fill="#000" opacity="1">0.22</text><text text-anchor="middle" transform="translate(585,15)" font-family="sans-serif" font-size="10px" fill="#000" opacity="1">0.24</text></g><g class="mark-rule role-axis-domain" pointer-events="none"><line transform="translate(0,0)" x2="600" y2="0" stroke="#888" stroke-width="1" opacity="1"/></g><g class="mark-text role-axis-title" pointer-events="none"><text text-anchor="middle" transform="translate(300,30)" font-family="sans-serif" font-size="11px" font-weight="bold" fill="#000" opacity="1">リターン</text></g></g><path class="foreground" aria-hidden="true" d="" pointer-events="none" display="none"/></g></g><g class="mark-group role-axis" role="graphics-symbol" aria-roledescription="axis" aria-label="Y-axis titled '頻度' for a linear scale with values from 0 to 60"><g transform="translate(0.5,0.5)"><path class="background" aria-hidden="true" d="M0,0h0v0h0Z" pointer-events="none"/><g><g class="mark-rule role-axis-tick" pointer-events="none"><line transform="translate(0,400)" x2="-5" y2="0" stroke="#888" stroke-width="1" opacity="1"/><line transform="translate(0,367)" x2="-5" y2="0" stroke="#888" stroke-width="1" opacity="1"/><line transform="translate(0,333)" x2="-5" y2="0" stroke="#888" stroke-width="1" opacity="1"/><line transform="translate(0,300)" x2="-5" y2="0" stroke="#888" stroke-width="1" opacity="1"/><line transform="translate(0,267)" x2="-5" y2="0" stroke="#888" stroke-width="1" opacity="1"/><line transform="translate(0,233)" x2="-5" y2="0" stroke="#888" stroke-width="1" opacity="1"/><line transform="translate(0,200)" x2="-5" y2="0" stroke="#888" stroke-width="1" opacity="1"/><line transform="translate(0,167)" x2="-5" y2="0" stroke="#888" stroke-width="1" opacity="1"/><line transform="translate(0,133)" x2="-5" y2="0" stroke="#888" stroke-width="1" opacity="1"/><line transform="translate(0,100)" x2="-5" y2="0" stroke="#888" stroke-width="1" opacity="1"/><line transform="translate(0,67)" x2="-5" y2="0" stroke="#888" stroke-width="1" opacity="1"/><line transform="translate(0,33)" x2="-5" y2="0" stroke="#888" stroke-width="1" opacity="1"/><line transform="translate(0,0)" x2="-5" y2="0" stroke="#888" stroke-width="1" opacity="1"/></g><g class="mark-text role-axis-label" pointer-events="none"><text text-anchor="end" transform="translate(-7,403)" font-family="sans-serif" font-size="10px" fill="#000" opacity="1">0</text><text text-anchor="end" transform="translate(-7,369.66666666666663)" font-family="sans-serif" font-size="10px" fill="#000" opacity="1">5</text><text text-anchor="end" transform="translate(-7,336.33333333333337)" font-family="sans-serif" font-size="10px" fill="#000" opacity="1">10</text><text text-anchor="end" transform="translate(-7,303)" font-family="sans-serif" font-size="10px" fill="#000" opacity="1">15</text><text text-anchor="end" transform="translate(-7,269.6666666666667)" font-family="sans-serif" font-size="10px" fill="#000" opacity="1">20</text><text text-anchor="end" transform="translate(-7,236.33333333333331)" font-family="sans-serif" font-size="10px" fill="#000" opacity="1">25</text><text text-anchor="end" transform="translate(-7,203)" font-family="sans-serif" font-size="10px" fill="#000" opacity="1">30</text><text text-anchor="end" transform="translate(-7,169.66666666666666)" font-family="sans-serif" font-size="10px" fill="#000" opacity="1">35</text><text text-anchor="end" transform="translate(-7,136.33333333333334)" font-family="sans-serif" font-size="10px" fill="#000" opacity="1">40</text><text text-anchor="end" transform="translate(-7,103)" font-family="sans-serif" font-size="10px" fill="#000" opacity="1">45</text><text text-anchor="end" transform="translate(-7,69.66666666666666)" font-family="sans-serif" font-size="10px" fill="#000" opacity="1">50</text><text text-anchor="end" transform="translate(-7,36.33333333333335)" font-family="sans-serif" font-size="10px" fill="#000" opacity="1">55</text><text text-anchor="end" transform="translate(-7,3)" font-family="sans-serif" font-size="10px" fill="#000" opacity="1">60</text></g><g class="mark-rule role-axis-domain" pointer-events="none"><line transform="translate(0,400)" x2="0" y2="-400" stroke="#888" stroke-width="1" opacity="1"/></g><g class="mark-text role-axis-title" pointer-events="none"><text text-anchor="middle" transform="translate(-22.123046875,200) rotate(-90) translate(0,-2)" font-family="sans-serif" font-size="11px" font-weight="bold" fill="#000" opacity="1">頻度</text></g></g><path class="foreground" aria-hidden="true" d="" pointer-events="none" display="none"/></g></g><g class="mark-rect role-mark layer_0_marks" role="graphics-object" aria-roledescription="rect mark container"><path aria-label="リターン: −0.132551422877; 頻度: 0.0367846387214" role="graphics-symbol" aria-roledescription="bar" d="M23.67286568476286,399.75476907519044h5v0.24523092480956166h-5Z" fill="gray" opacity="0.6"/><path aria-label="リターン: −0.12912586077; 頻度: 0" role="graphics-symbol" aria-roledescription="bar" d="M28.811208844949213,400h5v0h-5Z" fill="gray" opacity="0.6"/><path aria-label="リターン: −0.125700298663; 頻度: 0" role="graphics-symbol" aria-roledescription="bar" d="M33.949552005135565,400h5v0h-5Z" fill="gray" opacity="0.6"/><path aria-label="リターン: −0.122274736556; 頻度: 0" role="graphics-symbol" aria-roledescription="bar" d="M39.087895165321896,400h5v0h-5Z" fill="gray" opacity="0.6"/><path aria-label="リターン: −0.11884917445; 頻度: 0.0367846387214" role="graphics-symbol" aria-roledescription="bar" d="M44.226238325508234,399.75476907519044h5v0.24523092480956166h-5Z" fill="gray" opacity="0.6"/><path aria-label="リターン: −0.115423612343; 頻度: 0" role="graphics-symbol" aria-roledescription="bar" d="M49.364581485694586,400h5v0h-5Z" fill="gray" opacity="0.6"/><path aria-label="リターン: −0.111998050236; 頻度: 0.0367846387214" role="graphics-symbol" aria-roledescription="bar" d="M54.502924645880945,399.75476907519044h5v0.24523092480956166h-5Z" fill="gray" opacity="0.6"/><path aria-label="リターン: −0.108572488129; 頻度: 0" role="graphics-symbol" aria-roledescription="bar" d="M59.6412678060673,400h5v0h-5Z" fill="gray" opacity="0.6"/><path aria-label="リターン: −0.105146926022; 頻度: 0" role="graphics-symbol" aria-roledescription="bar" d="M64.77961096625366,400h5v0h-5Z" fill="gray" opacity="0.6"/><path aria-label="リターン: −0.101721363916; 頻度: 0.0735692774429" role="graphics-symbol" aria-roledescription="bar" d="M69.91795412643998,399.5095381503809h5v0.4904618496191233h-5Z" fill="gray" opacity="0.6"/><path aria-label="リターン: −0.0982958018089; 頻度: 0" role="graphics-symbol" aria-roledescription="bar" d="M75.0562972866263,400h5v0h-5Z" fill="gray" opacity="0.6"/><path aria-label="リターン: −0.0948702397021; 頻度: 0.0367846387214" role="graphics-symbol" aria-roledescription="bar" d="M80.19464044681266,399.75476907519044h5v0.24523092480956166h-5Z" fill="gray" opacity="0.6"/><path aria-label="リターン: −0.0914446775953; 頻度: 0.0735692774429" role="graphics-symbol" aria-roledescription="bar" d="M85.33298360699902,399.5095381503809h5v0.4904618496191233h-5Z" fill="gray" opacity="0.6"/><path aria-label="リターン: −0.0880191154885; 頻度: 0.110353916164" role="graphics-symbol" aria-roledescription="bar" d="M90.47132676718537,399.2643072255714h5v0.7356927744286281h-5Z" fill="gray" opacity="0.6"/><path aria-label="リターン: −0.0845935533818; 頻度: 0" role="graphics-symbol" aria-roledescription="bar" d="M95.60966992737173,400h5v0h-5Z" fill="gray" opacity="0.6"/><path aria-label="リターン: −0.081167991275; 頻度: 0.0367846387214" role="graphics-symbol" aria-roledescription="bar" d="M100.74801308755808,399.75476907519044h5v0.24523092480956166h-5Z" fill="gray" opacity="0.6"/><path aria-label="リターン: −0.0777424291682; 頻度: 0.0735692774429" role="graphics-symbol" aria-roledescription="bar" d="M105.8863562477444,399.5095381503809h5v0.4904618496191233h-5Z" fill="gray" opacity="0.6"/><path aria-label="リターン: −0.0743168670614; 頻度: 0.147138554886" role="graphics-symbol" aria-roledescription="bar" d="M111.02469940793075,399.0190763007618h5v0.9809236992381898h-5Z" fill="gray" opacity="0.6"/><path aria-label="リターン: −0.0708913049546; 頻度: 0.0735692774429" role="graphics-symbol" aria-roledescription="bar" d="M116.1630425681171,399.5095381503809h5v0.4904618496191233h-5Z" fill="gray" opacity="0.6"/><path aria-label="リターン: −0.0674657428478; 頻度: 0.183923193607" role="graphics-symbol" aria-roledescription="bar" d="M121.30138572830346,398.77384537595225h5v1.2261546240477514h-5Z" fill="gray" opacity="0.6"/><path aria-label="リターン: −0.064040180741; 頻度: 0.110353916164" role="graphics-symbol" aria-roledescription="bar" d="M126.43972888848981,399.2643072255714h5v0.7356927744286281h-5Z" fill="gray" opacity="0.6"/><path aria-label="リターン: −0.0606146186342; 頻度: 0.147138554886" role="graphics-symbol" aria-roledescription="bar" d="M131.57807204867612,399.0190763007618h5v0.9809236992381898h-5Z" fill="gray" opacity="0.6"/><path aria-label="リターン: −0.0571890565274; 頻度: 0.183923193607" role="graphics-symbol" aria-roledescription="bar" d="M136.7164152088625,398.77384537595225h5v1.2261546240477514h-5Z" fill="gray" opacity="0.6"/><path aria-label="リターン: −0.0537634944206; 頻度: 0.183923193607" role="graphics-symbol" aria-roledescription="bar" d="M141.85475836904882,398.77384537595225h5v1.2261546240477514h-5Z" fill="gray" opacity="0.6"/><path aria-label="リターン: −0.0503379323138; 頻度: 0.294277109771" role="graphics-symbol" aria-roledescription="bar" d="M146.9931015292352,398.0381526015237h5v1.9618473984763227h-5Z" fill="gray" opacity="0.6"/><path aria-label="リターン: −0.0469123702071; 頻度: 0.294277109771" role="graphics-symbol" aria-roledescription="bar" d="M152.13144468942153,398.0381526015237h5v1.9618473984763227h-5Z" fill="gray" opacity="0.6"/><path aria-label="リターン: −0.0434868081003; 頻度: 0.588554219543" role="graphics-symbol" aria-roledescription="bar" d="M157.26978784960787,396.07630520304735h5v3.9236947969526454h-5Z" fill="gray" opacity="0.6"/><path aria-label="リターン: −0.0400612459935; 頻度: 0.5149849421" role="graphics-symbol" aria-roledescription="bar" d="M162.40813100979423,396.56676705266636h5v3.433232947333636h-5Z" fill="gray" opacity="0.6"/><path aria-label="リターン: −0.0366356838867; 頻度: 0.662123496986" role="graphics-symbol" aria-roledescription="bar" d="M167.54647416998057,395.58584335342823h5v4.414156646571769h-5Z" fill="gray" opacity="0.6"/><path aria-label="リターン: −0.0332101217799; 頻度: 1.21389307781" role="graphics-symbol" aria-roledescription="bar" d="M172.68481733016694,391.9073794812851h5v8.09262051871491h-5Z" fill="gray" opacity="0.6"/><path aria-label="リターン: −0.0297845596731; 頻度: 1.83923193607" role="graphics-symbol" aria-roledescription="bar" d="M177.82316049035325,387.7384537595228h5v12.261546240477173h-5Z" fill="gray" opacity="0.6"/><path aria-label="リターン: −0.0263589975663; 頻度: 2.20707832329" role="graphics-symbol" aria-roledescription="bar" d="M182.9615036505396,385.28614451142744h5v14.713855488572563h-5Z" fill="gray" opacity="0.6"/><path aria-label="リターン: −0.0229334354595; 頻度: 3.31061748493" role="graphics-symbol" aria-roledescription="bar" d="M188.09984681072595,377.92921676714116h5v22.070783232858844h-5Z" fill="gray" opacity="0.6"/><path aria-label="リターン: −0.0195078733527; 頻度: 5.22341869844" role="graphics-symbol" aria-roledescription="bar" d="M193.23818997091232,365.1772086770447h5v34.82279132295531h-5Z" fill="gray" opacity="0.6"/><path aria-label="リターン: −0.0160823112459; 頻度: 7.65120485406" role="graphics-symbol" aria-roledescription="bar" d="M198.37653313109865,348.99196763961504h5v51.00803236038496h-5Z" fill="gray" opacity="0.6"/><path aria-label="リターン: −0.0126567491391; 頻度: 11.0353916164" role="graphics-symbol" aria-roledescription="bar" d="M203.51487629128502,326.4307225571371h5v73.56927744286293h-5Z" fill="gray" opacity="0.6"/><path aria-label="リターン: −0.00923118703235; 頻度: 16.4427335085" role="graphics-symbol" aria-roledescription="bar" d="M208.65321945147133,290.3817766101337h5v109.61822338986627h-5Z" fill="gray" opacity="0.6"/><path aria-label="リターン: −0.00580562492556; 頻度: 25.5653239114" role="graphics-symbol" aria-roledescription="bar" d="M213.7915626116577,229.56450725736747h5v170.43549274263253h-5Z" fill="gray" opacity="0.6"/><path aria-label="リターン: −0.00238006281877; 頻度: 44.5829821304" role="graphics-symbol" aria-roledescription="bar" d="M218.92990577184406,102.7801191308336h5v297.2198808691664h-5Z" fill="gray" opacity="0.6"/><path aria-label="リターン: 0.00104549928802; 頻度: 55.1401734434" role="graphics-symbol" aria-roledescription="bar" d="M224.0682489320304,32.39884371049473h5v367.6011562895053h-5Z" fill="gray" opacity="0.6"/><path aria-label="リターン: 0.00447106139481; 頻度: 40.3527486774" role="graphics-symbol" aria-roledescription="bar" d="M229.20659209221677,130.98167548393113h5v269.0183245160689h-5Z" fill="gray" opacity="0.6"/><path aria-label="リターン: 0.0078966235016; 頻度: 26.5217245182" role="graphics-symbol" aria-roledescription="bar" d="M234.34493525240308,223.18850321231793h5v176.81149678768207h-5Z" fill="gray" opacity="0.6"/><path aria-label="リターン: 0.0113221856084; 頻度: 17.5830573088" role="graphics-symbol" aria-roledescription="bar" d="M239.48327841258944,282.77961794103834h5v117.22038205896166h-5Z" fill="gray" opacity="0.6"/><path aria-label="リターン: 0.0147477477152; 頻度: 10.3364834807" role="graphics-symbol" aria-roledescription="bar" d="M244.62162157277578,331.09011012851835h5v68.90988987148165h-5Z" fill="gray" opacity="0.6"/><path aria-label="リターン: 0.018173309822; 頻度: 6.10625002776" role="graphics-symbol" aria-roledescription="bar" d="M249.75996473296215,359.29166648161583h5v40.708333518384165h-5Z" fill="gray" opacity="0.6"/><path aria-label="リターン: 0.0215988719288; 頻度: 3.56810995598" role="graphics-symbol" aria-roledescription="bar" d="M254.8983078931485,376.2126002934743h5v23.78739970652572h-5Z" fill="gray" opacity="0.6"/><path aria-label="リターン: 0.0250244340356; 頻度: 2.64849398794" role="graphics-symbol" aria-roledescription="bar" d="M260.0366510533348,382.34337341371287h5v17.656626586287132h-5Z" fill="gray" opacity="0.6"/><path aria-label="リターン: 0.0284499961423; 頻度: 1.25067771653" role="graphics-symbol" aria-roledescription="bar" d="M265.1749942135212,391.6621485564755h5v8.337851443524528h-5Z" fill="gray" opacity="0.6"/><path aria-label="リターン: 0.0318755582491; 頻度: 0.698908135707" role="graphics-symbol" aria-roledescription="bar" d="M270.3133373737075,395.34061242861867h5v4.65938757138133h-5Z" fill="gray" opacity="0.6"/><path aria-label="リターン: 0.0353011203559; 頻度: 0.882831329314" role="graphics-symbol" aria-roledescription="bar" d="M275.45168053389386,394.114457804571h5v5.885542195429025h-5Z" fill="gray" opacity="0.6"/><path aria-label="リターン: 0.0387266824627; 頻度: 0.809262051871" role="graphics-symbol" aria-roledescription="bar" d="M280.5900236940802,394.60491965419004h5v5.3950803458099585h-5Z" fill="gray" opacity="0.6"/><path aria-label="リターン: 0.0421522445695; 頻度: 0.662123496986" role="graphics-symbol" aria-roledescription="bar" d="M285.72836685426654,395.58584335342823h5v4.414156646571769h-5Z" fill="gray" opacity="0.6"/><path aria-label="リターン: 0.0455778066763; 頻度: 0.367846387214" role="graphics-symbol" aria-roledescription="bar" d="M290.8667100144529,397.54769075190455h5v2.452309248095446h-5Z" fill="gray" opacity="0.6"/><path aria-label="リターン: 0.0490033687831; 頻度: 0.294277109771" role="graphics-symbol" aria-roledescription="bar" d="M296.0050531746393,398.0381526015237h5v1.9618473984763227h-5Z" fill="gray" opacity="0.6"/><path aria-label="リターン: 0.0524289308899; 頻度: 0.331061748493" role="graphics-symbol" aria-roledescription="bar" d="M301.1433963348256,397.79292167671406h5v2.2070783232859412h-5Z" fill="gray" opacity="0.6"/><path aria-label="リターン: 0.0558544929967; 頻度: 0.25749247105" role="graphics-symbol" aria-roledescription="bar" d="M306.28173949501195,398.28338352633324h5v1.716616473666761h-5Z" fill="gray" opacity="0.6"/><path aria-label="リターン: 0.0592800551035; 頻度: 0.110353916164" role="graphics-symbol" aria-roledescription="bar" d="M311.42008265519826,399.2643072255714h5v0.7356927744286281h-5Z" fill="gray" opacity="0.6"/><path aria-label="リターン: 0.0627056172103; 頻度: 0.220707832329" role="graphics-symbol" aria-roledescription="bar" d="M316.5584258153846,398.52861445114274h5v1.4713855488572563h-5Z" fill="gray" opacity="0.6"/><path aria-label="リターン: 0.066131179317; 頻度: 0.110353916164" role="graphics-symbol" aria-roledescription="bar" d="M321.696768975571,399.2643072255714h5v0.7356927744286281h-5Z" fill="gray" opacity="0.6"/><path aria-label="リターン: 0.0695567414238; 頻度: 0.147138554886" role="graphics-symbol" aria-roledescription="bar" d="M326.83511213575736,399.0190763007618h5v0.9809236992381898h-5Z" fill="gray" opacity="0.6"/><path aria-label="リターン: 0.0729823035306; 頻度: 0" role="graphics-symbol" aria-roledescription="bar" d="M331.9734552959437,400h5v0h-5Z" fill="gray" opacity="0.6"/><path aria-label="リターン: 0.0764078656374; 頻度: 0" role="graphics-symbol" aria-roledescription="bar" d="M337.11179845613,400h5v0h-5Z" fill="gray" opacity="0.6"/><path aria-label="リターン: 0.0798334277442; 頻度: 0.0735692774429" role="graphics-symbol" aria-roledescription="bar" d="M342.25014161631634,399.5095381503809h5v0.4904618496191233h-5Z" fill="gray" opacity="0.6"/><path aria-label="リターン: 0.083258989851; 頻度: 0.0367846387214" role="graphics-symbol" aria-roledescription="bar" d="M347.3884847765027,399.75476907519044h5v0.24523092480956166h-5Z" fill="gray" opacity="0.6"/><path aria-label="リターン: 0.0866845519578; 頻度: 0.0367846387214" role="graphics-symbol" aria-roledescription="bar" d="M352.5268279366891,399.75476907519044h5v0.24523092480956166h-5Z" fill="gray" opacity="0.6"/><path aria-label="リターン: 0.0901101140646; 頻度: 0" role="graphics-symbol" aria-roledescription="bar" d="M357.6651710968754,400h5v0h-5Z" fill="gray" opacity="0.6"/><path aria-label="リターン: 0.0935356761714; 頻度: 0.110353916164" role="graphics-symbol" aria-roledescription="bar" d="M362.80351425706175,399.2643072255714h5v0.7356927744286281h-5Z" fill="gray" opacity="0.6"/><path aria-label="リターン: 0.0969612382782; 頻度: 0.0367846387214" role="graphics-symbol" aria-roledescription="bar" d="M367.9418574172481,399.75476907519044h5v0.24523092480956166h-5Z" fill="gray" opacity="0.6"/><path aria-label="リターン: 0.100386800385; 頻度: 0" role="graphics-symbol" aria-roledescription="bar" d="M373.0802005774345,400h5v0h-5Z" fill="gray" opacity="0.6"/><path aria-label="リターン: 0.103812362492; 頻度: 0" role="graphics-symbol" aria-roledescription="bar" d="M378.2185437376208,400h5v0h-5Z" fill="gray" opacity="0.6"/><path aria-label="リターン: 0.107237924599; 頻度: 0.0735692774429" role="graphics-symbol" aria-roledescription="bar" d="M383.35688689780716,399.5095381503809h5v0.4904618496191233h-5Z" fill="gray" opacity="0.6"/><path aria-label="リターン: 0.110663486705; 頻度: 0.0367846387214" role="graphics-symbol" aria-roledescription="bar" d="M388.4952300579935,399.75476907519044h5v0.24523092480956166h-5Z" fill="gray" opacity="0.6"/><path aria-label="リターン: 0.114089048812; 頻度: 0" role="graphics-symbol" aria-roledescription="bar" d="M393.6335732181799,400h5v0h-5Z" fill="gray" opacity="0.6"/><path aria-label="リターン: 0.117514610919; 頻度: 0.0367846387214" role="graphics-symbol" aria-roledescription="bar" d="M398.77191637836626,399.75476907519044h5v0.24523092480956166h-5Z" fill="gray" opacity="0.6"/><path aria-label="リターン: 0.120940173026; 頻度: 0" role="graphics-symbol" aria-roledescription="bar" d="M403.91025953855257,400h5v0h-5Z" fill="gray" opacity="0.6"/><path aria-label="リターン: 0.124365735132; 頻度: 0.0367846387214" role="graphics-symbol" aria-roledescription="bar" d="M409.04860269873893,399.75476907519044h5v0.24523092480956166h-5Z" fill="gray" opacity="0.6"/><path aria-label="リターン: 0.127791297239; 頻度: 0.0367846387214" role="graphics-symbol" aria-roledescription="bar" d="M414.1869458589253,399.75476907519044h5v0.24523092480956166h-5Z" fill="gray" opacity="0.6"/><path aria-label="リターン: 0.131216859346; 頻度: 0" role="graphics-symbol" aria-roledescription="bar" d="M419.32528901911166,400h5v0h-5Z" fill="gray" opacity="0.6"/><path aria-label="リターン: 0.134642421453; 頻度: 0" role="graphics-symbol" aria-roledescription="bar" d="M424.463632179298,400h5v0h-5Z" fill="gray" opacity="0.6"/><path aria-label="リターン: 0.13806798356; 頻度: 0" role="graphics-symbol" aria-roledescription="bar" d="M429.60197533948434,400h5v0h-5Z" fill="gray" opacity="0.6"/><path aria-label="リターン: 0.141493545666; 頻度: 0" role="graphics-symbol" aria-roledescription="bar" d="M434.7403184996707,400h5v0h-5Z" fill="gray" opacity="0.6"/><path aria-label="リターン: 0.144919107773; 頻度: 0" role="graphics-symbol" aria-roledescription="bar" d="M439.8786616598571,400h5v0h-5Z" fill="gray" opacity="0.6"/><path aria-label="リターン: 0.14834466988; 頻度: 0" role="graphics-symbol" aria-roledescription="bar" d="M445.01700482004344,400h5v0h-5Z" fill="gray" opacity="0.6"/><path aria-label="リターン: 0.151770231987; 頻度: 0" role="graphics-symbol" aria-roledescription="bar" d="M450.15534798022964,400h5v0h-5Z" fill="gray" opacity="0.6"/><path aria-label="リターン: 0.155195794094; 頻度: 0" role="graphics-symbol" aria-roledescription="bar" d="M455.29369114041594,400h5v0h-5Z" fill="gray" opacity="0.6"/><path aria-label="リターン: 0.1586213562; 頻度: 0" role="graphics-symbol" aria-roledescription="bar" d="M460.43203430060225,400h5v0h-5Z" fill="gray" opacity="0.6"/><path aria-label="リターン: 0.162046918307; 頻度: 0" role="graphics-symbol" aria-roledescription="bar" d="M465.5703774607886,400h5v0h-5Z" fill="gray" opacity="0.6"/><path aria-label="リターン: 0.165472480414; 頻度: 0" role="graphics-symbol" aria-roledescription="bar" d="M470.708720620975,400h5v0h-5Z" fill="gray" opacity="0.6"/><path aria-label="リターン: 0.168898042521; 頻度: 0" role="graphics-symbol" aria-roledescription="bar" d="M475.84706378116135,400h5v0h-5Z" fill="gray" opacity="0.6"/><path aria-label="リターン: 0.172323604628; 頻度: 0" role="graphics-symbol" aria-roledescription="bar" d="M480.9854069413477,400h5v0h-5Z" fill="gray" opacity="0.6"/><path aria-label="リターン: 0.175749166734; 頻度: 0" role="graphics-symbol" aria-roledescription="bar" d="M486.12375010153403,400h5v0h-5Z" fill="gray" opacity="0.6"/><path aria-label="リターン: 0.179174728841; 頻度: 0" role="graphics-symbol" aria-roledescription="bar" d="M491.2620932617204,400h5v0h-5Z" fill="gray" opacity="0.6"/><path aria-label="リターン: 0.182600290948; 頻度: 0" role="graphics-symbol" aria-roledescription="bar" d="M496.40043642190676,400h5v0h-5Z" fill="gray" opacity="0.6"/><path aria-label="リターン: 0.186025853055; 頻度: 0" role="graphics-symbol" aria-roledescription="bar" d="M501.5387795820931,400h5v0h-5Z" fill="gray" opacity="0.6"/><path aria-label="リターン: 0.189451415162; 頻度: 0" role="graphics-symbol" aria-roledescription="bar" d="M506.67712274227944,400h5v0h-5Z" fill="gray" opacity="0.6"/><path aria-label="リターン: 0.192876977268; 頻度: 0" role="graphics-symbol" aria-roledescription="bar" d="M511.8154659024658,400h5v0h-5Z" fill="gray" opacity="0.6"/><path aria-label="リターン: 0.196302539375; 頻度: 0" role="graphics-symbol" aria-roledescription="bar" d="M516.9538090626522,400h5v0h-5Z" fill="gray" opacity="0.6"/><path aria-label="リターン: 0.199728101482; 頻度: 0" role="graphics-symbol" aria-roledescription="bar" d="M522.0921522228385,400h5v0h-5Z" fill="gray" opacity="0.6"/><path aria-label="リターン: 0.203153663589; 頻度: 0" role="graphics-symbol" aria-roledescription="bar" d="M527.2304953830248,400h5v0h-5Z" fill="gray" opacity="0.6"/><path aria-label="リターン: 0.206579225695; 頻度: 0.0367846387214" role="graphics-symbol" aria-roledescription="bar" d="M532.3688385432113,399.75476907519044h5v0.24523092480956166h-5Z" fill="gray" opacity="0.6"/></g><g class="mark-group role-scope layer_1_pathgroup" role="graphics-object" aria-roledescription="group mark container"><g transform="translate(0,0)"><path class="background" aria-hidden="true" d="M0,0h600v400h-600Z"/><g><g class="mark-line role-mark layer_1_marks" role="graphics-object" aria-roledescription="line mark container"><path aria-label="リターン: −0.13426420393; 頻度: 2.9539892529e-19; タイプ: 正規分布へのフィット (μ=0.0005, σ=0.0140)" role="graphics-symbol" aria-roledescription="line mark" d="M23.604,400L24.118,400L24.632,400L25.147,400L25.661,400L26.175,400L26.69,400L27.204,400L27.718,400L28.233,400L28.747,400L29.262,400L29.776,400L30.29,400L30.805,400L31.319,400L31.833,400L32.348,400L32.862,400L33.376,400L33.891,400L34.405,400L34.919,400L35.434,400L35.948,400L36.462,400L36.977,400L37.491,400L38.005,400L38.52,400L39.034,400L39.549,400L40.063,400L40.577,400L41.092,400L41.606,400L42.12,400L42.635,400L43.149,400L43.663,400L44.178,400L44.692,400L45.206,400L45.721,400L46.235,400L46.749,400L47.264,400L47.778,400L48.292,400L48.807,400L49.321,400L49.835,400L50.35,400L50.864,400L51.379,400L51.893,400L52.407,400L52.922,400L53.436,400L53.95,400L54.465,400L54.979,400L55.493,400L56.008,400L56.522,400L57.036,400L57.551,400L58.065,400L58.579,400L59.094,400L59.608,400L60.122,400L60.637,400L61.151,400L61.665,400L62.18,400L62.694,400L63.209,400L63.723,400L64.237,400L64.752,400L65.266,400L65.78,400L66.295,400L66.809,400L67.323,400L67.838,400L68.352,400L68.866,400L69.381,400L69.895,400L70.409,400L70.924,400L71.438,400L71.952,400L72.467,400L72.981,400L73.496,400L74.01,400L74.524,400L75.039,400L75.553,400L76.067,400L76.582,400L77.096,400L77.61,400L78.125,400L78.639,400L79.153,400L79.668,400L80.182,400L80.696,400L81.211,400L81.725,400L82.239,400L82.754,400L83.268,400L83.782,400L84.297,400L84.811,400L85.326,400L85.84,400L86.354,400L86.869,400L87.383,400L87.897,400L88.412,400L88.926,400L89.44,400L89.955,400L90.469,400L90.983,400L91.498,400L92.012,400L92.526,400L93.041,400L93.555,400L94.069,400L94.584,400L95.098,400L95.613,400L96.127,400L96.641,400L97.156,400L97.67,400L98.184,400L98.699,400L99.213,400L99.727,400L100.242,400L100.756,400L101.27,400L101.785,400L102.299,400L102.813,400L103.328,400L103.842,400L104.356,400L104.871,400L105.385,400L105.899,400L106.414,400L106.928,400L107.443,400L107.957,400L108.471,400L108.986,400L109.5,400L110.014,400L110.529,400L111.043,400L111.557,400L112.072,400L112.586,400L113.1,400L113.615,400L114.129,400L114.643,400L115.158,400L115.672,400L116.186,400L116.701,400L117.215,400L117.729,400L118.244,400L118.758,400L119.273,399.999L119.787,399.999L120.301,399.999L120.816,399.999L121.33,399.999L121.844,399.999L122.359,399.999L122.873,399.999L123.387,399.999L123.902,399.998L124.416,399.998L124.93,399.998L125.445,399.998L125.959,399.997L126.473,399.997L126.988,399.997L127.502,399.996L128.016,399.996L128.531,399.995L129.045,399.995L129.56,399.994L130.074,399.994L130.588,399.993L131.103,399.992L131.617,399.991L132.131,399.99L132.646,399.989L133.16,399.988L133.674,399.986L134.189,399.985L134.703,399.983L135.217,399.981L135.732,399.979L136.246,399.977L136.76,399.975L137.275,399.972L137.789,399.969L138.303,399.966L138.818,399.962L139.332,399.958L139.846,399.953L140.361,399.949L140.875,399.943L141.39,399.937L141.904,399.931L142.418,399.924L142.933,399.916L143.447,399.908L143.961,399.899L144.476,399.889L144.99,399.878L145.504,399.866L146.019,399.853L146.533,399.839L147.047,399.823L147.562,399.806L148.076,399.788L148.59,399.768L149.105,399.747L149.619,399.723L150.133,399.698L150.648,399.67L151.162,399.64L151.677,399.608L152.191,399.573L152.705,399.535L153.22,399.494L153.734,399.45L154.248,399.403L154.763,399.351L155.277,399.296L155.791,399.236L156.306,399.172L156.82,399.103L157.334,399.028L157.849,398.949L158.363,398.863L158.877,398.771L159.392,398.672L159.906,398.567L160.42,398.454L160.935,398.333L161.449,398.203L161.963,398.065L162.478,397.917L162.992,397.759L163.507,397.591L164.021,397.411L164.535,397.22L165.05,397.017L165.564,396.801L166.078,396.571L166.593,396.326L167.107,396.067L167.621,395.792L168.136,395.5L168.65,395.191L169.164,394.863L169.679,394.517L170.193,394.151L170.707,393.764L171.222,393.355L171.736,392.924L172.25,392.469L172.765,391.99L173.279,391.486L173.794,390.955L174.308,390.396L174.822,389.81L175.337,389.194L175.851,388.547L176.365,387.869L176.88,387.159L177.394,386.415L177.908,385.636L178.423,384.822L178.937,383.971L179.451,383.083L179.966,382.156L180.48,381.19L180.994,380.183L181.509,379.134L182.023,378.043L182.537,376.909L183.052,375.731L183.566,374.508L184.08,373.239L184.595,371.924L185.109,370.561L185.624,369.151L186.138,367.693L186.652,366.185L187.167,364.629L187.681,363.023L188.195,361.367L188.71,359.661L189.224,357.904L189.738,356.097L190.253,354.24L190.767,352.333L191.281,350.376L191.796,348.37L192.31,346.314L192.824,344.209L193.339,342.057L193.853,339.858L194.367,337.612L194.882,335.32L195.396,332.985L195.91,330.607L196.425,328.187L196.939,325.726L197.454,323.228L197.968,320.692L198.482,318.122L198.997,315.518L199.511,312.884L200.025,310.221L200.54,307.532L201.054,304.819L201.568,302.084L202.083,299.332L202.597,296.563L203.111,293.781L203.626,290.99L204.14,288.192L204.654,285.39L205.169,282.588L205.683,279.79L206.197,276.997L206.712,274.215L207.226,271.447L207.741,268.696L208.255,265.966L208.769,263.26L209.284,260.583L209.798,257.939L210.312,255.33L210.827,252.761L211.341,250.236L211.855,247.758L212.37,245.332L212.884,242.96L213.398,240.647L213.913,238.396L214.427,236.211L214.941,234.095L215.456,232.052L215.97,230.085L216.484,228.197L216.999,226.392L217.513,224.672L218.027,223.041L218.542,221.501L219.056,220.055L219.571,218.705L220.085,217.453L220.599,216.303L221.114,215.255L221.628,214.312L222.142,213.476L222.657,212.747L223.171,212.127L223.685,211.617L224.2,211.219L224.714,210.932L225.228,210.758L225.743,210.696L226.257,210.747L226.771,210.911L227.286,211.187L227.8,211.575L228.314,212.074L228.829,212.684L229.343,213.402L229.858,214.229L230.372,215.162L230.886,216.2L231.401,217.341L231.915,218.583L232.429,219.923L232.944,221.361L233.458,222.892L233.972,224.515L234.487,226.226L235.001,228.024L235.515,229.904L236.03,231.863L236.544,233.899L237.058,236.009L237.573,238.187L238.087,240.432L238.601,242.74L239.116,245.106L239.63,247.528L240.144,250.001L240.659,252.522L241.173,255.087L241.688,257.692L242.202,260.333L242.716,263.007L243.231,265.71L243.745,268.438L244.259,271.187L244.774,273.954L245.288,276.735L245.802,279.526L246.317,282.325L246.831,285.126L247.345,287.928L247.86,290.727L248.374,293.519L248.888,296.302L249.403,299.072L249.917,301.826L250.431,304.562L250.946,307.278L251.46,309.969L251.975,312.635L252.489,315.272L253.003,317.878L253.518,320.452L254.032,322.991L254.546,325.493L255.061,327.957L255.575,330.381L256.089,332.763L256.604,335.103L257.118,337.398L257.632,339.648L258.147,341.852L258.661,344.009L259.175,346.118L259.69,348.178L260.204,350.19L260.718,352.151L261.233,354.063L261.747,355.925L262.261,357.736L262.776,359.497L263.29,361.208L263.805,362.869L264.319,364.48L264.833,366.041L265.348,367.553L265.862,369.016L266.376,370.43L266.891,371.797L267.405,373.117L267.919,374.39L268.434,375.618L268.948,376.8L269.462,377.938L269.977,379.033L270.491,380.086L271.005,381.097L271.52,382.067L272.034,382.997L272.548,383.889L273.063,384.743L273.577,385.561L274.091,386.343L274.606,387.09L275.12,387.804L275.635,388.485L276.149,389.134L276.663,389.753L277.178,390.342L277.692,390.903L278.206,391.437L278.721,391.944L279.235,392.425L279.749,392.882L280.264,393.316L280.778,393.726L281.292,394.115L281.807,394.483L282.321,394.832L282.835,395.161L283.35,395.472L283.864,395.765L284.378,396.042L284.893,396.303L285.407,396.548L285.922,396.78L286.436,396.997L286.95,397.202L287.465,397.394L287.979,397.574L288.493,397.744L289.008,397.902L289.522,398.051L290.036,398.19L290.551,398.321L291.065,398.443L291.579,398.556L292.094,398.663L292.608,398.762L293.122,398.855L293.637,398.941L294.151,399.021L294.665,399.096L295.18,399.166L295.694,399.23L296.208,399.29L296.723,399.346L297.237,399.398L297.752,399.446L298.266,399.49L298.78,399.532L299.295,399.57L299.809,399.605L300.323,399.637L300.838,399.668L301.352,399.695L301.866,399.721L302.381,399.745L302.895,399.766L303.409,399.786L303.924,399.805L304.438,399.822L304.952,399.837L305.467,399.852L305.981,399.865L306.495,399.877L307.01,399.888L307.524,399.898L308.039,399.907L308.553,399.916L309.067,399.923L309.582,399.93L310.096,399.937L310.61,399.943L311.125,399.948L311.639,399.953L312.153,399.957L312.668,399.962L313.182,399.965L313.696,399.969L314.211,399.972L314.725,399.974L315.239,399.977L315.754,399.979L316.268,399.981L316.782,399.983L317.297,399.985L317.811,399.986L318.325,399.988L318.84,399.989L319.354,399.99L319.869,399.991L320.383,399.992L320.897,399.993L321.412,399.994L321.926,399.994L322.44,399.995L322.955,399.995L323.469,399.996L323.983,399.996L324.498,399.997L325.012,399.997L325.526,399.997L326.041,399.998L326.555,399.998L327.069,399.998L327.584,399.998L328.098,399.999L328.612,399.999L329.127,399.999L329.641,399.999L330.155,399.999L330.67,399.999L331.184,399.999L331.699,399.999L332.213,399.999L332.727,400L333.242,400L333.756,400L334.27,400L334.785,400L335.299,400L335.813,400L336.328,400L336.842,400L337.356,400L337.871,400L338.385,400L338.899,400L339.414,400L339.928,400L340.442,400L340.957,400L341.471,400L341.986,400L342.5,400L343.014,400L343.529,400L344.043,400L344.557,400L345.072,400L345.586,400L346.1,400L346.615,400L347.129,400L347.643,400L348.158,400L348.672,400L349.186,400L349.701,400L350.215,400L350.729,400L351.244,400L351.758,400L352.272,400L352.787,400L353.301,400L353.816,400L354.33,400L354.844,400L355.359,400L355.873,400L356.387,400L356.902,400L357.416,400L357.93,400L358.445,400L358.959,400L359.473,400L359.988,400L360.502,400L361.016,400L361.531,400L362.045,400L362.559,400L363.074,400L363.588,400L364.103,400L364.617,400L365.131,400L365.646,400L366.16,400L366.674,400L367.189,400L367.703,400L368.217,400L368.732,400L369.246,400L369.76,400L370.275,400L370.789,400L371.303,400L371.818,400L372.332,400L372.846,400L373.361,400L373.875,400L374.389,400L374.904,400L375.418,400L375.933,400L376.447,400L376.961,400L377.476,400L377.99,400L378.504,400L379.019,400L379.533,400L380.047,400L380.562,400L381.076,400L381.59,400L382.105,400L382.619,400L383.133,400L383.648,400L384.162,400L384.676,400L385.191,400L385.705,400L386.22,400L386.734,400L387.248,400L387.763,400L388.277,400L388.791,400L389.306,400L389.82,400L390.334,400L390.849,400L391.363,400L391.877,400L392.392,400L392.906,400L393.42,400L393.935,400L394.449,400L394.963,400L395.478,400L395.992,400L396.506,400L397.021,400L397.535,400L398.05,400L398.564,400L399.078,400L399.593,400L400.107,400L400.621,400L401.136,400L401.65,400L402.164,400L402.679,400L403.193,400L403.707,400L404.222,400L404.736,400L405.25,400L405.765,400L406.279,400L406.793,400L407.308,400L407.822,400L408.336,400L408.851,400L409.365,400L409.88,400L410.394,400L410.908,400L411.423,400L411.937,400L412.451,400L412.966,400L413.48,400L413.994,400L414.509,400L415.023,400L415.537,400L416.052,400L416.566,400L417.08,400L417.595,400L418.109,400L418.623,400L419.138,400L419.652,400L420.167,400L420.681,400L421.195,400L421.71,400L422.224,400L422.738,400L423.253,400L423.767,400L424.281,400L424.796,400L425.31,400L425.824,400L426.339,400L426.853,400L427.367,400L427.882,400L428.396,400L428.91,400L429.425,400L429.939,400L430.453,400L430.968,400L431.482,400L431.997,400L432.511,400L433.025,400L433.54,400L434.054,400L434.568,400L435.083,400L435.597,400L436.111,400L436.626,400L437.14,400L437.654,400L438.169,400L438.683,400L439.197,400L439.712,400L440.226,400L440.74,400L441.255,400L441.769,400L442.284,400L442.798,400L443.312,400L443.827,400L444.341,400L444.855,400L445.37,400L445.884,400L446.398,400L446.913,400L447.427,400L447.941,400L448.456,400L448.97,400L449.484,400L449.999,400L450.513,400L451.027,400L451.542,400L452.056,400L452.57,400L453.085,400L453.599,400L454.114,400L454.628,400L455.142,400L455.657,400L456.171,400L456.685,400L457.2,400L457.714,400L458.228,400L458.743,400L459.257,400L459.771,400L460.286,400L460.8,400L461.314,400L461.829,400L462.343,400L462.857,400L463.372,400L463.886,400L464.4,400L464.915,400L465.429,400L465.944,400L466.458,400L466.972,400L467.487,400L468.001,400L468.515,400L469.03,400L469.544,400L470.058,400L470.573,400L471.087,400L471.601,400L472.116,400L472.63,400L473.144,400L473.659,400L474.173,400L474.687,400L475.202,400L475.716,400L476.231,400L476.745,400L477.259,400L477.774,400L478.288,400L478.802,400L479.317,400L479.831,400L480.345,400L480.86,400L481.374,400L481.888,400L482.403,400L482.917,400L483.431,400L483.946,400L484.46,400L484.974,400L485.489,400L486.003,400L486.517,400L487.032,400L487.546,400L488.061,400L488.575,400L489.089,400L489.604,400L490.118,400L490.632,400L491.147,400L491.661,400L492.175,400L492.69,400L493.204,400L493.718,400L494.233,400L494.747,400L495.261,400L495.776,400L496.29,400L496.804,400L497.319,400L497.833,400L498.348,400L498.862,400L499.376,400L499.891,400L500.405,400L500.919,400L501.434,400L501.948,400L502.462,400L502.977,400L503.491,400L504.005,400L504.52,400L505.034,400L505.548,400L506.063,400L506.577,400L507.091,400L507.606,400L508.12,400L508.634,400L509.149,400L509.663,400L510.178,400L510.692,400L511.206,400L511.721,400L512.235,400L512.749,400L513.264,400L513.778,400L514.292,400L514.807,400L515.321,400L515.835,400L516.35,400L516.864,400L517.378,400L517.893,400L518.407,400L518.921,400L519.436,400L519.95,400L520.465,400L520.979,400L521.493,400L522.008,400L522.522,400L523.036,400L523.551,400L524.065,400L524.579,400L525.094,400L525.608,400L526.122,400L526.637,400L527.151,400L527.665,400L528.18,400L528.694,400L529.208,400L529.723,400L530.237,400L530.751,400L531.266,400L531.78,400L532.295,400L532.809,400L533.323,400L533.838,400L534.352,400L534.866,400L535.381,400L535.895,400L536.409,400L536.924,400L537.438,400" stroke="red" stroke-width="2"/></g></g><path class="foreground" aria-hidden="true" d="" display="none"/></g></g><g class="mark-group role-legend" role="graphics-symbol" aria-roledescription="legend" aria-label="Symbol legend titled 'タイプ' for stroke color with 1 value: 正規分布へのフィット (μ=0.0005, σ=0.0140)"><g transform="translate(0,-45)"><path class="background" aria-hidden="true" d="M0,0h176v27h-176Z" pointer-events="none"/><g><g class="mark-group role-legend-entry"><g transform="translate(0,16)"><path class="background" aria-hidden="true" d="M0,0h0v0h0Z" pointer-events="none"/><g><g class="mark-group role-scope" role="graphics-object" aria-roledescription="group mark container"><g transform="translate(0,0)"><path class="background" aria-hidden="true" d="M0,0h176v11h-176Z" pointer-events="none" opacity="1"/><g><g class="mark-symbol role-legend-symbol" pointer-events="none"><path transform="translate(6,6)" d="M-5,0L5,0" stroke="red" stroke-width="1.5" opacity="1"/></g><g class="mark-text role-legend-label" pointer-events="none"><text text-anchor="start" transform="translate(16,9)" font-family="sans-serif" font-size="10px" fill="#000" opacity="1">正規分布へのフィット (μ=0.0005…</text></g></g><path class="foreground" aria-hidden="true" d="" pointer-events="none" display="none"/></g></g></g><path class="foreground" aria-hidden="true" d="" pointer-events="none" display="none"/></g></g><g class="mark-text role-legend-title" pointer-events="none"><text text-anchor="start" transform="translate(0,9)" font-family="sans-serif" font-size="11px" font-weight="bold" fill="#000" opacity="1">タイプ</text></g></g><path class="foreground" aria-hidden="true" d="" pointer-events="none" display="none"/></g></g><g class="mark-group role-title"><g transform="translate(300,-62)"><path class="background" aria-hidden="true" d="M0,0h0v0h0Z" pointer-events="none"/><g><g class="mark-text role-title-text" role="graphics-symbol" aria-roledescription="title" aria-label="Title text 'S&amp;P500 日次 単純収益率 (1995-2025)'" pointer-events="none"><text text-anchor="middle" transform="translate(0,10)" font-family="sans-serif" font-size="13px" font-weight="bold" fill="#000" opacity="1">S&amp;P500 日次 単純収益率 (1995-2025)</text></g></g><path class="foreground" aria-hidden="true" d="" pointer-events="none" display="none"/></g></g></g><path class="foreground" aria-hidden="true" d="" display="none"/></g></g></g></svg>