<svg xmlns="http://www.w3.org/2000/svg" xmlns:xlink="http://www.w3.org/1999/xlink" version="1.1" class="marks" width="647" height="504" viewBox="0 0 647 504"><rect width="647" height="504" fill="white"/><g fill="none" stroke-miterlimit="10" transform="translate(41,67)"><g class="mark-group role-frame root" role="graphics-object" aria-roledescription="group mark container"><g transform="translate(0,0)"><path class="background" aria-hidden="true" d="M0.5,0.5h600v400h-600Z" stroke="#ddd"/><g><g class="mark-group role-axis" aria-hidden="true"><g transform="translate(0.5,400.5)"><path class="background" aria-hidden="true" d="M0,0h0v0h0Z" pointer-events="none"/><g><g class="mark-rule role-axis-grid" pointer-events="none"><line transform="translate(0,-400)" x2="0" y2="400" stroke="#ddd" stroke-width="1" opacity="1"/><line transform="translate(50,-400)" x2="0" y2="400" stroke="#ddd" stroke-width="1" opacity="1"/><line transform="translate(100,-400)" x2="0" y2="400" stroke="#ddd" stroke-width="1" opacity="1"/><line transform="translate(150,-400)" x2="0" y2="400" stroke="#ddd" stroke-width="1" opacity="1"/><line transform="translate(200,-400)" x2="0" y2="400" stroke="#ddd" stroke-width="1" opacity="1"/><line transform="translate(250,-400)" x2="0" y2="400" stroke="#ddd" stroke-width="1" opacity="1"/><line transform="translate(300,-400)" x2="0" y2="400" stroke="#ddd" stroke-width="1" opacity="1"/><line transform="translate(350,-400)" x2="0" y2="400" stroke="#ddd" stroke-width="1" opacity="1"/><line transform="translate(400,-400)" x2="0" y2="400" stroke="#ddd" stroke-width="1" opacity="1"/><line transform="translate(450,-400)" x2="0" y2="400" stroke="#ddd" stroke-width="1" opacity="1"/><line transform="translate(500,-400)" x2="0" y2="400" stroke="#ddd" stroke-width="1" opacity="1"/><line transform="translate(550,-400)" x2="0" y2="400" stroke="#ddd" stroke-width="1" opacity="1"/><line transform="translate(600,-400)" x2="0" y2="400" stroke="#ddd" stroke-width="1" opacity="1"/></g></g><path class="foreground" aria-hidden="true" d="" pointer-events="none" display="none"/></g></g><g class="mark-group role-axis" aria-hidden="true"><g transform="translate(0.5,0.5)"><path class="background" aria-hidden="true" d="M0,0h0v0h0Z" pointer-events="none"/><g><g class="mark-rule role-axis-grid" pointer-events="none"><line transform="translate(0,400)" x2="600" y2="0" stroke="#ddd" stroke-width="1" opacity="1"/><line transform="translate(0,350)" x2="600" y2="0" stroke="#ddd" stroke-width="1" opacity="1"/><line transform="translate(0,300)" x2="600" y2="0" stroke="#ddd" stroke-width="1" opacity="1"/><line transform="translate(0,250)" x2="600" y2="0" stroke="#ddd" stroke-width="1" opacity="1"/><line transform="translate(0,200)" x2="600" y2="0" stroke="#ddd" stroke-width="1" opacity="1"/><line transform="translate(0,150)" x2="600" y2="0" stroke="#ddd" stroke-width="1" opacity="1"/><line transform="translate(0,100)" x2="600" y2="0" stroke="#ddd" stroke-width="1" opacity="1"/><line transform="translate(0,50)" x2="600" y2="0" stroke="#ddd" stroke-width="1" opacity="1"/><line transform="translate(0,0)" x2="600" y2="0" stroke="#ddd" stroke-width="1" opacity="1"/></g></g><path class="foreground" aria-hidden="true" d="" pointer-events="none" display="none"/></g></g><g class="mark-group role-axis" role="graphics-symbol" aria-roledescription="axis" aria-label="X-axis titled 'リターン' for a linear scale with values from −0.14 to −0.02"><g transform="translate(0.5,400.5)"><path class="background" aria-hidden="true" d="M0,0h0v0h0Z" pointer-events="none"/><g><g class="mark-rule role-axis-tick" pointer-events="none"><line transform="translate(0,0)" x2="0" y2="5" stroke="#888" stroke-width="1" opacity="1"/><line transform="translate(50,0)" x2="0" y2="5" stroke="#888" stroke-width="1" opacity="1"/><line transform="translate(100,0)" x2="0" y2="5" stroke="#888" stroke-width="1" opacity="1"/><line transform="translate(150,0)" x2="0" y2="5" stroke="#888" stroke-width="1" opacity="1"/><line transform="translate(200,0)" x2="0" y2="5" stroke="#888" stroke-width="1" opacity="1"/><line transform="translate(250,0)" x2="0" y2="5" stroke="#888" stroke-width="1" opacity="1"/><line transform="translate(300,0)" x2="0" y2="5" stroke="#888" stroke-width="1" opacity="1"/><line transform="translate(350,0)" x2="0" y2="5" stroke="#888" stroke-width="1" opacity="1"/><line transform="translate(400,0)" x2="0" y2="5" stroke="#888" stroke-width="1" opacity="1"/><line transform="translate(450,0)" x2="0" y2="5" stroke="#888" stroke-width="1" opacity="1"/><line transform="translate(500,0)" x2="0" y2="5" stroke="#888" stroke-width="1" opacity="1"/><line transform="translate(550,0)" x2="0" y2="5" stroke="#888" stroke-width="1" opacity="1"/><line transform="translate(600,0)" x2="0" y2="5" stroke="#888" stroke-width="1" opacity="1"/></g><g class="mark-text role-axis-label" pointer-events="none"><text text-anchor="start" transform="translate(0,15)" font-family="sans-serif" font-size="10px" fill="#000" opacity="1">−0.14</text><text text-anchor="middle" transform="translate(50.000000000000036,15)" font-family="sans-serif" font-size="10px" fill="#000" opacity="1">−0.13</text><text text-anchor="middle" transform="translate(100.00000000000007,15)" font-family="sans-serif" font-size="10px" fill="#000" opacity="1">−0.12</text><text text-anchor="middle" transform="translate(150.00000000000006,15)" font-family="sans-serif" font-size="10px" fill="#000" opacity="1">−0.11</text><text text-anchor="middle" transform="translate(200.00000000000003,15)" font-family="sans-serif" font-size="10px" fill="#000" opacity="1">−0.10</text><text text-anchor="middle" transform="translate(250.00000000000009,15)" font-family="sans-serif" font-size="10px" fill="#000" opacity="1">−0.09</text><text text-anchor="middle" transform="translate(300.00000000000006,15)" font-family="sans-serif" font-size="10px" fill="#000" opacity="1">−0.08</text><text text-anchor="middle" transform="translate(350,15)" font-family="sans-serif" font-size="10px" fill="#000" opacity="1">−0.07</text><text text-anchor="middle" transform="translate(400.00000000000006,15)" font-family="sans-serif" font-size="10px" fill="#000" opacity="1">−0.06</text><text text-anchor="middle" transform="translate(450,15)" font-family="sans-serif" font-size="10px" fill="#000" opacity="1">−0.05</text><text text-anchor="middle" transform="translate(499.99999999999994,15)" font-family="sans-serif" font-size="10px" fill="#000" opacity="1">−0.04</text><text text-anchor="middle" transform="translate(550,15)" font-family="sans-serif" font-size="10px" fill="#000" opacity="1">−0.03</text><text text-anchor="end" transform="translate(600,15)" font-family="sans-serif" font-size="10px" fill="#000" opacity="1">−0.02</text></g><g class="mark-rule role-axis-domain" pointer-events="none"><line transform="translate(0,0)" x2="600" y2="0" stroke="#888" stroke-width="1" opacity="1"/></g><g class="mark-text role-axis-title" pointer-events="none"><text text-anchor="middle" transform="translate(300,30)" font-family="sans-serif" font-size="11px" font-weight="bold" fill="#000" opacity="1">リターン</text></g></g><path class="foreground" aria-hidden="true" d="" pointer-events="none" display="none"/></g></g><g class="mark-group role-axis" role="graphics-symbol" aria-roledescription="axis" aria-label="Y-axis titled '頻度' for a linear scale with values from 0 to 4"><g transform="translate(0.5,0.5)"><path class="background" aria-hidden="true" d="M0,0h0v0h0Z" pointer-events="none"/><g><g class="mark-rule role-axis-tick" pointer-events="none"><line transform="translate(0,400)" x2="-5" y2="0" stroke="#888" stroke-width="1" opacity="1"/><line transform="translate(0,350)" x2="-5" y2="0" stroke="#888" stroke-width="1" opacity="1"/><line transform="translate(0,300)" x2="-5" y2="0" stroke="#888" stroke-width="1" opacity="1"/><line transform="translate(0,250)" x2="-5" y2="0" stroke="#888" stroke-width="1" opacity="1"/><line transform="translate(0,200)" x2="-5" y2="0" stroke="#888" stroke-width="1" opacity="1"/><line transform="translate(0,150)" x2="-5" y2="0" stroke="#888" stroke-width="1" opacity="1"/><line transform="translate(0,100)" x2="-5" y2="0" stroke="#888" stroke-width="1" opacity="1"/><line transform="translate(0,50)" x2="-5" y2="0" stroke="#888" stroke-width="1" opacity="1"/><line transform="translate(0,0)" x2="-5" y2="0" stroke="#888" stroke-width="1" opacity="1"/></g><g class="mark-text role-axis-label" pointer-events="none"><text text-anchor="end" transform="translate(-7,403)" font-family="sans-serif" font-size="10px" fill="#000" opacity="1">0.0</text><text text-anchor="end" transform="translate(-7,353)" font-family="sans-serif" font-size="10px" fill="#000" opacity="1">0.5</text><text text-anchor="end" transform="translate(-7,303)" font-family="sans-serif" font-size="10px" fill="#000" opacity="1">1.0</text><text text-anchor="end" transform="translate(-7,253)" font-family="sans-serif" font-size="10px" fill="#000" opacity="1">1.5</text><text text-anchor="end" transform="translate(-7,203)" font-family="sans-serif" font-size="10px" fill="#000" opacity="1">2.0</text><text text-anchor="end" transform="translate(-7,153)" font-family="sans-serif" font-size="10px" fill="#000" opacity="1">2.5</text><text text-anchor="end" transform="translate(-7,103)" font-family="sans-serif" font-size="10px" fill="#000" opacity="1">3.0</text><text text-anchor="end" transform="translate(-7,53)" font-family="sans-serif" font-size="10px" fill="#000" opacity="1">3.5</text><text text-anchor="end" transform="translate(-7,3)" font-family="sans-serif" font-size="10px" fill="#000" opacity="1">4.0</text></g><g class="mark-rule role-axis-domain" pointer-events="none"><line transform="translate(0,400)" x2="0" y2="-400" stroke="#888" stroke-width="1" opacity="1"/></g><g class="mark-text role-axis-title" pointer-events="none"><text text-anchor="middle" transform="translate(-24.9013671875,200) rotate(-90) translate(0,-2)" font-family="sans-serif" font-size="11px" font-weight="bold" fill="#000" opacity="1">頻度</text></g></g><path class="foreground" aria-hidden="true" d="" pointer-events="none" display="none"/></g></g><g class="mark-rect role-mark layer_0_marks" role="graphics-object" aria-roledescription="rect mark container"><path aria-label="リターン: −0.132551422877; 頻度: 0.0367846387214" role="graphics-symbol" aria-roledescription="bar" d="M34.7428856158763,396.32153612785686h5v3.6784638721431406h-5Z" fill="gray" opacity="0.6"/><path aria-label="リターン: −0.12912586077; 頻度: 0" role="graphics-symbol" aria-roledescription="bar" d="M51.870696149830806,400h5v0h-5Z" fill="gray" opacity="0.6"/><path aria-label="リターン: −0.125700298663; 頻度: 0" role="graphics-symbol" aria-roledescription="bar" d="M68.99850668378532,400h5v0h-5Z" fill="gray" opacity="0.6"/><path aria-label="リターン: −0.122274736556; 頻度: 0" role="graphics-symbol" aria-roledescription="bar" d="M86.12631721773977,400h5v0h-5Z" fill="gray" opacity="0.6"/><path aria-label="リターン: −0.11884917445; 頻度: 0.0367846387214" role="graphics-symbol" aria-roledescription="bar" d="M103.25412775169421,396.32153612785686h5v3.6784638721431406h-5Z" fill="gray" opacity="0.6"/><path aria-label="リターン: −0.115423612343; 頻度: 0" role="graphics-symbol" aria-roledescription="bar" d="M120.3819382856487,400h5v0h-5Z" fill="gray" opacity="0.6"/><path aria-label="リターン: −0.111998050236; 頻度: 0.0367846387214" role="graphics-symbol" aria-roledescription="bar" d="M137.50974881960323,396.32153612785686h5v3.6784638721431406h-5Z" fill="gray" opacity="0.6"/><path aria-label="リターン: −0.108572488129; 頻度: 0" role="graphics-symbol" aria-roledescription="bar" d="M154.63755935355772,400h5v0h-5Z" fill="gray" opacity="0.6"/><path aria-label="リターン: −0.105146926022; 頻度: 0" role="graphics-symbol" aria-roledescription="bar" d="M171.76536988751224,400h5v0h-5Z" fill="gray" opacity="0.6"/><path aria-label="リターン: −0.101721363916; 頻度: 0.0735692774429" role="graphics-symbol" aria-roledescription="bar" d="M188.8931804214667,392.6430722557137h5v7.356927744286281h-5Z" fill="gray" opacity="0.6"/><path aria-label="リターン: −0.0982958018089; 頻度: 0" role="graphics-symbol" aria-roledescription="bar" d="M206.02099095542113,400h5v0h-5Z" fill="gray" opacity="0.6"/><path aria-label="リターン: −0.0948702397021; 頻度: 0.0367846387214" role="graphics-symbol" aria-roledescription="bar" d="M223.14880148937564,396.32153612785686h5v3.6784638721431406h-5Z" fill="gray" opacity="0.6"/><path aria-label="リターン: −0.0914446775953; 頻度: 0.0735692774429" role="graphics-symbol" aria-roledescription="bar" d="M240.27661202333016,392.6430722557137h5v7.356927744286281h-5Z" fill="gray" opacity="0.6"/><path aria-label="リターン: −0.0880191154885; 頻度: 0.110353916164" role="graphics-symbol" aria-roledescription="bar" d="M257.40442255728465,388.9646083835705h5v11.035391616429479h-5Z" fill="gray" opacity="0.6"/><path aria-label="リターン: −0.0845935533818; 頻度: 0" role="graphics-symbol" aria-roledescription="bar" d="M274.53223309123916,400h5v0h-5Z" fill="gray" opacity="0.6"/><path aria-label="リターン: −0.081167991275; 頻度: 0.0367846387214" role="graphics-symbol" aria-roledescription="bar" d="M291.6600436251937,396.32153612785686h5v3.6784638721431406h-5Z" fill="gray" opacity="0.6"/><path aria-label="リターン: −0.0777424291682; 頻度: 0.0735692774429" role="graphics-symbol" aria-roledescription="bar" d="M308.7878541591481,392.64307225571366h5v7.356927744286338h-5Z" fill="gray" opacity="0.6"/><path aria-label="リターン: −0.0743168670614; 頻度: 0.147138554886" role="graphics-symbol" aria-roledescription="bar" d="M325.9156646931026,385.28614451142744h5v14.713855488572563h-5Z" fill="gray" opacity="0.6"/><path aria-label="リターン: −0.0708913049546; 頻度: 0.0735692774429" role="graphics-symbol" aria-roledescription="bar" d="M343.0434752270571,392.6430722557137h5v7.356927744286281h-5Z" fill="gray" opacity="0.6"/><path aria-label="リターン: −0.0674657428478; 頻度: 0.183923193607" role="graphics-symbol" aria-roledescription="bar" d="M360.17128576101163,381.60768063928424h5v18.39231936071576h-5Z" fill="gray" opacity="0.6"/><path aria-label="リターン: −0.064040180741; 頻度: 0.110353916164" role="graphics-symbol" aria-roledescription="bar" d="M377.29909629496615,388.9646083835705h5v11.035391616429479h-5Z" fill="gray" opacity="0.6"/><path aria-label="リターン: −0.0606146186342; 頻度: 0.147138554886" role="graphics-symbol" aria-roledescription="bar" d="M394.42690682892055,385.28614451142744h5v14.713855488572563h-5Z" fill="gray" opacity="0.6"/><path aria-label="リターン: −0.0571890565274; 頻度: 0.183923193607" role="graphics-symbol" aria-roledescription="bar" d="M411.55471736287507,381.60768063928424h5v18.39231936071576h-5Z" fill="gray" opacity="0.6"/><path aria-label="リターン: −0.0537634944206; 頻度: 0.183923193607" role="graphics-symbol" aria-roledescription="bar" d="M428.68252789682947,381.6076806392842h5v18.392319360715817h-5Z" fill="gray" opacity="0.6"/><path aria-label="リターン: −0.0503379323138; 頻度: 0.294277109771" role="graphics-symbol" aria-roledescription="bar" d="M445.810338430784,370.5722890228548h5v29.427710977145182h-5Z" fill="gray" opacity="0.6"/><path aria-label="リターン: −0.0469123702071; 頻度: 0.294277109771" role="graphics-symbol" aria-roledescription="bar" d="M462.9381489647385,370.5722890228548h5v29.427710977145182h-5Z" fill="gray" opacity="0.6"/><path aria-label="リターン: −0.0434868081003; 頻度: 0.588554219543" role="graphics-symbol" aria-roledescription="bar" d="M480.065959498693,341.14457804570964h5v58.855421954290364h-5Z" fill="gray" opacity="0.6"/><path aria-label="リターン: −0.0400612459935; 頻度: 0.5149849421" role="graphics-symbol" aria-roledescription="bar" d="M497.19377003264754,348.5015057899957h5v51.49849421000431h-5Z" fill="gray" opacity="0.6"/><path aria-label="リターン: −0.0366356838867; 頻度: 0.662123496986" role="graphics-symbol" aria-roledescription="bar" d="M514.3215805666019,333.78765030142335h5v66.21234969857665h-5Z" fill="gray" opacity="0.6"/><path aria-label="リターン: −0.0332101217799; 頻度: 1.21389307781" role="graphics-symbol" aria-roledescription="bar" d="M531.4493911005565,278.6106922192761h5v121.38930778072393h-5Z" fill="gray" opacity="0.6"/><path aria-label="リターン: −0.0297845596731; 頻度: 1.83923193607" role="graphics-symbol" aria-roledescription="bar" d="M548.577201634511,216.0768063928418h5v183.9231936071582h-5Z" fill="gray" opacity="0.6"/></g><g class="mark-group role-scope layer_1_pathgroup" role="graphics-object" aria-roledescription="group mark container"><g transform="translate(0,0)"><path class="background" aria-hidden="true" d="M0,0h600v400h-600Z"/><g><g class="mark-line role-mark layer_1_marks" role="graphics-object" aria-roledescription="line mark container"><path aria-label="リターン: −0.13426420393; 頻度: 2.95403555066e-19; タイプ: 正規分布へのフィット (μ=0.0005, σ=0.0140)" role="graphics-symbol" aria-roledescription="line mark" d="M28.679,400L30.393,400L32.108,400L33.822,400L35.537,400L37.251,400L38.966,400L40.68,400L42.395,400L44.109,400L45.824,400L47.538,400L49.253,400L50.967,400L52.682,400L54.396,400L56.111,400L57.825,400L59.54,400L61.254,400L62.969,400L64.683,400L66.398,400L68.112,400L69.827,400L71.541,400L73.256,400L74.97,400L76.685,400L78.399,400L80.114,400L81.828,400L83.543,400L85.257,400L86.972,400L88.686,400L90.401,400L92.115,400L93.83,400L95.544,400L97.259,400L98.973,400L100.688,400L102.402,400L104.117,400L105.831,400L107.546,400L109.26,400L110.975,400L112.689,400L114.404,400L116.118,400L117.833,400L119.547,400L121.262,400L122.976,400L124.691,400L126.405,400L128.12,400L129.834,400L131.549,400L133.263,400L134.978,400L136.692,400L138.407,400L140.121,400L141.836,400L143.55,400L145.265,400L146.979,400L148.694,400L150.408,400L152.123,400L153.837,400L155.552,400L157.266,400L158.981,400L160.695,400L162.41,400L164.124,400L165.839,400L167.553,400L169.268,400L170.982,400L172.697,400L174.411,400L176.126,400L177.84,400L179.555,400L181.269,400L182.984,400L184.698,400L186.413,400L188.127,400L189.842,400L191.556,400L193.271,400L194.985,400L196.7,400L198.414,400L200.129,400L201.843,400L203.558,400L205.272,400L206.987,400L208.701,400L210.416,400L212.13,400L213.844,400L215.559,400L217.273,400L218.988,400L220.702,400L222.417,400L224.131,400L225.846,400L227.56,400L229.275,400L230.989,400L232.704,400L234.418,400L236.133,400L237.847,400L239.562,400L241.276,400L242.991,400L244.705,400L246.42,400L248.134,400L249.849,400L251.563,400L253.278,400L254.992,400L256.707,400L258.421,400L260.136,400L261.85,400L263.565,400L265.279,400L266.994,400L268.708,400L270.423,400L272.137,400L273.852,400L275.566,400L277.281,400L278.995,400L280.71,400L282.424,400L284.139,400L285.853,400L287.568,400L289.282,400L290.997,400L292.711,400L294.426,400L296.14,400L297.855,400L299.569,400L301.284,400L302.998,400L304.713,400L306.427,400L308.142,400L309.856,400L311.571,399.999L313.285,399.999L315,399.999L316.714,399.999L318.429,399.999L320.143,399.999L321.858,399.999L323.572,399.999L325.287,399.998L327.001,399.998L328.716,399.998L330.43,399.998L332.145,399.997L333.859,399.997L335.574,399.997L337.288,399.996L339.003,399.996L340.717,399.995L342.432,399.994L344.146,399.994L345.861,399.993L347.575,399.992L349.29,399.991L351.004,399.99L352.719,399.988L354.433,399.987L356.148,399.985L357.862,399.983L359.577,399.981L361.291,399.979L363.006,399.976L364.72,399.973L366.435,399.97L368.149,399.966L369.864,399.962L371.578,399.957L373.293,399.952L375.007,399.946L376.722,399.94L378.436,399.932L380.151,399.924L381.865,399.915L383.58,399.905L385.294,399.894L387.009,399.882L388.723,399.868L390.438,399.853L392.152,399.837L393.867,399.818L395.581,399.797L397.296,399.775L399.01,399.75L400.725,399.722L402.439,399.691L404.154,399.657L405.868,399.62L407.582,399.579L409.297,399.534L411.011,399.484L412.726,399.429L414.44,399.368L416.155,399.302L417.869,399.229L419.584,399.149L421.298,399.062L423.013,398.966L424.727,398.861L426.442,398.746L428.156,398.62L429.871,398.482L431.585,398.332L433.3,398.168L435.014,397.989L436.729,397.793L438.443,397.581L440.158,397.349L441.872,397.097L443.587,396.822L445.301,396.524L447.016,396.2L448.73,395.849L450.445,395.468L452.159,395.054L453.874,394.606L455.588,394.121L457.303,393.596L459.017,393.029L460.732,392.416L462.446,391.753L464.161,391.039L465.875,390.268L467.59,389.437L469.304,388.541L471.019,387.578L472.733,386.541L474.448,385.427L476.162,384.23L477.877,382.944L479.591,381.565L481.306,380.086L483.02,378.501L484.735,376.804L486.449,374.988L488.164,373.046L489.878,370.97L491.593,368.753L493.307,366.387L495.022,363.863L496.736,361.172L498.451,358.306L500.165,355.256L501.88,352.01L503.594,348.56L505.309,344.895L507.023,341.004L508.738,336.875L510.452,332.498L512.167,327.861L513.881,322.95L515.596,317.755L517.31,312.261L519.025,306.456L520.739,300.327L522.454,293.859L524.168,287.039L525.883,279.852L527.597,272.284L529.312,264.32L531.026,255.945L532.741,247.144L534.455,237.903L536.17,228.205L537.884,218.035L539.599,207.378L541.313,196.218L543.028,184.54L544.742,172.329L546.457,159.569L548.171,146.244L549.886,132.341L551.6,117.844L553.315,102.739L555.029,87.012L556.744,70.649L558.458,53.637L560.173,35.964L561.887,17.616" stroke="red" stroke-width="2"/></g></g><path class="foreground" aria-hidden="true" d="" display="none"/></g></g><g class="mark-group role-legend" role="graphics-symbol" aria-roledescription="legend" aria-label="Symbol legend titled 'タイプ' for stroke color with 1 value: 正規分布へのフィット (μ=0.0005, σ=0.0140)"><g transform="translate(0,-45)"><path class="background" aria-hidden="true" d="M0,0h176v27h-176Z" pointer-events="none"/><g><g class="mark-group role-legend-entry"><g transform="translate(0,16)"><path class="background" aria-hidden="true" d="M0,0h0v0h0Z" pointer-events="none"/><g><g class="mark-group role-scope" role="graphics-object" aria-roledescription="group mark container"><g transform="translate(0,0)"><path class="background" aria-hidden="true" d="M0,0h176v11h-176Z" pointer-events="none" opacity="1"/><g><g class="mark-symbol role-legend-symbol" pointer-events="none"><path transform="translate(6,6)" d="M-5,0L5,0" stroke="red" stroke-width="1.5" opacity="1"/></g><g class="mark-text role-legend-label" pointer-events="none"><text text-anchor="start" transform="translate(16,9)" font-family="sans-serif" font-size="10px" fill="#000" opacity="1">正規分布へのフィット (μ=0.0005…</text></g></g><path class="foreground" aria-hidden="true" d="" pointer-events="none" display="none"/></g></g></g><path class="foreground" aria-hidden="true" d="" pointer-events="none" display="none"/></g></g><g class="mark-text role-legend-title" pointer-events="none"><text text-anchor="start" transform="translate(0,9)" font-family="sans-serif" font-size="11px" font-weight="bold" fill="#000" opacity="1">タイプ</text></g></g><path class="foreground" aria-hidden="true" d="" pointer-events="none" display="none"/></g></g><g class="mark-group role-title"><g transform="translate(300,-62)"><path class="background" aria-hidden="true" d="M0,0h0v0h0Z" pointer-events="none"/><g><g class="mark-text role-title-text" role="graphics-symbol" aria-roledescription="title" aria-label="Title text 'S&amp;P500 日次 単純収益率 (1995-2025) (左側の裾をズーム)'" pointer-events="none"><text text-anchor="middle" transform="translate(0,10)" font-family="sans-serif" font-size="13px" font-weight="bold" fill="#000" opacity="1">S&amp;P500 日次 単純収益率 (1995-2025) (左側の裾をズーム)</text></g></g><path class="foreground" aria-hidden="true" d="" pointer-events="none" display="none"/></g></g></g><path class="foreground" aria-hidden="true" d="" display="none"/></g></g></g></svg>