<svg xmlns="http://www.w3.org/2000/svg" xmlns:xlink="http://www.w3.org/1999/xlink" version="1.1" class="marks" width="645" height="504" viewBox="0 0 645 504"><rect width="645" height="504" fill="white"/><g fill="none" stroke-miterlimit="10" transform="translate(39,67)"><g class="mark-group role-frame root" role="graphics-object" aria-roledescription="group mark container"><g transform="translate(0,0)"><path class="background" aria-hidden="true" d="M0.5,0.5h600v400h-600Z" stroke="#ddd"/><g><g class="mark-group role-axis" aria-hidden="true"><g transform="translate(0.5,400.5)"><path class="background" aria-hidden="true" d="M0,0h0v0h0Z" pointer-events="none"/><g><g class="mark-rule role-axis-grid" pointer-events="none"><line transform="translate(0,-400)" x2="0" y2="400" stroke="#ddd" stroke-width="1" opacity="1"/><line transform="translate(33,-400)" x2="0" y2="400" stroke="#ddd" stroke-width="1" opacity="1"/><line transform="translate(67,-400)" x2="0" y2="400" stroke="#ddd" stroke-width="1" opacity="1"/><line transform="translate(100,-400)" x2="0" y2="400" stroke="#ddd" stroke-width="1" opacity="1"/><line transform="translate(133,-400)" x2="0" y2="400" stroke="#ddd" stroke-width="1" opacity="1"/><line transform="translate(167,-400)" x2="0" y2="400" stroke="#ddd" stroke-width="1" opacity="1"/><line transform="translate(200,-400)" x2="0" y2="400" stroke="#ddd" stroke-width="1" opacity="1"/><line transform="translate(233,-400)" x2="0" y2="400" stroke="#ddd" stroke-width="1" opacity="1"/><line transform="translate(267,-400)" x2="0" y2="400" stroke="#ddd" stroke-width="1" opacity="1"/><line transform="translate(300,-400)" x2="0" y2="400" stroke="#ddd" stroke-width="1" opacity="1"/><line transform="translate(333,-400)" x2="0" y2="400" stroke="#ddd" stroke-width="1" opacity="1"/><line transform="translate(367,-400)" x2="0" y2="400" stroke="#ddd" stroke-width="1" opacity="1"/><line transform="translate(400,-400)" x2="0" y2="400" stroke="#ddd" stroke-width="1" opacity="1"/><line transform="translate(433,-400)" x2="0" y2="400" stroke="#ddd" stroke-width="1" opacity="1"/><line transform="translate(467,-400)" x2="0" y2="400" stroke="#ddd" stroke-width="1" opacity="1"/><line transform="translate(500,-400)" x2="0" y2="400" stroke="#ddd" stroke-width="1" opacity="1"/><line transform="translate(533,-400)" x2="0" y2="400" stroke="#ddd" stroke-width="1" opacity="1"/><line transform="translate(567,-400)" x2="0" y2="400" stroke="#ddd" stroke-width="1" opacity="1"/><line transform="translate(600,-400)" x2="0" y2="400" stroke="#ddd" stroke-width="1" opacity="1"/></g></g><path class="foreground" aria-hidden="true" d="" pointer-events="none" display="none"/></g></g><g class="mark-group role-axis" aria-hidden="true"><g transform="translate(0.5,0.5)"><path class="background" aria-hidden="true" d="M0,0h0v0h0Z" pointer-events="none"/><g><g class="mark-rule role-axis-grid" pointer-events="none"><line transform="translate(0,400)" x2="600" y2="0" stroke="#ddd" stroke-width="1" opacity="1"/><line transform="translate(0,369)" x2="600" y2="0" stroke="#ddd" stroke-width="1" opacity="1"/><line transform="translate(0,338)" x2="600" y2="0" stroke="#ddd" stroke-width="1" opacity="1"/><line transform="translate(0,308)" x2="600" y2="0" stroke="#ddd" stroke-width="1" opacity="1"/><line transform="translate(0,277)" x2="600" y2="0" stroke="#ddd" stroke-width="1" opacity="1"/><line transform="translate(0,246)" x2="600" y2="0" stroke="#ddd" stroke-width="1" opacity="1"/><line transform="translate(0,215)" x2="600" y2="0" stroke="#ddd" stroke-width="1" opacity="1"/><line transform="translate(0,185)" x2="600" y2="0" stroke="#ddd" stroke-width="1" opacity="1"/><line transform="translate(0,154)" x2="600" y2="0" stroke="#ddd" stroke-width="1" opacity="1"/><line transform="translate(0,123)" x2="600" y2="0" stroke="#ddd" stroke-width="1" opacity="1"/><line transform="translate(0,92)" x2="600" y2="0" stroke="#ddd" stroke-width="1" opacity="1"/><line transform="translate(0,62)" x2="600" y2="0" stroke="#ddd" stroke-width="1" opacity="1"/><line transform="translate(0,31)" x2="600" y2="0" stroke="#ddd" stroke-width="1" opacity="1"/><line transform="translate(0,0)" x2="600" y2="0" stroke="#ddd" stroke-width="1" opacity="1"/></g></g><path class="foreground" aria-hidden="true" d="" pointer-events="none" display="none"/></g></g><g class="mark-group role-axis" role="graphics-symbol" aria-roledescription="axis" aria-label="X-axis titled '対数リターン' for a linear scale with values from −0.4 to 0.5"><g transform="translate(0.5,400.5)"><path class="background" aria-hidden="true" d="M0,0h0v0h0Z" pointer-events="none"/><g><g class="mark-rule role-axis-tick" pointer-events="none"><line transform="translate(0,0)" x2="0" y2="5" stroke="#888" stroke-width="1" opacity="1"/><line transform="translate(33,0)" x2="0" y2="5" stroke="#888" stroke-width="1" opacity="1"/><line transform="translate(67,0)" x2="0" y2="5" stroke="#888" stroke-width="1" opacity="1"/><line transform="translate(100,0)" x2="0" y2="5" stroke="#888" stroke-width="1" opacity="1"/><line transform="translate(133,0)" x2="0" y2="5" stroke="#888" stroke-width="1" opacity="1"/><line transform="translate(167,0)" x2="0" y2="5" stroke="#888" stroke-width="1" opacity="1"/><line transform="translate(200,0)" x2="0" y2="5" stroke="#888" stroke-width="1" opacity="1"/><line transform="translate(233,0)" x2="0" y2="5" stroke="#888" stroke-width="1" opacity="1"/><line transform="translate(267,0)" x2="0" y2="5" stroke="#888" stroke-width="1" opacity="1"/><line transform="translate(300,0)" x2="0" y2="5" stroke="#888" stroke-width="1" opacity="1"/><line transform="translate(333,0)" x2="0" y2="5" stroke="#888" stroke-width="1" opacity="1"/><line transform="translate(367,0)" x2="0" y2="5" stroke="#888" stroke-width="1" opacity="1"/><line transform="translate(400,0)" x2="0" y2="5" stroke="#888" stroke-width="1" opacity="1"/><line transform="translate(433,0)" x2="0" y2="5" stroke="#888" stroke-width="1" opacity="1"/><line transform="translate(467,0)" x2="0" y2="5" stroke="#888" stroke-width="1" opacity="1"/><line transform="translate(500,0)" x2="0" y2="5" stroke="#888" stroke-width="1" opacity="1"/><line transform="translate(533,0)" x2="0" y2="5" stroke="#888" stroke-width="1" opacity="1"/><line transform="translate(567,0)" x2="0" y2="5" stroke="#888" stroke-width="1" opacity="1"/><line transform="translate(600,0)" x2="0" y2="5" stroke="#888" stroke-width="1" opacity="1"/></g><g class="mark-text role-axis-label" pointer-events="none"><text text-anchor="start" transform="translate(0,15)" font-family="sans-serif" font-size="10px" fill="#000" opacity="1">−0.40</text><text text-anchor="middle" transform="translate(33.333333333333364,15)" font-family="sans-serif" font-size="10px" fill="#000" opacity="0">−0.35</text><text text-anchor="middle" transform="translate(66.66666666666669,15)" font-family="sans-serif" font-size="10px" fill="#000" opacity="1">−0.30</text><text text-anchor="middle" transform="translate(100.00000000000001,15)" font-family="sans-serif" font-size="10px" fill="#000" opacity="0">−0.25</text><text text-anchor="middle" transform="translate(133.33333333333334,15)" font-family="sans-serif" font-size="10px" fill="#000" opacity="1">−0.20</text><text text-anchor="middle" transform="translate(166.66666666666669,15)" font-family="sans-serif" font-size="10px" fill="#000" opacity="0">−0.15</text><text text-anchor="middle" transform="translate(200.00000000000003,15)" font-family="sans-serif" font-size="10px" fill="#000" opacity="1">−0.10</text><text text-anchor="middle" transform="translate(233.33333333333334,15)" font-family="sans-serif" font-size="10px" fill="#000" opacity="0">−0.05</text><text text-anchor="middle" transform="translate(266.6666666666667,15)" font-family="sans-serif" font-size="10px" fill="#000" opacity="1">0.00</text><text text-anchor="middle" transform="translate(300,15)" font-family="sans-serif" font-size="10px" fill="#000" opacity="0">0.05</text><text text-anchor="middle" transform="translate(333.33333333333337,15)" font-family="sans-serif" font-size="10px" fill="#000" opacity="1">0.10</text><text text-anchor="middle" transform="translate(366.6666666666667,15)" font-family="sans-serif" font-size="10px" fill="#000" opacity="0">0.15</text><text text-anchor="middle" transform="translate(400.00000000000006,15)" font-family="sans-serif" font-size="10px" fill="#000" opacity="1">0.20</text><text text-anchor="middle" transform="translate(433.3333333333333,15)" font-family="sans-serif" font-size="10px" fill="#000" opacity="0">0.25</text><text text-anchor="middle" transform="translate(466.66666666666663,15)" font-family="sans-serif" font-size="10px" fill="#000" opacity="1">0.30</text><text text-anchor="middle" transform="translate(499.99999999999994,15)" font-family="sans-serif" font-size="10px" fill="#000" opacity="0">0.35</text><text text-anchor="middle" transform="translate(533.3333333333334,15)" font-family="sans-serif" font-size="10px" fill="#000" opacity="1">0.40</text><text text-anchor="middle" transform="translate(566.6666666666667,15)" font-family="sans-serif" font-size="10px" fill="#000" opacity="0">0.45</text><text text-anchor="end" transform="translate(600,15)" font-family="sans-serif" font-size="10px" fill="#000" opacity="1">0.50</text></g><g class="mark-rule role-axis-domain" pointer-events="none"><line transform="translate(0,0)" x2="600" y2="0" stroke="#888" stroke-width="1" opacity="1"/></g><g class="mark-text role-axis-title" pointer-events="none"><text text-anchor="middle" transform="translate(300,30)" font-family="sans-serif" font-size="11px" font-weight="bold" fill="#000" opacity="1">対数リターン</text></g></g><path class="foreground" aria-hidden="true" d="" pointer-events="none" display="none"/></g></g><g class="mark-group role-axis" role="graphics-symbol" aria-roledescription="axis" aria-label="Y-axis titled '頻度' for a linear scale with values from 0 to 13"><g transform="translate(0.5,0.5)"><path class="background" aria-hidden="true" d="M0,0h0v0h0Z" pointer-events="none"/><g><g class="mark-rule role-axis-tick" pointer-events="none"><line transform="translate(0,400)" x2="-5" y2="0" stroke="#888" stroke-width="1" opacity="1"/><line transform="translate(0,369)" x2="-5" y2="0" stroke="#888" stroke-width="1" opacity="1"/><line transform="translate(0,338)" x2="-5" y2="0" stroke="#888" stroke-width="1" opacity="1"/><line transform="translate(0,308)" x2="-5" y2="0" stroke="#888" stroke-width="1" opacity="1"/><line transform="translate(0,277)" x2="-5" y2="0" stroke="#888" stroke-width="1" opacity="1"/><line transform="translate(0,246)" x2="-5" y2="0" stroke="#888" stroke-width="1" opacity="1"/><line transform="translate(0,215)" x2="-5" y2="0" stroke="#888" stroke-width="1" opacity="1"/><line transform="translate(0,185)" x2="-5" y2="0" stroke="#888" stroke-width="1" opacity="1"/><line transform="translate(0,154)" x2="-5" y2="0" stroke="#888" stroke-width="1" opacity="1"/><line transform="translate(0,123)" x2="-5" y2="0" stroke="#888" stroke-width="1" opacity="1"/><line transform="translate(0,92)" x2="-5" y2="0" stroke="#888" stroke-width="1" opacity="1"/><line transform="translate(0,62)" x2="-5" y2="0" stroke="#888" stroke-width="1" opacity="1"/><line transform="translate(0,31)" x2="-5" y2="0" stroke="#888" stroke-width="1" opacity="1"/><line transform="translate(0,0)" x2="-5" y2="0" stroke="#888" stroke-width="1" opacity="1"/></g><g class="mark-text role-axis-label" pointer-events="none"><text text-anchor="end" transform="translate(-7,403)" font-family="sans-serif" font-size="10px" fill="#000" opacity="1">0</text><text text-anchor="end" transform="translate(-7,372.2307692307692)" font-family="sans-serif" font-size="10px" fill="#000" opacity="1">1</text><text text-anchor="end" transform="translate(-7,341.46153846153845)" font-family="sans-serif" font-size="10px" fill="#000" opacity="1">2</text><text text-anchor="end" transform="translate(-7,310.6923076923077)" font-family="sans-serif" font-size="10px" fill="#000" opacity="1">3</text><text text-anchor="end" transform="translate(-7,279.9230769230769)" font-family="sans-serif" font-size="10px" fill="#000" opacity="1">4</text><text text-anchor="end" transform="translate(-7,249.15384615384616)" font-family="sans-serif" font-size="10px" fill="#000" opacity="1">5</text><text text-anchor="end" transform="translate(-7,218.3846153846154)" font-family="sans-serif" font-size="10px" fill="#000" opacity="1">6</text><text text-anchor="end" transform="translate(-7,187.6153846153846)" font-family="sans-serif" font-size="10px" fill="#000" opacity="1">7</text><text text-anchor="end" transform="translate(-7,156.84615384615384)" font-family="sans-serif" font-size="10px" fill="#000" opacity="1">8</text><text text-anchor="end" transform="translate(-7,126.07692307692308)" font-family="sans-serif" font-size="10px" fill="#000" opacity="1">9</text><text text-anchor="end" transform="translate(-7,95.30769230769229)" font-family="sans-serif" font-size="10px" fill="#000" opacity="1">10</text><text text-anchor="end" transform="translate(-7,64.53846153846155)" font-family="sans-serif" font-size="10px" fill="#000" opacity="1">11</text><text text-anchor="end" transform="translate(-7,33.769230769230745)" font-family="sans-serif" font-size="10px" fill="#000" opacity="1">12</text><text text-anchor="end" transform="translate(-7,3)" font-family="sans-serif" font-size="10px" fill="#000" opacity="1">13</text></g><g class="mark-rule role-axis-domain" pointer-events="none"><line transform="translate(0,400)" x2="0" y2="-400" stroke="#888" stroke-width="1" opacity="1"/></g><g class="mark-text role-axis-title" pointer-events="none"><text text-anchor="middle" transform="translate(-22.123046875,200) rotate(-90) translate(0,-2)" font-family="sans-serif" font-size="11px" font-weight="bold" fill="#000" opacity="1">頻度</text></g></g><path class="foreground" aria-hidden="true" d="" pointer-events="none" display="none"/></g></g><g class="mark-rect role-mark layer_0_marks" role="graphics-object" aria-roledescription="rect mark container"><path aria-label="対数リターン: −0.296506576325; 頻度: 0.0374126757625" role="graphics-symbol" aria-roledescription="bar" d="M66.49561578351542,398.8488407457692h5v1.1511592542307767h-5Z" fill="gray" opacity="0.4"/><path aria-label="対数リターン: −0.282143917087; 頻度: 0" role="graphics-symbol" aria-roledescription="bar" d="M76.0707219422962,400h5v0h-5Z" fill="gray" opacity="0.4"/><path aria-label="対数リターン: −0.267781257848; 頻度: 0.0374126757625" role="graphics-symbol" aria-roledescription="bar" d="M85.64582810107687,398.8488407457692h5v1.1511592542307767h-5Z" fill="gray" opacity="0.4"/><path aria-label="対数リターン: −0.25341859861; 頻度: 0" role="graphics-symbol" aria-roledescription="bar" d="M95.22093425985763,400h5v0h-5Z" fill="gray" opacity="0.4"/><path aria-label="対数リターン: −0.239055939372; 頻度: 0" role="graphics-symbol" aria-roledescription="bar" d="M104.79604041863833,400h5v0h-5Z" fill="gray" opacity="0.4"/><path aria-label="対数リターン: −0.224693280134; 頻度: 0" role="graphics-symbol" aria-roledescription="bar" d="M114.37114657741905,400h5v0h-5Z" fill="gray" opacity="0.4"/><path aria-label="対数リターン: −0.210330620896; 頻度: 0" role="graphics-symbol" aria-roledescription="bar" d="M123.94625273619978,400h5v0h-5Z" fill="gray" opacity="0.4"/><path aria-label="対数リターン: −0.195967961658; 頻度: 0.0374126757625" role="graphics-symbol" aria-roledescription="bar" d="M133.5213588949805,398.8488407457692h5v1.1511592542307767h-5Z" fill="gray" opacity="0.4"/><path aria-label="対数リターン: −0.181605302419; 頻度: 0.0374126757625" role="graphics-symbol" aria-roledescription="bar" d="M143.09646505376122,398.8488407457692h5v1.1511592542307767h-5Z" fill="gray" opacity="0.4"/><path aria-label="対数リターン: −0.167242643181; 頻度: 0" role="graphics-symbol" aria-roledescription="bar" d="M152.67157121254195,400h5v0h-5Z" fill="gray" opacity="0.4"/><path aria-label="対数リターン: −0.152879983943; 頻度: 0.187063378812" role="graphics-symbol" aria-roledescription="bar" d="M162.24667737132265,394.24420372884623h5v5.75579627115377h-5Z" fill="gray" opacity="0.4"/><path aria-label="対数リターン: −0.138517324705; 頻度: 0.224476054575" role="graphics-symbol" aria-roledescription="bar" d="M171.82178353010343,393.09304447461545h5v6.9069555253845465h-5Z" fill="gray" opacity="0.4"/><path aria-label="対数リターン: −0.124154665467; 頻度: 0.2993014061" role="graphics-symbol" aria-roledescription="bar" d="M181.3968896888841,390.7907259661539h5v9.2092740338461h-5Z" fill="gray" opacity="0.4"/><path aria-label="対数リターン: −0.109792006229; 頻度: 0.261888730337" role="graphics-symbol" aria-roledescription="bar" d="M190.97199584766486,391.9418852203847h5v8.058114779615323h-5Z" fill="gray" opacity="0.4"/><path aria-label="対数リターン: −0.0954293469903; 頻度: 0.486364784912" role="graphics-symbol" aria-roledescription="bar" d="M200.54710200644556,385.03492969500013h5v14.96507030499987h-5Z" fill="gray" opacity="0.4"/><path aria-label="対数リターン: −0.0810666877522; 頻度: 0.785666191012" role="graphics-symbol" aria-roledescription="bar" d="M210.12220816522625,375.8256556611541h5v24.174344338845913h-5Z" fill="gray" opacity="0.4"/><path aria-label="対数リターン: −0.066704028514; 頻度: 1.1972056244" role="graphics-symbol" aria-roledescription="bar" d="M219.697314324007,363.16290386461577h5v36.83709613538423h-5Z" fill="gray" opacity="0.4"/><path aria-label="対数リターン: −0.0523413692758; 頻度: 2.28217322151" role="graphics-symbol" aria-roledescription="bar" d="M229.2724204827877,329.7792854919238h5v70.22071450807618h-5Z" fill="gray" opacity="0.4"/><path aria-label="対数リターン: −0.0379787100376; 頻度: 3.40455349439" role="graphics-symbol" aria-roledescription="bar" d="M238.84752664156844,295.2445078650006h5v104.75549213499937h-5Z" fill="gray" opacity="0.4"/><path aria-label="対数リターン: −0.0236160507995; 頻度: 6.47239290691" role="graphics-symbol" aria-roledescription="bar" d="M248.42263280034916,200.8494490180789h5v199.1505509819211h-5Z" fill="gray" opacity="0.4"/><path aria-label="対数リターン: −0.00925339156131; 頻度: 8.79197880419" role="graphics-symbol" aria-roledescription="bar" d="M257.99773895912983,129.47757525577194h5v270.52242474422803h-5Z" fill="gray" opacity="0.4"/><path aria-label="対数リターン: 0.00510926767687; 頻度: 11.6353421621" role="graphics-symbol" aria-roledescription="bar" d="M267.5728451179106,41.989471934234324h5v358.0105280657657h-5Z" fill="gray" opacity="0.4"/><path aria-label="対数リターン: 0.019471926915; 頻度: 12.2713576501" role="graphics-symbol" aria-roledescription="bar" d="M277.1479512766913,22.419764612311432h5v377.58023538768856h-5Z" fill="gray" opacity="0.4"/><path aria-label="対数リターン: 0.0338345861532; 頻度: 9.8769464013" role="graphics-symbol" aria-roledescription="bar" d="M286.72305743547207,96.09395688307995h5v303.90604311692005h-5Z" fill="gray" opacity="0.4"/><path aria-label="対数リターン: 0.0481972453914; 頻度: 5.27518728251" role="graphics-symbol" aria-roledescription="bar" d="M296.29816359425274,237.68654515346253h5v162.31345484653747h-5Z" fill="gray" opacity="0.4"/><path aria-label="対数リターン: 0.0625599046296; 頻度: 3.51679152167" role="graphics-symbol" aria-roledescription="bar" d="M305.87326975303347,291.79103010230875h5v108.20896989769125h-5Z" fill="gray" opacity="0.4"/><path aria-label="対数リターン: 0.0769225638677; 頻度: 1.38426900321" role="graphics-symbol" aria-roledescription="bar" d="M315.4483759118142,357.40710759346194h5v42.592892406538056h-5Z" fill="gray" opacity="0.4"/><path aria-label="対数リターン: 0.0912852231059; 頻度: 0.561190136437" role="graphics-symbol" aria-roledescription="bar" d="M325.0234820705949,382.73261118653863h5v17.267388813461366h-5Z" fill="gray" opacity="0.4"/><path aria-label="対数リターン: 0.105647882344; 頻度: 0.336714081862" role="graphics-symbol" aria-roledescription="bar" d="M334.5985882293757,389.6395667119232h5v10.36043328807682h-5Z" fill="gray" opacity="0.4"/><path aria-label="対数リターン: 0.120010541582; 頻度: 0.074825351525" role="graphics-symbol" aria-roledescription="bar" d="M344.1736943881564,397.69768149153845h5v2.3023185084615534h-5Z" fill="gray" opacity="0.4"/><path aria-label="対数リターン: 0.13437320082; 頻度: 0" role="graphics-symbol" aria-roledescription="bar" d="M353.74880054693705,400h5v0h-5Z" fill="gray" opacity="0.4"/><path aria-label="対数リターン: 0.148735860059; 頻度: 0" role="graphics-symbol" aria-roledescription="bar" d="M363.3239067057179,400h5v0h-5Z" fill="gray" opacity="0.4"/><path aria-label="対数リターン: 0.163098519297; 頻度: 0.0374126757625" role="graphics-symbol" aria-roledescription="bar" d="M372.89901286449856,398.8488407457692h5v1.1511592542307767h-5Z" fill="gray" opacity="0.4"/><path aria-label="対数リターン: 0.177461178535; 頻度: 0" role="graphics-symbol" aria-roledescription="bar" d="M382.4741190232793,400h5v0h-5Z" fill="gray" opacity="0.4"/><path aria-label="対数リターン: 0.191823837773; 頻度: 0.0374126757625" role="graphics-symbol" aria-roledescription="bar" d="M392.04922518205996,398.8488407457692h5v1.1511592542307767h-5Z" fill="gray" opacity="0.4"/><path aria-label="対数リターン: 0.206186497011; 頻度: 0" role="graphics-symbol" aria-roledescription="bar" d="M401.6243313408408,400h5v0h-5Z" fill="gray" opacity="0.4"/><path aria-label="対数リターン: 0.220549156249; 頻度: 0" role="graphics-symbol" aria-roledescription="bar" d="M411.19943749962147,400h5v0h-5Z" fill="gray" opacity="0.4"/><path aria-label="対数リターン: 0.234911815488; 頻度: 0" role="graphics-symbol" aria-roledescription="bar" d="M420.77454365840214,400h5v0h-5Z" fill="gray" opacity="0.4"/><path aria-label="対数リターン: 0.249274474726; 頻度: 0" role="graphics-symbol" aria-roledescription="bar" d="M430.34964981718286,400h5v0h-5Z" fill="gray" opacity="0.4"/><path aria-label="対数リターン: 0.263637133964; 頻度: 0.0374126757625" role="graphics-symbol" aria-roledescription="bar" d="M439.92475597596365,398.8488407457692h5v1.1511592542307767h-5Z" fill="gray" opacity="0.4"/><path aria-label="対数リターン: 0.277999793202; 頻度: 0" role="graphics-symbol" aria-roledescription="bar" d="M449.4998621347443,400h5v0h-5Z" fill="gray" opacity="0.4"/><path aria-label="対数リターン: 0.29236245244; 頻度: 0" role="graphics-symbol" aria-roledescription="bar" d="M459.07496829352505,400h5v0h-5Z" fill="gray" opacity="0.4"/><path aria-label="対数リターン: 0.306725111678; 頻度: 0" role="graphics-symbol" aria-roledescription="bar" d="M468.6500744523057,400h5v0h-5Z" fill="gray" opacity="0.4"/><path aria-label="対数リターン: 0.321087770917; 頻度: 0" role="graphics-symbol" aria-roledescription="bar" d="M478.22518061108644,400h5v0h-5Z" fill="gray" opacity="0.4"/><path aria-label="対数リターン: 0.335450430155; 頻度: 0" role="graphics-symbol" aria-roledescription="bar" d="M487.8002867698672,400h5v0h-5Z" fill="gray" opacity="0.4"/><path aria-label="対数リターン: 0.349813089393; 頻度: 0" role="graphics-symbol" aria-roledescription="bar" d="M497.37539292864795,400h5v0h-5Z" fill="gray" opacity="0.4"/><path aria-label="対数リターン: 0.364175748631; 頻度: 0" role="graphics-symbol" aria-roledescription="bar" d="M506.9504990874286,400h5v0h-5Z" fill="gray" opacity="0.4"/><path aria-label="対数リターン: 0.378538407869; 頻度: 0" role="graphics-symbol" aria-roledescription="bar" d="M516.5256052462094,400h5v0h-5Z" fill="gray" opacity="0.4"/><path aria-label="対数リターン: 0.392901067107; 頻度: 0" role="graphics-symbol" aria-roledescription="bar" d="M526.1007114049901,400h5v0h-5Z" fill="gray" opacity="0.4"/><path aria-label="対数リターン: 0.407263726346; 頻度: 0.0374126757625" role="graphics-symbol" aria-roledescription="bar" d="M535.6758175637708,398.8488407457692h5v1.1511592542307767h-5Z" fill="gray" opacity="0.4"/></g><g class="mark-group role-scope layer_1_pathgroup" role="graphics-object" aria-roledescription="group mark container"><g transform="translate(0,0)"><path class="background" aria-hidden="true" d="M0,0h600v400h-600Z"/><g><g class="mark-line role-mark layer_1_marks" role="graphics-object" aria-roledescription="line mark container"><path aria-label="リターン: −0.353687905944; 頻度: 6.50564206649e-16; モデル: 正規分布" role="graphics-symbol" aria-roledescription="line mark" d="M30.875,400L31.421,400L31.967,400L32.513,400L33.059,400L33.605,400L34.151,400L34.697,400L35.242,400L35.788,400L36.334,400L36.88,400L37.426,400L37.972,400L38.518,400L39.064,400L39.61,400L40.156,400L40.702,400L41.248,400L41.794,400L42.34,400L42.886,400L43.432,400L43.978,400L44.524,400L45.07,400L45.616,400L46.162,400L46.708,400L47.254,400L47.8,400L48.346,400L48.892,400L49.438,400L49.984,400L50.53,400L51.076,400L51.622,400L52.167,400L52.713,400L53.259,400L53.805,400L54.351,400L54.897,400L55.443,400L55.989,400L56.535,400L57.081,400L57.627,400L58.173,400L58.719,400L59.265,400L59.811,400L60.357,400L60.903,400L61.449,400L61.995,400L62.541,400L63.087,400L63.633,400L64.179,400L64.725,400L65.271,400L65.817,400L66.363,400L66.909,400L67.455,400L68.001,400L68.547,400L69.092,400L69.638,400L70.184,400L70.73,400L71.276,400L71.822,400L72.368,400L72.914,400L73.46,400L74.006,400L74.552,400L75.098,400L75.644,400L76.19,400L76.736,400L77.282,400L77.828,400L78.374,400L78.92,400L79.466,400L80.012,400L80.558,400L81.104,400L81.65,400L82.196,400L82.742,400L83.288,400L83.834,400L84.38,400L84.926,400L85.472,400L86.017,400L86.563,400L87.109,400L87.655,400L88.201,400L88.747,400L89.293,400L89.839,400L90.385,400L90.931,400L91.477,400L92.023,400L92.569,400L93.115,400L93.661,400L94.207,400L94.753,400L95.299,400L95.845,400L96.391,400L96.937,400L97.483,400L98.029,400L98.575,400L99.121,400L99.667,400L100.213,400L100.759,400L101.305,400L101.851,400L102.397,400L102.942,400L103.488,400L104.034,400L104.58,400L105.126,400L105.672,400L106.218,400L106.764,400L107.31,400L107.856,400L108.402,400L108.948,400L109.494,400L110.04,400L110.586,400L111.132,400L111.678,400L112.224,400L112.77,400L113.316,400L113.862,400L114.408,400L114.954,400L115.5,400L116.046,400L116.592,400L117.138,400L117.684,400L118.23,400L118.776,400L119.322,400L119.868,400L120.413,400L120.959,400L121.505,400L122.051,400L122.597,400L123.143,400L123.689,400L124.235,400L124.781,400L125.327,400L125.873,400L126.419,400L126.965,400L127.511,400L128.057,399.999L128.603,399.999L129.149,399.999L129.695,399.999L130.241,399.999L130.787,399.999L131.333,399.999L131.879,399.999L132.425,399.999L132.971,399.999L133.517,399.999L134.063,399.998L134.609,399.998L135.155,399.998L135.701,399.998L136.247,399.998L136.793,399.998L137.338,399.997L137.884,399.997L138.43,399.997L138.976,399.996L139.522,399.996L140.068,399.996L140.614,399.995L141.16,399.995L141.706,399.994L142.252,399.994L142.798,399.993L143.344,399.992L143.89,399.992L144.436,399.991L144.982,399.99L145.528,399.989L146.074,399.988L146.62,399.987L147.166,399.986L147.712,399.985L148.258,399.983L148.804,399.982L149.35,399.98L149.896,399.978L150.442,399.976L150.988,399.974L151.534,399.972L152.08,399.97L152.626,399.967L153.172,399.964L153.718,399.961L154.263,399.958L154.809,399.954L155.355,399.95L155.901,399.946L156.447,399.941L156.993,399.937L157.539,399.931L158.085,399.926L158.631,399.919L159.177,399.913L159.723,399.906L160.269,399.898L160.815,399.89L161.361,399.881L161.907,399.871L162.453,399.861L162.999,399.85L163.545,399.838L164.091,399.825L164.637,399.812L165.183,399.797L165.729,399.781L166.275,399.765L166.821,399.747L167.367,399.727L167.913,399.707L168.459,399.685L169.005,399.661L169.551,399.636L170.097,399.609L170.643,399.58L171.188,399.549L171.734,399.516L172.28,399.481L172.826,399.444L173.372,399.404L173.918,399.362L174.464,399.317L175.01,399.269L175.556,399.218L176.102,399.163L176.648,399.106L177.194,399.044L177.74,398.979L178.286,398.91L178.832,398.836L179.378,398.758L179.924,398.675L180.47,398.588L181.016,398.495L181.562,398.396L182.108,398.292L182.654,398.182L183.2,398.065L183.746,397.942L184.292,397.811L184.838,397.673L185.384,397.528L185.93,397.374L186.476,397.212L187.022,397.041L187.568,396.861L188.113,396.671L188.659,396.471L189.205,396.26L189.751,396.038L190.297,395.805L190.843,395.56L191.389,395.302L191.935,395.031L192.481,394.746L193.027,394.447L193.573,394.134L194.119,393.805L194.665,393.46L195.211,393.099L195.757,392.721L196.303,392.324L196.849,391.91L197.395,391.476L197.941,391.022L198.487,390.548L199.033,390.052L199.579,389.535L200.125,388.994L200.671,388.431L201.217,387.843L201.763,387.23L202.309,386.591L202.855,385.926L203.401,385.234L203.947,384.513L204.493,383.764L205.039,382.984L205.584,382.174L206.13,381.333L206.676,380.459L207.222,379.553L207.768,378.612L208.314,377.637L208.86,376.626L209.406,375.579L209.952,374.495L210.498,373.373L211.044,372.212L211.59,371.012L212.136,369.771L212.682,368.49L213.228,367.166L213.774,365.8L214.32,364.391L214.866,362.939L215.412,361.441L215.958,359.899L216.504,358.31L217.05,356.676L217.596,354.994L218.142,353.265L218.688,351.489L219.234,349.664L219.78,347.79L220.326,345.867L220.872,343.895L221.418,341.874L221.964,339.803L222.509,337.681L223.055,335.51L223.601,333.289L224.147,331.017L224.693,328.696L225.239,326.324L225.785,323.903L226.331,321.432L226.877,318.912L227.423,316.344L227.969,313.727L228.515,311.062L229.061,308.35L229.607,305.592L230.153,302.787L230.699,299.938L231.245,297.045L231.791,294.108L232.337,291.13L232.883,288.111L233.429,285.051L233.975,281.954L234.521,278.819L235.067,275.649L235.613,272.445L236.159,269.208L236.705,265.94L237.251,262.643L237.797,259.32L238.343,255.97L238.889,252.598L239.434,249.204L239.98,245.792L240.526,242.362L241.072,238.918L241.618,235.461L242.164,231.995L242.71,228.522L243.256,225.043L243.802,221.563L244.348,218.082L244.894,214.605L245.44,211.134L245.986,207.672L246.532,204.22L247.078,200.784L247.624,197.364L248.17,193.965L248.716,190.589L249.262,187.239L249.808,183.919L250.354,180.63L250.9,177.377L251.446,174.162L251.992,170.988L252.538,167.858L253.084,164.776L253.63,161.744L254.176,158.766L254.722,155.843L255.268,152.98L255.814,150.179L256.359,147.443L256.905,144.775L257.451,142.177L257.997,139.653L258.543,137.204L259.089,134.834L259.635,132.545L260.181,130.34L260.727,128.22L261.273,126.189L261.819,124.248L262.365,122.399L262.911,120.646L263.457,118.988L264.003,117.429L264.549,115.971L265.095,114.614L265.641,113.36L266.187,112.211L266.733,111.168L267.279,110.232L267.825,109.404L268.371,108.686L268.917,108.078L269.463,107.58L270.009,107.194L270.555,106.919L271.101,106.756L271.647,106.706L272.193,106.768L272.739,106.942L273.284,107.228L273.83,107.626L274.376,108.135L274.922,108.755L275.468,109.485L276.014,110.323L276.56,111.27L277.106,112.324L277.652,113.484L278.198,114.749L278.744,116.116L279.29,117.585L279.836,119.155L280.382,120.822L280.928,122.586L281.474,124.444L282.02,126.394L282.566,128.435L283.112,130.563L283.658,132.777L284.204,135.075L284.75,137.453L285.296,139.909L285.842,142.442L286.388,145.047L286.934,147.722L287.48,150.465L288.026,153.273L288.572,156.142L289.118,159.07L289.664,162.054L290.21,165.092L290.755,168.179L291.301,171.313L291.847,174.491L292.393,177.71L292.939,180.967L293.485,184.259L294.031,187.583L294.577,190.936L295.123,194.315L295.669,197.716L296.215,201.137L296.761,204.576L297.307,208.028L297.853,211.492L298.399,214.964L298.945,218.441L299.491,221.921L300.037,225.402L300.583,228.88L301.129,232.353L301.675,235.818L302.221,239.273L302.767,242.716L303.313,246.144L303.859,249.555L304.405,252.947L304.951,256.317L305.497,259.663L306.043,262.985L306.589,266.278L307.135,269.543L307.68,272.776L308.226,275.977L308.772,279.144L309.318,282.275L309.864,285.369L310.41,288.424L310.956,291.439L311.502,294.413L312.048,297.345L312.594,300.234L313.14,303.079L313.686,305.878L314.232,308.632L314.778,311.339L315.324,313.999L315.87,316.611L316.416,319.174L316.962,321.689L317.508,324.155L318.054,326.571L318.6,328.937L319.146,331.254L319.692,333.52L320.238,335.736L320.784,337.902L321.33,340.018L321.876,342.085L322.422,344.101L322.968,346.068L323.514,347.985L324.06,349.854L324.605,351.674L325.151,353.446L325.697,355.17L326.243,356.846L326.789,358.476L327.335,360.06L327.881,361.598L328.427,363.09L328.973,364.539L329.519,365.943L330.065,367.305L330.611,368.624L331.157,369.901L331.703,371.138L332.249,372.334L332.795,373.491L333.341,374.609L333.887,375.689L334.433,376.732L334.979,377.739L335.525,378.711L336.071,379.648L336.617,380.551L337.163,381.421L337.709,382.259L338.255,383.066L338.801,383.842L339.347,384.589L339.893,385.306L340.439,385.996L340.985,386.658L341.53,387.294L342.076,387.905L342.622,388.49L343.168,389.051L343.714,389.589L344.26,390.104L344.806,390.597L345.352,391.07L345.898,391.521L346.444,391.953L346.99,392.366L347.536,392.76L348.082,393.137L348.628,393.497L349.174,393.84L349.72,394.167L350.266,394.479L350.812,394.776L351.358,395.059L351.904,395.329L352.45,395.586L352.996,395.83L353.542,396.062L354.088,396.282L354.634,396.492L355.18,396.691L355.726,396.88L356.272,397.059L356.818,397.229L357.364,397.39L357.91,397.543L358.455,397.688L359.001,397.825L359.547,397.955L360.093,398.077L360.639,398.193L361.185,398.303L361.731,398.407L362.277,398.504L362.823,398.597L363.369,398.684L363.915,398.766L364.461,398.844L365.007,398.917L365.553,398.986L366.099,399.051L366.645,399.112L367.191,399.169L367.737,399.223L368.283,399.274L368.829,399.322L369.375,399.366L369.921,399.409L370.467,399.448L371.013,399.485L371.559,399.52L372.105,399.552L372.651,399.583L373.197,399.612L373.743,399.638L374.289,399.663L374.835,399.687L375.381,399.709L375.926,399.729L376.472,399.748L377.018,399.766L377.564,399.783L378.11,399.799L378.656,399.813L379.202,399.827L379.748,399.839L380.294,399.851L380.84,399.862L381.386,399.872L381.932,399.882L382.478,399.891L383.024,399.899L383.57,399.906L384.116,399.913L384.662,399.92L385.208,399.926L385.754,399.932L386.3,399.937L386.846,399.942L387.392,399.946L387.938,399.951L388.484,399.955L389.03,399.958L389.576,399.961L390.122,399.964L390.668,399.967L391.214,399.97L391.76,399.972L392.306,399.975L392.851,399.977L393.397,399.979L393.943,399.98L394.489,399.982L395.035,399.983L395.581,399.985L396.127,399.986L396.673,399.987L397.219,399.988L397.765,399.989L398.311,399.99L398.857,399.991L399.403,399.992L399.949,399.993L400.495,399.993L401.041,399.994L401.587,399.994L402.133,399.995L402.679,399.995L403.225,399.996L403.771,399.996L404.317,399.996L404.863,399.997L405.409,399.997L405.955,399.997L406.501,399.998L407.047,399.998L407.593,399.998L408.139,399.998L408.685,399.998L409.231,399.998L409.776,399.999L410.322,399.999L410.868,399.999L411.414,399.999L411.96,399.999L412.506,399.999L413.052,399.999L413.598,399.999L414.144,399.999L414.69,399.999L415.236,399.999L415.782,400L416.328,400L416.874,400L417.42,400L417.966,400L418.512,400L419.058,400L419.604,400L420.15,400L420.696,400L421.242,400L421.788,400L422.334,400L422.88,400L423.426,400L423.972,400L424.518,400L425.064,400L425.61,400L426.156,400L426.701,400L427.247,400L427.793,400L428.339,400L428.885,400L429.431,400L429.977,400L430.523,400L431.069,400L431.615,400L432.161,400L432.707,400L433.253,400L433.799,400L434.345,400L434.891,400L435.437,400L435.983,400L436.529,400L437.075,400L437.621,400L438.167,400L438.713,400L439.259,400L439.805,400L440.351,400L440.897,400L441.443,400L441.989,400L442.535,400L443.081,400L443.626,400L444.172,400L444.718,400L445.264,400L445.81,400L446.356,400L446.902,400L447.448,400L447.994,400L448.54,400L449.086,400L449.632,400L450.178,400L450.724,400L451.27,400L451.816,400L452.362,400L452.908,400L453.454,400L454,400L454.546,400L455.092,400L455.638,400L456.184,400L456.73,400L457.276,400L457.822,400L458.368,400L458.914,400L459.46,400L460.006,400L460.552,400L461.097,400L461.643,400L462.189,400L462.735,400L463.281,400L463.827,400L464.373,400L464.919,400L465.465,400L466.011,400L466.557,400L467.103,400L467.649,400L468.195,400L468.741,400L469.287,400L469.833,400L470.379,400L470.925,400L471.471,400L472.017,400L472.563,400L473.109,400L473.655,400L474.201,400L474.747,400L475.293,400L475.839,400L476.385,400L476.931,400L477.477,400L478.022,400L478.568,400L479.114,400L479.66,400L480.206,400L480.752,400L481.298,400L481.844,400L482.39,400L482.936,400L483.482,400L484.028,400L484.574,400L485.12,400L485.666,400L486.212,400L486.758,400L487.304,400L487.85,400L488.396,400L488.942,400L489.488,400L490.034,400L490.58,400L491.126,400L491.672,400L492.218,400L492.764,400L493.31,400L493.856,400L494.402,400L494.947,400L495.493,400L496.039,400L496.585,400L497.131,400L497.677,400L498.223,400L498.769,400L499.315,400L499.861,400L500.407,400L500.953,400L501.499,400L502.045,400L502.591,400L503.137,400L503.683,400L504.229,400L504.775,400L505.321,400L505.867,400L506.413,400L506.959,400L507.505,400L508.051,400L508.597,400L509.143,400L509.689,400L510.235,400L510.781,400L511.327,400L511.872,400L512.418,400L512.964,400L513.51,400L514.056,400L514.602,400L515.148,400L515.694,400L516.24,400L516.786,400L517.332,400L517.878,400L518.424,400L518.97,400L519.516,400L520.062,400L520.608,400L521.154,400L521.7,400L522.246,400L522.792,400L523.338,400L523.884,400L524.43,400L524.976,400L525.522,400L526.068,400L526.614,400L527.16,400L527.706,400L528.252,400L528.797,400L529.343,400L529.889,400L530.435,400L530.981,400L531.527,400L532.073,400L532.619,400L533.165,400L533.711,400L534.257,400L534.803,400L535.349,400L535.895,400L536.441,400L536.987,400L537.533,400L538.079,400L538.625,400L539.171,400L539.717,400L540.263,400L540.809,400L541.355,400L541.901,400L542.447,400L542.993,400L543.539,400L544.085,400L544.631,400L545.177,400L545.722,400L546.268,400L546.814,400L547.36,400L547.906,400L548.452,400L548.998,400L549.544,400L550.09,400L550.636,400L551.182,400L551.728,400L552.274,400L552.82,400L553.366,400L553.912,400L554.458,400L555.004,400L555.55,400L556.096,400L556.642,400L557.188,400L557.734,400L558.28,400L558.826,400L559.372,400L559.918,400L560.464,400L561.01,400L561.556,400L562.102,400L562.648,400L563.193,400L563.739,400L564.285,400L564.831,400L565.377,400L565.923,400L566.469,400L567.015,400L567.561,400L568.107,400L568.653,400L569.199,400L569.745,400L570.291,400L570.837,400L571.383,400L571.929,400L572.475,400L573.021,400L573.567,400L574.113,400L574.659,400L575.205,400L575.751,400L576.297,400" stroke="red" stroke-width="2" stroke-dasharray="5,5"/></g></g><path class="foreground" aria-hidden="true" d="" display="none"/></g><g transform="translate(0,0)"><path class="background" aria-hidden="true" d="M0,0h600v400h-600Z"/><g><g class="mark-line role-mark layer_1_marks" role="graphics-object" aria-roledescription="line mark container"><path aria-label="リターン: −0.353687905944; 頻度: 0.0000662038210416; モデル: 最適フィット (genlogistic)" role="graphics-symbol" aria-roledescription="line mark" d="M30.875,399.998L31.421,399.998L31.967,399.998L32.513,399.998L33.059,399.998L33.605,399.998L34.151,399.998L34.697,399.998L35.242,399.997L35.788,399.997L36.334,399.997L36.88,399.997L37.426,399.997L37.972,399.997L38.518,399.997L39.064,399.997L39.61,399.997L40.156,399.997L40.702,399.997L41.248,399.996L41.794,399.996L42.34,399.996L42.886,399.996L43.432,399.996L43.978,399.996L44.524,399.996L45.07,399.996L45.616,399.996L46.162,399.995L46.708,399.995L47.254,399.995L47.8,399.995L48.346,399.995L48.892,399.995L49.438,399.995L49.984,399.994L50.53,399.994L51.076,399.994L51.622,399.994L52.167,399.994L52.713,399.994L53.259,399.993L53.805,399.993L54.351,399.993L54.897,399.993L55.443,399.993L55.989,399.992L56.535,399.992L57.081,399.992L57.627,399.992L58.173,399.992L58.719,399.991L59.265,399.991L59.811,399.991L60.357,399.99L60.903,399.99L61.449,399.99L61.995,399.99L62.541,399.989L63.087,399.989L63.633,399.989L64.179,399.988L64.725,399.988L65.271,399.988L65.817,399.987L66.363,399.987L66.909,399.987L67.455,399.986L68.001,399.986L68.547,399.985L69.092,399.985L69.638,399.985L70.184,399.984L70.73,399.984L71.276,399.983L71.822,399.983L72.368,399.982L72.914,399.982L73.46,399.981L74.006,399.981L74.552,399.98L75.098,399.979L75.644,399.979L76.19,399.978L76.736,399.978L77.282,399.977L77.828,399.976L78.374,399.976L78.92,399.975L79.466,399.974L80.012,399.973L80.558,399.973L81.104,399.972L81.65,399.971L82.196,399.97L82.742,399.969L83.288,399.968L83.834,399.967L84.38,399.967L84.926,399.966L85.472,399.965L86.017,399.964L86.563,399.962L87.109,399.961L87.655,399.96L88.201,399.959L88.747,399.958L89.293,399.957L89.839,399.955L90.385,399.954L90.931,399.953L91.477,399.951L92.023,399.95L92.569,399.949L93.115,399.947L93.661,399.946L94.207,399.944L94.753,399.942L95.299,399.941L95.845,399.939L96.391,399.937L96.937,399.935L97.483,399.934L98.029,399.932L98.575,399.93L99.121,399.928L99.667,399.926L100.213,399.923L100.759,399.921L101.305,399.919L101.851,399.917L102.397,399.914L102.942,399.912L103.488,399.909L104.034,399.906L104.58,399.904L105.126,399.901L105.672,399.898L106.218,399.895L106.764,399.892L107.31,399.889L107.856,399.886L108.402,399.882L108.948,399.879L109.494,399.876L110.04,399.872L110.586,399.868L111.132,399.864L111.678,399.86L112.224,399.856L112.77,399.852L113.316,399.848L113.862,399.844L114.408,399.839L114.954,399.834L115.5,399.83L116.046,399.825L116.592,399.82L117.138,399.814L117.684,399.809L118.23,399.803L118.776,399.798L119.322,399.792L119.868,399.786L120.413,399.78L120.959,399.773L121.505,399.767L122.051,399.76L122.597,399.753L123.143,399.746L123.689,399.738L124.235,399.731L124.781,399.723L125.327,399.715L125.873,399.707L126.419,399.698L126.965,399.69L127.511,399.681L128.057,399.671L128.603,399.662L129.149,399.652L129.695,399.642L130.241,399.631L130.787,399.621L131.333,399.61L131.879,399.599L132.425,399.587L132.971,399.575L133.517,399.563L134.063,399.55L134.609,399.537L135.155,399.523L135.701,399.51L136.247,399.495L136.793,399.481L137.338,399.466L137.884,399.45L138.43,399.434L138.976,399.418L139.522,399.401L140.068,399.384L140.614,399.366L141.16,399.348L141.706,399.329L142.252,399.309L142.798,399.289L143.344,399.269L143.89,399.247L144.436,399.226L144.982,399.203L145.528,399.18L146.074,399.156L146.62,399.132L147.166,399.107L147.712,399.081L148.258,399.054L148.804,399.027L149.35,398.999L149.896,398.97L150.442,398.94L150.988,398.909L151.534,398.878L152.08,398.845L152.626,398.812L153.172,398.777L153.718,398.742L154.263,398.705L154.809,398.668L155.355,398.629L155.901,398.589L156.447,398.549L156.993,398.506L157.539,398.463L158.085,398.419L158.631,398.373L159.177,398.326L159.723,398.277L160.269,398.227L160.815,398.176L161.361,398.123L161.907,398.069L162.453,398.013L162.999,397.955L163.545,397.896L164.091,397.835L164.637,397.772L165.183,397.708L165.729,397.641L166.275,397.573L166.821,397.503L167.367,397.43L167.913,397.356L168.459,397.279L169.005,397.201L169.551,397.119L170.097,397.036L170.643,396.95L171.188,396.862L171.734,396.771L172.28,396.677L172.826,396.581L173.372,396.482L173.918,396.38L174.464,396.275L175.01,396.167L175.556,396.056L176.102,395.942L176.648,395.825L177.194,395.704L177.74,395.579L178.286,395.451L178.832,395.32L179.378,395.184L179.924,395.045L180.47,394.901L181.016,394.753L181.562,394.601L182.108,394.445L182.654,394.284L183.2,394.119L183.746,393.948L184.292,393.773L184.838,393.593L185.384,393.407L185.93,393.216L186.476,393.02L187.022,392.818L187.568,392.61L188.113,392.396L188.659,392.176L189.205,391.949L189.751,391.716L190.297,391.476L190.843,391.23L191.389,390.976L191.935,390.715L192.481,390.446L193.027,390.169L193.573,389.885L194.119,389.592L194.665,389.291L195.211,388.981L195.757,388.662L196.303,388.334L196.849,387.997L197.395,387.649L197.941,387.292L198.487,386.925L199.033,386.546L199.579,386.157L200.125,385.757L200.671,385.345L201.217,384.922L201.763,384.486L202.309,384.037L202.855,383.576L203.401,383.101L203.947,382.613L204.493,382.111L205.039,381.594L205.584,381.062L206.13,380.515L206.676,379.953L207.222,379.374L207.768,378.779L208.314,378.166L208.86,377.536L209.406,376.888L209.952,376.222L210.498,375.536L211.044,374.831L211.59,374.106L212.136,373.359L212.682,372.592L213.228,371.803L213.774,370.991L214.32,370.156L214.866,369.298L215.412,368.414L215.958,367.506L216.504,366.573L217.05,365.612L217.596,364.625L218.142,363.609L218.688,362.565L219.234,361.492L219.78,360.388L220.326,359.253L220.872,358.087L221.418,356.887L221.964,355.654L222.509,354.387L223.055,353.084L223.601,351.745L224.147,350.369L224.693,348.955L225.239,347.501L225.785,346.007L226.331,344.473L226.877,342.896L227.423,341.276L227.969,339.611L228.515,337.902L229.061,336.146L229.607,334.342L230.153,332.49L230.699,330.588L231.245,328.635L231.791,326.63L232.337,324.572L232.883,322.46L233.429,320.292L233.975,318.067L234.521,315.784L235.067,313.442L235.613,311.04L236.159,308.577L236.705,306.051L237.251,303.461L237.797,300.807L238.343,298.086L238.889,295.298L239.434,292.442L239.98,289.517L240.526,286.522L241.072,283.456L241.618,280.317L242.164,277.106L242.71,273.821L243.256,270.462L243.802,267.028L244.348,263.518L244.894,259.932L245.44,256.27L245.986,252.531L246.532,248.715L247.078,244.822L247.624,240.853L248.17,236.808L248.716,232.686L249.262,228.49L249.808,224.219L250.354,219.874L250.9,215.458L251.446,210.971L251.992,206.416L252.538,201.793L253.084,197.107L253.63,192.358L254.176,187.551L254.722,182.688L255.268,177.773L255.814,172.809L256.359,167.802L256.905,162.756L257.451,157.676L257.997,152.567L258.543,147.436L259.089,142.289L259.635,137.132L260.181,131.974L260.727,126.82L261.273,121.681L261.819,116.564L262.365,111.478L262.911,106.433L263.457,101.439L264.003,96.506L264.549,91.645L265.095,86.867L265.641,82.182L266.187,77.604L266.733,73.144L267.279,68.814L267.825,64.626L268.371,60.594L268.917,56.729L269.463,53.044L270.009,49.552L270.555,46.265L271.101,43.196L271.647,40.356L272.193,37.757L272.739,35.41L273.284,33.326L273.83,31.515L274.376,29.986L274.922,28.748L275.468,27.809L276.014,27.175L276.56,26.854L277.106,26.848L277.652,27.164L278.198,27.802L278.744,28.765L279.29,30.053L279.836,31.666L280.382,33.6L280.928,35.853L281.474,38.42L282.02,41.295L282.566,44.472L283.112,47.942L283.658,51.695L284.204,55.722L284.75,60.012L285.296,64.552L285.842,69.329L286.388,74.329L286.934,79.54L287.48,84.944L288.026,90.528L288.572,96.276L289.118,102.172L289.664,108.2L290.21,114.344L290.755,120.588L291.301,126.916L291.847,133.313L292.393,139.763L292.939,146.252L293.485,152.765L294.031,159.288L294.577,165.808L295.123,172.312L295.669,178.787L296.215,185.223L296.761,191.608L297.307,197.933L297.853,204.188L298.399,210.363L298.945,216.453L299.491,222.448L300.037,228.342L300.583,234.131L301.129,239.808L301.675,245.369L302.221,250.81L302.767,256.128L303.313,261.32L303.859,266.384L304.405,271.318L304.951,276.121L305.497,280.793L306.043,285.332L306.589,289.74L307.135,294.016L307.68,298.161L308.226,302.177L308.772,306.064L309.318,309.825L309.864,313.46L310.41,316.973L310.956,320.364L311.502,323.638L312.048,326.795L312.594,329.838L313.14,332.771L313.686,335.595L314.232,338.314L314.778,340.93L315.324,343.446L315.87,345.866L316.416,348.191L316.962,350.425L317.508,352.57L318.054,354.63L318.6,356.607L319.146,358.503L319.692,360.323L320.238,362.067L320.784,363.74L321.33,365.343L321.876,366.879L322.422,368.35L322.968,369.759L323.514,371.109L324.06,372.401L324.605,373.637L325.151,374.821L325.697,375.953L326.243,377.036L326.789,378.072L327.335,379.063L327.881,380.011L328.427,380.917L328.973,381.783L329.519,382.611L330.065,383.402L330.611,384.158L331.157,384.881L331.703,385.571L332.249,386.23L332.795,386.86L333.341,387.462L333.887,388.036L334.433,388.585L334.979,389.109L335.525,389.61L336.071,390.087L336.617,390.543L337.163,390.979L337.709,391.394L338.255,391.791L338.801,392.169L339.347,392.531L339.893,392.876L340.439,393.205L340.985,393.519L341.53,393.818L342.076,394.104L342.622,394.377L343.168,394.637L343.714,394.886L344.26,395.123L344.806,395.349L345.352,395.564L345.898,395.77L346.444,395.966L346.99,396.153L347.536,396.332L348.082,396.502L348.628,396.665L349.174,396.819L349.72,396.967L350.266,397.108L350.812,397.243L351.358,397.371L351.904,397.493L352.45,397.61L352.996,397.721L353.542,397.827L354.088,397.928L354.634,398.024L355.18,398.116L355.726,398.204L356.272,398.287L356.818,398.367L357.364,398.443L357.91,398.516L358.455,398.585L359.001,398.651L359.547,398.714L360.093,398.773L360.639,398.831L361.185,398.885L361.731,398.937L362.277,398.987L362.823,399.034L363.369,399.079L363.915,399.122L364.461,399.163L365.007,399.202L365.553,399.239L366.099,399.274L366.645,399.308L367.191,399.34L367.737,399.371L368.283,399.401L368.829,399.428L369.375,399.455L369.921,399.481L370.467,399.505L371.013,399.528L371.559,399.55L372.105,399.571L372.651,399.591L373.197,399.61L373.743,399.628L374.289,399.645L374.835,399.662L375.381,399.678L375.926,399.693L376.472,399.707L377.018,399.721L377.564,399.734L378.11,399.746L378.656,399.758L379.202,399.769L379.748,399.78L380.294,399.79L380.84,399.8L381.386,399.809L381.932,399.818L382.478,399.827L383.024,399.835L383.57,399.843L384.116,399.85L384.662,399.857L385.208,399.864L385.754,399.87L386.3,399.876L386.846,399.882L387.392,399.887L387.938,399.893L388.484,399.898L389.03,399.902L389.576,399.907L390.122,399.911L390.668,399.915L391.214,399.919L391.76,399.923L392.306,399.927L392.851,399.93L393.397,399.933L393.943,399.937L394.489,399.939L395.035,399.942L395.581,399.945L396.127,399.948L396.673,399.95L397.219,399.952L397.765,399.955L398.311,399.957L398.857,399.959L399.403,399.961L399.949,399.962L400.495,399.964L401.041,399.966L401.587,399.967L402.133,399.969L402.679,399.97L403.225,399.972L403.771,399.973L404.317,399.974L404.863,399.976L405.409,399.977L405.955,399.978L406.501,399.979L407.047,399.98L407.593,399.981L408.139,399.982L408.685,399.983L409.231,399.983L409.776,399.984L410.322,399.985L410.868,399.986L411.414,399.986L411.96,399.987L412.506,399.987L413.052,399.988L413.598,399.989L414.144,399.989L414.69,399.99L415.236,399.99L415.782,399.991L416.328,399.991L416.874,399.991L417.42,399.992L417.966,399.992L418.512,399.993L419.058,399.993L419.604,399.993L420.15,399.994L420.696,399.994L421.242,399.994L421.788,399.994L422.334,399.995L422.88,399.995L423.426,399.995L423.972,399.995L424.518,399.996L425.064,399.996L425.61,399.996L426.156,399.996L426.701,399.996L427.247,399.997L427.793,399.997L428.339,399.997L428.885,399.997L429.431,399.997L429.977,399.997L430.523,399.997L431.069,399.998L431.615,399.998L432.161,399.998L432.707,399.998L433.253,399.998L433.799,399.998L434.345,399.998L434.891,399.998L435.437,399.998L435.983,399.998L436.529,399.998L437.075,399.999L437.621,399.999L438.167,399.999L438.713,399.999L439.259,399.999L439.805,399.999L440.351,399.999L440.897,399.999L441.443,399.999L441.989,399.999L442.535,399.999L443.081,399.999L443.626,399.999L444.172,399.999L444.718,399.999L445.264,399.999L445.81,399.999L446.356,399.999L446.902,399.999L447.448,399.999L447.994,399.999L448.54,399.999L449.086,399.999L449.632,400L450.178,400L450.724,400L451.27,400L451.816,400L452.362,400L452.908,400L453.454,400L454,400L454.546,400L455.092,400L455.638,400L456.184,400L456.73,400L457.276,400L457.822,400L458.368,400L458.914,400L459.46,400L460.006,400L460.552,400L461.097,400L461.643,400L462.189,400L462.735,400L463.281,400L463.827,400L464.373,400L464.919,400L465.465,400L466.011,400L466.557,400L467.103,400L467.649,400L468.195,400L468.741,400L469.287,400L469.833,400L470.379,400L470.925,400L471.471,400L472.017,400L472.563,400L473.109,400L473.655,400L474.201,400L474.747,400L475.293,400L475.839,400L476.385,400L476.931,400L477.477,400L478.022,400L478.568,400L479.114,400L479.66,400L480.206,400L480.752,400L481.298,400L481.844,400L482.39,400L482.936,400L483.482,400L484.028,400L484.574,400L485.12,400L485.666,400L486.212,400L486.758,400L487.304,400L487.85,400L488.396,400L488.942,400L489.488,400L490.034,400L490.58,400L491.126,400L491.672,400L492.218,400L492.764,400L493.31,400L493.856,400L494.402,400L494.947,400L495.493,400L496.039,400L496.585,400L497.131,400L497.677,400L498.223,400L498.769,400L499.315,400L499.861,400L500.407,400L500.953,400L501.499,400L502.045,400L502.591,400L503.137,400L503.683,400L504.229,400L504.775,400L505.321,400L505.867,400L506.413,400L506.959,400L507.505,400L508.051,400L508.597,400L509.143,400L509.689,400L510.235,400L510.781,400L511.327,400L511.872,400L512.418,400L512.964,400L513.51,400L514.056,400L514.602,400L515.148,400L515.694,400L516.24,400L516.786,400L517.332,400L517.878,400L518.424,400L518.97,400L519.516,400L520.062,400L520.608,400L521.154,400L521.7,400L522.246,400L522.792,400L523.338,400L523.884,400L524.43,400L524.976,400L525.522,400L526.068,400L526.614,400L527.16,400L527.706,400L528.252,400L528.797,400L529.343,400L529.889,400L530.435,400L530.981,400L531.527,400L532.073,400L532.619,400L533.165,400L533.711,400L534.257,400L534.803,400L535.349,400L535.895,400L536.441,400L536.987,400L537.533,400L538.079,400L538.625,400L539.171,400L539.717,400L540.263,400L540.809,400L541.355,400L541.901,400L542.447,400L542.993,400L543.539,400L544.085,400L544.631,400L545.177,400L545.722,400L546.268,400L546.814,400L547.36,400L547.906,400L548.452,400L548.998,400L549.544,400L550.09,400L550.636,400L551.182,400L551.728,400L552.274,400L552.82,400L553.366,400L553.912,400L554.458,400L555.004,400L555.55,400L556.096,400L556.642,400L557.188,400L557.734,400L558.28,400L558.826,400L559.372,400L559.918,400L560.464,400L561.01,400L561.556,400L562.102,400L562.648,400L563.193,400L563.739,400L564.285,400L564.831,400L565.377,400L565.923,400L566.469,400L567.015,400L567.561,400L568.107,400L568.653,400L569.199,400L569.745,400L570.291,400L570.837,400L571.383,400L571.929,400L572.475,400L573.021,400L573.567,400L574.113,400L574.659,400L575.205,400L575.751,400L576.297,400" stroke="blue" stroke-width="2" stroke-dasharray="1,0"/></g></g><path class="foreground" aria-hidden="true" d="" display="none"/></g></g><g class="mark-group role-legend" role="graphics-symbol" aria-roledescription="legend" aria-label="Symbol legend titled 'モデル' for stroke color with 2 values: 正規分布, 最適フィット (genlogistic)"><g transform="translate(0,-45)"><path class="background" aria-hidden="true" d="M0,0h200v27h-200Z" pointer-events="none"/><g><g class="mark-group role-legend-entry"><g transform="translate(0,16)"><path class="background" aria-hidden="true" d="M0,0h0v0h0Z" pointer-events="none"/><g><g class="mark-group role-scope" role="graphics-object" aria-roledescription="group mark container"><g transform="translate(0,0)"><path class="background" aria-hidden="true" d="M0,0h56v11h-56Z" pointer-events="none" opacity="1"/><g><g class="mark-symbol role-legend-symbol" pointer-events="none"><path transform="translate(6,6)" d="M-5,0L5,0" stroke="red" stroke-width="1.5" opacity="1"/></g><g class="mark-text role-legend-label" pointer-events="none"><text text-anchor="start" transform="translate(16,9)" font-family="sans-serif" font-size="10px" fill="#000" opacity="1">正規分布</text></g></g><path class="foreground" aria-hidden="true" d="" pointer-events="none" display="none"/></g><g transform="translate(67,0)"><path class="background" aria-hidden="true" d="M0,0h132.689453125v11h-132.689453125Z" pointer-events="none" opacity="1"/><g><g class="mark-symbol role-legend-symbol" pointer-events="none"><path transform="translate(6,6)" d="M-5,0L5,0" stroke="blue" stroke-width="1.5" opacity="1"/></g><g class="mark-text role-legend-label" pointer-events="none"><text text-anchor="start" transform="translate(16,9)" font-family="sans-serif" font-size="10px" fill="#000" opacity="1">最適フィット (genlogistic)</text></g></g><path class="foreground" aria-hidden="true" d="" pointer-events="none" display="none"/></g></g></g><path class="foreground" aria-hidden="true" d="" pointer-events="none" display="none"/></g></g><g class="mark-text role-legend-title" pointer-events="none"><text text-anchor="start" transform="translate(0,9)" font-family="sans-serif" font-size="11px" font-weight="bold" fill="#000" opacity="1">モデル</text></g></g><path class="foreground" aria-hidden="true" d="" pointer-events="none" display="none"/></g></g><g class="mark-group role-title"><g transform="translate(300,-62)"><path class="background" aria-hidden="true" d="M0,0h0v0h0Z" pointer-events="none"/><g><g class="mark-text role-title-text" role="graphics-symbol" aria-roledescription="title" aria-label="Title text 'S&amp;P500 月次 対数リターン (全期間)'" pointer-events="none"><text text-anchor="middle" transform="translate(0,10)" font-family="sans-serif" font-size="13px" font-weight="bold" fill="#000" opacity="1">S&amp;P500 月次 対数リターン (全期間)</text></g></g><path class="foreground" aria-hidden="true" d="" pointer-events="none" display="none"/></g></g></g><path class="foreground" aria-hidden="true" d="" display="none"/></g></g></g></svg>