<svg xmlns="http://www.w3.org/2000/svg" xmlns:xlink="http://www.w3.org/1999/xlink" version="1.1" class="marks" width="657" height="506" viewBox="0 0 657 506"><rect width="657" height="506" fill="white"/><g fill="none" stroke-miterlimit="10" transform="translate(50,69)"><g class="mark-group role-frame root" role="graphics-object" aria-roledescription="group mark container"><g transform="translate(0,0)"><path class="background" aria-hidden="true" d="M0.5,0.5h600v400h-600Z" stroke="#ddd"/><g><g class="mark-group role-axis" aria-hidden="true"><g transform="translate(0.5,400.5)"><path class="background" aria-hidden="true" d="M0,0h0v0h0Z" pointer-events="none"/><g><g class="mark-rule role-axis-grid" pointer-events="none"><line transform="translate(0,-400)" x2="0" y2="400" stroke="#ddd" stroke-width="1" opacity="1"/><line transform="translate(55,-400)" x2="0" y2="400" stroke="#ddd" stroke-width="1" opacity="1"/><line transform="translate(109,-400)" x2="0" y2="400" stroke="#ddd" stroke-width="1" opacity="1"/><line transform="translate(164,-400)" x2="0" y2="400" stroke="#ddd" stroke-width="1" opacity="1"/><line transform="translate(218,-400)" x2="0" y2="400" stroke="#ddd" stroke-width="1" opacity="1"/><line transform="translate(273,-400)" x2="0" y2="400" stroke="#ddd" stroke-width="1" opacity="1"/><line transform="translate(327,-400)" x2="0" y2="400" stroke="#ddd" stroke-width="1" opacity="1"/><line transform="translate(382,-400)" x2="0" y2="400" stroke="#ddd" stroke-width="1" opacity="1"/><line transform="translate(436,-400)" x2="0" y2="400" stroke="#ddd" stroke-width="1" opacity="1"/><line transform="translate(491,-400)" x2="0" y2="400" stroke="#ddd" stroke-width="1" opacity="1"/><line transform="translate(545,-400)" x2="0" y2="400" stroke="#ddd" stroke-width="1" opacity="1"/><line transform="translate(600,-400)" x2="0" y2="400" stroke="#ddd" stroke-width="1" opacity="1"/></g></g><path class="foreground" aria-hidden="true" d="" pointer-events="none" display="none"/></g></g><g class="mark-group role-axis" aria-hidden="true"><g transform="translate(0.5,0.5)"><path class="background" aria-hidden="true" d="M0,0h0v0h0Z" pointer-events="none"/><g><g class="mark-rule role-axis-grid" pointer-events="none"><line transform="translate(0,400)" x2="600" y2="0" stroke="#ddd" stroke-width="1" opacity="1"/><line transform="translate(0,364)" x2="600" y2="0" stroke="#ddd" stroke-width="1" opacity="1"/><line transform="translate(0,327)" x2="600" y2="0" stroke="#ddd" stroke-width="1" opacity="1"/><line transform="translate(0,291)" x2="600" y2="0" stroke="#ddd" stroke-width="1" opacity="1"/><line transform="translate(0,255)" x2="600" y2="0" stroke="#ddd" stroke-width="1" opacity="1"/><line transform="translate(0,218)" x2="600" y2="0" stroke="#ddd" stroke-width="1" opacity="1"/><line transform="translate(0,182)" x2="600" y2="0" stroke="#ddd" stroke-width="1" opacity="1"/><line transform="translate(0,145)" x2="600" y2="0" stroke="#ddd" stroke-width="1" opacity="1"/><line transform="translate(0,109)" x2="600" y2="0" stroke="#ddd" stroke-width="1" opacity="1"/><line transform="translate(0,73)" x2="600" y2="0" stroke="#ddd" stroke-width="1" opacity="1"/><line transform="translate(0,36)" x2="600" y2="0" stroke="#ddd" stroke-width="1" opacity="1"/><line transform="translate(0,0)" x2="600" y2="0" stroke="#ddd" stroke-width="1" opacity="1"/></g></g><path class="foreground" aria-hidden="true" d="" pointer-events="none" display="none"/></g></g><g class="mark-group role-axis" role="graphics-symbol" aria-roledescription="axis" aria-label="X-axis titled '年齢' for a linear scale with values from 40 to 95"><g transform="translate(0.5,400.5)"><path class="background" aria-hidden="true" d="M0,0h0v0h0Z" pointer-events="none"/><g><g class="mark-rule role-axis-tick" pointer-events="none"><line transform="translate(0,0)" x2="0" y2="5" stroke="#888" stroke-width="1" opacity="1"/><line transform="translate(55,0)" x2="0" y2="5" stroke="#888" stroke-width="1" opacity="1"/><line transform="translate(109,0)" x2="0" y2="5" stroke="#888" stroke-width="1" opacity="1"/><line transform="translate(164,0)" x2="0" y2="5" stroke="#888" stroke-width="1" opacity="1"/><line transform="translate(218,0)" x2="0" y2="5" stroke="#888" stroke-width="1" opacity="1"/><line transform="translate(273,0)" x2="0" y2="5" stroke="#888" stroke-width="1" opacity="1"/><line transform="translate(327,0)" x2="0" y2="5" stroke="#888" stroke-width="1" opacity="1"/><line transform="translate(382,0)" x2="0" y2="5" stroke="#888" stroke-width="1" opacity="1"/><line transform="translate(436,0)" x2="0" y2="5" stroke="#888" stroke-width="1" opacity="1"/><line transform="translate(491,0)" x2="0" y2="5" stroke="#888" stroke-width="1" opacity="1"/><line transform="translate(545,0)" x2="0" y2="5" stroke="#888" stroke-width="1" opacity="1"/><line transform="translate(600,0)" x2="0" y2="5" stroke="#888" stroke-width="1" opacity="1"/></g><g class="mark-text role-axis-label" pointer-events="none"><text text-anchor="start" transform="translate(0,15)" font-family="sans-serif" font-size="10px" fill="#000" opacity="1">40</text><text text-anchor="middle" transform="translate(54.54545454545455,15)" font-family="sans-serif" font-size="10px" fill="#000" opacity="1">45</text><text text-anchor="middle" transform="translate(109.0909090909091,15)" font-family="sans-serif" font-size="10px" fill="#000" opacity="1">50</text><text text-anchor="middle" transform="translate(163.63636363636363,15)" font-family="sans-serif" font-size="10px" fill="#000" opacity="1">55</text><text text-anchor="middle" transform="translate(218.1818181818182,15)" font-family="sans-serif" font-size="10px" fill="#000" opacity="1">60</text><text text-anchor="middle" transform="translate(272.7272727272727,15)" font-family="sans-serif" font-size="10px" fill="#000" opacity="1">65</text><text text-anchor="middle" transform="translate(327.27272727272725,15)" font-family="sans-serif" font-size="10px" fill="#000" opacity="1">70</text><text text-anchor="middle" transform="translate(381.8181818181818,15)" font-family="sans-serif" font-size="10px" fill="#000" opacity="1">75</text><text text-anchor="middle" transform="translate(436.3636363636364,15)" font-family="sans-serif" font-size="10px" fill="#000" opacity="1">80</text><text text-anchor="middle" transform="translate(490.90909090909093,15)" font-family="sans-serif" font-size="10px" fill="#000" opacity="1">85</text><text text-anchor="middle" transform="translate(545.4545454545454,15)" font-family="sans-serif" font-size="10px" fill="#000" opacity="1">90</text><text text-anchor="end" transform="translate(600,15)" font-family="sans-serif" font-size="10px" fill="#000" opacity="1">95</text></g><g class="mark-rule role-axis-domain" pointer-events="none"><line transform="translate(0,0)" x2="600" y2="0" stroke="#888" stroke-width="1" opacity="1"/></g><g class="mark-text role-axis-title" pointer-events="none"><text text-anchor="middle" transform="translate(300,30)" font-family="sans-serif" font-size="11px" font-weight="bold" fill="#000" opacity="1">年齢</text></g></g><path class="foreground" aria-hidden="true" d="" pointer-events="none" display="none"/></g></g><g class="mark-group role-axis" role="graphics-symbol" aria-roledescription="axis" aria-label="Y-axis titled '年間取り崩し額 (万円)' for a linear scale with values from −200 to 900"><g transform="translate(0.5,0.5)"><path class="background" aria-hidden="true" d="M0,0h0v0h0Z" pointer-events="none"/><g><g class="mark-rule role-axis-tick" pointer-events="none"><line transform="translate(0,400)" x2="-5" y2="0" stroke="#888" stroke-width="1" opacity="1"/><line transform="translate(0,364)" x2="-5" y2="0" stroke="#888" stroke-width="1" opacity="1"/><line transform="translate(0,327)" x2="-5" y2="0" stroke="#888" stroke-width="1" opacity="1"/><line transform="translate(0,291)" x2="-5" y2="0" stroke="#888" stroke-width="1" opacity="1"/><line transform="translate(0,255)" x2="-5" y2="0" stroke="#888" stroke-width="1" opacity="1"/><line transform="translate(0,218)" x2="-5" y2="0" stroke="#888" stroke-width="1" opacity="1"/><line transform="translate(0,182)" x2="-5" y2="0" stroke="#888" stroke-width="1" opacity="1"/><line transform="translate(0,145)" x2="-5" y2="0" stroke="#888" stroke-width="1" opacity="1"/><line transform="translate(0,109)" x2="-5" y2="0" stroke="#888" stroke-width="1" opacity="1"/><line transform="translate(0,73)" x2="-5" y2="0" stroke="#888" stroke-width="1" opacity="1"/><line transform="translate(0,36)" x2="-5" y2="0" stroke="#888" stroke-width="1" opacity="1"/><line transform="translate(0,0)" x2="-5" y2="0" stroke="#888" stroke-width="1" opacity="1"/></g><g class="mark-text role-axis-label" pointer-events="none"><text text-anchor="end" transform="translate(-7,403)" font-family="sans-serif" font-size="10px" fill="#000" opacity="1">−200</text><text text-anchor="end" transform="translate(-7,366.6363636363636)" font-family="sans-serif" font-size="10px" fill="#000" opacity="1">−100</text><text text-anchor="end" transform="translate(-7,330.27272727272725)" font-family="sans-serif" font-size="10px" fill="#000" opacity="1">0</text><text text-anchor="end" transform="translate(-7,293.90909090909093)" font-family="sans-serif" font-size="10px" fill="#000" opacity="1">100</text><text text-anchor="end" transform="translate(-7,257.5454545454545)" font-family="sans-serif" font-size="10px" fill="#000" opacity="1">200</text><text text-anchor="end" transform="translate(-7,221.18181818181816)" font-family="sans-serif" font-size="10px" fill="#000" opacity="1">300</text><text text-anchor="end" transform="translate(-7,184.81818181818184)" font-family="sans-serif" font-size="10px" fill="#000" opacity="1">400</text><text text-anchor="end" transform="translate(-7,148.45454545454547)" font-family="sans-serif" font-size="10px" fill="#000" opacity="1">500</text><text text-anchor="end" transform="translate(-7,112.09090909090908)" font-family="sans-serif" font-size="10px" fill="#000" opacity="1">600</text><text text-anchor="end" transform="translate(-7,75.7272727272727)" font-family="sans-serif" font-size="10px" fill="#000" opacity="1">700</text><text text-anchor="end" transform="translate(-7,39.363636363636374)" font-family="sans-serif" font-size="10px" fill="#000" opacity="1">800</text><text text-anchor="end" transform="translate(-7,3)" font-family="sans-serif" font-size="10px" fill="#000" opacity="1">900</text></g><g class="mark-rule role-axis-domain" pointer-events="none"><line transform="translate(0,400)" x2="0" y2="-400" stroke="#888" stroke-width="1" opacity="1"/></g><g class="mark-text role-axis-title" pointer-events="none"><text text-anchor="middle" transform="translate(-33.5244140625,200) rotate(-90) translate(0,-2)" font-family="sans-serif" font-size="11px" font-weight="bold" fill="#000" opacity="1">年間取り崩し額 (万円)</text></g></g><path class="foreground" aria-hidden="true" d="" pointer-events="none" display="none"/></g></g><g class="mark-group role-scope layer_0_pathgroup" role="graphics-object" aria-roledescription="group mark container"><g transform="translate(0,0)"><path class="background" aria-hidden="true" d="M0,0h600v400h-600Z"/><g><g class="mark-area role-mark layer_0_marks" role="graphics-object" aria-roledescription="area mark container"><path aria-label="年齢: 41; 年間取り崩し額 (万円): 484.876805795; spend75p: 491.672456914; ダイナミックスペンディング: OFF" role="graphics-symbol" aria-roledescription="area mark" d="M10.909,150.954L21.818,148.273L32.727,145.848L43.636,143.325L54.545,139.679L65.455,136.394L76.364,132.861L87.273,130.553L98.182,126.71L109.091,124.427L120,123.18L130.909,120.445L141.818,121.87L152.727,128.587L163.636,135.772L174.545,141.099L185.455,154.354L196.364,166.683L207.273,183.288L218.182,197.522L229.091,260.312L240,274.601L250.909,327.273L261.818,327.273L272.727,327.273L283.636,327.273L294.545,327.273L305.455,327.273L316.364,327.273L327.273,327.273L338.182,327.273L349.091,327.273L360,327.273L370.909,327.273L381.818,327.273L392.727,327.273L403.636,327.273L414.545,327.273L425.455,327.273L436.364,327.273L447.273,327.273L458.182,327.273L469.091,327.273L480,327.273L490.909,327.273L501.818,327.273L512.727,327.273L523.636,327.273L534.545,327.273L545.455,327.273L556.364,327.273L567.273,327.273L578.182,327.273L589.091,327.273L600,327.273L600,250.673L589.091,248.368L578.182,244.492L567.273,237.841L556.364,235.48L545.455,230.558L534.545,226.395L523.636,221.512L512.727,220.091L501.818,219.153L490.909,217.957L480,213.247L469.091,213.635L458.182,211.646L447.273,211.333L436.364,210.927L425.455,208.699L414.545,204.933L403.636,204.804L392.727,202.67L381.818,197.741L370.909,191.947L360,186.701L349.091,176.582L338.182,168.131L327.273,163.395L316.364,157.378L305.455,150.173L294.545,145.733L283.636,139.435L272.727,130.828L261.818,125.812L250.909,118.828L240,114.672L229.091,109.239L218.182,27.918L207.273,22.104L196.364,17.377L185.455,13.88L174.545,10.619L163.636,12.848L152.727,16.126L141.818,20.478L130.909,30.84L120,43.826L109.091,52.158L98.182,65.422L87.273,76.184L76.364,86.803L65.455,99.399L54.545,110.259L43.636,121.547L32.727,131.341L21.818,140.632L10.909,148.483Z" fill="blue" opacity="0.3"/></g></g><path class="foreground" aria-hidden="true" d="" display="none"/></g><g transform="translate(0,0)"><path class="background" aria-hidden="true" d="M0,0h600v400h-600Z"/><g><g class="mark-area role-mark layer_0_marks" role="graphics-object" aria-roledescription="area mark container"><path aria-label="年齢: 41; 年間取り崩し額 (万円): 484.707441383; spend75p: 484.993455996; ダイナミックスペンディング: ON" role="graphics-symbol" aria-roledescription="area mark" d="M10.909,151.015L21.818,151.062L32.727,151.104L43.636,151.119L54.545,151.08L65.455,151.048L76.364,150.961L87.273,150.909L98.182,150.776L109.091,150.739L120,150.652L130.909,150.472L141.818,150.327L152.727,150.271L163.636,150.149L174.545,150.158L185.455,150.071L196.364,150.101L207.273,150.093L218.182,150.007L229.091,232.672L240,236.343L250.909,240.243L261.818,245.354L272.727,250.959L283.636,254.895L294.545,260.856L305.455,266.485L316.364,271.769L327.273,277.396L338.182,283.568L349.091,288.646L360,296.799L370.909,302.772L381.818,309.21L392.727,317.411L403.636,327.273L414.545,327.273L425.455,327.273L436.364,327.273L447.273,327.273L458.182,327.273L469.091,327.273L480,327.273L490.909,327.273L501.818,327.273L512.727,327.273L523.636,327.423L534.545,331.866L545.455,337.497L556.364,342.784L567.273,351.32L578.182,358.135L589.091,364.093L600,370.561L600,207.287L589.091,210.35L578.182,212.454L567.273,210.834L556.364,211.61L545.455,210.973L534.545,210.643L523.636,210.248L512.727,211.276L501.818,212.493L490.909,211.294L480,211.421L469.091,212.942L458.182,212.17L447.273,211.861L436.364,212.026L425.455,211.014L414.545,212.481L403.636,211.777L392.727,211.868L381.818,211.082L370.909,210.853L360,211.215L349.091,210.221L338.182,208.85L327.273,208.508L316.364,208.466L305.455,207.906L294.545,207.426L283.636,205.793L272.727,204.813L261.818,203.561L250.909,202.195L240,201.016L229.091,199.668L218.182,129.208L207.273,131.031L196.364,132.457L185.455,134.216L174.545,135.49L163.636,137.354L152.727,138.595L141.818,139.81L130.909,141.224L120,142.803L109.091,143.954L98.182,145.375L87.273,146.965L76.364,148.119L65.455,148.899L54.545,149.538L43.636,150.088L32.727,150.455L21.818,150.732L10.909,150.911Z" fill="red" opacity="0.3"/></g></g><path class="foreground" aria-hidden="true" d="" display="none"/></g></g><g class="mark-group role-scope layer_1_pathgroup" role="graphics-object" aria-roledescription="group mark container"><g transform="translate(0,0)"><path class="background" aria-hidden="true" d="M0,0h600v400h-600Z"/><g><g class="mark-line role-mark layer_1_marks" role="graphics-object" aria-roledescription="line mark container"><path aria-label="年齢: 41; spend50p: 488.170958815; group_label: OFF" role="graphics-symbol" aria-roledescription="line mark" d="M10.909,149.756L21.818,144.127L32.727,138.589L43.636,132.652L54.545,126.323L65.455,119.801L76.364,112.724L87.273,106.236L98.182,98.621L109.091,91.042L120,85.749L130.909,80.707L141.818,78.653L152.727,78.987L163.636,80.534L174.545,81.475L185.455,87.008L196.364,95.005L207.273,102.856L218.182,111.013L229.091,180.147L240,186.882L250.909,193.194L261.818,200.633L272.727,206.659L283.636,214.944L294.545,221.233L305.455,227.572L316.364,237.364L327.273,245.129L338.182,250.983L349.091,258.627L360,265.392L370.909,270.219L381.818,275.035L392.727,278.549L403.636,283.461L414.545,285.81L425.455,288.592L436.364,291.874L447.273,294.48L458.182,299.85L469.091,305.047L480,308.132L490.909,310.536L501.818,313.341L512.727,317.162L523.636,319.421L534.545,322.743L545.455,325.767L556.364,327.273L567.273,327.273L578.182,327.273L589.091,327.273L600,327.273" stroke="blue" stroke-width="2"/></g></g><path class="foreground" aria-hidden="true" d="" display="none"/></g><g transform="translate(0,0)"><path class="background" aria-hidden="true" d="M0,0h600v400h-600Z"/><g><g class="mark-line role-mark layer_1_marks" role="graphics-object" aria-roledescription="line mark container"><path aria-label="年齢: 41; spend50p: 484.846085331; group_label: ON" role="graphics-symbol" aria-roledescription="line mark" d="M10.909,150.965L21.818,150.888L32.727,150.793L43.636,150.612L54.545,150.41L65.455,150.132L76.364,149.902L87.273,149.612L98.182,149.22L109.091,148.897L120,148.585L130.909,148.285L141.818,147.801L152.727,147.411L163.636,147.003L174.545,146.47L185.455,145.885L196.364,145.08L207.273,144.573L218.182,144.071L229.091,213.695L240,215.73L250.909,217.571L261.818,219.655L272.727,221.59L283.636,223.212L294.545,225.893L305.455,227.98L316.364,230.704L327.273,232.628L338.182,234.386L349.091,236.798L360,238.753L370.909,241.025L381.818,244.609L392.727,247.374L403.636,250.494L414.545,252.077L425.455,254.663L436.364,259.572L447.273,263.886L458.182,267.476L469.091,269.853L480,272.804L490.909,276.909L501.818,282.296L512.727,286.147L523.636,290.01L534.545,293.104L545.455,298.235L556.364,301.326L567.273,304.028L578.182,309.165L589.091,314.5L600,318.137" stroke="red" stroke-width="2"/></g></g><path class="foreground" aria-hidden="true" d="" display="none"/></g></g><g class="mark-group role-legend" role="graphics-symbol" aria-roledescription="legend" aria-label="Symbol legend titled 'ダイナミックスペンディング' for fill color and stroke color with 2 values: ON, OFF"><g transform="translate(0,-47)"><path class="background" aria-hidden="true" d="M0,0h143v29h-143Z" pointer-events="none"/><g><g class="mark-group role-legend-entry"><g transform="translate(0,16)"><path class="background" aria-hidden="true" d="M0,0h0v0h0Z" pointer-events="none"/><g><g class="mark-group role-scope" role="graphics-object" aria-roledescription="group mark container"><g transform="translate(0,0.25)"><path class="background" aria-hidden="true" d="M0,0h31v12.5h-31Z" pointer-events="none" opacity="1"/><g><g class="mark-symbol role-legend-symbol" pointer-events="none"><path transform="translate(6,6)" d="M5,0A5,5,0,1,1,-5,0A5,5,0,1,1,5,0" fill="red" stroke="red" stroke-width="1.5" opacity="0.3"/></g><g class="mark-text role-legend-label" pointer-events="none"><text text-anchor="start" transform="translate(16,9)" font-family="sans-serif" font-size="10px" fill="#000" opacity="1">ON</text></g></g><path class="foreground" aria-hidden="true" d="" pointer-events="none" display="none"/></g><g transform="translate(42,0.25)"><path class="background" aria-hidden="true" d="M0,0h35.9951171875v12.5h-35.9951171875Z" pointer-events="none" opacity="1"/><g><g class="mark-symbol role-legend-symbol" pointer-events="none"><path transform="translate(6,6)" d="M5,0A5,5,0,1,1,-5,0A5,5,0,1,1,5,0" fill="blue" stroke="blue" stroke-width="1.5" opacity="0.3"/></g><g class="mark-text role-legend-label" pointer-events="none"><text text-anchor="start" transform="translate(16,9)" font-family="sans-serif" font-size="10px" fill="#000" opacity="1">OFF</text></g></g><path class="foreground" aria-hidden="true" d="" pointer-events="none" display="none"/></g></g></g><path class="foreground" aria-hidden="true" d="" pointer-events="none" display="none"/></g></g><g class="mark-text role-legend-title" pointer-events="none"><text text-anchor="start" transform="translate(0,9)" font-family="sans-serif" font-size="11px" font-weight="bold" fill="#000" opacity="1">ダイナミックスペンディング</text></g></g><path class="foreground" aria-hidden="true" d="" pointer-events="none" display="none"/></g></g><g class="mark-group role-title"><g transform="translate(300,-64)"><path class="background" aria-hidden="true" d="M0,0h0v0h0Z" pointer-events="none"/><g><g class="mark-text role-title-text" role="graphics-symbol" aria-roledescription="title" aria-label="Title text '年間支出額推移: 単身世帯, 年金60歳, 初期485万円/年, 初期支出率4%'" pointer-events="none"><text text-anchor="middle" transform="translate(0,10)" font-family="sans-serif" font-size="13px" font-weight="bold" fill="#000" opacity="1">年間支出額推移: 単身世帯, 年金60歳, 初期485万円/年, 初期支出率4%</text></g></g><path class="foreground" aria-hidden="true" d="" pointer-events="none" display="none"/></g></g></g><path class="foreground" aria-hidden="true" d="" display="none"/></g></g></g></svg>