<svg xmlns="http://www.w3.org/2000/svg" xmlns:xlink="http://www.w3.org/1999/xlink" version="1.1" class="marks" width="651" height="506" viewBox="0 0 651 506"><rect width="651" height="506" fill="white"/><g fill="none" stroke-miterlimit="10" transform="translate(44,69)"><g class="mark-group role-frame root" role="graphics-object" aria-roledescription="group mark container"><g transform="translate(0,0)"><path class="background" aria-hidden="true" d="M0.5,0.5h600v400h-600Z" stroke="#ddd"/><g><g class="mark-group role-axis" aria-hidden="true"><g transform="translate(0.5,400.5)"><path class="background" aria-hidden="true" d="M0,0h0v0h0Z" pointer-events="none"/><g><g class="mark-rule role-axis-grid" pointer-events="none"><line transform="translate(0,-400)" x2="0" y2="400" stroke="#ddd" stroke-width="1" opacity="1"/><line transform="translate(55,-400)" x2="0" y2="400" stroke="#ddd" stroke-width="1" opacity="1"/><line transform="translate(109,-400)" x2="0" y2="400" stroke="#ddd" stroke-width="1" opacity="1"/><line transform="translate(164,-400)" x2="0" y2="400" stroke="#ddd" stroke-width="1" opacity="1"/><line transform="translate(218,-400)" x2="0" y2="400" stroke="#ddd" stroke-width="1" opacity="1"/><line transform="translate(273,-400)" x2="0" y2="400" stroke="#ddd" stroke-width="1" opacity="1"/><line transform="translate(327,-400)" x2="0" y2="400" stroke="#ddd" stroke-width="1" opacity="1"/><line transform="translate(382,-400)" x2="0" y2="400" stroke="#ddd" stroke-width="1" opacity="1"/><line transform="translate(436,-400)" x2="0" y2="400" stroke="#ddd" stroke-width="1" opacity="1"/><line transform="translate(491,-400)" x2="0" y2="400" stroke="#ddd" stroke-width="1" opacity="1"/><line transform="translate(545,-400)" x2="0" y2="400" stroke="#ddd" stroke-width="1" opacity="1"/><line transform="translate(600,-400)" x2="0" y2="400" stroke="#ddd" stroke-width="1" opacity="1"/></g></g><path class="foreground" aria-hidden="true" d="" pointer-events="none" display="none"/></g></g><g class="mark-group role-axis" aria-hidden="true"><g transform="translate(0.5,0.5)"><path class="background" aria-hidden="true" d="M0,0h0v0h0Z" pointer-events="none"/><g><g class="mark-rule role-axis-grid" pointer-events="none"><line transform="translate(0,400)" x2="600" y2="0" stroke="#ddd" stroke-width="1" opacity="1"/><line transform="translate(0,356)" x2="600" y2="0" stroke="#ddd" stroke-width="1" opacity="1"/><line transform="translate(0,311)" x2="600" y2="0" stroke="#ddd" stroke-width="1" opacity="1"/><line transform="translate(0,267)" x2="600" y2="0" stroke="#ddd" stroke-width="1" opacity="1"/><line transform="translate(0,222)" x2="600" y2="0" stroke="#ddd" stroke-width="1" opacity="1"/><line transform="translate(0,178)" x2="600" y2="0" stroke="#ddd" stroke-width="1" opacity="1"/><line transform="translate(0,133)" x2="600" y2="0" stroke="#ddd" stroke-width="1" opacity="1"/><line transform="translate(0,89)" x2="600" y2="0" stroke="#ddd" stroke-width="1" opacity="1"/><line transform="translate(0,44)" x2="600" y2="0" stroke="#ddd" stroke-width="1" opacity="1"/><line transform="translate(0,0)" x2="600" y2="0" stroke="#ddd" stroke-width="1" opacity="1"/></g></g><path class="foreground" aria-hidden="true" d="" pointer-events="none" display="none"/></g></g><g class="mark-group role-axis" role="graphics-symbol" aria-roledescription="axis" aria-label="X-axis titled '年齢' for a linear scale with values from 40 to 95"><g transform="translate(0.5,400.5)"><path class="background" aria-hidden="true" d="M0,0h0v0h0Z" pointer-events="none"/><g><g class="mark-rule role-axis-tick" pointer-events="none"><line transform="translate(0,0)" x2="0" y2="5" stroke="#888" stroke-width="1" opacity="1"/><line transform="translate(55,0)" x2="0" y2="5" stroke="#888" stroke-width="1" opacity="1"/><line transform="translate(109,0)" x2="0" y2="5" stroke="#888" stroke-width="1" opacity="1"/><line transform="translate(164,0)" x2="0" y2="5" stroke="#888" stroke-width="1" opacity="1"/><line transform="translate(218,0)" x2="0" y2="5" stroke="#888" stroke-width="1" opacity="1"/><line transform="translate(273,0)" x2="0" y2="5" stroke="#888" stroke-width="1" opacity="1"/><line transform="translate(327,0)" x2="0" y2="5" stroke="#888" stroke-width="1" opacity="1"/><line transform="translate(382,0)" x2="0" y2="5" stroke="#888" stroke-width="1" opacity="1"/><line transform="translate(436,0)" x2="0" y2="5" stroke="#888" stroke-width="1" opacity="1"/><line transform="translate(491,0)" x2="0" y2="5" stroke="#888" stroke-width="1" opacity="1"/><line transform="translate(545,0)" x2="0" y2="5" stroke="#888" stroke-width="1" opacity="1"/><line transform="translate(600,0)" x2="0" y2="5" stroke="#888" stroke-width="1" opacity="1"/></g><g class="mark-text role-axis-label" pointer-events="none"><text text-anchor="start" transform="translate(0,15)" font-family="sans-serif" font-size="10px" fill="#000" opacity="1">40</text><text text-anchor="middle" transform="translate(54.54545454545455,15)" font-family="sans-serif" font-size="10px" fill="#000" opacity="1">45</text><text text-anchor="middle" transform="translate(109.0909090909091,15)" font-family="sans-serif" font-size="10px" fill="#000" opacity="1">50</text><text text-anchor="middle" transform="translate(163.63636363636363,15)" font-family="sans-serif" font-size="10px" fill="#000" opacity="1">55</text><text text-anchor="middle" transform="translate(218.1818181818182,15)" font-family="sans-serif" font-size="10px" fill="#000" opacity="1">60</text><text text-anchor="middle" transform="translate(272.7272727272727,15)" font-family="sans-serif" font-size="10px" fill="#000" opacity="1">65</text><text text-anchor="middle" transform="translate(327.27272727272725,15)" font-family="sans-serif" font-size="10px" fill="#000" opacity="1">70</text><text text-anchor="middle" transform="translate(381.8181818181818,15)" font-family="sans-serif" font-size="10px" fill="#000" opacity="1">75</text><text text-anchor="middle" transform="translate(436.3636363636364,15)" font-family="sans-serif" font-size="10px" fill="#000" opacity="1">80</text><text text-anchor="middle" transform="translate(490.90909090909093,15)" font-family="sans-serif" font-size="10px" fill="#000" opacity="1">85</text><text text-anchor="middle" transform="translate(545.4545454545454,15)" font-family="sans-serif" font-size="10px" fill="#000" opacity="1">90</text><text text-anchor="end" transform="translate(600,15)" font-family="sans-serif" font-size="10px" fill="#000" opacity="1">95</text></g><g class="mark-rule role-axis-domain" pointer-events="none"><line transform="translate(0,0)" x2="600" y2="0" stroke="#888" stroke-width="1" opacity="1"/></g><g class="mark-text role-axis-title" pointer-events="none"><text text-anchor="middle" transform="translate(300,30)" font-family="sans-serif" font-size="11px" font-weight="bold" fill="#000" opacity="1">年齢</text></g></g><path class="foreground" aria-hidden="true" d="" pointer-events="none" display="none"/></g></g><g class="mark-group role-axis" role="graphics-symbol" aria-roledescription="axis" aria-label="Y-axis titled '年間取り崩し額 (万円)' for a linear scale with values from 0 to 900"><g transform="translate(0.5,0.5)"><path class="background" aria-hidden="true" d="M0,0h0v0h0Z" pointer-events="none"/><g><g class="mark-rule role-axis-tick" pointer-events="none"><line transform="translate(0,400)" x2="-5" y2="0" stroke="#888" stroke-width="1" opacity="1"/><line transform="translate(0,356)" x2="-5" y2="0" stroke="#888" stroke-width="1" opacity="1"/><line transform="translate(0,311)" x2="-5" y2="0" stroke="#888" stroke-width="1" opacity="1"/><line transform="translate(0,267)" x2="-5" y2="0" stroke="#888" stroke-width="1" opacity="1"/><line transform="translate(0,222)" x2="-5" y2="0" stroke="#888" stroke-width="1" opacity="1"/><line transform="translate(0,178)" x2="-5" y2="0" stroke="#888" stroke-width="1" opacity="1"/><line transform="translate(0,133)" x2="-5" y2="0" stroke="#888" stroke-width="1" opacity="1"/><line transform="translate(0,89)" x2="-5" y2="0" stroke="#888" stroke-width="1" opacity="1"/><line transform="translate(0,44)" x2="-5" y2="0" stroke="#888" stroke-width="1" opacity="1"/><line transform="translate(0,0)" x2="-5" y2="0" stroke="#888" stroke-width="1" opacity="1"/></g><g class="mark-text role-axis-label" pointer-events="none"><text text-anchor="end" transform="translate(-7,403)" font-family="sans-serif" font-size="10px" fill="#000" opacity="1">0</text><text text-anchor="end" transform="translate(-7,358.55555555555554)" font-family="sans-serif" font-size="10px" fill="#000" opacity="1">100</text><text text-anchor="end" transform="translate(-7,314.11111111111114)" font-family="sans-serif" font-size="10px" fill="#000" opacity="1">200</text><text text-anchor="end" transform="translate(-7,269.6666666666667)" font-family="sans-serif" font-size="10px" fill="#000" opacity="1">300</text><text text-anchor="end" transform="translate(-7,225.22222222222223)" font-family="sans-serif" font-size="10px" fill="#000" opacity="1">400</text><text text-anchor="end" transform="translate(-7,180.77777777777777)" font-family="sans-serif" font-size="10px" fill="#000" opacity="1">500</text><text text-anchor="end" transform="translate(-7,136.33333333333334)" font-family="sans-serif" font-size="10px" fill="#000" opacity="1">600</text><text text-anchor="end" transform="translate(-7,91.88888888888889)" font-family="sans-serif" font-size="10px" fill="#000" opacity="1">700</text><text text-anchor="end" transform="translate(-7,47.444444444444464)" font-family="sans-serif" font-size="10px" fill="#000" opacity="1">800</text><text text-anchor="end" transform="translate(-7,3)" font-family="sans-serif" font-size="10px" fill="#000" opacity="1">900</text></g><g class="mark-rule role-axis-domain" pointer-events="none"><line transform="translate(0,400)" x2="0" y2="-400" stroke="#888" stroke-width="1" opacity="1"/></g><g class="mark-text role-axis-title" pointer-events="none"><text text-anchor="middle" transform="translate(-27.6845703125,200) rotate(-90) translate(0,-2)" font-family="sans-serif" font-size="11px" font-weight="bold" fill="#000" opacity="1">年間取り崩し額 (万円)</text></g></g><path class="foreground" aria-hidden="true" d="" pointer-events="none" display="none"/></g></g><g class="mark-group role-scope layer_0_pathgroup" role="graphics-object" aria-roledescription="group mark container"><g transform="translate(0,0)"><path class="background" aria-hidden="true" d="M0,0h600v400h-600Z"/><g><g class="mark-area role-mark layer_0_marks" role="graphics-object" aria-roledescription="area mark container"><path aria-label="年齢: 41; 年間取り崩し額 (万円): 485.977207046; spend75p: 492.788280522; ダイナミックスペンディング: OFF" role="graphics-symbol" aria-roledescription="area mark" d="M10.909,184.01L21.818,180.737L32.727,177.777L43.636,174.696L54.545,170.241L65.455,166.227L76.364,161.908L87.273,158.933L98.182,154.392L109.091,151.948L120,151.518L130.909,150.679L141.818,151.204L152.727,156.708L163.636,166.845L174.545,178.037L185.455,189.198L196.364,210.346L207.273,227.169L218.182,251.164L229.091,327.957L240,400L250.909,400L261.818,400L272.727,400L283.636,400L294.545,400L305.455,400L316.364,400L327.273,400L338.182,400L349.091,400L360,400L370.909,400L381.818,400L392.727,400L403.636,400L414.545,400L425.455,400L436.364,400L447.273,400L458.182,400L469.091,400L480,400L490.909,400L501.818,400L512.727,400L523.636,400L534.545,400L545.455,400L556.364,400L567.273,400L578.182,400L589.091,400L600,400L600,314.169L589.091,304.014L578.182,298.025L567.273,291.111L556.364,285.758L545.455,283.077L534.545,278.573L523.636,277.04L512.727,272.767L501.818,270.169L490.909,269.45L480,269.741L469.091,265.433L458.182,265.871L447.273,264.729L436.364,263.7L425.455,260.196L414.545,256.005L403.636,252.041L392.727,249.938L381.818,244.558L370.909,235.193L360,226.805L349.091,218.123L338.182,208.441L327.273,201.269L316.364,194.358L305.455,185.566L294.545,177.444L283.636,167.511L272.727,159.161L261.818,153.526L250.909,146.483L240,142.927L229.091,136.397L218.182,34.666L207.273,27.1L196.364,23.908L185.455,16.855L174.545,14.78L163.636,15.817L152.727,17.918L141.818,24.327L130.909,38.218L120,53.504L109.091,63.567L98.182,79.339L87.273,92.285L76.364,105.502L65.455,120.917L54.545,134.207L43.636,148.022L32.727,160.007L21.818,171.377L10.909,180.983Z" fill="blue" opacity="0.3"/></g></g><path class="foreground" aria-hidden="true" d="" display="none"/></g><g transform="translate(0,0)"><path class="background" aria-hidden="true" d="M0,0h600v400h-600Z"/><g><g class="mark-area role-mark layer_0_marks" role="graphics-object" aria-roledescription="area mark container"><path aria-label="年齢: 41; 年間取り崩し額 (万円): 485.807842634; spend75p: 486.109279603; ダイナミックスペンディング: ON" role="graphics-symbol" aria-roledescription="area mark" d="M10.909,184.085L21.818,180.189L32.727,176.776L43.636,173.524L54.545,169.06L65.455,164.837L76.364,159.751L87.273,155.915L98.182,151.106L109.091,146.653L120,143.748L130.909,142.208L141.818,142.945L152.727,145.904L163.636,155.303L174.545,161.606L185.455,174.415L196.364,187.904L207.273,201.435L218.182,219.678L229.091,304.485L240,400L250.909,400L261.818,400L272.727,400L283.636,400L294.545,400L305.455,400L316.364,400L327.273,400L338.182,400L349.091,400L360,400L370.909,400L381.818,400L392.727,400L403.636,400L414.545,400L425.455,400L436.364,400L447.273,400L458.182,400L469.091,400L480,400L490.909,400L501.818,400L512.727,400L523.636,400L534.545,400L545.455,400L556.364,400L567.273,400L578.182,400L589.091,400L600,400L600,181.471L589.091,181.395L578.182,176.379L567.273,178.213L556.364,177.081L545.455,180.274L534.545,181.086L523.636,184.932L512.727,182.115L501.818,181.773L490.909,185.73L480,189.657L469.091,195.991L458.182,197.452L447.273,201.81L436.364,206.283L425.455,210.769L414.545,215.43L403.636,215.029L392.727,212.594L381.818,210.182L370.909,206.206L360,198.616L349.091,192.362L338.182,186.623L327.273,179.519L316.364,176.65L305.455,169.717L294.545,160.785L283.636,154.337L272.727,150.079L261.818,143.815L250.909,143.267L240,137.39L229.091,130.91L218.182,29.008L207.273,26.872L196.364,19.524L185.455,13.679L174.545,15.293L163.636,15.983L152.727,18.333L141.818,28.981L130.909,42.466L120,53.149L109.091,68.629L98.182,81.39L87.273,95.106L76.364,110.015L65.455,123.832L54.545,137.814L43.636,150.655L32.727,162.869L21.818,173.946L10.909,183.951Z" fill="red" opacity="0.3"/></g></g><path class="foreground" aria-hidden="true" d="" display="none"/></g></g><g class="mark-group role-scope layer_1_pathgroup" role="graphics-object" aria-roledescription="group mark container"><g transform="translate(0,0)"><path class="background" aria-hidden="true" d="M0,0h600v400h-600Z"/><g><g class="mark-line role-mark layer_1_marks" role="graphics-object" aria-roledescription="line mark container"><path aria-label="年齢: 41; spend50p: 489.278835965; group_label: OFF" role="graphics-symbol" aria-roledescription="line mark" d="M10.909,182.543L21.818,175.658L32.727,168.885L43.636,161.624L54.545,153.882L65.455,145.904L76.364,137.247L87.273,129.217L98.182,119.994L109.091,111.091L120,105.892L130.909,99.223L141.818,96.346L152.727,96.137L163.636,99.111L174.545,102.784L185.455,107.504L196.364,121.249L207.273,127.803L218.182,141.119L229.091,223.459L240,231.716L250.909,238.71L261.818,248.515L272.727,254.292L283.636,262.725L294.545,272.005L305.455,281.018L316.364,290.329L327.273,300.032L338.182,309.236L349.091,316.861L360,323.491L370.909,330.041L381.818,338.27L392.727,343.013L403.636,348.05L414.545,352.336L425.455,355.925L436.364,360.213L447.273,363.395L458.182,367.333L469.091,372.796L480,376.045L490.909,378.497L501.818,380.739L512.727,383.857L523.636,388.518L534.545,391.368L545.455,395.446L556.364,398.323L567.273,400L578.182,400L589.091,400L600,400" stroke="blue" stroke-width="2"/></g></g><path class="foreground" aria-hidden="true" d="" display="none"/></g><g transform="translate(0,0)"><path class="background" aria-hidden="true" d="M0,0h600v400h-600Z"/><g><g class="mark-line role-mark layer_1_marks" role="graphics-object" aria-roledescription="line mark container"><path aria-label="年齢: 41; spend50p: 485.953962481; group_label: ON" role="graphics-symbol" aria-roledescription="line mark" d="M10.909,184.02L21.818,177.145L32.727,169.586L43.636,162.494L54.545,154.288L65.455,145.211L76.364,137.976L87.273,129.575L98.182,120.431L109.091,111.957L120,104.531L130.909,98.562L141.818,93.798L152.727,94.697L163.636,95.243L174.545,98.16L185.455,102.668L196.364,110.287L207.273,116.137L218.182,125.98L229.091,210.08L240,219.108L250.909,225.761L261.818,232.304L272.727,238.267L283.636,244.037L294.545,247.668L305.455,254.375L316.364,260.926L327.273,265.729L338.182,278.741L349.091,283.47L360,289.534L370.909,298.848L381.818,304.104L392.727,309.243L403.636,317.099L414.545,319.525L425.455,322.346L436.364,325.275L447.273,327.153L458.182,327.501L469.091,332.63L480,335.676L490.909,336.557L501.818,337.976L512.727,339.388L523.636,344.472L534.545,345.428L545.455,348.098L556.364,351.063L567.273,355.904L578.182,356.893L589.091,365.128L600,368.206" stroke="red" stroke-width="2"/></g></g><path class="foreground" aria-hidden="true" d="" display="none"/></g></g><g class="mark-group role-legend" role="graphics-symbol" aria-roledescription="legend" aria-label="Symbol legend titled 'ダイナミックスペンディング' for fill color and stroke color with 2 values: ON, OFF"><g transform="translate(0,-47)"><path class="background" aria-hidden="true" d="M0,0h143v29h-143Z" pointer-events="none"/><g><g class="mark-group role-legend-entry"><g transform="translate(0,16)"><path class="background" aria-hidden="true" d="M0,0h0v0h0Z" pointer-events="none"/><g><g class="mark-group role-scope" role="graphics-object" aria-roledescription="group mark container"><g transform="translate(0,0.25)"><path class="background" aria-hidden="true" d="M0,0h31v12.5h-31Z" pointer-events="none" opacity="1"/><g><g class="mark-symbol role-legend-symbol" pointer-events="none"><path transform="translate(6,6)" d="M5,0A5,5,0,1,1,-5,0A5,5,0,1,1,5,0" fill="red" stroke="red" stroke-width="1.5" opacity="0.3"/></g><g class="mark-text role-legend-label" pointer-events="none"><text text-anchor="start" transform="translate(16,9)" font-family="sans-serif" font-size="10px" fill="#000" opacity="1">ON</text></g></g><path class="foreground" aria-hidden="true" d="" pointer-events="none" display="none"/></g><g transform="translate(42,0.25)"><path class="background" aria-hidden="true" d="M0,0h35.9951171875v12.5h-35.9951171875Z" pointer-events="none" opacity="1"/><g><g class="mark-symbol role-legend-symbol" pointer-events="none"><path transform="translate(6,6)" d="M5,0A5,5,0,1,1,-5,0A5,5,0,1,1,5,0" fill="blue" stroke="blue" stroke-width="1.5" opacity="0.3"/></g><g class="mark-text role-legend-label" pointer-events="none"><text text-anchor="start" transform="translate(16,9)" font-family="sans-serif" font-size="10px" fill="#000" opacity="1">OFF</text></g></g><path class="foreground" aria-hidden="true" d="" pointer-events="none" display="none"/></g></g></g><path class="foreground" aria-hidden="true" d="" pointer-events="none" display="none"/></g></g><g class="mark-text role-legend-title" pointer-events="none"><text text-anchor="start" transform="translate(0,9)" font-family="sans-serif" font-size="11px" font-weight="bold" fill="#000" opacity="1">ダイナミックスペンディング</text></g></g><path class="foreground" aria-hidden="true" d="" pointer-events="none" display="none"/></g></g><g class="mark-group role-title"><g transform="translate(300,-64)"><path class="background" aria-hidden="true" d="M0,0h0v0h0Z" pointer-events="none"/><g><g class="mark-text role-title-text" role="graphics-symbol" aria-roledescription="title" aria-label="Title text '年間支出額推移: 単身世帯, 年金60歳, 初期486万円/年, 初期支出率4%'" pointer-events="none"><text text-anchor="middle" transform="translate(0,10)" font-family="sans-serif" font-size="13px" font-weight="bold" fill="#000" opacity="1">年間支出額推移: 単身世帯, 年金60歳, 初期486万円/年, 初期支出率4%</text></g></g><path class="foreground" aria-hidden="true" d="" pointer-events="none" display="none"/></g></g></g><path class="foreground" aria-hidden="true" d="" display="none"/></g></g></g></svg>