<svg xmlns="http://www.w3.org/2000/svg" xmlns:xlink="http://www.w3.org/1999/xlink" version="1.1" class="marks" width="658" height="403" viewBox="0 0 658 403"><rect width="658" height="403" fill="white"/><g fill="none" stroke-miterlimit="10" transform="translate(53,53)"><g class="mark-group role-frame root" role="graphics-object" aria-roledescription="group mark container"><g transform="translate(0,0)"><path class="background" aria-hidden="true" d="M0.5,0.5h600v300h-600Z" stroke="#ddd"/><g><g class="mark-group role-axis" aria-hidden="true"><g transform="translate(0.5,0.5)"><path class="background" aria-hidden="true" d="M0,0h0v0h0Z" pointer-events="none"/><g><g class="mark-rule role-axis-grid" pointer-events="none"><line transform="translate(0,300)" x2="600" y2="0" stroke="#ddd" stroke-width="1" opacity="1"/><line transform="translate(0,270)" x2="600" y2="0" stroke="#ddd" stroke-width="1" opacity="1"/><line transform="translate(0,240)" x2="600" y2="0" stroke="#ddd" stroke-width="1" opacity="1"/><line transform="translate(0,210)" x2="600" y2="0" stroke="#ddd" stroke-width="1" opacity="1"/><line transform="translate(0,180)" x2="600" y2="0" stroke="#ddd" stroke-width="1" opacity="1"/><line transform="translate(0,150)" x2="600" y2="0" stroke="#ddd" stroke-width="1" opacity="1"/><line transform="translate(0,120)" x2="600" y2="0" stroke="#ddd" stroke-width="1" opacity="1"/><line transform="translate(0,90)" x2="600" y2="0" stroke="#ddd" stroke-width="1" opacity="1"/><line transform="translate(0,60)" x2="600" y2="0" stroke="#ddd" stroke-width="1" opacity="1"/><line transform="translate(0,30)" x2="600" y2="0" stroke="#ddd" stroke-width="1" opacity="1"/><line transform="translate(0,0)" x2="600" y2="0" stroke="#ddd" stroke-width="1" opacity="1"/></g></g><path class="foreground" aria-hidden="true" d="" pointer-events="none" display="none"/></g></g><g class="mark-group role-axis" role="graphics-symbol" aria-roledescription="axis" aria-label="X-axis titled '年' for a discrete scale with 30 values: 1996, 1997, 1998, 1999, 2000, ending with 2025"><g transform="translate(0.5,300.5)"><path class="background" aria-hidden="true" d="M0,0h0v0h0Z" pointer-events="none"/><g><g class="mark-rule role-axis-tick" pointer-events="none"><line transform="translate(10,0)" x2="0" y2="5" stroke="#888" stroke-width="1" opacity="1"/><line transform="translate(30,0)" x2="0" y2="5" stroke="#888" stroke-width="1" opacity="1"/><line transform="translate(50,0)" x2="0" y2="5" stroke="#888" stroke-width="1" opacity="1"/><line transform="translate(70,0)" x2="0" y2="5" stroke="#888" stroke-width="1" opacity="1"/><line transform="translate(90,0)" x2="0" y2="5" stroke="#888" stroke-width="1" opacity="1"/><line transform="translate(110,0)" x2="0" y2="5" stroke="#888" stroke-width="1" opacity="1"/><line transform="translate(130,0)" x2="0" y2="5" stroke="#888" stroke-width="1" opacity="1"/><line transform="translate(150,0)" x2="0" y2="5" stroke="#888" stroke-width="1" opacity="1"/><line transform="translate(170,0)" x2="0" y2="5" stroke="#888" stroke-width="1" opacity="1"/><line transform="translate(190,0)" x2="0" y2="5" stroke="#888" stroke-width="1" opacity="1"/><line transform="translate(210,0)" x2="0" y2="5" stroke="#888" stroke-width="1" opacity="1"/><line transform="translate(230,0)" x2="0" y2="5" stroke="#888" stroke-width="1" opacity="1"/><line transform="translate(250,0)" x2="0" y2="5" stroke="#888" stroke-width="1" opacity="1"/><line transform="translate(270,0)" x2="0" y2="5" stroke="#888" stroke-width="1" opacity="1"/><line transform="translate(290,0)" x2="0" y2="5" stroke="#888" stroke-width="1" opacity="1"/><line transform="translate(310,0)" x2="0" y2="5" stroke="#888" stroke-width="1" opacity="1"/><line transform="translate(330,0)" x2="0" y2="5" stroke="#888" stroke-width="1" opacity="1"/><line transform="translate(350,0)" x2="0" y2="5" stroke="#888" stroke-width="1" opacity="1"/><line transform="translate(370,0)" x2="0" y2="5" stroke="#888" stroke-width="1" opacity="1"/><line transform="translate(390,0)" x2="0" y2="5" stroke="#888" stroke-width="1" opacity="1"/><line transform="translate(410,0)" x2="0" y2="5" stroke="#888" stroke-width="1" opacity="1"/><line transform="translate(430,0)" x2="0" y2="5" stroke="#888" stroke-width="1" opacity="1"/><line transform="translate(450,0)" x2="0" y2="5" stroke="#888" stroke-width="1" opacity="1"/><line transform="translate(470,0)" x2="0" y2="5" stroke="#888" stroke-width="1" opacity="1"/><line transform="translate(490,0)" x2="0" y2="5" stroke="#888" stroke-width="1" opacity="1"/><line transform="translate(510,0)" x2="0" y2="5" stroke="#888" stroke-width="1" opacity="1"/><line transform="translate(530,0)" x2="0" y2="5" stroke="#888" stroke-width="1" opacity="1"/><line transform="translate(550,0)" x2="0" y2="5" stroke="#888" stroke-width="1" opacity="1"/><line transform="translate(570,0)" x2="0" y2="5" stroke="#888" stroke-width="1" opacity="1"/><line transform="translate(590,0)" x2="0" y2="5" stroke="#888" stroke-width="1" opacity="1"/></g><g class="mark-text role-axis-label" pointer-events="none"><text text-anchor="end" transform="translate(10,7) rotate(270) translate(0,3)" font-family="sans-serif" font-size="10px" fill="#000" opacity="1">1996</text><text text-anchor="end" transform="translate(30,7) rotate(270) translate(0,3)" font-family="sans-serif" font-size="10px" fill="#000" opacity="1">1997</text><text text-anchor="end" transform="translate(50,7) rotate(270) translate(0,3)" font-family="sans-serif" font-size="10px" fill="#000" opacity="1">1998</text><text text-anchor="end" transform="translate(70,7) rotate(270) translate(0,3)" font-family="sans-serif" font-size="10px" fill="#000" opacity="1">1999</text><text text-anchor="end" transform="translate(90,7) rotate(270) translate(0,3)" font-family="sans-serif" font-size="10px" fill="#000" opacity="1">2000</text><text text-anchor="end" transform="translate(110,7) rotate(270) translate(0,3)" font-family="sans-serif" font-size="10px" fill="#000" opacity="1">2001</text><text text-anchor="end" transform="translate(130,7) rotate(270) translate(0,3)" font-family="sans-serif" font-size="10px" fill="#000" opacity="1">2002</text><text text-anchor="end" transform="translate(150,7) rotate(270) translate(0,3)" font-family="sans-serif" font-size="10px" fill="#000" opacity="1">2003</text><text text-anchor="end" transform="translate(170,7) rotate(270) translate(0,3)" font-family="sans-serif" font-size="10px" fill="#000" opacity="1">2004</text><text text-anchor="end" transform="translate(190,7) rotate(270) translate(0,3)" font-family="sans-serif" font-size="10px" fill="#000" opacity="1">2005</text><text text-anchor="end" transform="translate(210,7) rotate(270) translate(0,3)" font-family="sans-serif" font-size="10px" fill="#000" opacity="1">2006</text><text text-anchor="end" transform="translate(230,7) rotate(270) translate(0,3)" font-family="sans-serif" font-size="10px" fill="#000" opacity="1">2007</text><text text-anchor="end" transform="translate(250,7) rotate(270) translate(0,3)" font-family="sans-serif" font-size="10px" fill="#000" opacity="1">2008</text><text text-anchor="end" transform="translate(270,7) rotate(270) translate(0,3)" font-family="sans-serif" font-size="10px" fill="#000" opacity="1">2009</text><text text-anchor="end" transform="translate(290,7) rotate(270) translate(0,3)" font-family="sans-serif" font-size="10px" fill="#000" opacity="1">2010</text><text text-anchor="end" transform="translate(310,7) rotate(270) translate(0,3)" font-family="sans-serif" font-size="10px" fill="#000" opacity="1">2011</text><text text-anchor="end" transform="translate(330,7) rotate(270) translate(0,3)" font-family="sans-serif" font-size="10px" fill="#000" opacity="1">2012</text><text text-anchor="end" transform="translate(350,7) rotate(270) translate(0,3)" font-family="sans-serif" font-size="10px" fill="#000" opacity="1">2013</text><text text-anchor="end" transform="translate(370,7) rotate(270) translate(0,3)" font-family="sans-serif" font-size="10px" fill="#000" opacity="1">2014</text><text text-anchor="end" transform="translate(390,7) rotate(270) translate(0,3)" font-family="sans-serif" font-size="10px" fill="#000" opacity="1">2015</text><text text-anchor="end" transform="translate(410,7) rotate(270) translate(0,3)" font-family="sans-serif" font-size="10px" fill="#000" opacity="1">2016</text><text text-anchor="end" transform="translate(430,7) rotate(270) translate(0,3)" font-family="sans-serif" font-size="10px" fill="#000" opacity="1">2017</text><text text-anchor="end" transform="translate(450,7) rotate(270) translate(0,3)" font-family="sans-serif" font-size="10px" fill="#000" opacity="1">2018</text><text text-anchor="end" transform="translate(470,7) rotate(270) translate(0,3)" font-family="sans-serif" font-size="10px" fill="#000" opacity="1">2019</text><text text-anchor="end" transform="translate(490,7) rotate(270) translate(0,3)" font-family="sans-serif" font-size="10px" fill="#000" opacity="1">2020</text><text text-anchor="end" transform="translate(510,7) rotate(270) translate(0,3)" font-family="sans-serif" font-size="10px" fill="#000" opacity="1">2021</text><text text-anchor="end" transform="translate(530,7) rotate(270) translate(0,3)" font-family="sans-serif" font-size="10px" fill="#000" opacity="1">2022</text><text text-anchor="end" transform="translate(550,7) rotate(270) translate(0,3)" font-family="sans-serif" font-size="10px" fill="#000" opacity="1">2023</text><text text-anchor="end" transform="translate(570,7) rotate(270) translate(0,3)" font-family="sans-serif" font-size="10px" fill="#000" opacity="1">2024</text><text text-anchor="end" transform="translate(590,7) rotate(270) translate(0,3)" font-family="sans-serif" font-size="10px" fill="#000" opacity="1">2025</text></g><g class="mark-rule role-axis-domain" pointer-events="none"><line transform="translate(0,0)" x2="600" y2="0" stroke="#888" stroke-width="1" opacity="1"/></g><g class="mark-text role-axis-title" pointer-events="none"><text text-anchor="middle" transform="translate(300,42.24609375)" font-family="sans-serif" font-size="11px" font-weight="bold" fill="#000" opacity="1">年</text></g></g><path class="foreground" aria-hidden="true" d="" pointer-events="none" display="none"/></g></g><g class="mark-group role-axis" role="graphics-symbol" aria-roledescription="axis" aria-label="Y-axis titled '年率算術リターン' for a linear scale with values from −60% to 40%"><g transform="translate(0.5,0.5)"><path class="background" aria-hidden="true" d="M0,0h0v0h0Z" pointer-events="none"/><g><g class="mark-rule role-axis-tick" pointer-events="none"><line transform="translate(0,300)" x2="-5" y2="0" stroke="#888" stroke-width="1" opacity="1"/><line transform="translate(0,270)" x2="-5" y2="0" stroke="#888" stroke-width="1" opacity="1"/><line transform="translate(0,240)" x2="-5" y2="0" stroke="#888" stroke-width="1" opacity="1"/><line transform="translate(0,210)" x2="-5" y2="0" stroke="#888" stroke-width="1" opacity="1"/><line transform="translate(0,180)" x2="-5" y2="0" stroke="#888" stroke-width="1" opacity="1"/><line transform="translate(0,150)" x2="-5" y2="0" stroke="#888" stroke-width="1" opacity="1"/><line transform="translate(0,120)" x2="-5" y2="0" stroke="#888" stroke-width="1" opacity="1"/><line transform="translate(0,90)" x2="-5" y2="0" stroke="#888" stroke-width="1" opacity="1"/><line transform="translate(0,60)" x2="-5" y2="0" stroke="#888" stroke-width="1" opacity="1"/><line transform="translate(0,30)" x2="-5" y2="0" stroke="#888" stroke-width="1" opacity="1"/><line transform="translate(0,0)" x2="-5" y2="0" stroke="#888" stroke-width="1" opacity="1"/></g><g class="mark-text role-axis-label" pointer-events="none"><text text-anchor="end" transform="translate(-7,303)" font-family="sans-serif" font-size="10px" fill="#000" opacity="1">−60%</text><text text-anchor="end" transform="translate(-7,273)" font-family="sans-serif" font-size="10px" fill="#000" opacity="1">−50%</text><text text-anchor="end" transform="translate(-7,243)" font-family="sans-serif" font-size="10px" fill="#000" opacity="1">−40%</text><text text-anchor="end" transform="translate(-7,213)" font-family="sans-serif" font-size="10px" fill="#000" opacity="1">−30%</text><text text-anchor="end" transform="translate(-7,183.00000000000003)" font-family="sans-serif" font-size="10px" fill="#000" opacity="1">−20%</text><text text-anchor="end" transform="translate(-7,153)" font-family="sans-serif" font-size="10px" fill="#000" opacity="1">−10%</text><text text-anchor="end" transform="translate(-7,123)" font-family="sans-serif" font-size="10px" fill="#000" opacity="1">0%</text><text text-anchor="end" transform="translate(-7,93.00000000000001)" font-family="sans-serif" font-size="10px" fill="#000" opacity="1">10%</text><text text-anchor="end" transform="translate(-7,62.999999999999986)" font-family="sans-serif" font-size="10px" fill="#000" opacity="1">20%</text><text text-anchor="end" transform="translate(-7,33.00000000000003)" font-family="sans-serif" font-size="10px" fill="#000" opacity="1">30%</text><text text-anchor="end" transform="translate(-7,3)" font-family="sans-serif" font-size="10px" fill="#000" opacity="1">40%</text></g><g class="mark-rule role-axis-domain" pointer-events="none"><line transform="translate(0,300)" x2="0" y2="-300" stroke="#888" stroke-width="1" opacity="1"/></g><g class="mark-text role-axis-title" pointer-events="none"><text text-anchor="middle" transform="translate(-36.8544921875,150) rotate(-90) translate(0,-2)" font-family="sans-serif" font-size="11px" font-weight="bold" fill="#000" opacity="1">年率算術リターン</text></g></g><path class="foreground" aria-hidden="true" d="" pointer-events="none" display="none"/></g></g><g class="mark-group role-scope layer_0_pathgroup" role="graphics-object" aria-roledescription="group mark container"><g transform="translate(0,0)"><path class="background" aria-hidden="true" d="M0,0h600v300h-600Z"/><g><g class="mark-line role-mark layer_0_marks" role="graphics-object" aria-roledescription="line mark container"><path aria-label="年: 1996; 年率算術リターン: 21.383885%; アセット: S&amp;P 500; Year: 1996; Asset: S&amp;P 500; Annual Arithmetic Return: 21.38%" role="graphics-symbol" aria-roledescription="line mark" d="M10,55.848L30,29.104L50,37.11L70,59.919L90,144.533L110,152.294L130,188.229L150,41.806L170,88.145L190,104.731L210,75.299L230,102.639L250,249.462L270,41.93L290,72.567L310,110.297L330,73.652L350,33.856L370,80.373L390,113.351L410,84.506L430,60.06L450,130.114L470,34.657L490,59.678L510,41.828L530,172.175L550,46.37L570,50.827L590,68.651" stroke="#1f77b4" stroke-width="2"/></g></g><path class="foreground" aria-hidden="true" d="" display="none"/></g><g transform="translate(0,0)"><path class="background" aria-hidden="true" d="M0,0h600v300h-600Z"/><g><g class="mark-line role-mark layer_0_marks" role="graphics-object" aria-roledescription="line mark container"><path aria-label="年: 2008; 年率算術リターン: −50.588982%; アセット: ACWI (Orukan); Year: 2008; Asset: ACWI (Orukan); Annual Arithmetic Return: −50.59%" role="graphics-symbol" aria-roledescription="line mark" d="M250,271.767L270,24.924L290,77.221L310,139.305L330,70.57L350,57.784L370,107.422L390,124.153L410,94.189L430,53.972L450,146.001L470,46.35L490,65.464L510,67.069L530,174.032L550,55.841L570,70.125L590,57.767" stroke="#ff7f0e" stroke-width="2"/></g></g><path class="foreground" aria-hidden="true" d="" display="none"/></g></g><g class="mark-symbol role-mark layer_1_marks" role="graphics-object" aria-roledescription="symbol mark container"><path aria-label="年: 1996; 年率算術リターン: 21.383885%; アセット: S&amp;P 500; Year: 1996; Asset: S&amp;P 500; Annual Arithmetic Return: 21.38%" role="graphics-symbol" aria-roledescription="point" transform="translate(10,55.848345803636256)" d="M2.739,0A2.739,2.739,0,1,1,-2.739,0A2.739,2.739,0,1,1,2.739,0" fill="#1f77b4" stroke-width="2" opacity="1"/><path aria-label="年: 1997; 年率算術リターン: 30.298515%; アセット: S&amp;P 500; Year: 1997; Asset: S&amp;P 500; Annual Arithmetic Return: 30.30%" role="graphics-symbol" aria-roledescription="point" transform="translate(30,29.104456009384773)" d="M2.739,0A2.739,2.739,0,1,1,-2.739,0A2.739,2.739,0,1,1,2.739,0" fill="#1f77b4" stroke-width="2" opacity="1"/><path aria-label="年: 1998; 年率算術リターン: 27.630002%; アセット: S&amp;P 500; Year: 1998; Asset: S&amp;P 500; Annual Arithmetic Return: 27.63%" role="graphics-symbol" aria-roledescription="point" transform="translate(50,37.109994547693205)" d="M2.739,0A2.739,2.739,0,1,1,-2.739,0A2.739,2.739,0,1,1,2.739,0" fill="#1f77b4" stroke-width="2" opacity="1"/><path aria-label="年: 1999; 年率算術リターン: 20.027127%; アセット: S&amp;P 500; Year: 1999; Asset: S&amp;P 500; Annual Arithmetic Return: 20.03%" role="graphics-symbol" aria-roledescription="point" transform="translate(70,59.918618020623256)" d="M2.739,0A2.739,2.739,0,1,1,-2.739,0A2.739,2.739,0,1,1,2.739,0" fill="#1f77b4" stroke-width="2" opacity="1"/><path aria-label="年: 2000; 年率算術リターン: −8.177569%; アセット: S&amp;P 500; Year: 2000; Asset: S&amp;P 500; Annual Arithmetic Return: −8.18%" role="graphics-symbol" aria-roledescription="point" transform="translate(90,144.53270595265286)" d="M2.739,0A2.739,2.739,0,1,1,-2.739,0A2.739,2.739,0,1,1,2.739,0" fill="#1f77b4" stroke-width="2" opacity="1"/><path aria-label="年: 2001; 年率算術リターン: −10.764652%; アセット: S&amp;P 500; Year: 2001; Asset: S&amp;P 500; Annual Arithmetic Return: −10.76%" role="graphics-symbol" aria-roledescription="point" transform="translate(110,152.29395554003403)" d="M2.739,0A2.739,2.739,0,1,1,-2.739,0A2.739,2.739,0,1,1,2.739,0" fill="#1f77b4" stroke-width="2" opacity="1"/><path aria-label="年: 2002; 年率算術リターン: −22.743137%; アセット: S&amp;P 500; Year: 2002; Asset: S&amp;P 500; Annual Arithmetic Return: −22.74%" role="graphics-symbol" aria-roledescription="point" transform="translate(130,188.22941219265792)" d="M2.739,0A2.739,2.739,0,1,1,-2.739,0A2.739,2.739,0,1,1,2.739,0" fill="#1f77b4" stroke-width="2" opacity="1"/><path aria-label="年: 2003; 年率算術リターン: 26.064757%; アセット: S&amp;P 500; Year: 2003; Asset: S&amp;P 500; Annual Arithmetic Return: 26.06%" role="graphics-symbol" aria-roledescription="point" transform="translate(150,41.805727742731605)" d="M2.739,0A2.739,2.739,0,1,1,-2.739,0A2.739,2.739,0,1,1,2.739,0" fill="#1f77b4" stroke-width="2" opacity="1"/><path aria-label="年: 2004; 年率算術リターン: 10.618447%; アセット: S&amp;P 500; Year: 2004; Asset: S&amp;P 500; Annual Arithmetic Return: 10.62%" role="graphics-symbol" aria-roledescription="point" transform="translate(170,88.14466013125484)" d="M2.739,0A2.739,2.739,0,1,1,-2.739,0A2.739,2.739,0,1,1,2.739,0" fill="#1f77b4" stroke-width="2" opacity="1"/><path aria-label="年: 2005; 年率算術リターン: 5.089525%; アセット: S&amp;P 500; Year: 2005; Asset: S&amp;P 500; Annual Arithmetic Return: 5.09%" role="graphics-symbol" aria-roledescription="point" transform="translate(190,104.7314260565477)" d="M2.739,0A2.739,2.739,0,1,1,-2.739,0A2.739,2.739,0,1,1,2.739,0" fill="#1f77b4" stroke-width="2" opacity="1"/><path aria-label="年: 2006; 年率算術リターン: 14.900372%; アセット: S&amp;P 500; Year: 2006; Asset: S&amp;P 500; Annual Arithmetic Return: 14.90%" role="graphics-symbol" aria-roledescription="point" transform="translate(210,75.29888418165484)" d="M2.739,0A2.739,2.739,0,1,1,-2.739,0A2.739,2.739,0,1,1,2.739,0" fill="#1f77b4" stroke-width="2" opacity="1"/><path aria-label="年: 2007; 年率算術リターン: 5.787110%; アセット: S&amp;P 500; Year: 2007; Asset: S&amp;P 500; Annual Arithmetic Return: 5.79%" role="graphics-symbol" aria-roledescription="point" transform="translate(230,102.63866968508306)" d="M2.739,0A2.739,2.739,0,1,1,-2.739,0A2.739,2.739,0,1,1,2.739,0" fill="#1f77b4" stroke-width="2" opacity="1"/><path aria-label="年: 2008; 年率算術リターン: −43.154053%; アセット: S&amp;P 500; Year: 2008; Asset: S&amp;P 500; Annual Arithmetic Return: −43.15%" role="graphics-symbol" aria-roledescription="point" transform="translate(250,249.46215766742355)" d="M2.739,0A2.739,2.739,0,1,1,-2.739,0A2.739,2.739,0,1,1,2.739,0" fill="#1f77b4" stroke-width="2" opacity="1"/><path aria-label="年: 2009; 年率算術リターン: 26.023364%; アセット: S&amp;P 500; Year: 2009; Asset: S&amp;P 500; Annual Arithmetic Return: 26.02%" role="graphics-symbol" aria-roledescription="point" transform="translate(270,41.92990691769039)" d="M2.739,0A2.739,2.739,0,1,1,-2.739,0A2.739,2.739,0,1,1,2.739,0" fill="#1f77b4" stroke-width="2" opacity="1"/><path aria-label="年: 2010; 年率算術リターン: 15.810924%; アセット: S&amp;P 500; Year: 2010; Asset: S&amp;P 500; Annual Arithmetic Return: 15.81%" role="graphics-symbol" aria-roledescription="point" transform="translate(290,72.56722873319623)" d="M2.739,0A2.739,2.739,0,1,1,-2.739,0A2.739,2.739,0,1,1,2.739,0" fill="#1f77b4" stroke-width="2" opacity="1"/><path aria-label="年: 2011; 年率算術リターン: 3.234201%; アセット: S&amp;P 500; Year: 2011; Asset: S&amp;P 500; Annual Arithmetic Return: 3.23%" role="graphics-symbol" aria-roledescription="point" transform="translate(310,110.29739814326155)" d="M2.739,0A2.739,2.739,0,1,1,-2.739,0A2.739,2.739,0,1,1,2.739,0" fill="#1f77b4" stroke-width="2" opacity="1"/><path aria-label="年: 2012; 年率算術リターン: 15.449383%; アセット: S&amp;P 500; Year: 2012; Asset: S&amp;P 500; Annual Arithmetic Return: 15.45%" role="graphics-symbol" aria-roledescription="point" transform="translate(330,73.65184977562716)" d="M2.739,0A2.739,2.739,0,1,1,-2.739,0A2.739,2.739,0,1,1,2.739,0" fill="#1f77b4" stroke-width="2" opacity="1"/><path aria-label="年: 2013; 年率算術リターン: 28.714552%; アセット: S&amp;P 500; Year: 2013; Asset: S&amp;P 500; Annual Arithmetic Return: 28.71%" role="graphics-symbol" aria-roledescription="point" transform="translate(350,33.85634481777298)" d="M2.739,0A2.739,2.739,0,1,1,-2.739,0A2.739,2.739,0,1,1,2.739,0" fill="#1f77b4" stroke-width="2" opacity="1"/><path aria-label="年: 2014; 年率算術リターン: 13.208888%; アセット: S&amp;P 500; Year: 2014; Asset: S&amp;P 500; Annual Arithmetic Return: 13.21%" role="graphics-symbol" aria-roledescription="point" transform="translate(370,80.37333490790667)" d="M2.739,0A2.739,2.739,0,1,1,-2.739,0A2.739,2.739,0,1,1,2.739,0" fill="#1f77b4" stroke-width="2" opacity="1"/><path aria-label="年: 2015; 年率算術リターン: 2.216178%; アセット: S&amp;P 500; Year: 2015; Asset: S&amp;P 500; Annual Arithmetic Return: 2.22%" role="graphics-symbol" aria-roledescription="point" transform="translate(390,113.3514656553969)" d="M2.739,0A2.739,2.739,0,1,1,-2.739,0A2.739,2.739,0,1,1,2.739,0" fill="#1f77b4" stroke-width="2" opacity="1"/><path aria-label="年: 2016; 年率算術リターン: 11.831216%; アセット: S&amp;P 500; Year: 2016; Asset: S&amp;P 500; Annual Arithmetic Return: 11.83%" role="graphics-symbol" aria-roledescription="point" transform="translate(410,84.50635327194938)" d="M2.739,0A2.739,2.739,0,1,1,-2.739,0A2.739,2.739,0,1,1,2.739,0" fill="#1f77b4" stroke-width="2" opacity="1"/><path aria-label="年: 2017; 年率算術リターン: 19.979925%; アセット: S&amp;P 500; Year: 2017; Asset: S&amp;P 500; Annual Arithmetic Return: 19.98%" role="graphics-symbol" aria-roledescription="point" transform="translate(430,60.06022389866862)" d="M2.739,0A2.739,2.739,0,1,1,-2.739,0A2.739,2.739,0,1,1,2.739,0" fill="#1f77b4" stroke-width="2" opacity="1"/><path aria-label="年: 2018; 年率算術リターン: −3.371317%; アセット: S&amp;P 500; Year: 2018; Asset: S&amp;P 500; Annual Arithmetic Return: −3.37%" role="graphics-symbol" aria-roledescription="point" transform="translate(450,130.11395153337497)" d="M2.739,0A2.739,2.739,0,1,1,-2.739,0A2.739,2.739,0,1,1,2.739,0" fill="#1f77b4" stroke-width="2" opacity="1"/><path aria-label="年: 2019; 年率算術リターン: 28.447592%; アセット: S&amp;P 500; Year: 2019; Asset: S&amp;P 500; Annual Arithmetic Return: 28.45%" role="graphics-symbol" aria-roledescription="point" transform="translate(470,34.65722276337691)" d="M2.739,0A2.739,2.739,0,1,1,-2.739,0A2.739,2.739,0,1,1,2.739,0" fill="#1f77b4" stroke-width="2" opacity="1"/><path aria-label="年: 2020; 年率算術リターン: 20.107268%; アセット: S&amp;P 500; Year: 2020; Asset: S&amp;P 500; Annual Arithmetic Return: 20.11%" role="graphics-symbol" aria-roledescription="point" transform="translate(490,59.678197107976686)" d="M2.739,0A2.739,2.739,0,1,1,-2.739,0A2.739,2.739,0,1,1,2.739,0" fill="#1f77b4" stroke-width="2" opacity="1"/><path aria-label="年: 2021; 年率算術リターン: 26.057207%; アセット: S&amp;P 500; Year: 2021; Asset: S&amp;P 500; Annual Arithmetic Return: 26.06%" role="graphics-symbol" aria-roledescription="point" transform="translate(510,41.828378939201095)" d="M2.739,0A2.739,2.739,0,1,1,-2.739,0A2.739,2.739,0,1,1,2.739,0" fill="#1f77b4" stroke-width="2" opacity="1"/><path aria-label="年: 2022; 年率算術リターン: −17.391530%; アセット: S&amp;P 500; Year: 2022; Asset: S&amp;P 500; Annual Arithmetic Return: −17.39%" role="graphics-symbol" aria-roledescription="point" transform="translate(530,172.17458890168004)" d="M2.739,0A2.739,2.739,0,1,1,-2.739,0A2.739,2.739,0,1,1,2.739,0" fill="#1f77b4" stroke-width="2" opacity="1"/><path aria-label="年: 2023; 年率算術リターン: 24.543494%; アセット: S&amp;P 500; Year: 2023; Asset: S&amp;P 500; Annual Arithmetic Return: 24.54%" role="graphics-symbol" aria-roledescription="point" transform="translate(550,46.36951902530778)" d="M2.739,0A2.739,2.739,0,1,1,-2.739,0A2.739,2.739,0,1,1,2.739,0" fill="#1f77b4" stroke-width="2" opacity="1"/><path aria-label="年: 2024; 年率算術リターン: 23.057690%; アセット: S&amp;P 500; Year: 2024; Asset: S&amp;P 500; Annual Arithmetic Return: 23.06%" role="graphics-symbol" aria-roledescription="point" transform="translate(570,50.826928628363774)" d="M2.739,0A2.739,2.739,0,1,1,-2.739,0A2.739,2.739,0,1,1,2.739,0" fill="#1f77b4" stroke-width="2" opacity="1"/><path aria-label="年: 2025; 年率算術リターン: 17.116270%; アセット: S&amp;P 500; Year: 2025; Asset: S&amp;P 500; Annual Arithmetic Return: 17.12%" role="graphics-symbol" aria-roledescription="point" transform="translate(590,68.65118977542731)" d="M2.739,0A2.739,2.739,0,1,1,-2.739,0A2.739,2.739,0,1,1,2.739,0" fill="#1f77b4" stroke-width="2" opacity="1"/><path aria-label="年: 2008; 年率算術リターン: −50.588982%; アセット: ACWI (Orukan); Year: 2008; Asset: ACWI (Orukan); Annual Arithmetic Return: −50.59%" role="graphics-symbol" aria-roledescription="point" transform="translate(250,271.7669445893799)" d="M2.739,0A2.739,2.739,0,1,1,-2.739,0A2.739,2.739,0,1,1,2.739,0" fill="#ff7f0e" stroke-width="2" opacity="1"/><path aria-label="年: 2009; 年率算術リターン: 31.692112%; アセット: ACWI (Orukan); Year: 2009; Asset: ACWI (Orukan); Annual Arithmetic Return: 31.69%" role="graphics-symbol" aria-roledescription="point" transform="translate(270,24.9236648769096)" d="M2.739,0A2.739,2.739,0,1,1,-2.739,0A2.739,2.739,0,1,1,2.739,0" fill="#ff7f0e" stroke-width="2" opacity="1"/><path aria-label="年: 2010; 年率算術リターン: 14.259763%; アセット: ACWI (Orukan); Year: 2010; Asset: ACWI (Orukan); Annual Arithmetic Return: 14.26%" role="graphics-symbol" aria-roledescription="point" transform="translate(290,77.22070987745315)" d="M2.739,0A2.739,2.739,0,1,1,-2.739,0A2.739,2.739,0,1,1,2.739,0" fill="#ff7f0e" stroke-width="2" opacity="1"/><path aria-label="年: 2011; 年率算術リターン: −6.434861%; アセット: ACWI (Orukan); Year: 2011; Asset: ACWI (Orukan); Annual Arithmetic Return: −6.43%" role="graphics-symbol" aria-roledescription="point" transform="translate(310,139.30458429224797)" d="M2.739,0A2.739,2.739,0,1,1,-2.739,0A2.739,2.739,0,1,1,2.739,0" fill="#ff7f0e" stroke-width="2" opacity="1"/><path aria-label="年: 2012; 年率算術リターン: 16.476582%; アセット: ACWI (Orukan); Year: 2012; Asset: ACWI (Orukan); Annual Arithmetic Return: 16.48%" role="graphics-symbol" aria-roledescription="point" transform="translate(330,70.57025307971794)" d="M2.739,0A2.739,2.739,0,1,1,-2.739,0A2.739,2.739,0,1,1,2.739,0" fill="#ff7f0e" stroke-width="2" opacity="1"/><path aria-label="年: 2013; 年率算術リターン: 20.738733%; アセット: ACWI (Orukan); Year: 2013; Asset: ACWI (Orukan); Annual Arithmetic Return: 20.74%" role="graphics-symbol" aria-roledescription="point" transform="translate(350,57.78379999622458)" d="M2.739,0A2.739,2.739,0,1,1,-2.739,0A2.739,2.739,0,1,1,2.739,0" fill="#ff7f0e" stroke-width="2" opacity="1"/><path aria-label="年: 2014; 年率算術リターン: 4.192544%; アセット: ACWI (Orukan); Year: 2014; Asset: ACWI (Orukan); Annual Arithmetic Return: 4.19%" role="graphics-symbol" aria-roledescription="point" transform="translate(370,107.42236758835915)" d="M2.739,0A2.739,2.739,0,1,1,-2.739,0A2.739,2.739,0,1,1,2.739,0" fill="#ff7f0e" stroke-width="2" opacity="1"/><path aria-label="年: 2015; 年率算術リターン: −1.384330%; アセット: ACWI (Orukan); Year: 2015; Asset: ACWI (Orukan); Annual Arithmetic Return: −1.38%" role="graphics-symbol" aria-roledescription="point" transform="translate(390,124.1529904130921)" d="M2.739,0A2.739,2.739,0,1,1,-2.739,0A2.739,2.739,0,1,1,2.739,0" fill="#ff7f0e" stroke-width="2" opacity="1"/><path aria-label="年: 2016; 年率算術リターン: 8.603537%; アセット: ACWI (Orukan); Year: 2016; Asset: ACWI (Orukan); Annual Arithmetic Return: 8.60%" role="graphics-symbol" aria-roledescription="point" transform="translate(410,94.1893895395893)" d="M2.739,0A2.739,2.739,0,1,1,-2.739,0A2.739,2.739,0,1,1,2.739,0" fill="#ff7f0e" stroke-width="2" opacity="1"/><path aria-label="年: 2017; 年率算術リターン: 22.009384%; アセット: ACWI (Orukan); Year: 2017; Asset: ACWI (Orukan); Annual Arithmetic Return: 22.01%" role="graphics-symbol" aria-roledescription="point" transform="translate(430,53.971847732425815)" d="M2.739,0A2.739,2.739,0,1,1,-2.739,0A2.739,2.739,0,1,1,2.739,0" fill="#ff7f0e" stroke-width="2" opacity="1"/><path aria-label="年: 2018; 年率算術リターン: −8.666970%; アセット: ACWI (Orukan); Year: 2018; Asset: ACWI (Orukan); Annual Arithmetic Return: −8.67%" role="graphics-symbol" aria-roledescription="point" transform="translate(450,146.00091144053212)" d="M2.739,0A2.739,2.739,0,1,1,-2.739,0A2.739,2.739,0,1,1,2.739,0" fill="#ff7f0e" stroke-width="2" opacity="1"/><path aria-label="年: 2019; 年率算術リターン: 24.549963%; アセット: ACWI (Orukan); Year: 2019; Asset: ACWI (Orukan); Annual Arithmetic Return: 24.55%" role="graphics-symbol" aria-roledescription="point" transform="translate(470,46.35011118662323)" d="M2.739,0A2.739,2.739,0,1,1,-2.739,0A2.739,2.739,0,1,1,2.739,0" fill="#ff7f0e" stroke-width="2" opacity="1"/><path aria-label="年: 2020; 年率算術リターン: 18.178661%; アセット: ACWI (Orukan); Year: 2020; Asset: ACWI (Orukan); Annual Arithmetic Return: 18.18%" role="graphics-symbol" aria-roledescription="point" transform="translate(490,65.46401701895506)" d="M2.739,0A2.739,2.739,0,1,1,-2.739,0A2.739,2.739,0,1,1,2.739,0" fill="#ff7f0e" stroke-width="2" opacity="1"/><path aria-label="年: 2021; 年率算術リターン: 17.643662%; アセット: ACWI (Orukan); Year: 2021; Asset: ACWI (Orukan); Annual Arithmetic Return: 17.64%" role="graphics-symbol" aria-roledescription="point" transform="translate(510,67.06901266587205)" d="M2.739,0A2.739,2.739,0,1,1,-2.739,0A2.739,2.739,0,1,1,2.739,0" fill="#ff7f0e" stroke-width="2" opacity="1"/><path aria-label="年: 2022; 年率算術リターン: −18.010698%; アセット: ACWI (Orukan); Year: 2022; Asset: ACWI (Orukan); Annual Arithmetic Return: −18.01%" role="graphics-symbol" aria-roledescription="point" transform="translate(530,174.03209428533768)" d="M2.739,0A2.739,2.739,0,1,1,-2.739,0A2.739,2.739,0,1,1,2.739,0" fill="#ff7f0e" stroke-width="2" opacity="1"/><path aria-label="年: 2023; 年率算術リターン: 21.386170%; アセット: ACWI (Orukan); Year: 2023; Asset: ACWI (Orukan); Annual Arithmetic Return: 21.39%" role="graphics-symbol" aria-roledescription="point" transform="translate(550,55.84148951980311)" d="M2.739,0A2.739,2.739,0,1,1,-2.739,0A2.739,2.739,0,1,1,2.739,0" fill="#ff7f0e" stroke-width="2" opacity="1"/><path aria-label="年: 2024; 年率算術リターン: 16.624932%; アセット: ACWI (Orukan); Year: 2024; Asset: ACWI (Orukan); Annual Arithmetic Return: 16.62%" role="graphics-symbol" aria-roledescription="point" transform="translate(570,70.12520268238328)" d="M2.739,0A2.739,2.739,0,1,1,-2.739,0A2.739,2.739,0,1,1,2.739,0" fill="#ff7f0e" stroke-width="2" opacity="1"/><path aria-label="年: 2025; 年率算術リターン: 20.744387%; アセット: ACWI (Orukan); Year: 2025; Asset: ACWI (Orukan); Annual Arithmetic Return: 20.74%" role="graphics-symbol" aria-roledescription="point" transform="translate(590,57.76683802042816)" d="M2.739,0A2.739,2.739,0,1,1,-2.739,0A2.739,2.739,0,1,1,2.739,0" fill="#ff7f0e" stroke-width="2" opacity="1"/></g><g class="mark-group role-legend" role="graphics-symbol" aria-roledescription="legend" aria-label="Symbol legend for fill color and stroke color with 2 values: S&amp;P 500, ACWI (Orukan)"><g transform="translate(0,-31)"><path class="background" aria-hidden="true" d="M0,0h152v13h-152Z" pointer-events="none"/><g><g class="mark-group role-legend-entry"><g transform="translate(0,0)"><path class="background" aria-hidden="true" d="M0,0h0v0h0Z" pointer-events="none"/><g><g class="mark-group role-scope" role="graphics-object" aria-roledescription="group mark container"><g transform="translate(0,0.25)"><path class="background" aria-hidden="true" d="M0,0h55.2919921875v12.5h-55.2919921875Z" pointer-events="none" opacity="1"/><g><g class="mark-symbol role-legend-symbol" pointer-events="none"><path transform="translate(6,6)" d="M5,0A5,5,0,1,1,-5,0A5,5,0,1,1,5,0" fill="#1f77b4" stroke="#1f77b4" stroke-width="1.5" opacity="1"/></g><g class="mark-text role-legend-label" pointer-events="none"><text text-anchor="start" transform="translate(16,9)" font-family="sans-serif" font-size="10px" fill="#000" opacity="1">S&amp;P 500</text></g></g><path class="foreground" aria-hidden="true" d="" pointer-events="none" display="none"/></g><g transform="translate(67,0.25)"><path class="background" aria-hidden="true" d="M0,0h84.33984375v12.5h-84.33984375Z" pointer-events="none" opacity="1"/><g><g class="mark-symbol role-legend-symbol" pointer-events="none"><path transform="translate(6,6)" d="M5,0A5,5,0,1,1,-5,0A5,5,0,1,1,5,0" fill="#ff7f0e" stroke="#ff7f0e" stroke-width="1.5" opacity="1"/></g><g class="mark-text role-legend-label" pointer-events="none"><text text-anchor="start" transform="translate(16,9)" font-family="sans-serif" font-size="10px" fill="#000" opacity="1">ACWI (Orukan)</text></g></g><path class="foreground" aria-hidden="true" d="" pointer-events="none" display="none"/></g></g></g><path class="foreground" aria-hidden="true" d="" pointer-events="none" display="none"/></g></g></g><path class="foreground" aria-hidden="true" d="" pointer-events="none" display="none"/></g></g><g class="mark-group role-title"><g transform="translate(300,-48)"><path class="background" aria-hidden="true" d="M0,0h0v0h0Z" pointer-events="none"/><g><g class="mark-text role-title-text" role="graphics-symbol" aria-roledescription="title" aria-label="Title text '年率算術リターンの推移'" pointer-events="none"><text text-anchor="middle" transform="translate(0,10)" font-family="sans-serif" font-size="13px" font-weight="bold" fill="#000" opacity="1">年率算術リターンの推移</text></g></g><path class="foreground" aria-hidden="true" d="" pointer-events="none" display="none"/></g></g></g><path class="foreground" aria-hidden="true" d="" display="none"/></g></g></g></svg>