<svg xmlns="http://www.w3.org/2000/svg" xmlns:xlink="http://www.w3.org/1999/xlink" version="1.1" class="marks" width="653" height="403" viewBox="0 0 653 403"><rect width="653" height="403" fill="white"/><g fill="none" stroke-miterlimit="10" transform="translate(48,53)"><g class="mark-group role-frame root" role="graphics-object" aria-roledescription="group mark container"><g transform="translate(0,0)"><path class="background" aria-hidden="true" d="M0.5,0.5h600v300h-600Z" stroke="#ddd"/><g><g class="mark-group role-axis" aria-hidden="true"><g transform="translate(0.5,0.5)"><path class="background" aria-hidden="true" d="M0,0h0v0h0Z" pointer-events="none"/><g><g class="mark-rule role-axis-grid" pointer-events="none"><line transform="translate(0,300)" x2="600" y2="0" stroke="#ddd" stroke-width="1" opacity="1"/><line transform="translate(0,250)" x2="600" y2="0" stroke="#ddd" stroke-width="1" opacity="1"/><line transform="translate(0,200)" x2="600" y2="0" stroke="#ddd" stroke-width="1" opacity="1"/><line transform="translate(0,150)" x2="600" y2="0" stroke="#ddd" stroke-width="1" opacity="1"/><line transform="translate(0,100)" x2="600" y2="0" stroke="#ddd" stroke-width="1" opacity="1"/><line transform="translate(0,50)" x2="600" y2="0" stroke="#ddd" stroke-width="1" opacity="1"/><line transform="translate(0,0)" x2="600" y2="0" stroke="#ddd" stroke-width="1" opacity="1"/></g></g><path class="foreground" aria-hidden="true" d="" pointer-events="none" display="none"/></g></g><g class="mark-group role-axis" role="graphics-symbol" aria-roledescription="axis" aria-label="X-axis titled '年' for a discrete scale with 30 values: 1996, 1997, 1998, 1999, 2000, ending with 2025"><g transform="translate(0.5,300.5)"><path class="background" aria-hidden="true" d="M0,0h0v0h0Z" pointer-events="none"/><g><g class="mark-rule role-axis-tick" pointer-events="none"><line transform="translate(10,0)" x2="0" y2="5" stroke="#888" stroke-width="1" opacity="1"/><line transform="translate(30,0)" x2="0" y2="5" stroke="#888" stroke-width="1" opacity="1"/><line transform="translate(50,0)" x2="0" y2="5" stroke="#888" stroke-width="1" opacity="1"/><line transform="translate(70,0)" x2="0" y2="5" stroke="#888" stroke-width="1" opacity="1"/><line transform="translate(90,0)" x2="0" y2="5" stroke="#888" stroke-width="1" opacity="1"/><line transform="translate(110,0)" x2="0" y2="5" stroke="#888" stroke-width="1" opacity="1"/><line transform="translate(130,0)" x2="0" y2="5" stroke="#888" stroke-width="1" opacity="1"/><line transform="translate(150,0)" x2="0" y2="5" stroke="#888" stroke-width="1" opacity="1"/><line transform="translate(170,0)" x2="0" y2="5" stroke="#888" stroke-width="1" opacity="1"/><line transform="translate(190,0)" x2="0" y2="5" stroke="#888" stroke-width="1" opacity="1"/><line transform="translate(210,0)" x2="0" y2="5" stroke="#888" stroke-width="1" opacity="1"/><line transform="translate(230,0)" x2="0" y2="5" stroke="#888" stroke-width="1" opacity="1"/><line transform="translate(250,0)" x2="0" y2="5" stroke="#888" stroke-width="1" opacity="1"/><line transform="translate(270,0)" x2="0" y2="5" stroke="#888" stroke-width="1" opacity="1"/><line transform="translate(290,0)" x2="0" y2="5" stroke="#888" stroke-width="1" opacity="1"/><line transform="translate(310,0)" x2="0" y2="5" stroke="#888" stroke-width="1" opacity="1"/><line transform="translate(330,0)" x2="0" y2="5" stroke="#888" stroke-width="1" opacity="1"/><line transform="translate(350,0)" x2="0" y2="5" stroke="#888" stroke-width="1" opacity="1"/><line transform="translate(370,0)" x2="0" y2="5" stroke="#888" stroke-width="1" opacity="1"/><line transform="translate(390,0)" x2="0" y2="5" stroke="#888" stroke-width="1" opacity="1"/><line transform="translate(410,0)" x2="0" y2="5" stroke="#888" stroke-width="1" opacity="1"/><line transform="translate(430,0)" x2="0" y2="5" stroke="#888" stroke-width="1" opacity="1"/><line transform="translate(450,0)" x2="0" y2="5" stroke="#888" stroke-width="1" opacity="1"/><line transform="translate(470,0)" x2="0" y2="5" stroke="#888" stroke-width="1" opacity="1"/><line transform="translate(490,0)" x2="0" y2="5" stroke="#888" stroke-width="1" opacity="1"/><line transform="translate(510,0)" x2="0" y2="5" stroke="#888" stroke-width="1" opacity="1"/><line transform="translate(530,0)" x2="0" y2="5" stroke="#888" stroke-width="1" opacity="1"/><line transform="translate(550,0)" x2="0" y2="5" stroke="#888" stroke-width="1" opacity="1"/><line transform="translate(570,0)" x2="0" y2="5" stroke="#888" stroke-width="1" opacity="1"/><line transform="translate(590,0)" x2="0" y2="5" stroke="#888" stroke-width="1" opacity="1"/></g><g class="mark-text role-axis-label" pointer-events="none"><text text-anchor="end" transform="translate(10,7) rotate(270) translate(0,3)" font-family="sans-serif" font-size="10px" fill="#000" opacity="1">1996</text><text text-anchor="end" transform="translate(30,7) rotate(270) translate(0,3)" font-family="sans-serif" font-size="10px" fill="#000" opacity="1">1997</text><text text-anchor="end" transform="translate(50,7) rotate(270) translate(0,3)" font-family="sans-serif" font-size="10px" fill="#000" opacity="1">1998</text><text text-anchor="end" transform="translate(70,7) rotate(270) translate(0,3)" font-family="sans-serif" font-size="10px" fill="#000" opacity="1">1999</text><text text-anchor="end" transform="translate(90,7) rotate(270) translate(0,3)" font-family="sans-serif" font-size="10px" fill="#000" opacity="1">2000</text><text text-anchor="end" transform="translate(110,7) rotate(270) translate(0,3)" font-family="sans-serif" font-size="10px" fill="#000" opacity="1">2001</text><text text-anchor="end" transform="translate(130,7) rotate(270) translate(0,3)" font-family="sans-serif" font-size="10px" fill="#000" opacity="1">2002</text><text text-anchor="end" transform="translate(150,7) rotate(270) translate(0,3)" font-family="sans-serif" font-size="10px" fill="#000" opacity="1">2003</text><text text-anchor="end" transform="translate(170,7) rotate(270) translate(0,3)" font-family="sans-serif" font-size="10px" fill="#000" opacity="1">2004</text><text text-anchor="end" transform="translate(190,7) rotate(270) translate(0,3)" font-family="sans-serif" font-size="10px" fill="#000" opacity="1">2005</text><text text-anchor="end" transform="translate(210,7) rotate(270) translate(0,3)" font-family="sans-serif" font-size="10px" fill="#000" opacity="1">2006</text><text text-anchor="end" transform="translate(230,7) rotate(270) translate(0,3)" font-family="sans-serif" font-size="10px" fill="#000" opacity="1">2007</text><text text-anchor="end" transform="translate(250,7) rotate(270) translate(0,3)" font-family="sans-serif" font-size="10px" fill="#000" opacity="1">2008</text><text text-anchor="end" transform="translate(270,7) rotate(270) translate(0,3)" font-family="sans-serif" font-size="10px" fill="#000" opacity="1">2009</text><text text-anchor="end" transform="translate(290,7) rotate(270) translate(0,3)" font-family="sans-serif" font-size="10px" fill="#000" opacity="1">2010</text><text text-anchor="end" transform="translate(310,7) rotate(270) translate(0,3)" font-family="sans-serif" font-size="10px" fill="#000" opacity="1">2011</text><text text-anchor="end" transform="translate(330,7) rotate(270) translate(0,3)" font-family="sans-serif" font-size="10px" fill="#000" opacity="1">2012</text><text text-anchor="end" transform="translate(350,7) rotate(270) translate(0,3)" font-family="sans-serif" font-size="10px" fill="#000" opacity="1">2013</text><text text-anchor="end" transform="translate(370,7) rotate(270) translate(0,3)" font-family="sans-serif" font-size="10px" fill="#000" opacity="1">2014</text><text text-anchor="end" transform="translate(390,7) rotate(270) translate(0,3)" font-family="sans-serif" font-size="10px" fill="#000" opacity="1">2015</text><text text-anchor="end" transform="translate(410,7) rotate(270) translate(0,3)" font-family="sans-serif" font-size="10px" fill="#000" opacity="1">2016</text><text text-anchor="end" transform="translate(430,7) rotate(270) translate(0,3)" font-family="sans-serif" font-size="10px" fill="#000" opacity="1">2017</text><text text-anchor="end" transform="translate(450,7) rotate(270) translate(0,3)" font-family="sans-serif" font-size="10px" fill="#000" opacity="1">2018</text><text text-anchor="end" transform="translate(470,7) rotate(270) translate(0,3)" font-family="sans-serif" font-size="10px" fill="#000" opacity="1">2019</text><text text-anchor="end" transform="translate(490,7) rotate(270) translate(0,3)" font-family="sans-serif" font-size="10px" fill="#000" opacity="1">2020</text><text text-anchor="end" transform="translate(510,7) rotate(270) translate(0,3)" font-family="sans-serif" font-size="10px" fill="#000" opacity="1">2021</text><text text-anchor="end" transform="translate(530,7) rotate(270) translate(0,3)" font-family="sans-serif" font-size="10px" fill="#000" opacity="1">2022</text><text text-anchor="end" transform="translate(550,7) rotate(270) translate(0,3)" font-family="sans-serif" font-size="10px" fill="#000" opacity="1">2023</text><text text-anchor="end" transform="translate(570,7) rotate(270) translate(0,3)" font-family="sans-serif" font-size="10px" fill="#000" opacity="1">2024</text><text text-anchor="end" transform="translate(590,7) rotate(270) translate(0,3)" font-family="sans-serif" font-size="10px" fill="#000" opacity="1">2025</text></g><g class="mark-rule role-axis-domain" pointer-events="none"><line transform="translate(0,0)" x2="600" y2="0" stroke="#888" stroke-width="1" opacity="1"/></g><g class="mark-text role-axis-title" pointer-events="none"><text text-anchor="middle" transform="translate(300,42.24609375)" font-family="sans-serif" font-size="11px" font-weight="bold" fill="#000" opacity="1">年</text></g></g><path class="foreground" aria-hidden="true" d="" pointer-events="none" display="none"/></g></g><g class="mark-group role-axis" role="graphics-symbol" aria-roledescription="axis" aria-label="Y-axis titled '年率算術ボラティリティ' for a linear scale with values from 0% to 30%"><g transform="translate(0.5,0.5)"><path class="background" aria-hidden="true" d="M0,0h0v0h0Z" pointer-events="none"/><g><g class="mark-rule role-axis-tick" pointer-events="none"><line transform="translate(0,300)" x2="-5" y2="0" stroke="#888" stroke-width="1" opacity="1"/><line transform="translate(0,250)" x2="-5" y2="0" stroke="#888" stroke-width="1" opacity="1"/><line transform="translate(0,200)" x2="-5" y2="0" stroke="#888" stroke-width="1" opacity="1"/><line transform="translate(0,150)" x2="-5" y2="0" stroke="#888" stroke-width="1" opacity="1"/><line transform="translate(0,100)" x2="-5" y2="0" stroke="#888" stroke-width="1" opacity="1"/><line transform="translate(0,50)" x2="-5" y2="0" stroke="#888" stroke-width="1" opacity="1"/><line transform="translate(0,0)" x2="-5" y2="0" stroke="#888" stroke-width="1" opacity="1"/></g><g class="mark-text role-axis-label" pointer-events="none"><text text-anchor="end" transform="translate(-7,303)" font-family="sans-serif" font-size="10px" fill="#000" opacity="1">0%</text><text text-anchor="end" transform="translate(-7,252.99999999999997)" font-family="sans-serif" font-size="10px" fill="#000" opacity="1">5%</text><text text-anchor="end" transform="translate(-7,203)" font-family="sans-serif" font-size="10px" fill="#000" opacity="1">10%</text><text text-anchor="end" transform="translate(-7,153)" font-family="sans-serif" font-size="10px" fill="#000" opacity="1">15%</text><text text-anchor="end" transform="translate(-7,102.99999999999997)" font-family="sans-serif" font-size="10px" fill="#000" opacity="1">20%</text><text text-anchor="end" transform="translate(-7,52.999999999999986)" font-family="sans-serif" font-size="10px" fill="#000" opacity="1">25%</text><text text-anchor="end" transform="translate(-7,3)" font-family="sans-serif" font-size="10px" fill="#000" opacity="1">30%</text></g><g class="mark-rule role-axis-domain" pointer-events="none"><line transform="translate(0,300)" x2="0" y2="-300" stroke="#888" stroke-width="1" opacity="1"/></g><g class="mark-text role-axis-title" pointer-events="none"><text text-anchor="middle" transform="translate(-31.0146484375,150) rotate(-90) translate(0,-2)" font-family="sans-serif" font-size="11px" font-weight="bold" fill="#000" opacity="1">年率算術ボラティリティ</text></g></g><path class="foreground" aria-hidden="true" d="" pointer-events="none" display="none"/></g></g><g class="mark-group role-scope layer_0_pathgroup" role="graphics-object" aria-roledescription="group mark container"><g transform="translate(0,0)"><path class="background" aria-hidden="true" d="M0,0h600v300h-600Z"/><g><g class="mark-line role-mark layer_0_marks" role="graphics-object" aria-roledescription="line mark container"><path aria-label="年: 1996; 年率算術ボラティリティ: 10.882193%; アセット: S&amp;P 500; Year: 1996; Asset: S&amp;P 500; Annual Arithmetic Volatility: 10.88%" role="graphics-symbol" aria-roledescription="line mark" d="M10,191.178L30,140.562L50,85.025L70,168.931L90,128.45L110,101.395L130,93.501L150,186.065L170,226.97L190,220.803L210,243.638L230,203.439L250,89.836L270,77.215L290,107.403L310,140.597L330,194.789L350,215.177L370,217.424L390,163.376L410,197.131L430,260.64L450,146.715L470,171.076L490,40.522L510,189.557L530,69.986L550,152.641L570,193.272L590,190.085" stroke="#1f77b4" stroke-width="2"/></g></g><path class="foreground" aria-hidden="true" d="" display="none"/></g><g transform="translate(0,0)"><path class="background" aria-hidden="true" d="M0,0h600v300h-600Z"/><g><g class="mark-line role-mark layer_0_marks" role="graphics-object" aria-roledescription="line mark container"><path aria-label="年: 2008; 年率算術ボラティリティ: 29.406918%; アセット: ACWI (Orukan); Year: 2008; Asset: ACWI (Orukan); Annual Arithmetic Volatility: 29.41%" role="graphics-symbol" aria-roledescription="line mark" d="M250,5.931L270,31.317L290,81.47L310,108.257L330,162.541L350,209.027L370,203.83L390,163.386L410,193.543L430,273.823L450,164.119L470,172.736L490,48.325L510,205.258L530,84.4L550,143.097L570,202.673L590,212.207" stroke="#ff7f0e" stroke-width="2"/></g></g><path class="foreground" aria-hidden="true" d="" display="none"/></g></g><g class="mark-symbol role-mark layer_1_marks" role="graphics-object" aria-roledescription="symbol mark container"><path aria-label="年: 1996; 年率算術ボラティリティ: 10.882193%; アセット: S&amp;P 500; Year: 1996; Asset: S&amp;P 500; Annual Arithmetic Volatility: 10.88%" role="graphics-symbol" aria-roledescription="point" transform="translate(10,191.17806833824486)" d="M2.739,0A2.739,2.739,0,1,1,-2.739,0A2.739,2.739,0,1,1,2.739,0" fill="#1f77b4" stroke-width="2" opacity="1"/><path aria-label="年: 1997; 年率算術ボラティリティ: 15.943751%; アセット: S&amp;P 500; Year: 1997; Asset: S&amp;P 500; Annual Arithmetic Volatility: 15.94%" role="graphics-symbol" aria-roledescription="point" transform="translate(30,140.56248681369664)" d="M2.739,0A2.739,2.739,0,1,1,-2.739,0A2.739,2.739,0,1,1,2.739,0" fill="#1f77b4" stroke-width="2" opacity="1"/><path aria-label="年: 1998; 年率算術ボラティリティ: 21.497549%; アセット: S&amp;P 500; Year: 1998; Asset: S&amp;P 500; Annual Arithmetic Volatility: 21.50%" role="graphics-symbol" aria-roledescription="point" transform="translate(50,85.0245116321931)" d="M2.739,0A2.739,2.739,0,1,1,-2.739,0A2.739,2.739,0,1,1,2.739,0" fill="#1f77b4" stroke-width="2" opacity="1"/><path aria-label="年: 1999; 年率算術ボラティリティ: 13.106865%; アセット: S&amp;P 500; Year: 1999; Asset: S&amp;P 500; Annual Arithmetic Volatility: 13.11%" role="graphics-symbol" aria-roledescription="point" transform="translate(70,168.9313483191424)" d="M2.739,0A2.739,2.739,0,1,1,-2.739,0A2.739,2.739,0,1,1,2.739,0" fill="#1f77b4" stroke-width="2" opacity="1"/><path aria-label="年: 2000; 年率算術ボラティリティ: 17.154994%; アセット: S&amp;P 500; Year: 2000; Asset: S&amp;P 500; Annual Arithmetic Volatility: 17.15%" role="graphics-symbol" aria-roledescription="point" transform="translate(90,128.45006076509927)" d="M2.739,0A2.739,2.739,0,1,1,-2.739,0A2.739,2.739,0,1,1,2.739,0" fill="#1f77b4" stroke-width="2" opacity="1"/><path aria-label="年: 2001; 年率算術ボラティリティ: 19.860528%; アセット: S&amp;P 500; Year: 2001; Asset: S&amp;P 500; Annual Arithmetic Volatility: 19.86%" role="graphics-symbol" aria-roledescription="point" transform="translate(110,101.39472143454053)" d="M2.739,0A2.739,2.739,0,1,1,-2.739,0A2.739,2.739,0,1,1,2.739,0" fill="#1f77b4" stroke-width="2" opacity="1"/><path aria-label="年: 2002; 年率算術ボラティリティ: 20.649928%; アセット: S&amp;P 500; Year: 2002; Asset: S&amp;P 500; Annual Arithmetic Volatility: 20.65%" role="graphics-symbol" aria-roledescription="point" transform="translate(130,93.50071853862339)" d="M2.739,0A2.739,2.739,0,1,1,-2.739,0A2.739,2.739,0,1,1,2.739,0" fill="#1f77b4" stroke-width="2" opacity="1"/><path aria-label="年: 2003; 年率算術ボラティリティ: 11.393538%; アセット: S&amp;P 500; Year: 2003; Asset: S&amp;P 500; Annual Arithmetic Volatility: 11.39%" role="graphics-symbol" aria-roledescription="point" transform="translate(150,186.06461698941828)" d="M2.739,0A2.739,2.739,0,1,1,-2.739,0A2.739,2.739,0,1,1,2.739,0" fill="#1f77b4" stroke-width="2" opacity="1"/><path aria-label="年: 2004; 年率算術ボラティリティ: 7.303018%; アセット: S&amp;P 500; Year: 2004; Asset: S&amp;P 500; Annual Arithmetic Volatility: 7.30%" role="graphics-symbol" aria-roledescription="point" transform="translate(170,226.9698235055616)" d="M2.739,0A2.739,2.739,0,1,1,-2.739,0A2.739,2.739,0,1,1,2.739,0" fill="#1f77b4" stroke-width="2" opacity="1"/><path aria-label="年: 2005; 年率算術ボラティリティ: 7.919701%; アセット: S&amp;P 500; Year: 2005; Asset: S&amp;P 500; Annual Arithmetic Volatility: 7.92%" role="graphics-symbol" aria-roledescription="point" transform="translate(190,220.80299144418237)" d="M2.739,0A2.739,2.739,0,1,1,-2.739,0A2.739,2.739,0,1,1,2.739,0" fill="#1f77b4" stroke-width="2" opacity="1"/><path aria-label="年: 2006; 年率算術ボラティリティ: 5.636221%; アセット: S&amp;P 500; Year: 2006; Asset: S&amp;P 500; Annual Arithmetic Volatility: 5.64%" role="graphics-symbol" aria-roledescription="point" transform="translate(210,243.63779204854777)" d="M2.739,0A2.739,2.739,0,1,1,-2.739,0A2.739,2.739,0,1,1,2.739,0" fill="#1f77b4" stroke-width="2" opacity="1"/><path aria-label="年: 2007; 年率算術ボラティリティ: 9.656137%; アセット: S&amp;P 500; Year: 2007; Asset: S&amp;P 500; Annual Arithmetic Volatility: 9.66%" role="graphics-symbol" aria-roledescription="point" transform="translate(230,203.4386269830543)" d="M2.739,0A2.739,2.739,0,1,1,-2.739,0A2.739,2.739,0,1,1,2.739,0" fill="#1f77b4" stroke-width="2" opacity="1"/><path aria-label="年: 2008; 年率算術ボラティリティ: 21.016434%; アセット: S&amp;P 500; Year: 2008; Asset: S&amp;P 500; Annual Arithmetic Volatility: 21.02%" role="graphics-symbol" aria-roledescription="point" transform="translate(250,89.83566268621253)" d="M2.739,0A2.739,2.739,0,1,1,-2.739,0A2.739,2.739,0,1,1,2.739,0" fill="#1f77b4" stroke-width="2" opacity="1"/><path aria-label="年: 2009; 年率算術ボラティリティ: 22.278531%; アセット: S&amp;P 500; Year: 2009; Asset: S&amp;P 500; Annual Arithmetic Volatility: 22.28%" role="graphics-symbol" aria-roledescription="point" transform="translate(270,77.21469462223905)" d="M2.739,0A2.739,2.739,0,1,1,-2.739,0A2.739,2.739,0,1,1,2.739,0" fill="#1f77b4" stroke-width="2" opacity="1"/><path aria-label="年: 2010; 年率算術ボラティリティ: 19.259680%; アセット: S&amp;P 500; Year: 2010; Asset: S&amp;P 500; Annual Arithmetic Volatility: 19.26%" role="graphics-symbol" aria-roledescription="point" transform="translate(290,107.40320348887829)" d="M2.739,0A2.739,2.739,0,1,1,-2.739,0A2.739,2.739,0,1,1,2.739,0" fill="#1f77b4" stroke-width="2" opacity="1"/><path aria-label="年: 2011; 年率算術ボラティリティ: 15.940266%; アセット: S&amp;P 500; Year: 2011; Asset: S&amp;P 500; Annual Arithmetic Volatility: 15.94%" role="graphics-symbol" aria-roledescription="point" transform="translate(310,140.5973381443212)" d="M2.739,0A2.739,2.739,0,1,1,-2.739,0A2.739,2.739,0,1,1,2.739,0" fill="#1f77b4" stroke-width="2" opacity="1"/><path aria-label="年: 2012; 年率算術ボラティリティ: 10.521095%; アセット: S&amp;P 500; Year: 2012; Asset: S&amp;P 500; Annual Arithmetic Volatility: 10.52%" role="graphics-symbol" aria-roledescription="point" transform="translate(330,194.78904963944004)" d="M2.739,0A2.739,2.739,0,1,1,-2.739,0A2.739,2.739,0,1,1,2.739,0" fill="#1f77b4" stroke-width="2" opacity="1"/><path aria-label="年: 2013; 年率算術ボラティリティ: 8.482284%; アセット: S&amp;P 500; Year: 2013; Asset: S&amp;P 500; Annual Arithmetic Volatility: 8.48%" role="graphics-symbol" aria-roledescription="point" transform="translate(350,215.17715603825508)" d="M2.739,0A2.739,2.739,0,1,1,-2.739,0A2.739,2.739,0,1,1,2.739,0" fill="#1f77b4" stroke-width="2" opacity="1"/><path aria-label="年: 2014; 年率算術ボラティリティ: 8.257601%; アセット: S&amp;P 500; Year: 2014; Asset: S&amp;P 500; Annual Arithmetic Volatility: 8.26%" role="graphics-symbol" aria-roledescription="point" transform="translate(370,217.42399055180363)" d="M2.739,0A2.739,2.739,0,1,1,-2.739,0A2.739,2.739,0,1,1,2.739,0" fill="#1f77b4" stroke-width="2" opacity="1"/><path aria-label="年: 2015; 年率算術ボラティリティ: 13.662384%; アセット: S&amp;P 500; Year: 2015; Asset: S&amp;P 500; Annual Arithmetic Volatility: 13.66%" role="graphics-symbol" aria-roledescription="point" transform="translate(390,163.37616079068198)" d="M2.739,0A2.739,2.739,0,1,1,-2.739,0A2.739,2.739,0,1,1,2.739,0" fill="#1f77b4" stroke-width="2" opacity="1"/><path aria-label="年: 2016; 年率算術ボラティリティ: 10.286886%; アセット: S&amp;P 500; Year: 2016; Asset: S&amp;P 500; Annual Arithmetic Volatility: 10.29%" role="graphics-symbol" aria-roledescription="point" transform="translate(410,197.13113544408716)" d="M2.739,0A2.739,2.739,0,1,1,-2.739,0A2.739,2.739,0,1,1,2.739,0" fill="#1f77b4" stroke-width="2" opacity="1"/><path aria-label="年: 2017; 年率算術ボラティリティ: 3.935998%; アセット: S&amp;P 500; Year: 2017; Asset: S&amp;P 500; Annual Arithmetic Volatility: 3.94%" role="graphics-symbol" aria-roledescription="point" transform="translate(430,260.640018198855)" d="M2.739,0A2.739,2.739,0,1,1,-2.739,0A2.739,2.739,0,1,1,2.739,0" fill="#1f77b4" stroke-width="2" opacity="1"/><path aria-label="年: 2018; 年率算術ボラティリティ: 15.328532%; アセット: S&amp;P 500; Year: 2018; Asset: S&amp;P 500; Annual Arithmetic Volatility: 15.33%" role="graphics-symbol" aria-roledescription="point" transform="translate(450,146.7146803226137)" d="M2.739,0A2.739,2.739,0,1,1,-2.739,0A2.739,2.739,0,1,1,2.739,0" fill="#1f77b4" stroke-width="2" opacity="1"/><path aria-label="年: 2019; 年率算術ボラティリティ: 12.892411%; アセット: S&amp;P 500; Year: 2019; Asset: S&amp;P 500; Annual Arithmetic Volatility: 12.89%" role="graphics-symbol" aria-roledescription="point" transform="translate(470,171.07588802721628)" d="M2.739,0A2.739,2.739,0,1,1,-2.739,0A2.739,2.739,0,1,1,2.739,0" fill="#1f77b4" stroke-width="2" opacity="1"/><path aria-label="年: 2020; 年率算術ボラティリティ: 25.947797%; アセット: S&amp;P 500; Year: 2020; Asset: S&amp;P 500; Annual Arithmetic Volatility: 25.95%" role="graphics-symbol" aria-roledescription="point" transform="translate(490,40.52202784932296)" d="M2.739,0A2.739,2.739,0,1,1,-2.739,0A2.739,2.739,0,1,1,2.739,0" fill="#1f77b4" stroke-width="2" opacity="1"/><path aria-label="年: 2021; 年率算術ボラティリティ: 11.044325%; アセット: S&amp;P 500; Year: 2021; Asset: S&amp;P 500; Annual Arithmetic Volatility: 11.04%" role="graphics-symbol" aria-roledescription="point" transform="translate(510,189.55675165800193)" d="M2.739,0A2.739,2.739,0,1,1,-2.739,0A2.739,2.739,0,1,1,2.739,0" fill="#1f77b4" stroke-width="2" opacity="1"/><path aria-label="年: 2022; 年率算術ボラティリティ: 23.001422%; アセット: S&amp;P 500; Year: 2022; Asset: S&amp;P 500; Annual Arithmetic Volatility: 23.00%" role="graphics-symbol" aria-roledescription="point" transform="translate(530,69.98577615212885)" d="M2.739,0A2.739,2.739,0,1,1,-2.739,0A2.739,2.739,0,1,1,2.739,0" fill="#1f77b4" stroke-width="2" opacity="1"/><path aria-label="年: 2023; 年率算術ボラティリティ: 14.735947%; アセット: S&amp;P 500; Year: 2023; Asset: S&amp;P 500; Annual Arithmetic Volatility: 14.74%" role="graphics-symbol" aria-roledescription="point" transform="translate(550,152.64053182034195)" d="M2.739,0A2.739,2.739,0,1,1,-2.739,0A2.739,2.739,0,1,1,2.739,0" fill="#1f77b4" stroke-width="2" opacity="1"/><path aria-label="年: 2024; 年率算術ボラティリティ: 10.672810%; アセット: S&amp;P 500; Year: 2024; Asset: S&amp;P 500; Annual Arithmetic Volatility: 10.67%" role="graphics-symbol" aria-roledescription="point" transform="translate(570,193.27189869254096)" d="M2.739,0A2.739,2.739,0,1,1,-2.739,0A2.739,2.739,0,1,1,2.739,0" fill="#1f77b4" stroke-width="2" opacity="1"/><path aria-label="年: 2025; 年率算術ボラティリティ: 10.991491%; アセット: S&amp;P 500; Year: 2025; Asset: S&amp;P 500; Annual Arithmetic Volatility: 10.99%" role="graphics-symbol" aria-roledescription="point" transform="translate(590,190.08509192739885)" d="M2.739,0A2.739,2.739,0,1,1,-2.739,0A2.739,2.739,0,1,1,2.739,0" fill="#1f77b4" stroke-width="2" opacity="1"/><path aria-label="年: 2008; 年率算術ボラティリティ: 29.406918%; アセット: ACWI (Orukan); Year: 2008; Asset: ACWI (Orukan); Annual Arithmetic Volatility: 29.41%" role="graphics-symbol" aria-roledescription="point" transform="translate(250,5.930824228519549)" d="M2.739,0A2.739,2.739,0,1,1,-2.739,0A2.739,2.739,0,1,1,2.739,0" fill="#ff7f0e" stroke-width="2" opacity="1"/><path aria-label="年: 2009; 年率算術ボラティリティ: 26.868260%; アセット: ACWI (Orukan); Year: 2009; Asset: ACWI (Orukan); Annual Arithmetic Volatility: 26.87%" role="graphics-symbol" aria-roledescription="point" transform="translate(270,31.317403016785374)" d="M2.739,0A2.739,2.739,0,1,1,-2.739,0A2.739,2.739,0,1,1,2.739,0" fill="#ff7f0e" stroke-width="2" opacity="1"/><path aria-label="年: 2010; 年率算術ボラティリティ: 21.853014%; アセット: ACWI (Orukan); Year: 2010; Asset: ACWI (Orukan); Annual Arithmetic Volatility: 21.85%" role="graphics-symbol" aria-roledescription="point" transform="translate(290,81.46985704340553)" d="M2.739,0A2.739,2.739,0,1,1,-2.739,0A2.739,2.739,0,1,1,2.739,0" fill="#ff7f0e" stroke-width="2" opacity="1"/><path aria-label="年: 2011; 年率算術ボラティリティ: 19.174322%; アセット: ACWI (Orukan); Year: 2011; Asset: ACWI (Orukan); Annual Arithmetic Volatility: 19.17%" role="graphics-symbol" aria-roledescription="point" transform="translate(310,108.25677732923383)" d="M2.739,0A2.739,2.739,0,1,1,-2.739,0A2.739,2.739,0,1,1,2.739,0" fill="#ff7f0e" stroke-width="2" opacity="1"/><path aria-label="年: 2012; 年率算術ボラティリティ: 13.745921%; アセット: ACWI (Orukan); Year: 2012; Asset: ACWI (Orukan); Annual Arithmetic Volatility: 13.75%" role="graphics-symbol" aria-roledescription="point" transform="translate(330,162.540794413507)" d="M2.739,0A2.739,2.739,0,1,1,-2.739,0A2.739,2.739,0,1,1,2.739,0" fill="#ff7f0e" stroke-width="2" opacity="1"/><path aria-label="年: 2013; 年率算術ボラティリティ: 9.097262%; アセット: ACWI (Orukan); Year: 2013; Asset: ACWI (Orukan); Annual Arithmetic Volatility: 9.10%" role="graphics-symbol" aria-roledescription="point" transform="translate(350,209.02737558337742)" d="M2.739,0A2.739,2.739,0,1,1,-2.739,0A2.739,2.739,0,1,1,2.739,0" fill="#ff7f0e" stroke-width="2" opacity="1"/><path aria-label="年: 2014; 年率算術ボラティリティ: 9.617039%; アセット: ACWI (Orukan); Year: 2014; Asset: ACWI (Orukan); Annual Arithmetic Volatility: 9.62%" role="graphics-symbol" aria-roledescription="point" transform="translate(370,203.82960940900045)" d="M2.739,0A2.739,2.739,0,1,1,-2.739,0A2.739,2.739,0,1,1,2.739,0" fill="#ff7f0e" stroke-width="2" opacity="1"/><path aria-label="年: 2015; 年率算術ボラティリティ: 13.661357%; アセット: ACWI (Orukan); Year: 2015; Asset: ACWI (Orukan); Annual Arithmetic Volatility: 13.66%" role="graphics-symbol" aria-roledescription="point" transform="translate(390,163.38643202710563)" d="M2.739,0A2.739,2.739,0,1,1,-2.739,0A2.739,2.739,0,1,1,2.739,0" fill="#ff7f0e" stroke-width="2" opacity="1"/><path aria-label="年: 2016; 年率算術ボラティリティ: 10.645677%; アセット: ACWI (Orukan); Year: 2016; Asset: ACWI (Orukan); Annual Arithmetic Volatility: 10.65%" role="graphics-symbol" aria-roledescription="point" transform="translate(410,193.5432338411199)" d="M2.739,0A2.739,2.739,0,1,1,-2.739,0A2.739,2.739,0,1,1,2.739,0" fill="#ff7f0e" stroke-width="2" opacity="1"/><path aria-label="年: 2017; 年率算術ボラティリティ: 2.617678%; アセット: ACWI (Orukan); Year: 2017; Asset: ACWI (Orukan); Annual Arithmetic Volatility: 2.62%" role="graphics-symbol" aria-roledescription="point" transform="translate(430,273.8232247234061)" d="M2.739,0A2.739,2.739,0,1,1,-2.739,0A2.739,2.739,0,1,1,2.739,0" fill="#ff7f0e" stroke-width="2" opacity="1"/><path aria-label="年: 2018; 年率算術ボラティリティ: 13.588056%; アセット: ACWI (Orukan); Year: 2018; Asset: ACWI (Orukan); Annual Arithmetic Volatility: 13.59%" role="graphics-symbol" aria-roledescription="point" transform="translate(450,164.11944451304947)" d="M2.739,0A2.739,2.739,0,1,1,-2.739,0A2.739,2.739,0,1,1,2.739,0" fill="#ff7f0e" stroke-width="2" opacity="1"/><path aria-label="年: 2019; 年率算術ボラティリティ: 12.726396%; アセット: ACWI (Orukan); Year: 2019; Asset: ACWI (Orukan); Annual Arithmetic Volatility: 12.73%" role="graphics-symbol" aria-roledescription="point" transform="translate(470,172.73603540602105)" d="M2.739,0A2.739,2.739,0,1,1,-2.739,0A2.739,2.739,0,1,1,2.739,0" fill="#ff7f0e" stroke-width="2" opacity="1"/><path aria-label="年: 2020; 年率算術ボラティリティ: 25.167489%; アセット: ACWI (Orukan); Year: 2020; Asset: ACWI (Orukan); Annual Arithmetic Volatility: 25.17%" role="graphics-symbol" aria-roledescription="point" transform="translate(490,48.32511113472676)" d="M2.739,0A2.739,2.739,0,1,1,-2.739,0A2.739,2.739,0,1,1,2.739,0" fill="#ff7f0e" stroke-width="2" opacity="1"/><path aria-label="年: 2021; 年率算術ボラティリティ: 9.474154%; アセット: ACWI (Orukan); Year: 2021; Asset: ACWI (Orukan); Annual Arithmetic Volatility: 9.47%" role="graphics-symbol" aria-roledescription="point" transform="translate(510,205.25845702940842)" d="M2.739,0A2.739,2.739,0,1,1,-2.739,0A2.739,2.739,0,1,1,2.739,0" fill="#ff7f0e" stroke-width="2" opacity="1"/><path aria-label="年: 2022; 年率算術ボラティリティ: 21.559973%; アセット: ACWI (Orukan); Year: 2022; Asset: ACWI (Orukan); Annual Arithmetic Volatility: 21.56%" role="graphics-symbol" aria-roledescription="point" transform="translate(530,84.40026535988359)" d="M2.739,0A2.739,2.739,0,1,1,-2.739,0A2.739,2.739,0,1,1,2.739,0" fill="#ff7f0e" stroke-width="2" opacity="1"/><path aria-label="年: 2023; 年率算術ボラティリティ: 15.690325%; アセット: ACWI (Orukan); Year: 2023; Asset: ACWI (Orukan); Annual Arithmetic Volatility: 15.69%" role="graphics-symbol" aria-roledescription="point" transform="translate(550,143.09674560387052)" d="M2.739,0A2.739,2.739,0,1,1,-2.739,0A2.739,2.739,0,1,1,2.739,0" fill="#ff7f0e" stroke-width="2" opacity="1"/><path aria-label="年: 2024; 年率算術ボラティリティ: 9.732730%; アセット: ACWI (Orukan); Year: 2024; Asset: ACWI (Orukan); Annual Arithmetic Volatility: 9.73%" role="graphics-symbol" aria-roledescription="point" transform="translate(570,202.6726994719649)" d="M2.739,0A2.739,2.739,0,1,1,-2.739,0A2.739,2.739,0,1,1,2.739,0" fill="#ff7f0e" stroke-width="2" opacity="1"/><path aria-label="年: 2025; 年率算術ボラティリティ: 8.779331%; アセット: ACWI (Orukan); Year: 2025; Asset: ACWI (Orukan); Annual Arithmetic Volatility: 8.78%" role="graphics-symbol" aria-roledescription="point" transform="translate(590,212.20668748269875)" d="M2.739,0A2.739,2.739,0,1,1,-2.739,0A2.739,2.739,0,1,1,2.739,0" fill="#ff7f0e" stroke-width="2" opacity="1"/></g><g class="mark-group role-legend" role="graphics-symbol" aria-roledescription="legend" aria-label="Symbol legend for fill color and stroke color with 2 values: S&amp;P 500, ACWI (Orukan)"><g transform="translate(0,-31)"><path class="background" aria-hidden="true" d="M0,0h152v13h-152Z" pointer-events="none"/><g><g class="mark-group role-legend-entry"><g transform="translate(0,0)"><path class="background" aria-hidden="true" d="M0,0h0v0h0Z" pointer-events="none"/><g><g class="mark-group role-scope" role="graphics-object" aria-roledescription="group mark container"><g transform="translate(0,0.25)"><path class="background" aria-hidden="true" d="M0,0h55.2919921875v12.5h-55.2919921875Z" pointer-events="none" opacity="1"/><g><g class="mark-symbol role-legend-symbol" pointer-events="none"><path transform="translate(6,6)" d="M5,0A5,5,0,1,1,-5,0A5,5,0,1,1,5,0" fill="#1f77b4" stroke="#1f77b4" stroke-width="1.5" opacity="1"/></g><g class="mark-text role-legend-label" pointer-events="none"><text text-anchor="start" transform="translate(16,9)" font-family="sans-serif" font-size="10px" fill="#000" opacity="1">S&amp;P 500</text></g></g><path class="foreground" aria-hidden="true" d="" pointer-events="none" display="none"/></g><g transform="translate(67,0.25)"><path class="background" aria-hidden="true" d="M0,0h84.33984375v12.5h-84.33984375Z" pointer-events="none" opacity="1"/><g><g class="mark-symbol role-legend-symbol" pointer-events="none"><path transform="translate(6,6)" d="M5,0A5,5,0,1,1,-5,0A5,5,0,1,1,5,0" fill="#ff7f0e" stroke="#ff7f0e" stroke-width="1.5" opacity="1"/></g><g class="mark-text role-legend-label" pointer-events="none"><text text-anchor="start" transform="translate(16,9)" font-family="sans-serif" font-size="10px" fill="#000" opacity="1">ACWI (Orukan)</text></g></g><path class="foreground" aria-hidden="true" d="" pointer-events="none" display="none"/></g></g></g><path class="foreground" aria-hidden="true" d="" pointer-events="none" display="none"/></g></g></g><path class="foreground" aria-hidden="true" d="" pointer-events="none" display="none"/></g></g><g class="mark-group role-title"><g transform="translate(300,-48)"><path class="background" aria-hidden="true" d="M0,0h0v0h0Z" pointer-events="none"/><g><g class="mark-text role-title-text" role="graphics-symbol" aria-roledescription="title" aria-label="Title text '年率算術ボラティリティの推移'" pointer-events="none"><text text-anchor="middle" transform="translate(0,10)" font-family="sans-serif" font-size="13px" font-weight="bold" fill="#000" opacity="1">年率算術ボラティリティの推移</text></g></g><path class="foreground" aria-hidden="true" d="" pointer-events="none" display="none"/></g></g></g><path class="foreground" aria-hidden="true" d="" display="none"/></g></g></g></svg>