<svg xmlns="http://www.w3.org/2000/svg" xmlns:xlink="http://www.w3.org/1999/xlink" version="1.1" class="marks" width="743" height="462" viewBox="0 0 743 462"><rect width="743" height="462" fill="white"/><g fill="none" stroke-miterlimit="10" transform="translate(41,25)"><g class="mark-group role-frame root" role="graphics-object" aria-roledescription="group mark container"><g transform="translate(0,0)"><path class="background" aria-hidden="true" d="M0.5,0.5h600v400h-600Z" stroke="#ddd"/><g><g class="mark-group role-axis" aria-hidden="true"><g transform="translate(0.5,400.5)"><path class="background" aria-hidden="true" d="M0,0h0v0h0Z" pointer-events="none"/><g><g class="mark-rule role-axis-grid" pointer-events="none"><line transform="translate(0,-400)" x2="0" y2="400" stroke="#ddd" stroke-width="1" opacity="1"/><line transform="translate(60,-400)" x2="0" y2="400" stroke="#ddd" stroke-width="1" opacity="1"/><line transform="translate(120,-400)" x2="0" y2="400" stroke="#ddd" stroke-width="1" opacity="1"/><line transform="translate(180,-400)" x2="0" y2="400" stroke="#ddd" stroke-width="1" opacity="1"/><line transform="translate(240,-400)" x2="0" y2="400" stroke="#ddd" stroke-width="1" opacity="1"/><line transform="translate(300,-400)" x2="0" y2="400" stroke="#ddd" stroke-width="1" opacity="1"/><line transform="translate(360,-400)" x2="0" y2="400" stroke="#ddd" stroke-width="1" opacity="1"/><line transform="translate(420,-400)" x2="0" y2="400" stroke="#ddd" stroke-width="1" opacity="1"/><line transform="translate(480,-400)" x2="0" y2="400" stroke="#ddd" stroke-width="1" opacity="1"/><line transform="translate(540,-400)" x2="0" y2="400" stroke="#ddd" stroke-width="1" opacity="1"/><line transform="translate(600,-400)" x2="0" y2="400" stroke="#ddd" stroke-width="1" opacity="1"/></g></g><path class="foreground" aria-hidden="true" d="" pointer-events="none" display="none"/></g></g><g class="mark-group role-axis" aria-hidden="true"><g transform="translate(0.5,0.5)"><path class="background" aria-hidden="true" d="M0,0h0v0h0Z" pointer-events="none"/><g><g class="mark-rule role-axis-grid" pointer-events="none"><line transform="translate(0,400)" x2="600" y2="0" stroke="#ddd" stroke-width="1" opacity="1"/><line transform="translate(0,365)" x2="600" y2="0" stroke="#ddd" stroke-width="1" opacity="1"/><line transform="translate(0,340)" x2="600" y2="0" stroke="#ddd" stroke-width="1" opacity="1"/><line transform="translate(0,321)" x2="600" y2="0" stroke="#ddd" stroke-width="1" opacity="1"/><line transform="translate(0,305)" x2="600" y2="0" stroke="#ddd" stroke-width="1" opacity="1"/><line transform="translate(0,292)" x2="600" y2="0" stroke="#ddd" stroke-width="1" opacity="1"/><line transform="translate(0,280)" x2="600" y2="0" stroke="#ddd" stroke-width="1" opacity="1"/><line transform="translate(0,270)" x2="600" y2="0" stroke="#ddd" stroke-width="1" opacity="1"/><line transform="translate(0,261)" x2="600" y2="0" stroke="#ddd" stroke-width="1" opacity="1"/><line transform="translate(0,201)" x2="600" y2="0" stroke="#ddd" stroke-width="1" opacity="1"/><line transform="translate(0,166)" x2="600" y2="0" stroke="#ddd" stroke-width="1" opacity="1"/><line transform="translate(0,141)" x2="600" y2="0" stroke="#ddd" stroke-width="1" opacity="1"/><line transform="translate(0,122)" x2="600" y2="0" stroke="#ddd" stroke-width="1" opacity="1"/><line transform="translate(0,106)" x2="600" y2="0" stroke="#ddd" stroke-width="1" opacity="1"/><line transform="translate(0,93)" x2="600" y2="0" stroke="#ddd" stroke-width="1" opacity="1"/><line transform="translate(0,81)" x2="600" y2="0" stroke="#ddd" stroke-width="1" opacity="1"/><line transform="translate(0,71)" x2="600" y2="0" stroke="#ddd" stroke-width="1" opacity="1"/><line transform="translate(0,62)" x2="600" y2="0" stroke="#ddd" stroke-width="1" opacity="1"/><line transform="translate(0,2)" x2="600" y2="0" stroke="#ddd" stroke-width="1" opacity="1"/></g></g><path class="foreground" aria-hidden="true" d="" pointer-events="none" display="none"/></g></g><g class="mark-group role-axis" role="graphics-symbol" aria-roledescription="axis" aria-label="X-axis titled '経過年数 (年)' for a linear scale with values from 0 to 50"><g transform="translate(0.5,400.5)"><path class="background" aria-hidden="true" d="M0,0h0v0h0Z" pointer-events="none"/><g><g class="mark-rule role-axis-tick" pointer-events="none"><line transform="translate(0,0)" x2="0" y2="5" stroke="#888" stroke-width="1" opacity="1"/><line transform="translate(60,0)" x2="0" y2="5" stroke="#888" stroke-width="1" opacity="1"/><line transform="translate(120,0)" x2="0" y2="5" stroke="#888" stroke-width="1" opacity="1"/><line transform="translate(180,0)" x2="0" y2="5" stroke="#888" stroke-width="1" opacity="1"/><line transform="translate(240,0)" x2="0" y2="5" stroke="#888" stroke-width="1" opacity="1"/><line transform="translate(300,0)" x2="0" y2="5" stroke="#888" stroke-width="1" opacity="1"/><line transform="translate(360,0)" x2="0" y2="5" stroke="#888" stroke-width="1" opacity="1"/><line transform="translate(420,0)" x2="0" y2="5" stroke="#888" stroke-width="1" opacity="1"/><line transform="translate(480,0)" x2="0" y2="5" stroke="#888" stroke-width="1" opacity="1"/><line transform="translate(540,0)" x2="0" y2="5" stroke="#888" stroke-width="1" opacity="1"/><line transform="translate(600,0)" x2="0" y2="5" stroke="#888" stroke-width="1" opacity="1"/></g><g class="mark-text role-axis-label" pointer-events="none"><text text-anchor="start" transform="translate(0,15)" font-family="sans-serif" font-size="10px" fill="#000" opacity="1">0</text><text text-anchor="middle" transform="translate(60,15)" font-family="sans-serif" font-size="10px" fill="#000" opacity="1">5</text><text text-anchor="middle" transform="translate(120,15)" font-family="sans-serif" font-size="10px" fill="#000" opacity="1">10</text><text text-anchor="middle" transform="translate(180,15)" font-family="sans-serif" font-size="10px" fill="#000" opacity="1">15</text><text text-anchor="middle" transform="translate(240,15)" font-family="sans-serif" font-size="10px" fill="#000" opacity="1">20</text><text text-anchor="middle" transform="translate(300,15)" font-family="sans-serif" font-size="10px" fill="#000" opacity="1">25</text><text text-anchor="middle" transform="translate(360,15)" font-family="sans-serif" font-size="10px" fill="#000" opacity="1">30</text><text text-anchor="middle" transform="translate(420,15)" font-family="sans-serif" font-size="10px" fill="#000" opacity="1">35</text><text text-anchor="middle" transform="translate(480,15)" font-family="sans-serif" font-size="10px" fill="#000" opacity="1">40</text><text text-anchor="middle" transform="translate(540,15)" font-family="sans-serif" font-size="10px" fill="#000" opacity="1">45</text><text text-anchor="end" transform="translate(600,15)" font-family="sans-serif" font-size="10px" fill="#000" opacity="1">50</text></g><g class="mark-rule role-axis-domain" pointer-events="none"><line transform="translate(0,0)" x2="600" y2="0" stroke="#888" stroke-width="1" opacity="1"/></g><g class="mark-text role-axis-title" pointer-events="none"><text text-anchor="middle" transform="translate(300,30)" font-family="sans-serif" font-size="11px" font-weight="bold" fill="#000" opacity="1">経過年数 (年)</text></g></g><path class="foreground" aria-hidden="true" d="" pointer-events="none" display="none"/></g></g><g class="mark-group role-axis" role="graphics-symbol" aria-roledescription="axis" aria-label="Y-axis titled 'アセットインデックス' for a log scale with values from 0.2 to 20.5375773928"><g transform="translate(0.5,0.5)"><path class="background" aria-hidden="true" d="M0,0h0v0h0Z" pointer-events="none"/><g><g class="mark-rule role-axis-tick" pointer-events="none"><line transform="translate(0,400)" x2="-5" y2="0" stroke="#888" stroke-width="1" opacity="1"/><line transform="translate(0,365)" x2="-5" y2="0" stroke="#888" stroke-width="1" opacity="1"/><line transform="translate(0,340)" x2="-5" y2="0" stroke="#888" stroke-width="1" opacity="1"/><line transform="translate(0,321)" x2="-5" y2="0" stroke="#888" stroke-width="1" opacity="1"/><line transform="translate(0,305)" x2="-5" y2="0" stroke="#888" stroke-width="1" opacity="1"/><line transform="translate(0,292)" x2="-5" y2="0" stroke="#888" stroke-width="1" opacity="1"/><line transform="translate(0,280)" x2="-5" y2="0" stroke="#888" stroke-width="1" opacity="1"/><line transform="translate(0,270)" x2="-5" y2="0" stroke="#888" stroke-width="1" opacity="1"/><line transform="translate(0,261)" x2="-5" y2="0" stroke="#888" stroke-width="1" opacity="1"/><line transform="translate(0,201)" x2="-5" y2="0" stroke="#888" stroke-width="1" opacity="1"/><line transform="translate(0,166)" x2="-5" y2="0" stroke="#888" stroke-width="1" opacity="1"/><line transform="translate(0,141)" x2="-5" y2="0" stroke="#888" stroke-width="1" opacity="1"/><line transform="translate(0,122)" x2="-5" y2="0" stroke="#888" stroke-width="1" opacity="1"/><line transform="translate(0,106)" x2="-5" y2="0" stroke="#888" stroke-width="1" opacity="1"/><line transform="translate(0,93)" x2="-5" y2="0" stroke="#888" stroke-width="1" opacity="1"/><line transform="translate(0,81)" x2="-5" y2="0" stroke="#888" stroke-width="1" opacity="1"/><line transform="translate(0,71)" x2="-5" y2="0" stroke="#888" stroke-width="1" opacity="1"/><line transform="translate(0,62)" x2="-5" y2="0" stroke="#888" stroke-width="1" opacity="1"/><line transform="translate(0,2)" x2="-5" y2="0" stroke="#888" stroke-width="1" opacity="1"/></g><g class="mark-text role-axis-label" pointer-events="none"><text text-anchor="end" transform="translate(-7,403)" font-family="sans-serif" font-size="10px" fill="#000" opacity="1">0.2</text><text text-anchor="end" transform="translate(-7,367.9834299297199)" font-family="sans-serif" font-size="10px" fill="#000" opacity="1">0.3</text><text text-anchor="end" transform="translate(-7,343.13877808045675)" font-family="sans-serif" font-size="10px" fill="#000" opacity="1">0.4</text><text text-anchor="end" transform="translate(-7,323.86776895026856)" font-family="sans-serif" font-size="10px" fill="#000" opacity="1">0.5</text><text text-anchor="end" transform="translate(-7,308.1222080101766)" font-family="sans-serif" font-size="10px" fill="#000" opacity="1"/><text text-anchor="end" transform="translate(-7,294.80952592333097)" font-family="sans-serif" font-size="10px" fill="#000" opacity="1"/><text text-anchor="end" transform="translate(-7,283.2775561609135)" font-family="sans-serif" font-size="10px" fill="#000" opacity="1"/><text text-anchor="end" transform="translate(-7,273.1056379398965)" font-family="sans-serif" font-size="10px" fill="#000" opacity="1"/><text text-anchor="end" transform="translate(-7,264.0065470307253)" font-family="sans-serif" font-size="10px" fill="#000" opacity="1">1</text><text text-anchor="end" transform="translate(-7,204.14532511118202)" font-family="sans-serif" font-size="10px" fill="#000" opacity="1">2</text><text text-anchor="end" transform="translate(-7,169.1287550409019)" font-family="sans-serif" font-size="10px" fill="#000" opacity="1">3</text><text text-anchor="end" transform="translate(-7,144.28410319163876)" font-family="sans-serif" font-size="10px" fill="#000" opacity="1">4</text><text text-anchor="end" transform="translate(-7,125.01309406145056)" font-family="sans-serif" font-size="10px" fill="#000" opacity="1">5</text><text text-anchor="end" transform="translate(-7,109.26753312135864)" font-family="sans-serif" font-size="10px" fill="#000" opacity="1"/><text text-anchor="end" transform="translate(-7,95.95485103451293)" font-family="sans-serif" font-size="10px" fill="#000" opacity="1"/><text text-anchor="end" transform="translate(-7,84.4228812720955)" font-family="sans-serif" font-size="10px" fill="#000" opacity="1"/><text text-anchor="end" transform="translate(-7,74.25096305107847)" font-family="sans-serif" font-size="10px" fill="#000" opacity="1"/><text text-anchor="end" transform="translate(-7,65.15187214190725)" font-family="sans-serif" font-size="10px" fill="#000" opacity="1">10</text><text text-anchor="end" transform="translate(-7,5.290650222364032)" font-family="sans-serif" font-size="10px" fill="#000" opacity="1">20</text></g><g class="mark-rule role-axis-domain" pointer-events="none"><line transform="translate(0,400)" x2="0" y2="-400" stroke="#888" stroke-width="1" opacity="1"/></g><g class="mark-text role-axis-title" pointer-events="none"><text text-anchor="middle" transform="translate(-24.9013671875,200) rotate(-90) translate(0,-2)" font-family="sans-serif" font-size="11px" font-weight="bold" fill="#000" opacity="1">アセットインデックス</text></g></g><path class="foreground" aria-hidden="true" d="" pointer-events="none" display="none"/></g></g><g class="mark-group role-scope pathgroup" role="graphics-object" aria-roledescription="group mark container"><g transform="translate(0,0)"><path class="background" aria-hidden="true" d="M0,0h600v400h-600Z"/><g><g class="mark-line role-mark marks" role="graphics-object" aria-roledescription="line mark container"><path aria-label="経過年数 (年): 0; アセットインデックス: 1; パーセンタイル: 10%" role="graphics-symbol" aria-roledescription="line mark" d="M0,261.007L1,264.823L2,266.644L3,268.393L4,269.851L5,269.202L6,270.333L7,270.797L8,273.136L9,275.79L10,277.845L11,276.9L12,276.224L13,279.686L14,276.903L15,279.128L16,279.753L17,280.858L18,280.604L19,280.216L20,282.254L21,281.576L22,284.219L23,285.459L24,284.4L25,286.82L26,285.957L27,286.583L28,287.518L29,289.512L30,290.944L31,291.705L32,288.293L33,288.118L34,289.288L35,294.077L36,290.065L37,290.836L38,289.451L39,288.2L40,288.804L41,290.553L42,293.817L43,293.822L44,296.027L45,294.834L46,293.815L47,295.739L48,297.388L49,294.3L50,295.282L51,294.797L52,293.438L53,294.97L54,296.969L55,297.203L56,297.268L57,296.231L58,294.521L59,293.914L60,295.453L61,298.717L62,295.475L63,296.498L64,295.29L65,297.347L66,299.015L67,297.841L68,296.47L69,294.269L70,292.621L71,291.948L72,292.035L73,292.876L74,292.31L75,290.545L76,291.46L77,294.065L78,297.974L79,295.269L80,294.892L81,295.671L82,292.688L83,294.2L84,292.236L85,292.733L86,292.692L87,292.84L88,290.222L89,292.391L90,295.095L91,291.067L92,291.642L93,288.512L94,290.155L95,286.793L96,289.169L97,287.644L98,283.062L99,282.794L100,284.652L101,287.656L102,288.98L103,287.49L104,283.749L105,284.176L106,283.449L107,282.098L108,282.876L109,283.314L110,284.137L111,284.319L112,282.325L113,279.803L114,281.434L115,282.112L116,281.266L117,280.615L118,278.752L119,282.036L120,279.233L121,278.616L122,281.374L123,282.137L124,280.993L125,282.834L126,283.984L127,280.339L128,280.637L129,283.519L130,287.687L131,285.784L132,284.246L133,283.378L134,284.334L135,283.179L136,282.717L137,281.103L138,283.79L139,281L140,276.755L141,280.554L142,281.193L143,284.667L144,287.076L145,284.721L146,284.446L147,284.546L148,283.517L149,282.68L150,284.154L151,283.021L152,280.966L153,281.814L154,282.789L155,281.974L156,281.419L157,278.926L158,282.197L159,283.715L160,283.755L161,280.826L162,281.088L163,281.718L164,282.827L165,284.729L166,282.186L167,282.966L168,280.07L169,278.581L170,279.313L171,280.006L172,277.724L173,275.892L174,274.301L175,273.042L176,273.25L177,270.909L178,274.751L179,273.765L180,272.564L181,272.533L182,270.376L183,270.989L184,270.688L185,271.196L186,272.894L187,273.205L188,271.577L189,272.902L190,271.63L191,272.81L192,272.032L193,274.135L194,273.272L195,274.206L196,275.357L197,273.391L198,274.616L199,274.467L200,274.4L201,274.101L202,274.193L203,275.29L204,273.093L205,275.106L206,276.535L207,275.965L208,276.67L209,274.451L210,271.394L211,273.94L212,271.476L213,270.878L214,272.302L215,270.546L216,270.245L217,269.753L218,271.796L219,272.911L220,273.484L221,270.673L222,271.515L223,269.154L224,267.428L225,270.852L226,266.84L227,271.697L228,267.026L229,265.415L230,268.406L231,269.354L232,266.711L233,266.725L234,261.889L235,264.2L236,263.319L237,264.928L238,262.234L239,262.622L240,259.56L241,260.085L242,259.241L243,261.432L244,266.234L245,266.763L246,264.055L247,262.787L248,260.446L249,260.402L250,260.004L251,261.87L252,261.647L253,261.576L254,261.889L255,261.107L256,256.881L257,258.357L258,259.979L259,256.414L260,253.4L261,256.064L262,250.973L263,252.745L264,254.051L265,251.339L266,250.96L267,249.024L268,250.853L269,253.661L270,250.711L271,249.27L272,249.829L273,250.216L274,247.328L275,247.307L276,245.804L277,248.088L278,244.689L279,245.551L280,246.135L281,244.648L282,245.204L283,245.402L284,240.432L285,239.42L286,239.851L287,241.227L288,242.101L289,239.746L290,237.458L291,237.102L292,235.065L293,235.272L294,237.054L295,238.009L296,237.749L297,240.991L298,240.352L299,239.155L300,238.203L301,239.207L302,236.846L303,233.849L304,233.209L305,233.959L306,233.274L307,234.066L308,233.893L309,230.239L310,233.745L311,235.27L312,232.533L313,230.184L314,232.247L315,232.028L316,230.135L317,232.245L318,231.571L319,230.473L320,229.334L321,229.762L322,225.84L323,224.739L324,223.095L325,221.424L326,222.206L327,223.533L328,221.425L329,218.713L330,218.676L331,216.824L332,219.951L333,217.829L334,216.387L335,214.551L336,214.373L337,216.566L338,212.491L339,210.775L340,213.281L341,212.301L342,211.726L343,207.876L344,208.806L345,207.846L346,205.518L347,206.819L348,204.993L349,203.841L350,205.047L351,206.004L352,203.525L353,200.489L354,201.693L355,203.643L356,204.869L357,202.347L358,204.785L359,203.454L360,202.507L361,203.589L362,203.823L363,203.37L364,204.881L365,202.386L366,202.739L367,202.907L368,199.935L369,199.29L370,202.001L371,199.239L372,197.579L373,198.827L374,196.381L375,199.619L376,198.577L377,195.922L378,195.791L379,193.107L380,197.141L381,192.756L382,190.532L383,190.187L384,185.012L385,185.222L386,182.875L387,178.846L388,179.884L389,174.874L390,172.834L391,173.035L392,174.832L393,176.872L394,176.427L395,173.769L396,176.549L397,175.942L398,177.489L399,181.148L400,177.954L401,174.201L402,172.599L403,172.926L404,170.211L405,169.857L406,168.443L407,170.069L408,174.369L409,176.924L410,174.712L411,174.021L412,172.537L413,172.17L414,169.181L415,167.006L416,167.862L417,166.135L418,162.994L419,167.792L420,165.68L421,161.93L422,159.632L423,158.577L424,159.9L425,159.898L426,158.335L427,155.69L428,155.611L429,150.666L430,150.8L431,155.3L432,154.776L433,154.492L434,149.283L435,149.715L436,147.914L437,151.269L438,149.244L439,147.474L440,151.366L441,150.831L442,147.059L443,149.158L444,147.34L445,146.875L446,149.142L447,148.447L448,149.32L449,145.764L450,149.522L451,146.397L452,143.028L453,146.224L454,144.193L455,137.501L456,139.068L457,139.183L458,138.785L459,136.696L460,136.249L461,135.924L462,136.359L463,141.327L464,141.197L465,136.525L466,139.371L467,133.957L468,133.886L469,133.718L470,134.017L471,136.622L472,136.345L473,135.977L474,133.677L475,133.479L476,131.409L477,132.887L478,130.02L479,131.221L480,124.952L481,125.651L482,122.296L483,123.979L484,124.205L485,123.759L486,122.209L487,122.037L488,119.131L489,123.059L490,123.485L491,125.395L492,123.663L493,121.35L494,120.193L495,114.85L496,111.777L497,109.891L498,107.264L499,106.417L500,103.359L501,107.398L502,105.992L503,104.948L504,103.101L505,105.631L506,111.269L507,113.257L508,113.958L509,108.71L510,109.703L511,112.461L512,110.336L513,108.542L514,107.752L515,106.712L516,104.793L517,99.595L518,99.869L519,98.067L520,98.877L521,100.911L522,100.072L523,98.185L524,98.1L525,101.262L526,105.856L527,104.652L528,100.695L529,98.615L530,102.891L531,100.539L532,99.602L533,100.329L534,102.26L535,100.734L536,98.777L537,94.836L538,90.466L539,89.687L540,88.241L541,85.929L542,89.799L543,88.56L544,88.717L545,85.495L546,84.54L547,88.238L548,85.202L549,85.698L550,83.229L551,80.766L552,79.211L553,79.745L554,73.76L555,76.835L556,76.432L557,75.381L558,72.14L559,74.975L560,70.312L561,70.974L562,67.657L563,67.606L564,66.735L565,64.194L566,63.183L567,66.132L568,65.298L569,66.484L570,64.479L571,63.261L572,60.381L573,58.228L574,60.754L575,57.871L576,52.398L577,53.496L578,54.752L579,55.027L580,52.078L581,49.957L582,50.267L583,49.597L584,48.92L585,49.559L586,44.065L587,46.17L588,40.599L589,39.315L590,38.318L591,37.4L592,36.941L593,35.518L594,34.511L595,31.87L596,31.14L597,29.411L598,27.982L599,27.885L600,25.668" stroke="#4c78a8" stroke-width="2"/></g></g><path class="foreground" aria-hidden="true" d="" display="none"/></g><g transform="translate(0,0)"><path class="background" aria-hidden="true" d="M0,0h600v400h-600Z"/><g><g class="mark-line role-mark marks" role="graphics-object" aria-roledescription="line mark container"><path aria-label="経過年数 (年): 0; アセットインデックス: 1; パーセンタイル: 50%" role="graphics-symbol" aria-roledescription="line mark" d="M0,261.007L1,261.486L2,262.192L3,261.384L4,261.438L5,260.86L6,261.408L7,262.097L8,262.689L9,263.256L10,264.945L11,262.822L12,266.139L13,264.9L14,264.088L15,265.413L16,265.583L17,265.351L18,266.269L19,266.148L20,265.809L21,265.73L22,266.141L23,266.478L24,266.186L25,266.011L26,264.525L27,265.755L28,266.029L29,267.279L30,266.938L31,265.836L32,265.622L33,267.161L34,269.447L35,270.625L36,271.363L37,270.646L38,269.503L39,268.203L40,269.524L41,267.757L42,267.295L43,267.087L44,269.205L45,270.218L46,271.01L47,269.559L48,271.456L49,270.906L50,268.146L51,268.722L52,268.899L53,270.578L54,269.875L55,268.692L56,270.048L57,269.877L58,268.574L59,268.161L60,265.616L61,265.995L62,267.656L63,265.717L64,264.532L65,267.541L66,266.043L67,269.267L68,269.159L69,267.739L70,266.939L71,267.847L72,264.053L73,263.357L74,265.029L75,264.652L76,266.458L77,267.165L78,266.53L79,263.876L80,264.354L81,264.629L82,266.678L83,266.097L84,265.592L85,265.542L86,263.991L87,264.291L88,263.681L89,263.567L90,262.506L91,264.452L92,262.429L93,261.835L94,262.011L95,261.921L96,262.076L97,263.235L98,263.167L99,265.613L100,265.373L101,265.389L102,264.358L103,264.513L104,262.815L105,263.064L106,261.524L107,261.77L108,261.532L109,261.741L110,260.578L111,260.196L112,260.598L113,260.577L114,259.644L115,258.593L116,258.697L117,258.455L118,258.432L119,257.874L120,257.987L121,259.268L122,258.113L123,257.913L124,255.839L125,257.485L126,256.905L127,258.599L128,259.845L129,261.761L130,262.644L131,261.029L132,260.46L133,260.122L134,260.825L135,259.289L136,258.686L137,261.271L138,261.158L139,260.558L140,260.582L141,257.724L142,259.143L143,259.603L144,259.905L145,258.39L146,257.317L147,258.272L148,257.013L149,257.481L150,256.454L151,255.747L152,257.17L153,257.664L154,258.131L155,257.517L156,257.287L157,257.053L158,254.431L159,255.127L160,252.813L161,251.885L162,251.616L163,252.496L164,251.322L165,251.574L166,251.477L167,252.655L168,252.171L169,252.882L170,253.999L171,254.666L172,249.666L173,248.303L174,249.328L175,249.224L176,247.8L177,247.743L178,247.04L179,250.207L180,248.284L181,248.648L182,248.385L183,247.801L184,247.169L185,244.815L186,244.38L187,244.389L188,243.493L189,241.825L190,243.485L191,244.924L192,247.634L193,245.753L194,247.392L195,247.379L196,245.817L197,242.418L198,244.902L199,243.475L200,243.656L201,243.665L202,244.514L203,243.771L204,244.611L205,244.76L206,245.393L207,243.889L208,244.35L209,242.466L210,241.935L211,242.366L212,240.693L213,239.822L214,241.198L215,242.817L216,241.039L217,240.41L218,239.034L219,238.533L220,237.228L221,235.044L222,236.796L223,234.793L224,235.523L225,233.142L226,233.86L227,234.573L228,231.17L229,232.805L230,230.816L231,232.041L232,230.537L233,231.674L234,233.487L235,234.253L236,234.872L237,231.635L238,232.334L239,231.72L240,230.218L241,231.524L242,230.16L243,228.381L244,229.229L245,225.822L246,226.411L247,226.624L248,230.849L249,227.612L250,226.651L251,228.271L252,229.17L253,226.536L254,225.571L255,224.862L256,223.422L257,226.064L258,223.21L259,223.835L260,225.391L261,224.165L262,221.297L263,220.138L264,218.288L265,217.384L266,216.765L267,214.255L268,213.082L269,214.606L270,214.153L271,215.906L272,213.994L273,212.866L274,209.244L275,210.398L276,209.016L277,210.552L278,208.829L279,208.072L280,208.086L281,209.624L282,208.51L283,207.839L284,206.905L285,205.829L286,206.977L287,202.392L288,201.448L289,201.031L290,198.324L291,201.612L292,200.288L293,201.489L294,202.506L295,199.625L296,197.999L297,197.107L298,197.345L299,197.499L300,194.892L301,196.511L302,195.731L303,192.946L304,194.242L305,194.957L306,192.207L307,190.714L308,190.784L309,191.288L310,191.277L311,190.421L312,189.976L313,188.013L314,189.253L315,185.395L316,183.399L317,186.107L318,186.988L319,185.67L320,186.028L321,185.783L322,182.573L323,180.698L324,180.404L325,178.608L326,178.657L327,180.204L328,182.78L329,184.113L330,181.906L331,179.532L332,182.262L333,182.518L334,183.711L335,184.086L336,183.341L337,183.544L338,181.378L339,179.674L340,178.325L341,181.034L342,181.023L343,181.75L344,184.455L345,182.392L346,181.043L347,181.719L348,181.521L349,180.521L350,178.895L351,179.002L352,176.672L353,178.197L354,176.564L355,177.652L356,172.919L357,173.169L358,174.148L359,171.669L360,171.23L361,169.483L362,168.786L363,166.893L364,163.863L365,163.382L366,166.139L367,166.473L368,163.545L369,165.316L370,165.039L371,167.327L372,167.236L373,164.03L374,162.497L375,163.072L376,163.018L377,160.487L378,161.483L379,160L380,161.184L381,157.654L382,158.164L383,158.58L384,158.333L385,158.16L386,157.603L387,157.202L388,154.134L389,153.034L390,150.201L391,149.912L392,148.951L393,151.949L394,151.441L395,152.563L396,151.229L397,149.451L398,147.859L399,148.803L400,146.984L401,147.367L402,145.808L403,145.117L404,142.242L405,141.897L406,141.487L407,140.791L408,141.944L409,141.7L410,138.717L411,140.316L412,137.482L413,135.568L414,134.599L415,134.612L416,134.992L417,133.673L418,134.996L419,135.473L420,135.824L421,135.911L422,134.495L423,134.324L424,137.074L425,133.666L426,135.417L427,135.671L428,134.106L429,133.609L430,131.402L431,129.965L432,128.069L433,127.396L434,126.856L435,127.01L436,125.651L437,123.458L438,121.53L439,123.176L440,118.787L441,116.92L442,115.878L443,117.347L444,115.707L445,113.614L446,111.33L447,110.226L448,110.751L449,111.723L450,108.687L451,109.55L452,112.04L453,113.467L454,110.161L455,110.138L456,109.782L457,108.234L458,107.814L459,107.186L460,106.9L461,105.713L462,104.705L463,101.888L464,102.14L465,101.643L466,103.412L467,104.998L468,105.648L469,102.576L470,102.622L471,100.4L472,99.139L473,96.067L474,96.056L475,95.13L476,94.22L477,92.53L478,90.837L479,92.344L480,89.266L481,88.116L482,87.688L483,89.568L484,90.79L485,89.774L486,89.479L487,89.753L488,89.47L489,89.117L490,87.708L491,85.884L492,86.659L493,81.24L494,84.22L495,83.219L496,82.32L497,82.541L498,82.33L499,82.722L500,81.318L501,83.151L502,83.489L503,82.343L504,81.051L505,82.257L506,79.214L507,79.722L508,77.999L509,80.854L510,77.85L511,76.7L512,74.089L513,72.057L514,69.882L515,70.011L516,70.274L517,68.4L518,68.269L519,67.774L520,67.54L521,64.485L522,65.313L523,64.116L524,63.784L525,63.685L526,62.422L527,61.208L528,60.379L529,58.747L530,60.497L531,60.925L532,62.005L533,61.246L534,60.392L535,57.462L536,59.61L537,59.012L538,54.595L539,56.034L540,54.338L541,52.143L542,50.685L543,50.638L544,48.978L545,49.435L546,48.068L547,48.104L548,48.23L549,49.187L550,45.84L551,47.006L552,44.827L553,45.641L554,46.154L555,45.029L556,44.211L557,43.765L558,43.919L559,41.754L560,39.88L561,41.052L562,37.853L563,37.621L564,37.475L565,37.074L566,34.47L567,38.881L568,36.483L569,37.596L570,37.954L571,35.606L572,35.695L573,34.453L574,35.708L575,35.616L576,35.522L577,34.788L578,34.296L579,34.127L580,32.474L581,29.747L582,27.78L583,29.426L584,28.896L585,27.976L586,27.214L587,26.436L588,27.388L589,25.767L590,23.441L591,23.977L592,23.775L593,22.173L594,20.674L595,20.419L596,19.646L597,19.028L598,18.201L599,16.757L600,15.193" stroke="#f58518" stroke-width="2"/></g></g><path class="foreground" aria-hidden="true" d="" display="none"/></g><g transform="translate(0,0)"><path class="background" aria-hidden="true" d="M0,0h600v400h-600Z"/><g><g class="mark-line role-mark marks" role="graphics-object" aria-roledescription="line mark container"><path aria-label="経過年数 (年): 0; アセットインデックス: 1; パーセンタイル: 90%" role="graphics-symbol" aria-roledescription="line mark" d="M0,261.007L1,258.007L2,256.68L3,254.737L4,251.439L5,250.868L6,254.265L7,252.371L8,252.998L9,249.17L10,246.601L11,245.807L12,246.632L13,244.432L14,249.017L15,245.629L16,243.93L17,242.759L18,242.105L19,241.607L20,238.357L21,241.196L22,244.185L23,238.662L24,237.66L25,237.816L26,238.041L27,236.923L28,240.301L29,239.543L30,237.54L31,238.043L32,238.59L33,237.139L34,238.443L35,236.499L36,236.389L37,234.786L38,233.675L39,234.465L40,239.486L41,239.658L42,239.046L43,238.596L44,241.115L45,240.91L46,241.382L47,239.768L48,239.579L49,241.904L50,238.295L51,238.534L52,240.429L53,238.047L54,237.757L55,234.954L56,234.139L57,230.631L58,231.707L59,230.683L60,234.283L61,239.61L62,235.997L63,238.129L64,237.959L65,235.1L66,236.284L67,238.294L68,235.735L69,237.557L70,238.25L71,238.177L72,240.849L73,239.865L74,242.855L75,240.401L76,243.273L77,241.204L78,244.284L79,242.748L80,242.573L81,239.262L82,239.885L83,239.801L84,241.188L85,242.281L86,244.066L87,243.5L88,240.794L89,243.774L90,241.832L91,245.149L92,244.619L93,243.087L94,241.338L95,242.69L96,242.702L97,243.115L98,241.153L99,240.821L100,241.29L101,239.537L102,236.895L103,235.454L104,231.285L105,237.318L106,234.597L107,233.482L108,233.932L109,232.11L110,236.707L111,234.86L112,236.679L113,233.22L114,238.278L115,240.617L116,241.084L117,242.812L118,239.978L119,237.845L120,237.213L121,240.139L122,236.853L123,234.471L124,234.156L125,234.237L126,235.224L127,232.764L128,232.064L129,236.846L130,233.569L131,238.316L132,234.663L133,232.756L134,233.711L135,233.102L136,234.775L137,235.48L138,235.943L139,234.523L140,236.772L141,234.481L142,233.376L143,234.485L144,234.768L145,231.379L146,236.047L147,236.558L148,237.087L149,237.415L150,237.148L151,235.023L152,233.065L153,229.429L154,233.372L155,231.795L156,231.21L157,233.892L158,233.171L159,231.917L160,228.461L161,225.937L162,230.081L163,231.691L164,230.12L165,225.812L166,224.374L167,223.147L168,220.153L169,220.393L170,221.271L171,219.715L172,218.995L173,220.075L174,219.664L175,216.756L176,216.281L177,213.572L178,215.522L179,214.798L180,212.768L181,211.342L182,210.457L183,215.033L184,214.348L185,214.917L186,217.922L187,213.277L188,214.364L189,215.347L190,213.824L191,218.463L192,215.728L193,212.854L194,210.818L195,212.414L196,213.359L197,213.376L198,214.913L199,216.078L200,214.49L201,214.483L202,212.773L203,210.639L204,208.851L205,210.816L206,209.454L207,208.214L208,210.277L209,208.72L210,205.915L211,205.394L212,204.395L213,203.25L214,202.97L215,200.133L216,200.145L217,199.402L218,194.926L219,194.071L220,194.102L221,198.679L222,202.41L223,203.56L224,204.864L225,201.455L226,203.739L227,206.046L228,202.585L229,204.258L230,204.79L231,202.195L232,200.967L233,199.344L234,200.324L235,199.838L236,199.658L237,201.143L238,200.872L239,198.541L240,196.829L241,202.224L242,200.285L243,195.496L244,193.031L245,191.414L246,188.201L247,188.416L248,187.327L249,187.028L250,186.559L251,185.81L252,184.855L253,180.497L254,175.304L255,175.197L256,172.415L257,176.105L258,177.381L259,175.55L260,174.803L261,172.364L262,176.257L263,177.34L264,177.435L265,176.821L266,176.633L267,178.738L268,179.498L269,180.203L270,179.444L271,179.322L272,181.386L273,179.822L274,180.737L275,181.659L276,178.063L277,175.391L278,168.842L279,168.189L280,168.749L281,168.081L282,168.696L283,173.079L284,172.175L285,173.581L286,175.319L287,172.797L288,173.461L289,174.114L290,172.764L291,172.532L292,170.401L293,169.54L294,171.414L295,165.071L296,163.292L297,159.363L298,159.68L299,159.709L300,159.85L301,155.827L302,157.621L303,157.428L304,156.106L305,159.533L306,155.746L307,156.128L308,155.67L309,153.72L310,149.941L311,150.204L312,147.648L313,146.865L314,149.329L315,147.733L316,147.003L317,150.219L318,144.971L319,141.583L320,145.455L321,148.636L322,147.755L323,149.112L324,144.418L325,147.214L326,144.719L327,140.902L328,139.236L329,138.336L330,134.538L331,134.964L332,134.287L333,128.474L334,123.886L335,124.895L336,128.453L337,130.152L338,132.852L339,132.823L340,131.619L341,130.438L342,129.009L343,130.234L344,126.531L345,133.39L346,131.997L347,131.466L348,129.039L349,128.692L350,126.548L351,125.807L352,124.727L353,123.451L354,121.977L355,121.178L356,121.28L357,123.864L358,123.758L359,123.934L360,123.66L361,122.097L362,125.364L363,121.791L364,122.561L365,122.529L366,121.678L367,119.313L368,115.986L369,114.786L370,114.088L371,113.598L372,117.032L373,115.678L374,113.743L375,111.735L376,113.399L377,112.897L378,111.893L379,110.956L380,108.694L381,108.477L382,111.102L383,112.436L384,110.27L385,111.356L386,113.329L387,115.089L388,109.133L389,113.347L390,109.069L391,109.379L392,108.805L393,108.14L394,104.704L395,103.3L396,105.042L397,100.653L398,101.759L399,100.774L400,100.532L401,99.258L402,94.393L403,93.143L404,94.113L405,97.086L406,95.709L407,88.195L408,92.081L409,92.147L410,90.38L411,92.396L412,90.709L413,91.979L414,94.67L415,95.692L416,98.375L417,92.101L418,94.734L419,92.694L420,87.326L421,89.417L422,89.632L423,84.511L424,82.835L425,80.171L426,76.431L427,79.772L428,78.693L429,77.185L430,78.353L431,77.637L432,76.195L433,74.423L434,76.754L435,70.457L436,73.483L437,74.825L438,75.116L439,77.246L440,74.305L441,73.927L442,71.692L443,72.041L444,73.263L445,71.692L446,70.856L447,70.062L448,67.169L449,70.772L450,69.269L451,71.239L452,71.163L453,68.497L454,68.323L455,67.016L456,68.866L457,68.461L458,66.648L459,68.962L460,70.998L461,70.83L462,70.448L463,71.104L464,67.332L465,67.863L466,66.987L467,63.11L468,64.454L469,66.149L470,61.47L471,60.53L472,59.275L473,60.267L474,58.882L475,57.997L476,54.807L477,57.257L478,58.431L479,58.983L480,57.387L481,56.793L482,55.508L483,55.348L484,53.714L485,55.219L486,52.366L487,49.175L488,50.364L489,47.095L490,46.077L491,45.956L492,45.417L493,45.223L494,43.515L495,43.764L496,40.371L497,40.079L498,41.233L499,44.458L500,39.505L501,38.801L502,38.138L503,38.508L504,38.697L505,38.898L506,40.995L507,39.687L508,38.056L509,39.654L510,41.525L511,40.624L512,40.992L513,41.293L514,42.802L515,43.487L516,41.293L517,40.245L518,38.755L519,36.236L520,36.029L521,37.167L522,32.09L523,34.183L524,32.292L525,35.741L526,36.736L527,34.248L528,28.331L529,30.459L530,28.7L531,31.462L532,29.063L533,30.092L534,29.837L535,29.174L536,28.626L537,25.837L538,25.348L539,26.171L540,25.367L541,27.166L542,24.179L543,24.403L544,24.394L545,22.545L546,18.835L547,17.795L548,16.792L549,17.391L550,17.653L551,20.054L552,20.783L553,19.213L554,19.935L555,20.775L556,20.804L557,20.821L558,19.058L559,18.326L560,17.562L561,19.22L562,18.149L563,18.884L564,16.569L565,16.778L566,15.901L567,11.898L568,12.16L569,11.951L570,10.233L571,10.836L572,11.932L573,10.94L574,12.008L575,12.498L576,5.277L577,5.338L578,5.931L579,7.514L580,10.21L581,9.953L582,9.707L583,8.792L584,8.431L585,2.117L586,1.267L587,1.239L588,0.509L589,4.41L590,6.036L591,2.536L592,1.064L593,1.908L594,4.406L595,5.392L596,2.514L597,3.823L598,0.718L599,0L600,0.753" stroke="#e45756" stroke-width="2"/></g></g><path class="foreground" aria-hidden="true" d="" display="none"/></g></g><g class="mark-group role-legend" role="graphics-symbol" aria-roledescription="legend" aria-label="Symbol legend titled 'パーセンタイル' for stroke color with 3 values: 10%, 50%, 90%"><g transform="translate(620,0)"><path class="background" aria-hidden="true" d="M0,0h77v53h-77Z" pointer-events="none"/><g><g class="mark-group role-legend-entry"><g transform="translate(0,16)"><path class="background" aria-hidden="true" d="M0,0h0v0h0Z" pointer-events="none"/><g><g class="mark-group role-scope" role="graphics-object" aria-roledescription="group mark container"><g transform="translate(0,0)"><path class="background" aria-hidden="true" d="M0,0h36.0146484375v11h-36.0146484375Z" pointer-events="none" opacity="1"/><g><g class="mark-symbol role-legend-symbol" pointer-events="none"><path transform="translate(6,6)" d="M-5,0L5,0" stroke="#4c78a8" stroke-width="1.5" opacity="1"/></g><g class="mark-text role-legend-label" pointer-events="none"><text text-anchor="start" transform="translate(16,9)" font-family="sans-serif" font-size="10px" fill="#000" opacity="1">10%</text></g></g><path class="foreground" aria-hidden="true" d="" pointer-events="none" display="none"/></g><g transform="translate(0,13)"><path class="background" aria-hidden="true" d="M0,0h36.0146484375v11h-36.0146484375Z" pointer-events="none" opacity="1"/><g><g class="mark-symbol role-legend-symbol" pointer-events="none"><path transform="translate(6,6)" d="M-5,0L5,0" stroke="#f58518" stroke-width="1.5" opacity="1"/></g><g class="mark-text role-legend-label" pointer-events="none"><text text-anchor="start" transform="translate(16,9)" font-family="sans-serif" font-size="10px" fill="#000" opacity="1">50%</text></g></g><path class="foreground" aria-hidden="true" d="" pointer-events="none" display="none"/></g><g transform="translate(0,26)"><path class="background" aria-hidden="true" d="M0,0h36.0146484375v11h-36.0146484375Z" pointer-events="none" opacity="1"/><g><g class="mark-symbol role-legend-symbol" pointer-events="none"><path transform="translate(6,6)" d="M-5,0L5,0" stroke="#e45756" stroke-width="1.5" opacity="1"/></g><g class="mark-text role-legend-label" pointer-events="none"><text text-anchor="start" transform="translate(16,9)" font-family="sans-serif" font-size="10px" fill="#000" opacity="1">90%</text></g></g><path class="foreground" aria-hidden="true" d="" pointer-events="none" display="none"/></g></g></g><path class="foreground" aria-hidden="true" d="" pointer-events="none" display="none"/></g></g><g class="mark-text role-legend-title" pointer-events="none"><text text-anchor="start" transform="translate(0,9)" font-family="sans-serif" font-size="11px" font-weight="bold" fill="#000" opacity="1">パーセンタイル</text></g></g><path class="foreground" aria-hidden="true" d="" pointer-events="none" display="none"/></g></g><g class="mark-group role-title"><g transform="translate(300,-19.709349777635968)"><path class="background" aria-hidden="true" d="M0,0h0v0h0Z" pointer-events="none"/><g><g class="mark-text role-title-text" role="graphics-symbol" aria-roledescription="title" aria-label="Title text '中央値パスで破産した人のアセットパーセンタイル推移'" pointer-events="none"><text text-anchor="middle" transform="translate(0,10)" font-family="sans-serif" font-size="13px" font-weight="bold" fill="#000" opacity="1">中央値パスで破産した人のアセットパーセンタイル推移</text></g></g><path class="foreground" aria-hidden="true" d="" pointer-events="none" display="none"/></g></g></g><path class="foreground" aria-hidden="true" d="" display="none"/></g></g></g></svg>