<svg xmlns="http://www.w3.org/2000/svg" xmlns:xlink="http://www.w3.org/1999/xlink" version="1.1" class="marks" width="743" height="461" viewBox="0 0 743 461"><rect width="743" height="461" fill="white"/><g fill="none" stroke-miterlimit="10" transform="translate(41,24)"><g class="mark-group role-frame root" role="graphics-object" aria-roledescription="group mark container"><g transform="translate(0,0)"><path class="background" aria-hidden="true" d="M0.5,0.5h600v400h-600Z" stroke="#ddd"/><g><g class="mark-group role-axis" aria-hidden="true"><g transform="translate(0.5,400.5)"><path class="background" aria-hidden="true" d="M0,0h0v0h0Z" pointer-events="none"/><g><g class="mark-rule role-axis-grid" pointer-events="none"><line transform="translate(0,-400)" x2="0" y2="400" stroke="#ddd" stroke-width="1" opacity="1"/><line transform="translate(60,-400)" x2="0" y2="400" stroke="#ddd" stroke-width="1" opacity="1"/><line transform="translate(120,-400)" x2="0" y2="400" stroke="#ddd" stroke-width="1" opacity="1"/><line transform="translate(180,-400)" x2="0" y2="400" stroke="#ddd" stroke-width="1" opacity="1"/><line transform="translate(240,-400)" x2="0" y2="400" stroke="#ddd" stroke-width="1" opacity="1"/><line transform="translate(300,-400)" x2="0" y2="400" stroke="#ddd" stroke-width="1" opacity="1"/><line transform="translate(360,-400)" x2="0" y2="400" stroke="#ddd" stroke-width="1" opacity="1"/><line transform="translate(420,-400)" x2="0" y2="400" stroke="#ddd" stroke-width="1" opacity="1"/><line transform="translate(480,-400)" x2="0" y2="400" stroke="#ddd" stroke-width="1" opacity="1"/><line transform="translate(540,-400)" x2="0" y2="400" stroke="#ddd" stroke-width="1" opacity="1"/><line transform="translate(600,-400)" x2="0" y2="400" stroke="#ddd" stroke-width="1" opacity="1"/></g></g><path class="foreground" aria-hidden="true" d="" pointer-events="none" display="none"/></g></g><g class="mark-group role-axis" aria-hidden="true"><g transform="translate(0.5,0.5)"><path class="background" aria-hidden="true" d="M0,0h0v0h0Z" pointer-events="none"/><g><g class="mark-rule role-axis-grid" pointer-events="none"><line transform="translate(0,400)" x2="600" y2="0" stroke="#ddd" stroke-width="1" opacity="1"/><line transform="translate(0,361)" x2="600" y2="0" stroke="#ddd" stroke-width="1" opacity="1"/><line transform="translate(0,334)" x2="600" y2="0" stroke="#ddd" stroke-width="1" opacity="1"/><line transform="translate(0,313)" x2="600" y2="0" stroke="#ddd" stroke-width="1" opacity="1"/><line transform="translate(0,296)" x2="600" y2="0" stroke="#ddd" stroke-width="1" opacity="1"/><line transform="translate(0,281)" x2="600" y2="0" stroke="#ddd" stroke-width="1" opacity="1"/><line transform="translate(0,268)" x2="600" y2="0" stroke="#ddd" stroke-width="1" opacity="1"/><line transform="translate(0,257)" x2="600" y2="0" stroke="#ddd" stroke-width="1" opacity="1"/><line transform="translate(0,247)" x2="600" y2="0" stroke="#ddd" stroke-width="1" opacity="1"/><line transform="translate(0,181)" x2="600" y2="0" stroke="#ddd" stroke-width="1" opacity="1"/><line transform="translate(0,143)" x2="600" y2="0" stroke="#ddd" stroke-width="1" opacity="1"/><line transform="translate(0,115)" x2="600" y2="0" stroke="#ddd" stroke-width="1" opacity="1"/><line transform="translate(0,94)" x2="600" y2="0" stroke="#ddd" stroke-width="1" opacity="1"/><line transform="translate(0,77)" x2="600" y2="0" stroke="#ddd" stroke-width="1" opacity="1"/><line transform="translate(0,62)" x2="600" y2="0" stroke="#ddd" stroke-width="1" opacity="1"/><line transform="translate(0,50)" x2="600" y2="0" stroke="#ddd" stroke-width="1" opacity="1"/><line transform="translate(0,38)" x2="600" y2="0" stroke="#ddd" stroke-width="1" opacity="1"/><line transform="translate(0,28)" x2="600" y2="0" stroke="#ddd" stroke-width="1" opacity="1"/></g></g><path class="foreground" aria-hidden="true" d="" pointer-events="none" display="none"/></g></g><g class="mark-group role-axis" role="graphics-symbol" aria-roledescription="axis" aria-label="X-axis titled '経過年数 (年)' for a linear scale with values from 0 to 50"><g transform="translate(0.5,400.5)"><path class="background" aria-hidden="true" d="M0,0h0v0h0Z" pointer-events="none"/><g><g class="mark-rule role-axis-tick" pointer-events="none"><line transform="translate(0,0)" x2="0" y2="5" stroke="#888" stroke-width="1" opacity="1"/><line transform="translate(60,0)" x2="0" y2="5" stroke="#888" stroke-width="1" opacity="1"/><line transform="translate(120,0)" x2="0" y2="5" stroke="#888" stroke-width="1" opacity="1"/><line transform="translate(180,0)" x2="0" y2="5" stroke="#888" stroke-width="1" opacity="1"/><line transform="translate(240,0)" x2="0" y2="5" stroke="#888" stroke-width="1" opacity="1"/><line transform="translate(300,0)" x2="0" y2="5" stroke="#888" stroke-width="1" opacity="1"/><line transform="translate(360,0)" x2="0" y2="5" stroke="#888" stroke-width="1" opacity="1"/><line transform="translate(420,0)" x2="0" y2="5" stroke="#888" stroke-width="1" opacity="1"/><line transform="translate(480,0)" x2="0" y2="5" stroke="#888" stroke-width="1" opacity="1"/><line transform="translate(540,0)" x2="0" y2="5" stroke="#888" stroke-width="1" opacity="1"/><line transform="translate(600,0)" x2="0" y2="5" stroke="#888" stroke-width="1" opacity="1"/></g><g class="mark-text role-axis-label" pointer-events="none"><text text-anchor="start" transform="translate(0,15)" font-family="sans-serif" font-size="10px" fill="#000" opacity="1">0</text><text text-anchor="middle" transform="translate(60,15)" font-family="sans-serif" font-size="10px" fill="#000" opacity="1">5</text><text text-anchor="middle" transform="translate(120,15)" font-family="sans-serif" font-size="10px" fill="#000" opacity="1">10</text><text text-anchor="middle" transform="translate(180,15)" font-family="sans-serif" font-size="10px" fill="#000" opacity="1">15</text><text text-anchor="middle" transform="translate(240,15)" font-family="sans-serif" font-size="10px" fill="#000" opacity="1">20</text><text text-anchor="middle" transform="translate(300,15)" font-family="sans-serif" font-size="10px" fill="#000" opacity="1">25</text><text text-anchor="middle" transform="translate(360,15)" font-family="sans-serif" font-size="10px" fill="#000" opacity="1">30</text><text text-anchor="middle" transform="translate(420,15)" font-family="sans-serif" font-size="10px" fill="#000" opacity="1">35</text><text text-anchor="middle" transform="translate(480,15)" font-family="sans-serif" font-size="10px" fill="#000" opacity="1">40</text><text text-anchor="middle" transform="translate(540,15)" font-family="sans-serif" font-size="10px" fill="#000" opacity="1">45</text><text text-anchor="end" transform="translate(600,15)" font-family="sans-serif" font-size="10px" fill="#000" opacity="1">50</text></g><g class="mark-rule role-axis-domain" pointer-events="none"><line transform="translate(0,0)" x2="600" y2="0" stroke="#888" stroke-width="1" opacity="1"/></g><g class="mark-text role-axis-title" pointer-events="none"><text text-anchor="middle" transform="translate(300,30)" font-family="sans-serif" font-size="11px" font-weight="bold" fill="#000" opacity="1">経過年数 (年)</text></g></g><path class="foreground" aria-hidden="true" d="" pointer-events="none" display="none"/></g></g><g class="mark-group role-axis" role="graphics-symbol" aria-roledescription="axis" aria-label="Y-axis titled 'アセットインデックス' for a log scale with values from 0.2 to 13.4785672802"><g transform="translate(0.5,0.5)"><path class="background" aria-hidden="true" d="M0,0h0v0h0Z" pointer-events="none"/><g><g class="mark-rule role-axis-tick" pointer-events="none"><line transform="translate(0,400)" x2="-5" y2="0" stroke="#888" stroke-width="1" opacity="1"/><line transform="translate(0,361)" x2="-5" y2="0" stroke="#888" stroke-width="1" opacity="1"/><line transform="translate(0,334)" x2="-5" y2="0" stroke="#888" stroke-width="1" opacity="1"/><line transform="translate(0,313)" x2="-5" y2="0" stroke="#888" stroke-width="1" opacity="1"/><line transform="translate(0,296)" x2="-5" y2="0" stroke="#888" stroke-width="1" opacity="1"/><line transform="translate(0,281)" x2="-5" y2="0" stroke="#888" stroke-width="1" opacity="1"/><line transform="translate(0,268)" x2="-5" y2="0" stroke="#888" stroke-width="1" opacity="1"/><line transform="translate(0,257)" x2="-5" y2="0" stroke="#888" stroke-width="1" opacity="1"/><line transform="translate(0,247)" x2="-5" y2="0" stroke="#888" stroke-width="1" opacity="1"/><line transform="translate(0,181)" x2="-5" y2="0" stroke="#888" stroke-width="1" opacity="1"/><line transform="translate(0,143)" x2="-5" y2="0" stroke="#888" stroke-width="1" opacity="1"/><line transform="translate(0,115)" x2="-5" y2="0" stroke="#888" stroke-width="1" opacity="1"/><line transform="translate(0,94)" x2="-5" y2="0" stroke="#888" stroke-width="1" opacity="1"/><line transform="translate(0,77)" x2="-5" y2="0" stroke="#888" stroke-width="1" opacity="1"/><line transform="translate(0,62)" x2="-5" y2="0" stroke="#888" stroke-width="1" opacity="1"/><line transform="translate(0,50)" x2="-5" y2="0" stroke="#888" stroke-width="1" opacity="1"/><line transform="translate(0,38)" x2="-5" y2="0" stroke="#888" stroke-width="1" opacity="1"/><line transform="translate(0,28)" x2="-5" y2="0" stroke="#888" stroke-width="1" opacity="1"/></g><g class="mark-text role-axis-label" pointer-events="none"><text text-anchor="end" transform="translate(-7,403)" font-family="sans-serif" font-size="10px" fill="#000" opacity="1">0.2</text><text text-anchor="end" transform="translate(-7,364.4809282747719)" font-family="sans-serif" font-size="10px" fill="#000" opacity="1">0.3</text><text text-anchor="end" transform="translate(-7,337.1512119533459)" font-family="sans-serif" font-size="10px" fill="#000" opacity="1">0.4</text><text text-anchor="end" transform="translate(-7,315.9526370668449)" font-family="sans-serif" font-size="10px" fill="#000" opacity="1">0.5</text><text text-anchor="end" transform="translate(-7,298.6321402281178)" font-family="sans-serif" font-size="10px" fill="#000" opacity="1"/><text text-anchor="end" transform="translate(-7,283.98786881235185)" font-family="sans-serif" font-size="10px" fill="#000" opacity="1"/><text text-anchor="end" transform="translate(-7,271.3024239066919)" font-family="sans-serif" font-size="10px" fill="#000" opacity="1"/><text text-anchor="end" transform="translate(-7,260.1130685028897)" font-family="sans-serif" font-size="10px" fill="#000" opacity="1"/><text text-anchor="end" transform="translate(-7,250.10384902019084)" font-family="sans-serif" font-size="10px" fill="#000" opacity="1">1</text><text text-anchor="end" transform="translate(-7,184.25506097353679)" font-family="sans-serif" font-size="10px" fill="#000" opacity="1">2</text><text text-anchor="end" transform="translate(-7,145.73598924830867)" font-family="sans-serif" font-size="10px" fill="#000" opacity="1">3</text><text text-anchor="end" transform="translate(-7,118.40627292688268)" font-family="sans-serif" font-size="10px" fill="#000" opacity="1">4</text><text text-anchor="end" transform="translate(-7,97.20769804038164)" font-family="sans-serif" font-size="10px" fill="#000" opacity="1">5</text><text text-anchor="end" transform="translate(-7,79.88720120165455)" font-family="sans-serif" font-size="10px" fill="#000" opacity="1"/><text text-anchor="end" transform="translate(-7,65.24292978588859)" font-family="sans-serif" font-size="10px" fill="#000" opacity="1"/><text text-anchor="end" transform="translate(-7,52.557484880228664)" font-family="sans-serif" font-size="10px" fill="#000" opacity="1"/><text text-anchor="end" transform="translate(-7,41.368129476426425)" font-family="sans-serif" font-size="10px" fill="#000" opacity="1"/><text text-anchor="end" transform="translate(-7,31.3589099937275)" font-family="sans-serif" font-size="10px" fill="#000" opacity="1">10</text></g><g class="mark-rule role-axis-domain" pointer-events="none"><line transform="translate(0,400)" x2="0" y2="-400" stroke="#888" stroke-width="1" opacity="1"/></g><g class="mark-text role-axis-title" pointer-events="none"><text text-anchor="middle" transform="translate(-24.9013671875,200) rotate(-90) translate(0,-2)" font-family="sans-serif" font-size="11px" font-weight="bold" fill="#000" opacity="1">アセットインデックス</text></g></g><path class="foreground" aria-hidden="true" d="" pointer-events="none" display="none"/></g></g><g class="mark-group role-scope pathgroup" role="graphics-object" aria-roledescription="group mark container"><g transform="translate(0,0)"><path class="background" aria-hidden="true" d="M0,0h600v400h-600Z"/><g><g class="mark-line role-mark marks" role="graphics-object" aria-roledescription="line mark container"><path aria-label="経過年数 (年): 0; アセットインデックス: 1; パーセンタイル: 10%" role="graphics-symbol" aria-roledescription="line mark" d="M0,247.104L1,253.01L2,256.874L3,257.535L4,259.959L5,260.278L6,264.138L7,264.562L8,262.762L9,265.472L10,266.784L11,268.571L12,269.993L13,271.938L14,271.364L15,274.723L16,272.593L17,275.652L18,276.196L19,276.175L20,279.268L21,280.021L22,279.311L23,279.224L24,280.733L25,280.864L26,284.705L27,284.006L28,286.999L29,285.172L30,286.773L31,285.198L32,286.156L33,289.61L34,290.243L35,289.197L36,288.467L37,293.427L38,293.827L39,294.331L40,295.76L41,295.922L42,296.5L43,297.977L44,299.198L45,298.87L46,299.414L47,300.005L48,302.836L49,301.403L50,301.017L51,302.351L52,302.182L53,303.488L54,304.2L55,303.63L56,304.026L57,303.724L58,304.596L59,306.063L60,305.799L61,306.535L62,309.549L63,312.606L64,313.325L65,311.709L66,314.693L67,308.622L68,309.616L69,309.193L70,310.198L71,309.189L72,308.689L73,308.762L74,309.981L75,313.075L76,314.097L77,313.674L78,314.462L79,313.148L80,310.368L81,310.727L82,310.872L83,309.877L84,312.37L85,314.368L86,312.846L87,310.398L88,311.572L89,312.579L90,313.627L91,317.601L92,315.095L93,315.93L94,317.977L95,316.733L96,319.906L97,317.501L98,316.569L99,315.618L100,315.17L101,316.159L102,317.07L103,314.767L104,318.183L105,316.571L106,317.727L107,322.518L108,321.438L109,320.925L110,317.709L111,320.724L112,322.694L113,321.505L114,321.776L115,320.289L116,320.119L117,319.809L118,319.978L119,321.341L120,321.002L121,320.687L122,324.794L123,323.352L124,324.164L125,324.811L126,322.49L127,319.05L128,320.4L129,321.29L130,320.603L131,319.931L132,318.463L133,317.029L134,315.205L135,317.697L136,316.456L137,317.205L138,316.099L139,318.26L140,315.494L141,316.336L142,313.223L143,312.217L144,310.123L145,313.47L146,312.697L147,315.364L148,317.076L149,317.844L150,319.194L151,319.2L152,318.896L153,320.207L154,317.962L155,321.086L156,320.887L157,320.801L158,321.116L159,320.311L160,319.049L161,321.694L162,322.842L163,323.359L164,322.5L165,322.386L166,320.846L167,320.221L168,323.737L169,325.236L170,322.814L171,323.521L172,325.2L173,325.775L174,325.275L175,325.092L176,328.228L177,326.895L178,324.118L179,321.934L180,320.335L181,323.41L182,322.615L183,323.89L184,323.083L185,325.855L186,327.649L187,328.813L188,329.26L189,331.187L190,327.821L191,328.661L192,327.378L193,325.668L194,332.671L195,328.161L196,327.746L197,326.559L198,324.095L199,324.192L200,321.331L201,323.593L202,322.395L203,319.469L204,320.767L205,321.195L206,318.294L207,317.626L208,319.372L209,319.086L210,320.745L211,317.56L212,316.736L213,315.353L214,314.9L215,315.327L216,316.333L217,312.63L218,310.191L219,308.976L220,311.392L221,310.834L222,312.606L223,310.684L224,312.331L225,313.071L226,313.138L227,306.71L228,307.501L229,309.154L230,309.95L231,310.049L232,308.284L233,309.384L234,309.694L235,308.57L236,307.961L237,308.132L238,308.698L239,307.806L240,308.115L241,303.697L242,301.254L243,299.837L244,300.317L245,298.645L246,302.156L247,301.552L248,299.402L249,299.49L250,299.643L251,300.187L252,297.511L253,295.467L254,293.649L255,297.741L256,296.317L257,297.254L258,298.657L259,296.154L260,295.179L261,296.222L262,295.688L263,294.913L264,295.474L265,296.854L266,296.18L267,295.114L268,293.684L269,292.331L270,290.648L271,291.505L272,290.812L273,292.581L274,293.124L275,292.933L276,294.914L277,294.617L278,294.079L279,289.566L280,291.762L281,286.491L282,288.522L283,288.401L284,290.881L285,292.492L286,291.135L287,291.448L288,292.699L289,289.15L290,287.486L291,288.656L292,292.937L293,291.216L294,290.306L295,293.03L296,294.083L297,293.955L298,298.984L299,302.435L300,301.049L301,301.397L302,304.426L303,303.53L304,302.166L305,298.291L306,299.57L307,297.962L308,295.319L309,295.313L310,291.04L311,290.132L312,294.486L313,293.938L314,294.089L315,299.718L316,300.454L317,295.084L318,292.149L319,297.203L320,296.229L321,293.45L322,292.39L323,292.213L324,296.954L325,299.344L326,301.266L327,304.321L328,300.808L329,302.039L330,302.044L331,306.134L332,308.918L333,308.735L334,308.082L335,305.929L336,306.424L337,306.33L338,303.879L339,302.96L340,299.983L341,299.671L342,297.295L343,300.133L344,301.547L345,302.214L346,300.177L347,301.391L348,300.13L349,295.095L350,298.189L351,297.741L352,298.312L353,298.668L354,301.162L355,298.498L356,294.799L357,296.534L358,298.311L359,294.587L360,291.205L361,293.068L362,292.454L363,291.822L364,287.876L365,291.95L366,293.017L367,293.731L368,293.7L369,291.046L370,292.195L371,293.113L372,295.866L373,290.039L374,289.932L375,291.526L376,293.142L377,292.058L378,291.769L379,289.776L380,290.058L381,284.594L382,287.171L383,285.885L384,289.28L385,286.303L386,282.796L387,281.196L388,281.107L389,280.522L390,280.6L391,276.833L392,274.925L393,270.961L394,270.901L395,268.857L396,273.15L397,276.369L398,277.792L399,278.063L400,279.04L401,280.239L402,279.518L403,278.703L404,274.919L405,275.321L406,273.202L407,270.241L408,267.602L409,268.522L410,267.87L411,267.602L412,265.705L413,267.649L414,267.334L415,272.892L416,267.632L417,265.556L418,264.857L419,265.713L420,267.103L421,263.796L422,263.243L423,260.087L424,257.197L425,258.384L426,261.302L427,266.638L428,264.997L429,263.044L430,260.653L431,260.138L432,256.088L433,254.068L434,250.462L435,254.258L436,253.922L437,253.728L438,251.314L439,248.444L440,248.778L441,250.562L442,251.684L443,251.174L444,250.083L445,250.586L446,251.468L447,250.511L448,250.674L449,253.765L450,249.772L451,251.692L452,253.205L453,251.943L454,253.19L455,256.302L456,253.476L457,250.457L458,250.573L459,253.362L460,251.817L461,252.145L462,250.035L463,248.745L464,246.902L465,244.796L466,244.839L467,243.484L468,243.988L469,243.285L470,245.47L471,246.415L472,243.798L473,247.982L474,250.439L475,245.102L476,252.678L477,245.634L478,247.29L479,246.845L480,246.888L481,247.76L482,245.128L483,248.153L484,248.589L485,245.011L486,248.389L487,251.93L488,248.463L489,248.443L490,247.405L491,249.817L492,251.209L493,249.04L494,249.034L495,250.075L496,245.078L497,246.381L498,242.361L499,238.334L500,235.948L501,236.724L502,238.354L503,233.946L504,237.437L505,238.884L506,242.147L507,242.156L508,243.818L509,241.635L510,238.677L511,238.817L512,242.68L513,242.601L514,237.903L515,239.013L516,240.266L517,245.671L518,245.72L519,243.832L520,242.835L521,242.504L522,242.42L523,241.405L524,240.938L525,232.507L526,233.553L527,235.762L528,232.554L529,230.85L530,227.694L531,224.119L532,221.105L533,222.405L534,221.082L535,220.153L536,217.376L537,219.964L538,221.339L539,222.259L540,222.552L541,222.476L542,220.171L543,217.557L544,217.736L545,217.309L546,216.138L547,215.722L548,218.526L549,218.905L550,216.408L551,217.202L552,213.095L553,210.118L554,207.731L555,208.126L556,207.611L557,211.72L558,212.05L559,211.392L560,212.472L561,211.585L562,214.176L563,214.832L564,212.04L565,212.331L566,212.586L567,210.994L568,211.796L569,211.017L570,211.477L571,212.062L572,210.523L573,212.576L574,213.922L575,212.192L576,212.764L577,211.387L578,213.56L579,213.664L580,213.207L581,214.594L582,211.964L583,212.976L584,214.039L585,217.324L586,211.727L587,214.565L588,216.68L589,214.912L590,214.181L591,212.81L592,216.961L593,215.36L594,216.232L595,217.493L596,222.488L597,227.122L598,218.147L599,218.953L600,214.655" stroke="#4c78a8" stroke-width="2"/></g></g><path class="foreground" aria-hidden="true" d="" display="none"/></g><g transform="translate(0,0)"><path class="background" aria-hidden="true" d="M0,0h600v400h-600Z"/><g><g class="mark-line role-mark marks" role="graphics-object" aria-roledescription="line mark container"><path aria-label="経過年数 (年): 0; アセットインデックス: 1; パーセンタイル: 50%" role="graphics-symbol" aria-roledescription="line mark" d="M0,247.104L1,248.318L2,247.853L3,250.027L4,249.886L5,250.189L6,250.567L7,250.411L8,251.453L9,251.121L10,252.675L11,253.276L12,252.6L13,252.347L14,255.733L15,256.723L16,256.067L17,256.703L18,257.233L19,256.649L20,257.645L21,257.941L22,258.763L23,261.318L24,261.255L25,263.025L26,260.88L27,263.499L28,262.431L29,263.065L30,263.238L31,263.966L32,263.581L33,263.666L34,265.757L35,264.022L36,265.725L37,265.08L38,266.184L39,267.468L40,267.623L41,266.789L42,268.302L43,268.784L44,269.864L45,269.11L46,270.734L47,268.701L48,268.816L49,269.906L50,271.884L51,272.765L52,274.388L53,273.18L54,275.112L55,274.489L56,276.04L57,275.783L58,275.538L59,275.212L60,276.818L61,281.044L62,280.784L63,280.42L64,280.175L65,279.947L66,280.83L67,282.252L68,283.674L69,282.305L70,283.762L71,283.785L72,283.173L73,283.183L74,284.807L75,284.002L76,286.315L77,287.294L78,287.818L79,288.749L80,289.781L81,290.782L82,291.453L83,291.414L84,290.491L85,289.336L86,287.847L87,286.386L88,287.549L89,287.6L90,290.32L91,289.056L92,287.909L93,286.968L94,287.215L95,288.105L96,289.718L97,290.454L98,291.991L99,290.583L100,290.669L101,291.237L102,293.901L103,294.884L104,294.297L105,292.771L106,292.387L107,292.592L108,291.427L109,293.577L110,291.049L111,294.617L112,293.699L113,292.781L114,292.134L115,291.005L116,289.78L117,290.151L118,290.371L119,292.027L120,290.892L121,292.305L122,291.206L123,290.361L124,291.709L125,293.189L126,292.07L127,291.872L128,291.12L129,293.29L130,291.675L131,290.794L132,291.768L133,291.783L134,292.409L135,291.329L136,292.111L137,288.83L138,289.685L139,289.143L140,291.754L141,292.349L142,292.457L143,292.741L144,291.91L145,292.313L146,292.352L147,293.032L148,291.476L149,291.416L150,291.009L151,291.128L152,295.392L153,294.298L154,292.965L155,292.454L156,291.456L157,291.553L158,291.112L159,291.079L160,290.54L161,290.252L162,292.209L163,291.634L164,292.668L165,293.155L166,290.121L167,291.12L168,291.295L169,291.096L170,291.206L171,291.914L172,290.519L173,290.015L174,288.486L175,288.588L176,286.357L177,285.431L178,285.634L179,287.477L180,287.074L181,287.211L182,287.329L183,286.877L184,287.684L185,287.499L186,286.349L187,285.309L188,284.802L189,283.11L190,283.951L191,283.677L192,282.068L193,284.362L194,281.643L195,280.689L196,279.456L197,277.175L198,278.41L199,279.316L200,275.326L201,276.747L202,277.682L203,278.57L204,276.779L205,278.236L206,276.167L207,275.942L208,274.411L209,273.325L210,273.952L211,273.471L212,272.323L213,271.557L214,270.209L215,272.478L216,270.733L217,269.391L218,270.026L219,271.892L220,272.616L221,270.756L222,268.14L223,271.275L224,272.247L225,272.362L226,270.572L227,268.81L228,268.856L229,269.614L230,267.669L231,266.995L232,267.606L233,266.202L234,267.386L235,266.414L236,264.386L237,266.924L238,264.804L239,266.429L240,267.072L241,266.061L242,263.854L243,263.719L244,263.441L245,264.37L246,263.679L247,263.576L248,264.886L249,263.021L250,264.456L251,264.116L252,263.76L253,262.017L254,261.34L255,262.248L256,259.849L257,260.868L258,258.549L259,260.739L260,262.268L261,261.065L262,263.665L263,259.351L264,256.583L265,256.078L266,258.871L267,257.065L268,255.827L269,253.875L270,253.878L271,253.168L272,252.224L273,250.538L274,248.8L275,250.425L276,251.019L277,248.698L278,249.67L279,250.05L280,250.904L281,248.499L282,247.288L283,248.85L284,252.509L285,252.38L286,249.058L287,246.478L288,248.835L289,247.859L290,249.098L291,247.67L292,251.576L293,250.206L294,245.733L295,248.16L296,246.056L297,246.739L298,245.155L299,241.981L300,240.999L301,241.321L302,241.403L303,239.791L304,237.758L305,239.028L306,238.084L307,237.016L308,237.703L309,237.96L310,235.916L311,234.849L312,237.531L313,235.211L314,235.907L315,233.41L316,232.401L317,233.107L318,230.63L319,230.367L320,228.697L321,226.916L322,226.684L323,226.89L324,224.884L325,223.901L326,225.075L327,222.639L328,220.373L329,221.89L330,222.385L331,221.709L332,224.176L333,224.806L334,223.098L335,221.625L336,221.783L337,217.959L338,219.013L339,221.435L340,223.329L341,222.153L342,225.366L343,223.857L344,221.752L345,218.321L346,219.679L347,218.193L348,218.042L349,219.665L350,219.546L351,221.186L352,218.988L353,218.722L354,217.84L355,218.351L356,215.515L357,218.061L358,218.759L359,217.102L360,217.868L361,218.823L362,219.384L363,215.554L364,215.541L365,213.729L366,215.233L367,214.756L368,215.313L369,213.585L370,211.807L371,213.201L372,210.208L373,209.636L374,212.664L375,210.235L376,211.824L377,211.46L378,211.3L379,208.721L380,212.172L381,211.573L382,210.081L383,207.699L384,206.548L385,207.001L386,209.321L387,205.193L388,205.51L389,201.744L390,205.143L391,203.228L392,202.079L393,199.006L394,198.886L395,200.67L396,200.624L397,198.921L398,197.789L399,200.071L400,200.818L401,199.692L402,199.049L403,201.247L404,199.451L405,197.806L406,194.303L407,200.606L408,195.201L409,195.063L410,197.709L411,195.706L412,194.86L413,192.677L414,191.733L415,191.806L416,192.163L417,189.872L418,189.305L419,188.554L420,188.991L421,188.11L422,190.586L423,189.901L424,189.045L425,188.832L426,187.653L427,189.854L428,188.697L429,185.041L430,187.729L431,184.176L432,183.093L433,185.807L434,188.798L435,188.402L436,188.77L437,187.156L438,187.062L439,187.691L440,185.864L441,188.941L442,185.42L443,187.328L444,187.622L445,184.625L446,186.496L447,184.43L448,187.031L449,180.706L450,181.602L451,182.147L452,177.665L453,176.772L454,174.398L455,176.779L456,178.023L457,174.908L458,175.403L459,174.432L460,174.208L461,171.346L462,170.908L463,166.721L464,165.723L465,167.02L466,166.647L467,167.339L468,167.483L469,166.267L470,164.643L471,163.367L472,164.144L473,163.727L474,163.014L475,161.487L476,163.371L477,164.44L478,163.788L479,162.106L480,160.224L481,157.656L482,154.557L483,154.759L484,152.548L485,153.428L486,150.451L487,148.424L488,148.485L489,145.17L490,142.244L491,138.83L492,139.553L493,138.279L494,140.905L495,138.418L496,135.808L497,138.043L498,138.252L499,138.075L500,139.601L501,142.045L502,142.104L503,142.467L504,140.473L505,139.855L506,138.807L507,138.783L508,134.433L509,136.566L510,137.496L511,138.07L512,134.02L513,133.578L514,132.965L515,132.178L516,131.947L517,132.741L518,133.142L519,135.572L520,133.914L521,130.398L522,129.899L523,131.194L524,132.816L525,134.147L526,133.534L527,128.975L528,127.977L529,130.948L530,127.795L531,125.83L532,124.598L533,124.55L534,125.517L535,126.955L536,127.037L537,122.521L538,122.903L539,122.501L540,121.247L541,119.047L542,119.38L543,121.642L544,123.881L545,120.978L546,119.229L547,116.952L548,114.995L549,111.689L550,111.265L551,110.372L552,110.169L553,108.22L554,108.654L555,106.816L556,107.53L557,107.105L558,108.081L559,109.148L560,110.103L561,108.612L562,107.68L563,103.079L564,104.264L565,103.524L566,103.174L567,101.327L568,100.239L569,101.925L570,102.943L571,106.316L572,107.159L573,108.018L574,108.087L575,110.986L576,107.89L577,107.227L578,106.382L579,102.498L580,105.061L581,105.224L582,98.709L583,99.414L584,100.972L585,96.577L586,97.385L587,96.047L588,92.905L589,90.704L590,93.333L591,93.622L592,94.384L593,91.496L594,90.102L595,94.421L596,91.007L597,89.871L598,88.47L599,87.275L600,89.655" stroke="#f58518" stroke-width="2"/></g></g><path class="foreground" aria-hidden="true" d="" display="none"/></g><g transform="translate(0,0)"><path class="background" aria-hidden="true" d="M0,0h600v400h-600Z"/><g><g class="mark-line role-mark marks" role="graphics-object" aria-roledescription="line mark container"><path aria-label="経過年数 (年): 0; アセットインデックス: 1; パーセンタイル: 90%" role="graphics-symbol" aria-roledescription="line mark" d="M0,247.104L1,243.278L2,241.272L3,240.188L4,238.823L5,239.701L6,239.232L7,239.579L8,236.926L9,236.058L10,237.295L11,239.188L12,239.647L13,239.083L14,239.769L15,238.333L16,238.693L17,239.993L18,240.574L19,242.484L20,243.681L21,238.877L22,239.888L23,239.007L24,237.465L25,237.896L26,237.929L27,240.125L28,239.067L29,236.647L30,239.514L31,240.455L32,239.747L33,236.923L34,234.48L35,238.068L36,235.24L37,237.754L38,238.595L39,239.651L40,238.993L41,238.423L42,235.013L43,239.569L44,240.288L45,241.786L46,241.369L47,240.058L48,241.231L49,240.099L50,244.593L51,243.434L52,244.441L53,246.124L54,245.523L55,245.289L56,248.511L57,249.464L58,248.638L59,252.248L60,252.019L61,253.481L62,254.601L63,252.819L64,250.393L65,252.206L66,254.043L67,249.627L68,251.493L69,253.788L70,251.858L71,254.539L72,252.149L73,254.221L74,255.736L75,254.969L76,255.09L77,255.827L78,254.209L79,258.172L80,259.182L81,255.372L82,257.892L83,257.329L84,258.648L85,259.46L86,260.105L87,261.588L88,264.604L89,265.111L90,265.659L91,268.223L92,267.927L93,268.176L94,268.631L95,266.584L96,266.544L97,267.615L98,269.309L99,272.508L100,273.266L101,272.356L102,268.078L103,268.374L104,268.356L105,268.075L106,269.094L107,270.96L108,272.593L109,271.038L110,268.295L111,272.223L112,271.827L113,274.009L114,272.403L115,270.24L116,271.15L117,270.947L118,268.918L119,269.654L120,269.395L121,270.374L122,271.553L123,267.508L124,267.027L125,265.812L126,267.493L127,265.3L128,267.727L129,266.741L130,266.422L131,265.64L132,266.207L133,266.454L134,267.346L135,268.523L136,267.188L137,268.044L138,265.201L139,263.967L140,267.602L141,267.867L142,270.908L143,269.99L144,270.414L145,273.361L146,271.273L147,271.818L148,271.27L149,271.767L150,272.877L151,272.242L152,270.469L153,268.643L154,270.051L155,267.88L156,269.566L157,267.044L158,266.301L159,266.407L160,265.332L161,264.353L162,262.158L163,262.529L164,262.756L165,261.689L166,260.555L167,260.433L168,258.493L169,257.546L170,259.694L171,257.769L172,257.865L173,258.416L174,256.119L175,253.998L176,253.113L177,253.8L178,253.176L179,250.662L180,249.995L181,248.819L182,246.993L183,245.22L184,241.956L185,244.203L186,240.93L187,241.839L188,243.188L189,237.256L190,236.732L191,238.508L192,241.242L193,238.155L194,237.222L195,239.259L196,235.247L197,234.515L198,236.296L199,238.101L200,235.436L201,237.407L202,236.524L203,241.091L204,242.235L205,239.177L206,236.505L207,238.321L208,234.965L209,240.786L210,238.08L211,239.553L212,242.332L213,239.834L214,237.168L215,237.949L216,237.875L217,233.96L218,235.57L219,233.585L220,231.615L221,233.854L222,230.5L223,231.49L224,228.968L225,229.703L226,228.295L227,227.853L228,225.98L229,227.261L230,223.79L231,223.597L232,221.387L233,223.925L234,225.954L235,224.496L236,225.723L237,223.752L238,223.554L239,218.055L240,216.448L241,217.892L242,214.644L243,216.435L244,214.364L245,213.33L246,214.032L247,213.64L248,218.003L249,212.754L250,215.475L251,215.91L252,213.531L253,213.41L254,215.496L255,216.597L256,214.377L257,215.836L258,214.318L259,213.493L260,212.053L261,207.53L262,209.736L263,209.89L264,210.919L265,209.25L266,208.238L267,203.777L268,204.943L269,201.884L270,200.949L271,199.318L272,194.918L273,195.103L274,194.289L275,194.965L276,197.428L277,198.109L278,197.451L279,197.617L280,199.585L281,195.337L282,194.803L283,193.99L284,195.256L285,193.675L286,192.542L287,194.374L288,195.61L289,195.056L290,194.797L291,195.231L292,194.309L293,191.494L294,194.972L295,195.961L296,196.715L297,197.979L298,196.593L299,198.893L300,196.313L301,196.586L302,194.391L303,190.797L304,188.25L305,186.265L306,189.48L307,189.8L308,184.106L309,183.295L310,183.633L311,183.223L312,181.394L313,179.254L314,180.663L315,181.452L316,182.7L317,178.859L318,175.639L319,177.085L320,176.925L321,175.762L322,179.369L323,178.964L324,175.744L325,175.169L326,174.635L327,171.977L328,174.308L329,176.544L330,175.234L331,174.88L332,170.447L333,169.285L334,167.271L335,169.545L336,166.449L337,162.569L338,163.538L339,162.513L340,163.553L341,158.946L342,158.233L343,159.342L344,160.093L345,155.051L346,156.875L347,157.284L348,154.361L349,155.791L350,157.575L351,157.712L352,152.65L353,154.608L354,152.574L355,150.947L356,151.519L357,152.018L358,153.081L359,150.909L360,148.622L361,146.639L362,146.535L363,148.797L364,143.742L365,144.226L366,140.07L367,138.086L368,140.522L369,139.329L370,139.772L371,141.446L372,137.288L373,136.367L374,138.119L375,140.044L376,137.727L377,136.378L378,132.872L379,135.749L380,131.087L381,130.248L382,131.59L383,129.322L384,125.215L385,126.373L386,126.77L387,123.77L388,124.525L389,123.906L390,121.977L391,118.737L392,116.035L393,117.734L394,115.23L395,113.523L396,109.617L397,110.54L398,108.624L399,108.313L400,106.75L401,105.547L402,108.168L403,108.934L404,108.278L405,105.78L406,106.754L407,107.522L408,106.684L409,105.008L410,109.281L411,106.657L412,106.42L413,105.148L414,102.97L415,105.677L416,100.706L417,100.873L418,103.386L419,101.543L420,101.266L421,100.751L422,105.339L423,104.197L424,102.181L425,98.639L426,96.803L427,95.885L428,97.011L429,93.538L430,93.915L431,97.256L432,98.328L433,96.837L434,93.645L435,90.112L436,92.754L437,94.038L438,94.44L439,89.703L440,91.2L441,91.483L442,91.818L443,90.067L444,89.3L445,89.476L446,89.088L447,86.446L448,89.144L449,85.344L450,83.596L451,86.276L452,82.753L453,82.793L454,80.849L455,77.289L456,79.305L457,79.641L458,75.34L459,77.445L460,75.472L461,72.932L462,73.953L463,75.538L464,73.115L465,73.381L466,73.887L467,75.08L468,71.813L469,66.631L470,65.003L471,60.51L472,60.6L473,55.941L474,55.148L475,54.837L476,51.831L477,54.934L478,55.757L479,54.565L480,53.708L481,55.909L482,51.405L483,49.351L484,49.237L485,52.612L486,49.921L487,53.632L488,51.106L489,47.797L490,45.918L491,45.357L492,41.964L493,47.333L494,46.148L495,46.032L496,48.032L497,51.013L498,55.415L499,54.353L500,56.245L501,54.426L502,52.451L503,50.439L504,50.886L505,51.672L506,50.509L507,53.443L508,52.574L509,49.68L510,47.632L511,52.873L512,52.25L513,54.766L514,53.895L515,51.136L516,47.845L517,49.633L518,54.746L519,55.803L520,53.06L521,52.73L522,48.237L523,51.286L524,49.701L525,49.705L526,51.378L527,48.764L528,50.076L529,46.622L530,47.127L531,46.657L532,42.981L533,40.492L534,43.878L535,43.279L536,39.897L537,39.085L538,36.673L539,35.509L540,36.224L541,33.591L542,34.168L543,32.579L544,30.631L545,29.194L546,30.86L547,28.862L548,28.054L549,27.966L550,26.086L551,26.988L552,26.781L553,30.5L554,29.157L555,28.467L556,30.823L557,30.673L558,32.47L559,31.159L560,29.855L561,29.629L562,31.097L563,30.121L564,32.129L565,28.18L566,28.423L567,30.868L568,27.014L569,25.166L570,26.85L571,27.345L572,26.733L573,26.082L574,28.39L575,25.412L576,19.466L577,20.305L578,20.951L579,23.534L580,18.756L581,18.343L582,17.581L583,17.018L584,18.087L585,20.603L586,17.179L587,17.02L588,14.638L589,12.13L590,13.579L591,12.084L592,7.683L593,6.817L594,7.419L595,5.638L596,3.557L597,2.162L598,0L599,3.482L600,4.886" stroke="#e45756" stroke-width="2"/></g></g><path class="foreground" aria-hidden="true" d="" display="none"/></g></g><g class="mark-group role-legend" role="graphics-symbol" aria-roledescription="legend" aria-label="Symbol legend titled 'パーセンタイル' for stroke color with 3 values: 10%, 50%, 90%"><g transform="translate(620,0)"><path class="background" aria-hidden="true" d="M0,0h77v53h-77Z" pointer-events="none"/><g><g class="mark-group role-legend-entry"><g transform="translate(0,16)"><path class="background" aria-hidden="true" d="M0,0h0v0h0Z" pointer-events="none"/><g><g class="mark-group role-scope" role="graphics-object" aria-roledescription="group mark container"><g transform="translate(0,0)"><path class="background" aria-hidden="true" d="M0,0h36.0146484375v11h-36.0146484375Z" pointer-events="none" opacity="1"/><g><g class="mark-symbol role-legend-symbol" pointer-events="none"><path transform="translate(6,6)" d="M-5,0L5,0" stroke="#4c78a8" stroke-width="1.5" opacity="1"/></g><g class="mark-text role-legend-label" pointer-events="none"><text text-anchor="start" transform="translate(16,9)" font-family="sans-serif" font-size="10px" fill="#000" opacity="1">10%</text></g></g><path class="foreground" aria-hidden="true" d="" pointer-events="none" display="none"/></g><g transform="translate(0,13)"><path class="background" aria-hidden="true" d="M0,0h36.0146484375v11h-36.0146484375Z" pointer-events="none" opacity="1"/><g><g class="mark-symbol role-legend-symbol" pointer-events="none"><path transform="translate(6,6)" d="M-5,0L5,0" stroke="#f58518" stroke-width="1.5" opacity="1"/></g><g class="mark-text role-legend-label" pointer-events="none"><text text-anchor="start" transform="translate(16,9)" font-family="sans-serif" font-size="10px" fill="#000" opacity="1">50%</text></g></g><path class="foreground" aria-hidden="true" d="" pointer-events="none" display="none"/></g><g transform="translate(0,26)"><path class="background" aria-hidden="true" d="M0,0h36.0146484375v11h-36.0146484375Z" pointer-events="none" opacity="1"/><g><g class="mark-symbol role-legend-symbol" pointer-events="none"><path transform="translate(6,6)" d="M-5,0L5,0" stroke="#e45756" stroke-width="1.5" opacity="1"/></g><g class="mark-text role-legend-label" pointer-events="none"><text text-anchor="start" transform="translate(16,9)" font-family="sans-serif" font-size="10px" fill="#000" opacity="1">90%</text></g></g><path class="foreground" aria-hidden="true" d="" pointer-events="none" display="none"/></g></g></g><path class="foreground" aria-hidden="true" d="" pointer-events="none" display="none"/></g></g><g class="mark-text role-legend-title" pointer-events="none"><text text-anchor="start" transform="translate(0,9)" font-family="sans-serif" font-size="11px" font-weight="bold" fill="#000" opacity="1">パーセンタイル</text></g></g><path class="foreground" aria-hidden="true" d="" pointer-events="none" display="none"/></g></g><g class="mark-group role-title"><g transform="translate(300,-19)"><path class="background" aria-hidden="true" d="M0,0h0v0h0Z" pointer-events="none"/><g><g class="mark-text role-title-text" role="graphics-symbol" aria-roledescription="title" aria-label="Title text '11-20年に破産した人のアセット推移'" pointer-events="none"><text text-anchor="middle" transform="translate(0,10)" font-family="sans-serif" font-size="13px" font-weight="bold" fill="#000" opacity="1">11-20年に破産した人のアセット推移</text></g></g><path class="foreground" aria-hidden="true" d="" pointer-events="none" display="none"/></g></g></g><path class="foreground" aria-hidden="true" d="" display="none"/></g></g></g></svg>