<svg xmlns="http://www.w3.org/2000/svg" xmlns:xlink="http://www.w3.org/1999/xlink" version="1.1" class="marks" width="743" height="461" viewBox="0 0 743 461"><rect width="743" height="461" fill="white"/><g fill="none" stroke-miterlimit="10" transform="translate(41,24)"><g class="mark-group role-frame root" role="graphics-object" aria-roledescription="group mark container"><g transform="translate(0,0)"><path class="background" aria-hidden="true" d="M0.5,0.5h600v400h-600Z" stroke="#ddd"/><g><g class="mark-group role-axis" aria-hidden="true"><g transform="translate(0.5,400.5)"><path class="background" aria-hidden="true" d="M0,0h0v0h0Z" pointer-events="none"/><g><g class="mark-rule role-axis-grid" pointer-events="none"><line transform="translate(0,-400)" x2="0" y2="400" stroke="#ddd" stroke-width="1" opacity="1"/><line transform="translate(60,-400)" x2="0" y2="400" stroke="#ddd" stroke-width="1" opacity="1"/><line transform="translate(120,-400)" x2="0" y2="400" stroke="#ddd" stroke-width="1" opacity="1"/><line transform="translate(180,-400)" x2="0" y2="400" stroke="#ddd" stroke-width="1" opacity="1"/><line transform="translate(240,-400)" x2="0" y2="400" stroke="#ddd" stroke-width="1" opacity="1"/><line transform="translate(300,-400)" x2="0" y2="400" stroke="#ddd" stroke-width="1" opacity="1"/><line transform="translate(360,-400)" x2="0" y2="400" stroke="#ddd" stroke-width="1" opacity="1"/><line transform="translate(420,-400)" x2="0" y2="400" stroke="#ddd" stroke-width="1" opacity="1"/><line transform="translate(480,-400)" x2="0" y2="400" stroke="#ddd" stroke-width="1" opacity="1"/><line transform="translate(540,-400)" x2="0" y2="400" stroke="#ddd" stroke-width="1" opacity="1"/><line transform="translate(600,-400)" x2="0" y2="400" stroke="#ddd" stroke-width="1" opacity="1"/></g></g><path class="foreground" aria-hidden="true" d="" pointer-events="none" display="none"/></g></g><g class="mark-group role-axis" aria-hidden="true"><g transform="translate(0.5,0.5)"><path class="background" aria-hidden="true" d="M0,0h0v0h0Z" pointer-events="none"/><g><g class="mark-rule role-axis-grid" pointer-events="none"><line transform="translate(0,400)" x2="600" y2="0" stroke="#ddd" stroke-width="1" opacity="1"/><line transform="translate(0,363)" x2="600" y2="0" stroke="#ddd" stroke-width="1" opacity="1"/><line transform="translate(0,337)" x2="600" y2="0" stroke="#ddd" stroke-width="1" opacity="1"/><line transform="translate(0,317)" x2="600" y2="0" stroke="#ddd" stroke-width="1" opacity="1"/><line transform="translate(0,300)" x2="600" y2="0" stroke="#ddd" stroke-width="1" opacity="1"/><line transform="translate(0,286)" x2="600" y2="0" stroke="#ddd" stroke-width="1" opacity="1"/><line transform="translate(0,274)" x2="600" y2="0" stroke="#ddd" stroke-width="1" opacity="1"/><line transform="translate(0,263)" x2="600" y2="0" stroke="#ddd" stroke-width="1" opacity="1"/><line transform="translate(0,253)" x2="600" y2="0" stroke="#ddd" stroke-width="1" opacity="1"/><line transform="translate(0,190)" x2="600" y2="0" stroke="#ddd" stroke-width="1" opacity="1"/><line transform="translate(0,153)" x2="600" y2="0" stroke="#ddd" stroke-width="1" opacity="1"/><line transform="translate(0,127)" x2="600" y2="0" stroke="#ddd" stroke-width="1" opacity="1"/><line transform="translate(0,107)" x2="600" y2="0" stroke="#ddd" stroke-width="1" opacity="1"/><line transform="translate(0,90)" x2="600" y2="0" stroke="#ddd" stroke-width="1" opacity="1"/><line transform="translate(0,76)" x2="600" y2="0" stroke="#ddd" stroke-width="1" opacity="1"/><line transform="translate(0,64)" x2="600" y2="0" stroke="#ddd" stroke-width="1" opacity="1"/><line transform="translate(0,53)" x2="600" y2="0" stroke="#ddd" stroke-width="1" opacity="1"/><line transform="translate(0,44)" x2="600" y2="0" stroke="#ddd" stroke-width="1" opacity="1"/></g></g><path class="foreground" aria-hidden="true" d="" pointer-events="none" display="none"/></g></g><g class="mark-group role-axis" role="graphics-symbol" aria-roledescription="axis" aria-label="X-axis titled '経過年数 (年)' for a linear scale with values from 0 to 50"><g transform="translate(0.5,400.5)"><path class="background" aria-hidden="true" d="M0,0h0v0h0Z" pointer-events="none"/><g><g class="mark-rule role-axis-tick" pointer-events="none"><line transform="translate(0,0)" x2="0" y2="5" stroke="#888" stroke-width="1" opacity="1"/><line transform="translate(60,0)" x2="0" y2="5" stroke="#888" stroke-width="1" opacity="1"/><line transform="translate(120,0)" x2="0" y2="5" stroke="#888" stroke-width="1" opacity="1"/><line transform="translate(180,0)" x2="0" y2="5" stroke="#888" stroke-width="1" opacity="1"/><line transform="translate(240,0)" x2="0" y2="5" stroke="#888" stroke-width="1" opacity="1"/><line transform="translate(300,0)" x2="0" y2="5" stroke="#888" stroke-width="1" opacity="1"/><line transform="translate(360,0)" x2="0" y2="5" stroke="#888" stroke-width="1" opacity="1"/><line transform="translate(420,0)" x2="0" y2="5" stroke="#888" stroke-width="1" opacity="1"/><line transform="translate(480,0)" x2="0" y2="5" stroke="#888" stroke-width="1" opacity="1"/><line transform="translate(540,0)" x2="0" y2="5" stroke="#888" stroke-width="1" opacity="1"/><line transform="translate(600,0)" x2="0" y2="5" stroke="#888" stroke-width="1" opacity="1"/></g><g class="mark-text role-axis-label" pointer-events="none"><text text-anchor="start" transform="translate(0,15)" font-family="sans-serif" font-size="10px" fill="#000" opacity="1">0</text><text text-anchor="middle" transform="translate(60,15)" font-family="sans-serif" font-size="10px" fill="#000" opacity="1">5</text><text text-anchor="middle" transform="translate(120,15)" font-family="sans-serif" font-size="10px" fill="#000" opacity="1">10</text><text text-anchor="middle" transform="translate(180,15)" font-family="sans-serif" font-size="10px" fill="#000" opacity="1">15</text><text text-anchor="middle" transform="translate(240,15)" font-family="sans-serif" font-size="10px" fill="#000" opacity="1">20</text><text text-anchor="middle" transform="translate(300,15)" font-family="sans-serif" font-size="10px" fill="#000" opacity="1">25</text><text text-anchor="middle" transform="translate(360,15)" font-family="sans-serif" font-size="10px" fill="#000" opacity="1">30</text><text text-anchor="middle" transform="translate(420,15)" font-family="sans-serif" font-size="10px" fill="#000" opacity="1">35</text><text text-anchor="middle" transform="translate(480,15)" font-family="sans-serif" font-size="10px" fill="#000" opacity="1">40</text><text text-anchor="middle" transform="translate(540,15)" font-family="sans-serif" font-size="10px" fill="#000" opacity="1">45</text><text text-anchor="end" transform="translate(600,15)" font-family="sans-serif" font-size="10px" fill="#000" opacity="1">50</text></g><g class="mark-rule role-axis-domain" pointer-events="none"><line transform="translate(0,0)" x2="600" y2="0" stroke="#888" stroke-width="1" opacity="1"/></g><g class="mark-text role-axis-title" pointer-events="none"><text text-anchor="middle" transform="translate(300,30)" font-family="sans-serif" font-size="11px" font-weight="bold" fill="#000" opacity="1">経過年数 (年)</text></g></g><path class="foreground" aria-hidden="true" d="" pointer-events="none" display="none"/></g></g><g class="mark-group role-axis" role="graphics-symbol" aria-roledescription="axis" aria-label="Y-axis titled 'アセットインデックス' for a log scale with values from 0.2 to 16.17196466"><g transform="translate(0.5,0.5)"><path class="background" aria-hidden="true" d="M0,0h0v0h0Z" pointer-events="none"/><g><g class="mark-rule role-axis-tick" pointer-events="none"><line transform="translate(0,400)" x2="-5" y2="0" stroke="#888" stroke-width="1" opacity="1"/><line transform="translate(0,363)" x2="-5" y2="0" stroke="#888" stroke-width="1" opacity="1"/><line transform="translate(0,337)" x2="-5" y2="0" stroke="#888" stroke-width="1" opacity="1"/><line transform="translate(0,317)" x2="-5" y2="0" stroke="#888" stroke-width="1" opacity="1"/><line transform="translate(0,300)" x2="-5" y2="0" stroke="#888" stroke-width="1" opacity="1"/><line transform="translate(0,286)" x2="-5" y2="0" stroke="#888" stroke-width="1" opacity="1"/><line transform="translate(0,274)" x2="-5" y2="0" stroke="#888" stroke-width="1" opacity="1"/><line transform="translate(0,263)" x2="-5" y2="0" stroke="#888" stroke-width="1" opacity="1"/><line transform="translate(0,253)" x2="-5" y2="0" stroke="#888" stroke-width="1" opacity="1"/><line transform="translate(0,190)" x2="-5" y2="0" stroke="#888" stroke-width="1" opacity="1"/><line transform="translate(0,153)" x2="-5" y2="0" stroke="#888" stroke-width="1" opacity="1"/><line transform="translate(0,127)" x2="-5" y2="0" stroke="#888" stroke-width="1" opacity="1"/><line transform="translate(0,107)" x2="-5" y2="0" stroke="#888" stroke-width="1" opacity="1"/><line transform="translate(0,90)" x2="-5" y2="0" stroke="#888" stroke-width="1" opacity="1"/><line transform="translate(0,76)" x2="-5" y2="0" stroke="#888" stroke-width="1" opacity="1"/><line transform="translate(0,64)" x2="-5" y2="0" stroke="#888" stroke-width="1" opacity="1"/><line transform="translate(0,53)" x2="-5" y2="0" stroke="#888" stroke-width="1" opacity="1"/><line transform="translate(0,44)" x2="-5" y2="0" stroke="#888" stroke-width="1" opacity="1"/></g><g class="mark-text role-axis-label" pointer-events="none"><text text-anchor="end" transform="translate(-7,403)" font-family="sans-serif" font-size="10px" fill="#000" opacity="1">0.2</text><text text-anchor="end" transform="translate(-7,366.0784226873385)" font-family="sans-serif" font-size="10px" fill="#000" opacity="1">0.3</text><text text-anchor="end" transform="translate(-7,339.88214668949945)" font-family="sans-serif" font-size="10px" fill="#000" opacity="1">0.4</text><text text-anchor="end" transform="translate(-7,319.56273641987)" font-family="sans-serif" font-size="10px" fill="#000" opacity="1">0.5</text><text text-anchor="end" transform="translate(-7,302.96056937683795)" font-family="sans-serif" font-size="10px" fill="#000" opacity="1"/><text text-anchor="end" transform="translate(-7,288.92363714955707)" font-family="sans-serif" font-size="10px" fill="#000" opacity="1"/><text text-anchor="end" transform="translate(-7,276.76429337899896)" font-family="sans-serif" font-size="10px" fill="#000" opacity="1"/><text text-anchor="end" transform="translate(-7,266.03899206417645)" font-family="sans-serif" font-size="10px" fill="#000" opacity="1"/><text text-anchor="end" transform="translate(-7,256.44488310936947)" font-family="sans-serif" font-size="10px" fill="#000" opacity="1">1</text><text text-anchor="end" transform="translate(-7,193.32702979886898)" font-family="sans-serif" font-size="10px" fill="#000" opacity="1">2</text><text text-anchor="end" transform="translate(-7,156.40545248620748)" font-family="sans-serif" font-size="10px" fill="#000" opacity="1">3</text><text text-anchor="end" transform="translate(-7,130.20917648836843)" font-family="sans-serif" font-size="10px" fill="#000" opacity="1">4</text><text text-anchor="end" transform="translate(-7,109.889766218739)" font-family="sans-serif" font-size="10px" fill="#000" opacity="1">5</text><text text-anchor="end" transform="translate(-7,93.28759917570697)" font-family="sans-serif" font-size="10px" fill="#000" opacity="1"/><text text-anchor="end" transform="translate(-7,79.25066694842597)" font-family="sans-serif" font-size="10px" fill="#000" opacity="1"/><text text-anchor="end" transform="translate(-7,67.09132317786792)" font-family="sans-serif" font-size="10px" fill="#000" opacity="1"/><text text-anchor="end" transform="translate(-7,56.36602186304545)" font-family="sans-serif" font-size="10px" fill="#000" opacity="1"/><text text-anchor="end" transform="translate(-7,46.771912908238434)" font-family="sans-serif" font-size="10px" fill="#000" opacity="1">10</text></g><g class="mark-rule role-axis-domain" pointer-events="none"><line transform="translate(0,400)" x2="0" y2="-400" stroke="#888" stroke-width="1" opacity="1"/></g><g class="mark-text role-axis-title" pointer-events="none"><text text-anchor="middle" transform="translate(-24.9013671875,200) rotate(-90) translate(0,-2)" font-family="sans-serif" font-size="11px" font-weight="bold" fill="#000" opacity="1">アセットインデックス</text></g></g><path class="foreground" aria-hidden="true" d="" pointer-events="none" display="none"/></g></g><g class="mark-group role-scope pathgroup" role="graphics-object" aria-roledescription="group mark container"><g transform="translate(0,0)"><path class="background" aria-hidden="true" d="M0,0h600v400h-600Z"/><g><g class="mark-line role-mark marks" role="graphics-object" aria-roledescription="line mark container"><path aria-label="経過年数 (年): 0; アセットインデックス: 1; パーセンタイル: 10%" role="graphics-symbol" aria-roledescription="line mark" d="M0,253.445L1,257.538L2,259.363L3,260.756L4,261.354L5,262.149L6,262.942L7,264.901L8,266.093L9,265.079L10,265.404L11,265.715L12,267.127L13,268.058L14,267.951L15,269.641L16,268.047L17,268.59L18,269.604L19,269.903L20,271.174L21,271.795L22,272.727L23,273.058L24,272.705L25,272.281L26,273.148L27,274.69L28,274.326L29,274.93L30,274.371L31,274.679L32,274.922L33,274.075L34,273.246L35,273.341L36,273.651L37,274.546L38,275.523L39,275.898L40,275.626L41,275.281L42,273.958L43,273.749L44,273.713L45,274.534L46,274.321L47,274.695L48,275.551L49,276.076L50,275.285L51,275.637L52,276.648L53,276.553L54,276.671L55,276.832L56,276.26L57,274.203L58,274.796L59,274.753L60,275.129L61,275.516L62,275.369L63,274.408L64,274.623L65,275.203L66,274.59L67,274.269L68,273.963L69,273.351L70,274.391L71,274.22L72,274.23L73,273.541L74,274.345L75,275.189L76,274.581L77,275.276L78,274.78L79,275.848L80,276.357L81,274.486L82,274.125L83,272.915L84,273.46L85,274.975L86,274.47L87,275.023L88,273.165L89,274.432L90,273.925L91,273.757L92,273.262L93,271.119L94,271.806L95,271.535L96,271.474L97,269.755L98,270.325L99,268.503L100,269.164L101,267.885L102,266.842L103,267.135L104,267.69L105,267.878L106,267.173L107,266.49L108,266.227L109,266.888L110,267.179L111,266.91L112,265.807L113,266.001L114,265.769L115,264.358L116,265.966L117,264.726L118,266.252L119,264.25L120,264.283L121,263.688L122,262.685L123,264.88L124,265.214L125,263.951L126,263.114L127,262.955L128,264.913L129,264.595L130,262.364L131,262.663L132,262.138L133,260.811L134,261.383L135,261.256L136,261.679L137,261.512L138,261.661L139,261.647L140,261.576L141,262.499L142,262.775L143,262.363L144,262.155L145,262.575L146,262.642L147,262.074L148,260.634L149,260.869L150,260.574L151,260.376L152,260.335L153,260.83L154,260.968L155,259.657L156,258.848L157,259.002L158,258.492L159,257.72L160,256.774L161,257.433L162,255.447L163,255.626L164,256.11L165,257.719L166,257.671L167,257.599L168,256.012L169,255.439L170,255.865L171,255.466L172,255.586L173,256.631L174,256.091L175,255.644L176,256.417L177,256.22L178,256.672L179,255.524L180,257.333L181,256.265L182,255.619L183,256.807L184,256.211L185,255.761L186,255.81L187,255.187L188,253.226L189,256.164L190,253.88L191,254.518L192,253.095L193,253.772L194,254.953L195,255.055L196,253.294L197,252.801L198,252.847L199,252.788L200,252.95L201,253.11L202,252.421L203,252.073L204,250.752L205,251.245L206,251.725L207,250.445L208,248.762L209,248.491L210,249.123L211,248.831L212,248.861L213,248.657L214,248.962L215,248.128L216,247.053L217,247.093L218,246.718L219,246.401L220,247.071L221,247.388L222,247.047L223,246.43L224,245.087L225,244.735L226,244.527L227,244.244L228,243.284L229,243.946L230,243.475L231,242.989L232,242.111L233,242.401L234,243.657L235,242.641L236,241.622L237,241.586L238,242.055L239,243.065L240,243.517L241,242.705L242,241.768L243,240.409L244,240.744L245,240.545L246,241.989L247,241.553L248,239.799L249,240.435L250,239.293L251,238.459L252,236.923L253,238.724L254,237.888L255,238.39L256,240.186L257,240.14L258,239.761L259,240.223L260,239.535L261,239.692L262,238.48L263,239.153L264,239.617L265,239.365L266,240.073L267,239.581L268,237.951L269,239.244L270,239.466L271,238.137L272,237.925L273,237.658L274,236.034L275,235.713L276,235.889L277,236.32L278,235.247L279,234.903L280,234.007L281,235.237L282,233.114L283,232.776L284,231.98L285,232.154L286,231.82L287,232.923L288,233.206L289,232.79L290,233.489L291,230.839L292,230.401L293,231.397L294,231.359L295,231.412L296,232.1L297,232.372L298,231.293L299,231.674L300,231.394L301,231.741L302,231.193L303,231.337L304,230.852L305,230.226L306,231.046L307,231.358L308,231.693L309,230.385L310,232.339L311,233.45L312,232.556L313,233.549L314,230.159L315,229.641L316,229.463L317,230.486L318,229.113L319,228.653L320,228.302L321,229.808L322,229.185L323,228.841L324,230.126L325,231.055L326,230.39L327,228.231L328,227.815L329,227.657L330,228.508L331,229.976L332,230.65L333,229.647L334,228.087L335,227.805L336,227.501L337,226.291L338,227.115L339,226.448L340,225.613L341,227.675L342,226.156L343,229.23L344,226.297L345,225.937L346,226.157L347,225.921L348,225.863L349,226.113L350,225.998L351,227.388L352,228.763L353,228.044L354,229.826L355,229.181L356,229.78L357,229.346L358,228.917L359,228.242L360,228.822L361,228.711L362,229.756L363,228.436L364,227.33L365,227.828L366,226.577L367,225.538L368,224.617L369,226.416L370,226.139L371,225.654L372,226.181L373,226.218L374,225.319L375,224.731L376,225.981L377,227.388L378,225.441L379,224.368L380,225.603L381,225.882L382,226.041L383,224.723L384,223.447L385,224.416L386,223.284L387,222.996L388,221.635L389,223.018L390,222.237L391,222.175L392,220.962L393,221.586L394,223.005L395,222.471L396,222.127L397,221.101L398,221.448L399,222.434L400,220.748L401,220.713L402,222.244L403,222.363L404,221.166L405,219.114L406,220.449L407,217.626L408,218.785L409,219.034L410,219.336L411,217.962L412,218.529L413,217.699L414,216.341L415,216.554L416,217.591L417,217.371L418,215.71L419,218.596L420,219.216L421,217.465L422,217.195L423,216.245L424,215.741L425,216.113L426,215.244L427,214.093L428,211.964L429,213.212L430,210.081L431,209.722L432,210.393L433,210.779L434,208.547L435,210.245L436,208.479L437,209.621L438,208.941L439,210.623L440,210.752L441,209.741L442,208.524L443,207.835L444,206.85L445,206.65L446,204.558L447,203.571L448,206.912L449,204.936L450,205.806L451,207.421L452,203.62L453,205.623L454,205.509L455,206.004L456,203.192L457,203.27L458,202.174L459,204.108L460,202.175L461,203.794L462,202.945L463,205.396L464,204.412L465,205.243L466,203.866L467,202.657L468,203.149L469,203.751L470,205.493L471,205.051L472,205.896L473,204.433L474,204.484L475,203.087L476,203.94L477,202.134L478,201.692L479,203.219L480,204.172L481,205.492L482,203.654L483,202.523L484,203.25L485,202.639L486,199.711L487,199.432L488,198.872L489,200.774L490,199.391L491,198.318L492,199.852L493,199.531L494,197.864L495,197.701L496,197.47L497,196.244L498,196.339L499,194.33L500,195.257L501,195.78L502,195.491L503,194.687L504,194.611L505,194.297L506,192.433L507,193.203L508,193.172L509,191.983L510,191.453L511,193.111L512,192.172L513,189.201L514,190.491L515,189.69L516,190.778L517,190.976L518,191.103L519,189.79L520,191.589L521,190.594L522,190.854L523,192.058L524,187.343L525,187.577L526,185.796L527,186.978L528,186.246L529,188.361L530,186.737L531,187.322L532,187.743L533,186.774L534,184.27L535,183.93L536,186.485L537,183.898L538,184.961L539,183.688L540,181.524L541,182.62L542,182.291L543,181.832L544,182.385L545,180.902L546,182.93L547,179.753L548,180.83L549,179.948L550,183.807L551,183.206L552,179.926L553,180.251L554,182.93L555,182.29L556,181.066L557,181.306L558,181.049L559,180.458L560,179.472L561,181.081L562,180.117L563,179.303L564,178.498L565,181.346L566,179.061L567,179.528L568,178.868L569,179.938L570,177.504L571,178.38L572,179.745L573,178.742L574,175.307L575,176.468L576,177.995L577,179.836L578,175.169L579,173.577L580,172.861L581,172.424L582,172.591L583,174.9L584,174.494L585,173.453L586,170.576L587,174.01L588,174.831L589,173.166L590,173.649L591,172.866L592,173.511L593,174.55L594,174.019L595,169.407L596,166.414L597,167.948L598,167.412L599,167.95L600,166.957" stroke="#4c78a8" stroke-width="2"/></g></g><path class="foreground" aria-hidden="true" d="" display="none"/></g><g transform="translate(0,0)"><path class="background" aria-hidden="true" d="M0,0h600v400h-600Z"/><g><g class="mark-line role-mark marks" role="graphics-object" aria-roledescription="line mark container"><path aria-label="経過年数 (年): 0; アセットインデックス: 1; パーセンタイル: 50%" role="graphics-symbol" aria-roledescription="line mark" d="M0,253.445L1,253.474L2,252.917L3,253.026L4,253.177L5,253.428L6,252.718L7,252.718L8,252.622L9,253.336L10,253.388L11,253.209L12,252.08L13,252.231L14,252.365L15,252.366L16,252.063L17,252.516L18,252.889L19,252.977L20,251.757L21,251.521L22,251.815L23,250.815L24,250.827L25,250.857L26,250.827L27,251.101L28,251.259L29,251.583L30,251.063L31,250.064L32,249.527L33,250.132L34,248.527L35,248.928L36,250.046L37,249.605L38,249.953L39,249.694L40,249.655L41,247.996L42,248.307L43,248.464L44,248.998L45,248.424L46,246.482L47,247.87L48,247.29L49,247.39L50,248.224L51,247.938L52,248.01L53,246.367L54,247.21L55,246.419L56,247.856L57,248.312L58,246.681L59,247.98L60,246.662L61,247.572L62,247.099L63,247.684L64,247.211L65,247.295L66,246.521L67,246.819L68,247.056L69,247.08L70,246.116L71,246.425L72,245.821L73,244.733L74,244.121L75,243.508L76,244.066L77,244.012L78,243.376L79,243.429L80,243.06L81,243.529L82,243.442L83,244.324L84,243.902L85,243.312L86,243.547L87,242.203L88,242.363L89,243.48L90,243.327L91,244.1L92,242.807L93,243.109L94,242.923L95,241.938L96,241.656L97,242.892L98,241.699L99,241.883L100,242.011L101,242.79L102,242.272L103,241.764L104,241.754L105,241.802L106,242.633L107,242.975L108,242.411L109,243.055L110,242.101L111,241.713L112,241.321L113,241.885L114,241.354L115,240.609L116,239.246L117,240.281L118,239.903L119,239.123L120,241.31L121,240.569L122,240.116L123,240.407L124,240.835L125,239.882L126,239.741L127,239.854L128,239.67L129,239.284L130,239.665L131,238.091L132,237.939L133,237.478L134,236.276L135,235.573L136,236.469L137,236.208L138,236.759L139,236.326L140,236.043L141,234.846L142,235.53L143,235.775L144,235.54L145,235.18L146,234.745L147,234.456L148,234.493L149,234.592L150,233.909L151,233.825L152,234.302L153,234.796L154,234.712L155,235.792L156,236.406L157,235.353L158,235.268L159,234.928L160,234.278L161,234.655L162,233.69L163,233.371L164,233.192L165,233.563L166,232.004L167,231.769L168,231.724L169,232.343L170,231.824L171,231.928L172,231.047L173,230.71L174,230.683L175,229.899L176,230.056L177,229.748L178,229.98L179,229.754L180,228.736L181,228.752L182,228.498L183,229.217L184,228.992L185,228.263L186,229.117L187,228.886L188,228.267L189,226.604L190,226.683L191,227.166L192,226.355L193,227.411L194,227.307L195,227.008L196,227.203L197,227.231L198,227.575L199,227.863L200,227.571L201,226.514L202,225.813L203,225.119L204,225.322L205,225.557L206,225.712L207,224.388L208,223.589L209,224.073L210,223.961L211,222.354L212,222.987L213,222.732L214,222.228L215,222.474L216,222.247L217,222.24L218,222.318L219,221.263L220,222.294L221,221.41L222,221.278L223,220.041L224,219.137L225,218.387L226,217.5L227,218.687L228,217.813L229,217.78L230,216.557L231,217.961L232,218.259L233,218.263L234,216.6L235,217.056L236,216.053L237,216.557L238,216.685L239,215.317L240,215.493L241,214.994L242,215.334L243,213.853L244,214.423L245,214.82L246,214.423L247,214.061L248,212.992L249,212.741L250,212.115L251,212.416L252,211.479L253,210.727L254,211.547L255,210.462L256,210.797L257,209.725L258,209.648L259,208.604L260,209.367L261,209.383L262,208.437L263,209.339L264,208.34L265,207.449L266,207.51L267,208.173L268,208.67L269,207.881L270,206.671L271,206.932L272,207.095L273,205.214L274,205.024L275,204.626L276,205.088L277,203.888L278,204.476L279,204.486L280,204.641L281,203.352L282,204.181L283,203.168L284,203.285L285,203.16L286,202.708L287,202.75L288,203.296L289,203.248L290,201.392L291,201.158L292,201.676L293,200.328L294,199.569L295,199.478L296,198.771L297,198.928L298,198.44L299,200.437L300,198.189L301,198.003L302,198.219L303,198.222L304,196.947L305,197.112L306,195.129L307,195.871L308,197.272L309,196.103L310,196.947L311,196.822L312,196.396L313,197.073L314,196.067L315,194.233L316,193.357L317,193.335L318,193.34L319,194.112L320,192.3L321,192.589L322,192.576L323,192.726L324,194.406L325,194.443L326,194.47L327,193.836L328,194.459L329,193.684L330,193.084L331,192.664L332,192.727L333,192.353L334,192.84L335,191.59L336,191.033L337,190.319L338,190.358L339,189.464L340,189.234L341,189.625L342,189.298L343,188.883L344,187.836L345,188.764L346,188.471L347,188.21L348,186.571L349,186.461L350,186.735L351,186.477L352,184.117L353,184.496L354,182.785L355,183.143L356,182.838L357,183.031L358,182.796L359,181.647L360,181.236L361,181.071L362,181.782L363,180.514L364,181.819L365,180.405L366,179.301L367,180.838L368,180.097L369,178.503L370,178.24L371,180.447L372,180.219L373,179.414L374,179.347L375,178.441L376,178.153L377,178.708L378,178.31L379,176.673L380,175.549L381,177.187L382,176.655L383,176.753L384,178.493L385,176.345L386,176.932L387,175.824L388,174.108L389,172.763L390,172.825L391,172.564L392,171.926L393,171.297L394,171.915L395,171.299L396,170.817L397,170.753L398,170.322L399,169.953L400,168.824L401,168.06L402,167.988L403,165.922L404,164.401L405,163.21L406,165.46L407,167.871L408,167.988L409,167.848L410,167.557L411,166.563L412,165.644L413,165.716L414,164.865L415,164.072L416,163.352L417,161.715L418,163.623L419,162.558L420,163.518L421,161.785L422,160.816L423,159.319L424,160.113L425,158.682L426,159.131L427,161.214L428,160.773L429,160.107L430,157.77L431,157.212L432,155.937L433,155.866L434,155.927L435,155.94L436,155.906L437,156.235L438,155.922L439,156.481L440,155.118L441,156.319L442,155.527L443,155.655L444,155.364L445,154.772L446,153.747L447,153.107L448,152.564L449,151.31L450,149.766L451,149.863L452,150.075L453,148.376L454,148.012L455,148.262L456,150.885L457,147.634L458,148.566L459,146.988L460,146.137L461,144.403L462,143.406L463,143.609L464,143.037L465,143.367L466,143.389L467,141.632L468,141.834L469,142.583L470,141.716L471,141.129L472,141.125L473,141.262L474,139.33L475,139.647L476,138.654L477,137.63L478,139.328L479,138.944L480,139.199L481,137.948L482,138.013L483,136.65L484,136.365L485,134.857L486,135.601L487,136.043L488,134.681L489,132.567L490,131.414L491,131.263L492,132.292L493,131.548L494,132.991L495,131.045L496,131.04L497,132.115L498,129.949L499,130.329L500,127.208L501,127.786L502,126.33L503,125.901L504,125.286L505,124.542L506,122.947L507,123L508,122.148L509,121.078L510,121.611L511,120.669L512,121.048L513,120.438L514,119.592L515,122.474L516,124.554L517,123.931L518,122.304L519,120.754L520,121.896L521,121.686L522,121.318L523,118.793L524,118.728L525,119.64L526,118.493L527,119.898L528,119.124L529,117.051L530,116.766L531,116.839L532,117.087L533,116.2L534,116.298L535,115.442L536,113.726L537,114.39L538,114.509L539,113.175L540,111.773L541,109.961L542,109.226L543,109.461L544,109.483L545,107.688L546,107.452L547,107.743L548,108.603L549,106.608L550,106.945L551,106.005L552,105.336L553,104.618L554,104.162L555,104.049L556,104.075L557,104.245L558,103.309L559,101.233L560,101.865L561,102.728L562,101.424L563,101.866L564,100.698L565,100.428L566,100.313L567,99.858L568,99.272L569,99.142L570,97.84L571,96.663L572,94.401L573,96.088L574,95.646L575,93.97L576,93.233L577,94.002L578,92.157L579,93.433L580,91.004L581,91.134L582,90.782L583,91.759L584,91.869L585,91.941L586,92.212L587,92.249L588,91.334L589,91.24L590,91.117L591,89.588L592,91.042L593,91.784L594,89.822L595,89.278L596,91.551L597,88.988L598,87.018L599,88.202L600,88.08" stroke="#f58518" stroke-width="2"/></g></g><path class="foreground" aria-hidden="true" d="" display="none"/></g><g transform="translate(0,0)"><path class="background" aria-hidden="true" d="M0,0h600v400h-600Z"/><g><g class="mark-line role-mark marks" role="graphics-object" aria-roledescription="line mark container"><path aria-label="経過年数 (年): 0; アセットインデックス: 1; パーセンタイル: 90%" role="graphics-symbol" aria-roledescription="line mark" d="M0,253.445L1,248.468L2,246.428L3,245.537L4,244.063L5,242.949L6,242.683L7,241.018L8,239.977L9,240.465L10,239.911L11,239.176L12,237.542L13,237.193L14,236.923L15,237.656L16,235.947L17,234.28L18,232.119L19,232.041L20,232.691L21,232.794L22,231.617L23,230.701L24,228.793L25,227.837L26,227.179L27,227.097L28,226.465L29,226.609L30,226.5L31,227.115L32,226.994L33,226.405L34,227.612L35,227.653L36,225.601L37,225L38,225.644L39,224.951L40,224.481L41,224.109L42,223.205L43,223.729L44,220.839L45,221.578L46,220.138L47,221.115L48,221.45L49,219.948L50,220.115L51,221.14L52,220.576L53,219.842L54,218.588L55,219.847L56,218.611L57,218.111L58,217.376L59,218.056L60,217.581L61,217.151L62,217.127L63,216.71L64,215.482L65,216.394L66,213.923L67,214.501L68,214.616L69,216.391L70,218.486L71,218.505L72,217.168L73,217.525L74,218.632L75,215.624L76,216.514L77,216.527L78,215.975L79,217.081L80,216.593L81,216.321L82,216.372L83,217.321L84,216.388L85,216.155L86,218.028L87,217.367L88,216.888L89,216.354L90,214.826L91,214.303L92,215.242L93,214.487L94,212.997L95,213.836L96,215.178L97,214.883L98,213.136L99,213.383L100,213.925L101,213.157L102,213.494L103,213.451L104,213.632L105,212.843L106,213.544L107,212.965L108,211.837L109,211.459L110,211.149L111,211.152L112,211.125L113,210.152L114,211.531L115,211.117L116,211.225L117,209.212L118,211.883L119,212.336L120,210.866L121,210.848L122,209.883L123,208.837L124,208.801L125,206.991L126,208.346L127,208.12L128,206.862L129,207.686L130,208.847L131,208.248L132,208.638L133,208.698L134,207.395L135,208.576L136,208.398L137,209.382L138,209.113L139,207.872L140,209.231L141,209.048L142,207.589L143,206.763L144,207.329L145,207.27L146,207.494L147,207.153L148,206.694L149,207.486L150,207.819L151,206.346L152,206.357L153,206.354L154,206.861L155,206.043L156,205.733L157,206.931L158,207.133L159,207.66L160,207.425L161,207.488L162,207.461L163,204.87L164,204.554L165,204.022L166,203.926L167,203.045L168,203.264L169,202.316L170,202.671L171,201.184L172,200.715L173,199.279L174,200.709L175,200.759L176,200.057L177,201.406L178,201.019L179,200.007L180,200.879L181,200.792L182,200.441L183,200.872L184,200.833L185,199.527L186,200.253L187,198.658L188,199.665L189,198.403L190,199.28L191,198.865L192,197.627L193,198.526L194,198.658L195,199.08L196,198.712L197,198.632L198,198.161L199,197.424L200,200.091L201,199.055L202,198.433L203,199.003L204,197.185L205,194.724L206,195.78L207,194.705L208,194.097L209,195.51L210,195.9L211,195.347L212,196.723L213,195.211L214,193.483L215,193.21L216,194.637L217,194.051L218,194.516L219,193.34L220,191.65L221,194.048L222,192.283L223,191.923L224,189.979L225,188.996L226,189.258L227,189.551L228,189.702L229,187.884L230,185.763L231,186.626L232,186.928L233,188.518L234,188.29L235,189.393L236,189.033L237,190.008L238,188.944L239,187.297L240,186.662L241,186.781L242,187.271L243,184.495L244,185.052L245,182.295L246,183.534L247,182.537L248,181.303L249,180.531L250,180.352L251,179.253L252,179.169L253,177.688L254,179.559L255,180.006L256,179.725L257,178.86L258,178.774L259,178.989L260,180.107L261,179.14L262,176.53L263,176.094L264,175.865L265,174.358L266,176.936L267,176.196L268,175.125L269,175.23L270,175.364L271,172.01L272,172.197L273,172.585L274,171.904L275,171.231L276,170.466L277,171.515L278,170.94L279,169.885L280,170.291L281,171.852L282,170.389L283,170.325L284,169.839L285,167.965L286,167.608L287,167.701L288,166.31L289,164.204L290,165.006L291,163.468L292,164.437L293,164.011L294,162.545L295,160.621L296,161.446L297,162.158L298,162.384L299,162.04L300,161.154L301,161.142L302,159.674L303,159.134L304,159.047L305,159.396L306,158.465L307,156.669L308,155.98L309,156.441L310,156.703L311,156.852L312,158.045L313,154.748L314,155.461L315,155.723L316,155.41L317,155.915L318,154.985L319,154.597L320,153.317L321,153.395L322,153.348L323,152.98L324,151.712L325,151.88L326,151.04L327,151.002L328,150.319L329,150.928L330,151.568L331,149.457L332,148.717L333,147.739L334,146.982L335,146.854L336,145.582L337,145.241L338,145.099L339,145.066L340,146.1L341,145.092L342,145.091L343,144.361L344,142.368L345,143.203L346,142.686L347,142.588L348,141.538L349,141.703L350,140.287L351,141.643L352,140.19L353,139.82L354,140.5L355,139.649L356,141.776L357,141.767L358,141.905L359,141.769L360,139.563L361,141.86L362,140.413L363,138.365L364,138.557L365,137.617L366,138.514L367,137.502L368,136.747L369,136.358L370,133.909L371,136.616L372,135.521L373,132.776L374,131.567L375,131.223L376,131.715L377,129.857L378,130.061L379,132.027L380,128.389L381,131.047L382,130.181L383,130.028L384,127.95L385,126.121L386,130.322L387,130.072L388,129.101L389,129.108L390,127.144L391,125.397L392,124.588L393,127.08L394,127.11L395,126.215L396,122.912L397,122.884L398,122.456L399,122.675L400,119.181L401,118.743L402,117.593L403,118.105L404,113.63L405,112.881L406,114.519L407,115.621L408,116.817L409,113.551L410,115.781L411,115.22L412,114.848L413,113.506L414,113.263L415,112.133L416,112.542L417,111.256L418,110.188L419,110.219L420,110.444L421,108.565L422,108.886L423,110.117L424,105.838L425,105.92L426,104.901L427,104.392L428,103.3L429,104.01L430,101.905L431,101.324L432,99.093L433,102.675L434,99.765L435,97.489L436,99.294L437,100.293L438,98.125L439,95.747L440,97.755L441,95.879L442,96.59L443,95.651L444,96.443L445,94.493L446,93.105L447,92.674L448,92.356L449,92.701L450,90.485L451,87.452L452,85.983L453,86.149L454,86.272L455,86.393L456,86.247L457,85.637L458,86.413L459,86.174L460,83.79L461,85.065L462,85.152L463,85.586L464,85.055L465,84.026L466,83.249L467,82.532L468,79.656L469,79.498L470,78.277L471,77.435L472,75.337L473,76.432L474,75.931L475,71.914L476,72.266L477,72.612L478,72.45L479,73.873L480,71.362L481,69.41L482,68.776L483,67.02L484,69.331L485,68.352L486,66.599L487,66.761L488,66.813L489,67.237L490,65.453L491,62.47L492,61.433L493,60.441L494,57.779L495,55.752L496,55.35L497,55.715L498,56.078L499,55.764L500,53.555L501,53.78L502,53.237L503,53.156L504,52.832L505,54.972L506,52.662L507,53.365L508,51.294L509,48.715L510,47.899L511,45.722L512,46.907L513,48.284L514,51.261L515,47.093L516,44.563L517,44.283L518,45.751L519,43.716L520,42.675L521,44.536L522,42.71L523,43.331L524,42.851L525,43.572L526,43.119L527,41.822L528,42.758L529,43.901L530,42.843L531,41.802L532,41.409L533,39.725L534,39.915L535,36.809L536,37.117L537,36.599L538,34.291L539,32.993L540,32.035L541,33.106L542,34.653L543,30.953L544,30.215L545,30.851L546,31.517L547,30.338L548,29.836L549,28.95L550,27.833L551,27.662L552,27.336L553,28.199L554,27.709L555,25.236L556,24.387L557,23.786L558,24.745L559,22.387L560,21.446L561,22.174L562,17.935L563,18.639L564,19.62L565,19.191L566,18.852L567,18.117L568,19.774L569,19.089L570,19.139L571,17.015L572,19.848L573,14.68L574,16.832L575,17.633L576,16.66L577,17.213L578,14.181L579,15.114L580,13.303L581,13.739L582,10.348L583,10.385L584,12.8L585,10.806L586,9.661L587,7.853L588,8.353L589,7.416L590,7.354L591,7.991L592,5.303L593,7.133L594,7.44L595,6.471L596,4.332L597,4.85L598,0L599,1.966L600,0.217" stroke="#e45756" stroke-width="2"/></g></g><path class="foreground" aria-hidden="true" d="" display="none"/></g></g><g class="mark-group role-legend" role="graphics-symbol" aria-roledescription="legend" aria-label="Symbol legend titled 'パーセンタイル' for stroke color with 3 values: 10%, 50%, 90%"><g transform="translate(620,0)"><path class="background" aria-hidden="true" d="M0,0h77v53h-77Z" pointer-events="none"/><g><g class="mark-group role-legend-entry"><g transform="translate(0,16)"><path class="background" aria-hidden="true" d="M0,0h0v0h0Z" pointer-events="none"/><g><g class="mark-group role-scope" role="graphics-object" aria-roledescription="group mark container"><g transform="translate(0,0)"><path class="background" aria-hidden="true" d="M0,0h36.0146484375v11h-36.0146484375Z" pointer-events="none" opacity="1"/><g><g class="mark-symbol role-legend-symbol" pointer-events="none"><path transform="translate(6,6)" d="M-5,0L5,0" stroke="#4c78a8" stroke-width="1.5" opacity="1"/></g><g class="mark-text role-legend-label" pointer-events="none"><text text-anchor="start" transform="translate(16,9)" font-family="sans-serif" font-size="10px" fill="#000" opacity="1">10%</text></g></g><path class="foreground" aria-hidden="true" d="" pointer-events="none" display="none"/></g><g transform="translate(0,13)"><path class="background" aria-hidden="true" d="M0,0h36.0146484375v11h-36.0146484375Z" pointer-events="none" opacity="1"/><g><g class="mark-symbol role-legend-symbol" pointer-events="none"><path transform="translate(6,6)" d="M-5,0L5,0" stroke="#f58518" stroke-width="1.5" opacity="1"/></g><g class="mark-text role-legend-label" pointer-events="none"><text text-anchor="start" transform="translate(16,9)" font-family="sans-serif" font-size="10px" fill="#000" opacity="1">50%</text></g></g><path class="foreground" aria-hidden="true" d="" pointer-events="none" display="none"/></g><g transform="translate(0,26)"><path class="background" aria-hidden="true" d="M0,0h36.0146484375v11h-36.0146484375Z" pointer-events="none" opacity="1"/><g><g class="mark-symbol role-legend-symbol" pointer-events="none"><path transform="translate(6,6)" d="M-5,0L5,0" stroke="#e45756" stroke-width="1.5" opacity="1"/></g><g class="mark-text role-legend-label" pointer-events="none"><text text-anchor="start" transform="translate(16,9)" font-family="sans-serif" font-size="10px" fill="#000" opacity="1">90%</text></g></g><path class="foreground" aria-hidden="true" d="" pointer-events="none" display="none"/></g></g></g><path class="foreground" aria-hidden="true" d="" pointer-events="none" display="none"/></g></g><g class="mark-text role-legend-title" pointer-events="none"><text text-anchor="start" transform="translate(0,9)" font-family="sans-serif" font-size="11px" font-weight="bold" fill="#000" opacity="1">パーセンタイル</text></g></g><path class="foreground" aria-hidden="true" d="" pointer-events="none" display="none"/></g></g><g class="mark-group role-title"><g transform="translate(300,-19)"><path class="background" aria-hidden="true" d="M0,0h0v0h0Z" pointer-events="none"/><g><g class="mark-text role-title-text" role="graphics-symbol" aria-roledescription="title" aria-label="Title text '31-40年に破産した人のアセット推移'" pointer-events="none"><text text-anchor="middle" transform="translate(0,10)" font-family="sans-serif" font-size="13px" font-weight="bold" fill="#000" opacity="1">31-40年に破産した人のアセット推移</text></g></g><path class="foreground" aria-hidden="true" d="" pointer-events="none" display="none"/></g></g></g><path class="foreground" aria-hidden="true" d="" display="none"/></g></g></g></svg>