<svg xmlns="http://www.w3.org/2000/svg" xmlns:xlink="http://www.w3.org/1999/xlink" version="1.1" class="marks" width="743" height="461" viewBox="0 0 743 461"><rect width="743" height="461" fill="white"/><g fill="none" stroke-miterlimit="10" transform="translate(41,24)"><g class="mark-group role-frame root" role="graphics-object" aria-roledescription="group mark container"><g transform="translate(0,0)"><path class="background" aria-hidden="true" d="M0.5,0.5h600v400h-600Z" stroke="#ddd"/><g><g class="mark-group role-axis" aria-hidden="true"><g transform="translate(0.5,400.5)"><path class="background" aria-hidden="true" d="M0,0h0v0h0Z" pointer-events="none"/><g><g class="mark-rule role-axis-grid" pointer-events="none"><line transform="translate(0,-400)" x2="0" y2="400" stroke="#ddd" stroke-width="1" opacity="1"/><line transform="translate(60,-400)" x2="0" y2="400" stroke="#ddd" stroke-width="1" opacity="1"/><line transform="translate(120,-400)" x2="0" y2="400" stroke="#ddd" stroke-width="1" opacity="1"/><line transform="translate(180,-400)" x2="0" y2="400" stroke="#ddd" stroke-width="1" opacity="1"/><line transform="translate(240,-400)" x2="0" y2="400" stroke="#ddd" stroke-width="1" opacity="1"/><line transform="translate(300,-400)" x2="0" y2="400" stroke="#ddd" stroke-width="1" opacity="1"/><line transform="translate(360,-400)" x2="0" y2="400" stroke="#ddd" stroke-width="1" opacity="1"/><line transform="translate(420,-400)" x2="0" y2="400" stroke="#ddd" stroke-width="1" opacity="1"/><line transform="translate(480,-400)" x2="0" y2="400" stroke="#ddd" stroke-width="1" opacity="1"/><line transform="translate(540,-400)" x2="0" y2="400" stroke="#ddd" stroke-width="1" opacity="1"/><line transform="translate(600,-400)" x2="0" y2="400" stroke="#ddd" stroke-width="1" opacity="1"/></g></g><path class="foreground" aria-hidden="true" d="" pointer-events="none" display="none"/></g></g><g class="mark-group role-axis" aria-hidden="true"><g transform="translate(0.5,0.5)"><path class="background" aria-hidden="true" d="M0,0h0v0h0Z" pointer-events="none"/><g><g class="mark-rule role-axis-grid" pointer-events="none"><line transform="translate(0,400)" x2="600" y2="0" stroke="#ddd" stroke-width="1" opacity="1"/><line transform="translate(0,362)" x2="600" y2="0" stroke="#ddd" stroke-width="1" opacity="1"/><line transform="translate(0,335)" x2="600" y2="0" stroke="#ddd" stroke-width="1" opacity="1"/><line transform="translate(0,315)" x2="600" y2="0" stroke="#ddd" stroke-width="1" opacity="1"/><line transform="translate(0,298)" x2="600" y2="0" stroke="#ddd" stroke-width="1" opacity="1"/><line transform="translate(0,283)" x2="600" y2="0" stroke="#ddd" stroke-width="1" opacity="1"/><line transform="translate(0,271)" x2="600" y2="0" stroke="#ddd" stroke-width="1" opacity="1"/><line transform="translate(0,260)" x2="600" y2="0" stroke="#ddd" stroke-width="1" opacity="1"/><line transform="translate(0,250)" x2="600" y2="0" stroke="#ddd" stroke-width="1" opacity="1"/><line transform="translate(0,185)" x2="600" y2="0" stroke="#ddd" stroke-width="1" opacity="1"/><line transform="translate(0,147)" x2="600" y2="0" stroke="#ddd" stroke-width="1" opacity="1"/><line transform="translate(0,121)" x2="600" y2="0" stroke="#ddd" stroke-width="1" opacity="1"/><line transform="translate(0,100)" x2="600" y2="0" stroke="#ddd" stroke-width="1" opacity="1"/><line transform="translate(0,83)" x2="600" y2="0" stroke="#ddd" stroke-width="1" opacity="1"/><line transform="translate(0,68)" x2="600" y2="0" stroke="#ddd" stroke-width="1" opacity="1"/><line transform="translate(0,56)" x2="600" y2="0" stroke="#ddd" stroke-width="1" opacity="1"/><line transform="translate(0,45)" x2="600" y2="0" stroke="#ddd" stroke-width="1" opacity="1"/><line transform="translate(0,35)" x2="600" y2="0" stroke="#ddd" stroke-width="1" opacity="1"/></g></g><path class="foreground" aria-hidden="true" d="" pointer-events="none" display="none"/></g></g><g class="mark-group role-axis" role="graphics-symbol" aria-roledescription="axis" aria-label="X-axis titled '経過年数 (年)' for a linear scale with values from 0 to 50"><g transform="translate(0.5,400.5)"><path class="background" aria-hidden="true" d="M0,0h0v0h0Z" pointer-events="none"/><g><g class="mark-rule role-axis-tick" pointer-events="none"><line transform="translate(0,0)" x2="0" y2="5" stroke="#888" stroke-width="1" opacity="1"/><line transform="translate(60,0)" x2="0" y2="5" stroke="#888" stroke-width="1" opacity="1"/><line transform="translate(120,0)" x2="0" y2="5" stroke="#888" stroke-width="1" opacity="1"/><line transform="translate(180,0)" x2="0" y2="5" stroke="#888" stroke-width="1" opacity="1"/><line transform="translate(240,0)" x2="0" y2="5" stroke="#888" stroke-width="1" opacity="1"/><line transform="translate(300,0)" x2="0" y2="5" stroke="#888" stroke-width="1" opacity="1"/><line transform="translate(360,0)" x2="0" y2="5" stroke="#888" stroke-width="1" opacity="1"/><line transform="translate(420,0)" x2="0" y2="5" stroke="#888" stroke-width="1" opacity="1"/><line transform="translate(480,0)" x2="0" y2="5" stroke="#888" stroke-width="1" opacity="1"/><line transform="translate(540,0)" x2="0" y2="5" stroke="#888" stroke-width="1" opacity="1"/><line transform="translate(600,0)" x2="0" y2="5" stroke="#888" stroke-width="1" opacity="1"/></g><g class="mark-text role-axis-label" pointer-events="none"><text text-anchor="start" transform="translate(0,15)" font-family="sans-serif" font-size="10px" fill="#000" opacity="1">0</text><text text-anchor="middle" transform="translate(60,15)" font-family="sans-serif" font-size="10px" fill="#000" opacity="1">5</text><text text-anchor="middle" transform="translate(120,15)" font-family="sans-serif" font-size="10px" fill="#000" opacity="1">10</text><text text-anchor="middle" transform="translate(180,15)" font-family="sans-serif" font-size="10px" fill="#000" opacity="1">15</text><text text-anchor="middle" transform="translate(240,15)" font-family="sans-serif" font-size="10px" fill="#000" opacity="1">20</text><text text-anchor="middle" transform="translate(300,15)" font-family="sans-serif" font-size="10px" fill="#000" opacity="1">25</text><text text-anchor="middle" transform="translate(360,15)" font-family="sans-serif" font-size="10px" fill="#000" opacity="1">30</text><text text-anchor="middle" transform="translate(420,15)" font-family="sans-serif" font-size="10px" fill="#000" opacity="1">35</text><text text-anchor="middle" transform="translate(480,15)" font-family="sans-serif" font-size="10px" fill="#000" opacity="1">40</text><text text-anchor="middle" transform="translate(540,15)" font-family="sans-serif" font-size="10px" fill="#000" opacity="1">45</text><text text-anchor="end" transform="translate(600,15)" font-family="sans-serif" font-size="10px" fill="#000" opacity="1">50</text></g><g class="mark-rule role-axis-domain" pointer-events="none"><line transform="translate(0,0)" x2="600" y2="0" stroke="#888" stroke-width="1" opacity="1"/></g><g class="mark-text role-axis-title" pointer-events="none"><text text-anchor="middle" transform="translate(300,30)" font-family="sans-serif" font-size="11px" font-weight="bold" fill="#000" opacity="1">経過年数 (年)</text></g></g><path class="foreground" aria-hidden="true" d="" pointer-events="none" display="none"/></g></g><g class="mark-group role-axis" role="graphics-symbol" aria-roledescription="axis" aria-label="Y-axis titled 'アセットインデックス' for a log scale with values from 0.2 to 14.566374422"><g transform="translate(0.5,0.5)"><path class="background" aria-hidden="true" d="M0,0h0v0h0Z" pointer-events="none"/><g><g class="mark-rule role-axis-tick" pointer-events="none"><line transform="translate(0,400)" x2="-5" y2="0" stroke="#888" stroke-width="1" opacity="1"/><line transform="translate(0,362)" x2="-5" y2="0" stroke="#888" stroke-width="1" opacity="1"/><line transform="translate(0,335)" x2="-5" y2="0" stroke="#888" stroke-width="1" opacity="1"/><line transform="translate(0,315)" x2="-5" y2="0" stroke="#888" stroke-width="1" opacity="1"/><line transform="translate(0,298)" x2="-5" y2="0" stroke="#888" stroke-width="1" opacity="1"/><line transform="translate(0,283)" x2="-5" y2="0" stroke="#888" stroke-width="1" opacity="1"/><line transform="translate(0,271)" x2="-5" y2="0" stroke="#888" stroke-width="1" opacity="1"/><line transform="translate(0,260)" x2="-5" y2="0" stroke="#888" stroke-width="1" opacity="1"/><line transform="translate(0,250)" x2="-5" y2="0" stroke="#888" stroke-width="1" opacity="1"/><line transform="translate(0,185)" x2="-5" y2="0" stroke="#888" stroke-width="1" opacity="1"/><line transform="translate(0,147)" x2="-5" y2="0" stroke="#888" stroke-width="1" opacity="1"/><line transform="translate(0,121)" x2="-5" y2="0" stroke="#888" stroke-width="1" opacity="1"/><line transform="translate(0,100)" x2="-5" y2="0" stroke="#888" stroke-width="1" opacity="1"/><line transform="translate(0,83)" x2="-5" y2="0" stroke="#888" stroke-width="1" opacity="1"/><line transform="translate(0,68)" x2="-5" y2="0" stroke="#888" stroke-width="1" opacity="1"/><line transform="translate(0,56)" x2="-5" y2="0" stroke="#888" stroke-width="1" opacity="1"/><line transform="translate(0,45)" x2="-5" y2="0" stroke="#888" stroke-width="1" opacity="1"/><line transform="translate(0,35)" x2="-5" y2="0" stroke="#888" stroke-width="1" opacity="1"/></g><g class="mark-text role-axis-label" pointer-events="none"><text text-anchor="end" transform="translate(-7,403)" font-family="sans-serif" font-size="10px" fill="#000" opacity="1">0.2</text><text text-anchor="end" transform="translate(-7,365.17811767362366)" font-family="sans-serif" font-size="10px" fill="#000" opacity="1">0.3</text><text text-anchor="end" transform="translate(-7,338.3430651028936)" font-family="sans-serif" font-size="10px" fill="#000" opacity="1">0.4</text><text text-anchor="end" transform="translate(-7,317.52818123021194)" font-family="sans-serif" font-size="10px" fill="#000" opacity="1">0.5</text><text text-anchor="end" transform="translate(-7,300.52118277651726)" font-family="sans-serif" font-size="10px" fill="#000" opacity="1"/><text text-anchor="end" transform="translate(-7,286.14197046855674)" font-family="sans-serif" font-size="10px" fill="#000" opacity="1"/><text text-anchor="end" transform="translate(-7,273.6861302057872)" font-family="sans-serif" font-size="10px" fill="#000" opacity="1"/><text text-anchor="end" transform="translate(-7,262.6993004501409)" font-family="sans-serif" font-size="10px" fill="#000" opacity="1"/><text text-anchor="end" transform="translate(-7,252.87124633310555)" font-family="sans-serif" font-size="10px" fill="#000" opacity="1">1</text><text text-anchor="end" transform="translate(-7,188.21431143599915)" font-family="sans-serif" font-size="10px" fill="#000" opacity="1">2</text><text text-anchor="end" transform="translate(-7,150.3924291096228)" font-family="sans-serif" font-size="10px" fill="#000" opacity="1">3</text><text text-anchor="end" transform="translate(-7,123.55737653889275)" font-family="sans-serif" font-size="10px" fill="#000" opacity="1">4</text><text text-anchor="end" transform="translate(-7,102.74249266621112)" font-family="sans-serif" font-size="10px" fill="#000" opacity="1">5</text><text text-anchor="end" transform="translate(-7,85.73549421251643)" font-family="sans-serif" font-size="10px" fill="#000" opacity="1"/><text text-anchor="end" transform="translate(-7,71.35628190455587)" font-family="sans-serif" font-size="10px" fill="#000" opacity="1"/><text text-anchor="end" transform="translate(-7,58.9004416417864)" font-family="sans-serif" font-size="10px" fill="#000" opacity="1"/><text text-anchor="end" transform="translate(-7,47.91361188614009)" font-family="sans-serif" font-size="10px" fill="#000" opacity="1"/><text text-anchor="end" transform="translate(-7,38.08555776910467)" font-family="sans-serif" font-size="10px" fill="#000" opacity="1">10</text></g><g class="mark-rule role-axis-domain" pointer-events="none"><line transform="translate(0,400)" x2="0" y2="-400" stroke="#888" stroke-width="1" opacity="1"/></g><g class="mark-text role-axis-title" pointer-events="none"><text text-anchor="middle" transform="translate(-24.9013671875,200) rotate(-90) translate(0,-2)" font-family="sans-serif" font-size="11px" font-weight="bold" fill="#000" opacity="1">アセットインデックス</text></g></g><path class="foreground" aria-hidden="true" d="" pointer-events="none" display="none"/></g></g><g class="mark-group role-scope pathgroup" role="graphics-object" aria-roledescription="group mark container"><g transform="translate(0,0)"><path class="background" aria-hidden="true" d="M0,0h600v400h-600Z"/><g><g class="mark-line role-mark marks" role="graphics-object" aria-roledescription="line mark container"><path aria-label="経過年数 (年): 0; アセットインデックス: 1; パーセンタイル: 10%" role="graphics-symbol" aria-roledescription="line mark" d="M0,249.871L1,254.556L2,256.596L3,258.016L4,258.934L5,260.861L6,260.201L7,261.597L8,261.684L9,261.917L10,262.748L11,263.733L12,264.579L13,267.186L14,267.072L15,266.396L16,265.727L17,265.702L18,266.824L19,266.657L20,266.147L21,267.237L22,268.702L23,267.967L24,267.9L25,269.049L26,268.818L27,267.917L28,270.204L29,270.302L30,270.024L31,270.042L32,272.388L33,271.085L34,270.823L35,271.491L36,271.752L37,270.956L38,271.41L39,275.723L40,273.994L41,271.856L42,271.154L43,269.672L44,268.798L45,268.745L46,269.787L47,270.403L48,273.339L49,272.675L50,272.002L51,270.497L52,270.27L53,270.442L54,269.534L55,268.491L56,269.54L57,271.435L58,269.182L59,268.326L60,266.722L61,267.697L62,265.666L63,265.067L64,266.444L65,267.609L66,267.881L67,266.03L68,265.482L69,265.196L70,266.067L71,265.823L72,264.69L73,263.315L74,264.949L75,261.794L76,264.566L77,265.258L78,264.98L79,263.943L80,261.465L81,262.772L82,261.25L83,260.105L84,260.073L85,259.794L86,260.484L87,260.966L88,258.845L89,257.817L90,260.037L91,259.834L92,261.518L93,259.119L94,257.982L95,257.734L96,257.653L97,256.173L98,259.137L99,257.518L100,257.43L101,256.282L102,257.279L103,254.315L104,255.221L105,256.034L106,257.827L107,257.068L108,255.619L109,257.869L110,256.248L111,256.192L112,256.261L113,255.878L114,256.842L115,255.164L116,255.363L117,252.682L118,253.374L119,252.686L120,253.379L121,251.35L122,251.888L123,251.599L124,252.463L125,251.261L126,251.68L127,252.273L128,250.559L129,250.866L130,250.715L131,251.488L132,250.776L133,249.647L134,249.628L135,252.321L136,247.719L137,246.248L138,247.984L139,246.296L140,245.21L141,245.727L142,244.562L143,245.26L144,242.23L145,242.8L146,244.283L147,243.183L148,245.121L149,243.645L150,242.802L151,244.318L152,243.796L153,243.422L154,244.756L155,243.295L156,246.5L157,245.709L158,243.151L159,244.715L160,243.427L161,244.596L162,243.792L163,245.067L164,243.419L165,242.277L166,243.161L167,242.09L168,239.224L169,239.925L170,239.435L171,236.795L172,236.41L173,235.57L174,236.231L175,235.359L176,234.753L177,234.273L178,235.346L179,236.742L180,235.867L181,236.547L182,234.297L183,233.94L184,232.51L185,232.198L186,233.562L187,230.271L188,229.934L189,232.205L190,231.352L191,230.855L192,231.902L193,232.777L194,232.687L195,232.184L196,231.392L197,230.047L198,230.347L199,229.59L200,228.674L201,231.976L202,231.551L203,230.508L204,227.767L205,227.622L206,227.866L207,229.362L208,227.44L209,225.79L210,226.168L211,227.596L212,227.017L213,229.413L214,228.391L215,227.515L216,226.559L217,225.401L218,225.117L219,225.349L220,223.714L221,224.255L222,225.322L223,225.341L224,225.361L225,228.043L226,225.867L227,225.568L228,224.629L229,224.22L230,224.755L231,224.378L232,223.273L233,221.662L234,220.316L235,221.368L236,222.569L237,221.565L238,221.076L239,219.825L240,221.584L241,220.059L242,220.225L243,220.557L244,219.824L245,219.864L246,221.26L247,220.847L248,219.264L249,219.784L250,220.145L251,219.12L252,219.136L253,220.068L254,218.516L255,219.049L256,218.827L257,219.84L258,221.066L259,219.415L260,217.609L261,218.48L262,218.312L263,218.122L264,216.889L265,216.731L266,217.404L267,215.108L268,216.579L269,216.023L270,215.81L271,215.865L272,215.619L273,216.359L274,216.268L275,217.099L276,215.25L277,216.065L278,217.365L279,216.927L280,215.926L281,213.76L282,212.515L283,212.459L284,213.465L285,212.364L286,213.394L287,213.136L288,213.234L289,212.708L290,211.714L291,211.331L292,212.995L293,210.86L294,208.624L295,208.411L296,208.518L297,206.222L298,207.323L299,209.759L300,208.564L301,207.775L302,208.866L303,209.381L304,211.173L305,210.432L306,210.337L307,211.849L308,212.837L309,211.309L310,210.775L311,210.128L312,209.902L313,209.748L314,207.784L315,206.603L316,208.085L317,208.01L318,205.476L319,207.13L320,208.078L321,207.401L322,206.443L323,207.873L324,206.793L325,207.064L326,207.63L327,206.396L328,204.661L329,203.715L330,204.398L331,204.987L332,203.817L333,204.47L334,202.846L335,205.404L336,205.246L337,205.6L338,205.284L339,201.932L340,203.4L341,203.011L342,202.638L343,201.433L344,202.304L345,201.34L346,203.067L347,201.432L348,201.64L349,200.862L350,201.577L351,201.06L352,200.564L353,201.647L354,200.654L355,201.353L356,200.362L357,198.701L358,197.193L359,197.655L360,198.312L361,199.044L362,199.476L363,200.019L364,199.079L365,198.489L366,199.218L367,198.794L368,198.568L369,197.5L370,197.384L371,196.24L372,197.399L373,195.896L374,195.579L375,195.092L376,197.027L377,199.108L378,199.698L379,198.553L380,199.402L381,199.948L382,200.245L383,199.671L384,199.156L385,199.62L386,196.57L387,196.151L388,195.629L389,195.871L390,195.438L391,196.29L392,196.369L393,196.234L394,196.143L395,195.948L396,194.707L397,194.358L398,192.97L399,193.735L400,194.658L401,194.856L402,191.798L403,190.139L404,190.112L405,190.014L406,189.494L407,188.615L408,188.32L409,188.029L410,189.649L411,187.749L412,188.035L413,189.242L414,190.904L415,192.733L416,189.821L417,188.67L418,190.631L419,189.994L420,191.501L421,191.209L422,192.016L423,190.912L424,190.805L425,190.768L426,191.392L427,190.929L428,191.322L429,191.027L430,189.942L431,189.929L432,190.195L433,190.1L434,189.195L435,189.47L436,188.331L437,186.119L438,190.108L439,188.362L440,189.048L441,188.746L442,187.612L443,187.804L444,186.443L445,186.033L446,184.651L447,183.032L448,181.971L449,180.486L450,182.127L451,181.481L452,184.63L453,183.664L454,181.99L455,182.385L456,181.527L457,181.945L458,180.124L459,182.101L460,180.851L461,180.393L462,181.776L463,179.761L464,182.507L465,181.299L466,181.567L467,181.268L468,182.068L469,179.383L470,180.344L471,180.695L472,180.162L473,179.229L474,179.441L475,179.96L476,178.081L477,180.252L478,182.019L479,180.403L480,183.009L481,184.095L482,185.369L483,184.374L484,185.645L485,184.405L486,185.509L487,184.74L488,186.694L489,185.521L490,183.656L491,183.121L492,186.894L493,183.379L494,183.282L495,183.335L496,184.772L497,182.21L498,180.919L499,179.982L500,180.355L501,182.41L502,182.313L503,180.379L504,179.414L505,179.432L506,179.983L507,176.747L508,178.59L509,178.178L510,176.539L511,176.973L512,174.37L513,175.581L514,175.314L515,174.839L516,174.485L517,176.95L518,174.711L519,173.721L520,177.596L521,175.646L522,176.432L523,176.7L524,176.023L525,174.427L526,173.301L527,171.833L528,172.298L529,170.739L530,171.636L531,169.562L532,170.743L533,171.697L534,171.193L535,171.418L536,169.368L537,168.659L538,170.889L539,170.223L540,169.596L541,168.898L542,171.657L543,170.618L544,171.798L545,168.88L546,169.828L547,166.958L548,168.829L549,170.015L550,172.168L551,171.448L552,173.232L553,174.105L554,174.202L555,173.413L556,173.954L557,173.9L558,170.094L559,170.054L560,169.297L561,169.439L562,171.161L563,172.192L564,170.222L565,168.33L566,166.973L567,169.141L568,167.51L569,167.979L570,166.516L571,165.901L572,164.183L573,162.855L574,165.145L575,165.396L576,164.966L577,165.358L578,169.654L579,170.559L580,169.514L581,167.698L582,169.315L583,164.964L584,167.022L585,168.435L586,167.442L587,166.088L588,166.171L589,165.83L590,167.138L591,162.503L592,166.241L593,168.081L594,167.727L595,166.764L596,167.673L597,167.854L598,165.891L599,165.67L600,164.738" stroke="#4c78a8" stroke-width="2"/></g></g><path class="foreground" aria-hidden="true" d="" display="none"/></g><g transform="translate(0,0)"><path class="background" aria-hidden="true" d="M0,0h600v400h-600Z"/><g><g class="mark-line role-mark marks" role="graphics-object" aria-roledescription="line mark container"><path aria-label="経過年数 (年): 0; アセットインデックス: 1; パーセンタイル: 50%" role="graphics-symbol" aria-roledescription="line mark" d="M0,249.871L1,249.512L2,249.872L3,248.579L4,248.039L5,247.883L6,247.527L7,248.094L8,248.144L9,246.54L10,247.67L11,246.519L12,246.34L13,246.621L14,246.774L15,246.85L16,247.149L17,247.016L18,246.51L19,247.037L20,246.416L21,246.339L22,245.441L23,245.265L24,245.693L25,244.167L26,244.305L27,245.12L28,244.859L29,244.46L30,244.751L31,244.033L32,244.425L33,244.607L34,243.852L35,243.402L36,243.676L37,241.754L38,242.624L39,240.704L40,241.726L41,242.219L42,241.321L43,239.854L44,239.644L45,239.438L46,241.626L47,240.661L48,239.6L49,239.598L50,239.643L51,240.129L52,239.897L53,240.382L54,240.297L55,239.934L56,240.092L57,240.276L58,238.953L59,239.369L60,238.586L61,239.183L62,238.241L63,237.015L64,236.124L65,235.863L66,234.641L67,234.582L68,235.229L69,233.783L70,233.92L71,232.698L72,233.435L73,233.695L74,232.963L75,232.81L76,232.234L77,231.686L78,231.539L79,230.936L80,232.578L81,232.166L82,232.507L83,231.291L84,231.04L85,230.845L86,230.802L87,231.525L88,230.318L89,229.99L90,228.39L91,228.852L92,230.203L93,229.281L94,229.278L95,228.781L96,228.578L97,229.008L98,228.12L99,230.242L100,229.85L101,229.56L102,228.7L103,228.892L104,227.823L105,226.356L106,227.901L107,226.904L108,226.658L109,226.274L110,224.946L111,225.24L112,225.77L113,223.483L114,223.119L115,223.643L116,223.042L117,223.835L118,224.061L119,222.037L120,221.745L121,221.493L122,221.56L123,220.262L124,219.484L125,220.193L126,219.793L127,220.893L128,219.661L129,220.944L130,219.173L131,219.484L132,217.482L133,218.242L134,219.485L135,218.993L136,217.386L137,217.358L138,217.913L139,215.282L140,215.564L141,215.896L142,215.697L143,217.066L144,215.804L145,215.371L146,215.306L147,216.471L148,216.556L149,216.407L150,215.493L151,214.572L152,215.153L153,214.854L154,215.148L155,214.97L156,212.739L157,212.107L158,212.843L159,211.855L160,212.119L161,212.724L162,212.388L163,210.997L164,211.204L165,210.454L166,210.32L167,210.545L168,211.646L169,210.879L170,210.387L171,209.64L172,209.595L173,209.524L174,208.067L175,208.696L176,207.061L177,208.047L178,207.57L179,206.033L180,207.476L181,204.827L182,204.522L183,204.42L184,205.018L185,203.885L186,204.724L187,205.929L188,206.084L189,205.076L190,204.846L191,206.501L192,205.885L193,205.211L194,205.132L195,202.156L196,202.915L197,203.663L198,204.021L199,202.547L200,203.384L201,202.631L202,202.42L203,201.866L204,202.135L205,202.133L206,201.177L207,201.285L208,201.225L209,201.25L210,201.582L211,200.079L212,200.851L213,199.855L214,201.259L215,201.878L216,200.907L217,199.518L218,199.837L219,197.962L220,198.705L221,197.253L222,197.004L223,197.166L224,195.826L225,195.937L226,194.523L227,194.717L228,195.31L229,195.819L230,196.226L231,196.287L232,194.477L233,194.813L234,196.087L235,194.912L236,194.506L237,194.833L238,192.22L239,192.373L240,191.505L241,191.606L242,192.804L243,192.569L244,191.496L245,192.292L246,191.982L247,191.519L248,191.972L249,190.571L250,191.747L251,189.907L252,189.946L253,189.959L254,189.897L255,189.83L256,189.656L257,189.333L258,189.627L259,187.416L260,186.263L261,186.629L262,187.094L263,186.931L264,186.987L265,186.76L266,186.499L267,186.099L268,185.685L269,184.73L270,185.763L271,185.514L272,186.451L273,186.855L274,185.874L275,184.799L276,186.5L277,183.609L278,184.87L279,182.982L280,182.922L281,183.001L282,183.72L283,182.626L284,182.472L285,182.54L286,183.019L287,182.596L288,181.139L289,182.225L290,181.763L291,182.095L292,180.251L293,180.583L294,180.563L295,182.039L296,180.692L297,181.325L298,181.325L299,180.339L300,181.067L301,179.299L302,178.549L303,177.11L304,177.016L305,177.074L306,177.109L307,176.776L308,176.742L309,175.719L310,175.816L311,175.688L312,177.265L313,174.684L314,174.62L315,174.922L316,174.52L317,174.412L318,174.51L319,175.219L320,174.779L321,174.519L322,173.459L323,174.722L324,175.249L325,175.144L326,174.452L327,173.956L328,175.72L329,175.444L330,173.576L331,175.602L332,174.174L333,172.927L334,173.65L335,173.01L336,172.838L337,172.065L338,171.123L339,171.26L340,172.096L341,172.287L342,172.676L343,171.683L344,169.252L345,173.438L346,171.986L347,171.651L348,172.847L349,171.514L350,171.168L351,170.651L352,170.405L353,168.703L354,167.892L355,169.199L356,168.283L357,167.652L358,168.76L359,167.8L360,166.403L361,167.286L362,166.537L363,167.227L364,166.725L365,165.876L366,164.994L367,164.641L368,163.954L369,164.496L370,164.545L371,164.122L372,164.213L373,165.409L374,164.051L375,162.623L376,163.585L377,162.467L378,162.734L379,163.964L380,162.718L381,161.285L382,160.038L383,160.587L384,159.764L385,159.062L386,159.846L387,160.191L388,161.021L389,161.096L390,158.278L391,159.657L392,156.713L393,158.511L394,157.566L395,157.63L396,156.704L397,155.194L398,155.945L399,157.664L400,156.803L401,156.421L402,156.341L403,154.648L404,153.116L405,153.224L406,153.259L407,152.979L408,152.895L409,151.716L410,151.036L411,151.725L412,150.932L413,151.552L414,152.975L415,151.17L416,149.397L417,148.169L418,147.762L419,147.111L420,147.653L421,146.451L422,144.367L423,144.399L424,142.681L425,145.572L426,144.803L427,143.827L428,143.865L429,144.735L430,147.126L431,144.432L432,144.172L433,143.095L434,141.985L435,141.837L436,142.029L437,141.173L438,141.763L439,140.787L440,141.692L441,140.098L442,141.532L443,138.97L444,138.264L445,138.509L446,139.69L447,138.727L448,137.538L449,136.205L450,137.22L451,136.616L452,135.883L453,134.364L454,132.73L455,131.758L456,131.707L457,132.467L458,132.134L459,132.877L460,132.33L461,132.128L462,132.026L463,132.816L464,134.916L465,134.32L466,133.492L467,134.105L468,133.8L469,133.735L470,132.622L471,131.433L472,130.322L473,131.396L474,128.749L475,129.409L476,129.74L477,129.709L478,127.106L479,128.499L480,130.947L481,131.211L482,129.427L483,129.815L484,127.127L485,125.676L486,123.127L487,125.311L488,126.267L489,123.694L490,124.802L491,123.528L492,123.561L493,123.525L494,122.245L495,123.401L496,123.289L497,124.056L498,123.593L499,122.448L500,122.993L501,122.937L502,119.673L503,119.31L504,119.664L505,117.881L506,119.713L507,119.983L508,118.903L509,121.856L510,119.082L511,118.021L512,117.259L513,116.924L514,117.699L515,117.668L516,116.384L517,116.77L518,117.51L519,116.39L520,116.739L521,114.797L522,113.227L523,115.656L524,112.71L525,115.074L526,116.761L527,114.063L528,112.552L529,110.45L530,113.147L531,110.989L532,112.744L533,110.895L534,110.174L535,109.117L536,109.227L537,106.095L538,107.963L539,108.53L540,110.092L541,108.142L542,105.422L543,108.796L544,107.551L545,105.268L546,104.682L547,108.278L548,109.016L549,107.828L550,105.34L551,105.763L552,104.489L553,103.116L554,103.931L555,103.407L556,100.441L557,101.076L558,101.978L559,100.46L560,99.711L561,99.942L562,97.855L563,98.374L564,96.975L565,95.977L566,93.524L567,94.934L568,94.982L569,92.734L570,93.531L571,94.279L572,96.235L573,93.146L574,90.824L575,90.55L576,91.187L577,89.758L578,90.444L579,91.17L580,91.187L581,90.677L582,91.464L583,90.336L584,87.847L585,89.035L586,86.697L587,88.371L588,85.862L589,86.004L590,83.539L591,84.804L592,85.174L593,85.268L594,82.62L595,84.709L596,85.065L597,83.469L598,83.849L599,83.47L600,82.09" stroke="#f58518" stroke-width="2"/></g></g><path class="foreground" aria-hidden="true" d="" display="none"/></g><g transform="translate(0,0)"><path class="background" aria-hidden="true" d="M0,0h600v400h-600Z"/><g><g class="mark-line role-mark marks" role="graphics-object" aria-roledescription="line mark container"><path aria-label="経過年数 (年): 0; アセットインデックス: 1; パーセンタイル: 90%" role="graphics-symbol" aria-roledescription="line mark" d="M0,249.871L1,245.416L2,243.604L3,241.237L4,239.081L5,237.297L6,236.217L7,235.939L8,234.63L9,233.379L10,230.544L11,229.846L12,228.234L13,229.734L14,227.895L15,226.196L16,226.004L17,225.027L18,224.728L19,223.917L20,221.823L21,222.996L22,222.91L23,220.662L24,219.987L25,219.752L26,220.026L27,220.343L28,220.191L29,218.923L30,219.448L31,218.272L32,218.849L33,218.076L34,216.385L35,215.034L36,215.241L37,215.51L38,215.024L39,215.862L40,213.985L41,213.316L42,211.667L43,210.22L44,209.902L45,208.452L46,209.127L47,209.321L48,209.791L49,206.934L50,207.539L51,205.728L52,206.605L53,205.744L54,202.786L55,202.461L56,202.359L57,201.882L58,201.178L59,198.608L60,201.094L61,202.541L62,201.975L63,201.599L64,204.038L65,201.904L66,202.95L67,202.373L68,200.641L69,201.084L70,203.552L71,202.126L72,204.166L73,203.037L74,204.31L75,201.597L76,202.748L77,203.099L78,203.472L79,202.028L80,201.758L81,199.909L82,200.57L83,200.049L84,202.49L85,198.727L86,200.851L87,200.252L88,199.505L89,200.129L90,199.937L91,198.355L92,198.328L93,198.554L94,196.49L95,195.359L96,193.09L97,194.566L98,193.905L99,197.013L100,198.083L101,197.786L102,198.02L103,197.251L104,195.852L105,197.204L106,194.952L107,194.373L108,194.754L109,195.785L110,193.835L111,193.21L112,191.897L113,190.826L114,193.424L115,193.638L116,193.794L117,193.495L118,191.294L119,191.22L120,191.462L121,191.442L122,191.329L123,192.613L124,192.23L125,193.222L126,193.238L127,190.242L128,191.206L129,189.511L130,190.973L131,191.161L132,188.731L133,188.934L134,189.75L135,189.796L136,188.391L137,185.106L138,184.525L139,184.059L140,186.026L141,184.686L142,183.973L143,185.761L144,183.743L145,187.032L146,186.63L147,185.473L148,184.911L149,183.112L150,182.966L151,186.679L152,186.18L153,186.099L154,184.542L155,183.801L156,183.742L157,185.575L158,184.82L159,183.984L160,183.089L161,181.12L162,181.319L163,180.744L164,181.531L165,179.682L166,180.644L167,177.613L168,181.513L169,179.609L170,176.743L171,177.717L172,178.513L173,177.406L174,175.646L175,175.878L176,176.158L177,176.966L178,176.009L179,175.37L180,175.616L181,177.982L182,178.788L183,178.195L184,177.267L185,177.644L186,178.456L187,177.086L188,177.518L189,179.35L190,180.385L191,177.653L192,174.985L193,176.173L194,175.671L195,175.932L196,176.597L197,177.873L198,178.132L199,176.852L200,176.973L201,176.246L202,176.096L203,175.114L204,174.366L205,173.015L206,173.497L207,172.83L208,172.924L209,172.411L210,172.177L211,168.945L212,170.626L213,171.159L214,170.398L215,167.63L216,169.849L217,169.043L218,168.578L219,168.409L220,168.006L221,168.87L222,167.589L223,167.25L224,168.122L225,165.821L226,166.954L227,167.135L228,167.696L229,166.183L230,165.017L231,165.121L232,167.409L233,165.958L234,165.92L235,162.44L236,161.934L237,160.331L238,162.809L239,162.121L240,163.67L241,160.196L242,162.442L243,160.799L244,161.3L245,159.823L246,159.136L247,157.909L248,158.914L249,159.398L250,156.056L251,158.681L252,157.355L253,156.751L254,156.558L255,156.25L256,156.607L257,153.582L258,152.966L259,152.319L260,152.358L261,152.956L262,153.945L263,153.183L264,153.29L265,152.601L266,152.512L267,151.361L268,151.647L269,151.459L270,151.261L271,149.672L272,148.778L273,148.649L274,150.107L275,147.227L276,147.641L277,147.253L278,146.873L279,145.16L280,146.632L281,147.004L282,148.578L283,148.371L284,146.952L285,146.844L286,146.596L287,145.859L288,146.621L289,145.694L290,146.45L291,145.93L292,145.714L293,145.859L294,147.422L295,146.785L296,145.964L297,144.995L298,145.992L299,146.651L300,146.238L301,144.358L302,143.482L303,144.596L304,143.435L305,144.496L306,142.437L307,142.595L308,140.985L309,140.64L310,140.822L311,141.457L312,141.058L313,139.087L314,139.223L315,138.132L316,138.391L317,139.2L318,137.87L319,135.773L320,136.418L321,137.707L322,139.251L323,138.405L324,137.291L325,134.909L326,136.361L327,135.952L328,134.378L329,134.357L330,133.878L331,127.934L332,129.273L333,125.839L334,129.049L335,127.107L336,127.111L337,128.568L338,125.131L339,129.341L340,127.952L341,126.712L342,126.308L343,124.644L344,125.749L345,126.808L346,125.983L347,127.266L348,122.537L349,122.019L350,123.053L351,121.067L352,121.121L353,121.187L354,124.602L355,124.325L356,122.513L357,122.137L358,120.834L359,120.189L360,121.272L361,123.862L362,122.078L363,120.306L364,120.633L365,119.761L366,117.515L367,118.022L368,118.822L369,118.092L370,117.102L371,116.36L372,117.713L373,119.358L374,117.823L375,116.337L376,115.167L377,115.861L378,113.908L379,114.682L380,113.703L381,113.665L382,112.093L383,113.894L384,113.47L385,110.07L386,110.865L387,110.035L388,111.04L389,110.467L390,108.626L391,108.058L392,111.454L393,111.842L394,112.58L395,109.276L396,107.153L397,110.166L398,109.369L399,108.725L400,106.733L401,102.344L402,102.103L403,101.177L404,102.58L405,100.013L406,100.277L407,98.514L408,100.109L409,97.439L410,99.243L411,98.572L412,97.118L413,98.172L414,98.612L415,97.473L416,100.624L417,100.19L418,98.717L419,97.647L420,99.102L421,96.293L422,95.081L423,93.709L424,92.144L425,93.701L426,93.935L427,94.587L428,90.201L429,91.615L430,94.289L431,92.043L432,92.22L433,94.291L434,92.114L435,92.974L436,93.301L437,91.071L438,87.845L439,86.382L440,87.453L441,88.235L442,87.088L443,86.172L444,85.666L445,84.569L446,81.477L447,81.863L448,82.957L449,81.893L450,81.573L451,81.675L452,79.082L453,80.439L454,77.597L455,78.11L456,75.806L457,74.842L458,72.412L459,71.702L460,69.307L461,71.006L462,71.67L463,69.243L464,71.233L465,74.233L466,73.033L467,72.754L468,72.844L469,70.289L470,67.53L471,67.161L472,64.687L473,65.012L474,65.263L475,63.5L476,63.383L477,61.784L478,62.254L479,62.906L480,62.282L481,65.941L482,64.612L483,67.176L484,67.172L485,64.006L486,62.308L487,60.485L488,57.071L489,59.464L490,57.17L491,59.542L492,57.992L493,55.033L494,55.716L495,58.91L496,55.706L497,56.831L498,54.054L499,56.532L500,55.277L501,55.273L502,52.956L503,51.57L504,50.829L505,53.702L506,56.317L507,56.695L508,57.57L509,57.776L510,56.38L511,56.832L512,55.514L513,54.363L514,53.187L515,50.991L516,52.049L517,53.167L518,53.587L519,49.775L520,50.375L521,50.137L522,46.452L523,46.798L524,46.4L525,49.355L526,47.25L527,45.867L528,42.937L529,44.314L530,44.406L531,41.918L532,40.785L533,38.717L534,38.077L535,39.346L536,37.085L537,38.115L538,34.988L539,35.511L540,37.375L541,36.482L542,33.19L543,32.297L544,29.191L545,29.172L546,28.407L547,29.619L548,29.217L549,29.448L550,27.952L551,25.513L552,29.595L553,30.143L554,25.967L555,24.659L556,24.519L557,25.413L558,23.874L559,26.847L560,24.546L561,24.137L562,23.246L563,21.298L564,22.883L565,19.124L566,21.329L567,20.015L568,18.637L569,18.586L570,16.707L571,16.809L572,15.388L573,13.033L574,12.242L575,14.003L576,11.519L577,12.37L578,12.427L579,11.789L580,8.904L581,8.895L582,9.775L583,12.207L584,9.071L585,10.2L586,11L587,8.357L588,5.713L589,7.036L590,8.114L591,6.305L592,6.475L593,3.577L594,0.614L595,0.708L596,0.882L597,0L598,3.957L599,2.129L600,1.345" stroke="#e45756" stroke-width="2"/></g></g><path class="foreground" aria-hidden="true" d="" display="none"/></g></g><g class="mark-group role-legend" role="graphics-symbol" aria-roledescription="legend" aria-label="Symbol legend titled 'パーセンタイル' for stroke color with 3 values: 10%, 50%, 90%"><g transform="translate(620,0)"><path class="background" aria-hidden="true" d="M0,0h77v53h-77Z" pointer-events="none"/><g><g class="mark-group role-legend-entry"><g transform="translate(0,16)"><path class="background" aria-hidden="true" d="M0,0h0v0h0Z" pointer-events="none"/><g><g class="mark-group role-scope" role="graphics-object" aria-roledescription="group mark container"><g transform="translate(0,0)"><path class="background" aria-hidden="true" d="M0,0h36.0146484375v11h-36.0146484375Z" pointer-events="none" opacity="1"/><g><g class="mark-symbol role-legend-symbol" pointer-events="none"><path transform="translate(6,6)" d="M-5,0L5,0" stroke="#4c78a8" stroke-width="1.5" opacity="1"/></g><g class="mark-text role-legend-label" pointer-events="none"><text text-anchor="start" transform="translate(16,9)" font-family="sans-serif" font-size="10px" fill="#000" opacity="1">10%</text></g></g><path class="foreground" aria-hidden="true" d="" pointer-events="none" display="none"/></g><g transform="translate(0,13)"><path class="background" aria-hidden="true" d="M0,0h36.0146484375v11h-36.0146484375Z" pointer-events="none" opacity="1"/><g><g class="mark-symbol role-legend-symbol" pointer-events="none"><path transform="translate(6,6)" d="M-5,0L5,0" stroke="#f58518" stroke-width="1.5" opacity="1"/></g><g class="mark-text role-legend-label" pointer-events="none"><text text-anchor="start" transform="translate(16,9)" font-family="sans-serif" font-size="10px" fill="#000" opacity="1">50%</text></g></g><path class="foreground" aria-hidden="true" d="" pointer-events="none" display="none"/></g><g transform="translate(0,26)"><path class="background" aria-hidden="true" d="M0,0h36.0146484375v11h-36.0146484375Z" pointer-events="none" opacity="1"/><g><g class="mark-symbol role-legend-symbol" pointer-events="none"><path transform="translate(6,6)" d="M-5,0L5,0" stroke="#e45756" stroke-width="1.5" opacity="1"/></g><g class="mark-text role-legend-label" pointer-events="none"><text text-anchor="start" transform="translate(16,9)" font-family="sans-serif" font-size="10px" fill="#000" opacity="1">90%</text></g></g><path class="foreground" aria-hidden="true" d="" pointer-events="none" display="none"/></g></g></g><path class="foreground" aria-hidden="true" d="" pointer-events="none" display="none"/></g></g><g class="mark-text role-legend-title" pointer-events="none"><text text-anchor="start" transform="translate(0,9)" font-family="sans-serif" font-size="11px" font-weight="bold" fill="#000" opacity="1">パーセンタイル</text></g></g><path class="foreground" aria-hidden="true" d="" pointer-events="none" display="none"/></g></g><g class="mark-group role-title"><g transform="translate(300,-19)"><path class="background" aria-hidden="true" d="M0,0h0v0h0Z" pointer-events="none"/><g><g class="mark-text role-title-text" role="graphics-symbol" aria-roledescription="title" aria-label="Title text '41-50年に破産した人のアセット推移'" pointer-events="none"><text text-anchor="middle" transform="translate(0,10)" font-family="sans-serif" font-size="13px" font-weight="bold" fill="#000" opacity="1">41-50年に破産した人のアセット推移</text></g></g><path class="foreground" aria-hidden="true" d="" pointer-events="none" display="none"/></g></g></g><path class="foreground" aria-hidden="true" d="" display="none"/></g></g></g></svg>