<svg xmlns="http://www.w3.org/2000/svg" xmlns:xlink="http://www.w3.org/1999/xlink" version="1.1" class="marks" width="743" height="461" viewBox="0 0 743 461"><rect width="743" height="461" fill="white"/><g fill="none" stroke-miterlimit="10" transform="translate(41,24)"><g class="mark-group role-frame root" role="graphics-object" aria-roledescription="group mark container"><g transform="translate(0,0)"><path class="background" aria-hidden="true" d="M0.5,0.5h600v400h-600Z" stroke="#ddd"/><g><g class="mark-group role-axis" aria-hidden="true"><g transform="translate(0.5,400.5)"><path class="background" aria-hidden="true" d="M0,0h0v0h0Z" pointer-events="none"/><g><g class="mark-rule role-axis-grid" pointer-events="none"><line transform="translate(0,-400)" x2="0" y2="400" stroke="#ddd" stroke-width="1" opacity="1"/><line transform="translate(60,-400)" x2="0" y2="400" stroke="#ddd" stroke-width="1" opacity="1"/><line transform="translate(120,-400)" x2="0" y2="400" stroke="#ddd" stroke-width="1" opacity="1"/><line transform="translate(180,-400)" x2="0" y2="400" stroke="#ddd" stroke-width="1" opacity="1"/><line transform="translate(240,-400)" x2="0" y2="400" stroke="#ddd" stroke-width="1" opacity="1"/><line transform="translate(300,-400)" x2="0" y2="400" stroke="#ddd" stroke-width="1" opacity="1"/><line transform="translate(360,-400)" x2="0" y2="400" stroke="#ddd" stroke-width="1" opacity="1"/><line transform="translate(420,-400)" x2="0" y2="400" stroke="#ddd" stroke-width="1" opacity="1"/><line transform="translate(480,-400)" x2="0" y2="400" stroke="#ddd" stroke-width="1" opacity="1"/><line transform="translate(540,-400)" x2="0" y2="400" stroke="#ddd" stroke-width="1" opacity="1"/><line transform="translate(600,-400)" x2="0" y2="400" stroke="#ddd" stroke-width="1" opacity="1"/></g></g><path class="foreground" aria-hidden="true" d="" pointer-events="none" display="none"/></g></g><g class="mark-group role-axis" aria-hidden="true"><g transform="translate(0.5,0.5)"><path class="background" aria-hidden="true" d="M0,0h0v0h0Z" pointer-events="none"/><g><g class="mark-rule role-axis-grid" pointer-events="none"><line transform="translate(0,400)" x2="600" y2="0" stroke="#ddd" stroke-width="1" opacity="1"/><line transform="translate(0,362)" x2="600" y2="0" stroke="#ddd" stroke-width="1" opacity="1"/><line transform="translate(0,335)" x2="600" y2="0" stroke="#ddd" stroke-width="1" opacity="1"/><line transform="translate(0,315)" x2="600" y2="0" stroke="#ddd" stroke-width="1" opacity="1"/><line transform="translate(0,298)" x2="600" y2="0" stroke="#ddd" stroke-width="1" opacity="1"/><line transform="translate(0,283)" x2="600" y2="0" stroke="#ddd" stroke-width="1" opacity="1"/><line transform="translate(0,271)" x2="600" y2="0" stroke="#ddd" stroke-width="1" opacity="1"/><line transform="translate(0,260)" x2="600" y2="0" stroke="#ddd" stroke-width="1" opacity="1"/><line transform="translate(0,250)" x2="600" y2="0" stroke="#ddd" stroke-width="1" opacity="1"/><line transform="translate(0,185)" x2="600" y2="0" stroke="#ddd" stroke-width="1" opacity="1"/><line transform="translate(0,147)" x2="600" y2="0" stroke="#ddd" stroke-width="1" opacity="1"/><line transform="translate(0,121)" x2="600" y2="0" stroke="#ddd" stroke-width="1" opacity="1"/><line transform="translate(0,100)" x2="600" y2="0" stroke="#ddd" stroke-width="1" opacity="1"/><line transform="translate(0,83)" x2="600" y2="0" stroke="#ddd" stroke-width="1" opacity="1"/><line transform="translate(0,68)" x2="600" y2="0" stroke="#ddd" stroke-width="1" opacity="1"/><line transform="translate(0,56)" x2="600" y2="0" stroke="#ddd" stroke-width="1" opacity="1"/><line transform="translate(0,45)" x2="600" y2="0" stroke="#ddd" stroke-width="1" opacity="1"/><line transform="translate(0,35)" x2="600" y2="0" stroke="#ddd" stroke-width="1" opacity="1"/></g></g><path class="foreground" aria-hidden="true" d="" pointer-events="none" display="none"/></g></g><g class="mark-group role-axis" role="graphics-symbol" aria-roledescription="axis" aria-label="X-axis titled '経過年数 (年)' for a linear scale with values from 0 to 50"><g transform="translate(0.5,400.5)"><path class="background" aria-hidden="true" d="M0,0h0v0h0Z" pointer-events="none"/><g><g class="mark-rule role-axis-tick" pointer-events="none"><line transform="translate(0,0)" x2="0" y2="5" stroke="#888" stroke-width="1" opacity="1"/><line transform="translate(60,0)" x2="0" y2="5" stroke="#888" stroke-width="1" opacity="1"/><line transform="translate(120,0)" x2="0" y2="5" stroke="#888" stroke-width="1" opacity="1"/><line transform="translate(180,0)" x2="0" y2="5" stroke="#888" stroke-width="1" opacity="1"/><line transform="translate(240,0)" x2="0" y2="5" stroke="#888" stroke-width="1" opacity="1"/><line transform="translate(300,0)" x2="0" y2="5" stroke="#888" stroke-width="1" opacity="1"/><line transform="translate(360,0)" x2="0" y2="5" stroke="#888" stroke-width="1" opacity="1"/><line transform="translate(420,0)" x2="0" y2="5" stroke="#888" stroke-width="1" opacity="1"/><line transform="translate(480,0)" x2="0" y2="5" stroke="#888" stroke-width="1" opacity="1"/><line transform="translate(540,0)" x2="0" y2="5" stroke="#888" stroke-width="1" opacity="1"/><line transform="translate(600,0)" x2="0" y2="5" stroke="#888" stroke-width="1" opacity="1"/></g><g class="mark-text role-axis-label" pointer-events="none"><text text-anchor="start" transform="translate(0,15)" font-family="sans-serif" font-size="10px" fill="#000" opacity="1">0</text><text text-anchor="middle" transform="translate(60,15)" font-family="sans-serif" font-size="10px" fill="#000" opacity="1">5</text><text text-anchor="middle" transform="translate(120,15)" font-family="sans-serif" font-size="10px" fill="#000" opacity="1">10</text><text text-anchor="middle" transform="translate(180,15)" font-family="sans-serif" font-size="10px" fill="#000" opacity="1">15</text><text text-anchor="middle" transform="translate(240,15)" font-family="sans-serif" font-size="10px" fill="#000" opacity="1">20</text><text text-anchor="middle" transform="translate(300,15)" font-family="sans-serif" font-size="10px" fill="#000" opacity="1">25</text><text text-anchor="middle" transform="translate(360,15)" font-family="sans-serif" font-size="10px" fill="#000" opacity="1">30</text><text text-anchor="middle" transform="translate(420,15)" font-family="sans-serif" font-size="10px" fill="#000" opacity="1">35</text><text text-anchor="middle" transform="translate(480,15)" font-family="sans-serif" font-size="10px" fill="#000" opacity="1">40</text><text text-anchor="middle" transform="translate(540,15)" font-family="sans-serif" font-size="10px" fill="#000" opacity="1">45</text><text text-anchor="end" transform="translate(600,15)" font-family="sans-serif" font-size="10px" fill="#000" opacity="1">50</text></g><g class="mark-rule role-axis-domain" pointer-events="none"><line transform="translate(0,0)" x2="600" y2="0" stroke="#888" stroke-width="1" opacity="1"/></g><g class="mark-text role-axis-title" pointer-events="none"><text text-anchor="middle" transform="translate(300,30)" font-family="sans-serif" font-size="11px" font-weight="bold" fill="#000" opacity="1">経過年数 (年)</text></g></g><path class="foreground" aria-hidden="true" d="" pointer-events="none" display="none"/></g></g><g class="mark-group role-axis" role="graphics-symbol" aria-roledescription="axis" aria-label="Y-axis titled 'アセットインデックス' for a log scale with values from 0.2 to 14.5789838658"><g transform="translate(0.5,0.5)"><path class="background" aria-hidden="true" d="M0,0h0v0h0Z" pointer-events="none"/><g><g class="mark-rule role-axis-tick" pointer-events="none"><line transform="translate(0,400)" x2="-5" y2="0" stroke="#888" stroke-width="1" opacity="1"/><line transform="translate(0,362)" x2="-5" y2="0" stroke="#888" stroke-width="1" opacity="1"/><line transform="translate(0,335)" x2="-5" y2="0" stroke="#888" stroke-width="1" opacity="1"/><line transform="translate(0,315)" x2="-5" y2="0" stroke="#888" stroke-width="1" opacity="1"/><line transform="translate(0,298)" x2="-5" y2="0" stroke="#888" stroke-width="1" opacity="1"/><line transform="translate(0,283)" x2="-5" y2="0" stroke="#888" stroke-width="1" opacity="1"/><line transform="translate(0,271)" x2="-5" y2="0" stroke="#888" stroke-width="1" opacity="1"/><line transform="translate(0,260)" x2="-5" y2="0" stroke="#888" stroke-width="1" opacity="1"/><line transform="translate(0,250)" x2="-5" y2="0" stroke="#888" stroke-width="1" opacity="1"/><line transform="translate(0,185)" x2="-5" y2="0" stroke="#888" stroke-width="1" opacity="1"/><line transform="translate(0,147)" x2="-5" y2="0" stroke="#888" stroke-width="1" opacity="1"/><line transform="translate(0,121)" x2="-5" y2="0" stroke="#888" stroke-width="1" opacity="1"/><line transform="translate(0,100)" x2="-5" y2="0" stroke="#888" stroke-width="1" opacity="1"/><line transform="translate(0,83)" x2="-5" y2="0" stroke="#888" stroke-width="1" opacity="1"/><line transform="translate(0,68)" x2="-5" y2="0" stroke="#888" stroke-width="1" opacity="1"/><line transform="translate(0,56)" x2="-5" y2="0" stroke="#888" stroke-width="1" opacity="1"/><line transform="translate(0,45)" x2="-5" y2="0" stroke="#888" stroke-width="1" opacity="1"/><line transform="translate(0,35)" x2="-5" y2="0" stroke="#888" stroke-width="1" opacity="1"/></g><g class="mark-text role-axis-label" pointer-events="none"><text text-anchor="end" transform="translate(-7,403)" font-family="sans-serif" font-size="10px" fill="#000" opacity="1">0.2</text><text text-anchor="end" transform="translate(-7,365.18574797567294)" font-family="sans-serif" font-size="10px" fill="#000" opacity="1">0.3</text><text text-anchor="end" transform="translate(-7,338.3561091904033)" font-family="sans-serif" font-size="10px" fill="#000" opacity="1">0.4</text><text text-anchor="end" transform="translate(-7,317.5454245759631)" font-family="sans-serif" font-size="10px" fill="#000" opacity="1">0.5</text><text text-anchor="end" transform="translate(-7,300.54185716607617)" font-family="sans-serif" font-size="10px" fill="#000" opacity="1"/><text text-anchor="end" transform="translate(-7,286.165545764321)" font-family="sans-serif" font-size="10px" fill="#000" opacity="1"/><text text-anchor="end" transform="translate(-7,273.7122183808065)" font-family="sans-serif" font-size="10px" fill="#000" opacity="1"/><text text-anchor="end" transform="translate(-7,262.72760514174917)" font-family="sans-serif" font-size="10px" fill="#000" opacity="1"/><text text-anchor="end" transform="translate(-7,252.90153376636636)" font-family="sans-serif" font-size="10px" fill="#000" opacity="1">1</text><text text-anchor="end" transform="translate(-7,188.25764295676964)" font-family="sans-serif" font-size="10px" fill="#000" opacity="1">2</text><text text-anchor="end" transform="translate(-7,150.44339093244258)" font-family="sans-serif" font-size="10px" fill="#000" opacity="1">3</text><text text-anchor="end" transform="translate(-7,123.61375214717289)" font-family="sans-serif" font-size="10px" fill="#000" opacity="1">4</text><text text-anchor="end" transform="translate(-7,102.80306753273274)" font-family="sans-serif" font-size="10px" fill="#000" opacity="1">5</text><text text-anchor="end" transform="translate(-7,85.79950012284583)" font-family="sans-serif" font-size="10px" fill="#000" opacity="1"/><text text-anchor="end" transform="translate(-7,71.42318872109065)" font-family="sans-serif" font-size="10px" fill="#000" opacity="1"/><text text-anchor="end" transform="translate(-7,58.96986133757618)" font-family="sans-serif" font-size="10px" fill="#000" opacity="1"/><text text-anchor="end" transform="translate(-7,47.98524809851876)" font-family="sans-serif" font-size="10px" fill="#000" opacity="1"/><text text-anchor="end" transform="translate(-7,38.15917672313598)" font-family="sans-serif" font-size="10px" fill="#000" opacity="1">10</text></g><g class="mark-rule role-axis-domain" pointer-events="none"><line transform="translate(0,400)" x2="0" y2="-400" stroke="#888" stroke-width="1" opacity="1"/></g><g class="mark-text role-axis-title" pointer-events="none"><text text-anchor="middle" transform="translate(-24.9013671875,200) rotate(-90) translate(0,-2)" font-family="sans-serif" font-size="11px" font-weight="bold" fill="#000" opacity="1">アセットインデックス</text></g></g><path class="foreground" aria-hidden="true" d="" pointer-events="none" display="none"/></g></g><g class="mark-group role-scope pathgroup" role="graphics-object" aria-roledescription="group mark container"><g transform="translate(0,0)"><path class="background" aria-hidden="true" d="M0,0h600v400h-600Z"/><g><g class="mark-line role-mark marks" role="graphics-object" aria-roledescription="line mark container"><path aria-label="経過年数 (年): 0; アセットインデックス: 1; パーセンタイル: 10%" role="graphics-symbol" aria-roledescription="line mark" d="M0,249.902L1,254.685L2,255.808L3,257.384L4,259.257L5,260.119L6,260.552L7,261.18L8,263.957L9,265.044L10,265.87L11,267.722L12,267.774L13,269.505L14,270.224L15,271.21L16,271.023L17,272.157L18,272.375L19,271.234L20,272.933L21,272.485L22,274.286L23,274.449L24,274.922L25,276.106L26,276.643L27,277.316L28,278.043L29,278.015L30,278.577L31,277.694L32,277.529L33,278.683L34,279.628L35,279.822L36,279.244L37,278.619L38,280.105L39,281.585L40,281.379L41,281.261L42,282.823L43,281.657L44,281.842L45,282.26L46,284.645L47,285.304L48,284.81L49,284.851L50,283.443L51,283.884L52,285.286L53,286.438L54,286.24L55,286.389L56,286.778L57,285.813L58,285.71L59,285.961L60,286.957L61,287.451L62,285.911L63,286.786L64,286.879L65,287.713L66,287.345L67,286.943L68,287.694L69,288.006L70,287.558L71,286.649L72,287.058L73,286.384L74,285.311L75,285.344L76,284.743L77,286.155L78,286.206L79,285.435L80,285.718L81,286.676L82,285.425L83,285.382L84,284.879L85,286.15L86,285.882L87,283.989L88,284.655L89,284.951L90,282.871L91,282.325L92,282.934L93,282.207L94,282.695L95,282.31L96,281.847L97,282.685L98,282.934L99,284.41L100,282.447L101,282.31L102,281.973L103,282.883L104,283.148L105,283.168L106,282.113L107,282.233L108,282.096L109,282.762L110,284.018L111,283.034L112,282.196L113,281.731L114,281.328L115,282.856L116,283.635L117,283.601L118,281.69L119,282.211L120,280.591L121,281.134L122,281.868L123,280.902L124,282.322L125,281.699L126,282.423L127,281.158L128,281.882L129,280.982L130,282.584L131,282.067L132,281.693L133,282.774L134,283.153L135,281.421L136,282.789L137,283.092L138,281.305L139,282.54L140,281.006L141,280.856L142,280.132L143,281.23L144,280.986L145,280.002L146,279.664L147,280.296L148,278.01L149,278.578L150,278.188L151,279.16L152,279.566L153,280.16L154,280.218L155,279.989L156,278.522L157,278.201L158,278.335L159,278.557L160,279.633L161,280.274L162,280.929L163,280.885L164,278.897L165,280.191L166,279.819L167,277.971L168,277.474L169,277.597L170,278.634L171,277.586L172,278.097L173,277.706L174,277.845L175,277.902L176,278.02L177,278.027L178,278.202L179,279.388L180,277.547L181,277.647L182,277.648L183,277.786L184,276.395L185,276.338L186,275.622L187,275.893L188,276.678L189,276.891L190,278.527L191,278.394L192,276.823L193,277.253L194,277.885L195,276.765L196,277.447L197,275.969L198,276.989L199,277.605L200,277.407L201,278.865L202,278.165L203,275.285L204,275.829L205,275.584L206,277.53L207,276.54L208,276.564L209,275.98L210,275.731L211,272.251L212,272.765L213,272.556L214,271.079L215,272.036L216,272.107L217,273.421L218,274.628L219,272.281L220,272.989L221,273.421L222,272.627L223,272.574L224,272.566L225,272.356L226,274.004L227,273.827L228,272.737L229,273.733L230,275.107L231,274.988L232,272.905L233,273.102L234,272.758L235,273.712L236,272.22L237,272.517L238,273.071L239,274.248L240,273.906L241,273.119L242,273.256L243,271.74L244,272.449L245,272.974L246,272.007L247,272.718L248,271.238L249,270.922L250,270.958L251,271.321L252,271.955L253,270.053L254,269.708L255,271.604L256,272.339L257,271.896L258,270.699L259,271.916L260,270.84L261,269.279L262,269.957L263,269.879L264,268.648L265,268.933L266,269.65L267,270.178L268,268.644L269,269.017L270,269.497L271,270.359L272,269.298L273,269.298L274,268.86L275,270.74L276,269.631L277,269.253L278,267.485L279,266.998L280,263.753L281,264.421L282,264.683L283,265.695L284,266.187L285,267.267L286,268.273L287,267.347L288,266.522L289,267.164L290,268.507L291,266.542L292,268.186L293,268.727L294,267.786L295,268.378L296,267.774L297,266.206L298,266.177L299,266.704L300,266.81L301,267.334L302,267.567L303,264.516L304,265.924L305,264.637L306,262.695L307,263.245L308,262.153L309,263.531L310,262.707L311,264.892L312,263.118L313,264.082L314,264.062L315,263.11L316,263.294L317,259.765L318,260.238L319,261.37L320,263.269L321,264.19L322,264.023L323,266.056L324,265.699L325,265.245L326,265.534L327,262.672L328,264.364L329,261.412L330,261.724L331,261.421L332,261.248L333,257.476L334,258.342L335,259.657L336,258.16L337,258.226L338,259.717L339,261.3L340,261.519L341,261.218L342,259.21L343,261.728L344,261.547L345,262.365L346,262.452L347,261.905L348,260.633L349,259.436L350,260.858L351,258.643L352,258.783L353,258.091L354,258.766L355,259.588L356,261.037L357,262.163L358,262.215L359,261.967L360,260.626L361,262.364L362,260.103L363,259.974L364,258.694L365,257.304L366,257.079L367,258.47L368,260.307L369,260.333L370,259.338L371,258.302L372,257.886L373,256.811L374,256.662L375,253.736L376,254.434L377,256.193L378,252.105L379,252.528L380,252.728L381,251.429L382,251.092L383,251.414L384,250.182L385,251.959L386,251.073L387,250.172L388,251.281L389,249.823L390,248.666L391,246.75L392,248.27L393,249.457L394,248.122L395,249.508L396,249.723L397,248.506L398,249.207L399,247.414L400,247.426L401,248.22L402,248.144L403,248.688L404,247.322L405,246.321L406,245.748L407,243.684L408,246.63L409,242.607L410,244.381L411,244.148L412,242.973L413,241.619L414,243.495L415,240.56L416,239.586L417,238.337L418,237.907L419,236.506L420,238.214L421,240.726L422,238.182L423,240.051L424,242.565L425,239.767L426,237.976L427,240.727L428,238.046L429,237.106L430,237.768L431,239.26L432,241.132L433,240.75L434,239.667L435,237.619L436,238.245L437,236.836L438,238.501L439,238.854L440,240.354L441,237.186L442,237.275L443,236.776L444,233.026L445,231.22L446,232.184L447,231.225L448,229.184L449,230.453L450,231.52L451,231.868L452,231.504L453,232.491L454,231.337L455,231.646L456,228.658L457,232.086L458,229.346L459,232.17L460,232.809L461,231.366L462,232.4L463,230.893L464,233.238L465,232.706L466,232.234L467,228.789L468,224.981L469,224.795L470,225.84L471,225.416L472,224.48L473,224.335L474,224.129L475,226.974L476,223.885L477,225.235L478,224.928L479,226.49L480,225.984L481,224.795L482,227.355L483,226.827L484,225.501L485,224.246L486,225.197L487,224.155L488,223.712L489,220.294L490,221.516L491,222.174L492,220.992L493,219.601L494,219.356L495,218.772L496,220.49L497,221.861L498,222.394L499,223.719L500,228.707L501,225.791L502,221.841L503,222.358L504,224.876L505,222.933L506,222.856L507,225.429L508,221.341L509,221.518L510,222.113L511,220.594L512,219.393L513,217.734L514,218.273L515,218.054L516,216.118L517,215.287L518,217.643L519,215.58L520,214.953L521,215.55L522,214.503L523,215.041L524,213.33L525,213.889L526,211.45L527,211.971L528,210.09L529,210.672L530,208.997L531,210.499L532,209.174L533,208.196L534,207.327L535,207.172L536,205.483L537,205.603L538,204.211L539,202.294L540,206.844L541,205.654L542,205.806L543,202.7L544,202.644L545,202.773L546,204.22L547,202.387L548,199.992L549,199.65L550,202.505L551,200.788L552,198.434L553,197.144L554,199.738L555,200.213L556,199.57L557,200.73L558,201.107L559,200.214L560,201.221L561,200.341L562,201.776L563,202.039L564,199.729L565,202.824L566,199.875L567,197.856L568,196.757L569,195.41L570,198.302L571,198.688L572,198.625L573,195.718L574,196.289L575,199.016L576,200.641L577,201.547L578,202.286L579,202.61L580,199.381L581,199.487L582,200.904L583,199.489L584,198.721L585,197.182L586,198.498L587,198.774L588,198.539L589,198.657L590,198.1L591,199.776L592,199.688L593,201.378L594,197.789L595,197.407L596,194.883L597,197.805L598,195.565L599,197.444L600,197.034" stroke="#4c78a8" stroke-width="2"/></g></g><path class="foreground" aria-hidden="true" d="" display="none"/></g><g transform="translate(0,0)"><path class="background" aria-hidden="true" d="M0,0h600v400h-600Z"/><g><g class="mark-line role-mark marks" role="graphics-object" aria-roledescription="line mark container"><path aria-label="経過年数 (年): 0; アセットインデックス: 1; パーセンタイル: 50%" role="graphics-symbol" aria-roledescription="line mark" d="M0,249.902L1,250.097L2,250.203L3,249.636L4,249.879L5,249.98L6,250.319L7,250.755L8,251.204L9,251.273L10,251.305L11,252.098L12,252.377L13,252.381L14,252.123L15,252.624L16,252.756L17,252.818L18,253.461L19,252.694L20,254.049L21,253.98L22,254.285L23,253.514L24,252.772L25,252.447L26,253.696L27,252.533L28,252.121L29,252.595L30,253.78L31,254.062L32,254.019L33,253.482L34,253.398L35,253.978L36,254.213L37,253.823L38,254.013L39,253.639L40,252.814L41,252.719L42,253.773L43,254.155L44,254.279L45,253.893L46,254.875L47,254.815L48,253.833L49,254.633L50,254.379L51,254.478L52,255.543L53,255.525L54,255.773L55,256.714L56,255.878L57,256.748L58,257.039L59,257.02L60,256.418L61,256.376L62,255.848L63,255.455L64,255.309L65,255.641L66,256.806L67,255.765L68,256.138L69,256.369L70,256.415L71,257.616L72,255.595L73,256.36L74,256.13L75,256.319L76,255.792L77,255.804L78,256.589L79,256.878L80,257.061L81,257.509L82,257.929L83,257.302L84,257.449L85,256.967L86,256.605L87,256.576L88,256.285L89,256.627L90,257.427L91,256.578L92,255.815L93,256.385L94,256.901L95,256.366L96,256.459L97,256.938L98,257.552L99,256.685L100,257.432L101,257.198L102,256.376L103,256.607L104,257.905L105,257.378L106,257.571L107,256.774L108,256.67L109,257.102L110,256.226L111,256.105L112,257.052L113,256.866L114,257.846L115,257.82L116,256.807L117,255.836L118,255.194L119,255.45L120,255.509L121,255.532L122,255.787L123,255.83L124,256.308L125,255.066L126,255.911L127,255.485L128,255.782L129,255.353L130,255.17L131,254.146L132,255.116L133,254.862L134,255.695L135,255.202L136,255.456L137,254.843L138,254.418L139,254.485L140,255.27L141,254.522L142,254.37L143,254.293L144,253.16L145,254.218L146,254.909L147,255.783L148,254.442L149,255.149L150,254.983L151,254.568L152,254.87L153,254.154L154,253.061L155,252.886L156,251.989L157,253.627L158,253.296L159,251.95L160,252.795L161,252.701L162,251.806L163,251.986L164,250.474L165,250.849L166,251.386L167,250.502L168,251.3L169,251.345L170,251.752L171,250.796L172,250.382L173,250.586L174,249.406L175,249.819L176,250.383L177,249.445L178,250.166L179,249.942L180,249.219L181,249.027L182,250.055L183,248.581L184,248.47L185,248.873L186,248.138L187,248.529L188,249.623L189,248.826L190,248.306L191,248.299L192,248.227L193,247.424L194,247.51L195,246.39L196,246.188L197,247.241L198,246.917L199,248.634L200,247.935L201,247.14L202,246.797L203,245.336L204,245.945L205,246.408L206,245.124L207,244.594L208,245.361L209,245.159L210,245.133L211,245.815L212,246.049L213,245.58L214,245.674L215,245.005L216,244.04L217,244.605L218,243.329L219,243.074L220,242.891L221,241.725L222,242.722L223,242.044L224,242.939L225,241.941L226,242.193L227,240.876L228,241.31L229,240.272L230,241.428L231,240.168L232,239.441L233,240.497L234,239.929L235,240.362L236,239.204L237,239.543L238,239.408L239,239.897L240,238.862L241,238.836L242,238.804L243,236.877L244,236.792L245,236.491L246,236.826L247,237.81L248,237.552L249,237.991L250,237.931L251,236.887L252,238.688L253,237.047L254,237.249L255,236.585L256,237.985L257,235.633L258,233.905L259,234.409L260,235.793L261,236.691L262,235.664L263,235.172L264,234.843L265,234.606L266,234.487L267,234.313L268,235.112L269,233.057L270,233.867L271,234.253L272,232.517L273,232.764L274,233.663L275,231.31L276,230.792L277,232.285L278,231.301L279,231.004L280,229.37L281,228.802L282,231.1L283,229.284L284,227.516L285,226.809L286,227.806L287,227.066L288,227.216L289,227.029L290,225.786L291,224.999L292,223.852L293,224.434L294,224.909L295,222.88L296,221.402L297,221.678L298,220.68L299,220.298L300,220.362L301,221.42L302,221.662L303,220.295L304,221.846L305,220.88L306,221.452L307,219.955L308,219.279L309,219.634L310,219.026L311,217.881L312,217.801L313,216.358L314,215.924L315,216.649L316,216.559L317,216.032L318,214.092L319,215.76L320,214.558L321,215.496L322,213.773L323,214.838L324,214.328L325,214.624L326,212.226L327,212.146L328,212.879L329,211.426L330,210.704L331,209.155L332,209.043L333,207.747L334,207.45L335,207.83L336,207.853L337,207.843L338,208.839L339,207.513L340,207.204L341,207.014L342,208.102L343,208.639L344,207.213L345,206.699L346,206.522L347,206.476L348,206.515L349,206.304L350,204.58L351,204.361L352,204.036L353,204.463L354,201.801L355,201.668L356,201.938L357,199.969L358,200.573L359,201.421L360,200.033L361,198.158L362,195.511L363,195.274L364,195.563L365,194.159L366,192.72L367,192.244L368,191.46L369,193.152L370,191.641L371,190.986L372,191.222L373,191.904L374,192.004L375,191.215L376,189.133L377,188.786L378,188.023L379,186.578L380,186.746L381,187.148L382,185.29L383,184.905L384,185.491L385,184.901L386,184.291L387,185.543L388,185.047L389,185.692L390,186.251L391,184.444L392,183.004L393,184.135L394,183.499L395,183.31L396,184.65L397,182.536L398,181.222L399,181.243L400,177.965L401,177.369L402,178.059L403,176.745L404,174.382L405,172.301L406,173.714L407,175.88L408,175.122L409,175.453L410,173.923L411,174.141L412,173.879L413,174.6L414,174.791L415,171.26L416,172.638L417,171.111L418,170.53L419,169.743L420,169.711L421,168.468L422,168.19L423,169.186L424,168.319L425,165.796L426,165.971L427,166.438L428,165.64L429,167.079L430,165.852L431,162.939L432,163.453L433,165.411L434,164.724L435,164.723L436,163.889L437,165.175L438,164.332L439,163.889L440,163.801L441,163.717L442,161.788L443,161.785L444,161.703L445,161.705L446,160.948L447,159.792L448,157.262L449,157.227L450,157.094L451,156.624L452,154.911L453,155.544L454,153.55L455,155.24L456,154.402L457,153.055L458,153.872L459,153.313L460,153.545L461,153.821L462,154.61L463,155.406L464,155.043L465,152.96L466,153.546L467,152.537L468,151.075L469,149.835L470,149.626L471,148.518L472,148.916L473,147.378L474,148.919L475,148.193L476,147.444L477,147.312L478,147.292L479,146.877L480,147.255L481,143.926L482,144.589L483,145.146L484,144.589L485,144.125L486,144.122L487,142.692L488,143.111L489,142.734L490,143.211L491,142.634L492,141.325L493,138.193L494,139.578L495,139.102L496,140.499L497,140.472L498,139.114L499,137.195L500,137.736L501,137.842L502,135.399L503,137.294L504,137.804L505,136.002L506,135.412L507,134.263L508,133.989L509,133.936L510,131.947L511,131.205L512,130.727L513,130.758L514,130.101L515,130.153L516,131.105L517,132.584L518,132.212L519,129.812L520,130.378L521,129.682L522,130.276L523,129.181L524,128.125L525,129.593L526,128.426L527,127.438L528,126.501L529,125.901L530,125.12L531,124.404L532,124.593L533,123.527L534,124.066L535,123.745L536,122.794L537,123.234L538,123.744L539,125.166L540,123.799L541,120.788L542,121.892L543,121.219L544,120.104L545,118.453L546,118.62L547,117.376L548,117.434L549,116.4L550,117.421L551,116.831L552,114.932L553,116.89L554,117.03L555,116.811L556,114.886L557,114.293L558,113.312L559,114.582L560,112.554L561,110.528L562,111.61L563,112.143L564,113.589L565,113.954L566,111.691L567,110.439L568,110.905L569,109.233L570,108.823L571,108.36L572,109.186L573,108.753L574,108.291L575,108.045L576,107.512L577,106.82L578,105.111L579,105.451L580,104.767L581,104.321L582,104.797L583,104.043L584,102.745L585,101.682L586,102.979L587,104.262L588,101.029L589,99.556L590,99.794L591,96.951L592,98.883L593,96.717L594,99.159L595,98.598L596,98.778L597,98.207L598,95.998L599,95.352L600,95.956" stroke="#f58518" stroke-width="2"/></g></g><path class="foreground" aria-hidden="true" d="" display="none"/></g><g transform="translate(0,0)"><path class="background" aria-hidden="true" d="M0,0h600v400h-600Z"/><g><g class="mark-line role-mark marks" role="graphics-object" aria-roledescription="line mark container"><path aria-label="経過年数 (年): 0; アセットインデックス: 1; パーセンタイル: 90%" role="graphics-symbol" aria-roledescription="line mark" d="M0,249.902L1,245.605L2,242.414L3,241.335L4,239.605L5,238.609L6,239.131L7,238.657L8,237.745L9,236.75L10,236.979L11,236.279L12,236.908L13,235.99L14,235.843L15,235.953L16,233.769L17,235.574L18,233.062L19,233.811L20,233.108L21,233.113L22,232.175L23,231.494L24,231.297L25,231.442L26,231.364L27,231.055L28,229.87L29,230.401L30,229.944L31,228.328L32,228.498L33,228.033L34,227.358L35,228.876L36,226.262L37,227.828L38,227.019L39,226.966L40,228.274L41,228.202L42,230.069L43,229.942L44,228.862L45,228.864L46,229.726L47,229.5L48,230.625L49,229.229L50,228.941L51,226.822L52,228.232L53,228.487L54,228.416L55,227.576L56,228.461L57,227.15L58,229.001L59,228.673L60,228.791L61,228.328L62,229.376L63,229.585L64,229.348L65,231.371L66,232.045L67,231.509L68,230.123L69,231.138L70,231.483L71,230.577L72,230.77L73,230.177L74,229.869L75,231.421L76,228.203L77,229.365L78,229.59L79,230.092L80,230.963L81,230.017L82,231.043L83,230.547L84,230.577L85,231.01L86,231.5L87,230.284L88,227.975L89,229.335L90,228.652L91,228.98L92,228.645L93,227.534L94,230.603L95,230.115L96,230.544L97,228.954L98,226.863L99,226.53L100,227.586L101,226.736L102,228.236L103,226.647L104,226.804L105,226.94L106,226.816L107,225.865L108,225.617L109,223.514L110,223.43L111,224.437L112,225.615L113,224.923L114,224.687L115,226.11L116,226.921L117,227.922L118,228.255L119,228.709L120,229.991L121,229.389L122,229.157L123,228.071L124,228.159L125,227.99L126,228.017L127,226.833L128,227.523L129,226.165L130,224.836L131,226.507L132,226.631L133,226.779L134,228.33L135,226.88L136,226.001L137,225.162L138,225.417L139,226.642L140,225.942L141,226.544L142,225.719L143,225.028L144,225.87L145,227.126L146,224.896L147,226.842L148,225.989L149,224.234L150,225.363L151,224.572L152,225.702L153,227.015L154,225.221L155,224.635L156,225.737L157,224.661L158,223.419L159,223.539L160,223.613L161,225.645L162,224.671L163,225.161L164,222.713L165,222.943L166,223.1L167,224.045L168,222.751L169,222.439L170,224.11L171,223.99L172,222.852L173,222.675L174,220.965L175,221.542L176,219.545L177,220.019L178,219.204L179,222.103L180,221.143L181,218.624L182,220.058L183,221.272L184,221.276L185,221.618L186,220.289L187,219.788L188,219.321L189,219.695L190,219.745L191,219.527L192,219.662L193,218.991L194,217.669L195,218.973L196,218.441L197,218.559L198,218.051L199,218.905L200,217.902L201,218.754L202,218.069L203,218.241L204,217.413L205,217.068L206,216.68L207,215.912L208,214.573L209,215.026L210,213.719L211,213.729L212,214.214L213,212.983L214,213.575L215,214.199L216,212.872L217,211.991L218,210.62L219,210.331L220,209.818L221,207.227L222,207.076L223,206.097L224,206.266L225,204.857L226,205.305L227,204.755L228,204.918L229,203.698L230,202.472L231,200.661L232,200.571L233,201.328L234,202.317L235,200.444L236,200.321L237,199.762L238,199.567L239,199.905L240,199.378L241,199.217L242,198.174L243,199.942L244,198.705L245,199.311L246,199.191L247,199.081L248,199.505L249,196.501L250,195.798L251,198.357L252,196.824L253,196.35L254,195.257L255,191.799L256,192.329L257,188.176L258,186.567L259,189.1L260,187.319L261,187.859L262,187.52L263,186.6L264,186.103L265,186.723L266,187.747L267,188.007L268,187.466L269,184.727L270,183.827L271,182.979L272,183.177L273,180.461L274,179.701L275,179.393L276,180.727L277,182.512L278,181.79L279,182.477L280,181.146L281,182.61L282,180.16L283,177.411L284,178.448L285,176.661L286,179.17L287,176.469L288,175.218L289,174.666L290,174.407L291,173.183L292,172.605L293,168.5L294,169.582L295,169.779L296,168.652L297,169.166L298,170.248L299,168.847L300,167.55L301,165.883L302,164.95L303,165.675L304,167.868L305,165.731L306,165.355L307,163.229L308,163.695L309,161.982L310,162.638L311,164.091L312,164.314L313,162.291L314,158.452L315,160.768L316,160.377L317,160.055L318,158.349L319,160.983L320,160.287L321,156.816L322,157.565L323,154.124L324,154.029L325,152.785L326,149.96L327,150.665L328,151.059L329,152.004L330,153.534L331,152.421L332,149.457L333,148.794L334,148.945L335,145.213L336,145.794L337,144.26L338,145.233L339,146.429L340,146.742L341,143.181L342,144.41L343,145.807L344,145.341L345,144.053L346,143.582L347,144.349L348,141.715L349,139.395L350,140.68L351,141.452L352,139.224L353,135.874L354,135.034L355,135.781L356,133.908L357,133.619L358,135.083L359,135.469L360,134.101L361,131.628L362,131.781L363,129.99L364,128.961L365,126.2L366,127.184L367,128.356L368,126.59L369,125.68L370,127.416L371,128.431L372,125.22L373,124.565L374,123.892L375,122.302L376,124.462L377,124.196L378,119.613L379,120.711L380,122.074L381,120.14L382,119.553L383,120.065L384,120.265L385,120.91L386,121.37L387,118.647L388,116.468L389,114.59L390,110.626L391,110.569L392,111.391L393,110.245L394,109.533L395,108.804L396,108.403L397,106.412L398,108.109L399,105.527L400,104.759L401,105.784L402,104.038L403,101.627L404,103.513L405,103.579L406,99.611L407,100.578L408,98.801L409,99.308L410,99.195L411,98.256L412,98.1L413,94.104L414,95.05L415,94.139L416,92.431L417,93.925L418,93.161L419,93.619L420,92.561L421,94.625L422,90.173L423,91.4L424,89.08L425,90.132L426,88.985L427,87.123L428,87.058L429,86.39L430,86.269L431,86.957L432,85.476L433,87.155L434,88.38L435,88.128L436,83.164L437,82.754L438,84.833L439,84.283L440,84.403L441,85.364L442,85.801L443,85.217L444,83.048L445,80.481L446,79.085L447,78.499L448,78.073L449,79.225L450,75.961L451,74.523L452,72.235L453,71.813L454,69.078L455,71.048L456,69.679L457,68.705L458,68.616L459,69.523L460,65.814L461,65.284L462,62.28L463,62.053L464,61.285L465,60.876L466,62.616L467,62.298L468,61.244L469,61.377L470,63.06L471,62.874L472,62.541L473,59.478L474,61.13L475,60.254L476,61.456L477,61.02L478,59.493L479,60.567L480,58.136L481,57.117L482,56.322L483,56.811L484,57.158L485,55.42L486,54.256L487,53.299L488,49.285L489,50.757L490,51.034L491,48.555L492,48.959L493,50.818L494,49.836L495,48.36L496,47.84L497,46.907L498,46.872L499,48.021L500,45.103L501,44.205L502,44.828L503,45.424L504,44.732L505,45.921L506,47.757L507,44.176L508,42.943L509,45.028L510,44.555L511,41.369L512,41.871L513,39.227L514,38.294L515,37.328L516,38.553L517,39.574L518,38.473L519,36.545L520,38.375L521,36.529L522,37.19L523,36.546L524,32.72L525,33.981L526,34.415L527,31.082L528,31.26L529,31.285L530,30.937L531,31.752L532,34.113L533,34.264L534,32.982L535,31.361L536,31.978L537,29.956L538,26.817L539,28.123L540,26.552L541,24.21L542,23.708L543,23.093L544,20.482L545,20.047L546,21.151L547,21.793L548,21.493L549,20.702L550,19.848L551,18.791L552,20.803L553,19.057L554,19.434L555,19.567L556,18.601L557,17.177L558,15.73L559,20.419L560,17.866L561,17.167L562,14.113L563,14.929L564,13.257L565,16.059L566,13.252L567,12.21L568,13.297L569,14.554L570,15.88L571,15.17L572,12.532L573,11.991L574,10.829L575,9.056L576,10.538L577,11.558L578,11.873L579,10.32L580,11.496L581,13.225L582,11.518L583,11.073L584,9.279L585,7.157L586,5.369L587,6.057L588,5.818L589,4.144L590,5.929L591,4.942L592,6.214L593,5.659L594,5.256L595,3.041L596,2.289L597,3.001L598,2.338L599,2.416L600,0" stroke="#e45756" stroke-width="2"/></g></g><path class="foreground" aria-hidden="true" d="" display="none"/></g></g><g class="mark-group role-legend" role="graphics-symbol" aria-roledescription="legend" aria-label="Symbol legend titled 'パーセンタイル' for stroke color with 3 values: 10%, 50%, 90%"><g transform="translate(620,0)"><path class="background" aria-hidden="true" d="M0,0h77v53h-77Z" pointer-events="none"/><g><g class="mark-group role-legend-entry"><g transform="translate(0,16)"><path class="background" aria-hidden="true" d="M0,0h0v0h0Z" pointer-events="none"/><g><g class="mark-group role-scope" role="graphics-object" aria-roledescription="group mark container"><g transform="translate(0,0)"><path class="background" aria-hidden="true" d="M0,0h36.0146484375v11h-36.0146484375Z" pointer-events="none" opacity="1"/><g><g class="mark-symbol role-legend-symbol" pointer-events="none"><path transform="translate(6,6)" d="M-5,0L5,0" stroke="#4c78a8" stroke-width="1.5" opacity="1"/></g><g class="mark-text role-legend-label" pointer-events="none"><text text-anchor="start" transform="translate(16,9)" font-family="sans-serif" font-size="10px" fill="#000" opacity="1">10%</text></g></g><path class="foreground" aria-hidden="true" d="" pointer-events="none" display="none"/></g><g transform="translate(0,13)"><path class="background" aria-hidden="true" d="M0,0h36.0146484375v11h-36.0146484375Z" pointer-events="none" opacity="1"/><g><g class="mark-symbol role-legend-symbol" pointer-events="none"><path transform="translate(6,6)" d="M-5,0L5,0" stroke="#f58518" stroke-width="1.5" opacity="1"/></g><g class="mark-text role-legend-label" pointer-events="none"><text text-anchor="start" transform="translate(16,9)" font-family="sans-serif" font-size="10px" fill="#000" opacity="1">50%</text></g></g><path class="foreground" aria-hidden="true" d="" pointer-events="none" display="none"/></g><g transform="translate(0,26)"><path class="background" aria-hidden="true" d="M0,0h36.0146484375v11h-36.0146484375Z" pointer-events="none" opacity="1"/><g><g class="mark-symbol role-legend-symbol" pointer-events="none"><path transform="translate(6,6)" d="M-5,0L5,0" stroke="#e45756" stroke-width="1.5" opacity="1"/></g><g class="mark-text role-legend-label" pointer-events="none"><text text-anchor="start" transform="translate(16,9)" font-family="sans-serif" font-size="10px" fill="#000" opacity="1">90%</text></g></g><path class="foreground" aria-hidden="true" d="" pointer-events="none" display="none"/></g></g></g><path class="foreground" aria-hidden="true" d="" pointer-events="none" display="none"/></g></g><g class="mark-text role-legend-title" pointer-events="none"><text text-anchor="start" transform="translate(0,9)" font-family="sans-serif" font-size="11px" font-weight="bold" fill="#000" opacity="1">パーセンタイル</text></g></g><path class="foreground" aria-hidden="true" d="" pointer-events="none" display="none"/></g></g><g class="mark-group role-title"><g transform="translate(300,-19)"><path class="background" aria-hidden="true" d="M0,0h0v0h0Z" pointer-events="none"/><g><g class="mark-text role-title-text" role="graphics-symbol" aria-roledescription="title" aria-label="Title text '21-30年に破産した人のアセット推移'" pointer-events="none"><text text-anchor="middle" transform="translate(0,10)" font-family="sans-serif" font-size="13px" font-weight="bold" fill="#000" opacity="1">21-30年に破産した人のアセット推移</text></g></g><path class="foreground" aria-hidden="true" d="" pointer-events="none" display="none"/></g></g></g><path class="foreground" aria-hidden="true" d="" display="none"/></g></g></g></svg>