<svg xmlns="http://www.w3.org/2000/svg" xmlns:xlink="http://www.w3.org/1999/xlink" version="1.1" class="marks" width="743" height="461" viewBox="0 0 743 461"><rect width="743" height="461" fill="white"/><g fill="none" stroke-miterlimit="10" transform="translate(41,24)"><g class="mark-group role-frame root" role="graphics-object" aria-roledescription="group mark container"><g transform="translate(0,0)"><path class="background" aria-hidden="true" d="M0.5,0.5h600v400h-600Z" stroke="#ddd"/><g><g class="mark-group role-axis" aria-hidden="true"><g transform="translate(0.5,400.5)"><path class="background" aria-hidden="true" d="M0,0h0v0h0Z" pointer-events="none"/><g><g class="mark-rule role-axis-grid" pointer-events="none"><line transform="translate(0,-400)" x2="0" y2="400" stroke="#ddd" stroke-width="1" opacity="1"/><line transform="translate(60,-400)" x2="0" y2="400" stroke="#ddd" stroke-width="1" opacity="1"/><line transform="translate(120,-400)" x2="0" y2="400" stroke="#ddd" stroke-width="1" opacity="1"/><line transform="translate(180,-400)" x2="0" y2="400" stroke="#ddd" stroke-width="1" opacity="1"/><line transform="translate(240,-400)" x2="0" y2="400" stroke="#ddd" stroke-width="1" opacity="1"/><line transform="translate(300,-400)" x2="0" y2="400" stroke="#ddd" stroke-width="1" opacity="1"/><line transform="translate(360,-400)" x2="0" y2="400" stroke="#ddd" stroke-width="1" opacity="1"/><line transform="translate(420,-400)" x2="0" y2="400" stroke="#ddd" stroke-width="1" opacity="1"/><line transform="translate(480,-400)" x2="0" y2="400" stroke="#ddd" stroke-width="1" opacity="1"/><line transform="translate(540,-400)" x2="0" y2="400" stroke="#ddd" stroke-width="1" opacity="1"/><line transform="translate(600,-400)" x2="0" y2="400" stroke="#ddd" stroke-width="1" opacity="1"/></g></g><path class="foreground" aria-hidden="true" d="" pointer-events="none" display="none"/></g></g><g class="mark-group role-axis" aria-hidden="true"><g transform="translate(0.5,0.5)"><path class="background" aria-hidden="true" d="M0,0h0v0h0Z" pointer-events="none"/><g><g class="mark-rule role-axis-grid" pointer-events="none"><line transform="translate(0,400)" x2="600" y2="0" stroke="#ddd" stroke-width="1" opacity="1"/><line transform="translate(0,365)" x2="600" y2="0" stroke="#ddd" stroke-width="1" opacity="1"/><line transform="translate(0,341)" x2="600" y2="0" stroke="#ddd" stroke-width="1" opacity="1"/><line transform="translate(0,321)" x2="600" y2="0" stroke="#ddd" stroke-width="1" opacity="1"/><line transform="translate(0,306)" x2="600" y2="0" stroke="#ddd" stroke-width="1" opacity="1"/><line transform="translate(0,293)" x2="600" y2="0" stroke="#ddd" stroke-width="1" opacity="1"/><line transform="translate(0,281)" x2="600" y2="0" stroke="#ddd" stroke-width="1" opacity="1"/><line transform="translate(0,271)" x2="600" y2="0" stroke="#ddd" stroke-width="1" opacity="1"/><line transform="translate(0,262)" x2="600" y2="0" stroke="#ddd" stroke-width="1" opacity="1"/><line transform="translate(0,203)" x2="600" y2="0" stroke="#ddd" stroke-width="1" opacity="1"/><line transform="translate(0,168)" x2="600" y2="0" stroke="#ddd" stroke-width="1" opacity="1"/><line transform="translate(0,143)" x2="600" y2="0" stroke="#ddd" stroke-width="1" opacity="1"/><line transform="translate(0,124)" x2="600" y2="0" stroke="#ddd" stroke-width="1" opacity="1"/><line transform="translate(0,108)" x2="600" y2="0" stroke="#ddd" stroke-width="1" opacity="1"/><line transform="translate(0,95)" x2="600" y2="0" stroke="#ddd" stroke-width="1" opacity="1"/><line transform="translate(0,84)" x2="600" y2="0" stroke="#ddd" stroke-width="1" opacity="1"/><line transform="translate(0,74)" x2="600" y2="0" stroke="#ddd" stroke-width="1" opacity="1"/><line transform="translate(0,64)" x2="600" y2="0" stroke="#ddd" stroke-width="1" opacity="1"/><line transform="translate(0,5)" x2="600" y2="0" stroke="#ddd" stroke-width="1" opacity="1"/></g></g><path class="foreground" aria-hidden="true" d="" pointer-events="none" display="none"/></g></g><g class="mark-group role-axis" role="graphics-symbol" aria-roledescription="axis" aria-label="X-axis titled '経過年数 (年)' for a linear scale with values from 0 to 50"><g transform="translate(0.5,400.5)"><path class="background" aria-hidden="true" d="M0,0h0v0h0Z" pointer-events="none"/><g><g class="mark-rule role-axis-tick" pointer-events="none"><line transform="translate(0,0)" x2="0" y2="5" stroke="#888" stroke-width="1" opacity="1"/><line transform="translate(60,0)" x2="0" y2="5" stroke="#888" stroke-width="1" opacity="1"/><line transform="translate(120,0)" x2="0" y2="5" stroke="#888" stroke-width="1" opacity="1"/><line transform="translate(180,0)" x2="0" y2="5" stroke="#888" stroke-width="1" opacity="1"/><line transform="translate(240,0)" x2="0" y2="5" stroke="#888" stroke-width="1" opacity="1"/><line transform="translate(300,0)" x2="0" y2="5" stroke="#888" stroke-width="1" opacity="1"/><line transform="translate(360,0)" x2="0" y2="5" stroke="#888" stroke-width="1" opacity="1"/><line transform="translate(420,0)" x2="0" y2="5" stroke="#888" stroke-width="1" opacity="1"/><line transform="translate(480,0)" x2="0" y2="5" stroke="#888" stroke-width="1" opacity="1"/><line transform="translate(540,0)" x2="0" y2="5" stroke="#888" stroke-width="1" opacity="1"/><line transform="translate(600,0)" x2="0" y2="5" stroke="#888" stroke-width="1" opacity="1"/></g><g class="mark-text role-axis-label" pointer-events="none"><text text-anchor="start" transform="translate(0,15)" font-family="sans-serif" font-size="10px" fill="#000" opacity="1">0</text><text text-anchor="middle" transform="translate(60,15)" font-family="sans-serif" font-size="10px" fill="#000" opacity="1">5</text><text text-anchor="middle" transform="translate(120,15)" font-family="sans-serif" font-size="10px" fill="#000" opacity="1">10</text><text text-anchor="middle" transform="translate(180,15)" font-family="sans-serif" font-size="10px" fill="#000" opacity="1">15</text><text text-anchor="middle" transform="translate(240,15)" font-family="sans-serif" font-size="10px" fill="#000" opacity="1">20</text><text text-anchor="middle" transform="translate(300,15)" font-family="sans-serif" font-size="10px" fill="#000" opacity="1">25</text><text text-anchor="middle" transform="translate(360,15)" font-family="sans-serif" font-size="10px" fill="#000" opacity="1">30</text><text text-anchor="middle" transform="translate(420,15)" font-family="sans-serif" font-size="10px" fill="#000" opacity="1">35</text><text text-anchor="middle" transform="translate(480,15)" font-family="sans-serif" font-size="10px" fill="#000" opacity="1">40</text><text text-anchor="middle" transform="translate(540,15)" font-family="sans-serif" font-size="10px" fill="#000" opacity="1">45</text><text text-anchor="end" transform="translate(600,15)" font-family="sans-serif" font-size="10px" fill="#000" opacity="1">50</text></g><g class="mark-rule role-axis-domain" pointer-events="none"><line transform="translate(0,0)" x2="600" y2="0" stroke="#888" stroke-width="1" opacity="1"/></g><g class="mark-text role-axis-title" pointer-events="none"><text text-anchor="middle" transform="translate(300,30)" font-family="sans-serif" font-size="11px" font-weight="bold" fill="#000" opacity="1">経過年数 (年)</text></g></g><path class="foreground" aria-hidden="true" d="" pointer-events="none" display="none"/></g></g><g class="mark-group role-axis" role="graphics-symbol" aria-roledescription="axis" aria-label="Y-axis titled 'アセットインデックス' for a log scale with values from 0.2 to 21.204424668"><g transform="translate(0.5,0.5)"><path class="background" aria-hidden="true" d="M0,0h0v0h0Z" pointer-events="none"/><g><g class="mark-rule role-axis-tick" pointer-events="none"><line transform="translate(0,400)" x2="-5" y2="0" stroke="#888" stroke-width="1" opacity="1"/><line transform="translate(0,365)" x2="-5" y2="0" stroke="#888" stroke-width="1" opacity="1"/><line transform="translate(0,341)" x2="-5" y2="0" stroke="#888" stroke-width="1" opacity="1"/><line transform="translate(0,321)" x2="-5" y2="0" stroke="#888" stroke-width="1" opacity="1"/><line transform="translate(0,306)" x2="-5" y2="0" stroke="#888" stroke-width="1" opacity="1"/><line transform="translate(0,293)" x2="-5" y2="0" stroke="#888" stroke-width="1" opacity="1"/><line transform="translate(0,281)" x2="-5" y2="0" stroke="#888" stroke-width="1" opacity="1"/><line transform="translate(0,271)" x2="-5" y2="0" stroke="#888" stroke-width="1" opacity="1"/><line transform="translate(0,262)" x2="-5" y2="0" stroke="#888" stroke-width="1" opacity="1"/><line transform="translate(0,203)" x2="-5" y2="0" stroke="#888" stroke-width="1" opacity="1"/><line transform="translate(0,168)" x2="-5" y2="0" stroke="#888" stroke-width="1" opacity="1"/><line transform="translate(0,143)" x2="-5" y2="0" stroke="#888" stroke-width="1" opacity="1"/><line transform="translate(0,124)" x2="-5" y2="0" stroke="#888" stroke-width="1" opacity="1"/><line transform="translate(0,108)" x2="-5" y2="0" stroke="#888" stroke-width="1" opacity="1"/><line transform="translate(0,95)" x2="-5" y2="0" stroke="#888" stroke-width="1" opacity="1"/><line transform="translate(0,84)" x2="-5" y2="0" stroke="#888" stroke-width="1" opacity="1"/><line transform="translate(0,74)" x2="-5" y2="0" stroke="#888" stroke-width="1" opacity="1"/><line transform="translate(0,64)" x2="-5" y2="0" stroke="#888" stroke-width="1" opacity="1"/><line transform="translate(0,5)" x2="-5" y2="0" stroke="#888" stroke-width="1" opacity="1"/></g><g class="mark-text role-axis-label" pointer-events="none"><text text-anchor="end" transform="translate(-7,403)" font-family="sans-serif" font-size="10px" fill="#000" opacity="1">0.2</text><text text-anchor="end" transform="translate(-7,368.223350736)" font-family="sans-serif" font-size="10px" fill="#000" opacity="1">0.3</text><text text-anchor="end" transform="translate(-7,343.54892540782265)" font-family="sans-serif" font-size="10px" fill="#000" opacity="1">0.4</text><text text-anchor="end" transform="translate(-7,324.4099542253565)" font-family="sans-serif" font-size="10px" fill="#000" opacity="1">0.5</text><text text-anchor="end" transform="translate(-7,308.77227614382264)" font-family="sans-serif" font-size="10px" fill="#000" opacity="1"/><text text-anchor="end" transform="translate(-7,295.5508077142145)" font-family="sans-serif" font-size="10px" fill="#000" opacity="1"/><text text-anchor="end" transform="translate(-7,284.09785081564536)" font-family="sans-serif" font-size="10px" fill="#000" opacity="1"/><text text-anchor="end" transform="translate(-7,273.99562687982257)" font-family="sans-serif" font-size="10px" fill="#000" opacity="1"/><text text-anchor="end" transform="translate(-7,264.9588796331792)" font-family="sans-serif" font-size="10px" fill="#000" opacity="1">1</text><text text-anchor="end" transform="translate(-7,205.5078050410018)" font-family="sans-serif" font-size="10px" fill="#000" opacity="1">2</text><text text-anchor="end" transform="translate(-7,170.73115577700182)" font-family="sans-serif" font-size="10px" fill="#000" opacity="1">3</text><text text-anchor="end" transform="translate(-7,146.05673044882448)" font-family="sans-serif" font-size="10px" fill="#000" opacity="1">4</text><text text-anchor="end" transform="translate(-7,126.91775926635837)" font-family="sans-serif" font-size="10px" fill="#000" opacity="1">5</text><text text-anchor="end" transform="translate(-7,111.28008118482444)" font-family="sans-serif" font-size="10px" fill="#000" opacity="1"/><text text-anchor="end" transform="translate(-7,98.05861275521634)" font-family="sans-serif" font-size="10px" fill="#000" opacity="1"/><text text-anchor="end" transform="translate(-7,86.60565585664715)" font-family="sans-serif" font-size="10px" fill="#000" opacity="1"/><text text-anchor="end" transform="translate(-7,76.50343192082435)" font-family="sans-serif" font-size="10px" fill="#000" opacity="1"/><text text-anchor="end" transform="translate(-7,67.46668467418095)" font-family="sans-serif" font-size="10px" fill="#000" opacity="1">10</text><text text-anchor="end" transform="translate(-7,8.015610082003663)" font-family="sans-serif" font-size="10px" fill="#000" opacity="1">20</text></g><g class="mark-rule role-axis-domain" pointer-events="none"><line transform="translate(0,400)" x2="0" y2="-400" stroke="#888" stroke-width="1" opacity="1"/></g><g class="mark-text role-axis-title" pointer-events="none"><text text-anchor="middle" transform="translate(-24.9013671875,200) rotate(-90) translate(0,-2)" font-family="sans-serif" font-size="11px" font-weight="bold" fill="#000" opacity="1">アセットインデックス</text></g></g><path class="foreground" aria-hidden="true" d="" pointer-events="none" display="none"/></g></g><g class="mark-group role-scope pathgroup" role="graphics-object" aria-roledescription="group mark container"><g transform="translate(0,0)"><path class="background" aria-hidden="true" d="M0,0h600v400h-600Z"/><g><g class="mark-line role-mark marks" role="graphics-object" aria-roledescription="line mark container"><path aria-label="経過年数 (年): 0; アセットインデックス: 1; パーセンタイル: 10%" role="graphics-symbol" aria-roledescription="line mark" d="M0,261.959L1,266.148L2,267.507L3,268.433L4,269.191L5,270.292L6,270.649L7,271.846L8,272.232L9,271.239L10,271.984L11,272.563L12,272.123L13,273.137L14,273.008L15,273.452L16,272.805L17,273.057L18,272.559L19,272.101L20,272.496L21,272.356L22,271.853L23,272.205L24,272.335L25,271.567L26,272.133L27,271.48L28,271.699L29,271.131L30,271.123L31,270.574L32,271.304L33,270.386L34,270.736L35,270.545L36,271.312L37,270.46L38,271.004L39,269.998L40,270.199L41,269.292L42,269.205L43,268.118L44,268.294L45,268.746L46,267.842L47,267.383L48,266.725L49,266.745L50,266.118L51,266.529L52,265.759L53,264.633L54,264.678L55,265.426L56,264.852L57,266.11L58,266.203L59,265.352L60,264.761L61,265.882L62,266.201L63,264.995L64,265.153L65,266.337L66,265.444L67,263.275L68,262.691L69,263.465L70,262.07L71,261.419L72,262.072L73,260.099L74,259.403L75,259.355L76,259.588L77,258.661L78,259.184L79,259.623L80,258.775L81,258.661L82,259.183L83,258.674L84,258.947L85,258.273L86,257.396L87,256.918L88,256.811L89,255.87L90,254.587L91,255.152L92,253.058L93,253.299L94,254.369L95,254.853L96,253.54L97,252.338L98,251.536L99,251.055L100,251.609L101,250.091L102,250.224L103,250.453L104,249.241L105,250.185L106,249.982L107,249.235L108,249.383L109,247.904L110,247.552L111,246.691L112,246.774L113,245.088L114,245.508L115,244.535L116,244.292L117,245.139L118,244.123L119,244.276L120,244.323L121,243.774L122,243.931L123,242.304L124,241.817L125,242.592L126,241.361L127,242.286L128,241.635L129,242.238L130,241.004L131,241.154L132,240.792L133,240.456L134,239.787L135,240.774L136,239.114L137,238.781L138,240.193L139,238.663L140,238.006L141,236.912L142,237.383L143,237.128L144,237.093L145,235.353L146,235.018L147,235.96L148,235.368L149,234.943L150,234.675L151,235.196L152,235.315L153,234.334L154,233.723L155,232.994L156,232.703L157,232.615L158,231.36L159,231.238L160,230.992L161,230.669L162,230.222L163,229.821L164,230.725L165,229.517L166,229.718L167,228.089L168,227.489L169,228.591L170,228.618L171,227.775L172,227.404L173,227.117L174,226.399L175,225.188L176,226.96L177,225.211L178,223.213L179,222.892L180,222.207L181,222.171L182,221.699L183,221.81L184,221.586L185,221.09L186,220.482L187,220.609L188,220.062L189,219.482L190,218.671L191,218.261L192,218.472L193,218.164L194,219.178L195,217.626L196,216.608L197,217.499L198,217.71L199,217.994L200,217.768L201,216.514L202,215.288L203,215.409L204,215.739L205,213.72L206,214.171L207,213.545L208,212.617L209,212.151L210,210.78L211,211.799L212,212.418L213,213.163L214,211.584L215,211.712L216,211.625L217,210.647L218,211.045L219,210.869L220,209.536L221,210.454L222,209.859L223,209.991L224,209.428L225,210.613L226,209.94L227,209.163L228,210.291L229,208.935L230,208.45L231,208.032L232,207.897L233,207.634L234,206.821L235,207.526L236,205.268L237,205.97L238,206.596L239,205.658L240,203.526L241,203.949L242,204.029L243,202.622L244,202.411L245,202.784L246,202.71L247,200.916L248,199.662L249,199.98L250,197.237L251,197.04L252,197.449L253,196.463L254,195.428L255,195.351L256,195.375L257,196.399L258,195.614L259,194.759L260,194.415L261,194.978L262,193.739L263,192.691L264,191.491L265,191.772L266,189.71L267,189.933L268,190.415L269,189.212L270,189.746L271,189.151L272,188.67L273,188.137L274,189.179L275,188.695L276,188.109L277,187.839L278,186.609L279,186.644L280,185.797L281,187.117L282,185.5L283,185.693L284,185.945L285,186.108L286,186.507L287,185.616L288,185.124L289,183.96L290,184.657L291,184.121L292,182.867L293,182.927L294,183.289L295,181.681L296,180.611L297,180.054L298,178.939L299,178.78L300,176.849L301,178.199L302,179.08L303,177.665L304,178.875L305,177.548L306,176.394L307,176.041L308,174.677L309,175.683L310,175.147L311,174.38L312,173.568L313,175.202L314,173.818L315,173.502L316,171.491L317,170.901L318,170.651L319,171.393L320,170.222L321,167.517L322,167.639L323,167.986L324,167.679L325,166.622L326,167.662L327,168.131L328,167.498L329,166.458L330,165.149L331,163.937L332,165.202L333,167.061L334,167.321L335,165.991L336,165.797L337,165.332L338,164.178L339,164.293L340,163.027L341,162.037L342,163.482L343,162.415L344,162.827L345,162.099L346,162.589L347,160.815L348,159.735L349,160.37L350,158.59L351,158.748L352,161.014L353,159.127L354,160.418L355,158.656L356,157.929L357,156.986L358,157.17L359,156.687L360,157.446L361,156.642L362,156.034L363,155.986L364,154.922L365,154.985L366,154.135L367,154.249L368,153.456L369,154.778L370,153.632L371,152.439L372,152.272L373,151.766L374,151.884L375,151.426L376,150.017L377,151.088L378,150.249L379,148.562L380,149.144L381,148.553L382,147.505L383,146.593L384,145.91L385,144.391L386,145.024L387,143.432L388,142.765L389,142.208L390,140.528L391,140.152L392,140.6L393,139.437L394,139.249L395,141.303L396,139.317L397,138.868L398,138.137L399,139.122L400,137.89L401,138.026L402,137.502L403,135.882L404,135.219L405,134.588L406,134.533L407,134.163L408,135.739L409,134.306L410,134.265L411,133.913L412,133.293L413,133.13L414,132.538L415,131.065L416,130.328L417,129.476L418,130.783L419,128.602L420,128.237L421,128.66L422,127.829L423,127.58L424,126.632L425,124.619L426,124.958L427,125.421L428,124.804L429,124.61L430,124.534L431,123.32L432,122.824L433,123.011L434,122.767L435,121.998L436,119.969L437,119.472L438,118.561L439,119.017L440,119.322L441,119.223L442,118.241L443,118.454L444,117.438L445,117.162L446,117.409L447,116.792L448,117.155L449,116.193L450,114.856L451,114.88L452,113.498L453,114.227L454,114.428L455,113.836L456,112.735L457,112.005L458,111.838L459,111.377L460,109.783L461,108.6L462,110.39L463,107.937L464,106.673L465,107.381L466,106.34L467,106.224L468,105.111L469,104.694L470,104.531L471,102.955L472,102.115L473,102.988L474,102.431L475,103.118L476,103.07L477,102.282L478,102.472L479,100.181L480,100.076L481,100.402L482,99.91L483,99.476L484,99.695L485,97.196L486,96.61L487,96.508L488,96.468L489,96.605L490,96.71L491,96.936L492,95.423L493,93.938L494,94.623L495,92.719L496,92.651L497,93.544L498,93.401L499,93.014L500,91.68L501,92.531L502,92.027L503,90.711L504,89.819L505,89.143L506,89.574L507,88.884L508,87.19L509,86.476L510,85.563L511,85.138L512,84.922L513,84.271L514,84.332L515,84.846L516,83.492L517,84.282L518,84.459L519,82.949L520,82.45L521,82.988L522,82.827L523,81.295L524,80.223L525,79.696L526,78.505L527,76.749L528,77.759L529,76.961L530,76.351L531,75.446L532,74.862L533,74.157L534,73.633L535,73.136L536,73.283L537,72.123L538,72.168L539,72.083L540,70.353L541,69.374L542,68.968L543,68.653L544,68.716L545,68.421L546,67.052L547,66.686L548,65.441L549,63.878L550,63.789L551,63.018L552,62.647L553,61.791L554,61.47L555,60.772L556,60.68L557,59.959L558,59.305L559,59.996L560,58.346L561,56.966L562,56.781L563,56.299L564,55.16L565,55.304L566,55.026L567,52.813L568,51.795L569,51.541L570,50.568L571,52.013L572,50.775L573,49.729L574,49.529L575,48.711L576,48.366L577,46.805L578,45.123L579,43.723L580,42.918L581,41.63L582,42.138L583,42.126L584,41.511L585,40.231L586,39.582L587,38.329L588,38.22L589,37.283L590,36.811L591,35.693L592,34.786L593,33.224L594,32.764L595,31.487L596,30.944L597,29.687L598,28.285L599,27.514L600,26.111" stroke="#4c78a8" stroke-width="2"/></g></g><path class="foreground" aria-hidden="true" d="" display="none"/></g><g transform="translate(0,0)"><path class="background" aria-hidden="true" d="M0,0h600v400h-600Z"/><g><g class="mark-line role-mark marks" role="graphics-object" aria-roledescription="line mark container"><path aria-label="経過年数 (年): 0; アセットインデックス: 1; パーセンタイル: 50%" role="graphics-symbol" aria-roledescription="line mark" d="M0,261.959L1,261.432L2,261.271L3,261.102L4,260.246L5,260.248L6,260.289L7,259.929L8,259.105L9,258.605L10,257.369L11,257.615L12,257.223L13,256.744L14,256.498L15,255.801L16,255.84L17,255.375L18,254.669L19,253.832L20,253.139L21,252.957L22,251.71L23,250.992L24,250.788L25,250.789L26,249.108L27,249.338L28,248.974L29,248.529L30,248.288L31,248.025L32,247.297L33,247.107L34,245.144L35,244.581L36,244.797L37,243.818L38,243.453L39,243.973L40,243.929L41,242.844L42,242.545L43,241.704L44,241.145L45,240.673L46,240.222L47,239.915L48,239.424L49,238.895L50,238.24L51,238.597L52,238.458L53,237.008L54,236.909L55,236.657L56,236.287L57,235.179L58,234.823L59,234.864L60,235.022L61,234.092L62,234.195L63,233.614L64,233.257L65,233.042L66,232.102L67,231.646L68,231.449L69,230.108L70,230.802L71,230.008L72,229.63L73,228.292L74,227.864L75,227.063L76,226.628L77,226.062L78,225.56L79,225.275L80,225.105L81,223.905L82,223.905L83,222.674L84,222.624L85,222.966L86,222.323L87,220.678L88,220.495L89,220.633L90,220.191L91,219.394L92,219.635L93,217.635L94,218.162L95,217.738L96,217.147L97,216.697L98,216.942L99,216.12L100,215.187L101,214.587L102,214.874L103,214.469L104,213.827L105,213.705L106,213.964L107,213.735L108,213.521L109,212.332L110,212.202L111,212.132L112,211.419L113,211.381L114,211.362L115,210.845L116,210.28L117,209.953L118,208.807L119,208.786L120,208.557L121,207.931L122,207.31L123,206.592L124,205.897L125,205.456L126,204.462L127,203.665L128,204.018L129,202.915L130,203.061L131,202.945L132,203.282L133,201.708L134,201.365L135,201.455L136,200.696L137,201.095L138,200.511L139,199.731L140,198.811L141,197.924L142,198.03L143,198.384L144,197.353L145,197.332L146,196.492L147,196.113L148,195.707L149,196.079L150,196.453L151,195.197L152,194.933L153,194.243L154,193.378L155,193.065L156,192.447L157,192.92L158,191.342L159,191.371L160,190.841L161,190.147L162,189.214L163,189.184L164,188.987L165,188.93L166,188.033L167,187.936L168,187.133L169,186.189L170,185.243L171,184.725L172,184.46L173,183.662L174,183.113L175,184.035L176,183.79L177,182.987L178,183.339L179,183.262L180,182.865L181,182.035L182,181.319L183,181.142L184,180.322L185,180.756L186,180.818L187,179.868L188,179.217L189,178.12L190,178.16L191,177.5L192,177.374L193,176.373L194,176.265L195,176.211L196,175.922L197,175.38L198,175.055L199,174.617L200,174.942L201,173.827L202,172.349L203,173.152L204,173.403L205,172.068L206,172.518L207,171.887L208,171.183L209,170.65L210,170.183L211,169.545L212,169.631L213,168.776L214,168.629L215,166.994L216,167.55L217,167.48L218,167.428L219,166.337L220,165.831L221,165.914L222,164.529L223,163.817L224,163.372L225,162.218L226,161.376L227,162.062L228,161.635L229,160.614L230,159.794L231,159.058L232,159.092L233,159.337L234,159.663L235,158.863L236,157.865L237,156.596L238,156.99L239,156.708L240,155.149L241,155.92L242,156.055L243,155.437L244,155.37L245,154.64L246,153.869L247,154.522L248,154.353L249,154.728L250,154.322L251,153.039L252,152.681L253,152.189L254,151.429L255,151.183L256,151.647L257,151.384L258,151.648L259,149.95L260,151.042L261,150.205L262,149.19L263,148.85L264,149.345L265,148.939L266,148.19L267,148.384L268,148.38L269,148.792L270,147.515L271,146.78L272,146.614L273,146.417L274,145.383L275,145.436L276,144.589L277,143.981L278,143.741L279,143.576L280,141.344L281,142.066L282,141.548L283,140.477L284,140.381L285,139.953L286,139.53L287,139.244L288,138.645L289,137.67L290,136.456L291,135.987L292,136.459L293,136.196L294,135.424L295,134.725L296,135.251L297,135.269L298,135.604L299,134.643L300,134.629L301,134.291L302,133.766L303,133.428L304,132.393L305,132.208L306,131.827L307,130.131L308,130.688L309,129.371L310,129.022L311,129.157L312,128.193L313,127.994L314,128.144L315,126.532L316,127.33L317,127.269L318,125.925L319,125.988L320,125.677L321,124.827L322,124.029L323,124.546L324,123.637L325,123.209L326,122.093L327,121.538L328,121.819L329,121.805L330,121.389L331,120.709L332,120.953L333,120.898L334,120.81L335,120.452L336,119.867L337,118.291L338,117.58L339,118.347L340,118.798L341,117.253L342,117.253L343,117.005L344,116.237L345,115.618L346,114.861L347,114.435L348,114.441L349,113.977L350,113.327L351,112.399L352,111.773L353,111.741L354,110.309L355,110.438L356,109.486L357,109.459L358,109.16L359,110.056L360,109.105L361,108.677L362,108.591L363,107.872L364,107.271L365,107.178L366,107.601L367,105.711L368,104.872L369,104.626L370,104.63L371,104.941L372,103.096L373,103.492L374,102.472L375,101.665L376,101.776L377,101.673L378,101.769L379,101.581L380,100.843L381,100.493L382,99.365L383,99.848L384,98.857L385,98.021L386,98.44L387,97.69L388,96.675L389,95.992L390,95.031L391,95.196L392,94.556L393,95.353L394,95.322L395,95.142L396,93.462L397,94.833L398,94.425L399,93.748L400,94.221L401,93.473L402,92.825L403,91.51L404,90.821L405,89.737L406,88.946L407,89.742L408,88.795L409,87.939L410,89.033L411,88.193L412,86.922L413,86.854L414,86.541L415,86.915L416,86.085L417,85.955L418,84.779L419,83.924L420,84.136L421,83.58L422,83.959L423,82.972L424,82.307L425,81.906L426,81.358L427,81.187L428,80.639L429,81.266L430,80.265L431,78.977L432,79.329L433,79.511L434,79.174L435,77.905L436,78.256L437,78.306L438,77.474L439,77.009L440,76.562L441,76.353L442,75.886L443,75.479L444,75.277L445,75.006L446,74.652L447,74.281L448,73.154L449,73.543L450,71.723L451,72.403L452,72.529L453,71.479L454,72.012L455,72.112L456,70.958L457,70.632L458,69.634L459,68.912L460,68.444L461,68.168L462,67.658L463,68.086L464,66.639L465,65.497L466,65.727L467,65.463L468,65.2L469,64.751L470,65.254L471,64.58L472,63.954L473,63.426L474,63.108L475,62.785L476,62.154L477,61.669L478,61.668L479,60.084L480,60.297L481,60.551L482,60.679L483,59.185L484,59.101L485,58.2L486,57.917L487,57.467L488,58.214L489,58.202L490,57.681L491,58.079L492,56.987L493,56.937L494,55.641L495,54.88L496,55.724L497,55.19L498,55.777L499,55.392L500,54.827L501,53.999L502,54.371L503,53.792L504,53.059L505,53.081L506,52.75L507,52.078L508,51.138L509,51.54L510,51.097L511,49.7L512,49.631L513,48.945L514,47.367L515,47.04L516,46.606L517,45.93L518,44.756L519,44.794L520,44.333L521,44.507L522,45.133L523,44.811L524,43.697L525,43.345L526,42.95L527,42.199L528,42.847L529,42.036L530,41.196L531,40.618L532,39.782L533,39.151L534,39.226L535,39.191L536,38.451L537,38.763L538,37.457L539,36.586L540,35.92L541,35.719L542,35.81L543,34.826L544,35.086L545,34.071L546,34.642L547,34.27L548,34.719L549,34.637L550,33.849L551,32.4L552,32.558L553,31.86L554,32.257L555,31.851L556,31.287L557,31.068L558,30.78L559,30.202L560,29.4L561,29.093L562,27.744L563,27.679L564,28.165L565,27.806L566,27.56L567,27.514L568,26.598L569,26.631L570,26.781L571,25.255L572,25.42L573,26.018L574,25.051L575,24.494L576,23.555L577,23.436L578,22.364L579,22.823L580,22.601L581,21.503L582,20.765L583,20.575L584,20.928L585,19.858L586,19.668L587,19.091L588,18.797L589,18.318L590,17.481L591,17.223L592,17.137L593,16.939L594,16.531L595,16.296L596,16.592L597,15.685L598,14.993L599,14.596L600,14.1" stroke="#f58518" stroke-width="2"/></g></g><path class="foreground" aria-hidden="true" d="" display="none"/></g><g transform="translate(0,0)"><path class="background" aria-hidden="true" d="M0,0h600v400h-600Z"/><g><g class="mark-line role-mark marks" role="graphics-object" aria-roledescription="line mark container"><path aria-label="経過年数 (年): 0; アセットインデックス: 1; パーセンタイル: 90%" role="graphics-symbol" aria-roledescription="line mark" d="M0,261.959L1,257.412L2,255.424L3,253.536L4,253.162L5,250.765L6,249.514L7,248.734L8,247.995L9,246.768L10,245.512L11,244.233L12,242.615L13,242.031L14,241.259L15,240.097L16,238.519L17,238.581L18,236.398L19,235.769L20,235.076L21,233.847L22,232.562L23,231.673L24,231.199L25,230.207L26,229.362L27,227.873L28,226.428L29,226.011L30,225.701L31,224.567L32,223.705L33,223.511L34,221.746L35,221.813L36,220.954L37,220.064L38,217.933L39,217.489L40,216.67L41,215.723L42,215.144L43,214.407L44,213.775L45,213.533L46,212.255L47,211.263L48,210.019L49,210.323L50,209.201L51,209.342L52,208.303L53,207.792L54,207.413L55,207.049L56,206.181L57,204.647L58,203.628L59,203.13L60,203.028L61,201.18L62,201.672L63,201.216L64,200.525L65,199.195L66,199.721L67,199.666L68,199.545L69,199.385L70,197.257L71,197.315L72,197.081L73,195.229L74,195.623L75,192.987L76,192.056L77,192.125L78,190.846L79,189.625L80,189.205L81,187.814L82,187.952L83,187.589L84,186.909L85,185.53L86,185.755L87,185.13L88,183.745L89,183.68L90,183.469L91,183.681L92,183.101L93,183.708L94,181.898L95,182.093L96,180.841L97,181.124L98,180.747L99,180.189L100,179.089L101,179.664L102,178.799L103,178.151L104,177.037L105,177.877L106,175.979L107,175.193L108,176.119L109,175.153L110,175.357L111,174.229L112,173.049L113,172.145L114,171.804L115,170.573L116,170.02L117,168.603L118,168.763L119,169.106L120,169.344L121,168.351L122,167.316L123,166.499L124,165.131L125,163.789L126,163.194L127,163.109L128,161.998L129,161.996L130,161.711L131,162.014L132,162.316L133,162.27L134,160.017L135,159.969L136,159.761L137,159.497L138,159.318L139,159.447L140,158.872L141,158.771L142,158.385L143,157.901L144,156.364L145,155.959L146,154.576L147,154.992L148,155.215L149,154.39L150,153.012L151,151.904L152,150.658L153,150.533L154,150.935L155,150.679L156,150.281L157,151.327L158,150.084L159,148.521L160,148.001L161,147.477L162,147.589L163,145.408L164,145.183L165,146.752L166,144.529L167,145.634L168,144.531L169,143.273L170,143.477L171,144.329L172,143.805L173,142.738L174,142.91L175,142.222L176,142.141L177,141.06L178,141.043L179,140.018L180,141.445L181,139.389L182,138.002L183,137.506L184,136.725L185,135.986L186,135.553L187,136.406L188,135.433L189,136.115L190,135.655L191,136.233L192,134.947L193,134.676L194,132.403L195,131.505L196,131.243L197,131.275L198,130.149L199,128.889L200,129.528L201,128.56L202,126.669L203,126.744L204,127.107L205,126.707L206,126.707L207,125.871L208,126.501L209,125.291L210,125.317L211,125.562L212,126.236L213,124.521L214,124.626L215,123.655L216,123.262L217,121.279L218,120.129L219,119.458L220,119.24L221,118.898L222,119.005L223,118.536L224,117.939L225,117.325L226,115.668L227,115.772L228,115.231L229,114.029L230,113.723L231,112.626L232,112.393L233,112.956L234,111.795L235,110.46L236,110.488L237,109.63L238,107.946L239,107.789L240,107.294L241,107.737L242,108.273L243,108.02L244,107.234L245,106.163L246,105.881L247,105.862L248,105.065L249,104.368L250,103.151L251,104.037L252,103.311L253,103.327L254,101.525L255,100.087L256,99.67L257,98.287L258,98.56L259,98.702L260,98.615L261,98.315L262,97.887L263,97.273L264,97.887L265,97.091L266,97.378L267,96.774L268,96.493L269,93.98L270,95.346L271,93.973L272,94.058L273,93.105L274,93.384L275,93.863L276,94.616L277,92.905L278,94.051L279,93.833L280,92.723L281,91.307L282,91.69L283,90.159L284,89.296L285,89.325L286,87.675L287,87.718L288,86.271L289,86.497L290,86.284L291,85.643L292,84.894L293,86.302L294,86.322L295,86.376L296,85.045L297,85.006L298,84.959L299,83.165L300,83.6L301,83.901L302,85.482L303,83.671L304,81.247L305,82.42L306,80.713L307,80.835L308,80.865L309,80.318L310,80.129L311,80.69L312,80.612L313,80.606L314,79.957L315,79.739L316,77.761L317,78.001L318,77.705L319,77.4L320,76.457L321,77.448L322,75.211L323,76.931L324,76.292L325,76.369L326,76.415L327,75.326L328,74.513L329,74.754L330,73.401L331,73.915L332,72.901L333,72.787L334,73.625L335,73.57L336,72.341L337,73.227L338,72.494L339,69.207L340,69.295L341,67.77L342,67.459L343,68.722L344,68.528L345,66.914L346,66.747L347,67.19L348,66.381L349,64.436L350,64.751L351,65.034L352,63.994L353,63.201L354,64.193L355,64.201L356,63.083L357,64.211L358,63.121L359,63.419L360,62.275L361,61.917L362,62.202L363,61.402L364,60.623L365,59.916L366,58.503L367,58.773L368,59.506L369,59.277L370,58.899L371,59.029L372,59.059L373,58.412L374,56.436L375,56.508L376,55.339L377,54.005L378,54.266L379,52.6L380,54.274L381,54.463L382,52.987L383,53.297L384,51.543L385,51.373L386,49.583L387,50.941L388,51.548L389,51.557L390,49.406L391,49.277L392,49.77L393,47.638L394,48.022L395,47.848L396,48.15L397,48.475L398,47.665L399,47.299L400,47.562L401,45.796L402,45.017L403,43.75L404,44.17L405,43.825L406,43.168L407,42.676L408,40.996L409,41.438L410,41.193L411,42.296L412,42.613L413,40.915L414,40.194L415,40.183L416,40.138L417,38.858L418,38.602L419,38.243L420,38.12L421,36.287L422,36.594L423,35.548L424,34.84L425,35.342L426,33.95L427,35.241L428,34.558L429,34.912L430,34.029L431,33.421L432,33.738L433,32.185L434,33.092L435,33.603L436,33.091L437,32.167L438,32.172L439,31.561L440,30.817L441,30.017L442,30.751L443,29.289L444,30.52L445,28.845L446,28.687L447,28.815L448,27.037L449,27.14L450,28.235L451,28.281L452,28.329L453,27.652L454,27.786L455,28.404L456,28.717L457,27.02L458,27.288L459,26.364L460,24.691L461,24.57L462,24.806L463,24.241L464,24.302L465,22.675L466,21.249L467,22.129L468,21.839L469,20.505L470,21.206L471,20.914L472,19.864L473,20.971L474,20.955L475,20.237L476,20.791L477,20.826L478,19.403L479,20.033L480,18.481L481,19.997L482,18.709L483,17.908L484,17.819L485,18.716L486,17.639L487,16.476L488,16.254L489,17.099L490,17.097L491,16.161L492,16.458L493,14.941L494,15.558L495,15.142L496,14.254L497,14.038L498,13.91L499,13.871L500,13.237L501,13.2L502,13.987L503,11.438L504,11.026L505,9.882L506,11.371L507,12.159L508,12.215L509,10.935L510,11.296L511,10.853L512,9.24L513,8.671L514,8.989L515,8.742L516,9.616L517,9.611L518,9.563L519,9.012L520,7.864L521,7.881L522,7.147L523,6.936L524,8.574L525,6.955L526,7.989L527,7.902L528,6.911L529,7.378L530,8.762L531,8.311L532,7.275L533,6.546L534,6.03L535,4.787L536,4.958L537,4.101L538,4.122L539,3.988L540,4.014L541,3.984L542,5.115L543,5.218L544,4.212L545,4.034L546,4.304L547,3.855L548,2.908L549,3.475L550,3.217L551,2.962L552,3.324L553,3.272L554,2.971L555,3.239L556,2.129L557,1.411L558,2.066L559,1.881L560,0.476L561,1.749L562,1.638L563,1.342L564,1.922L565,2.403L566,1.603L567,2.223L568,1.576L569,0.459L570,0.541L571,1.014L572,1.274L573,2.043L574,1.553L575,1.337L576,2.317L577,1.153L578,2.137L579,1.08L580,1.205L581,1.128L582,0.825L583,0.873L584,1.013L585,0L586,0.695L587,0.767L588,0.996L589,0.353L590,0.473L591,1.053L592,0.478L593,1.147L594,0.956L595,1.33L596,1.916L597,0.948L598,1.176L599,1.315L600,1.391" stroke="#e45756" stroke-width="2"/></g></g><path class="foreground" aria-hidden="true" d="" display="none"/></g></g><g class="mark-group role-legend" role="graphics-symbol" aria-roledescription="legend" aria-label="Symbol legend titled 'パーセンタイル' for stroke color with 3 values: 10%, 50%, 90%"><g transform="translate(620,0)"><path class="background" aria-hidden="true" d="M0,0h77v53h-77Z" pointer-events="none"/><g><g class="mark-group role-legend-entry"><g transform="translate(0,16)"><path class="background" aria-hidden="true" d="M0,0h0v0h0Z" pointer-events="none"/><g><g class="mark-group role-scope" role="graphics-object" aria-roledescription="group mark container"><g transform="translate(0,0)"><path class="background" aria-hidden="true" d="M0,0h36.0146484375v11h-36.0146484375Z" pointer-events="none" opacity="1"/><g><g class="mark-symbol role-legend-symbol" pointer-events="none"><path transform="translate(6,6)" d="M-5,0L5,0" stroke="#4c78a8" stroke-width="1.5" opacity="1"/></g><g class="mark-text role-legend-label" pointer-events="none"><text text-anchor="start" transform="translate(16,9)" font-family="sans-serif" font-size="10px" fill="#000" opacity="1">10%</text></g></g><path class="foreground" aria-hidden="true" d="" pointer-events="none" display="none"/></g><g transform="translate(0,13)"><path class="background" aria-hidden="true" d="M0,0h36.0146484375v11h-36.0146484375Z" pointer-events="none" opacity="1"/><g><g class="mark-symbol role-legend-symbol" pointer-events="none"><path transform="translate(6,6)" d="M-5,0L5,0" stroke="#f58518" stroke-width="1.5" opacity="1"/></g><g class="mark-text role-legend-label" pointer-events="none"><text text-anchor="start" transform="translate(16,9)" font-family="sans-serif" font-size="10px" fill="#000" opacity="1">50%</text></g></g><path class="foreground" aria-hidden="true" d="" pointer-events="none" display="none"/></g><g transform="translate(0,26)"><path class="background" aria-hidden="true" d="M0,0h36.0146484375v11h-36.0146484375Z" pointer-events="none" opacity="1"/><g><g class="mark-symbol role-legend-symbol" pointer-events="none"><path transform="translate(6,6)" d="M-5,0L5,0" stroke="#e45756" stroke-width="1.5" opacity="1"/></g><g class="mark-text role-legend-label" pointer-events="none"><text text-anchor="start" transform="translate(16,9)" font-family="sans-serif" font-size="10px" fill="#000" opacity="1">90%</text></g></g><path class="foreground" aria-hidden="true" d="" pointer-events="none" display="none"/></g></g></g><path class="foreground" aria-hidden="true" d="" pointer-events="none" display="none"/></g></g><g class="mark-text role-legend-title" pointer-events="none"><text text-anchor="start" transform="translate(0,9)" font-family="sans-serif" font-size="11px" font-weight="bold" fill="#000" opacity="1">パーセンタイル</text></g></g><path class="foreground" aria-hidden="true" d="" pointer-events="none" display="none"/></g></g><g class="mark-group role-title"><g transform="translate(300,-19)"><path class="background" aria-hidden="true" d="M0,0h0v0h0Z" pointer-events="none"/><g><g class="mark-text role-title-text" role="graphics-symbol" aria-roledescription="title" aria-label="Title text '中央値パスで成功した人のアセットパーセンタイル推移'" pointer-events="none"><text text-anchor="middle" transform="translate(0,10)" font-family="sans-serif" font-size="13px" font-weight="bold" fill="#000" opacity="1">中央値パスで成功した人のアセットパーセンタイル推移</text></g></g><path class="foreground" aria-hidden="true" d="" pointer-events="none" display="none"/></g></g></g><path class="foreground" aria-hidden="true" d="" display="none"/></g></g></g></svg>