<svg xmlns="http://www.w3.org/2000/svg" xmlns:xlink="http://www.w3.org/1999/xlink" version="1.1" class="marks" width="737" height="314" viewBox="0 0 737 314"><rect width="737" height="314" fill="white"/><g fill="none" stroke-miterlimit="10" transform="translate(44,27)"><g class="mark-group role-frame root" role="graphics-object" aria-roledescription="group mark container"><g transform="translate(0,0)"><path class="background" aria-hidden="true" d="M0.5,0.5h600v250h-600Z" stroke="#ddd"/><g><g class="mark-group role-axis" aria-hidden="true"><g transform="translate(0.5,250.5)"><path class="background" aria-hidden="true" d="M0,0h0v0h0Z" pointer-events="none"/><g><g class="mark-rule role-axis-grid" pointer-events="none"><line transform="translate(0,-250)" x2="0" y2="250" stroke="#ddd" stroke-width="1" opacity="1"/><line transform="translate(60,-250)" x2="0" y2="250" stroke="#ddd" stroke-width="1" opacity="1"/><line transform="translate(120,-250)" x2="0" y2="250" stroke="#ddd" stroke-width="1" opacity="1"/><line transform="translate(180,-250)" x2="0" y2="250" stroke="#ddd" stroke-width="1" opacity="1"/><line transform="translate(240,-250)" x2="0" y2="250" stroke="#ddd" stroke-width="1" opacity="1"/><line transform="translate(300,-250)" x2="0" y2="250" stroke="#ddd" stroke-width="1" opacity="1"/><line transform="translate(360,-250)" x2="0" y2="250" stroke="#ddd" stroke-width="1" opacity="1"/><line transform="translate(420,-250)" x2="0" y2="250" stroke="#ddd" stroke-width="1" opacity="1"/><line transform="translate(480,-250)" x2="0" y2="250" stroke="#ddd" stroke-width="1" opacity="1"/><line transform="translate(540,-250)" x2="0" y2="250" stroke="#ddd" stroke-width="1" opacity="1"/><line transform="translate(600,-250)" x2="0" y2="250" stroke="#ddd" stroke-width="1" opacity="1"/></g></g><path class="foreground" aria-hidden="true" d="" pointer-events="none" display="none"/></g></g><g class="mark-group role-axis" aria-hidden="true"><g transform="translate(0.5,0.5)"><path class="background" aria-hidden="true" d="M0,0h0v0h0Z" pointer-events="none"/><g><g class="mark-rule role-axis-grid" pointer-events="none"><line transform="translate(0,250)" x2="600" y2="0" stroke="#ddd" stroke-width="1" opacity="1"/><line transform="translate(0,200)" x2="600" y2="0" stroke="#ddd" stroke-width="1" opacity="1"/><line transform="translate(0,150)" x2="600" y2="0" stroke="#ddd" stroke-width="1" opacity="1"/><line transform="translate(0,100)" x2="600" y2="0" stroke="#ddd" stroke-width="1" opacity="1"/><line transform="translate(0,50)" x2="600" y2="0" stroke="#ddd" stroke-width="1" opacity="1"/><line transform="translate(0,0)" x2="600" y2="0" stroke="#ddd" stroke-width="1" opacity="1"/></g></g><path class="foreground" aria-hidden="true" d="" pointer-events="none" display="none"/></g></g><g class="mark-group role-axis" role="graphics-symbol" aria-roledescription="axis" aria-label="X-axis titled '経過年数 (年)' for a linear scale with values from 0 to 50"><g transform="translate(0.5,250.5)"><path class="background" aria-hidden="true" d="M0,0h0v0h0Z" pointer-events="none"/><g><g class="mark-rule role-axis-tick" pointer-events="none"><line transform="translate(0,0)" x2="0" y2="5" stroke="#888" stroke-width="1" opacity="1"/><line transform="translate(60,0)" x2="0" y2="5" stroke="#888" stroke-width="1" opacity="1"/><line transform="translate(120,0)" x2="0" y2="5" stroke="#888" stroke-width="1" opacity="1"/><line transform="translate(180,0)" x2="0" y2="5" stroke="#888" stroke-width="1" opacity="1"/><line transform="translate(240,0)" x2="0" y2="5" stroke="#888" stroke-width="1" opacity="1"/><line transform="translate(300,0)" x2="0" y2="5" stroke="#888" stroke-width="1" opacity="1"/><line transform="translate(360,0)" x2="0" y2="5" stroke="#888" stroke-width="1" opacity="1"/><line transform="translate(420,0)" x2="0" y2="5" stroke="#888" stroke-width="1" opacity="1"/><line transform="translate(480,0)" x2="0" y2="5" stroke="#888" stroke-width="1" opacity="1"/><line transform="translate(540,0)" x2="0" y2="5" stroke="#888" stroke-width="1" opacity="1"/><line transform="translate(600,0)" x2="0" y2="5" stroke="#888" stroke-width="1" opacity="1"/></g><g class="mark-text role-axis-label" pointer-events="none"><text text-anchor="start" transform="translate(0,15)" font-family="sans-serif" font-size="10px" fill="#000" opacity="1">0</text><text text-anchor="middle" transform="translate(60,15)" font-family="sans-serif" font-size="10px" fill="#000" opacity="1">5</text><text text-anchor="middle" transform="translate(120,15)" font-family="sans-serif" font-size="10px" fill="#000" opacity="1">10</text><text text-anchor="middle" transform="translate(180,15)" font-family="sans-serif" font-size="10px" fill="#000" opacity="1">15</text><text text-anchor="middle" transform="translate(240,15)" font-family="sans-serif" font-size="10px" fill="#000" opacity="1">20</text><text text-anchor="middle" transform="translate(300,15)" font-family="sans-serif" font-size="10px" fill="#000" opacity="1">25</text><text text-anchor="middle" transform="translate(360,15)" font-family="sans-serif" font-size="10px" fill="#000" opacity="1">30</text><text text-anchor="middle" transform="translate(420,15)" font-family="sans-serif" font-size="10px" fill="#000" opacity="1">35</text><text text-anchor="middle" transform="translate(480,15)" font-family="sans-serif" font-size="10px" fill="#000" opacity="1">40</text><text text-anchor="middle" transform="translate(540,15)" font-family="sans-serif" font-size="10px" fill="#000" opacity="1">45</text><text text-anchor="end" transform="translate(600,15)" font-family="sans-serif" font-size="10px" fill="#000" opacity="1">50</text></g><g class="mark-rule role-axis-domain" pointer-events="none"><line transform="translate(0,0)" x2="600" y2="0" stroke="#888" stroke-width="1" opacity="1"/></g><g class="mark-text role-axis-title" pointer-events="none"><text text-anchor="middle" transform="translate(300,30)" font-family="sans-serif" font-size="11px" font-weight="bold" fill="#000" opacity="1">経過年数 (年)</text></g></g><path class="foreground" aria-hidden="true" d="" pointer-events="none" display="none"/></g></g><g class="mark-group role-axis" role="graphics-symbol" aria-roledescription="axis" aria-label="Y-axis titled '生存確率 (%)' for a linear scale with values from 0 to 100"><g transform="translate(0.5,0.5)"><path class="background" aria-hidden="true" d="M0,0h0v0h0Z" pointer-events="none"/><g><g class="mark-rule role-axis-tick" pointer-events="none"><line transform="translate(0,250)" x2="-5" y2="0" stroke="#888" stroke-width="1" opacity="1"/><line transform="translate(0,200)" x2="-5" y2="0" stroke="#888" stroke-width="1" opacity="1"/><line transform="translate(0,150)" x2="-5" y2="0" stroke="#888" stroke-width="1" opacity="1"/><line transform="translate(0,100)" x2="-5" y2="0" stroke="#888" stroke-width="1" opacity="1"/><line transform="translate(0,50)" x2="-5" y2="0" stroke="#888" stroke-width="1" opacity="1"/><line transform="translate(0,0)" x2="-5" y2="0" stroke="#888" stroke-width="1" opacity="1"/></g><g class="mark-text role-axis-label" pointer-events="none"><text text-anchor="end" transform="translate(-7,253)" font-family="sans-serif" font-size="10px" fill="#000" opacity="1">0</text><text text-anchor="end" transform="translate(-7,203)" font-family="sans-serif" font-size="10px" fill="#000" opacity="1">20</text><text text-anchor="end" transform="translate(-7,153)" font-family="sans-serif" font-size="10px" fill="#000" opacity="1">40</text><text text-anchor="end" transform="translate(-7,103)" font-family="sans-serif" font-size="10px" fill="#000" opacity="1">60</text><text text-anchor="end" transform="translate(-7,52.999999999999986)" font-family="sans-serif" font-size="10px" fill="#000" opacity="1">80</text><text text-anchor="end" transform="translate(-7,3)" font-family="sans-serif" font-size="10px" fill="#000" opacity="1">100</text></g><g class="mark-rule role-axis-domain" pointer-events="none"><line transform="translate(0,250)" x2="0" y2="-250" stroke="#888" stroke-width="1" opacity="1"/></g><g class="mark-text role-axis-title" pointer-events="none"><text text-anchor="middle" transform="translate(-27.6845703125,125) rotate(-90) translate(0,-2)" font-family="sans-serif" font-size="11px" font-weight="bold" fill="#000" opacity="1">生存確率 (%)</text></g></g><path class="foreground" aria-hidden="true" d="" pointer-events="none" display="none"/></g></g><g class="mark-group role-scope layer_0_pathgroup" role="graphics-object" aria-roledescription="group mark container"><g transform="translate(0,0)"><path class="background" aria-hidden="true" d="M0,0h600v250h-600Z"/><g><g class="mark-line role-mark layer_0_marks" clip-path="url(#clip1)" role="graphics-object" aria-roledescription="line mark container"><path aria-label="経過年数 (年): 0; 生存確率 (%): 100; Strategy: 7% 15% 4M; Year: 0; Survival Probability (%): 100.0" role="graphics-symbol" aria-roledescription="line mark" d="M0,0L12,0L24,0L36,0L48,0L60,0L72,0L84,0L96,0L108,0L120,0L132,0L144,0L156,0.1L168,0.4L180,0.55L192,1.05L204,1.3L216,1.65L228,2.15L240,3.4L252,4.65L264,5.85L276,7.85L288,9.05L300,11L312,12.75L324,14.05L336,15.55L348,16.85L360,18.3L372,19.95L384,21.95L396,23.5L408,25.05L420,26.85L432,28.55L444,29.9L456,31.2L468,32.75L480,34L492,35.35L504,36.5L516,37.15L528,38.2L540,39.55L552,40.55L564,41.75L576,42.2L588,43.1L600,43.75" stroke="#4c78a8" stroke-width="2"/></g></g><path class="foreground" aria-hidden="true" d="" display="none"/></g></g><g class="mark-symbol role-mark layer_1_marks" clip-path="url(#clip2)" role="graphics-object" aria-roledescription="symbol mark container"><path aria-label="経過年数 (年): 0; 生存確率 (%): 100; Strategy: 7% 15% 4M; Year: 0; Survival Probability (%): 100.0" role="graphics-symbol" aria-roledescription="point" transform="translate(0,0)" d="M2.739,0A2.739,2.739,0,1,1,-2.739,0A2.739,2.739,0,1,1,2.739,0" fill="#4c78a8" stroke-width="2" opacity="1"/><path aria-label="経過年数 (年): 1; 生存確率 (%): 100; Strategy: 7% 15% 4M; Year: 1; Survival Probability (%): 100.0" role="graphics-symbol" aria-roledescription="point" transform="translate(12,0)" d="M2.739,0A2.739,2.739,0,1,1,-2.739,0A2.739,2.739,0,1,1,2.739,0" fill="#4c78a8" stroke-width="2" opacity="1"/><path aria-label="経過年数 (年): 2; 生存確率 (%): 100; Strategy: 7% 15% 4M; Year: 2; Survival Probability (%): 100.0" role="graphics-symbol" aria-roledescription="point" transform="translate(24,0)" d="M2.739,0A2.739,2.739,0,1,1,-2.739,0A2.739,2.739,0,1,1,2.739,0" fill="#4c78a8" stroke-width="2" opacity="1"/><path aria-label="経過年数 (年): 3; 生存確率 (%): 100; Strategy: 7% 15% 4M; Year: 3; Survival Probability (%): 100.0" role="graphics-symbol" aria-roledescription="point" transform="translate(36,0)" d="M2.739,0A2.739,2.739,0,1,1,-2.739,0A2.739,2.739,0,1,1,2.739,0" fill="#4c78a8" stroke-width="2" opacity="1"/><path aria-label="経過年数 (年): 4; 生存確率 (%): 100; Strategy: 7% 15% 4M; Year: 4; Survival Probability (%): 100.0" role="graphics-symbol" aria-roledescription="point" transform="translate(48,0)" d="M2.739,0A2.739,2.739,0,1,1,-2.739,0A2.739,2.739,0,1,1,2.739,0" fill="#4c78a8" stroke-width="2" opacity="1"/><path aria-label="経過年数 (年): 5; 生存確率 (%): 100; Strategy: 7% 15% 4M; Year: 5; Survival Probability (%): 100.0" role="graphics-symbol" aria-roledescription="point" transform="translate(60,0)" d="M2.739,0A2.739,2.739,0,1,1,-2.739,0A2.739,2.739,0,1,1,2.739,0" fill="#4c78a8" stroke-width="2" opacity="1"/><path aria-label="経過年数 (年): 6; 生存確率 (%): 100; Strategy: 7% 15% 4M; Year: 6; Survival Probability (%): 100.0" role="graphics-symbol" aria-roledescription="point" transform="translate(72,0)" d="M2.739,0A2.739,2.739,0,1,1,-2.739,0A2.739,2.739,0,1,1,2.739,0" fill="#4c78a8" stroke-width="2" opacity="1"/><path aria-label="経過年数 (年): 7; 生存確率 (%): 100; Strategy: 7% 15% 4M; Year: 7; Survival Probability (%): 100.0" role="graphics-symbol" aria-roledescription="point" transform="translate(84.00000000000001,0)" d="M2.739,0A2.739,2.739,0,1,1,-2.739,0A2.739,2.739,0,1,1,2.739,0" fill="#4c78a8" stroke-width="2" opacity="1"/><path aria-label="経過年数 (年): 8; 生存確率 (%): 100; Strategy: 7% 15% 4M; Year: 8; Survival Probability (%): 100.0" role="graphics-symbol" aria-roledescription="point" transform="translate(96,0)" d="M2.739,0A2.739,2.739,0,1,1,-2.739,0A2.739,2.739,0,1,1,2.739,0" fill="#4c78a8" stroke-width="2" opacity="1"/><path aria-label="経過年数 (年): 9; 生存確率 (%): 100; Strategy: 7% 15% 4M; Year: 9; Survival Probability (%): 100.0" role="graphics-symbol" aria-roledescription="point" transform="translate(108,0)" d="M2.739,0A2.739,2.739,0,1,1,-2.739,0A2.739,2.739,0,1,1,2.739,0" fill="#4c78a8" stroke-width="2" opacity="1"/><path aria-label="経過年数 (年): 10; 生存確率 (%): 100; Strategy: 7% 15% 4M; Year: 10; Survival Probability (%): 100.0" role="graphics-symbol" aria-roledescription="point" transform="translate(120,0)" d="M2.739,0A2.739,2.739,0,1,1,-2.739,0A2.739,2.739,0,1,1,2.739,0" fill="#4c78a8" stroke-width="2" opacity="1"/><path aria-label="経過年数 (年): 11; 生存確率 (%): 100; Strategy: 7% 15% 4M; Year: 11; Survival Probability (%): 100.0" role="graphics-symbol" aria-roledescription="point" transform="translate(132,0)" d="M2.739,0A2.739,2.739,0,1,1,-2.739,0A2.739,2.739,0,1,1,2.739,0" fill="#4c78a8" stroke-width="2" opacity="1"/><path aria-label="経過年数 (年): 12; 生存確率 (%): 100; Strategy: 7% 15% 4M; Year: 12; Survival Probability (%): 100.0" role="graphics-symbol" aria-roledescription="point" transform="translate(144,0)" d="M2.739,0A2.739,2.739,0,1,1,-2.739,0A2.739,2.739,0,1,1,2.739,0" fill="#4c78a8" stroke-width="2" opacity="1"/><path aria-label="経過年数 (年): 13; 生存確率 (%): 99.96; Strategy: 7% 15% 4M; Year: 13; Survival Probability (%): 100.0" role="graphics-symbol" aria-roledescription="point" transform="translate(156,0.09999999999998899)" d="M2.739,0A2.739,2.739,0,1,1,-2.739,0A2.739,2.739,0,1,1,2.739,0" fill="#4c78a8" stroke-width="2" opacity="1"/><path aria-label="経過年数 (年): 14; 生存確率 (%): 99.84; Strategy: 7% 15% 4M; Year: 14; Survival Probability (%): 99.8" role="graphics-symbol" aria-roledescription="point" transform="translate(168.00000000000003,0.4000000000000392)" d="M2.739,0A2.739,2.739,0,1,1,-2.739,0A2.739,2.739,0,1,1,2.739,0" fill="#4c78a8" stroke-width="2" opacity="1"/><path aria-label="経過年数 (年): 15; 生存確率 (%): 99.78; Strategy: 7% 15% 4M; Year: 15; Survival Probability (%): 99.8" role="graphics-symbol" aria-roledescription="point" transform="translate(180,0.5499999999999949)" d="M2.739,0A2.739,2.739,0,1,1,-2.739,0A2.739,2.739,0,1,1,2.739,0" fill="#4c78a8" stroke-width="2" opacity="1"/><path aria-label="経過年数 (年): 16; 生存確率 (%): 99.58; Strategy: 7% 15% 4M; Year: 16; Survival Probability (%): 99.6" role="graphics-symbol" aria-roledescription="point" transform="translate(192,1.0499999999999954)" d="M2.739,0A2.739,2.739,0,1,1,-2.739,0A2.739,2.739,0,1,1,2.739,0" fill="#4c78a8" stroke-width="2" opacity="1"/><path aria-label="経過年数 (年): 17; 生存確率 (%): 99.48; Strategy: 7% 15% 4M; Year: 17; Survival Probability (%): 99.5" role="graphics-symbol" aria-roledescription="point" transform="translate(204.00000000000003,1.2999999999999956)" d="M2.739,0A2.739,2.739,0,1,1,-2.739,0A2.739,2.739,0,1,1,2.739,0" fill="#4c78a8" stroke-width="2" opacity="1"/><path aria-label="経過年数 (年): 18; 生存確率 (%): 99.34; Strategy: 7% 15% 4M; Year: 18; Survival Probability (%): 99.3" role="graphics-symbol" aria-roledescription="point" transform="translate(216,1.6500000000000403)" d="M2.739,0A2.739,2.739,0,1,1,-2.739,0A2.739,2.739,0,1,1,2.739,0" fill="#4c78a8" stroke-width="2" opacity="1"/><path aria-label="経過年数 (年): 19; 生存確率 (%): 99.14; Strategy: 7% 15% 4M; Year: 19; Survival Probability (%): 99.1" role="graphics-symbol" aria-roledescription="point" transform="translate(228,2.1499999999999853)" d="M2.739,0A2.739,2.739,0,1,1,-2.739,0A2.739,2.739,0,1,1,2.739,0" fill="#4c78a8" stroke-width="2" opacity="1"/><path aria-label="経過年数 (年): 20; 生存確率 (%): 98.64; Strategy: 7% 15% 4M; Year: 20; Survival Probability (%): 98.6" role="graphics-symbol" aria-roledescription="point" transform="translate(240,3.399999999999986)" d="M2.739,0A2.739,2.739,0,1,1,-2.739,0A2.739,2.739,0,1,1,2.739,0" fill="#4c78a8" stroke-width="2" opacity="1"/><path aria-label="経過年数 (年): 21; 生存確率 (%): 98.14; Strategy: 7% 15% 4M; Year: 21; Survival Probability (%): 98.1" role="graphics-symbol" aria-roledescription="point" transform="translate(252,4.649999999999988)" d="M2.739,0A2.739,2.739,0,1,1,-2.739,0A2.739,2.739,0,1,1,2.739,0" fill="#4c78a8" stroke-width="2" opacity="1"/><path aria-label="経過年数 (年): 22; 生存確率 (%): 97.66; Strategy: 7% 15% 4M; Year: 22; Survival Probability (%): 97.7" role="graphics-symbol" aria-roledescription="point" transform="translate(264,5.850000000000022)" d="M2.739,0A2.739,2.739,0,1,1,-2.739,0A2.739,2.739,0,1,1,2.739,0" fill="#4c78a8" stroke-width="2" opacity="1"/><path aria-label="経過年数 (年): 23; 生存確率 (%): 96.86; Strategy: 7% 15% 4M; Year: 23; Survival Probability (%): 96.9" role="graphics-symbol" aria-roledescription="point" transform="translate(276,7.849999999999996)" d="M2.739,0A2.739,2.739,0,1,1,-2.739,0A2.739,2.739,0,1,1,2.739,0" fill="#4c78a8" stroke-width="2" opacity="1"/><path aria-label="経過年数 (年): 24; 生存確率 (%): 96.38; Strategy: 7% 15% 4M; Year: 24; Survival Probability (%): 96.4" role="graphics-symbol" aria-roledescription="point" transform="translate(288,9.050000000000002)" d="M2.739,0A2.739,2.739,0,1,1,-2.739,0A2.739,2.739,0,1,1,2.739,0" fill="#4c78a8" stroke-width="2" opacity="1"/><path aria-label="経過年数 (年): 25; 生存確率 (%): 95.6; Strategy: 7% 15% 4M; Year: 25; Survival Probability (%): 95.6" role="graphics-symbol" aria-roledescription="point" transform="translate(300,11.00000000000001)" d="M2.739,0A2.739,2.739,0,1,1,-2.739,0A2.739,2.739,0,1,1,2.739,0" fill="#4c78a8" stroke-width="2" opacity="1"/><path aria-label="経過年数 (年): 26; 生存確率 (%): 94.9; Strategy: 7% 15% 4M; Year: 26; Survival Probability (%): 94.9" role="graphics-symbol" aria-roledescription="point" transform="translate(312,12.75000000000001)" d="M2.739,0A2.739,2.739,0,1,1,-2.739,0A2.739,2.739,0,1,1,2.739,0" fill="#4c78a8" stroke-width="2" opacity="1"/><path aria-label="経過年数 (年): 27; 生存確率 (%): 94.38; Strategy: 7% 15% 4M; Year: 27; Survival Probability (%): 94.4" role="graphics-symbol" aria-roledescription="point" transform="translate(324,14.050000000000008)" d="M2.739,0A2.739,2.739,0,1,1,-2.739,0A2.739,2.739,0,1,1,2.739,0" fill="#4c78a8" stroke-width="2" opacity="1"/><path aria-label="経過年数 (年): 28; 生存確率 (%): 93.78; Strategy: 7% 15% 4M; Year: 28; Survival Probability (%): 93.8" role="graphics-symbol" aria-roledescription="point" transform="translate(336.00000000000006,15.550000000000008)" d="M2.739,0A2.739,2.739,0,1,1,-2.739,0A2.739,2.739,0,1,1,2.739,0" fill="#4c78a8" stroke-width="2" opacity="1"/><path aria-label="経過年数 (年): 29; 生存確率 (%): 93.26; Strategy: 7% 15% 4M; Year: 29; Survival Probability (%): 93.3" role="graphics-symbol" aria-roledescription="point" transform="translate(348,16.849999999999977)" d="M2.739,0A2.739,2.739,0,1,1,-2.739,0A2.739,2.739,0,1,1,2.739,0" fill="#4c78a8" stroke-width="2" opacity="1"/><path aria-label="経過年数 (年): 30; 生存確率 (%): 92.68; Strategy: 7% 15% 4M; Year: 30; Survival Probability (%): 92.7" role="graphics-symbol" aria-roledescription="point" transform="translate(360,18.30000000000001)" d="M2.739,0A2.739,2.739,0,1,1,-2.739,0A2.739,2.739,0,1,1,2.739,0" fill="#4c78a8" stroke-width="2" opacity="1"/><path aria-label="経過年数 (年): 31; 生存確率 (%): 92.02; Strategy: 7% 15% 4M; Year: 31; Survival Probability (%): 92.0" role="graphics-symbol" aria-roledescription="point" transform="translate(372,19.950000000000024)" d="M2.739,0A2.739,2.739,0,1,1,-2.739,0A2.739,2.739,0,1,1,2.739,0" fill="#4c78a8" stroke-width="2" opacity="1"/><path aria-label="経過年数 (年): 32; 生存確率 (%): 91.22; Strategy: 7% 15% 4M; Year: 32; Survival Probability (%): 91.2" role="graphics-symbol" aria-roledescription="point" transform="translate(384,21.949999999999996)" d="M2.739,0A2.739,2.739,0,1,1,-2.739,0A2.739,2.739,0,1,1,2.739,0" fill="#4c78a8" stroke-width="2" opacity="1"/><path aria-label="経過年数 (年): 33; 生存確率 (%): 90.6; Strategy: 7% 15% 4M; Year: 33; Survival Probability (%): 90.6" role="graphics-symbol" aria-roledescription="point" transform="translate(396,23.499999999999964)" d="M2.739,0A2.739,2.739,0,1,1,-2.739,0A2.739,2.739,0,1,1,2.739,0" fill="#4c78a8" stroke-width="2" opacity="1"/><path aria-label="経過年数 (年): 34; 生存確率 (%): 89.98; Strategy: 7% 15% 4M; Year: 34; Survival Probability (%): 90.0" role="graphics-symbol" aria-roledescription="point" transform="translate(408.00000000000006,25.04999999999999)" d="M2.739,0A2.739,2.739,0,1,1,-2.739,0A2.739,2.739,0,1,1,2.739,0" fill="#4c78a8" stroke-width="2" opacity="1"/><path aria-label="経過年数 (年): 35; 生存確率 (%): 89.26; Strategy: 7% 15% 4M; Year: 35; Survival Probability (%): 89.3" role="graphics-symbol" aria-roledescription="point" transform="translate(420,26.850000000000012)" d="M2.739,0A2.739,2.739,0,1,1,-2.739,0A2.739,2.739,0,1,1,2.739,0" fill="#4c78a8" stroke-width="2" opacity="1"/><path aria-label="経過年数 (年): 36; 生存確率 (%): 88.58; Strategy: 7% 15% 4M; Year: 36; Survival Probability (%): 88.6" role="graphics-symbol" aria-roledescription="point" transform="translate(432,28.549999999999994)" d="M2.739,0A2.739,2.739,0,1,1,-2.739,0A2.739,2.739,0,1,1,2.739,0" fill="#4c78a8" stroke-width="2" opacity="1"/><path aria-label="経過年数 (年): 37; 生存確率 (%): 88.04; Strategy: 7% 15% 4M; Year: 37; Survival Probability (%): 88.0" role="graphics-symbol" aria-roledescription="point" transform="translate(444,29.90000000000001)" d="M2.739,0A2.739,2.739,0,1,1,-2.739,0A2.739,2.739,0,1,1,2.739,0" fill="#4c78a8" stroke-width="2" opacity="1"/><path aria-label="経過年数 (年): 38; 生存確率 (%): 87.52; Strategy: 7% 15% 4M; Year: 38; Survival Probability (%): 87.5" role="graphics-symbol" aria-roledescription="point" transform="translate(456,31.200000000000006)" d="M2.739,0A2.739,2.739,0,1,1,-2.739,0A2.739,2.739,0,1,1,2.739,0" fill="#4c78a8" stroke-width="2" opacity="1"/><path aria-label="経過年数 (年): 39; 生存確率 (%): 86.9; Strategy: 7% 15% 4M; Year: 39; Survival Probability (%): 86.9" role="graphics-symbol" aria-roledescription="point" transform="translate(468,32.74999999999997)" d="M2.739,0A2.739,2.739,0,1,1,-2.739,0A2.739,2.739,0,1,1,2.739,0" fill="#4c78a8" stroke-width="2" opacity="1"/><path aria-label="経過年数 (年): 40; 生存確率 (%): 86.4; Strategy: 7% 15% 4M; Year: 40; Survival Probability (%): 86.4" role="graphics-symbol" aria-roledescription="point" transform="translate(480,33.99999999999997)" d="M2.739,0A2.739,2.739,0,1,1,-2.739,0A2.739,2.739,0,1,1,2.739,0" fill="#4c78a8" stroke-width="2" opacity="1"/><path aria-label="経過年数 (年): 41; 生存確率 (%): 85.86; Strategy: 7% 15% 4M; Year: 41; Survival Probability (%): 85.9" role="graphics-symbol" aria-roledescription="point" transform="translate(491.99999999999994,35.349999999999994)" d="M2.739,0A2.739,2.739,0,1,1,-2.739,0A2.739,2.739,0,1,1,2.739,0" fill="#4c78a8" stroke-width="2" opacity="1"/><path aria-label="経過年数 (年): 42; 生存確率 (%): 85.4; Strategy: 7% 15% 4M; Year: 42; Survival Probability (%): 85.4" role="graphics-symbol" aria-roledescription="point" transform="translate(504,36.500000000000036)" d="M2.739,0A2.739,2.739,0,1,1,-2.739,0A2.739,2.739,0,1,1,2.739,0" fill="#4c78a8" stroke-width="2" opacity="1"/><path aria-label="経過年数 (年): 43; 生存確率 (%): 85.14; Strategy: 7% 15% 4M; Year: 43; Survival Probability (%): 85.1" role="graphics-symbol" aria-roledescription="point" transform="translate(516,37.14999999999999)" d="M2.739,0A2.739,2.739,0,1,1,-2.739,0A2.739,2.739,0,1,1,2.739,0" fill="#4c78a8" stroke-width="2" opacity="1"/><path aria-label="経過年数 (年): 44; 生存確率 (%): 84.72; Strategy: 7% 15% 4M; Year: 44; Survival Probability (%): 84.7" role="graphics-symbol" aria-roledescription="point" transform="translate(528,38.20000000000001)" d="M2.739,0A2.739,2.739,0,1,1,-2.739,0A2.739,2.739,0,1,1,2.739,0" fill="#4c78a8" stroke-width="2" opacity="1"/><path aria-label="経過年数 (年): 45; 生存確率 (%): 84.18; Strategy: 7% 15% 4M; Year: 45; Survival Probability (%): 84.2" role="graphics-symbol" aria-roledescription="point" transform="translate(540,39.55000000000003)" d="M2.739,0A2.739,2.739,0,1,1,-2.739,0A2.739,2.739,0,1,1,2.739,0" fill="#4c78a8" stroke-width="2" opacity="1"/><path aria-label="経過年数 (年): 46; 生存確率 (%): 83.78; Strategy: 7% 15% 4M; Year: 46; Survival Probability (%): 83.8" role="graphics-symbol" aria-roledescription="point" transform="translate(552,40.550000000000004)" d="M2.739,0A2.739,2.739,0,1,1,-2.739,0A2.739,2.739,0,1,1,2.739,0" fill="#4c78a8" stroke-width="2" opacity="1"/><path aria-label="経過年数 (年): 47; 生存確率 (%): 83.3; Strategy: 7% 15% 4M; Year: 47; Survival Probability (%): 83.3" role="graphics-symbol" aria-roledescription="point" transform="translate(564,41.75000000000001)" d="M2.739,0A2.739,2.739,0,1,1,-2.739,0A2.739,2.739,0,1,1,2.739,0" fill="#4c78a8" stroke-width="2" opacity="1"/><path aria-label="経過年数 (年): 48; 生存確率 (%): 83.12; Strategy: 7% 15% 4M; Year: 48; Survival Probability (%): 83.1" role="graphics-symbol" aria-roledescription="point" transform="translate(576,42.19999999999999)" d="M2.739,0A2.739,2.739,0,1,1,-2.739,0A2.739,2.739,0,1,1,2.739,0" fill="#4c78a8" stroke-width="2" opacity="1"/><path aria-label="経過年数 (年): 49; 生存確率 (%): 82.76; Strategy: 7% 15% 4M; Year: 49; Survival Probability (%): 82.8" role="graphics-symbol" aria-roledescription="point" transform="translate(588,43.1)" d="M2.739,0A2.739,2.739,0,1,1,-2.739,0A2.739,2.739,0,1,1,2.739,0" fill="#4c78a8" stroke-width="2" opacity="1"/><path aria-label="経過年数 (年): 50; 生存確率 (%): 82.5; Strategy: 7% 15% 4M; Year: 50; Survival Probability (%): 82.5" role="graphics-symbol" aria-roledescription="point" transform="translate(600,43.750000000000014)" d="M2.739,0A2.739,2.739,0,1,1,-2.739,0A2.739,2.739,0,1,1,2.739,0" fill="#4c78a8" stroke-width="2" opacity="1"/></g><g class="mark-group role-legend" role="graphics-symbol" aria-roledescription="legend" aria-label="Symbol legend titled '戦略' for fill color and stroke color with 1 value: 7% 15% 4M"><g transform="translate(618,0)"><path class="background" aria-hidden="true" d="M0,0h70v29h-70Z" pointer-events="none"/><g><g class="mark-group role-legend-entry"><g transform="translate(0,16)"><path class="background" aria-hidden="true" d="M0,0h0v0h0Z" pointer-events="none"/><g><g class="mark-group role-scope" role="graphics-object" aria-roledescription="group mark container"><g transform="translate(0,0)"><path class="background" aria-hidden="true" d="M0,0h69.916015625v12.5h-69.916015625Z" pointer-events="none" opacity="1"/><g><g class="mark-symbol role-legend-symbol" pointer-events="none"><path transform="translate(6,6)" d="M5,0A5,5,0,1,1,-5,0A5,5,0,1,1,5,0" fill="#4c78a8" stroke="#4c78a8" stroke-width="1.5" opacity="1"/></g><g class="mark-text role-legend-label" pointer-events="none"><text text-anchor="start" transform="translate(16,9)" font-family="sans-serif" font-size="10px" fill="#000" opacity="1">7% 15% 4M</text></g></g><path class="foreground" aria-hidden="true" d="" pointer-events="none" display="none"/></g></g></g><path class="foreground" aria-hidden="true" d="" pointer-events="none" display="none"/></g></g><g class="mark-text role-legend-title" pointer-events="none"><text text-anchor="start" transform="translate(0,9)" font-family="sans-serif" font-size="11px" font-weight="bold" fill="#000" opacity="1">戦略</text></g></g><path class="foreground" aria-hidden="true" d="" pointer-events="none" display="none"/></g></g><g class="mark-group role-title"><g transform="translate(300,-22)"><path class="background" aria-hidden="true" d="M0,0h0v0h0Z" pointer-events="none"/><g><g class="mark-text role-title-text" role="graphics-symbol" aria-roledescription="title" aria-label="Title text '経過年数と生存確率の推移'" pointer-events="none"><text text-anchor="middle" transform="translate(0,10)" font-family="sans-serif" font-size="13px" font-weight="bold" fill="#000" opacity="1">経過年数と生存確率の推移</text></g></g><path class="foreground" aria-hidden="true" d="" pointer-events="none" display="none"/></g></g></g><path class="foreground" aria-hidden="true" d="" display="none"/></g></g></g><defs><clipPath id="clip1"><rect x="0" y="0" width="600" height="250"/></clipPath><clipPath id="clip2"><rect x="0" y="0" width="600" height="250"/></clipPath></defs></svg>