<svg xmlns="http://www.w3.org/2000/svg" xmlns:xlink="http://www.w3.org/1999/xlink" version="1.1" class="marks" width="677" height="388" viewBox="0 0 677 388"><rect width="677" height="388" fill="white"/><g fill="none" stroke-miterlimit="10" transform="translate(44,51)"><g class="mark-group role-frame root" role="graphics-object" aria-roledescription="group mark container"><g transform="translate(0,0)"><path class="background" aria-hidden="true" d="M0.5,0.5h600v300h-600Z" stroke="#ddd"/><g><g class="mark-group role-axis" aria-hidden="true"><g transform="translate(0.5,0.5)"><path class="background" aria-hidden="true" d="M0,0h0v0h0Z" pointer-events="none"/><g><g class="mark-rule role-axis-grid" pointer-events="none"><line transform="translate(0,300)" x2="600" y2="0" stroke="#ddd" stroke-width="1" opacity="1"/><line transform="translate(0,267)" x2="600" y2="0" stroke="#ddd" stroke-width="1" opacity="1"/><line transform="translate(0,233)" x2="600" y2="0" stroke="#ddd" stroke-width="1" opacity="1"/><line transform="translate(0,200)" x2="600" y2="0" stroke="#ddd" stroke-width="1" opacity="1"/><line transform="translate(0,167)" x2="600" y2="0" stroke="#ddd" stroke-width="1" opacity="1"/><line transform="translate(0,133)" x2="600" y2="0" stroke="#ddd" stroke-width="1" opacity="1"/><line transform="translate(0,100)" x2="600" y2="0" stroke="#ddd" stroke-width="1" opacity="1"/><line transform="translate(0,67)" x2="600" y2="0" stroke="#ddd" stroke-width="1" opacity="1"/><line transform="translate(0,33)" x2="600" y2="0" stroke="#ddd" stroke-width="1" opacity="1"/><line transform="translate(0,0)" x2="600" y2="0" stroke="#ddd" stroke-width="1" opacity="1"/></g></g><path class="foreground" aria-hidden="true" d="" pointer-events="none" display="none"/></g></g><g class="mark-group role-axis" role="graphics-symbol" aria-roledescription="axis" aria-label="X-axis titled '年間支出額 (名目) (万円)' for a linear scale with values from 200 to 1,200"><g transform="translate(0.5,300.5)"><path class="background" aria-hidden="true" d="M0,0h0v0h0Z" pointer-events="none"/><g><g class="mark-rule role-axis-tick" pointer-events="none"><line transform="translate(30,0)" x2="0" y2="5" stroke="#888" stroke-width="1" opacity="1"/><line transform="translate(36,0)" x2="0" y2="5" stroke="#888" stroke-width="1" opacity="1"/><line transform="translate(42,0)" x2="0" y2="5" stroke="#888" stroke-width="1" opacity="1"/><line transform="translate(48,0)" x2="0" y2="5" stroke="#888" stroke-width="1" opacity="1"/><line transform="translate(54,0)" x2="0" y2="5" stroke="#888" stroke-width="1" opacity="1"/><line transform="translate(60,0)" x2="0" y2="5" stroke="#888" stroke-width="1" opacity="1"/><line transform="translate(66,0)" x2="0" y2="5" stroke="#888" stroke-width="1" opacity="1"/><line transform="translate(72,0)" x2="0" y2="5" stroke="#888" stroke-width="1" opacity="1"/><line transform="translate(78,0)" x2="0" y2="5" stroke="#888" stroke-width="1" opacity="1"/><line transform="translate(84,0)" x2="0" y2="5" stroke="#888" stroke-width="1" opacity="1"/><line transform="translate(90,0)" x2="0" y2="5" stroke="#888" stroke-width="1" opacity="1"/><line transform="translate(96,0)" x2="0" y2="5" stroke="#888" stroke-width="1" opacity="1"/><line transform="translate(102,0)" x2="0" y2="5" stroke="#888" stroke-width="1" opacity="1"/><line transform="translate(108,0)" x2="0" y2="5" stroke="#888" stroke-width="1" opacity="1"/><line transform="translate(114,0)" x2="0" y2="5" stroke="#888" stroke-width="1" opacity="1"/><line transform="translate(120,0)" x2="0" y2="5" stroke="#888" stroke-width="1" opacity="1"/><line transform="translate(126,0)" x2="0" y2="5" stroke="#888" stroke-width="1" opacity="1"/><line transform="translate(132,0)" x2="0" y2="5" stroke="#888" stroke-width="1" opacity="1"/><line transform="translate(138,0)" x2="0" y2="5" stroke="#888" stroke-width="1" opacity="1"/><line transform="translate(144,0)" x2="0" y2="5" stroke="#888" stroke-width="1" opacity="1"/><line transform="translate(150,0)" x2="0" y2="5" stroke="#888" stroke-width="1" opacity="1"/><line transform="translate(156,0)" x2="0" y2="5" stroke="#888" stroke-width="1" opacity="1"/><line transform="translate(162,0)" x2="0" y2="5" stroke="#888" stroke-width="1" opacity="1"/><line transform="translate(168,0)" x2="0" y2="5" stroke="#888" stroke-width="1" opacity="1"/><line transform="translate(174,0)" x2="0" y2="5" stroke="#888" stroke-width="1" opacity="1"/><line transform="translate(180,0)" x2="0" y2="5" stroke="#888" stroke-width="1" opacity="1"/><line transform="translate(186,0)" x2="0" y2="5" stroke="#888" stroke-width="1" opacity="1"/><line transform="translate(192,0)" x2="0" y2="5" stroke="#888" stroke-width="1" opacity="1"/><line transform="translate(198,0)" x2="0" y2="5" stroke="#888" stroke-width="1" opacity="1"/><line transform="translate(204,0)" x2="0" y2="5" stroke="#888" stroke-width="1" opacity="1"/><line transform="translate(210,0)" x2="0" y2="5" stroke="#888" stroke-width="1" opacity="1"/><line transform="translate(216,0)" x2="0" y2="5" stroke="#888" stroke-width="1" opacity="1"/><line transform="translate(222,0)" x2="0" y2="5" stroke="#888" stroke-width="1" opacity="1"/><line transform="translate(228,0)" x2="0" y2="5" stroke="#888" stroke-width="1" opacity="1"/><line transform="translate(234,0)" x2="0" y2="5" stroke="#888" stroke-width="1" opacity="1"/><line transform="translate(240,0)" x2="0" y2="5" stroke="#888" stroke-width="1" opacity="1"/><line transform="translate(246,0)" x2="0" y2="5" stroke="#888" stroke-width="1" opacity="1"/><line transform="translate(252,0)" x2="0" y2="5" stroke="#888" stroke-width="1" opacity="1"/><line transform="translate(258,0)" x2="0" y2="5" stroke="#888" stroke-width="1" opacity="1"/><line transform="translate(264,0)" x2="0" y2="5" stroke="#888" stroke-width="1" opacity="1"/><line transform="translate(270,0)" x2="0" y2="5" stroke="#888" stroke-width="1" opacity="1"/><line transform="translate(276,0)" x2="0" y2="5" stroke="#888" stroke-width="1" opacity="1"/><line transform="translate(282,0)" x2="0" y2="5" stroke="#888" stroke-width="1" opacity="1"/><line transform="translate(288,0)" x2="0" y2="5" stroke="#888" stroke-width="1" opacity="1"/><line transform="translate(294,0)" x2="0" y2="5" stroke="#888" stroke-width="1" opacity="1"/><line transform="translate(300,0)" x2="0" y2="5" stroke="#888" stroke-width="1" opacity="1"/><line transform="translate(306,0)" x2="0" y2="5" stroke="#888" stroke-width="1" opacity="1"/><line transform="translate(312,0)" x2="0" y2="5" stroke="#888" stroke-width="1" opacity="1"/><line transform="translate(318,0)" x2="0" y2="5" stroke="#888" stroke-width="1" opacity="1"/><line transform="translate(324,0)" x2="0" y2="5" stroke="#888" stroke-width="1" opacity="1"/><line transform="translate(330,0)" x2="0" y2="5" stroke="#888" stroke-width="1" opacity="1"/><line transform="translate(336,0)" x2="0" y2="5" stroke="#888" stroke-width="1" opacity="1"/><line transform="translate(342,0)" x2="0" y2="5" stroke="#888" stroke-width="1" opacity="1"/><line transform="translate(348,0)" x2="0" y2="5" stroke="#888" stroke-width="1" opacity="1"/><line transform="translate(354,0)" x2="0" y2="5" stroke="#888" stroke-width="1" opacity="1"/><line transform="translate(360,0)" x2="0" y2="5" stroke="#888" stroke-width="1" opacity="1"/><line transform="translate(366,0)" x2="0" y2="5" stroke="#888" stroke-width="1" opacity="1"/><line transform="translate(372,0)" x2="0" y2="5" stroke="#888" stroke-width="1" opacity="1"/><line transform="translate(378,0)" x2="0" y2="5" stroke="#888" stroke-width="1" opacity="1"/><line transform="translate(384,0)" x2="0" y2="5" stroke="#888" stroke-width="1" opacity="1"/><line transform="translate(390,0)" x2="0" y2="5" stroke="#888" stroke-width="1" opacity="1"/><line transform="translate(396,0)" x2="0" y2="5" stroke="#888" stroke-width="1" opacity="1"/><line transform="translate(402,0)" x2="0" y2="5" stroke="#888" stroke-width="1" opacity="1"/><line transform="translate(408,0)" x2="0" y2="5" stroke="#888" stroke-width="1" opacity="1"/><line transform="translate(414,0)" x2="0" y2="5" stroke="#888" stroke-width="1" opacity="1"/><line transform="translate(420,0)" x2="0" y2="5" stroke="#888" stroke-width="1" opacity="1"/><line transform="translate(426,0)" x2="0" y2="5" stroke="#888" stroke-width="1" opacity="1"/><line transform="translate(432,0)" x2="0" y2="5" stroke="#888" stroke-width="1" opacity="1"/><line transform="translate(438,0)" x2="0" y2="5" stroke="#888" stroke-width="1" opacity="1"/><line transform="translate(444,0)" x2="0" y2="5" stroke="#888" stroke-width="1" opacity="1"/><line transform="translate(450,0)" x2="0" y2="5" stroke="#888" stroke-width="1" opacity="1"/><line transform="translate(456,0)" x2="0" y2="5" stroke="#888" stroke-width="1" opacity="1"/><line transform="translate(462,0)" x2="0" y2="5" stroke="#888" stroke-width="1" opacity="1"/><line transform="translate(468,0)" x2="0" y2="5" stroke="#888" stroke-width="1" opacity="1"/><line transform="translate(474,0)" x2="0" y2="5" stroke="#888" stroke-width="1" opacity="1"/><line transform="translate(480,0)" x2="0" y2="5" stroke="#888" stroke-width="1" opacity="1"/><line transform="translate(486,0)" x2="0" y2="5" stroke="#888" stroke-width="1" opacity="1"/><line transform="translate(492,0)" x2="0" y2="5" stroke="#888" stroke-width="1" opacity="1"/><line transform="translate(498,0)" x2="0" y2="5" stroke="#888" stroke-width="1" opacity="1"/><line transform="translate(504,0)" x2="0" y2="5" stroke="#888" stroke-width="1" opacity="1"/><line transform="translate(510,0)" x2="0" y2="5" stroke="#888" stroke-width="1" opacity="1"/><line transform="translate(516,0)" x2="0" y2="5" stroke="#888" stroke-width="1" opacity="1"/><line transform="translate(522,0)" x2="0" y2="5" stroke="#888" stroke-width="1" opacity="1"/><line transform="translate(528,0)" x2="0" y2="5" stroke="#888" stroke-width="1" opacity="1"/><line transform="translate(534,0)" x2="0" y2="5" stroke="#888" stroke-width="1" opacity="1"/><line transform="translate(540,0)" x2="0" y2="5" stroke="#888" stroke-width="1" opacity="1"/><line transform="translate(546,0)" x2="0" y2="5" stroke="#888" stroke-width="1" opacity="1"/><line transform="translate(552,0)" x2="0" y2="5" stroke="#888" stroke-width="1" opacity="1"/><line transform="translate(558,0)" x2="0" y2="5" stroke="#888" stroke-width="1" opacity="1"/><line transform="translate(564,0)" x2="0" y2="5" stroke="#888" stroke-width="1" opacity="1"/></g><g class="mark-text role-axis-label" pointer-events="none"><text text-anchor="middle" transform="translate(30,15)" font-family="sans-serif" font-size="10px" fill="#000" opacity="1">250</text><text text-anchor="middle" transform="translate(36,15)" font-family="sans-serif" font-size="10px" fill="#000" opacity="0">260</text><text text-anchor="middle" transform="translate(42.00000000000001,15)" font-family="sans-serif" font-size="10px" fill="#000" opacity="0">270</text><text text-anchor="middle" transform="translate(48,15)" font-family="sans-serif" font-size="10px" fill="#000" opacity="0">280</text><text text-anchor="middle" transform="translate(54,15)" font-family="sans-serif" font-size="10px" fill="#000" opacity="0">290</text><text text-anchor="middle" transform="translate(60,15)" font-family="sans-serif" font-size="10px" fill="#000" opacity="0">300</text><text text-anchor="middle" transform="translate(66,15)" font-family="sans-serif" font-size="10px" fill="#000" opacity="0">310</text><text text-anchor="middle" transform="translate(72,15)" font-family="sans-serif" font-size="10px" fill="#000" opacity="0">320</text><text text-anchor="middle" transform="translate(78,15)" font-family="sans-serif" font-size="10px" fill="#000" opacity="1">330</text><text text-anchor="middle" transform="translate(84.00000000000001,15)" font-family="sans-serif" font-size="10px" fill="#000" opacity="0">340</text><text text-anchor="middle" transform="translate(90,15)" font-family="sans-serif" font-size="10px" fill="#000" opacity="0">350</text><text text-anchor="middle" transform="translate(96,15)" font-family="sans-serif" font-size="10px" fill="#000" opacity="0">360</text><text text-anchor="middle" transform="translate(102.00000000000001,15)" font-family="sans-serif" font-size="10px" fill="#000" opacity="0">370</text><text text-anchor="middle" transform="translate(108,15)" font-family="sans-serif" font-size="10px" fill="#000" opacity="0">380</text><text text-anchor="middle" transform="translate(114,15)" font-family="sans-serif" font-size="10px" fill="#000" opacity="0">390</text><text text-anchor="middle" transform="translate(120,15)" font-family="sans-serif" font-size="10px" fill="#000" opacity="0">400</text><text text-anchor="middle" transform="translate(126,15)" font-family="sans-serif" font-size="10px" fill="#000" opacity="1">410</text><text text-anchor="middle" transform="translate(132,15)" font-family="sans-serif" font-size="10px" fill="#000" opacity="0">420</text><text text-anchor="middle" transform="translate(138,15)" font-family="sans-serif" font-size="10px" fill="#000" opacity="0">430</text><text text-anchor="middle" transform="translate(144,15)" font-family="sans-serif" font-size="10px" fill="#000" opacity="0">440</text><text text-anchor="middle" transform="translate(150,15)" font-family="sans-serif" font-size="10px" fill="#000" opacity="0">450</text><text text-anchor="middle" transform="translate(156,15)" font-family="sans-serif" font-size="10px" fill="#000" opacity="0">460</text><text text-anchor="middle" transform="translate(162,15)" font-family="sans-serif" font-size="10px" fill="#000" opacity="0">470</text><text text-anchor="middle" transform="translate(168.00000000000003,15)" font-family="sans-serif" font-size="10px" fill="#000" opacity="0">480</text><text text-anchor="middle" transform="translate(174,15)" font-family="sans-serif" font-size="10px" fill="#000" opacity="1">490</text><text text-anchor="middle" transform="translate(180,15)" font-family="sans-serif" font-size="10px" fill="#000" opacity="0">500</text><text text-anchor="middle" transform="translate(186,15)" font-family="sans-serif" font-size="10px" fill="#000" opacity="0">510</text><text text-anchor="middle" transform="translate(192,15)" font-family="sans-serif" font-size="10px" fill="#000" opacity="0">520</text><text text-anchor="middle" transform="translate(198,15)" font-family="sans-serif" font-size="10px" fill="#000" opacity="0">530</text><text text-anchor="middle" transform="translate(204.00000000000003,15)" font-family="sans-serif" font-size="10px" fill="#000" opacity="0">540</text><text text-anchor="middle" transform="translate(210,15)" font-family="sans-serif" font-size="10px" fill="#000" opacity="0">550</text><text text-anchor="middle" transform="translate(216,15)" font-family="sans-serif" font-size="10px" fill="#000" opacity="0">560</text><text text-anchor="middle" transform="translate(222,15)" font-family="sans-serif" font-size="10px" fill="#000" opacity="1">570</text><text text-anchor="middle" transform="translate(228,15)" font-family="sans-serif" font-size="10px" fill="#000" opacity="0">580</text><text text-anchor="middle" transform="translate(234,15)" font-family="sans-serif" font-size="10px" fill="#000" opacity="0">590</text><text text-anchor="middle" transform="translate(240,15)" font-family="sans-serif" font-size="10px" fill="#000" opacity="0">600</text><text text-anchor="middle" transform="translate(245.99999999999997,15)" font-family="sans-serif" font-size="10px" fill="#000" opacity="0">610</text><text text-anchor="middle" transform="translate(252,15)" font-family="sans-serif" font-size="10px" fill="#000" opacity="0">620</text><text text-anchor="middle" transform="translate(258,15)" font-family="sans-serif" font-size="10px" fill="#000" opacity="0">630</text><text text-anchor="middle" transform="translate(264,15)" font-family="sans-serif" font-size="10px" fill="#000" opacity="0">640</text><text text-anchor="middle" transform="translate(270,15)" font-family="sans-serif" font-size="10px" fill="#000" opacity="1">650</text><text text-anchor="middle" transform="translate(276,15)" font-family="sans-serif" font-size="10px" fill="#000" opacity="0">660</text><text text-anchor="middle" transform="translate(282,15)" font-family="sans-serif" font-size="10px" fill="#000" opacity="0">670</text><text text-anchor="middle" transform="translate(288,15)" font-family="sans-serif" font-size="10px" fill="#000" opacity="0">680</text><text text-anchor="middle" transform="translate(294,15)" font-family="sans-serif" font-size="10px" fill="#000" opacity="0">690</text><text text-anchor="middle" transform="translate(300,15)" font-family="sans-serif" font-size="10px" fill="#000" opacity="0">700</text><text text-anchor="middle" transform="translate(306,15)" font-family="sans-serif" font-size="10px" fill="#000" opacity="0">710</text><text text-anchor="middle" transform="translate(312,15)" font-family="sans-serif" font-size="10px" fill="#000" opacity="0">720</text><text text-anchor="middle" transform="translate(318,15)" font-family="sans-serif" font-size="10px" fill="#000" opacity="1">730</text><text text-anchor="middle" transform="translate(324,15)" font-family="sans-serif" font-size="10px" fill="#000" opacity="0">740</text><text text-anchor="middle" transform="translate(330,15)" font-family="sans-serif" font-size="10px" fill="#000" opacity="0">750</text><text text-anchor="middle" transform="translate(336.00000000000006,15)" font-family="sans-serif" font-size="10px" fill="#000" opacity="0">760</text><text text-anchor="middle" transform="translate(341.99999999999994,15)" font-family="sans-serif" font-size="10px" fill="#000" opacity="0">770</text><text text-anchor="middle" transform="translate(348,15)" font-family="sans-serif" font-size="10px" fill="#000" opacity="0">780</text><text text-anchor="middle" transform="translate(354,15)" font-family="sans-serif" font-size="10px" fill="#000" opacity="0">790</text><text text-anchor="middle" transform="translate(360,15)" font-family="sans-serif" font-size="10px" fill="#000" opacity="0">800</text><text text-anchor="middle" transform="translate(366,15)" font-family="sans-serif" font-size="10px" fill="#000" opacity="1">810</text><text text-anchor="middle" transform="translate(372,15)" font-family="sans-serif" font-size="10px" fill="#000" opacity="0">820</text><text text-anchor="middle" transform="translate(378,15)" font-family="sans-serif" font-size="10px" fill="#000" opacity="0">830</text><text text-anchor="middle" transform="translate(384,15)" font-family="sans-serif" font-size="10px" fill="#000" opacity="0">840</text><text text-anchor="middle" transform="translate(390,15)" font-family="sans-serif" font-size="10px" fill="#000" opacity="0">850</text><text text-anchor="middle" transform="translate(396,15)" font-family="sans-serif" font-size="10px" fill="#000" opacity="0">860</text><text text-anchor="middle" transform="translate(402,15)" font-family="sans-serif" font-size="10px" fill="#000" opacity="0">870</text><text text-anchor="middle" transform="translate(408.00000000000006,15)" font-family="sans-serif" font-size="10px" fill="#000" opacity="0">880</text><text text-anchor="middle" transform="translate(413.99999999999994,15)" font-family="sans-serif" font-size="10px" fill="#000" opacity="1">890</text><text text-anchor="middle" transform="translate(420,15)" font-family="sans-serif" font-size="10px" fill="#000" opacity="0">900</text><text text-anchor="middle" transform="translate(426,15)" font-family="sans-serif" font-size="10px" fill="#000" opacity="0">910</text><text text-anchor="middle" transform="translate(432,15)" font-family="sans-serif" font-size="10px" fill="#000" opacity="0">920</text><text text-anchor="middle" transform="translate(438,15)" font-family="sans-serif" font-size="10px" fill="#000" opacity="0">930</text><text text-anchor="middle" transform="translate(444,15)" font-family="sans-serif" font-size="10px" fill="#000" opacity="0">940</text><text text-anchor="middle" transform="translate(450,15)" font-family="sans-serif" font-size="10px" fill="#000" opacity="0">950</text><text text-anchor="middle" transform="translate(456,15)" font-family="sans-serif" font-size="10px" fill="#000" opacity="0">960</text><text text-anchor="middle" transform="translate(462,15)" font-family="sans-serif" font-size="10px" fill="#000" opacity="1">970</text><text text-anchor="middle" transform="translate(468,15)" font-family="sans-serif" font-size="10px" fill="#000" opacity="0">980</text><text text-anchor="middle" transform="translate(474,15)" font-family="sans-serif" font-size="10px" fill="#000" opacity="0">990</text><text text-anchor="middle" transform="translate(480,15)" font-family="sans-serif" font-size="10px" fill="#000" opacity="0">1,000</text><text text-anchor="middle" transform="translate(486.00000000000006,15)" font-family="sans-serif" font-size="10px" fill="#000" opacity="0">1,010</text><text text-anchor="middle" transform="translate(491.99999999999994,15)" font-family="sans-serif" font-size="10px" fill="#000" opacity="0">1,020</text><text text-anchor="middle" transform="translate(498,15)" font-family="sans-serif" font-size="10px" fill="#000" opacity="0">1,030</text><text text-anchor="middle" transform="translate(504,15)" font-family="sans-serif" font-size="10px" fill="#000" opacity="0">1,040</text><text text-anchor="middle" transform="translate(510,15)" font-family="sans-serif" font-size="10px" fill="#000" opacity="1">1,050</text><text text-anchor="middle" transform="translate(516,15)" font-family="sans-serif" font-size="10px" fill="#000" opacity="0">1,060</text><text text-anchor="middle" transform="translate(522,15)" font-family="sans-serif" font-size="10px" fill="#000" opacity="0">1,070</text><text text-anchor="middle" transform="translate(528,15)" font-family="sans-serif" font-size="10px" fill="#000" opacity="0">1,080</text><text text-anchor="middle" transform="translate(534,15)" font-family="sans-serif" font-size="10px" fill="#000" opacity="0">1,090</text><text text-anchor="middle" transform="translate(540,15)" font-family="sans-serif" font-size="10px" fill="#000" opacity="0">1,100</text><text text-anchor="middle" transform="translate(546,15)" font-family="sans-serif" font-size="10px" fill="#000" opacity="0">1,110</text><text text-anchor="middle" transform="translate(552,15)" font-family="sans-serif" font-size="10px" fill="#000" opacity="0">1,120</text><text text-anchor="middle" transform="translate(558,15)" font-family="sans-serif" font-size="10px" fill="#000" opacity="1">1,130</text><text text-anchor="middle" transform="translate(564,15)" font-family="sans-serif" font-size="10px" fill="#000" opacity="0">1,140</text></g><g class="mark-rule role-axis-domain" pointer-events="none"><line transform="translate(0,0)" x2="600" y2="0" stroke="#888" stroke-width="1" opacity="1"/></g><g class="mark-text role-axis-title" pointer-events="none"><text text-anchor="middle" transform="translate(300,30)" font-family="sans-serif" font-size="11px" font-weight="bold" fill="#000" opacity="1">年間支出額 (名目) (万円)</text></g></g><path class="foreground" aria-hidden="true" d="" pointer-events="none" display="none"/></g></g><g class="mark-group role-axis" role="graphics-symbol" aria-roledescription="axis" aria-label="Y-axis titled '試行回数' for a linear scale with values from 0 to 180"><g transform="translate(0.5,0.5)"><path class="background" aria-hidden="true" d="M0,0h0v0h0Z" pointer-events="none"/><g><g class="mark-rule role-axis-tick" pointer-events="none"><line transform="translate(0,300)" x2="-5" y2="0" stroke="#888" stroke-width="1" opacity="1"/><line transform="translate(0,267)" x2="-5" y2="0" stroke="#888" stroke-width="1" opacity="1"/><line transform="translate(0,233)" x2="-5" y2="0" stroke="#888" stroke-width="1" opacity="1"/><line transform="translate(0,200)" x2="-5" y2="0" stroke="#888" stroke-width="1" opacity="1"/><line transform="translate(0,167)" x2="-5" y2="0" stroke="#888" stroke-width="1" opacity="1"/><line transform="translate(0,133)" x2="-5" y2="0" stroke="#888" stroke-width="1" opacity="1"/><line transform="translate(0,100)" x2="-5" y2="0" stroke="#888" stroke-width="1" opacity="1"/><line transform="translate(0,67)" x2="-5" y2="0" stroke="#888" stroke-width="1" opacity="1"/><line transform="translate(0,33)" x2="-5" y2="0" stroke="#888" stroke-width="1" opacity="1"/><line transform="translate(0,0)" x2="-5" y2="0" stroke="#888" stroke-width="1" opacity="1"/></g><g class="mark-text role-axis-label" pointer-events="none"><text text-anchor="end" transform="translate(-7,303)" font-family="sans-serif" font-size="10px" fill="#000" opacity="1">0</text><text text-anchor="end" transform="translate(-7,269.66666666666663)" font-family="sans-serif" font-size="10px" fill="#000" opacity="1">20</text><text text-anchor="end" transform="translate(-7,236.33333333333334)" font-family="sans-serif" font-size="10px" fill="#000" opacity="1">40</text><text text-anchor="end" transform="translate(-7,203.00000000000003)" font-family="sans-serif" font-size="10px" fill="#000" opacity="1">60</text><text text-anchor="end" transform="translate(-7,169.66666666666669)" font-family="sans-serif" font-size="10px" fill="#000" opacity="1">80</text><text text-anchor="end" transform="translate(-7,136.33333333333331)" font-family="sans-serif" font-size="10px" fill="#000" opacity="1">100</text><text text-anchor="end" transform="translate(-7,103.00000000000001)" font-family="sans-serif" font-size="10px" fill="#000" opacity="1">120</text><text text-anchor="end" transform="translate(-7,69.66666666666666)" font-family="sans-serif" font-size="10px" fill="#000" opacity="1">140</text><text text-anchor="end" transform="translate(-7,36.33333333333335)" font-family="sans-serif" font-size="10px" fill="#000" opacity="1">160</text><text text-anchor="end" transform="translate(-7,3)" font-family="sans-serif" font-size="10px" fill="#000" opacity="1">180</text></g><g class="mark-rule role-axis-domain" pointer-events="none"><line transform="translate(0,300)" x2="0" y2="-300" stroke="#888" stroke-width="1" opacity="1"/></g><g class="mark-text role-axis-title" pointer-events="none"><text text-anchor="middle" transform="translate(-27.6845703125,150) rotate(-90) translate(0,-2)" font-family="sans-serif" font-size="11px" font-weight="bold" fill="#000" opacity="1">試行回数</text></g></g><path class="foreground" aria-hidden="true" d="" pointer-events="none" display="none"/></g></g><g class="mark-rect role-mark layer_0_marks" role="graphics-object" aria-roledescription="rect mark container"><path aria-label="年間支出額 (名目) (万円): 630 – 640; 試行回数: 53" role="graphics-symbol" aria-roledescription="bar" d="M259,211.66666666666666h5v88.33333333333334h-5Z" fill="#4c78a8" opacity="0.6"/><path aria-label="年間支出額 (名目) (万円): 370 – 380; 試行回数: 93" role="graphics-symbol" aria-roledescription="bar" d="M103.00000000000001,144.99999999999997h4.999999999999986v155.00000000000003h-4.999999999999986Z" fill="#4c78a8" opacity="0.6"/><path aria-label="年間支出額 (名目) (万円): 450 – 460; 試行回数: 94" role="graphics-symbol" aria-roledescription="bar" d="M151,143.33333333333331h5v156.66666666666669h-5Z" fill="#4c78a8" opacity="0.6"/><path aria-label="年間支出額 (名目) (万円): 500 – 510; 試行回数: 87" role="graphics-symbol" aria-roledescription="bar" d="M181,154.99999999999997h5v145.00000000000003h-5Z" fill="#4c78a8" opacity="0.6"/><path aria-label="年間支出額 (名目) (万円): 300 – 310; 試行回数: 61" role="graphics-symbol" aria-roledescription="bar" d="M61,198.33333333333331h5v101.66666666666669h-5Z" fill="#4c78a8" opacity="0.6"/><path aria-label="年間支出額 (名目) (万円): 320 – 330; 試行回数: 88" role="graphics-symbol" aria-roledescription="bar" d="M73,153.33333333333331h5v146.66666666666669h-5Z" fill="#4c78a8" opacity="0.6"/><path aria-label="年間支出額 (名目) (万円): 670 – 680; 試行回数: 56" role="graphics-symbol" aria-roledescription="bar" d="M283,206.66666666666666h5v93.33333333333334h-5Z" fill="#4c78a8" opacity="0.6"/><path aria-label="年間支出額 (名目) (万円): 410 – 420; 試行回数: 99" role="graphics-symbol" aria-roledescription="bar" d="M127,135h5v165h-5Z" fill="#4c78a8" opacity="0.6"/><path aria-label="年間支出額 (名目) (万円): 550 – 560; 試行回数: 100" role="graphics-symbol" aria-roledescription="bar" d="M211,133.33333333333331h5v166.66666666666669h-5Z" fill="#4c78a8" opacity="0.6"/><path aria-label="年間支出額 (名目) (万円): 290 – 300; 試行回数: 104" role="graphics-symbol" aria-roledescription="bar" d="M55,126.66666666666669h5v173.33333333333331h-5Z" fill="#4c78a8" opacity="0.6"/><path aria-label="年間支出額 (名目) (万円): 310 – 320; 試行回数: 112" role="graphics-symbol" aria-roledescription="bar" d="M67,113.33333333333333h5v186.66666666666669h-5Z" fill="#4c78a8" opacity="0.6"/><path aria-label="年間支出額 (名目) (万円): 510 – 520; 試行回数: 84" role="graphics-symbol" aria-roledescription="bar" d="M187,160h5v140h-5Z" fill="#4c78a8" opacity="0.6"/><path aria-label="年間支出額 (名目) (万円): 270 – 280; 試行回数: 123" role="graphics-symbol" aria-roledescription="bar" d="M43.00000000000001,95h4.999999999999993v205h-4.999999999999993Z" fill="#4c78a8" opacity="0.6"/><path aria-label="年間支出額 (名目) (万円): 900 – 910; 試行回数: 8" role="graphics-symbol" aria-roledescription="bar" d="M421,286.6666666666667h5v13.333333333333314h-5Z" fill="#4c78a8" opacity="0.6"/><path aria-label="年間支出額 (名目) (万円): 600 – 610; 試行回数: 78" role="graphics-symbol" aria-roledescription="bar" d="M241,170h4.999999999999972v130h-4.999999999999972Z" fill="#4c78a8" opacity="0.6"/><path aria-label="年間支出額 (名目) (万円): 740 – 750; 試行回数: 39" role="graphics-symbol" aria-roledescription="bar" d="M325,235h5v65h-5Z" fill="#4c78a8" opacity="0.6"/><path aria-label="年間支出額 (名目) (万円): 380 – 390; 試行回数: 89" role="graphics-symbol" aria-roledescription="bar" d="M109,151.66666666666666h5v148.33333333333334h-5Z" fill="#4c78a8" opacity="0.6"/><path aria-label="年間支出額 (名目) (万円): 700 – 710; 試行回数: 52" role="graphics-symbol" aria-roledescription="bar" d="M301,213.33333333333334h5v86.66666666666666h-5Z" fill="#4c78a8" opacity="0.6"/><path aria-label="年間支出額 (名目) (万円): 400 – 410; 試行回数: 94" role="graphics-symbol" aria-roledescription="bar" d="M121,143.33333333333331h5v156.66666666666669h-5Z" fill="#4c78a8" opacity="0.6"/><path aria-label="年間支出額 (名目) (万円): 350 – 360; 試行回数: 93" role="graphics-symbol" aria-roledescription="bar" d="M91,144.99999999999997h5v155.00000000000003h-5Z" fill="#4c78a8" opacity="0.6"/><path aria-label="年間支出額 (名目) (万円): 580 – 590; 試行回数: 67" role="graphics-symbol" aria-roledescription="bar" d="M229,188.33333333333334h5v111.66666666666666h-5Z" fill="#4c78a8" opacity="0.6"/><path aria-label="年間支出額 (名目) (万円): 430 – 440; 試行回数: 105" role="graphics-symbol" aria-roledescription="bar" d="M139,124.99999999999999h5v175h-5Z" fill="#4c78a8" opacity="0.6"/><path aria-label="年間支出額 (名目) (万円): 780 – 790; 試行回数: 41" role="graphics-symbol" aria-roledescription="bar" d="M349,231.66666666666669h5v68.33333333333331h-5Z" fill="#4c78a8" opacity="0.6"/><path aria-label="年間支出額 (名目) (万円): 490 – 500; 試行回数: 84" role="graphics-symbol" aria-roledescription="bar" d="M175,160h5v140h-5Z" fill="#4c78a8" opacity="0.6"/><path aria-label="年間支出額 (名目) (万円): 340 – 350; 試行回数: 83" role="graphics-symbol" aria-roledescription="bar" d="M85.00000000000001,161.66666666666666h4.999999999999986v138.33333333333334h-4.999999999999986Z" fill="#4c78a8" opacity="0.6"/><path aria-label="年間支出額 (名目) (万円): 640 – 650; 試行回数: 63" role="graphics-symbol" aria-roledescription="bar" d="M265,195h5v105h-5Z" fill="#4c78a8" opacity="0.6"/><path aria-label="年間支出額 (名目) (万円): 730 – 740; 試行回数: 53" role="graphics-symbol" aria-roledescription="bar" d="M319,211.66666666666666h5v88.33333333333334h-5Z" fill="#4c78a8" opacity="0.6"/><path aria-label="年間支出額 (名目) (万円): 480 – 490; 試行回数: 93" role="graphics-symbol" aria-roledescription="bar" d="M169.00000000000003,144.99999999999997h4.999999999999972v155.00000000000003h-4.999999999999972Z" fill="#4c78a8" opacity="0.6"/><path aria-label="年間支出額 (名目) (万円): 560 – 570; 試行回数: 69" role="graphics-symbol" aria-roledescription="bar" d="M217,185h5v115h-5Z" fill="#4c78a8" opacity="0.6"/><path aria-label="年間支出額 (名目) (万円): 540 – 550; 試行回数: 82" role="graphics-symbol" aria-roledescription="bar" d="M205.00000000000003,163.33333333333334h4.999999999999972v136.66666666666666h-4.999999999999972Z" fill="#4c78a8" opacity="0.6"/><path aria-label="年間支出額 (名目) (万円): 360 – 370; 試行回数: 75" role="graphics-symbol" aria-roledescription="bar" d="M97,174.99999999999997h5.000000000000014v125.00000000000003h-5.000000000000014Z" fill="#4c78a8" opacity="0.6"/><path aria-label="年間支出額 (名目) (万円): 530 – 540; 試行回数: 86" role="graphics-symbol" aria-roledescription="bar" d="M199,156.66666666666663h5.000000000000028v143.33333333333337h-5.000000000000028Z" fill="#4c78a8" opacity="0.6"/><path aria-label="年間支出額 (名目) (万円): 460 – 470; 試行回数: 78" role="graphics-symbol" aria-roledescription="bar" d="M157,170h5v130h-5Z" fill="#4c78a8" opacity="0.6"/><path aria-label="年間支出額 (名目) (万円): 330 – 340; 試行回数: 99" role="graphics-symbol" aria-roledescription="bar" d="M79,135h5.000000000000014v165h-5.000000000000014Z" fill="#4c78a8" opacity="0.6"/><path aria-label="年間支出額 (名目) (万円): 620 – 630; 試行回数: 63" role="graphics-symbol" aria-roledescription="bar" d="M253,195h5v105h-5Z" fill="#4c78a8" opacity="0.6"/><path aria-label="年間支出額 (名目) (万円): 420 – 430; 試行回数: 71" role="graphics-symbol" aria-roledescription="bar" d="M133,181.66666666666669h5v118.33333333333331h-5Z" fill="#4c78a8" opacity="0.6"/><path aria-label="年間支出額 (名目) (万円): 820 – 830; 試行回数: 23" role="graphics-symbol" aria-roledescription="bar" d="M373,261.6666666666667h5v38.333333333333314h-5Z" fill="#4c78a8" opacity="0.6"/><path aria-label="年間支出額 (名目) (万円): 590 – 600; 試行回数: 71" role="graphics-symbol" aria-roledescription="bar" d="M235,181.66666666666669h5v118.33333333333331h-5Z" fill="#4c78a8" opacity="0.6"/><path aria-label="年間支出額 (名目) (万円): 720 – 730; 試行回数: 47" role="graphics-symbol" aria-roledescription="bar" d="M313,221.66666666666669h5v78.33333333333331h-5Z" fill="#4c78a8" opacity="0.6"/><path aria-label="年間支出額 (名目) (万円): 660 – 670; 試行回数: 56" role="graphics-symbol" aria-roledescription="bar" d="M277,206.66666666666666h5v93.33333333333334h-5Z" fill="#4c78a8" opacity="0.6"/><path aria-label="年間支出額 (名目) (万円): 260 – 270; 試行回数: 57" role="graphics-symbol" aria-roledescription="bar" d="M37,205h5.000000000000007v95h-5.000000000000007Z" fill="#4c78a8" opacity="0.6"/><path aria-label="年間支出額 (名目) (万円): 570 – 580; 試行回数: 74" role="graphics-symbol" aria-roledescription="bar" d="M223,176.66666666666669h5v123.33333333333331h-5Z" fill="#4c78a8" opacity="0.6"/><path aria-label="年間支出額 (名目) (万円): 250 – 260; 試行回数: 177" role="graphics-symbol" aria-roledescription="bar" d="M31,5.000000000000016h5v295h-5Z" fill="#4c78a8" opacity="0.6"/><path aria-label="年間支出額 (名目) (万円): 610 – 620; 試行回数: 75" role="graphics-symbol" aria-roledescription="bar" d="M246.99999999999997,174.99999999999997h5.000000000000028v125.00000000000003h-5.000000000000028Z" fill="#4c78a8" opacity="0.6"/><path aria-label="年間支出額 (名目) (万円): 890 – 900; 試行回数: 7" role="graphics-symbol" aria-roledescription="bar" d="M414.99999999999994,288.3333333333333h5.000000000000057v11.666666666666686h-5.000000000000057Z" fill="#4c78a8" opacity="0.6"/><path aria-label="年間支出額 (名目) (万円): 520 – 530; 試行回数: 85" role="graphics-symbol" aria-roledescription="bar" d="M193,158.33333333333334h5v141.66666666666666h-5Z" fill="#4c78a8" opacity="0.6"/><path aria-label="年間支出額 (名目) (万円): 440 – 450; 試行回数: 74" role="graphics-symbol" aria-roledescription="bar" d="M145,176.66666666666669h5v123.33333333333331h-5Z" fill="#4c78a8" opacity="0.6"/><path aria-label="年間支出額 (名目) (万円): 650 – 660; 試行回数: 64" role="graphics-symbol" aria-roledescription="bar" d="M271,193.33333333333331h5v106.66666666666669h-5Z" fill="#4c78a8" opacity="0.6"/><path aria-label="年間支出額 (名目) (万円): 880 – 890; 試行回数: 9" role="graphics-symbol" aria-roledescription="bar" d="M409.00000000000006,285h4.999999999999886v15h-4.999999999999886Z" fill="#4c78a8" opacity="0.6"/><path aria-label="年間支出額 (名目) (万円): 800 – 810; 試行回数: 24" role="graphics-symbol" aria-roledescription="bar" d="M361,260h5v40h-5Z" fill="#4c78a8" opacity="0.6"/><path aria-label="年間支出額 (名目) (万円): 750 – 760; 試行回数: 43" role="graphics-symbol" aria-roledescription="bar" d="M331,228.33333333333331h5.000000000000057v71.66666666666669h-5.000000000000057Z" fill="#4c78a8" opacity="0.6"/><path aria-label="年間支出額 (名目) (万円): 280 – 290; 試行回数: 57" role="graphics-symbol" aria-roledescription="bar" d="M49,205h5v95h-5Z" fill="#4c78a8" opacity="0.6"/><path aria-label="年間支出額 (名目) (万円): 920 – 930; 試行回数: 6" role="graphics-symbol" aria-roledescription="bar" d="M433,290h5v10h-5Z" fill="#4c78a8" opacity="0.6"/><path aria-label="年間支出額 (名目) (万円): 790 – 800; 試行回数: 26" role="graphics-symbol" aria-roledescription="bar" d="M355,256.6666666666667h5v43.333333333333314h-5Z" fill="#4c78a8" opacity="0.6"/><path aria-label="年間支出額 (名目) (万円): 470 – 480; 試行回数: 83" role="graphics-symbol" aria-roledescription="bar" d="M163,161.66666666666666h5.000000000000028v138.33333333333334h-5.000000000000028Z" fill="#4c78a8" opacity="0.6"/><path aria-label="年間支出額 (名目) (万円): 940 – 950; 試行回数: 4" role="graphics-symbol" aria-roledescription="bar" d="M445,293.3333333333333h5v6.666666666666686h-5Z" fill="#4c78a8" opacity="0.6"/><path aria-label="年間支出額 (名目) (万円): 390 – 400; 試行回数: 80" role="graphics-symbol" aria-roledescription="bar" d="M115,166.66666666666669h5v133.33333333333331h-5Z" fill="#4c78a8" opacity="0.6"/><path aria-label="年間支出額 (名目) (万円): 760 – 770; 試行回数: 28" role="graphics-symbol" aria-roledescription="bar" d="M337.00000000000006,253.33333333333334h4.999999999999886v46.66666666666666h-4.999999999999886Z" fill="#4c78a8" opacity="0.6"/><path aria-label="年間支出額 (名目) (万円): 690 – 700; 試行回数: 52" role="graphics-symbol" aria-roledescription="bar" d="M295,213.33333333333334h5v86.66666666666666h-5Z" fill="#4c78a8" opacity="0.6"/><path aria-label="年間支出額 (名目) (万円): 840 – 850; 試行回数: 19" role="graphics-symbol" aria-roledescription="bar" d="M385,268.33333333333337h5v31.66666666666663h-5Z" fill="#4c78a8" opacity="0.6"/><path aria-label="年間支出額 (名目) (万円): 860 – 870; 試行回数: 22" role="graphics-symbol" aria-roledescription="bar" d="M397,263.3333333333333h5v36.666666666666686h-5Z" fill="#4c78a8" opacity="0.6"/><path aria-label="年間支出額 (名目) (万円): 680 – 690; 試行回数: 54" role="graphics-symbol" aria-roledescription="bar" d="M289,210h5v90h-5Z" fill="#4c78a8" opacity="0.6"/><path aria-label="年間支出額 (名目) (万円): 1050 – 1060; 試行回数: 3" role="graphics-symbol" aria-roledescription="bar" d="M511,295h5v5h-5Z" fill="#4c78a8" opacity="0.6"/><path aria-label="年間支出額 (名目) (万円): 950 – 960; 試行回数: 6" role="graphics-symbol" aria-roledescription="bar" d="M451,290h5v10h-5Z" fill="#4c78a8" opacity="0.6"/><path aria-label="年間支出額 (名目) (万円): 710 – 720; 試行回数: 38" role="graphics-symbol" aria-roledescription="bar" d="M307,236.66666666666666h5v63.33333333333334h-5Z" fill="#4c78a8" opacity="0.6"/><path aria-label="年間支出額 (名目) (万円): 770 – 780; 試行回数: 36" role="graphics-symbol" aria-roledescription="bar" d="M342.99999999999994,240h5.000000000000057v60h-5.000000000000057Z" fill="#4c78a8" opacity="0.6"/><path aria-label="年間支出額 (名目) (万円): 850 – 860; 試行回数: 13" role="graphics-symbol" aria-roledescription="bar" d="M391,278.33333333333337h5v21.66666666666663h-5Z" fill="#4c78a8" opacity="0.6"/><path aria-label="年間支出額 (名目) (万円): 830 – 840; 試行回数: 15" role="graphics-symbol" aria-roledescription="bar" d="M379,275h5v25h-5Z" fill="#4c78a8" opacity="0.6"/><path aria-label="年間支出額 (名目) (万円): 810 – 820; 試行回数: 24" role="graphics-symbol" aria-roledescription="bar" d="M367,260h5v40h-5Z" fill="#4c78a8" opacity="0.6"/><path aria-label="年間支出額 (名目) (万円): 960 – 970; 試行回数: 1" role="graphics-symbol" aria-roledescription="bar" d="M457,298.3333333333333h5v1.6666666666666856h-5Z" fill="#4c78a8" opacity="0.6"/><path aria-label="年間支出額 (名目) (万円): 870 – 880; 試行回数: 16" role="graphics-symbol" aria-roledescription="bar" d="M403,273.3333333333333h5.000000000000057v26.666666666666686h-5.000000000000057Z" fill="#4c78a8" opacity="0.6"/><path aria-label="年間支出額 (名目) (万円): 1130 – 1140; 試行回数: 1" role="graphics-symbol" aria-roledescription="bar" d="M559,298.3333333333333h5v1.6666666666666856h-5Z" fill="#4c78a8" opacity="0.6"/><path aria-label="年間支出額 (名目) (万円): 1000 – 1010; 試行回数: 3" role="graphics-symbol" aria-roledescription="bar" d="M481,295h5.000000000000057v5h-5.000000000000057Z" fill="#4c78a8" opacity="0.6"/><path aria-label="年間支出額 (名目) (万円): 980 – 990; 試行回数: 3" role="graphics-symbol" aria-roledescription="bar" d="M469,295h5v5h-5Z" fill="#4c78a8" opacity="0.6"/><path aria-label="年間支出額 (名目) (万円): 1030 – 1040; 試行回数: 3" role="graphics-symbol" aria-roledescription="bar" d="M499,295h5v5h-5Z" fill="#4c78a8" opacity="0.6"/><path aria-label="年間支出額 (名目) (万円): 970 – 980; 試行回数: 6" role="graphics-symbol" aria-roledescription="bar" d="M463,290h5v10h-5Z" fill="#4c78a8" opacity="0.6"/><path aria-label="年間支出額 (名目) (万円): 910 – 920; 試行回数: 5" role="graphics-symbol" aria-roledescription="bar" d="M427,291.6666666666667h5v8.333333333333314h-5Z" fill="#4c78a8" opacity="0.6"/><path aria-label="年間支出額 (名目) (万円): 930 – 940; 試行回数: 6" role="graphics-symbol" aria-roledescription="bar" d="M439,290h5v10h-5Z" fill="#4c78a8" opacity="0.6"/><path aria-label="年間支出額 (名目) (万円): 1070 – 1080; 試行回数: 2" role="graphics-symbol" aria-roledescription="bar" d="M523,296.6666666666667h5v3.3333333333333144h-5Z" fill="#4c78a8" opacity="0.6"/><path aria-label="年間支出額 (名目) (万円): 1020 – 1030; 試行回数: 1" role="graphics-symbol" aria-roledescription="bar" d="M492.99999999999994,298.3333333333333h5.000000000000057v1.6666666666666856h-5.000000000000057Z" fill="#4c78a8" opacity="0.6"/><path aria-label="年間支出額 (名目) (万円): 1040 – 1050; 試行回数: 1" role="graphics-symbol" aria-roledescription="bar" d="M505,298.3333333333333h5v1.6666666666666856h-5Z" fill="#4c78a8" opacity="0.6"/></g><g class="mark-rule role-mark layer_1_marks" role="graphics-object" aria-roledescription="rule mark container"><line aria-label="x: 665.324402066; label: 期待支出額 (1.77%インフレ考慮)" role="graphics-symbol" aria-roledescription="rule mark" transform="translate(279.19464123959835,0)" x2="0" y2="300" stroke="red" stroke-width="2" stroke-dasharray="5,5"/><line aria-label="x: 362.912252066; label: 25パーセンタイル (生存パス)" role="graphics-symbol" aria-roledescription="rule mark" transform="translate(97.7473512393423,0)" x2="0" y2="300" stroke="blue" stroke-width="2" stroke-dasharray="0"/><line aria-label="x: 487.919844928; label: 50パーセンタイル (中央値)" role="graphics-symbol" aria-roledescription="rule mark" transform="translate(172.75190695686206,0)" x2="0" y2="300" stroke="green" stroke-width="2" stroke-dasharray="0"/><line aria-label="x: 622.91604075; label: 75パーセンタイル (生存パス)" role="graphics-symbol" aria-roledescription="rule mark" transform="translate(253.7496244502749,0)" x2="0" y2="300" stroke="purple" stroke-width="2" stroke-dasharray="0"/></g><g class="mark-group role-legend" role="graphics-symbol" aria-roledescription="legend" aria-label="Symbol legend for stroke color with 4 values: 期待支出額 (1.77%インフレ考慮), 25パーセンタイル (生存パス), 50パーセンタイル (中央値), 75パーセンタイル (生存パス)"><g transform="translate(0,-29)"><path class="background" aria-hidden="true" d="M0,0h628v11h-628Z" pointer-events="none"/><g><g class="mark-group role-legend-entry"><g transform="translate(0,0)"><path class="background" aria-hidden="true" d="M0,0h0v0h0Z" pointer-events="none"/><g><g class="mark-group role-scope" role="graphics-object" aria-roledescription="group mark container"><g transform="translate(0,0)"><path class="background" aria-hidden="true" d="M0,0h163.79296875v11h-163.79296875Z" pointer-events="none" opacity="1"/><g><g class="mark-symbol role-legend-symbol" pointer-events="none"><path transform="translate(6,6)" d="M-5,0L5,0" stroke="red" stroke-width="1.5" opacity="1"/></g><g class="mark-text role-legend-label" pointer-events="none"><text text-anchor="start" transform="translate(16,9)" font-family="sans-serif" font-size="10px" fill="#000" opacity="1">期待支出額 (1.77%インフレ考慮)</text></g></g><path class="foreground" aria-hidden="true" d="" pointer-events="none" display="none"/></g><g transform="translate(175,0)"><path class="background" aria-hidden="true" d="M0,0h146.5615234375v11h-146.5615234375Z" pointer-events="none" opacity="1"/><g><g class="mark-symbol role-legend-symbol" pointer-events="none"><path transform="translate(6,6)" d="M-5,0L5,0" stroke="blue" stroke-width="1.5" opacity="1"/></g><g class="mark-text role-legend-label" pointer-events="none"><text text-anchor="start" transform="translate(16,9)" font-family="sans-serif" font-size="10px" fill="#000" opacity="1">25パーセンタイル (生存パス)</text></g></g><path class="foreground" aria-hidden="true" d="" pointer-events="none" display="none"/></g><g transform="translate(333,0)"><path class="background" aria-hidden="true" d="M0,0h136.5615234375v11h-136.5615234375Z" pointer-events="none" opacity="1"/><g><g class="mark-symbol role-legend-symbol" pointer-events="none"><path transform="translate(6,6)" d="M-5,0L5,0" stroke="green" stroke-width="1.5" opacity="1"/></g><g class="mark-text role-legend-label" pointer-events="none"><text text-anchor="start" transform="translate(16,9)" font-family="sans-serif" font-size="10px" fill="#000" opacity="1">50パーセンタイル (中央値)</text></g></g><path class="foreground" aria-hidden="true" d="" pointer-events="none" display="none"/></g><g transform="translate(481,0)"><path class="background" aria-hidden="true" d="M0,0h146.5615234375v11h-146.5615234375Z" pointer-events="none" opacity="1"/><g><g class="mark-symbol role-legend-symbol" pointer-events="none"><path transform="translate(6,6)" d="M-5,0L5,0" stroke="purple" stroke-width="1.5" opacity="1"/></g><g class="mark-text role-legend-label" pointer-events="none"><text text-anchor="start" transform="translate(16,9)" font-family="sans-serif" font-size="10px" fill="#000" opacity="1">75パーセンタイル (生存パス)</text></g></g><path class="foreground" aria-hidden="true" d="" pointer-events="none" display="none"/></g></g></g><path class="foreground" aria-hidden="true" d="" pointer-events="none" display="none"/></g></g></g><path class="foreground" aria-hidden="true" d="" pointer-events="none" display="none"/></g></g><g class="mark-group role-title"><g transform="translate(300,-46)"><path class="background" aria-hidden="true" d="M0,0h0v0h0Z" pointer-events="none"/><g><g class="mark-text role-title-text" role="graphics-symbol" aria-roledescription="title" aria-label="Title text '名目支出額の分布: 30年目 (上限5.0%, 下限-1.5%) - 破産ケース 13.6% を除外'" pointer-events="none"><text text-anchor="middle" transform="translate(0,10)" font-family="sans-serif" font-size="13px" font-weight="bold" fill="#000" opacity="1">名目支出額の分布: 30年目 (上限5.0%, 下限-1.5%) - 破産ケース 13.6% を除外</text></g></g><path class="foreground" aria-hidden="true" d="" pointer-events="none" display="none"/></g></g></g><path class="foreground" aria-hidden="true" d="" display="none"/></g></g></g></svg>