<svg xmlns="http://www.w3.org/2000/svg" xmlns:xlink="http://www.w3.org/1999/xlink" version="1.1" class="marks" width="677" height="388" viewBox="0 0 677 388"><rect width="677" height="388" fill="white"/><g fill="none" stroke-miterlimit="10" transform="translate(44,51)"><g class="mark-group role-frame root" role="graphics-object" aria-roledescription="group mark container"><g transform="translate(0,0)"><path class="background" aria-hidden="true" d="M0.5,0.5h600v300h-600Z" stroke="#ddd"/><g><g class="mark-group role-axis" aria-hidden="true"><g transform="translate(0.5,0.5)"><path class="background" aria-hidden="true" d="M0,0h0v0h0Z" pointer-events="none"/><g><g class="mark-rule role-axis-grid" pointer-events="none"><line transform="translate(0,300)" x2="600" y2="0" stroke="#ddd" stroke-width="1" opacity="1"/><line transform="translate(0,270)" x2="600" y2="0" stroke="#ddd" stroke-width="1" opacity="1"/><line transform="translate(0,240)" x2="600" y2="0" stroke="#ddd" stroke-width="1" opacity="1"/><line transform="translate(0,210)" x2="600" y2="0" stroke="#ddd" stroke-width="1" opacity="1"/><line transform="translate(0,180)" x2="600" y2="0" stroke="#ddd" stroke-width="1" opacity="1"/><line transform="translate(0,150)" x2="600" y2="0" stroke="#ddd" stroke-width="1" opacity="1"/><line transform="translate(0,120)" x2="600" y2="0" stroke="#ddd" stroke-width="1" opacity="1"/><line transform="translate(0,90)" x2="600" y2="0" stroke="#ddd" stroke-width="1" opacity="1"/><line transform="translate(0,60)" x2="600" y2="0" stroke="#ddd" stroke-width="1" opacity="1"/><line transform="translate(0,30)" x2="600" y2="0" stroke="#ddd" stroke-width="1" opacity="1"/><line transform="translate(0,0)" x2="600" y2="0" stroke="#ddd" stroke-width="1" opacity="1"/></g></g><path class="foreground" aria-hidden="true" d="" pointer-events="none" display="none"/></g></g><g class="mark-group role-axis" role="graphics-symbol" aria-roledescription="axis" aria-label="X-axis titled '年間支出額 (名目) (万円)' for a linear scale with values from 200 to 1,200"><g transform="translate(0.5,300.5)"><path class="background" aria-hidden="true" d="M0,0h0v0h0Z" pointer-events="none"/><g><g class="mark-rule role-axis-tick" pointer-events="none"><line transform="translate(30,0)" x2="0" y2="5" stroke="#888" stroke-width="1" opacity="1"/><line transform="translate(36,0)" x2="0" y2="5" stroke="#888" stroke-width="1" opacity="1"/><line transform="translate(42,0)" x2="0" y2="5" stroke="#888" stroke-width="1" opacity="1"/><line transform="translate(48,0)" x2="0" y2="5" stroke="#888" stroke-width="1" opacity="1"/><line transform="translate(54,0)" x2="0" y2="5" stroke="#888" stroke-width="1" opacity="1"/><line transform="translate(60,0)" x2="0" y2="5" stroke="#888" stroke-width="1" opacity="1"/><line transform="translate(66,0)" x2="0" y2="5" stroke="#888" stroke-width="1" opacity="1"/><line transform="translate(72,0)" x2="0" y2="5" stroke="#888" stroke-width="1" opacity="1"/><line transform="translate(78,0)" x2="0" y2="5" stroke="#888" stroke-width="1" opacity="1"/><line transform="translate(84,0)" x2="0" y2="5" stroke="#888" stroke-width="1" opacity="1"/><line transform="translate(90,0)" x2="0" y2="5" stroke="#888" stroke-width="1" opacity="1"/><line transform="translate(96,0)" x2="0" y2="5" stroke="#888" stroke-width="1" opacity="1"/><line transform="translate(102,0)" x2="0" y2="5" stroke="#888" stroke-width="1" opacity="1"/><line transform="translate(108,0)" x2="0" y2="5" stroke="#888" stroke-width="1" opacity="1"/><line transform="translate(114,0)" x2="0" y2="5" stroke="#888" stroke-width="1" opacity="1"/><line transform="translate(120,0)" x2="0" y2="5" stroke="#888" stroke-width="1" opacity="1"/><line transform="translate(126,0)" x2="0" y2="5" stroke="#888" stroke-width="1" opacity="1"/><line transform="translate(132,0)" x2="0" y2="5" stroke="#888" stroke-width="1" opacity="1"/><line transform="translate(138,0)" x2="0" y2="5" stroke="#888" stroke-width="1" opacity="1"/><line transform="translate(144,0)" x2="0" y2="5" stroke="#888" stroke-width="1" opacity="1"/><line transform="translate(150,0)" x2="0" y2="5" stroke="#888" stroke-width="1" opacity="1"/><line transform="translate(156,0)" x2="0" y2="5" stroke="#888" stroke-width="1" opacity="1"/><line transform="translate(162,0)" x2="0" y2="5" stroke="#888" stroke-width="1" opacity="1"/><line transform="translate(168,0)" x2="0" y2="5" stroke="#888" stroke-width="1" opacity="1"/><line transform="translate(174,0)" x2="0" y2="5" stroke="#888" stroke-width="1" opacity="1"/><line transform="translate(180,0)" x2="0" y2="5" stroke="#888" stroke-width="1" opacity="1"/><line transform="translate(186,0)" x2="0" y2="5" stroke="#888" stroke-width="1" opacity="1"/><line transform="translate(192,0)" x2="0" y2="5" stroke="#888" stroke-width="1" opacity="1"/><line transform="translate(198,0)" x2="0" y2="5" stroke="#888" stroke-width="1" opacity="1"/><line transform="translate(204,0)" x2="0" y2="5" stroke="#888" stroke-width="1" opacity="1"/><line transform="translate(210,0)" x2="0" y2="5" stroke="#888" stroke-width="1" opacity="1"/><line transform="translate(216,0)" x2="0" y2="5" stroke="#888" stroke-width="1" opacity="1"/><line transform="translate(222,0)" x2="0" y2="5" stroke="#888" stroke-width="1" opacity="1"/><line transform="translate(228,0)" x2="0" y2="5" stroke="#888" stroke-width="1" opacity="1"/><line transform="translate(234,0)" x2="0" y2="5" stroke="#888" stroke-width="1" opacity="1"/><line transform="translate(240,0)" x2="0" y2="5" stroke="#888" stroke-width="1" opacity="1"/><line transform="translate(246,0)" x2="0" y2="5" stroke="#888" stroke-width="1" opacity="1"/><line transform="translate(252,0)" x2="0" y2="5" stroke="#888" stroke-width="1" opacity="1"/><line transform="translate(258,0)" x2="0" y2="5" stroke="#888" stroke-width="1" opacity="1"/><line transform="translate(264,0)" x2="0" y2="5" stroke="#888" stroke-width="1" opacity="1"/><line transform="translate(270,0)" x2="0" y2="5" stroke="#888" stroke-width="1" opacity="1"/><line transform="translate(276,0)" x2="0" y2="5" stroke="#888" stroke-width="1" opacity="1"/><line transform="translate(282,0)" x2="0" y2="5" stroke="#888" stroke-width="1" opacity="1"/><line transform="translate(288,0)" x2="0" y2="5" stroke="#888" stroke-width="1" opacity="1"/><line transform="translate(294,0)" x2="0" y2="5" stroke="#888" stroke-width="1" opacity="1"/><line transform="translate(300,0)" x2="0" y2="5" stroke="#888" stroke-width="1" opacity="1"/><line transform="translate(306,0)" x2="0" y2="5" stroke="#888" stroke-width="1" opacity="1"/><line transform="translate(312,0)" x2="0" y2="5" stroke="#888" stroke-width="1" opacity="1"/><line transform="translate(318,0)" x2="0" y2="5" stroke="#888" stroke-width="1" opacity="1"/><line transform="translate(324,0)" x2="0" y2="5" stroke="#888" stroke-width="1" opacity="1"/><line transform="translate(330,0)" x2="0" y2="5" stroke="#888" stroke-width="1" opacity="1"/><line transform="translate(336,0)" x2="0" y2="5" stroke="#888" stroke-width="1" opacity="1"/><line transform="translate(342,0)" x2="0" y2="5" stroke="#888" stroke-width="1" opacity="1"/><line transform="translate(348,0)" x2="0" y2="5" stroke="#888" stroke-width="1" opacity="1"/><line transform="translate(354,0)" x2="0" y2="5" stroke="#888" stroke-width="1" opacity="1"/><line transform="translate(360,0)" x2="0" y2="5" stroke="#888" stroke-width="1" opacity="1"/><line transform="translate(366,0)" x2="0" y2="5" stroke="#888" stroke-width="1" opacity="1"/><line transform="translate(372,0)" x2="0" y2="5" stroke="#888" stroke-width="1" opacity="1"/><line transform="translate(378,0)" x2="0" y2="5" stroke="#888" stroke-width="1" opacity="1"/><line transform="translate(384,0)" x2="0" y2="5" stroke="#888" stroke-width="1" opacity="1"/><line transform="translate(390,0)" x2="0" y2="5" stroke="#888" stroke-width="1" opacity="1"/><line transform="translate(396,0)" x2="0" y2="5" stroke="#888" stroke-width="1" opacity="1"/><line transform="translate(402,0)" x2="0" y2="5" stroke="#888" stroke-width="1" opacity="1"/><line transform="translate(408,0)" x2="0" y2="5" stroke="#888" stroke-width="1" opacity="1"/><line transform="translate(414,0)" x2="0" y2="5" stroke="#888" stroke-width="1" opacity="1"/><line transform="translate(420,0)" x2="0" y2="5" stroke="#888" stroke-width="1" opacity="1"/><line transform="translate(426,0)" x2="0" y2="5" stroke="#888" stroke-width="1" opacity="1"/><line transform="translate(432,0)" x2="0" y2="5" stroke="#888" stroke-width="1" opacity="1"/><line transform="translate(438,0)" x2="0" y2="5" stroke="#888" stroke-width="1" opacity="1"/><line transform="translate(444,0)" x2="0" y2="5" stroke="#888" stroke-width="1" opacity="1"/><line transform="translate(450,0)" x2="0" y2="5" stroke="#888" stroke-width="1" opacity="1"/><line transform="translate(456,0)" x2="0" y2="5" stroke="#888" stroke-width="1" opacity="1"/><line transform="translate(462,0)" x2="0" y2="5" stroke="#888" stroke-width="1" opacity="1"/><line transform="translate(468,0)" x2="0" y2="5" stroke="#888" stroke-width="1" opacity="1"/><line transform="translate(474,0)" x2="0" y2="5" stroke="#888" stroke-width="1" opacity="1"/><line transform="translate(480,0)" x2="0" y2="5" stroke="#888" stroke-width="1" opacity="1"/><line transform="translate(486,0)" x2="0" y2="5" stroke="#888" stroke-width="1" opacity="1"/><line transform="translate(492,0)" x2="0" y2="5" stroke="#888" stroke-width="1" opacity="1"/><line transform="translate(498,0)" x2="0" y2="5" stroke="#888" stroke-width="1" opacity="1"/><line transform="translate(504,0)" x2="0" y2="5" stroke="#888" stroke-width="1" opacity="1"/><line transform="translate(510,0)" x2="0" y2="5" stroke="#888" stroke-width="1" opacity="1"/><line transform="translate(516,0)" x2="0" y2="5" stroke="#888" stroke-width="1" opacity="1"/><line transform="translate(522,0)" x2="0" y2="5" stroke="#888" stroke-width="1" opacity="1"/><line transform="translate(528,0)" x2="0" y2="5" stroke="#888" stroke-width="1" opacity="1"/><line transform="translate(534,0)" x2="0" y2="5" stroke="#888" stroke-width="1" opacity="1"/><line transform="translate(540,0)" x2="0" y2="5" stroke="#888" stroke-width="1" opacity="1"/><line transform="translate(546,0)" x2="0" y2="5" stroke="#888" stroke-width="1" opacity="1"/><line transform="translate(552,0)" x2="0" y2="5" stroke="#888" stroke-width="1" opacity="1"/><line transform="translate(558,0)" x2="0" y2="5" stroke="#888" stroke-width="1" opacity="1"/><line transform="translate(564,0)" x2="0" y2="5" stroke="#888" stroke-width="1" opacity="1"/></g><g class="mark-text role-axis-label" pointer-events="none"><text text-anchor="middle" transform="translate(30,15)" font-family="sans-serif" font-size="10px" fill="#000" opacity="1">250</text><text text-anchor="middle" transform="translate(36,15)" font-family="sans-serif" font-size="10px" fill="#000" opacity="0">260</text><text text-anchor="middle" transform="translate(42.00000000000001,15)" font-family="sans-serif" font-size="10px" fill="#000" opacity="0">270</text><text text-anchor="middle" transform="translate(48,15)" font-family="sans-serif" font-size="10px" fill="#000" opacity="0">280</text><text text-anchor="middle" transform="translate(54,15)" font-family="sans-serif" font-size="10px" fill="#000" opacity="0">290</text><text text-anchor="middle" transform="translate(60,15)" font-family="sans-serif" font-size="10px" fill="#000" opacity="0">300</text><text text-anchor="middle" transform="translate(66,15)" font-family="sans-serif" font-size="10px" fill="#000" opacity="0">310</text><text text-anchor="middle" transform="translate(72,15)" font-family="sans-serif" font-size="10px" fill="#000" opacity="0">320</text><text text-anchor="middle" transform="translate(78,15)" font-family="sans-serif" font-size="10px" fill="#000" opacity="1">330</text><text text-anchor="middle" transform="translate(84.00000000000001,15)" font-family="sans-serif" font-size="10px" fill="#000" opacity="0">340</text><text text-anchor="middle" transform="translate(90,15)" font-family="sans-serif" font-size="10px" fill="#000" opacity="0">350</text><text text-anchor="middle" transform="translate(96,15)" font-family="sans-serif" font-size="10px" fill="#000" opacity="0">360</text><text text-anchor="middle" transform="translate(102.00000000000001,15)" font-family="sans-serif" font-size="10px" fill="#000" opacity="0">370</text><text text-anchor="middle" transform="translate(108,15)" font-family="sans-serif" font-size="10px" fill="#000" opacity="0">380</text><text text-anchor="middle" transform="translate(114,15)" font-family="sans-serif" font-size="10px" fill="#000" opacity="0">390</text><text text-anchor="middle" transform="translate(120,15)" font-family="sans-serif" font-size="10px" fill="#000" opacity="0">400</text><text text-anchor="middle" transform="translate(126,15)" font-family="sans-serif" font-size="10px" fill="#000" opacity="1">410</text><text text-anchor="middle" transform="translate(132,15)" font-family="sans-serif" font-size="10px" fill="#000" opacity="0">420</text><text text-anchor="middle" transform="translate(138,15)" font-family="sans-serif" font-size="10px" fill="#000" opacity="0">430</text><text text-anchor="middle" transform="translate(144,15)" font-family="sans-serif" font-size="10px" fill="#000" opacity="0">440</text><text text-anchor="middle" transform="translate(150,15)" font-family="sans-serif" font-size="10px" fill="#000" opacity="0">450</text><text text-anchor="middle" transform="translate(156,15)" font-family="sans-serif" font-size="10px" fill="#000" opacity="0">460</text><text text-anchor="middle" transform="translate(162,15)" font-family="sans-serif" font-size="10px" fill="#000" opacity="0">470</text><text text-anchor="middle" transform="translate(168.00000000000003,15)" font-family="sans-serif" font-size="10px" fill="#000" opacity="0">480</text><text text-anchor="middle" transform="translate(174,15)" font-family="sans-serif" font-size="10px" fill="#000" opacity="1">490</text><text text-anchor="middle" transform="translate(180,15)" font-family="sans-serif" font-size="10px" fill="#000" opacity="0">500</text><text text-anchor="middle" transform="translate(186,15)" font-family="sans-serif" font-size="10px" fill="#000" opacity="0">510</text><text text-anchor="middle" transform="translate(192,15)" font-family="sans-serif" font-size="10px" fill="#000" opacity="0">520</text><text text-anchor="middle" transform="translate(198,15)" font-family="sans-serif" font-size="10px" fill="#000" opacity="0">530</text><text text-anchor="middle" transform="translate(204.00000000000003,15)" font-family="sans-serif" font-size="10px" fill="#000" opacity="0">540</text><text text-anchor="middle" transform="translate(210,15)" font-family="sans-serif" font-size="10px" fill="#000" opacity="0">550</text><text text-anchor="middle" transform="translate(216,15)" font-family="sans-serif" font-size="10px" fill="#000" opacity="0">560</text><text text-anchor="middle" transform="translate(222,15)" font-family="sans-serif" font-size="10px" fill="#000" opacity="1">570</text><text text-anchor="middle" transform="translate(228,15)" font-family="sans-serif" font-size="10px" fill="#000" opacity="0">580</text><text text-anchor="middle" transform="translate(234,15)" font-family="sans-serif" font-size="10px" fill="#000" opacity="0">590</text><text text-anchor="middle" transform="translate(240,15)" font-family="sans-serif" font-size="10px" fill="#000" opacity="0">600</text><text text-anchor="middle" transform="translate(245.99999999999997,15)" font-family="sans-serif" font-size="10px" fill="#000" opacity="0">610</text><text text-anchor="middle" transform="translate(252,15)" font-family="sans-serif" font-size="10px" fill="#000" opacity="0">620</text><text text-anchor="middle" transform="translate(258,15)" font-family="sans-serif" font-size="10px" fill="#000" opacity="0">630</text><text text-anchor="middle" transform="translate(264,15)" font-family="sans-serif" font-size="10px" fill="#000" opacity="0">640</text><text text-anchor="middle" transform="translate(270,15)" font-family="sans-serif" font-size="10px" fill="#000" opacity="1">650</text><text text-anchor="middle" transform="translate(276,15)" font-family="sans-serif" font-size="10px" fill="#000" opacity="0">660</text><text text-anchor="middle" transform="translate(282,15)" font-family="sans-serif" font-size="10px" fill="#000" opacity="0">670</text><text text-anchor="middle" transform="translate(288,15)" font-family="sans-serif" font-size="10px" fill="#000" opacity="0">680</text><text text-anchor="middle" transform="translate(294,15)" font-family="sans-serif" font-size="10px" fill="#000" opacity="0">690</text><text text-anchor="middle" transform="translate(300,15)" font-family="sans-serif" font-size="10px" fill="#000" opacity="0">700</text><text text-anchor="middle" transform="translate(306,15)" font-family="sans-serif" font-size="10px" fill="#000" opacity="0">710</text><text text-anchor="middle" transform="translate(312,15)" font-family="sans-serif" font-size="10px" fill="#000" opacity="0">720</text><text text-anchor="middle" transform="translate(318,15)" font-family="sans-serif" font-size="10px" fill="#000" opacity="1">730</text><text text-anchor="middle" transform="translate(324,15)" font-family="sans-serif" font-size="10px" fill="#000" opacity="0">740</text><text text-anchor="middle" transform="translate(330,15)" font-family="sans-serif" font-size="10px" fill="#000" opacity="0">750</text><text text-anchor="middle" transform="translate(336.00000000000006,15)" font-family="sans-serif" font-size="10px" fill="#000" opacity="0">760</text><text text-anchor="middle" transform="translate(341.99999999999994,15)" font-family="sans-serif" font-size="10px" fill="#000" opacity="0">770</text><text text-anchor="middle" transform="translate(348,15)" font-family="sans-serif" font-size="10px" fill="#000" opacity="0">780</text><text text-anchor="middle" transform="translate(354,15)" font-family="sans-serif" font-size="10px" fill="#000" opacity="0">790</text><text text-anchor="middle" transform="translate(360,15)" font-family="sans-serif" font-size="10px" fill="#000" opacity="0">800</text><text text-anchor="middle" transform="translate(366,15)" font-family="sans-serif" font-size="10px" fill="#000" opacity="1">810</text><text text-anchor="middle" transform="translate(372,15)" font-family="sans-serif" font-size="10px" fill="#000" opacity="0">820</text><text text-anchor="middle" transform="translate(378,15)" font-family="sans-serif" font-size="10px" fill="#000" opacity="0">830</text><text text-anchor="middle" transform="translate(384,15)" font-family="sans-serif" font-size="10px" fill="#000" opacity="0">840</text><text text-anchor="middle" transform="translate(390,15)" font-family="sans-serif" font-size="10px" fill="#000" opacity="0">850</text><text text-anchor="middle" transform="translate(396,15)" font-family="sans-serif" font-size="10px" fill="#000" opacity="0">860</text><text text-anchor="middle" transform="translate(402,15)" font-family="sans-serif" font-size="10px" fill="#000" opacity="0">870</text><text text-anchor="middle" transform="translate(408.00000000000006,15)" font-family="sans-serif" font-size="10px" fill="#000" opacity="0">880</text><text text-anchor="middle" transform="translate(413.99999999999994,15)" font-family="sans-serif" font-size="10px" fill="#000" opacity="1">890</text><text text-anchor="middle" transform="translate(420,15)" font-family="sans-serif" font-size="10px" fill="#000" opacity="0">900</text><text text-anchor="middle" transform="translate(426,15)" font-family="sans-serif" font-size="10px" fill="#000" opacity="0">910</text><text text-anchor="middle" transform="translate(432,15)" font-family="sans-serif" font-size="10px" fill="#000" opacity="0">920</text><text text-anchor="middle" transform="translate(438,15)" font-family="sans-serif" font-size="10px" fill="#000" opacity="0">930</text><text text-anchor="middle" transform="translate(444,15)" font-family="sans-serif" font-size="10px" fill="#000" opacity="0">940</text><text text-anchor="middle" transform="translate(450,15)" font-family="sans-serif" font-size="10px" fill="#000" opacity="0">950</text><text text-anchor="middle" transform="translate(456,15)" font-family="sans-serif" font-size="10px" fill="#000" opacity="0">960</text><text text-anchor="middle" transform="translate(462,15)" font-family="sans-serif" font-size="10px" fill="#000" opacity="1">970</text><text text-anchor="middle" transform="translate(468,15)" font-family="sans-serif" font-size="10px" fill="#000" opacity="0">980</text><text text-anchor="middle" transform="translate(474,15)" font-family="sans-serif" font-size="10px" fill="#000" opacity="0">990</text><text text-anchor="middle" transform="translate(480,15)" font-family="sans-serif" font-size="10px" fill="#000" opacity="0">1,000</text><text text-anchor="middle" transform="translate(486.00000000000006,15)" font-family="sans-serif" font-size="10px" fill="#000" opacity="0">1,010</text><text text-anchor="middle" transform="translate(491.99999999999994,15)" font-family="sans-serif" font-size="10px" fill="#000" opacity="0">1,020</text><text text-anchor="middle" transform="translate(498,15)" font-family="sans-serif" font-size="10px" fill="#000" opacity="0">1,030</text><text text-anchor="middle" transform="translate(504,15)" font-family="sans-serif" font-size="10px" fill="#000" opacity="0">1,040</text><text text-anchor="middle" transform="translate(510,15)" font-family="sans-serif" font-size="10px" fill="#000" opacity="1">1,050</text><text text-anchor="middle" transform="translate(516,15)" font-family="sans-serif" font-size="10px" fill="#000" opacity="0">1,060</text><text text-anchor="middle" transform="translate(522,15)" font-family="sans-serif" font-size="10px" fill="#000" opacity="0">1,070</text><text text-anchor="middle" transform="translate(528,15)" font-family="sans-serif" font-size="10px" fill="#000" opacity="0">1,080</text><text text-anchor="middle" transform="translate(534,15)" font-family="sans-serif" font-size="10px" fill="#000" opacity="0">1,090</text><text text-anchor="middle" transform="translate(540,15)" font-family="sans-serif" font-size="10px" fill="#000" opacity="0">1,100</text><text text-anchor="middle" transform="translate(546,15)" font-family="sans-serif" font-size="10px" fill="#000" opacity="0">1,110</text><text text-anchor="middle" transform="translate(552,15)" font-family="sans-serif" font-size="10px" fill="#000" opacity="0">1,120</text><text text-anchor="middle" transform="translate(558,15)" font-family="sans-serif" font-size="10px" fill="#000" opacity="1">1,130</text><text text-anchor="middle" transform="translate(564,15)" font-family="sans-serif" font-size="10px" fill="#000" opacity="0">1,140</text></g><g class="mark-rule role-axis-domain" pointer-events="none"><line transform="translate(0,0)" x2="600" y2="0" stroke="#888" stroke-width="1" opacity="1"/></g><g class="mark-text role-axis-title" pointer-events="none"><text text-anchor="middle" transform="translate(300,30)" font-family="sans-serif" font-size="11px" font-weight="bold" fill="#000" opacity="1">年間支出額 (名目) (万円)</text></g></g><path class="foreground" aria-hidden="true" d="" pointer-events="none" display="none"/></g></g><g class="mark-group role-axis" role="graphics-symbol" aria-roledescription="axis" aria-label="Y-axis titled '試行回数' for a linear scale with values from 0 to 200"><g transform="translate(0.5,0.5)"><path class="background" aria-hidden="true" d="M0,0h0v0h0Z" pointer-events="none"/><g><g class="mark-rule role-axis-tick" pointer-events="none"><line transform="translate(0,300)" x2="-5" y2="0" stroke="#888" stroke-width="1" opacity="1"/><line transform="translate(0,270)" x2="-5" y2="0" stroke="#888" stroke-width="1" opacity="1"/><line transform="translate(0,240)" x2="-5" y2="0" stroke="#888" stroke-width="1" opacity="1"/><line transform="translate(0,210)" x2="-5" y2="0" stroke="#888" stroke-width="1" opacity="1"/><line transform="translate(0,180)" x2="-5" y2="0" stroke="#888" stroke-width="1" opacity="1"/><line transform="translate(0,150)" x2="-5" y2="0" stroke="#888" stroke-width="1" opacity="1"/><line transform="translate(0,120)" x2="-5" y2="0" stroke="#888" stroke-width="1" opacity="1"/><line transform="translate(0,90)" x2="-5" y2="0" stroke="#888" stroke-width="1" opacity="1"/><line transform="translate(0,60)" x2="-5" y2="0" stroke="#888" stroke-width="1" opacity="1"/><line transform="translate(0,30)" x2="-5" y2="0" stroke="#888" stroke-width="1" opacity="1"/><line transform="translate(0,0)" x2="-5" y2="0" stroke="#888" stroke-width="1" opacity="1"/></g><g class="mark-text role-axis-label" pointer-events="none"><text text-anchor="end" transform="translate(-7,303)" font-family="sans-serif" font-size="10px" fill="#000" opacity="1">0</text><text text-anchor="end" transform="translate(-7,273)" font-family="sans-serif" font-size="10px" fill="#000" opacity="1">20</text><text text-anchor="end" transform="translate(-7,243)" font-family="sans-serif" font-size="10px" fill="#000" opacity="1">40</text><text text-anchor="end" transform="translate(-7,213)" font-family="sans-serif" font-size="10px" fill="#000" opacity="1">60</text><text text-anchor="end" transform="translate(-7,183)" font-family="sans-serif" font-size="10px" fill="#000" opacity="1">80</text><text text-anchor="end" transform="translate(-7,153)" font-family="sans-serif" font-size="10px" fill="#000" opacity="1">100</text><text text-anchor="end" transform="translate(-7,123)" font-family="sans-serif" font-size="10px" fill="#000" opacity="1">120</text><text text-anchor="end" transform="translate(-7,93.00000000000001)" font-family="sans-serif" font-size="10px" fill="#000" opacity="1">140</text><text text-anchor="end" transform="translate(-7,62.999999999999986)" font-family="sans-serif" font-size="10px" fill="#000" opacity="1">160</text><text text-anchor="end" transform="translate(-7,32.99999999999999)" font-family="sans-serif" font-size="10px" fill="#000" opacity="1">180</text><text text-anchor="end" transform="translate(-7,3)" font-family="sans-serif" font-size="10px" fill="#000" opacity="1">200</text></g><g class="mark-rule role-axis-domain" pointer-events="none"><line transform="translate(0,300)" x2="0" y2="-300" stroke="#888" stroke-width="1" opacity="1"/></g><g class="mark-text role-axis-title" pointer-events="none"><text text-anchor="middle" transform="translate(-27.6845703125,150) rotate(-90) translate(0,-2)" font-family="sans-serif" font-size="11px" font-weight="bold" fill="#000" opacity="1">試行回数</text></g></g><path class="foreground" aria-hidden="true" d="" pointer-events="none" display="none"/></g></g><g class="mark-rect role-mark layer_0_marks" role="graphics-object" aria-roledescription="rect mark container"><path aria-label="年間支出額 (名目) (万円): 610 – 620; 試行回数: 80" role="graphics-symbol" aria-roledescription="bar" d="M246.99999999999997,180h5.000000000000028v120h-5.000000000000028Z" fill="#4c78a8" opacity="0.6"/><path aria-label="年間支出額 (名目) (万円): 370 – 380; 試行回数: 94" role="graphics-symbol" aria-roledescription="bar" d="M103.00000000000001,159h4.999999999999986v141h-4.999999999999986Z" fill="#4c78a8" opacity="0.6"/><path aria-label="年間支出額 (名目) (万円): 460 – 470; 試行回数: 80" role="graphics-symbol" aria-roledescription="bar" d="M157,180h5v120h-5Z" fill="#4c78a8" opacity="0.6"/><path aria-label="年間支出額 (名目) (万円): 500 – 510; 試行回数: 81" role="graphics-symbol" aria-roledescription="bar" d="M181,178.5h5v121.5h-5Z" fill="#4c78a8" opacity="0.6"/><path aria-label="年間支出額 (名目) (万円): 510 – 520; 試行回数: 88" role="graphics-symbol" aria-roledescription="bar" d="M187,168.00000000000003h5v131.99999999999997h-5Z" fill="#4c78a8" opacity="0.6"/><path aria-label="年間支出額 (名目) (万円): 300 – 310; 試行回数: 73" role="graphics-symbol" aria-roledescription="bar" d="M61,190.5h5v109.5h-5Z" fill="#4c78a8" opacity="0.6"/><path aria-label="年間支出額 (名目) (万円): 320 – 330; 試行回数: 92" role="graphics-symbol" aria-roledescription="bar" d="M73,162h5v138h-5Z" fill="#4c78a8" opacity="0.6"/><path aria-label="年間支出額 (名目) (万円): 660 – 670; 試行回数: 60" role="graphics-symbol" aria-roledescription="bar" d="M277,210h5v90h-5Z" fill="#4c78a8" opacity="0.6"/><path aria-label="年間支出額 (名目) (万円): 410 – 420; 試行回数: 101" role="graphics-symbol" aria-roledescription="bar" d="M127,148.5h5v151.5h-5Z" fill="#4c78a8" opacity="0.6"/><path aria-label="年間支出額 (名目) (万円): 550 – 560; 試行回数: 90" role="graphics-symbol" aria-roledescription="bar" d="M211,165h5v135h-5Z" fill="#4c78a8" opacity="0.6"/><path aria-label="年間支出額 (名目) (万円): 290 – 300; 試行回数: 95" role="graphics-symbol" aria-roledescription="bar" d="M55,157.5h5v142.5h-5Z" fill="#4c78a8" opacity="0.6"/><path aria-label="年間支出額 (名目) (万円): 310 – 320; 試行回数: 106" role="graphics-symbol" aria-roledescription="bar" d="M67,141h5v159h-5Z" fill="#4c78a8" opacity="0.6"/><path aria-label="年間支出額 (名目) (万円): 270 – 280; 試行回数: 130" role="graphics-symbol" aria-roledescription="bar" d="M43.00000000000001,105h4.999999999999993v195h-4.999999999999993Z" fill="#4c78a8" opacity="0.6"/><path aria-label="年間支出額 (名目) (万円): 900 – 910; 試行回数: 7" role="graphics-symbol" aria-roledescription="bar" d="M421,289.5h5v10.5h-5Z" fill="#4c78a8" opacity="0.6"/><path aria-label="年間支出額 (名目) (万円): 600 – 610; 試行回数: 70" role="graphics-symbol" aria-roledescription="bar" d="M241,195h4.999999999999972v105h-4.999999999999972Z" fill="#4c78a8" opacity="0.6"/><path aria-label="年間支出額 (名目) (万円): 730 – 740; 試行回数: 50" role="graphics-symbol" aria-roledescription="bar" d="M319,225h5v75h-5Z" fill="#4c78a8" opacity="0.6"/><path aria-label="年間支出額 (名目) (万円): 380 – 390; 試行回数: 80" role="graphics-symbol" aria-roledescription="bar" d="M109,180h5v120h-5Z" fill="#4c78a8" opacity="0.6"/><path aria-label="年間支出額 (名目) (万円): 720 – 730; 試行回数: 40" role="graphics-symbol" aria-roledescription="bar" d="M313,240h5v60h-5Z" fill="#4c78a8" opacity="0.6"/><path aria-label="年間支出額 (名目) (万円): 520 – 530; 試行回数: 102" role="graphics-symbol" aria-roledescription="bar" d="M193,147h5v153h-5Z" fill="#4c78a8" opacity="0.6"/><path aria-label="年間支出額 (名目) (万円): 690 – 700; 試行回数: 54" role="graphics-symbol" aria-roledescription="bar" d="M295,219h5v81h-5Z" fill="#4c78a8" opacity="0.6"/><path aria-label="年間支出額 (名目) (万円): 400 – 410; 試行回数: 97" role="graphics-symbol" aria-roledescription="bar" d="M121,154.5h5v145.5h-5Z" fill="#4c78a8" opacity="0.6"/><path aria-label="年間支出額 (名目) (万円): 350 – 360; 試行回数: 93" role="graphics-symbol" aria-roledescription="bar" d="M91,160.49999999999997h5v139.50000000000003h-5Z" fill="#4c78a8" opacity="0.6"/><path aria-label="年間支出額 (名目) (万円): 570 – 580; 試行回数: 76" role="graphics-symbol" aria-roledescription="bar" d="M223,186h5v114h-5Z" fill="#4c78a8" opacity="0.6"/><path aria-label="年間支出額 (名目) (万円): 430 – 440; 試行回数: 105" role="graphics-symbol" aria-roledescription="bar" d="M139,142.5h5v157.5h-5Z" fill="#4c78a8" opacity="0.6"/><path aria-label="年間支出額 (名目) (万円): 780 – 790; 試行回数: 25" role="graphics-symbol" aria-roledescription="bar" d="M349,262.5h5v37.5h-5Z" fill="#4c78a8" opacity="0.6"/><path aria-label="年間支出額 (名目) (万円): 490 – 500; 試行回数: 80" role="graphics-symbol" aria-roledescription="bar" d="M175,180h5v120h-5Z" fill="#4c78a8" opacity="0.6"/><path aria-label="年間支出額 (名目) (万円): 340 – 350; 試行回数: 92" role="graphics-symbol" aria-roledescription="bar" d="M85.00000000000001,162h4.999999999999986v138h-4.999999999999986Z" fill="#4c78a8" opacity="0.6"/><path aria-label="年間支出額 (名目) (万円): 590 – 600; 試行回数: 69" role="graphics-symbol" aria-roledescription="bar" d="M235,196.5h5v103.5h-5Z" fill="#4c78a8" opacity="0.6"/><path aria-label="年間支出額 (名目) (万円): 700 – 710; 試行回数: 45" role="graphics-symbol" aria-roledescription="bar" d="M301,232.5h5v67.5h-5Z" fill="#4c78a8" opacity="0.6"/><path aria-label="年間支出額 (名目) (万円): 480 – 490; 試行回数: 87" role="graphics-symbol" aria-roledescription="bar" d="M169.00000000000003,169.49999999999997h4.999999999999972v130.50000000000003h-4.999999999999972Z" fill="#4c78a8" opacity="0.6"/><path aria-label="年間支出額 (名目) (万円): 450 – 460; 試行回数: 95" role="graphics-symbol" aria-roledescription="bar" d="M151,157.5h5v142.5h-5Z" fill="#4c78a8" opacity="0.6"/><path aria-label="年間支出額 (名目) (万円): 560 – 570; 試行回数: 75" role="graphics-symbol" aria-roledescription="bar" d="M217,187.5h5v112.5h-5Z" fill="#4c78a8" opacity="0.6"/><path aria-label="年間支出額 (名目) (万円): 360 – 370; 試行回数: 92" role="graphics-symbol" aria-roledescription="bar" d="M97,162h5.000000000000014v138h-5.000000000000014Z" fill="#4c78a8" opacity="0.6"/><path aria-label="年間支出額 (名目) (万円): 540 – 550; 試行回数: 88" role="graphics-symbol" aria-roledescription="bar" d="M205.00000000000003,168.00000000000003h4.999999999999972v131.99999999999997h-4.999999999999972Z" fill="#4c78a8" opacity="0.6"/><path aria-label="年間支出額 (名目) (万円): 250 – 260; 試行回数: 189" role="graphics-symbol" aria-roledescription="bar" d="M31,16.500000000000014h5v283.5h-5Z" fill="#4c78a8" opacity="0.6"/><path aria-label="年間支出額 (名目) (万円): 530 – 540; 試行回数: 80" role="graphics-symbol" aria-roledescription="bar" d="M199,180h5.000000000000028v120h-5.000000000000028Z" fill="#4c78a8" opacity="0.6"/><path aria-label="年間支出額 (名目) (万円): 470 – 480; 試行回数: 86" role="graphics-symbol" aria-roledescription="bar" d="M163,171.00000000000003h5.000000000000028v128.99999999999997h-5.000000000000028Z" fill="#4c78a8" opacity="0.6"/><path aria-label="年間支出額 (名目) (万円): 330 – 340; 試行回数: 99" role="graphics-symbol" aria-roledescription="bar" d="M79,151.5h5.000000000000014v148.5h-5.000000000000014Z" fill="#4c78a8" opacity="0.6"/><path aria-label="年間支出額 (名目) (万円): 630 – 640; 試行回数: 64" role="graphics-symbol" aria-roledescription="bar" d="M259,203.99999999999997h5v96.00000000000003h-5Z" fill="#4c78a8" opacity="0.6"/><path aria-label="年間支出額 (名目) (万円): 810 – 820; 試行回数: 27" role="graphics-symbol" aria-roledescription="bar" d="M367,259.5h5v40.5h-5Z" fill="#4c78a8" opacity="0.6"/><path aria-label="年間支出額 (名目) (万円): 420 – 430; 試行回数: 80" role="graphics-symbol" aria-roledescription="bar" d="M133,180h5v120h-5Z" fill="#4c78a8" opacity="0.6"/><path aria-label="年間支出額 (名目) (万円): 580 – 590; 試行回数: 68" role="graphics-symbol" aria-roledescription="bar" d="M229,197.99999999999997h5v102.00000000000003h-5Z" fill="#4c78a8" opacity="0.6"/><path aria-label="年間支出額 (名目) (万円): 710 – 720; 試行回数: 51" role="graphics-symbol" aria-roledescription="bar" d="M307,223.5h5v76.5h-5Z" fill="#4c78a8" opacity="0.6"/><path aria-label="年間支出額 (名目) (万円): 650 – 660; 試行回数: 62" role="graphics-symbol" aria-roledescription="bar" d="M271,206.99999999999997h5v93.00000000000003h-5Z" fill="#4c78a8" opacity="0.6"/><path aria-label="年間支出額 (名目) (万円): 260 – 270; 試行回数: 60" role="graphics-symbol" aria-roledescription="bar" d="M37,210h5.000000000000007v90h-5.000000000000007Z" fill="#4c78a8" opacity="0.6"/><path aria-label="年間支出額 (名目) (万円): 680 – 690; 試行回数: 58" role="graphics-symbol" aria-roledescription="bar" d="M289,213h5v87h-5Z" fill="#4c78a8" opacity="0.6"/><path aria-label="年間支出額 (名目) (万円): 640 – 650; 試行回数: 55" role="graphics-symbol" aria-roledescription="bar" d="M265,217.5h5v82.5h-5Z" fill="#4c78a8" opacity="0.6"/><path aria-label="年間支出額 (名目) (万円): 850 – 860; 試行回数: 18" role="graphics-symbol" aria-roledescription="bar" d="M391,273h5v27h-5Z" fill="#4c78a8" opacity="0.6"/><path aria-label="年間支出額 (名目) (万円): 440 – 450; 試行回数: 80" role="graphics-symbol" aria-roledescription="bar" d="M145,180h5v120h-5Z" fill="#4c78a8" opacity="0.6"/><path aria-label="年間支出額 (名目) (万円): 670 – 680; 試行回数: 49" role="graphics-symbol" aria-roledescription="bar" d="M283,226.5h5v73.5h-5Z" fill="#4c78a8" opacity="0.6"/><path aria-label="年間支出額 (名目) (万円): 890 – 900; 試行回数: 4" role="graphics-symbol" aria-roledescription="bar" d="M414.99999999999994,294h5.000000000000057v6h-5.000000000000057Z" fill="#4c78a8" opacity="0.6"/><path aria-label="年間支出額 (名目) (万円): 800 – 810; 試行回数: 32" role="graphics-symbol" aria-roledescription="bar" d="M361,252h5v48h-5Z" fill="#4c78a8" opacity="0.6"/><path aria-label="年間支出額 (名目) (万円): 280 – 290; 試行回数: 69" role="graphics-symbol" aria-roledescription="bar" d="M49,196.5h5v103.5h-5Z" fill="#4c78a8" opacity="0.6"/><path aria-label="年間支出額 (名目) (万円): 920 – 930; 試行回数: 2" role="graphics-symbol" aria-roledescription="bar" d="M433,297h5v3h-5Z" fill="#4c78a8" opacity="0.6"/><path aria-label="年間支出額 (名目) (万円): 620 – 630; 試行回数: 66" role="graphics-symbol" aria-roledescription="bar" d="M253,200.99999999999997h5v99.00000000000003h-5Z" fill="#4c78a8" opacity="0.6"/><path aria-label="年間支出額 (名目) (万円): 790 – 800; 試行回数: 27" role="graphics-symbol" aria-roledescription="bar" d="M355,259.5h5v40.5h-5Z" fill="#4c78a8" opacity="0.6"/><path aria-label="年間支出額 (名目) (万円): 940 – 950; 試行回数: 7" role="graphics-symbol" aria-roledescription="bar" d="M445,289.5h5v10.5h-5Z" fill="#4c78a8" opacity="0.6"/><path aria-label="年間支出額 (名目) (万円): 750 – 760; 試行回数: 36" role="graphics-symbol" aria-roledescription="bar" d="M331,246.00000000000003h5.000000000000057v53.99999999999997h-5.000000000000057Z" fill="#4c78a8" opacity="0.6"/><path aria-label="年間支出額 (名目) (万円): 390 – 400; 試行回数: 74" role="graphics-symbol" aria-roledescription="bar" d="M115,189h5v111h-5Z" fill="#4c78a8" opacity="0.6"/><path aria-label="年間支出額 (名目) (万円): 770 – 780; 試行回数: 33" role="graphics-symbol" aria-roledescription="bar" d="M342.99999999999994,250.5h5.000000000000057v49.5h-5.000000000000057Z" fill="#4c78a8" opacity="0.6"/><path aria-label="年間支出額 (名目) (万円): 830 – 840; 試行回数: 20" role="graphics-symbol" aria-roledescription="bar" d="M379,270h5v30h-5Z" fill="#4c78a8" opacity="0.6"/><path aria-label="年間支出額 (名目) (万円): 760 – 770; 試行回数: 35" role="graphics-symbol" aria-roledescription="bar" d="M337.00000000000006,247.5h4.999999999999886v52.5h-4.999999999999886Z" fill="#4c78a8" opacity="0.6"/><path aria-label="年間支出額 (名目) (万円): 870 – 880; 試行回数: 12" role="graphics-symbol" aria-roledescription="bar" d="M403,282h5.000000000000057v18h-5.000000000000057Z" fill="#4c78a8" opacity="0.6"/><path aria-label="年間支出額 (名目) (万円): 1050 – 1060; 試行回数: 1" role="graphics-symbol" aria-roledescription="bar" d="M511,298.5h5v1.5h-5Z" fill="#4c78a8" opacity="0.6"/><path aria-label="年間支出額 (名目) (万円): 1030 – 1040; 試行回数: 3" role="graphics-symbol" aria-roledescription="bar" d="M499,295.5h5v4.5h-5Z" fill="#4c78a8" opacity="0.6"/><path aria-label="年間支出額 (名目) (万円): 740 – 750; 試行回数: 43" role="graphics-symbol" aria-roledescription="bar" d="M325,235.5h5v64.5h-5Z" fill="#4c78a8" opacity="0.6"/><path aria-label="年間支出額 (名目) (万円): 820 – 830; 試行回数: 16" role="graphics-symbol" aria-roledescription="bar" d="M373,276h5v24h-5Z" fill="#4c78a8" opacity="0.6"/><path aria-label="年間支出額 (名目) (万円): 840 – 850; 試行回数: 20" role="graphics-symbol" aria-roledescription="bar" d="M385,270h5v30h-5Z" fill="#4c78a8" opacity="0.6"/><path aria-label="年間支出額 (名目) (万円): 910 – 920; 試行回数: 5" role="graphics-symbol" aria-roledescription="bar" d="M427,292.5h5v7.5h-5Z" fill="#4c78a8" opacity="0.6"/><path aria-label="年間支出額 (名目) (万円): 860 – 870; 試行回数: 15" role="graphics-symbol" aria-roledescription="bar" d="M397,277.5h5v22.5h-5Z" fill="#4c78a8" opacity="0.6"/><path aria-label="年間支出額 (名目) (万円): 930 – 940; 試行回数: 7" role="graphics-symbol" aria-roledescription="bar" d="M439,289.5h5v10.5h-5Z" fill="#4c78a8" opacity="0.6"/><path aria-label="年間支出額 (名目) (万円): 1130 – 1140; 試行回数: 1" role="graphics-symbol" aria-roledescription="bar" d="M559,298.5h5v1.5h-5Z" fill="#4c78a8" opacity="0.6"/><path aria-label="年間支出額 (名目) (万円): 1000 – 1010; 試行回数: 2" role="graphics-symbol" aria-roledescription="bar" d="M481,297h5.000000000000057v3h-5.000000000000057Z" fill="#4c78a8" opacity="0.6"/><path aria-label="年間支出額 (名目) (万円): 970 – 980; 試行回数: 4" role="graphics-symbol" aria-roledescription="bar" d="M463,294h5v6h-5Z" fill="#4c78a8" opacity="0.6"/><path aria-label="年間支出額 (名目) (万円): 980 – 990; 試行回数: 3" role="graphics-symbol" aria-roledescription="bar" d="M469,295.5h5v4.5h-5Z" fill="#4c78a8" opacity="0.6"/><path aria-label="年間支出額 (名目) (万円): 1040 – 1050; 試行回数: 2" role="graphics-symbol" aria-roledescription="bar" d="M505,297h5v3h-5Z" fill="#4c78a8" opacity="0.6"/><path aria-label="年間支出額 (名目) (万円): 880 – 890; 試行回数: 6" role="graphics-symbol" aria-roledescription="bar" d="M409.00000000000006,291h4.999999999999886v9h-4.999999999999886Z" fill="#4c78a8" opacity="0.6"/><path aria-label="年間支出額 (名目) (万円): 950 – 960; 試行回数: 2" role="graphics-symbol" aria-roledescription="bar" d="M451,297h5v3h-5Z" fill="#4c78a8" opacity="0.6"/><path aria-label="年間支出額 (名目) (万円): 960 – 970; 試行回数: 4" role="graphics-symbol" aria-roledescription="bar" d="M457,294h5v6h-5Z" fill="#4c78a8" opacity="0.6"/><path aria-label="年間支出額 (名目) (万円): 1060 – 1070; 試行回数: 2" role="graphics-symbol" aria-roledescription="bar" d="M517,297h5v3h-5Z" fill="#4c78a8" opacity="0.6"/><path aria-label="年間支出額 (名目) (万円): 1070 – 1080; 試行回数: 1" role="graphics-symbol" aria-roledescription="bar" d="M523,298.5h5v1.5h-5Z" fill="#4c78a8" opacity="0.6"/><path aria-label="年間支出額 (名目) (万円): 1010 – 1020; 試行回数: 1" role="graphics-symbol" aria-roledescription="bar" d="M487.00000000000006,298.5h4.999999999999886v1.5h-4.999999999999886Z" fill="#4c78a8" opacity="0.6"/></g><g class="mark-rule role-mark layer_1_marks" role="graphics-object" aria-roledescription="rule mark container"><line aria-label="x: 665.324402066; label: 期待支出額 (1.77%インフレ考慮)" role="graphics-symbol" aria-roledescription="rule mark" transform="translate(279.19464123959835,0)" x2="0" y2="300" stroke="red" stroke-width="2" stroke-dasharray="5,5"/><line aria-label="x: 359.363715129; label: 25パーセンタイル (生存パス)" role="graphics-symbol" aria-roledescription="rule mark" transform="translate(95.61822907749742,0)" x2="0" y2="300" stroke="blue" stroke-width="2" stroke-dasharray="0"/><line aria-label="x: 483.903140241; label: 50パーセンタイル (中央値)" role="graphics-symbol" aria-roledescription="rule mark" transform="translate(170.34188414454994,0)" x2="0" y2="300" stroke="green" stroke-width="2" stroke-dasharray="0"/><line aria-label="x: 617.615238424; label: 75パーセンタイル (生存パス)" role="graphics-symbol" aria-roledescription="rule mark" transform="translate(250.5691430546271,0)" x2="0" y2="300" stroke="purple" stroke-width="2" stroke-dasharray="0"/></g><g class="mark-group role-legend" role="graphics-symbol" aria-roledescription="legend" aria-label="Symbol legend for stroke color with 4 values: 期待支出額 (1.77%インフレ考慮), 25パーセンタイル (生存パス), 50パーセンタイル (中央値), 75パーセンタイル (生存パス)"><g transform="translate(0,-29)"><path class="background" aria-hidden="true" d="M0,0h628v11h-628Z" pointer-events="none"/><g><g class="mark-group role-legend-entry"><g transform="translate(0,0)"><path class="background" aria-hidden="true" d="M0,0h0v0h0Z" pointer-events="none"/><g><g class="mark-group role-scope" role="graphics-object" aria-roledescription="group mark container"><g transform="translate(0,0)"><path class="background" aria-hidden="true" d="M0,0h163.79296875v11h-163.79296875Z" pointer-events="none" opacity="1"/><g><g class="mark-symbol role-legend-symbol" pointer-events="none"><path transform="translate(6,6)" d="M-5,0L5,0" stroke="red" stroke-width="1.5" opacity="1"/></g><g class="mark-text role-legend-label" pointer-events="none"><text text-anchor="start" transform="translate(16,9)" font-family="sans-serif" font-size="10px" fill="#000" opacity="1">期待支出額 (1.77%インフレ考慮)</text></g></g><path class="foreground" aria-hidden="true" d="" pointer-events="none" display="none"/></g><g transform="translate(175,0)"><path class="background" aria-hidden="true" d="M0,0h146.5615234375v11h-146.5615234375Z" pointer-events="none" opacity="1"/><g><g class="mark-symbol role-legend-symbol" pointer-events="none"><path transform="translate(6,6)" d="M-5,0L5,0" stroke="blue" stroke-width="1.5" opacity="1"/></g><g class="mark-text role-legend-label" pointer-events="none"><text text-anchor="start" transform="translate(16,9)" font-family="sans-serif" font-size="10px" fill="#000" opacity="1">25パーセンタイル (生存パス)</text></g></g><path class="foreground" aria-hidden="true" d="" pointer-events="none" display="none"/></g><g transform="translate(333,0)"><path class="background" aria-hidden="true" d="M0,0h136.5615234375v11h-136.5615234375Z" pointer-events="none" opacity="1"/><g><g class="mark-symbol role-legend-symbol" pointer-events="none"><path transform="translate(6,6)" d="M-5,0L5,0" stroke="green" stroke-width="1.5" opacity="1"/></g><g class="mark-text role-legend-label" pointer-events="none"><text text-anchor="start" transform="translate(16,9)" font-family="sans-serif" font-size="10px" fill="#000" opacity="1">50パーセンタイル (中央値)</text></g></g><path class="foreground" aria-hidden="true" d="" pointer-events="none" display="none"/></g><g transform="translate(481,0)"><path class="background" aria-hidden="true" d="M0,0h146.5615234375v11h-146.5615234375Z" pointer-events="none" opacity="1"/><g><g class="mark-symbol role-legend-symbol" pointer-events="none"><path transform="translate(6,6)" d="M-5,0L5,0" stroke="purple" stroke-width="1.5" opacity="1"/></g><g class="mark-text role-legend-label" pointer-events="none"><text text-anchor="start" transform="translate(16,9)" font-family="sans-serif" font-size="10px" fill="#000" opacity="1">75パーセンタイル (生存パス)</text></g></g><path class="foreground" aria-hidden="true" d="" pointer-events="none" display="none"/></g></g></g><path class="foreground" aria-hidden="true" d="" pointer-events="none" display="none"/></g></g></g><path class="foreground" aria-hidden="true" d="" pointer-events="none" display="none"/></g></g><g class="mark-group role-title"><g transform="translate(300,-46)"><path class="background" aria-hidden="true" d="M0,0h0v0h0Z" pointer-events="none"/><g><g class="mark-text role-title-text" role="graphics-symbol" aria-roledescription="title" aria-label="Title text '名目支出額の分布: 30年目 (上限5.0%, 下限-1.5%) - 破産ケース 12.5% を除外'" pointer-events="none"><text text-anchor="middle" transform="translate(0,10)" font-family="sans-serif" font-size="13px" font-weight="bold" fill="#000" opacity="1">名目支出額の分布: 30年目 (上限5.0%, 下限-1.5%) - 破産ケース 12.5% を除外</text></g></g><path class="foreground" aria-hidden="true" d="" pointer-events="none" display="none"/></g></g></g><path class="foreground" aria-hidden="true" d="" display="none"/></g></g></g></svg>