<svg xmlns="http://www.w3.org/2000/svg" xmlns:xlink="http://www.w3.org/1999/xlink" version="1.1" class="marks" width="677" height="388" viewBox="0 0 677 388"><rect width="677" height="388" fill="white"/><g fill="none" stroke-miterlimit="10" transform="translate(44,51)"><g class="mark-group role-frame root" role="graphics-object" aria-roledescription="group mark container"><g transform="translate(0,0)"><path class="background" aria-hidden="true" d="M0.5,0.5h600v300h-600Z" stroke="#ddd"/><g><g class="mark-group role-axis" aria-hidden="true"><g transform="translate(0.5,0.5)"><path class="background" aria-hidden="true" d="M0,0h0v0h0Z" pointer-events="none"/><g><g class="mark-rule role-axis-grid" pointer-events="none"><line transform="translate(0,300)" x2="600" y2="0" stroke="#ddd" stroke-width="1" opacity="1"/><line transform="translate(0,267)" x2="600" y2="0" stroke="#ddd" stroke-width="1" opacity="1"/><line transform="translate(0,233)" x2="600" y2="0" stroke="#ddd" stroke-width="1" opacity="1"/><line transform="translate(0,200)" x2="600" y2="0" stroke="#ddd" stroke-width="1" opacity="1"/><line transform="translate(0,167)" x2="600" y2="0" stroke="#ddd" stroke-width="1" opacity="1"/><line transform="translate(0,133)" x2="600" y2="0" stroke="#ddd" stroke-width="1" opacity="1"/><line transform="translate(0,100)" x2="600" y2="0" stroke="#ddd" stroke-width="1" opacity="1"/><line transform="translate(0,67)" x2="600" y2="0" stroke="#ddd" stroke-width="1" opacity="1"/><line transform="translate(0,33)" x2="600" y2="0" stroke="#ddd" stroke-width="1" opacity="1"/><line transform="translate(0,0)" x2="600" y2="0" stroke="#ddd" stroke-width="1" opacity="1"/></g></g><path class="foreground" aria-hidden="true" d="" pointer-events="none" display="none"/></g></g><g class="mark-group role-axis" role="graphics-symbol" aria-roledescription="axis" aria-label="X-axis titled '年間支出額 (名目) (万円)' for a linear scale with values from 200 to 1,800"><g transform="translate(0.5,300.5)"><path class="background" aria-hidden="true" d="M0,0h0v0h0Z" pointer-events="none"/><g><g class="mark-rule role-axis-tick" pointer-events="none"><line transform="translate(8,0)" x2="0" y2="5" stroke="#888" stroke-width="1" opacity="1"/><line transform="translate(15,0)" x2="0" y2="5" stroke="#888" stroke-width="1" opacity="1"/><line transform="translate(23,0)" x2="0" y2="5" stroke="#888" stroke-width="1" opacity="1"/><line transform="translate(30,0)" x2="0" y2="5" stroke="#888" stroke-width="1" opacity="1"/><line transform="translate(38,0)" x2="0" y2="5" stroke="#888" stroke-width="1" opacity="1"/><line transform="translate(45,0)" x2="0" y2="5" stroke="#888" stroke-width="1" opacity="1"/><line transform="translate(53,0)" x2="0" y2="5" stroke="#888" stroke-width="1" opacity="1"/><line transform="translate(60,0)" x2="0" y2="5" stroke="#888" stroke-width="1" opacity="1"/><line transform="translate(68,0)" x2="0" y2="5" stroke="#888" stroke-width="1" opacity="1"/><line transform="translate(75,0)" x2="0" y2="5" stroke="#888" stroke-width="1" opacity="1"/><line transform="translate(83,0)" x2="0" y2="5" stroke="#888" stroke-width="1" opacity="1"/><line transform="translate(90,0)" x2="0" y2="5" stroke="#888" stroke-width="1" opacity="1"/><line transform="translate(98,0)" x2="0" y2="5" stroke="#888" stroke-width="1" opacity="1"/><line transform="translate(105,0)" x2="0" y2="5" stroke="#888" stroke-width="1" opacity="1"/><line transform="translate(113,0)" x2="0" y2="5" stroke="#888" stroke-width="1" opacity="1"/><line transform="translate(120,0)" x2="0" y2="5" stroke="#888" stroke-width="1" opacity="1"/><line transform="translate(128,0)" x2="0" y2="5" stroke="#888" stroke-width="1" opacity="1"/><line transform="translate(135,0)" x2="0" y2="5" stroke="#888" stroke-width="1" opacity="1"/><line transform="translate(143,0)" x2="0" y2="5" stroke="#888" stroke-width="1" opacity="1"/><line transform="translate(150,0)" x2="0" y2="5" stroke="#888" stroke-width="1" opacity="1"/><line transform="translate(158,0)" x2="0" y2="5" stroke="#888" stroke-width="1" opacity="1"/><line transform="translate(165,0)" x2="0" y2="5" stroke="#888" stroke-width="1" opacity="1"/><line transform="translate(173,0)" x2="0" y2="5" stroke="#888" stroke-width="1" opacity="1"/><line transform="translate(180,0)" x2="0" y2="5" stroke="#888" stroke-width="1" opacity="1"/><line transform="translate(188,0)" x2="0" y2="5" stroke="#888" stroke-width="1" opacity="1"/><line transform="translate(195,0)" x2="0" y2="5" stroke="#888" stroke-width="1" opacity="1"/><line transform="translate(203,0)" x2="0" y2="5" stroke="#888" stroke-width="1" opacity="1"/><line transform="translate(210,0)" x2="0" y2="5" stroke="#888" stroke-width="1" opacity="1"/><line transform="translate(218,0)" x2="0" y2="5" stroke="#888" stroke-width="1" opacity="1"/><line transform="translate(225,0)" x2="0" y2="5" stroke="#888" stroke-width="1" opacity="1"/><line transform="translate(233,0)" x2="0" y2="5" stroke="#888" stroke-width="1" opacity="1"/><line transform="translate(240,0)" x2="0" y2="5" stroke="#888" stroke-width="1" opacity="1"/><line transform="translate(248,0)" x2="0" y2="5" stroke="#888" stroke-width="1" opacity="1"/><line transform="translate(255,0)" x2="0" y2="5" stroke="#888" stroke-width="1" opacity="1"/><line transform="translate(263,0)" x2="0" y2="5" stroke="#888" stroke-width="1" opacity="1"/><line transform="translate(270,0)" x2="0" y2="5" stroke="#888" stroke-width="1" opacity="1"/><line transform="translate(278,0)" x2="0" y2="5" stroke="#888" stroke-width="1" opacity="1"/><line transform="translate(285,0)" x2="0" y2="5" stroke="#888" stroke-width="1" opacity="1"/><line transform="translate(293,0)" x2="0" y2="5" stroke="#888" stroke-width="1" opacity="1"/><line transform="translate(300,0)" x2="0" y2="5" stroke="#888" stroke-width="1" opacity="1"/><line transform="translate(308,0)" x2="0" y2="5" stroke="#888" stroke-width="1" opacity="1"/><line transform="translate(315,0)" x2="0" y2="5" stroke="#888" stroke-width="1" opacity="1"/><line transform="translate(323,0)" x2="0" y2="5" stroke="#888" stroke-width="1" opacity="1"/><line transform="translate(330,0)" x2="0" y2="5" stroke="#888" stroke-width="1" opacity="1"/><line transform="translate(338,0)" x2="0" y2="5" stroke="#888" stroke-width="1" opacity="1"/><line transform="translate(345,0)" x2="0" y2="5" stroke="#888" stroke-width="1" opacity="1"/><line transform="translate(353,0)" x2="0" y2="5" stroke="#888" stroke-width="1" opacity="1"/><line transform="translate(360,0)" x2="0" y2="5" stroke="#888" stroke-width="1" opacity="1"/><line transform="translate(368,0)" x2="0" y2="5" stroke="#888" stroke-width="1" opacity="1"/><line transform="translate(375,0)" x2="0" y2="5" stroke="#888" stroke-width="1" opacity="1"/><line transform="translate(383,0)" x2="0" y2="5" stroke="#888" stroke-width="1" opacity="1"/><line transform="translate(390,0)" x2="0" y2="5" stroke="#888" stroke-width="1" opacity="1"/><line transform="translate(398,0)" x2="0" y2="5" stroke="#888" stroke-width="1" opacity="1"/><line transform="translate(405,0)" x2="0" y2="5" stroke="#888" stroke-width="1" opacity="1"/><line transform="translate(413,0)" x2="0" y2="5" stroke="#888" stroke-width="1" opacity="1"/><line transform="translate(420,0)" x2="0" y2="5" stroke="#888" stroke-width="1" opacity="1"/><line transform="translate(428,0)" x2="0" y2="5" stroke="#888" stroke-width="1" opacity="1"/><line transform="translate(435,0)" x2="0" y2="5" stroke="#888" stroke-width="1" opacity="1"/><line transform="translate(443,0)" x2="0" y2="5" stroke="#888" stroke-width="1" opacity="1"/><line transform="translate(450,0)" x2="0" y2="5" stroke="#888" stroke-width="1" opacity="1"/><line transform="translate(458,0)" x2="0" y2="5" stroke="#888" stroke-width="1" opacity="1"/><line transform="translate(465,0)" x2="0" y2="5" stroke="#888" stroke-width="1" opacity="1"/><line transform="translate(473,0)" x2="0" y2="5" stroke="#888" stroke-width="1" opacity="1"/><line transform="translate(480,0)" x2="0" y2="5" stroke="#888" stroke-width="1" opacity="1"/><line transform="translate(488,0)" x2="0" y2="5" stroke="#888" stroke-width="1" opacity="1"/><line transform="translate(495,0)" x2="0" y2="5" stroke="#888" stroke-width="1" opacity="1"/><line transform="translate(503,0)" x2="0" y2="5" stroke="#888" stroke-width="1" opacity="1"/><line transform="translate(510,0)" x2="0" y2="5" stroke="#888" stroke-width="1" opacity="1"/><line transform="translate(518,0)" x2="0" y2="5" stroke="#888" stroke-width="1" opacity="1"/><line transform="translate(525,0)" x2="0" y2="5" stroke="#888" stroke-width="1" opacity="1"/><line transform="translate(533,0)" x2="0" y2="5" stroke="#888" stroke-width="1" opacity="1"/><line transform="translate(540,0)" x2="0" y2="5" stroke="#888" stroke-width="1" opacity="1"/><line transform="translate(548,0)" x2="0" y2="5" stroke="#888" stroke-width="1" opacity="1"/><line transform="translate(555,0)" x2="0" y2="5" stroke="#888" stroke-width="1" opacity="1"/><line transform="translate(563,0)" x2="0" y2="5" stroke="#888" stroke-width="1" opacity="1"/><line transform="translate(570,0)" x2="0" y2="5" stroke="#888" stroke-width="1" opacity="1"/></g><g class="mark-text role-axis-label" pointer-events="none"><text text-anchor="middle" transform="translate(7.5,15)" font-family="sans-serif" font-size="10px" fill="#000" opacity="1">220</text><text text-anchor="middle" transform="translate(15,15)" font-family="sans-serif" font-size="10px" fill="#000" opacity="0">240</text><text text-anchor="middle" transform="translate(22.5,15)" font-family="sans-serif" font-size="10px" fill="#000" opacity="0">260</text><text text-anchor="middle" transform="translate(30,15)" font-family="sans-serif" font-size="10px" fill="#000" opacity="0">280</text><text text-anchor="middle" transform="translate(37.5,15)" font-family="sans-serif" font-size="10px" fill="#000" opacity="1">300</text><text text-anchor="middle" transform="translate(45,15)" font-family="sans-serif" font-size="10px" fill="#000" opacity="0">320</text><text text-anchor="middle" transform="translate(52.5,15)" font-family="sans-serif" font-size="10px" fill="#000" opacity="0">340</text><text text-anchor="middle" transform="translate(60,15)" font-family="sans-serif" font-size="10px" fill="#000" opacity="0">360</text><text text-anchor="middle" transform="translate(67.5,15)" font-family="sans-serif" font-size="10px" fill="#000" opacity="1">380</text><text text-anchor="middle" transform="translate(75,15)" font-family="sans-serif" font-size="10px" fill="#000" opacity="0">400</text><text text-anchor="middle" transform="translate(82.5,15)" font-family="sans-serif" font-size="10px" fill="#000" opacity="0">420</text><text text-anchor="middle" transform="translate(90,15)" font-family="sans-serif" font-size="10px" fill="#000" opacity="0">440</text><text text-anchor="middle" transform="translate(97.5,15)" font-family="sans-serif" font-size="10px" fill="#000" opacity="1">460</text><text text-anchor="middle" transform="translate(105,15)" font-family="sans-serif" font-size="10px" fill="#000" opacity="0">480</text><text text-anchor="middle" transform="translate(112.5,15)" font-family="sans-serif" font-size="10px" fill="#000" opacity="0">500</text><text text-anchor="middle" transform="translate(120,15)" font-family="sans-serif" font-size="10px" fill="#000" opacity="0">520</text><text text-anchor="middle" transform="translate(127.5,15)" font-family="sans-serif" font-size="10px" fill="#000" opacity="1">540</text><text text-anchor="middle" transform="translate(135,15)" font-family="sans-serif" font-size="10px" fill="#000" opacity="0">560</text><text text-anchor="middle" transform="translate(142.5,15)" font-family="sans-serif" font-size="10px" fill="#000" opacity="0">580</text><text text-anchor="middle" transform="translate(150,15)" font-family="sans-serif" font-size="10px" fill="#000" opacity="0">600</text><text text-anchor="middle" transform="translate(157.5,15)" font-family="sans-serif" font-size="10px" fill="#000" opacity="1">620</text><text text-anchor="middle" transform="translate(165,15)" font-family="sans-serif" font-size="10px" fill="#000" opacity="0">640</text><text text-anchor="middle" transform="translate(172.5,15)" font-family="sans-serif" font-size="10px" fill="#000" opacity="0">660</text><text text-anchor="middle" transform="translate(180,15)" font-family="sans-serif" font-size="10px" fill="#000" opacity="0">680</text><text text-anchor="middle" transform="translate(187.5,15)" font-family="sans-serif" font-size="10px" fill="#000" opacity="1">700</text><text text-anchor="middle" transform="translate(195,15)" font-family="sans-serif" font-size="10px" fill="#000" opacity="0">720</text><text text-anchor="middle" transform="translate(202.5,15)" font-family="sans-serif" font-size="10px" fill="#000" opacity="0">740</text><text text-anchor="middle" transform="translate(210,15)" font-family="sans-serif" font-size="10px" fill="#000" opacity="0">760</text><text text-anchor="middle" transform="translate(217.5,15)" font-family="sans-serif" font-size="10px" fill="#000" opacity="1">780</text><text text-anchor="middle" transform="translate(225,15)" font-family="sans-serif" font-size="10px" fill="#000" opacity="0">800</text><text text-anchor="middle" transform="translate(232.5,15)" font-family="sans-serif" font-size="10px" fill="#000" opacity="0">820</text><text text-anchor="middle" transform="translate(240,15)" font-family="sans-serif" font-size="10px" fill="#000" opacity="0">840</text><text text-anchor="middle" transform="translate(247.5,15)" font-family="sans-serif" font-size="10px" fill="#000" opacity="1">860</text><text text-anchor="middle" transform="translate(255,15)" font-family="sans-serif" font-size="10px" fill="#000" opacity="0">880</text><text text-anchor="middle" transform="translate(262.5,15)" font-family="sans-serif" font-size="10px" fill="#000" opacity="0">900</text><text text-anchor="middle" transform="translate(270,15)" font-family="sans-serif" font-size="10px" fill="#000" opacity="0">920</text><text text-anchor="middle" transform="translate(277.5,15)" font-family="sans-serif" font-size="10px" fill="#000" opacity="1">940</text><text text-anchor="middle" transform="translate(285,15)" font-family="sans-serif" font-size="10px" fill="#000" opacity="0">960</text><text text-anchor="middle" transform="translate(292.5,15)" font-family="sans-serif" font-size="10px" fill="#000" opacity="0">980</text><text text-anchor="middle" transform="translate(300,15)" font-family="sans-serif" font-size="10px" fill="#000" opacity="0">1,000</text><text text-anchor="middle" transform="translate(307.5,15)" font-family="sans-serif" font-size="10px" fill="#000" opacity="1">1,020</text><text text-anchor="middle" transform="translate(315,15)" font-family="sans-serif" font-size="10px" fill="#000" opacity="0">1,040</text><text text-anchor="middle" transform="translate(322.5,15)" font-family="sans-serif" font-size="10px" fill="#000" opacity="0">1,060</text><text text-anchor="middle" transform="translate(330,15)" font-family="sans-serif" font-size="10px" fill="#000" opacity="0">1,080</text><text text-anchor="middle" transform="translate(337.5,15)" font-family="sans-serif" font-size="10px" fill="#000" opacity="1">1,100</text><text text-anchor="middle" transform="translate(345,15)" font-family="sans-serif" font-size="10px" fill="#000" opacity="0">1,120</text><text text-anchor="middle" transform="translate(352.5,15)" font-family="sans-serif" font-size="10px" fill="#000" opacity="0">1,140</text><text text-anchor="middle" transform="translate(360,15)" font-family="sans-serif" font-size="10px" fill="#000" opacity="0">1,160</text><text text-anchor="middle" transform="translate(367.5,15)" font-family="sans-serif" font-size="10px" fill="#000" opacity="1">1,180</text><text text-anchor="middle" transform="translate(375,15)" font-family="sans-serif" font-size="10px" fill="#000" opacity="0">1,200</text><text text-anchor="middle" transform="translate(382.5,15)" font-family="sans-serif" font-size="10px" fill="#000" opacity="0">1,220</text><text text-anchor="middle" transform="translate(390,15)" font-family="sans-serif" font-size="10px" fill="#000" opacity="0">1,240</text><text text-anchor="middle" transform="translate(397.5,15)" font-family="sans-serif" font-size="10px" fill="#000" opacity="1">1,260</text><text text-anchor="middle" transform="translate(405,15)" font-family="sans-serif" font-size="10px" fill="#000" opacity="0">1,280</text><text text-anchor="middle" transform="translate(412.5,15)" font-family="sans-serif" font-size="10px" fill="#000" opacity="0">1,300</text><text text-anchor="middle" transform="translate(420,15)" font-family="sans-serif" font-size="10px" fill="#000" opacity="0">1,320</text><text text-anchor="middle" transform="translate(427.5,15)" font-family="sans-serif" font-size="10px" fill="#000" opacity="1">1,340</text><text text-anchor="middle" transform="translate(435,15)" font-family="sans-serif" font-size="10px" fill="#000" opacity="0">1,360</text><text text-anchor="middle" transform="translate(442.5,15)" font-family="sans-serif" font-size="10px" fill="#000" opacity="0">1,380</text><text text-anchor="middle" transform="translate(450,15)" font-family="sans-serif" font-size="10px" fill="#000" opacity="0">1,400</text><text text-anchor="middle" transform="translate(457.5,15)" font-family="sans-serif" font-size="10px" fill="#000" opacity="1">1,420</text><text text-anchor="middle" transform="translate(465,15)" font-family="sans-serif" font-size="10px" fill="#000" opacity="0">1,440</text><text text-anchor="middle" transform="translate(472.5,15)" font-family="sans-serif" font-size="10px" fill="#000" opacity="0">1,460</text><text text-anchor="middle" transform="translate(480,15)" font-family="sans-serif" font-size="10px" fill="#000" opacity="0">1,480</text><text text-anchor="middle" transform="translate(487.5,15)" font-family="sans-serif" font-size="10px" fill="#000" opacity="1">1,500</text><text text-anchor="middle" transform="translate(495,15)" font-family="sans-serif" font-size="10px" fill="#000" opacity="0">1,520</text><text text-anchor="middle" transform="translate(502.5,15)" font-family="sans-serif" font-size="10px" fill="#000" opacity="0">1,540</text><text text-anchor="middle" transform="translate(510,15)" font-family="sans-serif" font-size="10px" fill="#000" opacity="0">1,560</text><text text-anchor="middle" transform="translate(517.5,15)" font-family="sans-serif" font-size="10px" fill="#000" opacity="1">1,580</text><text text-anchor="middle" transform="translate(525,15)" font-family="sans-serif" font-size="10px" fill="#000" opacity="0">1,600</text><text text-anchor="middle" transform="translate(532.5,15)" font-family="sans-serif" font-size="10px" fill="#000" opacity="0">1,620</text><text text-anchor="middle" transform="translate(540,15)" font-family="sans-serif" font-size="10px" fill="#000" opacity="0">1,640</text><text text-anchor="middle" transform="translate(547.5,15)" font-family="sans-serif" font-size="10px" fill="#000" opacity="1">1,660</text><text text-anchor="middle" transform="translate(555,15)" font-family="sans-serif" font-size="10px" fill="#000" opacity="0">1,680</text><text text-anchor="middle" transform="translate(562.5,15)" font-family="sans-serif" font-size="10px" fill="#000" opacity="0">1,700</text><text text-anchor="middle" transform="translate(570,15)" font-family="sans-serif" font-size="10px" fill="#000" opacity="0">1,720</text></g><g class="mark-rule role-axis-domain" pointer-events="none"><line transform="translate(0,0)" x2="600" y2="0" stroke="#888" stroke-width="1" opacity="1"/></g><g class="mark-text role-axis-title" pointer-events="none"><text text-anchor="middle" transform="translate(300,30)" font-family="sans-serif" font-size="11px" font-weight="bold" fill="#000" opacity="1">年間支出額 (名目) (万円)</text></g></g><path class="foreground" aria-hidden="true" d="" pointer-events="none" display="none"/></g></g><g class="mark-group role-axis" role="graphics-symbol" aria-roledescription="axis" aria-label="Y-axis titled '試行回数' for a linear scale with values from 0 to 180"><g transform="translate(0.5,0.5)"><path class="background" aria-hidden="true" d="M0,0h0v0h0Z" pointer-events="none"/><g><g class="mark-rule role-axis-tick" pointer-events="none"><line transform="translate(0,300)" x2="-5" y2="0" stroke="#888" stroke-width="1" opacity="1"/><line transform="translate(0,267)" x2="-5" y2="0" stroke="#888" stroke-width="1" opacity="1"/><line transform="translate(0,233)" x2="-5" y2="0" stroke="#888" stroke-width="1" opacity="1"/><line transform="translate(0,200)" x2="-5" y2="0" stroke="#888" stroke-width="1" opacity="1"/><line transform="translate(0,167)" x2="-5" y2="0" stroke="#888" stroke-width="1" opacity="1"/><line transform="translate(0,133)" x2="-5" y2="0" stroke="#888" stroke-width="1" opacity="1"/><line transform="translate(0,100)" x2="-5" y2="0" stroke="#888" stroke-width="1" opacity="1"/><line transform="translate(0,67)" x2="-5" y2="0" stroke="#888" stroke-width="1" opacity="1"/><line transform="translate(0,33)" x2="-5" y2="0" stroke="#888" stroke-width="1" opacity="1"/><line transform="translate(0,0)" x2="-5" y2="0" stroke="#888" stroke-width="1" opacity="1"/></g><g class="mark-text role-axis-label" pointer-events="none"><text text-anchor="end" transform="translate(-7,303)" font-family="sans-serif" font-size="10px" fill="#000" opacity="1">0</text><text text-anchor="end" transform="translate(-7,269.66666666666663)" font-family="sans-serif" font-size="10px" fill="#000" opacity="1">20</text><text text-anchor="end" transform="translate(-7,236.33333333333334)" font-family="sans-serif" font-size="10px" fill="#000" opacity="1">40</text><text text-anchor="end" transform="translate(-7,203.00000000000003)" font-family="sans-serif" font-size="10px" fill="#000" opacity="1">60</text><text text-anchor="end" transform="translate(-7,169.66666666666669)" font-family="sans-serif" font-size="10px" fill="#000" opacity="1">80</text><text text-anchor="end" transform="translate(-7,136.33333333333331)" font-family="sans-serif" font-size="10px" fill="#000" opacity="1">100</text><text text-anchor="end" transform="translate(-7,103.00000000000001)" font-family="sans-serif" font-size="10px" fill="#000" opacity="1">120</text><text text-anchor="end" transform="translate(-7,69.66666666666666)" font-family="sans-serif" font-size="10px" fill="#000" opacity="1">140</text><text text-anchor="end" transform="translate(-7,36.33333333333335)" font-family="sans-serif" font-size="10px" fill="#000" opacity="1">160</text><text text-anchor="end" transform="translate(-7,3)" font-family="sans-serif" font-size="10px" fill="#000" opacity="1">180</text></g><g class="mark-rule role-axis-domain" pointer-events="none"><line transform="translate(0,300)" x2="0" y2="-300" stroke="#888" stroke-width="1" opacity="1"/></g><g class="mark-text role-axis-title" pointer-events="none"><text text-anchor="middle" transform="translate(-27.6845703125,150) rotate(-90) translate(0,-2)" font-family="sans-serif" font-size="11px" font-weight="bold" fill="#000" opacity="1">試行回数</text></g></g><path class="foreground" aria-hidden="true" d="" pointer-events="none" display="none"/></g></g><g class="mark-rect role-mark layer_0_marks" role="graphics-object" aria-roledescription="rect mark container"><path aria-label="年間支出額 (名目) (万円): 720 – 740; 試行回数: 82" role="graphics-symbol" aria-roledescription="bar" d="M196,163.33333333333334h6.5v136.66666666666666h-6.5Z" fill="#4c78a8" opacity="0.6"/><path aria-label="年間支出額 (名目) (万円): 500 – 520; 試行回数: 171" role="graphics-symbol" aria-roledescription="bar" d="M113.5,15.000000000000014h6.5v285h-6.5Z" fill="#4c78a8" opacity="0.6"/><path aria-label="年間支出額 (名目) (万円): 520 – 540; 試行回数: 131" role="graphics-symbol" aria-roledescription="bar" d="M121,81.66666666666667h6.5v218.33333333333331h-6.5Z" fill="#4c78a8" opacity="0.6"/><path aria-label="年間支出額 (名目) (万円): 600 – 620; 試行回数: 114" role="graphics-symbol" aria-roledescription="bar" d="M151,110.00000000000001h6.5v190h-6.5Z" fill="#4c78a8" opacity="0.6"/><path aria-label="年間支出額 (名目) (万円): 320 – 340; 試行回数: 108" role="graphics-symbol" aria-roledescription="bar" d="M46,120h6.5v180h-6.5Z" fill="#4c78a8" opacity="0.6"/><path aria-label="年間支出額 (名目) (万円): 560 – 580; 試行回数: 159" role="graphics-symbol" aria-roledescription="bar" d="M136,35.00000000000001h6.5v265h-6.5Z" fill="#4c78a8" opacity="0.6"/><path aria-label="年間支出額 (名目) (万円): 340 – 360; 試行回数: 119" role="graphics-symbol" aria-roledescription="bar" d="M53.5,101.66666666666667h6.5v198.33333333333331h-6.5Z" fill="#4c78a8" opacity="0.6"/><path aria-label="年間支出額 (名目) (万円): 240 – 260; 試行回数: 104" role="graphics-symbol" aria-roledescription="bar" d="M16,126.66666666666669h6.5v173.33333333333331h-6.5Z" fill="#4c78a8" opacity="0.6"/><path aria-label="年間支出額 (名目) (万円): 260 – 280; 試行回数: 102" role="graphics-symbol" aria-roledescription="bar" d="M23.5,130h6.5v170h-6.5Z" fill="#4c78a8" opacity="0.6"/><path aria-label="年間支出額 (名目) (万円): 880 – 900; 試行回数: 50" role="graphics-symbol" aria-roledescription="bar" d="M256,216.66666666666666h6.5v83.33333333333334h-6.5Z" fill="#4c78a8" opacity="0.6"/><path aria-label="年間支出額 (名目) (万円): 700 – 720; 試行回数: 95" role="graphics-symbol" aria-roledescription="bar" d="M188.5,141.66666666666666h6.5v158.33333333333334h-6.5Z" fill="#4c78a8" opacity="0.6"/><path aria-label="年間支出額 (名目) (万円): 740 – 760; 試行回数: 77" role="graphics-symbol" aria-roledescription="bar" d="M203.5,171.66666666666666h6.5v128.33333333333334h-6.5Z" fill="#4c78a8" opacity="0.6"/><path aria-label="年間支出額 (名目) (万円): 540 – 560; 試行回数: 118" role="graphics-symbol" aria-roledescription="bar" d="M128.5,103.33333333333333h6.5v196.66666666666669h-6.5Z" fill="#4c78a8" opacity="0.6"/><path aria-label="年間支出額 (名目) (万円): 300 – 320; 試行回数: 119" role="graphics-symbol" aria-roledescription="bar" d="M38.5,101.66666666666667h6.5v198.33333333333331h-6.5Z" fill="#4c78a8" opacity="0.6"/><path aria-label="年間支出額 (名目) (万円): 360 – 380; 試行回数: 145" role="graphics-symbol" aria-roledescription="bar" d="M61,58.33333333333333h6.5v241.66666666666669h-6.5Z" fill="#4c78a8" opacity="0.6"/><path aria-label="年間支出額 (名目) (万円): 1120 – 1140; 試行回数: 6" role="graphics-symbol" aria-roledescription="bar" d="M346,290h6.5v10h-6.5Z" fill="#4c78a8" opacity="0.6"/><path aria-label="年間支出額 (名目) (万円): 420 – 440; 試行回数: 156" role="graphics-symbol" aria-roledescription="bar" d="M83.5,39.99999999999999h6.5v260h-6.5Z" fill="#4c78a8" opacity="0.6"/><path aria-label="年間支出額 (名目) (万円): 780 – 800; 試行回数: 61" role="graphics-symbol" aria-roledescription="bar" d="M218.5,198.33333333333331h6.5v101.66666666666669h-6.5Z" fill="#4c78a8" opacity="0.6"/><path aria-label="年間支出額 (名目) (万円): 620 – 640; 試行回数: 95" role="graphics-symbol" aria-roledescription="bar" d="M158.5,141.66666666666666h6.5v158.33333333333334h-6.5Z" fill="#4c78a8" opacity="0.6"/><path aria-label="年間支出額 (名目) (万円): 440 – 460; 試行回数: 152" role="graphics-symbol" aria-roledescription="bar" d="M91,46.666666666666664h6.5v253.33333333333334h-6.5Z" fill="#4c78a8" opacity="0.6"/><path aria-label="年間支出額 (名目) (万円): 680 – 700; 試行回数: 84" role="graphics-symbol" aria-roledescription="bar" d="M181,160h6.5v140h-6.5Z" fill="#4c78a8" opacity="0.6"/><path aria-label="年間支出額 (名目) (万円): 380 – 400; 試行回数: 163" role="graphics-symbol" aria-roledescription="bar" d="M68.5,28.333333333333332h6.5v271.6666666666667h-6.5Z" fill="#4c78a8" opacity="0.6"/><path aria-label="年間支出額 (名目) (万円): 220 – 240; 試行回数: 154" role="graphics-symbol" aria-roledescription="bar" d="M8.5,43.33333333333334h6.5v256.66666666666663h-6.5Z" fill="#4c78a8" opacity="0.6"/><path aria-label="年間支出額 (名目) (万円): 640 – 660; 試行回数: 83" role="graphics-symbol" aria-roledescription="bar" d="M166,161.66666666666666h6.5v138.33333333333334h-6.5Z" fill="#4c78a8" opacity="0.6"/><path aria-label="年間支出額 (名目) (万円): 280 – 300; 試行回数: 115" role="graphics-symbol" aria-roledescription="bar" d="M31,108.33333333333334h6.5v191.66666666666666h-6.5Z" fill="#4c78a8" opacity="0.6"/><path aria-label="年間支出額 (名目) (万円): 460 – 480; 試行回数: 143" role="graphics-symbol" aria-roledescription="bar" d="M98.5,61.66666666666668h6.5v238.33333333333331h-6.5Z" fill="#4c78a8" opacity="0.6"/><path aria-label="年間支出額 (名目) (万円): 940 – 960; 試行回数: 26" role="graphics-symbol" aria-roledescription="bar" d="M278.5,256.6666666666667h6.5v43.333333333333314h-6.5Z" fill="#4c78a8" opacity="0.6"/><path aria-label="年間支出額 (名目) (万円): 480 – 500; 試行回数: 126" role="graphics-symbol" aria-roledescription="bar" d="M106,90.00000000000001h6.5v210h-6.5Z" fill="#4c78a8" opacity="0.6"/><path aria-label="年間支出額 (名目) (万円): 580 – 600; 試行回数: 119" role="graphics-symbol" aria-roledescription="bar" d="M143.5,101.66666666666667h6.5v198.33333333333331h-6.5Z" fill="#4c78a8" opacity="0.6"/><path aria-label="年間支出額 (名目) (万円): 660 – 680; 試行回数: 108" role="graphics-symbol" aria-roledescription="bar" d="M173.5,120h6.5v180h-6.5Z" fill="#4c78a8" opacity="0.6"/><path aria-label="年間支出額 (名目) (万円): 840 – 860; 試行回数: 45" role="graphics-symbol" aria-roledescription="bar" d="M241,225h6.5v75h-6.5Z" fill="#4c78a8" opacity="0.6"/><path aria-label="年間支出額 (名目) (万円): 920 – 940; 試行回数: 25" role="graphics-symbol" aria-roledescription="bar" d="M271,258.33333333333337h6.5v41.66666666666663h-6.5Z" fill="#4c78a8" opacity="0.6"/><path aria-label="年間支出額 (名目) (万円): 1340 – 1360; 試行回数: 1" role="graphics-symbol" aria-roledescription="bar" d="M428.5,298.3333333333333h6.5v1.6666666666666856h-6.5Z" fill="#4c78a8" opacity="0.6"/><path aria-label="年間支出額 (名目) (万円): 400 – 420; 試行回数: 138" role="graphics-symbol" aria-roledescription="bar" d="M76,69.99999999999999h6.5v230h-6.5Z" fill="#4c78a8" opacity="0.6"/><path aria-label="年間支出額 (名目) (万円): 1140 – 1160; 試行回数: 6" role="graphics-symbol" aria-roledescription="bar" d="M353.5,290h6.5v10h-6.5Z" fill="#4c78a8" opacity="0.6"/><path aria-label="年間支出額 (名目) (万円): 760 – 780; 試行回数: 69" role="graphics-symbol" aria-roledescription="bar" d="M211,185h6.5v115h-6.5Z" fill="#4c78a8" opacity="0.6"/><path aria-label="年間支出額 (名目) (万円): 1100 – 1120; 試行回数: 7" role="graphics-symbol" aria-roledescription="bar" d="M338.5,288.3333333333333h6.5v11.666666666666686h-6.5Z" fill="#4c78a8" opacity="0.6"/><path aria-label="年間支出額 (名目) (万円): 820 – 840; 試行回数: 50" role="graphics-symbol" aria-roledescription="bar" d="M233.5,216.66666666666666h6.5v83.33333333333334h-6.5Z" fill="#4c78a8" opacity="0.6"/><path aria-label="年間支出額 (名目) (万円): 860 – 880; 試行回数: 41" role="graphics-symbol" aria-roledescription="bar" d="M248.5,231.66666666666669h6.5v68.33333333333331h-6.5Z" fill="#4c78a8" opacity="0.6"/><path aria-label="年間支出額 (名目) (万円): 1080 – 1100; 試行回数: 11" role="graphics-symbol" aria-roledescription="bar" d="M331,281.6666666666667h6.5v18.333333333333314h-6.5Z" fill="#4c78a8" opacity="0.6"/><path aria-label="年間支出額 (名目) (万円): 800 – 820; 試行回数: 58" role="graphics-symbol" aria-roledescription="bar" d="M226,203.33333333333334h6.5v96.66666666666666h-6.5Z" fill="#4c78a8" opacity="0.6"/><path aria-label="年間支出額 (名目) (万円): 1260 – 1280; 試行回数: 5" role="graphics-symbol" aria-roledescription="bar" d="M398.5,291.6666666666667h6.5v8.333333333333314h-6.5Z" fill="#4c78a8" opacity="0.6"/><path aria-label="年間支出額 (名目) (万円): 1020 – 1040; 試行回数: 18" role="graphics-symbol" aria-roledescription="bar" d="M308.5,270h6.5v30h-6.5Z" fill="#4c78a8" opacity="0.6"/><path aria-label="年間支出額 (名目) (万円): 1040 – 1060; 試行回数: 17" role="graphics-symbol" aria-roledescription="bar" d="M316,271.6666666666667h6.5v28.333333333333314h-6.5Z" fill="#4c78a8" opacity="0.6"/><path aria-label="年間支出額 (名目) (万円): 960 – 980; 試行回数: 24" role="graphics-symbol" aria-roledescription="bar" d="M286,260h6.5v40h-6.5Z" fill="#4c78a8" opacity="0.6"/><path aria-label="年間支出額 (名目) (万円): 900 – 920; 試行回数: 28" role="graphics-symbol" aria-roledescription="bar" d="M263.5,253.33333333333334h6.5v46.66666666666666h-6.5Z" fill="#4c78a8" opacity="0.6"/><path aria-label="年間支出額 (名目) (万円): 1160 – 1180; 試行回数: 2" role="graphics-symbol" aria-roledescription="bar" d="M361,296.6666666666667h6.5v3.3333333333333144h-6.5Z" fill="#4c78a8" opacity="0.6"/><path aria-label="年間支出額 (名目) (万円): 1060 – 1080; 試行回数: 6" role="graphics-symbol" aria-roledescription="bar" d="M323.5,290h6.5v10h-6.5Z" fill="#4c78a8" opacity="0.6"/><path aria-label="年間支出額 (名目) (万円): 1220 – 1240; 試行回数: 2" role="graphics-symbol" aria-roledescription="bar" d="M383.5,296.6666666666667h6.5v3.3333333333333144h-6.5Z" fill="#4c78a8" opacity="0.6"/><path aria-label="年間支出額 (名目) (万円): 1000 – 1020; 試行回数: 15" role="graphics-symbol" aria-roledescription="bar" d="M301,275h6.5v25h-6.5Z" fill="#4c78a8" opacity="0.6"/><path aria-label="年間支出額 (名目) (万円): 1400 – 1420; 試行回数: 2" role="graphics-symbol" aria-roledescription="bar" d="M451,296.6666666666667h6.5v3.3333333333333144h-6.5Z" fill="#4c78a8" opacity="0.6"/><path aria-label="年間支出額 (名目) (万円): 980 – 1000; 試行回数: 18" role="graphics-symbol" aria-roledescription="bar" d="M293.5,270h6.5v30h-6.5Z" fill="#4c78a8" opacity="0.6"/><path aria-label="年間支出額 (名目) (万円): 1320 – 1340; 試行回数: 1" role="graphics-symbol" aria-roledescription="bar" d="M421,298.3333333333333h6.5v1.6666666666666856h-6.5Z" fill="#4c78a8" opacity="0.6"/><path aria-label="年間支出額 (名目) (万円): 1360 – 1380; 試行回数: 2" role="graphics-symbol" aria-roledescription="bar" d="M436,296.6666666666667h6.5v3.3333333333333144h-6.5Z" fill="#4c78a8" opacity="0.6"/><path aria-label="年間支出額 (名目) (万円): 1380 – 1400; 試行回数: 3" role="graphics-symbol" aria-roledescription="bar" d="M443.5,295h6.5v5h-6.5Z" fill="#4c78a8" opacity="0.6"/><path aria-label="年間支出額 (名目) (万円): 1200 – 1220; 試行回数: 6" role="graphics-symbol" aria-roledescription="bar" d="M376,290h6.5v10h-6.5Z" fill="#4c78a8" opacity="0.6"/><path aria-label="年間支出額 (名目) (万円): 1180 – 1200; 試行回数: 2" role="graphics-symbol" aria-roledescription="bar" d="M368.5,296.6666666666667h6.5v3.3333333333333144h-6.5Z" fill="#4c78a8" opacity="0.6"/><path aria-label="年間支出額 (名目) (万円): 1440 – 1460; 試行回数: 1" role="graphics-symbol" aria-roledescription="bar" d="M466,298.3333333333333h6.5v1.6666666666666856h-6.5Z" fill="#4c78a8" opacity="0.6"/><path aria-label="年間支出額 (名目) (万円): 1300 – 1320; 試行回数: 3" role="graphics-symbol" aria-roledescription="bar" d="M413.5,295h6.5v5h-6.5Z" fill="#4c78a8" opacity="0.6"/><path aria-label="年間支出額 (名目) (万円): 1240 – 1260; 試行回数: 2" role="graphics-symbol" aria-roledescription="bar" d="M391,296.6666666666667h6.5v3.3333333333333144h-6.5Z" fill="#4c78a8" opacity="0.6"/><path aria-label="年間支出額 (名目) (万円): 1280 – 1300; 試行回数: 1" role="graphics-symbol" aria-roledescription="bar" d="M406,298.3333333333333h6.5v1.6666666666666856h-6.5Z" fill="#4c78a8" opacity="0.6"/><path aria-label="年間支出額 (名目) (万円): 1700 – 1720; 試行回数: 1" role="graphics-symbol" aria-roledescription="bar" d="M563.5,298.3333333333333h6.5v1.6666666666666856h-6.5Z" fill="#4c78a8" opacity="0.6"/></g><g class="mark-rule role-mark layer_1_marks" role="graphics-object" aria-roledescription="rule mark container"><line aria-label="x: 792.923332412; label: 期待支出額 (1.77%インフレ考慮)" role="graphics-symbol" aria-roledescription="rule mark" transform="translate(222.34624965451022,0)" x2="0" y2="300" stroke="red" stroke-width="2" stroke-dasharray="5,5"/><line aria-label="x: 380.846613168; label: 25パーセンタイル (生存パス)" role="graphics-symbol" aria-roledescription="rule mark" transform="translate(67.81747993818016,0)" x2="0" y2="300" stroke="blue" stroke-width="2" stroke-dasharray="0"/><line aria-label="x: 509.895795728; label: 50パーセンタイル (中央値)" role="graphics-symbol" aria-roledescription="rule mark" transform="translate(116.21092339790692,0)" x2="0" y2="300" stroke="green" stroke-width="2" stroke-dasharray="0"/><line aria-label="x: 676.303173102; label: 75パーセンタイル (生存パス)" role="graphics-symbol" aria-roledescription="rule mark" transform="translate(178.61368991338756,0)" x2="0" y2="300" stroke="purple" stroke-width="2" stroke-dasharray="0"/></g><g class="mark-group role-legend" role="graphics-symbol" aria-roledescription="legend" aria-label="Symbol legend for stroke color with 4 values: 期待支出額 (1.77%インフレ考慮), 25パーセンタイル (生存パス), 50パーセンタイル (中央値), 75パーセンタイル (生存パス)"><g transform="translate(0,-29)"><path class="background" aria-hidden="true" d="M0,0h628v11h-628Z" pointer-events="none"/><g><g class="mark-group role-legend-entry"><g transform="translate(0,0)"><path class="background" aria-hidden="true" d="M0,0h0v0h0Z" pointer-events="none"/><g><g class="mark-group role-scope" role="graphics-object" aria-roledescription="group mark container"><g transform="translate(0,0)"><path class="background" aria-hidden="true" d="M0,0h163.79296875v11h-163.79296875Z" pointer-events="none" opacity="1"/><g><g class="mark-symbol role-legend-symbol" pointer-events="none"><path transform="translate(6,6)" d="M-5,0L5,0" stroke="red" stroke-width="1.5" opacity="1"/></g><g class="mark-text role-legend-label" pointer-events="none"><text text-anchor="start" transform="translate(16,9)" font-family="sans-serif" font-size="10px" fill="#000" opacity="1">期待支出額 (1.77%インフレ考慮)</text></g></g><path class="foreground" aria-hidden="true" d="" pointer-events="none" display="none"/></g><g transform="translate(175,0)"><path class="background" aria-hidden="true" d="M0,0h146.5615234375v11h-146.5615234375Z" pointer-events="none" opacity="1"/><g><g class="mark-symbol role-legend-symbol" pointer-events="none"><path transform="translate(6,6)" d="M-5,0L5,0" stroke="blue" stroke-width="1.5" opacity="1"/></g><g class="mark-text role-legend-label" pointer-events="none"><text text-anchor="start" transform="translate(16,9)" font-family="sans-serif" font-size="10px" fill="#000" opacity="1">25パーセンタイル (生存パス)</text></g></g><path class="foreground" aria-hidden="true" d="" pointer-events="none" display="none"/></g><g transform="translate(333,0)"><path class="background" aria-hidden="true" d="M0,0h136.5615234375v11h-136.5615234375Z" pointer-events="none" opacity="1"/><g><g class="mark-symbol role-legend-symbol" pointer-events="none"><path transform="translate(6,6)" d="M-5,0L5,0" stroke="green" stroke-width="1.5" opacity="1"/></g><g class="mark-text role-legend-label" pointer-events="none"><text text-anchor="start" transform="translate(16,9)" font-family="sans-serif" font-size="10px" fill="#000" opacity="1">50パーセンタイル (中央値)</text></g></g><path class="foreground" aria-hidden="true" d="" pointer-events="none" display="none"/></g><g transform="translate(481,0)"><path class="background" aria-hidden="true" d="M0,0h146.5615234375v11h-146.5615234375Z" pointer-events="none" opacity="1"/><g><g class="mark-symbol role-legend-symbol" pointer-events="none"><path transform="translate(6,6)" d="M-5,0L5,0" stroke="purple" stroke-width="1.5" opacity="1"/></g><g class="mark-text role-legend-label" pointer-events="none"><text text-anchor="start" transform="translate(16,9)" font-family="sans-serif" font-size="10px" fill="#000" opacity="1">75パーセンタイル (生存パス)</text></g></g><path class="foreground" aria-hidden="true" d="" pointer-events="none" display="none"/></g></g></g><path class="foreground" aria-hidden="true" d="" pointer-events="none" display="none"/></g></g></g><path class="foreground" aria-hidden="true" d="" pointer-events="none" display="none"/></g></g><g class="mark-group role-title"><g transform="translate(300,-46)"><path class="background" aria-hidden="true" d="M0,0h0v0h0Z" pointer-events="none"/><g><g class="mark-text role-title-text" role="graphics-symbol" aria-roledescription="title" aria-label="Title text '名目支出額の分布: 40年目 (上限5.0%, 下限-1.5%) - 破産ケース 22.1% を除外'" pointer-events="none"><text text-anchor="middle" transform="translate(0,10)" font-family="sans-serif" font-size="13px" font-weight="bold" fill="#000" opacity="1">名目支出額の分布: 40年目 (上限5.0%, 下限-1.5%) - 破産ケース 22.1% を除外</text></g></g><path class="foreground" aria-hidden="true" d="" pointer-events="none" display="none"/></g></g></g><path class="foreground" aria-hidden="true" d="" display="none"/></g></g></g></svg>