<svg xmlns="http://www.w3.org/2000/svg" xmlns:xlink="http://www.w3.org/1999/xlink" version="1.1" class="marks" width="815" height="464" viewBox="0 0 815 464"><rect width="815" height="464" fill="white"/><g fill="none" stroke-miterlimit="10" transform="translate(64,27)"><g class="mark-group role-frame root" role="graphics-object" aria-roledescription="group mark container"><g transform="translate(0,0)"><path class="background" aria-hidden="true" d="M0.5,0.5h600v400h-600Z" stroke="#ddd"/><g><g class="mark-group role-axis" aria-hidden="true"><g transform="translate(0.5,400.5)"><path class="background" aria-hidden="true" d="M0,0h0v0h0Z" pointer-events="none"/><g><g class="mark-rule role-axis-grid" pointer-events="none"><line transform="translate(0,-400)" x2="0" y2="400" stroke="#ddd" stroke-width="1" opacity="1"/><line transform="translate(43,-400)" x2="0" y2="400" stroke="#ddd" stroke-width="1" opacity="1"/><line transform="translate(86,-400)" x2="0" y2="400" stroke="#ddd" stroke-width="1" opacity="1"/><line transform="translate(129,-400)" x2="0" y2="400" stroke="#ddd" stroke-width="1" opacity="1"/><line transform="translate(171,-400)" x2="0" y2="400" stroke="#ddd" stroke-width="1" opacity="1"/><line transform="translate(214,-400)" x2="0" y2="400" stroke="#ddd" stroke-width="1" opacity="1"/><line transform="translate(257,-400)" x2="0" y2="400" stroke="#ddd" stroke-width="1" opacity="1"/><line transform="translate(300,-400)" x2="0" y2="400" stroke="#ddd" stroke-width="1" opacity="1"/><line transform="translate(343,-400)" x2="0" y2="400" stroke="#ddd" stroke-width="1" opacity="1"/><line transform="translate(386,-400)" x2="0" y2="400" stroke="#ddd" stroke-width="1" opacity="1"/><line transform="translate(429,-400)" x2="0" y2="400" stroke="#ddd" stroke-width="1" opacity="1"/><line transform="translate(471,-400)" x2="0" y2="400" stroke="#ddd" stroke-width="1" opacity="1"/><line transform="translate(514,-400)" x2="0" y2="400" stroke="#ddd" stroke-width="1" opacity="1"/><line transform="translate(557,-400)" x2="0" y2="400" stroke="#ddd" stroke-width="1" opacity="1"/><line transform="translate(600,-400)" x2="0" y2="400" stroke="#ddd" stroke-width="1" opacity="1"/></g></g><path class="foreground" aria-hidden="true" d="" pointer-events="none" display="none"/></g></g><g class="mark-group role-axis" aria-hidden="true"><g transform="translate(0.5,0.5)"><path class="background" aria-hidden="true" d="M0,0h0v0h0Z" pointer-events="none"/><g><g class="mark-rule role-axis-grid" pointer-events="none"><line transform="translate(0,400)" x2="600" y2="0" stroke="#ddd" stroke-width="1" opacity="1"/><line transform="translate(0,364)" x2="600" y2="0" stroke="#ddd" stroke-width="1" opacity="1"/><line transform="translate(0,327)" x2="600" y2="0" stroke="#ddd" stroke-width="1" opacity="1"/><line transform="translate(0,291)" x2="600" y2="0" stroke="#ddd" stroke-width="1" opacity="1"/><line transform="translate(0,255)" x2="600" y2="0" stroke="#ddd" stroke-width="1" opacity="1"/><line transform="translate(0,218)" x2="600" y2="0" stroke="#ddd" stroke-width="1" opacity="1"/><line transform="translate(0,182)" x2="600" y2="0" stroke="#ddd" stroke-width="1" opacity="1"/><line transform="translate(0,145)" x2="600" y2="0" stroke="#ddd" stroke-width="1" opacity="1"/><line transform="translate(0,109)" x2="600" y2="0" stroke="#ddd" stroke-width="1" opacity="1"/><line transform="translate(0,73)" x2="600" y2="0" stroke="#ddd" stroke-width="1" opacity="1"/><line transform="translate(0,36)" x2="600" y2="0" stroke="#ddd" stroke-width="1" opacity="1"/><line transform="translate(0,0)" x2="600" y2="0" stroke="#ddd" stroke-width="1" opacity="1"/></g></g><path class="foreground" aria-hidden="true" d="" pointer-events="none" display="none"/></g></g><g class="mark-group role-axis" role="graphics-symbol" aria-roledescription="axis" aria-label="X-axis titled '年齢' for a linear scale with values from 30 to 100"><g transform="translate(0.5,400.5)"><path class="background" aria-hidden="true" d="M0,0h0v0h0Z" pointer-events="none"/><g><g class="mark-rule role-axis-tick" pointer-events="none"><line transform="translate(0,0)" x2="0" y2="5" stroke="#888" stroke-width="1" opacity="1"/><line transform="translate(43,0)" x2="0" y2="5" stroke="#888" stroke-width="1" opacity="1"/><line transform="translate(86,0)" x2="0" y2="5" stroke="#888" stroke-width="1" opacity="1"/><line transform="translate(129,0)" x2="0" y2="5" stroke="#888" stroke-width="1" opacity="1"/><line transform="translate(171,0)" x2="0" y2="5" stroke="#888" stroke-width="1" opacity="1"/><line transform="translate(214,0)" x2="0" y2="5" stroke="#888" stroke-width="1" opacity="1"/><line transform="translate(257,0)" x2="0" y2="5" stroke="#888" stroke-width="1" opacity="1"/><line transform="translate(300,0)" x2="0" y2="5" stroke="#888" stroke-width="1" opacity="1"/><line transform="translate(343,0)" x2="0" y2="5" stroke="#888" stroke-width="1" opacity="1"/><line transform="translate(386,0)" x2="0" y2="5" stroke="#888" stroke-width="1" opacity="1"/><line transform="translate(429,0)" x2="0" y2="5" stroke="#888" stroke-width="1" opacity="1"/><line transform="translate(471,0)" x2="0" y2="5" stroke="#888" stroke-width="1" opacity="1"/><line transform="translate(514,0)" x2="0" y2="5" stroke="#888" stroke-width="1" opacity="1"/><line transform="translate(557,0)" x2="0" y2="5" stroke="#888" stroke-width="1" opacity="1"/><line transform="translate(600,0)" x2="0" y2="5" stroke="#888" stroke-width="1" opacity="1"/></g><g class="mark-text role-axis-label" pointer-events="none"><text text-anchor="start" transform="translate(0,15)" font-family="sans-serif" font-size="10px" fill="#000" opacity="1">30</text><text text-anchor="middle" transform="translate(42.857142857142854,15)" font-family="sans-serif" font-size="10px" fill="#000" opacity="1">35</text><text text-anchor="middle" transform="translate(85.71428571428571,15)" font-family="sans-serif" font-size="10px" fill="#000" opacity="1">40</text><text text-anchor="middle" transform="translate(128.57142857142856,15)" font-family="sans-serif" font-size="10px" fill="#000" opacity="1">45</text><text text-anchor="middle" transform="translate(171.42857142857142,15)" font-family="sans-serif" font-size="10px" fill="#000" opacity="1">50</text><text text-anchor="middle" transform="translate(214.28571428571428,15)" font-family="sans-serif" font-size="10px" fill="#000" opacity="1">55</text><text text-anchor="middle" transform="translate(257.1428571428571,15)" font-family="sans-serif" font-size="10px" fill="#000" opacity="1">60</text><text text-anchor="middle" transform="translate(300,15)" font-family="sans-serif" font-size="10px" fill="#000" opacity="1">65</text><text text-anchor="middle" transform="translate(342.85714285714283,15)" font-family="sans-serif" font-size="10px" fill="#000" opacity="1">70</text><text text-anchor="middle" transform="translate(385.7142857142857,15)" font-family="sans-serif" font-size="10px" fill="#000" opacity="1">75</text><text text-anchor="middle" transform="translate(428.57142857142856,15)" font-family="sans-serif" font-size="10px" fill="#000" opacity="1">80</text><text text-anchor="middle" transform="translate(471.42857142857144,15)" font-family="sans-serif" font-size="10px" fill="#000" opacity="1">85</text><text text-anchor="middle" transform="translate(514.2857142857142,15)" font-family="sans-serif" font-size="10px" fill="#000" opacity="1">90</text><text text-anchor="middle" transform="translate(557.1428571428571,15)" font-family="sans-serif" font-size="10px" fill="#000" opacity="1">95</text><text text-anchor="end" transform="translate(600,15)" font-family="sans-serif" font-size="10px" fill="#000" opacity="1">100</text></g><g class="mark-rule role-axis-domain" pointer-events="none"><line transform="translate(0,0)" x2="600" y2="0" stroke="#888" stroke-width="1" opacity="1"/></g><g class="mark-text role-axis-title" pointer-events="none"><text text-anchor="middle" transform="translate(300,30)" font-family="sans-serif" font-size="11px" font-weight="bold" fill="#000" opacity="1">年齢</text></g></g><path class="foreground" aria-hidden="true" d="" pointer-events="none" display="none"/></g></g><g class="mark-group role-axis" role="graphics-symbol" aria-roledescription="axis" aria-label="Y-axis titled '支出(円)' for a linear scale with values from 0 to 550,000"><g transform="translate(0.5,0.5)"><path class="background" aria-hidden="true" d="M0,0h0v0h0Z" pointer-events="none"/><g><g class="mark-rule role-axis-tick" pointer-events="none"><line transform="translate(0,400)" x2="-5" y2="0" stroke="#888" stroke-width="1" opacity="1"/><line transform="translate(0,364)" x2="-5" y2="0" stroke="#888" stroke-width="1" opacity="1"/><line transform="translate(0,327)" x2="-5" y2="0" stroke="#888" stroke-width="1" opacity="1"/><line transform="translate(0,291)" x2="-5" y2="0" stroke="#888" stroke-width="1" opacity="1"/><line transform="translate(0,255)" x2="-5" y2="0" stroke="#888" stroke-width="1" opacity="1"/><line transform="translate(0,218)" x2="-5" y2="0" stroke="#888" stroke-width="1" opacity="1"/><line transform="translate(0,182)" x2="-5" y2="0" stroke="#888" stroke-width="1" opacity="1"/><line transform="translate(0,145)" x2="-5" y2="0" stroke="#888" stroke-width="1" opacity="1"/><line transform="translate(0,109)" x2="-5" y2="0" stroke="#888" stroke-width="1" opacity="1"/><line transform="translate(0,73)" x2="-5" y2="0" stroke="#888" stroke-width="1" opacity="1"/><line transform="translate(0,36)" x2="-5" y2="0" stroke="#888" stroke-width="1" opacity="1"/><line transform="translate(0,0)" x2="-5" y2="0" stroke="#888" stroke-width="1" opacity="1"/></g><g class="mark-text role-axis-label" pointer-events="none"><text text-anchor="end" transform="translate(-7,403)" font-family="sans-serif" font-size="10px" fill="#000" opacity="1">0</text><text text-anchor="end" transform="translate(-7,366.6363636363636)" font-family="sans-serif" font-size="10px" fill="#000" opacity="1">50,000</text><text text-anchor="end" transform="translate(-7,330.27272727272725)" font-family="sans-serif" font-size="10px" fill="#000" opacity="1">100,000</text><text text-anchor="end" transform="translate(-7,293.90909090909093)" font-family="sans-serif" font-size="10px" fill="#000" opacity="1">150,000</text><text text-anchor="end" transform="translate(-7,257.5454545454545)" font-family="sans-serif" font-size="10px" fill="#000" opacity="1">200,000</text><text text-anchor="end" transform="translate(-7,221.18181818181816)" font-family="sans-serif" font-size="10px" fill="#000" opacity="1">250,000</text><text text-anchor="end" transform="translate(-7,184.81818181818184)" font-family="sans-serif" font-size="10px" fill="#000" opacity="1">300,000</text><text text-anchor="end" transform="translate(-7,148.45454545454547)" font-family="sans-serif" font-size="10px" fill="#000" opacity="1">350,000</text><text text-anchor="end" transform="translate(-7,112.09090909090908)" font-family="sans-serif" font-size="10px" fill="#000" opacity="1">400,000</text><text text-anchor="end" transform="translate(-7,75.7272727272727)" font-family="sans-serif" font-size="10px" fill="#000" opacity="1">450,000</text><text text-anchor="end" transform="translate(-7,39.363636363636374)" font-family="sans-serif" font-size="10px" fill="#000" opacity="1">500,000</text><text text-anchor="end" transform="translate(-7,3)" font-family="sans-serif" font-size="10px" fill="#000" opacity="1">550,000</text></g><g class="mark-rule role-axis-domain" pointer-events="none"><line transform="translate(0,400)" x2="0" y2="-400" stroke="#888" stroke-width="1" opacity="1"/></g><g class="mark-text role-axis-title" pointer-events="none"><text text-anchor="middle" transform="translate(-47.1474609375,200) rotate(-90) translate(0,-2)" font-family="sans-serif" font-size="11px" font-weight="bold" fill="#000" opacity="1">支出(円)</text></g></g><path class="foreground" aria-hidden="true" d="" pointer-events="none" display="none"/></g></g><g class="mark-symbol role-mark layer_0_marks" role="graphics-object" aria-roledescription="symbol mark container"><path aria-label="年齢: 34.4; 支出(円): 280544; 支出種別: 消費支出 (生活費)" role="graphics-symbol" aria-roledescription="point" transform="translate(37.7142857142857,195.96800000000002)" d="M3.873,0A3.873,3.873,0,1,1,-3.873,0A3.873,3.873,0,1,1,3.873,0" fill="#1f77b4" stroke-width="2" opacity="0.7"/><path aria-label="年齢: 44.8; 支出(円): 331526; 支出種別: 消費支出 (生活費)" role="graphics-symbol" aria-roledescription="point" transform="translate(126.85714285714283,158.89018181818182)" d="M3.873,0A3.873,3.873,0,1,1,-3.873,0A3.873,3.873,0,1,1,3.873,0" fill="#1f77b4" stroke-width="2" opacity="0.7"/><path aria-label="年齢: 54.1; 支出(円): 359951; 支出種別: 消費支出 (生活費)" role="graphics-symbol" aria-roledescription="point" transform="translate(206.57142857142858,138.21745454545456)" d="M3.873,0A3.873,3.873,0,1,1,-3.873,0A3.873,3.873,0,1,1,3.873,0" fill="#1f77b4" stroke-width="2" opacity="0.7"/><path aria-label="年齢: 67.5; 支出(円): 311281; 支出種別: 消費支出 (生活費)" role="graphics-symbol" aria-roledescription="point" transform="translate(321.42857142857144,173.61381818181817)" d="M3.873,0A3.873,3.873,0,1,1,-3.873,0A3.873,3.873,0,1,1,3.873,0" fill="#1f77b4" stroke-width="2" opacity="0.7"/><path aria-label="年齢: 72.5; 支出(円): 269015; 支出種別: 消費支出 (生活費)" role="graphics-symbol" aria-roledescription="point" transform="translate(364.2857142857143,204.3527272727273)" d="M3.873,0A3.873,3.873,0,1,1,-3.873,0A3.873,3.873,0,1,1,3.873,0" fill="#1f77b4" stroke-width="2" opacity="0.7"/><path aria-label="年齢: 83.8831689757; 支出(円): 242840; 支出種別: 消費支出 (生活費)" role="graphics-symbol" aria-roledescription="point" transform="translate(461.8557340778269,223.3890909090909)" d="M3.873,0A3.873,3.873,0,1,1,-3.873,0A3.873,3.873,0,1,1,3.873,0" fill="#1f77b4" stroke-width="2" opacity="0.7"/><path aria-label="年齢: 34.4; 支出(円): 90018; 支出種別: 非消費支出 (税・保険料)" role="graphics-symbol" aria-roledescription="point" transform="translate(37.7142857142857,334.53236363636364)" d="M3.873,0A3.873,3.873,0,1,1,-3.873,0A3.873,3.873,0,1,1,3.873,0" fill="#ff7f0e" stroke-width="2" opacity="0.7"/><path aria-label="年齢: 44.8; 支出(円): 129607; 支出種別: 非消費支出 (税・保険料)" role="graphics-symbol" aria-roledescription="point" transform="translate(126.85714285714283,305.7403636363636)" d="M3.873,0A3.873,3.873,0,1,1,-3.873,0A3.873,3.873,0,1,1,3.873,0" fill="#ff7f0e" stroke-width="2" opacity="0.7"/><path aria-label="年齢: 54.1; 支出(円): 141647; 支出種別: 非消費支出 (税・保険料)" role="graphics-symbol" aria-roledescription="point" transform="translate(206.57142857142858,296.984)" d="M3.873,0A3.873,3.873,0,1,1,-3.873,0A3.873,3.873,0,1,1,3.873,0" fill="#ff7f0e" stroke-width="2" opacity="0.7"/><path aria-label="年齢: 67.5; 支出(円): 41405; 支出種別: 非消費支出 (税・保険料)" role="graphics-symbol" aria-roledescription="point" transform="translate(321.42857142857144,369.8872727272727)" d="M3.873,0A3.873,3.873,0,1,1,-3.873,0A3.873,3.873,0,1,1,3.873,0" fill="#ff7f0e" stroke-width="2" opacity="0.7"/><path aria-label="年齢: 72.5; 支出(円): 34824; 支出種別: 非消費支出 (税・保険料)" role="graphics-symbol" aria-roledescription="point" transform="translate(364.2857142857143,374.67345454545455)" d="M3.873,0A3.873,3.873,0,1,1,-3.873,0A3.873,3.873,0,1,1,3.873,0" fill="#ff7f0e" stroke-width="2" opacity="0.7"/><path aria-label="年齢: 83.8831689757; 支出(円): 30558; 支出種別: 非消費支出 (税・保険料)" role="graphics-symbol" aria-roledescription="point" transform="translate(461.8557340778269,377.77599999999995)" d="M3.873,0A3.873,3.873,0,1,1,-3.873,0A3.873,3.873,0,1,1,3.873,0" fill="#ff7f0e" stroke-width="2" opacity="0.7"/></g><g class="mark-group role-scope layer_1_pathgroup" role="graphics-object" aria-roledescription="group mark container"><g transform="translate(0,0)"><path class="background" aria-hidden="true" d="M0,0h600v400h-600Z"/><g><g class="mark-line role-mark layer_1_marks" role="graphics-object" aria-roledescription="line mark container"><path aria-label="年齢: 30; 支出(円): 258160.71032; 支出種別: 消費支出 (生活費)" role="graphics-symbol" aria-roledescription="line mark" d="M0,212.247L8.571,208.587L17.143,204.897L25.714,201.185L34.286,197.46L42.857,193.731L51.429,190.008L60,186.299L68.571,182.614L77.143,178.962L85.714,175.351L94.286,171.792L102.857,168.292L111.429,164.862L120,161.51L128.571,158.245L137.143,155.085L145.714,152.067L154.286,149.232L162.857,146.619L171.429,144.268L180,142.22L188.571,140.512L197.143,139.187L205.714,138.283L214.286,137.837L222.857,137.86L231.429,138.359L240,139.339L248.571,140.804L257.143,142.761L265.714,145.213L274.286,148.168L282.857,151.629L291.429,155.602L300,160.092L308.571,165.104L317.143,170.644L325.714,176.711L334.286,183.155L342.857,189.679L351.429,195.981L360,201.757L368.571,206.712L377.143,210.748L385.714,213.962L394.286,216.462L402.857,218.352L411.429,219.74L420,220.732L428.571,221.434L437.143,221.953L445.714,222.394L454.286,222.864L462.857,223.47L471.429,224.288L480,225.314L488.571,226.525L497.143,227.903L505.714,229.428L514.286,231.079L522.857,232.836L531.429,234.678L540,236.587L548.571,238.541L557.143,240.521L565.714,241.05L574.286,241.05L582.857,241.05L591.429,241.05L600,241.05" stroke="#1f77b4" stroke-width="2" stroke-dasharray="0,0"/></g></g><path class="foreground" aria-hidden="true" d="" display="none"/></g><g transform="translate(0,0)"><path class="background" aria-hidden="true" d="M0,0h600v400h-600Z"/><g><g class="mark-line role-mark layer_1_marks" role="graphics-object" aria-roledescription="line mark container"><path aria-label="年齢: 30; 支出(円): 73292.2224511; 支出種別: 非消費支出 (税・保険料)" role="graphics-symbol" aria-roledescription="line mark" d="M0,346.697L8.571,343.931L17.143,341.166L25.714,338.402L34.286,335.638L42.857,332.874L51.429,330.11L60,327.346L68.571,324.581L77.143,321.815L85.714,319.048L94.286,316.279L102.857,313.509L111.429,310.736L120,307.962L128.571,305.185L137.143,302.442L145.714,299.85L154.286,297.538L162.857,295.633L171.429,294.264L180,293.56L188.571,293.648L197.143,294.657L205.714,296.716L214.286,299.914L222.857,304.144L231.429,309.229L240,314.993L248.571,321.259L257.143,327.851L265.714,334.593L274.286,341.309L282.857,347.821L291.429,353.954L300,359.532L308.571,364.377L317.143,368.314L325.714,371.176L334.286,372.997L342.857,374.015L351.429,374.479L360,374.634L368.571,374.723L377.143,374.866L385.714,375.059L394.286,375.296L402.857,375.568L411.429,375.867L420,376.187L428.571,376.518L437.143,376.854L445.714,377.187L454.286,377.508L462.857,377.81L471.429,378.088L480,378.342L488.571,378.576L497.143,378.791L505.714,378.989L514.286,379.173L522.857,379.345L531.429,379.508L540,379.663L548.571,379.812L557.143,379.959L565.714,379.998L574.286,379.998L582.857,379.998L591.429,379.998L600,379.998" stroke="#ff7f0e" stroke-width="2" stroke-dasharray="0,0"/></g></g><path class="foreground" aria-hidden="true" d="" display="none"/></g><g transform="translate(0,0)"><path class="background" aria-hidden="true" d="M0,0h600v400h-600Z"/><g><g class="mark-line role-mark layer_1_marks" role="graphics-object" aria-roledescription="line mark container"><path aria-label="年齢: 30; 支出(円): 35698.9537948; 支出種別: 非消費支出 (年金を除く)" role="graphics-symbol" aria-roledescription="line mark" d="M0,374.037L8.571,371.333L17.143,368.65L25.714,365.982L34.286,363.322L42.857,360.665L51.429,358.005L60,355.334L68.571,352.647L77.143,349.938L85.714,347.201L94.286,344.428L102.857,341.615L111.429,338.755L120,335.841L128.571,332.868L137.143,329.878L145.714,327.019L154.286,324.454L162.857,322.346L171.429,320.858L180,320.154L188.571,320.397L197.143,321.748L205.714,324.373L214.286,328.36L222.857,333.41L231.429,339.089L240,344.965L248.571,350.606L257.143,355.578L265.714,359.549L274.286,362.583L282.857,364.846L291.429,366.501L300,367.713L308.571,368.647L317.143,369.468L325.714,370.335L334.286,371.302L342.857,372.315L351.429,373.318L360,374.251L368.571,375.059L377.143,375.721L385.714,376.251L394.286,376.666L402.857,376.983L411.429,377.216L420,377.383L428.571,377.5L437.143,377.582L445.714,377.647L454.286,377.709L462.857,377.786L471.429,377.89L480,378.019L488.571,378.172L497.143,378.345L505.714,378.537L514.286,378.745L522.857,378.966L531.429,379.197L540,379.437L548.571,379.683L557.143,379.932L565.714,379.998L574.286,379.998L582.857,379.998L591.429,379.998L600,379.998" stroke="#ff7f0e" stroke-width="2" stroke-dasharray="5,5"/></g></g><path class="foreground" aria-hidden="true" d="" display="none"/></g><g transform="translate(0,0)"><path class="background" aria-hidden="true" d="M0,0h600v400h-600Z"/><g><g class="mark-line role-mark layer_1_marks" role="graphics-object" aria-roledescription="line mark container"><path aria-label="年齢: 30; 支出(円): 331452.932771; 支出種別: 合計支出" role="graphics-symbol" aria-roledescription="line mark" d="M0,158.943L8.571,152.518L17.143,146.063L25.714,139.586L34.286,133.097L42.857,126.605L51.429,120.118L60,113.645L68.571,107.195L77.143,100.777L85.714,94.399L94.286,88.071L102.857,81.801L111.429,75.598L120,69.471L128.571,63.43L137.143,57.527L145.714,51.917L154.286,46.77L162.857,42.252L171.429,38.533L180,35.78L188.571,34.161L197.143,33.844L205.714,34.999L214.286,37.751L222.857,42.004L231.429,47.588L240,54.331L248.571,62.063L257.143,70.612L265.714,79.806L274.286,89.476L282.857,99.45L291.429,109.556L300,119.623L308.571,129.481L317.143,138.959L325.714,147.887L334.286,156.151L342.857,163.694L351.429,170.46L360,176.391L368.571,181.435L377.143,185.613L385.714,189.021L394.286,191.757L402.857,193.92L411.429,195.608L420,196.919L428.571,197.953L437.143,198.807L445.714,199.581L454.286,200.372L462.857,201.28L471.429,202.376L480,203.656L488.571,205.101L497.143,206.694L505.714,208.417L514.286,210.252L522.857,212.181L531.429,214.186L540,216.25L548.571,218.354L557.143,220.481L565.714,221.049L574.286,221.049L582.857,221.049L591.429,221.049L600,221.049" stroke="#2ca02c" stroke-width="2" stroke-dasharray="5,5"/></g></g><path class="foreground" aria-hidden="true" d="" display="none"/></g></g><g class="mark-group role-legend" role="graphics-symbol" aria-roledescription="legend" aria-label="Symbol legend titled '支出種別' for fill color and stroke color with 4 values: 消費支出 (生活費), 非消費支出 (税・保険料), 合計支出, 非消費支出 (年金を除く)"><g transform="translate(620,0)"><path class="background" aria-hidden="true" d="M0,0h126v77h-126Z" pointer-events="none"/><g><g class="mark-group role-legend-entry"><g transform="translate(0,16)"><path class="background" aria-hidden="true" d="M0,0h0v0h0Z" pointer-events="none"/><g><g class="mark-group role-scope" role="graphics-object" aria-roledescription="group mark container"><g transform="translate(0,0)"><path class="background" aria-hidden="true" d="M0,0h125.4384765625v12.5h-125.4384765625Z" pointer-events="none" opacity="1"/><g><g class="mark-symbol role-legend-symbol" pointer-events="none"><path transform="translate(6,6)" d="M5,0A5,5,0,1,1,-5,0A5,5,0,1,1,5,0" fill="#1f77b4" stroke="#1f77b4" stroke-width="1.5" opacity="0.7"/></g><g class="mark-text role-legend-label" pointer-events="none"><text text-anchor="start" transform="translate(16,9)" font-family="sans-serif" font-size="10px" fill="#000" opacity="1">消費支出 (生活費)</text></g></g><path class="foreground" aria-hidden="true" d="" pointer-events="none" display="none"/></g><g transform="translate(0,16)"><path class="background" aria-hidden="true" d="M0,0h125.4384765625v12.5h-125.4384765625Z" pointer-events="none" opacity="1"/><g><g class="mark-symbol role-legend-symbol" pointer-events="none"><path transform="translate(6,6)" d="M5,0A5,5,0,1,1,-5,0A5,5,0,1,1,5,0" fill="#ff7f0e" stroke="#ff7f0e" stroke-width="1.5" opacity="0.7"/></g><g class="mark-text role-legend-label" pointer-events="none"><text text-anchor="start" transform="translate(16,9)" font-family="sans-serif" font-size="10px" fill="#000" opacity="1">非消費支出 (税・保険料)</text></g></g><path class="foreground" aria-hidden="true" d="" pointer-events="none" display="none"/></g><g transform="translate(0,32)"><path class="background" aria-hidden="true" d="M0,0h125.4384765625v12.5h-125.4384765625Z" pointer-events="none" opacity="1"/><g><g class="mark-symbol role-legend-symbol" pointer-events="none"><path transform="translate(6,6)" d="M5,0A5,5,0,1,1,-5,0A5,5,0,1,1,5,0" fill="#2ca02c" stroke="#2ca02c" stroke-width="1.5" opacity="0.7"/></g><g class="mark-text role-legend-label" pointer-events="none"><text text-anchor="start" transform="translate(16,9)" font-family="sans-serif" font-size="10px" fill="#000" opacity="1">合計支出</text></g></g><path class="foreground" aria-hidden="true" d="" pointer-events="none" display="none"/></g><g transform="translate(0,48)"><path class="background" aria-hidden="true" d="M0,0h125.4384765625v12.5h-125.4384765625Z" pointer-events="none" opacity="1"/><g><g class="mark-symbol role-legend-symbol" pointer-events="none"><path transform="translate(6,6)" d="M5,0A5,5,0,1,1,-5,0A5,5,0,1,1,5,0" fill="#ff7f0e" stroke="#ff7f0e" stroke-width="1.5" opacity="0.7"/></g><g class="mark-text role-legend-label" pointer-events="none"><text text-anchor="start" transform="translate(16,9)" font-family="sans-serif" font-size="10px" fill="#000" opacity="1">非消費支出 (年金を除く)</text></g></g><path class="foreground" aria-hidden="true" d="" pointer-events="none" display="none"/></g></g></g><path class="foreground" aria-hidden="true" d="" pointer-events="none" display="none"/></g></g><g class="mark-text role-legend-title" pointer-events="none"><text text-anchor="start" transform="translate(0,9)" font-family="sans-serif" font-size="11px" font-weight="bold" fill="#000" opacity="1">支出種別</text></g></g><path class="foreground" aria-hidden="true" d="" pointer-events="none" display="none"/></g></g><g class="mark-group role-title"><g transform="translate(300,-22)"><path class="background" aria-hidden="true" d="M0,0h0v0h0Z" pointer-events="none"/><g><g class="mark-text role-title-text" role="graphics-symbol" aria-roledescription="title" aria-label="Title text '年齢別支出（消費・非消費）の推移'" pointer-events="none"><text text-anchor="middle" transform="translate(0,10)" font-family="sans-serif" font-size="13px" font-weight="bold" fill="#000" opacity="1">年齢別支出（消費・非消費）の推移</text></g></g><path class="foreground" aria-hidden="true" d="" pointer-events="none" display="none"/></g></g></g><path class="foreground" aria-hidden="true" d="" display="none"/></g></g></g></svg>